<svg width="64" height="64" xmlns="http://www.w3.org/2000/svg"><defs><linearGradient x1="0%" y1="100%" x2="100%" y2="0%" id="a"><stop stop-color="#055F4E" offset="0%"/><stop stop-color="#56C0A7" offset="100%"/></linearGradient></defs><g fill="none" fill-rule="evenodd"><path d="M0 0h64v64H0z" fill="url(#a)"/><path d="m21.707 17.293-3-3-1.414 1.414 3 3 1.414-1.414Zm25-1.586-1.414-1.414-3 3 1.414 1.414 3-3ZM33.99 22.142l-1.98-.284-2 14 1.98.284 2-14ZM39.8 29.6a1.002 1.002 0 0 0 0-1.2l-3-4-1.6 1.2 2.55 3.4-2.55 3.4 1.6 1.2 3-4Zm-11 2.8L26.25 29l2.55-3.4-1.6-1.2-3 4a1.002 1.002 0 0 0 0 1.2l3 4 1.6-1.2ZM27.805 50h8.39l-1.25 2h-5.89l-1.25-2Zm8.543 3.53 2.5-4A1 1 0 0 0 38 48H26a1.002 1.002 0 0 0-.848 1.53l2.5 4a1 1 0 0 0 .848.47h7a1 1 0 0 0 .848-.47ZM26 38.733a1 1 0 0 0-.415-.811A11.032 11.032 0 0 1 21 29c0-6.065 4.935-11 11-11s11 4.935 11 11c0 3.518-1.714 6.854-4.585 8.922a1 1 0 0 0-.415.811V44H26v-5.267ZM40 45v-5.768c3.14-2.459 5-6.245 5-10.232 0-7.168-5.832-13-13-13s-13 5.832-13 13c0 3.987 1.86 7.773 5 10.232V45a1 1 0 0 0 1 1h14a1 1 0 0 0 1-1Zm7-15h4v-2h-4v2Zm-34 0h4v-2h-4v2Zm18-16h2v-4h-2v4Z" fill="#FFF"/></g></svg>