<svg width="64" height="64" xmlns="http://www.w3.org/2000/svg"><defs><linearGradient x1="0%" y1="100%" x2="100%" y2="0%" id="a"><stop stop-color="#055F4E" offset="0%"/><stop stop-color="#56C0A7" offset="100%"/></linearGradient></defs><g fill="none" fill-rule="evenodd"><path d="M0 0h64v64H0z" fill="url(#a)"/><path d="M43 54h6v-1.931h-6V54ZM15 42.052h12V40.05H15v2.003Zm13-5.008h6v-2.003h-6v2.003Zm-13 0h11v-2.003H15v2.003Zm0-15.024h10v-2.004H15v2.004Zm34.114 22.317c-.434.303-.788.59-1.052 1.301-.041.111-.062.23-.062.349v3.005h-1v-6.01h2v-1.931h-6v1.931h2v6.01h-1v-3.005c0-.12-.021-.238-.062-.349-.264-.71-.618-.998-1.053-1.3-2.144-1.49-3.215-4.038-2.794-6.653.466-2.903 2.923-5.241 5.85-5.577h.118c2.927.336 5.384 2.674 5.85 5.577.42 2.615-.65 5.164-2.795 6.652Zm4.77-6.97c-.61-3.796-3.833-6.848-7.665-7.256a.94.94 0 0 0-.106-.006h-.226a.94.94 0 0 0-.106.006c-3.832.408-7.055 3.46-7.665 7.256-.544 3.383.847 6.685 3.629 8.617.158.11.217.15.255.208v3.801a1 1 0 0 0 1 1.002h6a1 1 0 0 0 1-1.002v-3.8c.038-.059.097-.1.254-.21 2.783-1.931 4.174-5.233 3.63-8.616ZM15 32.037h19v-2.004H15v2.003Zm7-5.01h12v-2.002H22v2.003Zm-7 0h5v-2.002h-5v2.003ZM29 13.25l6.395 5.765H29V13.25Zm9 36.816H12V12.007l15-.004v8.013a1 1 0 0 0 1 1.002h9v10.016h2V20.016h-.008a.993.993 0 0 0-.323-.744l-10-9.015a.989.989 0 0 0-.67-.247V10L11 10.004a1 1 0 0 0-1 1.002v40.061a1 1 0 0 0 1 1.002h28a1 1 0 0 0 1-1.002v-4.006h-2v3.005Z" fill="#FFF"/></g></svg>