<svg width="64" height="64" xmlns="http://www.w3.org/2000/svg"><defs><linearGradient x1="0%" y1="100%" x2="100%" y2="0%" id="a"><stop stop-color="#055F4E" offset="0%"/><stop stop-color="#56C0A7" offset="100%"/></linearGradient></defs><g fill="none" fill-rule="evenodd"><path d="M0 0h64v64H0z" fill="url(#a)"/><path d="M36.999 54h1.999V44h-2v10Zm-11 0h1.998v-6h-1.999v6Zm0-9h1.998v-3h-1.999v3Zm7.995-11v-3h-2.998v3h-2v-3H24c-.349 0-1.273 0-1.74-.807C22 29.745 22 29.257 22 28.64V12.51c0-.611 0-1.124.23-1.585.309-.614.903-.925 1.769-.925h7.996v2h-7.99c-.006.143-.006.33-.006.493v16.13c0 .125 0 .261.003.377h16.986c.003-.114.003-.244.003-.36V12.51c0-.174 0-.365-.007-.51h-2.992v-2h2.999c.865 0 1.46.311 1.767.925.232.461.232.974.232 1.568v16.13c0 .634 0 1.122-.26 1.57-.467.807-1.391.807-1.739.807h-4.998v3h-1.999Zm-.457 18a1 1 0 1 1-2.002-.002 1 1 0 0 1 2.002.002Zm0-4a1 1 0 1 1-2.002-.002 1 1 0 0 1 2.002.002Zm.457-36h2v-2h-2v2Zm1 27h1.999v-2h-2v2Zm-3.457-18.464a.999.999 0 1 1 1.998-.002.999.999 0 0 1-1.998.002Zm2 23.464a1 1 0 1 1-2.002-.002 1 1 0 0 1 2.002.002ZM41 54l-.009-15h-2v-2h1.999c0-2.271-.829-2.446-2-2.446h-.999v-2h1c2.69 0 3.998 1.454 3.998 4.446L43 53.999 41.001 54Zm-17-15 .008 6.999L22.01 46 22 37c0-2.991 1.307-4.445 3.998-4.445h1v2h-1C24.828 34.555 24 34.73 24 37h8.996v2H24Zm8.536-21.423a2.962 2.962 0 0 1 2.957 2.959 2.961 2.961 0 0 1-2.957 2.958 2.96 2.96 0 0 1-2.958-2.958 2.961 2.961 0 0 1 2.958-2.959Zm-4.957 2.959a4.962 4.962 0 0 0 4.957 4.958 4.963 4.963 0 0 0 4.956-4.958 4.964 4.964 0 0 0-4.956-4.959 4.963 4.963 0 0 0-4.957 4.959Z" fill="#FFF"/></g></svg>