<svg width="64" height="64" xmlns="http://www.w3.org/2000/svg"><defs><linearGradient x1="0%" y1="100%" x2="100%" y2="0%" id="a"><stop stop-color="#055F4E" offset="0%"/><stop stop-color="#56C0A7" offset="100%"/></linearGradient></defs><g fill="none" fill-rule="evenodd"><path d="M0 0h64v64H0z" fill="url(#a)"/><path d="M29.023 49.581a1 1 0 0 0-.777-1.033 16.821 16.821 0 0 1-5.29-2.194.999.999 0 0 0-1.281.18l-1.615 1.811-4.405-4.405 1.81-1.615a1 1 0 0 0 .18-1.28 16.79 16.79 0 0 1-2.188-5.29 1.025 1.025 0 0 0-1.033-.778L12 35.115v-6.23l2.431.138c.446.016.924-.3 1.032-.777a16.822 16.822 0 0 1 2.193-5.28 1.002 1.002 0 0 0-.18-1.281l-1.821-1.625 4.405-4.405 1.624 1.82a1 1 0 0 0 1.279.18 16.854 16.854 0 0 1 5.283-2.186 1 1 0 0 0 .777-1.033L28.884 12h6.231l-.139 2.438a1 1 0 0 0 .777 1.033 16.828 16.828 0 0 1 5.28 2.188 1 1 0 0 0 1.279-.18l1.627-1.824 4.405 4.405-1.818 1.622a1 1 0 0 0-.18 1.28 16.779 16.779 0 0 1 2.192 5.284c.107.477.563.793 1.032.777l2.43-.138v6.23l-2.428-.138a1.01 1.01 0 0 0-1.032.778 16.85 16.85 0 0 1-2.189 5.287 1 1 0 0 0 .18 1.28l1.813 1.618-4.404 4.405-1.613-1.808a1 1 0 0 0-1.281-.18 16.776 16.776 0 0 1-5.292 2.193 1 1 0 0 0-.778 1.033L35.115 52h-6.231l.139-2.419Zm7.878 4.105a1 1 0 0 0 .27-.743l-.151-2.648a18.723 18.723 0 0 0 4.365-1.809l1.767 1.98a.997.997 0 0 0 .718.334.938.938 0 0 0 .735-.292l5.902-5.903a.996.996 0 0 0-.041-1.453L48.48 41.38a18.807 18.807 0 0 0 1.805-4.36l2.658.152A1.001 1.001 0 0 0 54 36.174v-8.348a1.001 1.001 0 0 0-1.057-.998l-2.66.151a18.79 18.79 0 0 0-1.807-4.356l1.99-1.775a.997.997 0 0 0 .041-1.453l-5.902-5.902a.97.97 0 0 0-.735-.293 1.002 1.002 0 0 0-.718.334l-1.781 1.996a18.742 18.742 0 0 0-4.351-1.803l.151-2.67A.998.998 0 0 0 36.173 10h-8.347a.998.998 0 0 0-.998 1.057l.151 2.667a18.815 18.815 0 0 0-4.353 1.802l-1.779-1.992a1 1 0 0 0-1.453-.041l-5.902 5.902a.996.996 0 0 0 .041 1.453l1.994 1.778a18.765 18.765 0 0 0-1.808 4.353l-2.663-.151a.996.996 0 0 0-1.056.998v8.348a1 1 0 0 0 1.056.998l2.655-.152a18.772 18.772 0 0 0 1.805 4.364l-1.983 1.768a1.002 1.002 0 0 0-.041 1.453l5.902 5.903a.953.953 0 0 0 .735.292.995.995 0 0 0 .718-.334l1.77-1.983a18.837 18.837 0 0 0 4.362 1.81l-.151 2.65A1 1 0 0 0 27.826 54h8.347a1 1 0 0 0 .728-.314Zm-6.313-17.027 7.904-7.904-1.414-1.414-7.197 7.197-2.96-2.961-1.414 1.414 3.667 3.668a1.003 1.003 0 0 0 1.414 0Zm16.941-5.508-2.549 1.361c.266-6.651-4.599-12.538-11.322-13.403a12.983 12.983 0 0 0-13.357 7.22l1.799.872a11 11 0 0 1 11.302-6.108c5.564.716 9.622 5.497 9.586 10.972l-1.723-1.7-1.404 1.424 3.764 3.714 4.845-2.587-.941-1.765Zm-3.831 6.519a12.981 12.981 0 0 1-13.357 7.221c-6.723-.865-11.588-6.752-11.322-13.403l-2.549 1.361-.941-1.765 4.846-2.587 3.763 3.714-1.404 1.424-1.723-1.7c-.036 5.475 4.022 10.256 9.586 10.972a10.997 10.997 0 0 0 11.302-6.109l1.799.872Z" fill="#FFF"/></g></svg>