<svg width="64" height="64" xmlns="http://www.w3.org/2000/svg"><defs><linearGradient x1="0%" y1="100%" x2="100%" y2="0%" id="a"><stop stop-color="#055F4E" offset="0%"/><stop stop-color="#56C0A7" offset="100%"/></linearGradient></defs><g fill="none" fill-rule="evenodd"><path d="M0 0h64v64H0z" fill="url(#a)"/><path d="M40.682 46.897h4.149V23.256h-4.15v23.641Zm-1.998 2h8.144V21.256h-8.144v27.641Zm-9.27-2h4.148V29.41h-4.149v17.487Zm-1.999 2h8.145V27.41h-8.145v21.487ZM17.12 46.898h4.149V36.59h-4.15v10.308Zm-1.998 1.999h8.144V34.589h-8.144v14.308ZM47.878 11v2h3.223l-4.164 4.154h-8.544a.997.997 0 0 0-.872.512l-3.153 5.642h-8.444a.997.997 0 0 0-.933.645l-2.479 6.534h-7.415v2h8.105a.998.998 0 0 0 .933-.645l2.48-6.534h8.339a.997.997 0 0 0 .871-.512l3.154-5.642h8.372a1 1 0 0 0 .705-.292l3.946-3.937v2.203H54V11h-6.122Zm2.075 10.231h1.997V53H10V13.051h33.78v2H11.998V51h37.955V21.231Z" fill="#FFF"/></g></svg>