<svg width="64" height="64" xmlns="http://www.w3.org/2000/svg"><defs><linearGradient x1="0%" y1="100%" x2="100%" y2="0%" id="a"><stop stop-color="#055F4E" offset="0%"/><stop stop-color="#56C0A7" offset="100%"/></linearGradient></defs><g fill="none" fill-rule="evenodd"><path d="M0 0h64v64H0z" fill="url(#a)"/><path d="M47 37h2v-4h-2v4Zm5 8h-3a1 1 0 0 1-1-1v-3h-3v3a1 1 0 0 1-1 1h-3v3h3a1 1 0 0 1 1 1v3h3v-3a1 1 0 0 1 1-1h3v-3Zm2-1v5a1 1 0 0 1-1 1h-3v3a1 1 0 0 1-1 1h-5a1 1 0 0 1-1-1v-3h-3a1 1 0 0 1-1-1v-5a1 1 0 0 1 1-1h3v-3a1 1 0 0 1 1-1h5a1 1 0 0 1 1 1v3h3a1 1 0 0 1 1 1ZM27 16h10v-4H27v4Zm-2 1v-6a1 1 0 0 1 1-1h12a1 1 0 0 1 1 1v6a1 1 0 0 1-1 1H26a1 1 0 0 1-1-1Zm-8-3c0-.551.448-1 1-1h5v-2h-5c-1.654 0-3 1.346-3 3v12h2V14Zm30 0v12h2V14c0-1.654-1.346-3-3-3h-5v2h5c.552 0 1 .449 1 1ZM17 51V33h-2v18c0 1.654 1.346 3 3 3h22v-2H18c-.552 0-1-.449-1-1Zm23.693-22-2.756-7.351a1.002 1.002 0 0 0-.884-.648 1.018 1.018 0 0 0-.948.552l-4.256 8.514-4.036-5.648a.984.984 0 0 0-.853-.418.996.996 0 0 0-.817.484L23.434 29H10v2h14a.997.997 0 0 0 .857-.485l2.216-3.693 4.114 5.759a.999.999 0 0 0 1.708-.134l3.974-7.948 2.194 5.852c.147.39.52.649.937.649h14v-2H40.693ZM20 43h14v-2H20v2Zm0 5h14v-2H20v2Z" fill="#FFF"/></g></svg>