<svg width="64" height="64" xmlns="http://www.w3.org/2000/svg"><defs><linearGradient x1="0%" y1="100%" x2="100%" y2="0%" id="a"><stop stop-color="#055F4E" offset="0%"/><stop stop-color="#56C0A7" offset="100%"/></linearGradient></defs><g fill="none" fill-rule="evenodd"><path d="M0 0h64v64H0z" fill="url(#a)"/><path d="M42 22.497c0-3.584-2.916-6.5-6.5-6.5a6.508 6.508 0 0 0-6.214 8.412l-1.912.588a8.497 8.497 0 0 1-.374-2.5c0-4.687 3.813-8.5 8.5-8.5 4.687 0 8.5 3.813 8.5 8.5a8.497 8.497 0 0 1-7.501 8.442l-.232-1.986A6.497 6.497 0 0 0 42 22.497ZM16 49h3v-2h-3v2Zm4-4h-5a1 1 0 0 0-1 1v4a1 1 0 0 0 1 1h5a1 1 0 0 0 1-1v-4a1 1 0 0 0-1-1Zm5 4h3v-2h-3v2Zm4-4h-5a1 1 0 0 0-1 1v4a1 1 0 0 0 1 1h5a1 1 0 0 0 1-1v-4a1 1 0 0 0-1-1Zm19 7H12V18h5v24h2V31.304l7 6.542V42h2V31.304l7 6.542V43a1 1 0 0 0 1 1h12v8ZM12 16h5v-3h-5v3Zm37 26H37v-4.588a1 1 0 0 0-.317-.73l-9-8.412A1 1 0 0 0 26 29v6.109l-7-6.542V12a1 1 0 0 0-1-1h-7a1 1 0 0 0-1 1v41a1 1 0 0 0 1 1h38a1 1 0 0 0 1-1V43a1 1 0 0 0-1-1Zm2.502-3.617c-.453.517-1.163.881-1.648.456l-6.965-6.253a12.379 12.379 0 0 0 1.966-1.797l6.889 5.878c.469.411.233 1.174-.242 1.716Zm1.551-3.229-6.994-5.968A12.478 12.478 0 0 0 48 22.5C48 15.608 42.393 10 35.5 10S23 15.608 23 22.5c0 1.246.183 2.476.544 3.657l1.912-.585A10.493 10.493 0 0 1 25 22.5C25 16.711 29.71 12 35.5 12S46 16.711 46 22.5c0 5.111-3.647 9.46-8.673 10.342l.346 1.97a12.424 12.424 0 0 0 3.431-1.14l7.423 6.664a2.725 2.725 0 0 0 1.812.679c.933 0 1.91-.451 2.667-1.313 1.296-1.48 1.32-3.431.047-4.548Z" fill="#FFF"/></g></svg>