<svg width="64" height="64" xmlns="http://www.w3.org/2000/svg"><defs><linearGradient x1="0%" y1="100%" x2="100%" y2="0%" id="a"><stop stop-color="#055F4E" offset="0%"/><stop stop-color="#56C0A7" offset="100%"/></linearGradient></defs><g fill="none" fill-rule="evenodd"><path d="M0 0h64v64H0z" fill="url(#a)"/><path d="M12 52h42v2H10V10h2v42Zm2.744-1.493L13 49.493l5.946-10c.18-.303.508-.49.863-.493.341.003.687.178.871.478l4.78 7.72 4.487-26.364c.081-.474.49-.824.976-.834.5.021.912.323 1.01.793l5.842 27.357 4.652-3.912a1.03 1.03 0 0 1 .744-.234c.27.023.52.153.691.36l3.46 4.15 2.248-2.221L51 47.707l-3.034 3c-.2.199-.477.303-.764.292a1.011 1.011 0 0 1-.731-.363l-3.516-4.216-5.165 4.342a1.023 1.023 0 0 1-.981.184 1.007 1.007 0 0 1-.663-.739l-5.09-23.839-4.05 23.798a1.006 1.006 0 0 1-.996.834c-.348 0-.677-.177-.863-.478l-5.311-8.578-5.092 8.563Zm25.161-26.885c-.588-4.828-4.971-8.163-9.953-7.598-4.993.569-8.445 4.796-7.858 9.625.35 2.872 2.018 5.288 4.576 6.628L25.704 34c-3.145-1.647-5.196-4.607-5.624-8.122-.72-5.92 3.512-11.104 9.634-11.8 2.959-.338 5.848.436 8.129 2.177a10.505 10.505 0 0 1 4.077 7.138c.508 4.172-1.43 8.11-5.06 10.274l-1.064-1.669c2.95-1.76 4.524-4.969 4.11-8.376Zm12.67 16.218c.7.529.454 1.545-.152 2.276-.362.439-.807.738-1.25.843-.381.093-.725.027-1.01-.188L41 35.711A14.24 14.24 0 0 0 43.224 33l9.35 6.84Zm-28.571-1.852.905-1.788c-3.775-1.937-6.325-5.64-6.824-9.908-.4-3.412.535-6.76 2.628-9.43a12.613 12.613 0 0 1 8.506-4.764c3.387-.403 6.717.538 9.37 2.646 2.653 2.107 4.334 5.147 4.733 8.558.62 5.312-2.125 10.494-6.833 12.895l.902 1.79a14.41 14.41 0 0 0 2.122-1.335l9.426 7.669c.565.448 1.229.679 1.926.679.265 0 .536-.033.806-.101.87-.218 1.697-.783 2.331-1.592 1.397-1.781 1.32-4.022-.188-5.222l-9.618-7.43c1-2.34 1.415-4.95 1.107-7.587-.462-3.944-2.406-7.46-5.478-9.9-3.072-2.439-6.918-3.528-10.84-3.063a14.594 14.594 0 0 0-9.837 5.513c-2.424 3.09-3.505 6.965-3.044 10.908.577 4.935 3.53 9.22 7.9 11.462Z" fill="#FFF"/></g></svg>