<svg width="64" height="64" xmlns="http://www.w3.org/2000/svg"><defs><linearGradient x1="0%" y1="100%" x2="100%" y2="0%" id="a"><stop stop-color="#055F4E" offset="0%"/><stop stop-color="#56C0A7" offset="100%"/></linearGradient></defs><g fill="none" fill-rule="evenodd"><path d="M0 0h64v64H0z" fill="url(#a)"/><path d="M32 20c6.28 0 11.439 4.851 11.95 11h-4.188l-3.467-8.481a1.023 1.023 0 0 0-.946-.622 1.002 1.002 0 0 0-.92.66L28.94 37.716l-2.911-6.144a1 1 0 0 0-.904-.572h-5.074c.511-6.149 5.67-11 11.949-11Zm0 24c-6.279 0-11.438-4.85-11.949-11h4.442l3.667 7.74a1.001 1.001 0 0 0 1.843-.088l5.423-14.974 2.738 6.701a1 1 0 0 0 .926.621h4.86c-.511 6.15-5.67 11-11.95 11ZM18.051 33c.516 7.253 6.568 13 13.949 13 7.382 0 13.434-5.747 13.95-13H53a1 1 0 0 0 1-1v-4.124C54 26.842 53.16 26 52.125 26h-2.71a17.293 17.293 0 0 0-1.187-2.859l1.918-1.918a1.878 1.878 0 0 0 0-2.652l-4.717-4.718a1.878 1.878 0 0 0-2.651.001l-1.918 1.919c-.92-.482-1.876-.88-2.86-1.188v-2.709C38 10.842 37.16 10 36.125 10h-8.25A1.878 1.878 0 0 0 26 11.876v2.709c-.983.308-1.939.706-2.859 1.188l-1.918-1.919a1.88 1.88 0 0 0-2.652 0l-4.716 4.717a1.876 1.876 0 0 0 0 2.652l1.918 1.918A17.298 17.298 0 0 0 14.585 26h-2.71A1.878 1.878 0 0 0 10 27.876V29h2v-1h3.337a1 1 0 0 0 .967-.744c.35-1.321.879-2.596 1.572-3.787a.999.999 0 0 0-.157-1.21l-2.362-2.362 4.54-4.541 2.362 2.362a.999.999 0 0 0 1.21.158 15.319 15.319 0 0 1 3.787-1.572 1 1 0 0 0 .744-.967V12h8v3.337a1 1 0 0 0 .745.967c1.319.349 2.593.877 3.787 1.572a.999.999 0 0 0 1.21-.158l2.362-2.362 4.54 4.541-2.362 2.362a.999.999 0 0 0-.158 1.21 15.319 15.319 0 0 1 1.573 3.787.999.999 0 0 0 .967.744H52v3h-6.05c-.516-7.253-6.568-13-13.95-13-7.381 0-13.433 5.747-13.949 13H11a1 1 0 0 0-1 1v4.125c0 1.034.841 1.875 1.875 1.875h2.922c.327.981.749 1.935 1.259 2.851l-2.012 1.884a1.882 1.882 0 0 0-.593 1.369c.001.517.216 1.015.593 1.368l5.083 4.756a1.88 1.88 0 0 0 2.564 0l2.165-2.026A19.04 19.04 0 0 0 27 49.429v2.696c0 1.034.841 1.875 1.875 1.875h7.25A1.876 1.876 0 0 0 38 52.125v-2.696a19.05 19.05 0 0 0 3.145-1.227l2.166 2.027a1.88 1.88 0 0 0 2.571-.01l4.847-4.651c.378-.354.595-.853.595-1.371 0-.517-.217-1.016-.549-1.323l-1.856-1.977c.522-.93.952-1.9 1.285-2.897h1.921A1.876 1.876 0 0 0 54 36.125V35h-2v1h-2.535a1 1 0 0 0-.962.728 14.752 14.752 0 0 1-1.676 3.778.998.998 0 0 0 .121 1.213l2.324 2.475-4.682 4.493-2.594-2.428a1.003 1.003 0 0 0-1.162-.148 17.179 17.179 0 0 1-4.074 1.582 1 1 0 0 0-.76.97V52h-7v-3.337c0-.46-.313-.86-.759-.97a17.203 17.203 0 0 1-4.075-1.582 1 1 0 0 0-1.161.148l-2.596 2.429-4.901-4.585 2.5-2.339a1 1 0 0 0 .166-1.258 14.752 14.752 0 0 1-1.676-3.778 1.001 1.001 0 0 0-.962-.728H12v-3h6.051Z" fill="#FFF"/></g></svg>