<svg width="64" height="64" xmlns="http://www.w3.org/2000/svg"><defs><linearGradient x1="0%" y1="100%" x2="100%" y2="0%" id="a"><stop stop-color="#055F4E" offset="0%"/><stop stop-color="#56C0A7" offset="100%"/></linearGradient></defs><g fill="none" fill-rule="evenodd"><path d="M0 0h64v64H0z" fill="url(#a)"/><path d="m49 42.412-17 9.444-17-9.444V21.589l17-9.445 17 9.445v20.823Zm1.485-22.286-18-10a.996.996 0 0 0-.97 0l-18 10A1 1 0 0 0 13 21v22c0 .364.197.698.515.874l18 10a.994.994 0 0 0 .97 0l18-10A.998.998 0 0 0 51 43V21a1 1 0 0 0-.515-.874ZM33.5 20.5a1.501 1.501 0 0 1-3 0c0-.827.673-1.5 1.5-1.5s1.5.673 1.5 1.5Zm10.5 9a1.501 1.501 0 0 1-3 0c0-.827.673-1.5 1.5-1.5s1.5.673 1.5 1.5ZM38.5 43a1.501 1.501 0 0 1 0-3 1.501 1.501 0 0 1 0 3Zm-3.406-7.07 1.508 2.638a3.507 3.507 0 0 0-.413.324L33.666 37l1.428-1.07Zm-7.283 2.962a3.507 3.507 0 0 0-.413-.324l1.508-2.638L30.334 37l-2.523 1.892ZM25.5 43a1.501 1.501 0 0 1 0-3 1.501 1.501 0 0 1 0 3ZM20 29.5c0-.827.673-1.5 1.5-1.5s1.5.673 1.5 1.5a1.501 1.501 0 0 1-3 0Zm5.415 8.509a3.424 3.424 0 0 0-.638.069l-1.582-5.535c.222-.124.428-.268.616-.435l3.483 2.613-1.879 3.288ZM31 26.163c-1.44.434-2.5 1.757-2.5 3.337 0 .75.242 1.441.645 2.012l-.013-.008-.838 1.467-3.427-2.569A3.45 3.45 0 0 0 25 29.5c0-.816-.293-1.558-.763-2.154l5.675-4.054c.324.244.691.426 1.088.545v2.326Zm-.277 6.588c.396.157.826.249 1.277.249.451 0 .881-.092 1.277-.249l.817 1.429L32 35.751l-2.094-1.571.817-1.429ZM32 28a1.501 1.501 0 1 1-1.5 1.5c0-.827.673-1.5 1.5-1.5Zm6.585 10.009-1.879-3.288 3.483-2.613c.188.167.394.311.616.435l-1.582 5.535a3.424 3.424 0 0 0-.638-.069Zm-4.497-14.717 5.675 4.054A3.466 3.466 0 0 0 39 29.5c0 .314.055.612.133.902l-3.427 2.569-.838-1.467-.013.008A3.476 3.476 0 0 0 35.5 29.5c0-1.58-1.06-2.903-2.5-3.337v-2.326a3.444 3.444 0 0 0 1.088-.545ZM28.5 20.5c0 .418.086.813.221 1.185l-6.255 4.468A3.436 3.436 0 0 0 21.5 26c-1.93 0-3.5 1.571-3.5 3.5 0 1.84 1.432 3.337 3.237 3.474l1.745 6.106A3.482 3.482 0 0 0 22 41.5c0 1.93 1.57 3.5 3.5 3.5s3.5-1.57 3.5-3.5c0-.313-.055-.611-.133-.901L32 38.25l3.133 2.349c-.078.29-.133.588-.133.901 0 1.93 1.57 3.5 3.5 3.5s3.5-1.57 3.5-3.5c0-.94-.377-1.791-.982-2.42l1.745-6.106C44.568 32.837 46 31.34 46 29.5c0-1.929-1.57-3.5-3.5-3.5-.337 0-.657.063-.966.153l-6.255-4.468c.135-.372.221-.767.221-1.185 0-1.929-1.57-3.5-3.5-3.5s-3.5 1.571-3.5 3.5Z" fill="#FFF"/></g></svg>