<svg width="64" height="64" xmlns="http://www.w3.org/2000/svg"><defs><linearGradient x1="0%" y1="100%" x2="100%" y2="0%" id="a"><stop stop-color="#055F4E" offset="0%"/><stop stop-color="#56C0A7" offset="100%"/></linearGradient></defs><g fill="none" fill-rule="evenodd"><path d="M0 0h64v64H0z" fill="url(#a)"/><path d="M16 17.5c0-.827.673-1.5 1.5-1.5s1.5.673 1.5 1.5-.673 1.5-1.5 1.5-1.5-.673-1.5-1.5Zm5 0c0-1.93-1.57-3.5-3.5-3.5S14 15.57 14 17.5s1.57 3.5 3.5 3.5 3.5-1.57 3.5-3.5ZM47.5 49c-1.93 0-3.5-1.57-3.5-3.5s1.57-3.5 3.5-3.5 3.5 1.57 3.5 3.5-1.57 3.5-3.5 3.5ZM33 30c1.103 0 2 .897 2 2s-.897 2-2 2-2-.897-2-2 .897-2 2-2Zm-3.444.002A3.942 3.942 0 0 0 29 32c0 2.206 1.794 4 4 4s4-1.794 4-4-1.794-4-4-4c-.747 0-1.438.219-2.037.577l-3.094-2.707A7.967 7.967 0 0 1 33 24c4.411 0 8 3.589 8 8s-3.589 8-8 8-8-3.589-8-8c0-1.74.564-3.347 1.512-4.662l3.044 2.664ZM14 32c0-2.531.508-4.976 1.47-7.287A7.435 7.435 0 0 0 17.5 25a7.452 7.452 0 0 0 4.559-1.558l2.945 2.578A9.935 9.935 0 0 0 23 32c0 5.514 4.486 10 10 10s10-4.486 10-10-4.486-10-10-10a9.946 9.946 0 0 0-6.643 2.546l-2.886-2.525A7.455 7.455 0 0 0 25 17.5c0-.884-.162-1.729-.443-2.517 5.142-2.548 11.511-2.58 16.685-.096A5.506 5.506 0 0 0 46.5 22c.826 0 1.606-.188 2.311-.516A18.847 18.847 0 0 1 52 32c0 2.988-.713 5.935-2.053 8.582A5.454 5.454 0 0 0 47.5 40a5.506 5.506 0 0 0-5.5 5.5c0 1.019.283 1.971.769 2.79A18.896 18.896 0 0 1 33 51c-10.477 0-19-8.523-19-19Zm-2-14.5c0-3.033 2.468-5.5 5.5-5.5s5.5 2.467 5.5 5.5-2.468 5.5-5.5 5.5a5.506 5.506 0 0 1-5.5-5.5ZM46.5 13c1.93 0 3.5 1.57 3.5 3.5S48.43 20 46.5 20 43 18.43 43 16.5s1.57-3.5 3.5-3.5ZM54 32c0-4.201-1.237-8.213-3.56-11.671A5.482 5.482 0 0 0 52 16.5c0-3.033-2.468-5.5-5.5-5.5a5.492 5.492 0 0 0-4.327 2.116c-5.741-2.78-12.82-2.751-18.532.09A7.496 7.496 0 0 0 17.5 10c-4.136 0-7.5 3.364-7.5 7.5 0 2.716 1.456 5.092 3.623 6.408A20.868 20.868 0 0 0 12 32c0 11.58 9.421 21 21 21 3.956 0 7.77-1.107 11.099-3.187A5.463 5.463 0 0 0 47.5 51c3.032 0 5.5-2.467 5.5-5.5a5.473 5.473 0 0 0-1.437-3.694A21.032 21.032 0 0 0 54 32Z" fill="#FFF"/></g></svg>