<svg width="64" height="64" xmlns="http://www.w3.org/2000/svg"><defs><linearGradient x1="0%" y1="100%" x2="100%" y2="0%" id="a"><stop stop-color="#055F4E" offset="0%"/><stop stop-color="#56C0A7" offset="100%"/></linearGradient></defs><g fill="none" fill-rule="evenodd"><path d="M0 0h64v64H0z" fill="url(#a)"/><path d="M33.989 28.541c0 1.092-.892 1.98-1.989 1.98-1.153 0-1.989-.768-1.989-1.826 0-1.137.93-2.133 1.989-2.133 1.097 0 1.989.888 1.989 1.98Zm2.842 7.895h-9.66c.326-1.454 1.38-3.936 4.784-3.936 3.488 0 4.552 2.466 4.876 3.936Zm-8.809-7.741c0 .94.353 1.78.925 2.436-2.894 1.306-3.848 4.418-3.907 6.263a.989.989 0 0 0 .993 1.021h11.934a.989.989 0 0 0 .993-1.021c-.06-1.849-1.027-4.968-3.97-6.27a3.91 3.91 0 0 0 .988-2.583c0-2.183-1.784-3.959-3.978-3.959-2.156 0-3.978 1.884-3.978 4.113Zm22.806 4.468-.04-.024a.998.998 0 0 1-.808.418.993.993 0 0 1-.703-.29l-2.895-2.881 1.406-1.4.994.99c-.936-5.91-5.017-11.028-10.737-13.188l.705-1.852C45.103 17.336 49.64 23 50.722 29.55l.582-.946L53 29.639l-2.172 3.524ZM26.012 48.347l-.704 1.85c-6.336-2.393-10.864-8.039-11.96-14.569l-.652 1.06L11 35.652l2.172-3.524.024.014a.975.975 0 0 1 .506-.49.997.997 0 0 1 1.083.215l2.896 2.88-1.406 1.401-.994-.989c.936 5.908 5.013 11.026 10.731 13.187Zm21.875-9.792 1.86.703c-2.498 6.546-8.517 11.147-15.397 12.005l1.374 1.304L34.351 54l-3.006-2.853.007-.008a.983.983 0 0 1-.24-.33.986.986 0 0 1 .216-1.079l2.895-2.88 1.406 1.399-.994.989c5.937-.932 11.08-4.991 13.252-10.683ZM16.174 26.58l-1.858-.703c2.509-6.58 8.577-11.193 15.5-12.018l-1.504-1.427L29.685 11l3.006 2.853-.063.069a.974.974 0 0 1 .322.404.986.986 0 0 1-.216 1.08l-2.895 2.88-1.406-1.4.993-.988c-5.938.931-11.08 4.99-13.252 10.683ZM42.94 32.5c0 6.002-4.908 10.887-10.939 10.887S21.06 38.502 21.06 32.5c0-6.002 4.909-10.887 10.94-10.887S42.94 26.498 42.94 32.5Zm-23.867 0c0 7.094 5.8 12.866 12.928 12.866 7.128 0 12.928-5.772 12.928-12.866 0-7.094-5.8-12.866-12.928-12.866-7.128 0-12.928 5.772-12.928 12.866Z" fill="#FFF"/></g></svg>