<svg width="64" height="64" xmlns="http://www.w3.org/2000/svg"><defs><linearGradient x1="0%" y1="100%" x2="100%" y2="0%" id="a"><stop stop-color="#055F4E" offset="0%"/><stop stop-color="#56C0A7" offset="100%"/></linearGradient></defs><g fill="none" fill-rule="evenodd"><path d="M0 0h64v64H0z" fill="url(#a)"/><path d="M32.008 31.002h5.002v-2h-5.002v2Zm0 8.999h2v-4h-2v4Zm-9.003-13h3v-1.999h-3v2Zm-9.004 8h12.005v-2H14v2Zm0-4h16.006v-2H14.001v2Zm15.006 10h2v-7h-2v7Zm15.006 0h2v-6h-2v6Zm-3.001 2h2V33h-2v10Zm-3.002-1h2.001v-8h-2v8Zm-3-1h2v-7h-2v7Zm17.854 10.222-3.453-6.754a13.188 13.188 0 0 0 1.829-6.739c0-7.382-6.006-13.389-13.387-13.389-2.188 0-4.354.536-6.263 1.55l.94 1.766a11.386 11.386 0 0 1 5.323-1.316c6.278 0 11.386 5.11 11.386 11.39 0 2.206-.627 4.33-1.813 6.142a1.002 1.002 0 0 0-.054 1.003l2.632 5.148L44.76 47.4a1.003 1.003 0 0 0-.967.04 11.443 11.443 0 0 1-5.94 1.671c-5.668 0-10.522-4.223-11.287-9.825l-1.984.272c.903 6.586 6.608 11.553 13.271 11.553 2.267 0 4.501-.579 6.495-1.68l6.893 3.448a1.228 1.228 0 0 0 1.417-.256 1.21 1.21 0 0 0 .206-1.4ZM14.001 27.002h7.003v-2H14v2Zm11.004-8h5.372l-5.372-4.772v4.772Zm-12.004 12H11v-19a1 1 0 0 1 1-.999L24.005 11c.24 0 .478.09.664.256l9.004 8a.999.999 0 0 1 .336.746v3h-2v-2h-8.004a1 1 0 0 1-1-1V13L13 13.003v17.999ZM13 41h11.004v2H12a1 1 0 0 1-1-1v-7h2v6Z" fill="#FFF"/></g></svg>