<svg width="64" height="64" xmlns="http://www.w3.org/2000/svg"><defs><linearGradient x1="0%" y1="100%" x2="100%" y2="0%" id="a"><stop stop-color="#055F4E" offset="0%"/><stop stop-color="#56C0A7" offset="100%"/></linearGradient></defs><g fill="none" fill-rule="evenodd"><path d="M0 0h64v64H0z" fill="url(#a)"/><path d="m50.58 47.23-9.73-9.466a16.774 16.774 0 0 1-3.081 3.082l9.495 9.716c.807.805 2.032.318 2.827-.475.83-.832 1.266-2.08.488-2.856ZM27.652 42.28c8.067 0 14.629-6.563 14.629-14.628 0-8.066-6.562-14.628-14.63-14.628-8.066 0-14.63 6.562-14.63 14.628 0 8.065 6.564 14.628 14.63 14.628Zm23.868 9.237c-.982.982-2.148 1.484-3.252 1.484a3.403 3.403 0 0 1-2.443-1.016l-9.76-9.989a16.533 16.533 0 0 1-8.413 2.306C18.47 44.301 11 36.831 11 27.651S18.47 11 27.653 11c9.181 0 16.652 7.47 16.652 16.65 0 3.07-.85 5.939-2.304 8.41l9.998 9.73c1.501 1.5 1.291 3.958-.478 5.726ZM37.844 27.651c0-5.715-4.477-10.191-10.191-10.191-5.715 0-10.192 4.476-10.192 10.19 0 5.715 4.477 10.191 10.192 10.191 5.714 0 10.19-4.476 10.19-10.19Zm2.023 0c0 6.849-5.365 12.213-12.214 12.213-6.85 0-12.215-5.364-12.215-12.213 0-6.849 5.366-12.214 12.215-12.214 6.85 0 12.214 5.365 12.214 12.214Zm-15.614 2.508h-2.022v4.046h4.045v-2.023h-2.023v-2.023Zm-2.022-5.056h2.022v-2.022h2.023v-2.023h-4.045v4.045Zm7.08-2.022h2.022v2.022h2.023v-4.045h-4.045v2.023Zm2.022 7.078h2.023v4.046h-4.045v-2.023h2.022v-2.023Z" fill="#FFF"/></g></svg>