<svg width="64" height="64" xmlns="http://www.w3.org/2000/svg"><defs><linearGradient x1="0%" y1="100%" x2="100%" y2="0%" id="a"><stop stop-color="#055F4E" offset="0%"/><stop stop-color="#56C0A7" offset="100%"/></linearGradient></defs><g fill="none" fill-rule="evenodd"><path d="M0 0h64v64H0z" fill="url(#a)"/><path d="M43 39.585V26.95l-10 5.753V45.45l10-5.865Zm-22 0 10 5.865V32.703L21 26.95v12.635Zm.985-14.386L32 30.96l10.015-5.762L32 19.214l-10.015 5.985ZM44.504 41.03l-12 7.038a.992.992 0 0 1-1.008 0l-12-7.038a1.004 1.004 0 0 1-.496-.869V25.216c0-.355.186-.684.489-.865l12-7.171a.992.992 0 0 1 1.022 0l12 7.171c.303.181.489.51.489.865v14.946c0 .358-.188.69-.496.87Zm9.24-12.077-1.978.299c.151 1.01.234 2.17.234 3.27 0 9.301-6.266 17.33-15.236 19.523L37.236 54C47.106 51.588 54 42.754 54 32.522c0-1.196-.091-2.463-.256-3.568ZM12 32.522c0-1.106.089-2.2.263-3.254l-1.973-.33a22.046 22.046 0 0 0-.29 3.584C10 42.754 16.894 51.588 26.764 54l.472-1.954C18.266 49.853 12 41.824 12 32.522Zm4.764-12.825L15.236 18.4C19.72 13.062 25.83 10 32 10c6.292 0 12.405 3.066 16.772 8.41l-1.544 1.277C43.241 14.81 37.69 12.011 32 12.011c-5.579 0-11.133 2.802-15.236 7.686Z" fill="#FFF"/></g></svg>