<svg width="64" height="64" xmlns="http://www.w3.org/2000/svg"><defs><linearGradient x1="0%" y1="100%" x2="100%" y2="0%" id="a"><stop stop-color="#055F4E" offset="0%"/><stop stop-color="#56C0A7" offset="100%"/></linearGradient></defs><g fill="none" fill-rule="evenodd"><path d="M0 0h64v64H0z" fill="url(#a)"/><path d="M36.954 17.237a1.59 1.59 0 0 0 1.588 1.588 1.59 1.59 0 0 0 1.588-1.588 1.59 1.59 0 0 0-1.588-1.588 1.59 1.59 0 0 0-1.588 1.588m-2 0a3.591 3.591 0 0 1 3.588-3.588 3.592 3.592 0 0 1 3.588 3.588 3.592 3.592 0 0 1-3.588 3.588 3.591 3.591 0 0 1-3.588-3.588m15.118 17.715c0 10.221-8.315 18.536-18.536 18.536C21.315 53.488 13 45.173 13 34.952c0-5.075 2.011-9.812 5.663-13.337L30.8 10l1.383 1.445-12.134 11.612A16.397 16.397 0 0 0 15 34.952c0 9.118 7.418 16.536 16.536 16.536 9.118 0 16.536-7.418 16.536-16.536 0-4.574-1.825-8.83-5.14-11.983l1.378-1.449c3.716 3.534 5.762 8.304 5.762 13.432" fill="#FFF"/></g></svg>