<svg width="64" height="64" xmlns="http://www.w3.org/2000/svg"><defs><linearGradient x1="0%" y1="100%" x2="100%" y2="0%" id="a"><stop stop-color="#055F4E" offset="0%"/><stop stop-color="#56C0A7" offset="100%"/></linearGradient></defs><g fill="none" fill-rule="evenodd"><path d="M0 0h64v64H0z" fill="url(#a)"/><path d="M38 12h-4v-2h4c2.99 0 5 2.009 5 5v4.149l2.219-2.774 1.562 1.25-4 5a1 1 0 0 1-1.562 0l-4-5 1.562-1.25L41 19.149V15c0-1.878-1.121-3-3-3ZM26 52h3v2h-3c-2.99 0-5-2.009-5-5v-4.149l-2.219 2.774-1.562-1.25 4-5c.381-.474 1.181-.474 1.562 0l4 5-1.562 1.25L23 44.851V49c0 1.878 1.121 3 3 3Zm17.232-12.999c-.556 1.442-1.289 2.645-2.227 3.658-.969-1.023-1.744-2.25-2.312-3.658h4.539Zm-1.443-2.831a.543.543 0 0 0 .24-.382.384.384 0 0 0-.359-.442l-1.09-.074a.412.412 0 0 0-.291.104.393.393 0 0 0-.123.284v1.755h-4.743a.388.388 0 0 0-.389.389v.808c0 .215.174.389.389.389h1.531c.692 1.876 1.634 3.479 2.808 4.774-1.22.929-2.715 1.639-4.556 2.167a.387.387 0 0 0-.195.619c.146.181.355.492.419.649a.389.389 0 0 0 .474.225c2.043-.625 3.7-1.453 5.049-2.523 1.433 1.19 3.113 2.022 5.126 2.54a.39.39 0 0 0 .442-.196c.124-.237.362-.57.518-.727a.387.387 0 0 0-.188-.654c-1.774-.403-3.333-1.116-4.643-2.12 1.134-1.222 2.013-2.699 2.675-4.497a.57.57 0 0 0 .345-.257h1.389a.389.389 0 0 0 .389-.389v-.808a.388.388 0 0 0-.389-.389h-4.828V36.17Zm-21.352-7.734 2.028-5.947 2.047 5.947h-4.075Zm1.102-7.556L17.061 33h1.836l1.085-3.218h4.985L26.085 33h1.854l-4.476-12.12h-1.924ZM14 38h15v2H13a1 1 0 0 1-1-1v-6h2v5Zm36 14H33V26h10v6a1 1 0 0 0 1 1h6v19Zm-5-24.592L48.588 31H45v-3.592Zm6.708 3.885-7-7.008a.988.988 0 0 0-.708-.284V24H32a1 1 0 0 0-1 1v28a1 1 0 0 0 1 1h19a1 1 0 0 0 1-1V32c0-.26-.102-.516-.292-.707ZM27 13.703 29.826 17H27v-3.297Zm-13-1.7L25 12v6a1 1 0 0 0 1 1h5v3h2v-4.004a1.004 1.004 0 0 0-.241-.647l-6-7A1.001 1.001 0 0 0 26 10l-13 .003a1 1 0 0 0-1 1V30h2V12.003Z" fill="#FFF"/></g></svg>