<svg width="64" height="64" xmlns="http://www.w3.org/2000/svg"><defs><linearGradient x1="0%" y1="100%" x2="100%" y2="0%" id="a"><stop stop-color="#B0084D" offset="0%"/><stop stop-color="#FF4F8B" offset="100%"/></linearGradient></defs><g fill="none" fill-rule="evenodd"><path d="M0 0h64v64H0z" fill="url(#a)"/><path d="M40.73 30.5c0 3.584-2.916 6.5-6.5 6.5a6.508 6.508 0 0 1-6.5-6.5c0-3.584 2.916-6.5 6.5-6.5s6.5 2.916 6.5 6.5Zm2 0c0-4.687-3.813-8.5-8.5-8.5-4.687 0-8.5 3.813-8.5 8.5 0 4.687 3.813 8.5 8.5 8.5 4.687 0 8.5-3.813 8.5-8.5Zm-4.12 19.186a.998.998 0 0 0 .271-.744l-.127-2.235a16.762 16.762 0 0 0 3.697-1.532l1.492 1.672a1 1 0 0 0 .718.334.959.959 0 0 0 .735-.293l5.199-5.2a.996.996 0 0 0-.041-1.453l-1.678-1.497a16.698 16.698 0 0 0 1.529-3.691l2.245.128a1.001 1.001 0 0 0 1.057-.998v-7.353a1.001 1.001 0 0 0-1.057-.999l-2.248.128a16.663 16.663 0 0 0-1.529-3.689l1.681-1.5a1.002 1.002 0 0 0 .041-1.453l-5.199-5.199a.96.96 0 0 0-.735-.293 1.002 1.002 0 0 0-.718.334l-1.506 1.687a16.599 16.599 0 0 0-3.684-1.527l.128-2.256A.998.998 0 0 0 37.883 11H30.53a.998.998 0 0 0-.998 1.057l.128 2.254a16.695 16.695 0 0 0-3.686 1.525l-1.503-1.683a1 1 0 0 0-.718-.334.966.966 0 0 0-.735.293l-5.199 5.199a1 1 0 0 0 .041 1.453l1.684 1.504a16.746 16.746 0 0 0-1.531 3.685l-2.25-.128a1.001 1.001 0 0 0-1.056.999v7.353a1 1 0 0 0 1.058.998l3-.175-.117-1.997-1.941.114v-5.235l2.016.115c.486.023.923-.301 1.032-.778a14.717 14.717 0 0 1 1.916-4.614 1 1 0 0 0-.179-1.28l-1.511-1.348 3.703-3.703 1.347 1.51a1 1 0 0 0 1.279.179 14.705 14.705 0 0 1 4.615-1.909 1 1 0 0 0 .779-1.033L31.588 13h5.237l-.115 2.023a1 1 0 0 0 .778 1.032 14.69 14.69 0 0 1 4.611 1.912c.411.259.952.185 1.28-.18l1.351-1.513 3.702 3.703-1.507 1.344a1 1 0 0 0-.179 1.28 14.713 14.713 0 0 1 1.914 4.618c.108.477.545.801 1.032.778l2.015-.115v5.236l-2.013-.115a1.015 1.015 0 0 0-1.032.778 14.719 14.719 0 0 1-1.913 4.621 1 1 0 0 0 .179 1.28l1.504 1.341-3.702 3.703-1.337-1.499a.997.997 0 0 0-1.28-.179 14.735 14.735 0 0 1-4.625 1.916 1 1 0 0 0-.778 1.033L36.825 48h-5.203l.081-.913-1.993-.175-.176 2A1 1 0 0 0 30.53 50h7.353a1 1 0 0 0 .727-.314Zm-8.216-5.96-1.375-1.453-9.5 9 1.375 1.453 9.5-9Zm-9.002-5.998-1.371-1.457-8.5 8 1.371 1.457 8.5-8Zm-8.978 15.979L11 52.292l15-15 1.414 1.415-15 15Z" fill="#FFF"/></g></svg>