<svg width="64" height="64" xmlns="http://www.w3.org/2000/svg"><defs><linearGradient x1="0%" y1="100%" x2="100%" y2="0%" id="a"><stop stop-color="#B0084D" offset="0%"/><stop stop-color="#FF4F8B" offset="100%"/></linearGradient></defs><g fill="none" fill-rule="evenodd"><path d="M0 0h64v64H0z" fill="url(#a)"/><path d="m53.975 32.963-7.572-.003 3.281 3.298-1.418 1.41-4.975-5a1.001 1.001 0 0 1 0-1.41l4.975-5 1.418 1.41-3.275 3.307h7.566v1.988Zm-33.291-1.706a1 1 0 0 1 0 1.411l-4.975 5-1.418-1.41 3.275-3.292L10 32.963v-1.988h7.574l-3.283-3.306 1.418-1.412 4.975 5Zm15.599 16.009 1.41 1.418-5 4.976a.997.997 0 0 1-1.41 0l-5-4.976 1.41-1.418 3.295 3.276v-7.567l2 .001-.003 7.572 3.298-3.282Zm-8.59-30.582-1.41-1.418 5-4.975a1 1 0 0 1 1.41 0l5 4.975-1.41 1.418-3.298-3.282.003 7.573h-2v-7.566l-3.295 3.275Zm9.295 10.46a3.434 3.434 0 0 0-2.106.282 2.945 2.945 0 0 0-1.406 1.404c-.51 1.085-.451 2.26.16 3.224a3.284 3.284 0 0 0 3.352 1.446v1.475h-3.299c-.409 0-.776.249-.929.628-.151.38-.057.813.238 1.095.292.279.523.812.211 1.398-.125.234-.29.409-.466.492-.621.291-1.081.101-1.301-.04a1.228 1.228 0 0 1-.576-1.045c0-.525.112-.675.248-.804a1 1 0 0 0-.691-1.724h-3.435v-10h10v2.169Zm1-4.169h-11c-.455 0-1.942.14-1.942 1.941v11.059a1 1 0 0 0 1 1h2.848c-.023.19-.028.368-.028.528 0 1.114.562 2.136 1.504 2.734a3.204 3.204 0 0 0 1.728.505c.498 0 1.007-.114 1.496-.344.573-.27 1.051-.742 1.381-1.363.35-.656.456-1.379.335-2.06h2.678a1 1 0 0 0 1-1v-4.113a1 1 0 0 0-1.724-.69c-.539.564-1.528.457-1.938-.189-.141-.221-.331-.682-.04-1.301a.942.942 0 0 1 .448-.446c.565-.265 1.137-.178 1.53.234a1.002 1.002 0 0 0 1.724-.691v-4.804a1 1 0 0 0-1-1Z" fill="#FFF"/></g></svg>