<svg width="64" height="64" xmlns="http://www.w3.org/2000/svg"><defs><linearGradient x1="0%" y1="100%" x2="100%" y2="0%" id="a"><stop stop-color="#B0084D" offset="0%"/><stop stop-color="#FF4F8B" offset="100%"/></linearGradient></defs><g fill="none" fill-rule="evenodd"><path d="M0 0h64v64H0z" fill="url(#a)"/><path d="M38 35.412v-5.699l-5 2.86v5.698l5-2.859Zm-12-.935 5 3.573v-5.479l-5-2.858v4.764Zm1.016-6.488 4.985 2.85 4.983-2.85L32 25.14l-4.984 2.85Zm12.984 0v8.004c0 .359-.192.69-.504.868l-7 4.002a.996.996 0 0 1-1.077-.054l-7-5.002a1.001 1.001 0 0 1-.419-.815V27.99a1 1 0 0 1 .504-.868l7-4.002a.998.998 0 0 1 .992 0l7 4.002a1 1 0 0 1 .504.868Zm14 3.002h-7.586l3.293-3.295-1.414-1.414-5 5.002a1 1 0 0 0 0 1.414l5 5.002 1.414-1.414-3.293-3.295H54v-2Zm-38.231-5.643-1.538 1.28 3.634 4.363H10v2h7.586l-3.293 3.295 1.414 1.414 5-5.002a1 1 0 0 0 .062-1.347l-5-6.003ZM33 50.235l.001-7.24h-2L31 50.237l-3.231-3.88-1.538 1.28 4.999 6.003a1.003 1.003 0 0 0 1.538 0l5.001-6.003-1.538-1.28L33 50.235Zm-5.231-32.61-1.538-1.28 4.999-6.003c.381-.456 1.157-.456 1.538 0l5.001 6.003-1.538 1.28L33 13.747l.001 7.24h-2L31 13.744l-3.231 3.88Z" fill="#FFF"/></g></svg>