<svg width="64" height="64" xmlns="http://www.w3.org/2000/svg"><defs><linearGradient x1="0%" y1="100%" x2="100%" y2="0%" id="a"><stop stop-color="#B0084D" offset="0%"/><stop stop-color="#FF4F8B" offset="100%"/></linearGradient></defs><g fill="none" fill-rule="evenodd"><path d="M0 0h64v64H0z" fill="url(#a)"/><path d="M30.027 19h2.997v-2h-2.997v2Zm-4.994 0h2.997v-2h-2.997v2Zm-4.994 0h2.997v-2h-2.997v2Zm29.965 21.722v-3.444c.594.347.998.985.998 1.722s-.404 1.375-.998 1.722Zm-35.958.027A1.995 1.995 0 0 1 12.998 39c0-.757.427-1.409 1.048-1.749v3.498Zm35.958-5.607V34c0-2.757-2.142-5-4.773-5H32.025v2h13.206c1.53 0 2.775 1.346 2.775 3v10c0 1.654-1.245 3-2.775 3H18.818c-1.53 0-2.774-1.346-2.774-3V34c0-1.654 1.245-3 2.774-3h3.773v-2h-3.773c-2.631 0-4.772 2.243-4.772 5v1.126C12.302 35.556 11 37.124 11 39c0 1.876 1.302 3.444 3.046 3.874V44c0 2.757 2.14 5 4.772 5h9.212v5h1.997v-5h3.996v5h1.997v-5h9.211c2.631 0 4.773-2.243 4.773-5v-1.142C51.723 42.411 53 40.858 53 39s-1.277-3.411-2.996-3.858ZM25.034 39c0 1.103-.898 2-1.998 2a2 2 0 0 1 0-4c1.1 0 1.997.897 1.997 2Zm-5.994 0c0 2.206 1.792 4 3.996 4a4.002 4.002 0 0 0 3.995-4c0-2.206-1.792-4-3.995-4a4.002 4.002 0 0 0-3.996 4Zm19.977 0a2 2 0 0 1 1.997-2c1.101 0 1.998.897 1.998 2s-.897 2-1.998 2a2 2 0 0 1-1.997-2Zm5.993 0c0-2.206-1.792-4-3.996-4a4.002 4.002 0 0 0-3.995 4c0 2.206 1.792 4 3.995 4a4.002 4.002 0 0 0 3.996-4ZM17.043 12.389c0-.215.175-.389.387-.389h18.59v11.588a.418.418 0 0 1-.411.412h-7.58a1 1 0 0 0-.998 1v3.084l-2.868-3.697a1.001 1.001 0 0 0-.789-.387H17.43a.389.389 0 0 1-.387-.389V12.389ZM17.43 26h5.455l4.356 5.616a.998.998 0 0 0 1.788-.613V26h6.58a2.413 2.413 0 0 0 2.409-2.412V11.394c0-.769-.624-1.394-1.393-1.394H17.43a2.39 2.39 0 0 0-2.385 2.389v11.222A2.39 2.39 0 0 0 17.43 26Z" fill="#FFF"/></g></svg>