<svg width="64" height="64" xmlns="http://www.w3.org/2000/svg"><defs><linearGradient x1="0%" y1="100%" x2="100%" y2="0%" id="a"><stop stop-color="#B0084D" offset="0%"/><stop stop-color="#FF4F8B" offset="100%"/></linearGradient></defs><g fill="none" fill-rule="evenodd"><path d="M0 0h64v64H0z" fill="url(#a)"/><path d="m46.047 38.018 1.89.595-.914 3.04a.992.992 0 0 1-1.173.688l-2.948-.717.458-1.968.958.233c-.66-.801-1.628-1.302-2.683-1.302-1.73 0-3.29 1.278-3.63 2.973l-1.936-.406c.523-2.617 2.916-4.59 5.566-4.59 1.671 0 3.2.801 4.227 2.072l.185-.618Zm-1.007 5.159 1.936.405c-.522 2.616-2.669 4.375-5.34 4.375a5.842 5.842 0 0 1-4.2-1.76l-.069.335-1.934-.418.606-2.943a.988.988 0 0 1 1.161-.783l2.785.57-.387 1.983-.761-.156c.685.708 1.691 1.15 2.798 1.15 1.734 0 3.07-1.083 3.405-2.758Zm5.984.193-.685-.04a.987.987 0 0 0-1.02.788 8.157 8.157 0 0 1-1.023 2.527 1.03 1.03 0 0 0 .178 1.295l.512.467-1.45 1.483-.454-.52a.97.97 0 0 0-1.264-.182 7.765 7.765 0 0 1-2.474 1.05c-.471.108-.797.55-.769 1.044l.039.695h-2.05l.039-.696a1.008 1.008 0 0 0-.768-1.045 7.78 7.78 0 0 1-2.473-1.049.968.968 0 0 0-1.264.182l-.454.521-1.45-1.483.509-.465c.36-.33.436-.877.178-1.295a8.154 8.154 0 0 1-1.023-2.53 1.012 1.012 0 0 0-1.02-.787l-.684.04v-2.099l.688.04c.454.024.912-.304 1.02-.785A8.142 8.142 0 0 1 34.886 38a1.028 1.028 0 0 0-.178-1.295l-.515-.47 1.45-1.485.46.527a.976.976 0 0 0 1.264.182 7.729 7.729 0 0 1 2.467-1.045c.471-.109.797-.55.769-1.044l-.039-.705h2.05l-.039.706c-.028.493.298.934.769 1.043a7.794 7.794 0 0 1 2.467 1.047.972.972 0 0 0 1.264-.182l.46-.529 1.45 1.484-.514.47a1.03 1.03 0 0 0-.177 1.295c.48.777.824 1.627 1.024 2.526.106.482.554.81 1.02.787l.686-.04v2.098Zm1.667-3.905a.97.97 0 0 0-.736-.274l-.93.054a10.284 10.284 0 0 0-.64-1.578l.697-.636a1.024 1.024 0 0 0 .04-1.47l-2.929-2.999a.931.931 0 0 0-.726-.295.974.974 0 0 0-.71.338l-.624.716a9.71 9.71 0 0 0-1.54-.653l.053-.958a1.023 1.023 0 0 0-.267-.752.978.978 0 0 0-.719-.316h-4.142a.974.974 0 0 0-.718.316 1.023 1.023 0 0 0-.268.752l.053.957c-.531.172-1.046.39-1.54.652l-.624-.715a.984.984 0 0 0-.71-.337.938.938 0 0 0-.726.295l-2.929 3a1.024 1.024 0 0 0 .04 1.47l.699.636c-.257.507-.47 1.033-.64 1.577l-.933-.054a.975.975 0 0 0-.734.274c-.198.191-.31.457-.31.735v4.241a.997.997 0 0 0 1.045 1.01l.927-.055c.17.545.383 1.073.64 1.581l-.693.633a1.021 1.021 0 0 0-.33.726c-.008.279.097.548.29.744l2.928 2.998a.942.942 0 0 0 .727.297.981.981 0 0 0 .71-.338l.618-.71a9.745 9.745 0 0 0 1.544.656l-.052.948c-.016.278.081.55.268.752a.974.974 0 0 0 .718.317h4.142a.978.978 0 0 0 .719-.317c.186-.202.283-.474.267-.752l-.052-.946a9.797 9.797 0 0 0 1.547-.656l.616.708c.18.207.437.33.71.338a.98.98 0 0 0 .726-.297l2.93-2.998a1.024 1.024 0 0 0-.041-1.47l-.695-.635c.256-.507.47-1.035.639-1.579l.93.055a.991.991 0 0 0 .735-.274c.197-.191.309-.457.309-.736v-4.24c0-.279-.112-.545-.31-.736ZM12.976 44.39H27.8v2.023H11.988A1 1 0 0 1 11 45.402v-34.39A1 1 0 0 1 11.988 10h35.577a1 1 0 0 1 .988 1.011v18.207h-1.977V12.023h-33.6v32.368Zm24.706-22.253h3.953v-2.023h-3.953v2.023Zm.989-4.046h1.976v-2.023h-1.976v2.023Zm3.953 11.126v-5.057a1 1 0 0 0 .988-1.012v-4.046a1 1 0 0 0-.988-1.011v-3.035a1 1 0 0 0-.989-1.011h-3.953a1 1 0 0 0-.988 1.011v3.035a1 1 0 0 0-.988 1.011v4.046a1 1 0 0 0 .988 1.012v5.057h1.977v-5.057h1.976v5.057h1.977ZM26.812 30.23h3.953v-2.023h-3.953v2.023Zm.988-4.046h1.976V16.069H27.8v10.115Zm3.953 8.092v-2.023a1 1 0 0 0 .988-1.012v-4.046a1 1 0 0 0-.988-1.011V15.057a1 1 0 0 0-.988-1.011h-3.953a1 1 0 0 0-.988 1.011v11.127a1 1 0 0 0-.989 1.011v4.046a1 1 0 0 0 .989 1.012v8.092H27.8v-8.092h1.976v2.023h1.977Zm-14.824 4.046h1.977V28.207h-1.977v10.115Zm0-16.184h1.977v-6.069h-1.977v6.069Zm-.988 4.046h3.953V24.16h-3.953v2.023Zm0 14.16h3.953a1 1 0 0 0 .988-1.01V28.206a1 1 0 0 0 .989-1.012V23.15a1 1 0 0 0-.989-1.011v-7.08a1 1 0 0 0-.988-1.012h-3.953a1 1 0 0 0-.988 1.011v7.08a1 1 0 0 0-.988 1.012v4.046a1 1 0 0 0 .988 1.012v11.126a1 1 0 0 0 .988 1.012Z" fill="#FFF"/></g></svg>