<svg width="64" height="64" xmlns="http://www.w3.org/2000/svg"><defs><linearGradient x1="0%" y1="100%" x2="100%" y2="0%" id="a"><stop stop-color="#B0084D" offset="0%"/><stop stop-color="#FF4F8B" offset="100%"/></linearGradient></defs><g fill="none" fill-rule="evenodd"><path d="M0 0h64v64H0z" fill="url(#a)"/><path d="M45.703 18h6v-6h-6v6Zm-2 2h10V10h-10v10Zm-3 16h-2v2h-2v2h2v2h2v-2h2v-2h-2v-2Zm5-5h6v-6h-6v6Zm-2 2h10V23h-10v10Zm-6.957-3.998 2.532-2.531-1.376-1.377-2.532 2.532 1.376 1.376Zm-1.414 1.415-1.376-1.376-21.128 21.127 1.376 1.377 21.128-21.128Zm6.774-3.946L14.204 54.373 10 50.168l27.902-27.902 4.204 4.205ZM49.703 46h-2v3h-3v2h3v3h2v-3h3v-2h-3v-3Zm-17 5h8v-2h-8v2Zm0-33h6v-6h-6v6Zm-2 2h10V10h-10v10Zm-12-4h5v-2h-5v2Zm2 14h2v-2h2v-2h-2v-2h-2v2h-2v2h2v2Zm-10-14h6v-2h-6v2Z" fill="#FFF"/></g></svg>