<svg width="64" height="64" xmlns="http://www.w3.org/2000/svg"><defs><linearGradient x1="0%" y1="100%" x2="100%" y2="0%" id="a"><stop stop-color="#B0084D" offset="0%"/><stop stop-color="#FF4F8B" offset="100%"/></linearGradient></defs><g fill="none" fill-rule="evenodd"><path d="M0 0h64v64H0z" fill="url(#a)"/><path d="M31.981 32.528a3.424 3.424 0 0 1 3.421 3.42 3.424 3.424 0 0 1-3.421 3.421 3.424 3.424 0 0 1-3.421-3.421 3.424 3.424 0 0 1 3.421-3.42Zm0 8.841a5.427 5.427 0 0 0 5.421-5.421 5.427 5.427 0 0 0-5.421-5.42 5.427 5.427 0 0 0-5.421 5.42 5.427 5.427 0 0 0 5.421 5.421ZM30.735 38l-1.548-1.206 1.229-1.578.851.664 1.901-1.901 1.415 1.414-2.527 2.526a.998.998 0 0 1-1.321.081Zm-9.624-13h21.777v-2H21.111v2Zm0-4h21.777v-2H21.111v2ZM21 16h9v-2h-9v2Zm3.404 19.967c0-.466.332-.872.79-.963a1 1 0 0 0 .767-.715 6.16 6.16 0 0 1 .591-1.423c.182-.318.175-.71-.016-1.022a.945.945 0 0 1-.149-.505c0-.72.84-1.238 1.491-.835.313.19.703.196 1.021.016a6.16 6.16 0 0 1 1.422-.591 1 1 0 0 0 .715-.768.985.985 0 0 1 .964-.789c.466 0 .872.332.963.789a1 1 0 0 0 .715.768c.501.139.98.337 1.422.591.318.18.707.174 1.021-.016.649-.405 1.491.115 1.491.835 0 .176-.05.346-.149.505a1.003 1.003 0 0 0-.016 1.022c.254.444.453.922.591 1.423a1 1 0 0 0 .767.715c.458.091.79.497.79.963a.985.985 0 0 1-.79.964 1 1 0 0 0-.767.715 6.16 6.16 0 0 1-.591 1.423c-.182.318-.175.71.016 1.021a.95.95 0 0 1 .149.506c0 .719-.84 1.239-1.491.835a1.002 1.002 0 0 0-1.021-.016 6.174 6.174 0 0 1-1.423.591 1.002 1.002 0 0 0-.714.768.985.985 0 0 1-.963.789.985.985 0 0 1-.964-.789 1.002 1.002 0 0 0-.714-.768 6.174 6.174 0 0 1-1.423-.591 1.002 1.002 0 0 0-1.021.016c-.652.403-1.492-.116-1.491-.835a.95.95 0 0 1 .149-.506c.191-.311.198-.703.016-1.021a6.16 6.16 0 0 1-.591-1.423 1 1 0 0 0-.767-.715.985.985 0 0 1-.79-.964Zm2.967 7.613c.342 0 .682-.061 1.006-.179.287.139.583.263.887.369A2.993 2.993 0 0 0 32 45.563a2.992 2.992 0 0 0 2.735-1.793c.304-.106.6-.23.887-.369.324.118.664.179 1.006.179a2.987 2.987 0 0 0 2.984-2.984c0-.343-.062-.683-.179-1.006a8.08 8.08 0 0 0 .368-.887 2.992 2.992 0 0 0 1.794-2.736 2.992 2.992 0 0 0-1.794-2.735 8 8 0 0 0-.368-.887c.117-.323.179-.663.179-1.006a2.987 2.987 0 0 0-2.984-2.984c-.342 0-.682.061-1.006.179a8.12 8.12 0 0 0-.887-.369A2.992 2.992 0 0 0 32 26.372c-1.203 0-2.27.725-2.736 1.793a8.203 8.203 0 0 0-.887.369 2.939 2.939 0 0 0-1.006-.179 2.987 2.987 0 0 0-2.984 2.984c0 .343.062.683.179 1.006a8 8 0 0 0-.368.887 2.992 2.992 0 0 0-1.794 2.735c0 1.203.725 2.27 1.794 2.736.105.303.228.599.368.887a2.954 2.954 0 0 0-.179 1.006 2.987 2.987 0 0 0 2.984 2.984ZM35 45h2v8a1.001 1.001 0 0 1-1.707.707L32 50.414l-3.293 3.293A1 1 0 0 1 27 53v-8h2v5.586l2.293-2.293a1 1 0 0 1 1.414 0L35 50.586V45Zm6-31.586L43.585 16H41v-2.586Zm5.707 2.879-6-6A1.003 1.003 0 0 0 40 10H18a1 1 0 0 0-1 1v38a1 1 0 0 0 1 1h8v-2h-7V12h20v5a1 1 0 0 0 1 1h5v30h-7v2h8a1 1 0 0 0 1-1V17c0-.265-.106-.519-.293-.707Z" fill="#FFF"/></g></svg>