<svg width="64" height="64" xmlns="http://www.w3.org/2000/svg"><defs><linearGradient x1="0%" y1="100%" x2="100%" y2="0%" id="a"><stop stop-color="#B0084D" offset="0%"/><stop stop-color="#FF4F8B" offset="100%"/></linearGradient></defs><g fill="none" fill-rule="evenodd"><path d="M0 0h64v64H0z" fill="url(#a)"/><path d="M22 16h3v-2h-3v2Zm-4 0h3v-2h-3v2Zm-4 0h3v-2h-3v2Zm-2 2h40v-6H12v6Zm41-8H11a1 1 0 0 0-1 1v42a1 1 0 0 0 1 1h26v-2H12V20h40v32h-5v2h6a1 1 0 0 0 1-1V11a1 1 0 0 0-1-1ZM32 39.817a3.966 3.966 0 0 1-3.962-3.962A3.965 3.965 0 0 1 32 31.894a3.965 3.965 0 0 1 3.962 3.961A3.966 3.966 0 0 1 32 39.817Zm0-9.923a5.968 5.968 0 0 0-5.962 5.961A5.969 5.969 0 0 0 32 41.817a5.969 5.969 0 0 0 5.962-5.962A5.968 5.968 0 0 0 32 29.894Zm11.403 7.368-1.001-.057c-.455-.033-.924.3-1.032.778a9.543 9.543 0 0 1-1.24 2.995 1 1 0 0 0 .18 1.28l.748.666-1.989 1.989-.664-.744a1 1 0 0 0-1.28-.18 9.511 9.511 0 0 1-2.998 1.242.999.999 0 0 0-.777 1.033l.056.995h-2.812l.056-.996a.998.998 0 0 0-.777-1.033 9.528 9.528 0 0 1-2.996-1.243.998.998 0 0 0-1.28.18l-.666.747-1.989-1.99.746-.664a1 1 0 0 0 .18-1.281 9.49 9.49 0 0 1-1.24-2.996 1.014 1.014 0 0 0-1.032-.778l-.999.057v-2.813l1.003.057c.48.019.922-.301 1.032-.777a9.513 9.513 0 0 1 1.242-2.991 1 1 0 0 0-.18-1.28l-.752-.672 1.989-1.989.671.751a1 1 0 0 0 1.279.181 9.508 9.508 0 0 1 2.991-1.238.999.999 0 0 0 .778-1.033l-.056-1.006h2.812l-.056 1.007c-.029.488.3.925.777 1.032a9.538 9.538 0 0 1 2.99 1.239c.41.26.953.186 1.279-.18l.672-.753 1.99 1.989-.75.67a1 1 0 0 0-.18 1.28 9.52 9.52 0 0 1 1.241 2.992c.108.477.578.797 1.032.778l1.002-.057v2.813Zm.944-4.87-1.245.07a11.546 11.546 0 0 0-.854-2.057l.932-.831a1.002 1.002 0 0 0 .041-1.453l-3.487-3.487a.947.947 0 0 0-.735-.292.998.998 0 0 0-.718.334l-.835.935a11.47 11.47 0 0 0-2.053-.852l.07-1.251a.994.994 0 0 0-.272-.743.996.996 0 0 0-.726-.313h-4.93a.996.996 0 0 0-.726.313.994.994 0 0 0-.272.743l.07 1.25c-.711.217-1.399.501-2.055.851l-.833-.933a.998.998 0 0 0-.718-.334.967.967 0 0 0-.735.292l-3.487 3.487a1.002 1.002 0 0 0 .041 1.453l.934.833a11.433 11.433 0 0 0-.854 2.056l-1.247-.071a1 1 0 0 0-1.056.998v4.93a1 1 0 0 0 1.056.999l1.242-.071c.216.714.502 1.403.853 2.062l-.927.826a1 1 0 0 0-.042 1.454l3.487 3.486a1.002 1.002 0 0 0 1.453-.041l.827-.928c.659.352 1.349.638 2.061.855l-.07 1.24a.992.992 0 0 0 .272.743.993.993 0 0 0 .726.314h4.93a.993.993 0 0 0 .726-.314.992.992 0 0 0 .272-.743l-.07-1.238a11.461 11.461 0 0 0 2.063-.855l.825.926a1.002 1.002 0 0 0 1.453.041l3.487-3.486a1.002 1.002 0 0 0-.041-1.454l-.93-.828c.351-.659.636-1.348.853-2.06l1.244.071a1 1 0 0 0 1.056-.999v-4.93a1 1 0 0 0-1.056-.998Z" fill="#FFF"/></g></svg>