<svg width="64" height="64" xmlns="http://www.w3.org/2000/svg"><defs><linearGradient x1="0%" y1="100%" x2="100%" y2="0%" id="a"><stop stop-color="#B0084D" offset="0%"/><stop stop-color="#FF4F8B" offset="100%"/></linearGradient></defs><g fill="none" fill-rule="evenodd"><path d="M0 0h64v64H0z" fill="url(#a)"/><path d="M32 18.839a2.897 2.897 0 0 1 2.893 2.893A2.897 2.897 0 0 1 32 24.625a2.897 2.897 0 0 1-2.893-2.893A2.897 2.897 0 0 1 32 18.839Zm0 7.786a4.899 4.899 0 0 0 4.893-4.893A4.899 4.899 0 0 0 32 16.839a4.899 4.899 0 0 0-4.893 4.893A4.899 4.899 0 0 0 32 26.625Zm-8.732-5.768.559.031c.477.023.923-.3 1.032-.777a7.26 7.26 0 0 1 .947-2.279 1.001 1.001 0 0 0-.18-1.281l-.42-.375 1.238-1.238.375.42c.325.365.868.439 1.28.18a7.244 7.244 0 0 1 2.279-.944.999.999 0 0 0 .778-1.032L31.124 13h1.752l-.032.563a1 1 0 0 0 .777 1.032 7.287 7.287 0 0 1 2.279.944c.412.259.954.186 1.28-.18l.376-.421 1.238 1.238-.419.373c-.364.326-.44.868-.18 1.281.445.703.763 1.47.947 2.281.108.477.534.8 1.032.777l.558-.031v1.751l-.557-.032a.986.986 0 0 0-1.032.778 7.285 7.285 0 0 1-.946 2.283c-.26.413-.184.954.181 1.28l.416.371-1.238 1.238-.369-.414a.999.999 0 0 0-1.281-.179 7.238 7.238 0 0 1-2.285.946 1 1 0 0 0-.777 1.033l.031.552h-1.75l.031-.553a1 1 0 0 0-.777-1.033 7.244 7.244 0 0 1-2.283-.947 1 1 0 0 0-1.281.18l-.371.415-1.238-1.238.415-.37a1 1 0 0 0 .18-1.28 7.254 7.254 0 0 1-.945-2.283c-.108-.478-.577-.812-1.032-.779l-.556.032v-1.751Zm-.944 3.808.807-.046c.15.461.336.91.556 1.344l-.603.537a1.002 1.002 0 0 0-.041 1.453l2.736 2.736c.195.194.474.303.736.292a.994.994 0 0 0 .717-.334l.539-.602c.432.221.88.407 1.342.557l-.046.805a.998.998 0 0 0 .998 1.057h3.87a1 1 0 0 0 .998-1.057l-.046-.803c.462-.15.912-.337 1.344-.557l.537.6a.994.994 0 0 0 .717.334c.241.014.541-.098.736-.292l2.736-2.736a1 1 0 0 0-.042-1.453l-.604-.539c.22-.433.407-.881.556-1.342l.809.046a1 1 0 0 0 1.056-.999v-3.868a1 1 0 0 0-1.056-.999l-.81.047a9.239 9.239 0 0 0-.556-1.341l.606-.541a1 1 0 0 0 .041-1.453l-2.736-2.735a1.034 1.034 0 0 0-.736-.293.994.994 0 0 0-.717.334l-.543.608a9.45 9.45 0 0 0-1.338-.554l.046-.814A1 1 0 0 0 33.935 11h-3.87a1 1 0 0 0-.998 1.057l.046.813c-.46.149-.907.334-1.339.554l-.542-.607a.994.994 0 0 0-.717-.334 1.013 1.013 0 0 0-.736.293l-2.736 2.735a1 1 0 0 0 .042 1.453l.607.542c-.22.432-.406.879-.556 1.34l-.812-.047a1 1 0 0 0-1.056.999v3.868a1 1 0 0 0 1.056.999ZM45 51.464h4v-7h-4v7Zm-15 0h4v-7h-4v7Zm-15 0h4v-7h-4v7Zm35-9h-2v-4a1 1 0 0 0-1-1H33v-3h-2v3H17a1 1 0 0 0-1 1v4h-2a1 1 0 0 0-1 1v9a1 1 0 0 0 1 1h6a1 1 0 0 0 1-1v-9a1 1 0 0 0-1-1h-2v-3h13v3h-2a1 1 0 0 0-1 1v9a1 1 0 0 0 1 1h6a1 1 0 0 0 1-1v-9a1 1 0 0 0-1-1h-2v-3h13v3h-2a1 1 0 0 0-1 1v9a1 1 0 0 0 1 1h6a1 1 0 0 0 1-1v-9a1 1 0 0 0-1-1Z" fill="#FFF"/></g></svg>