<svg width="64" height="64" xmlns="http://www.w3.org/2000/svg"><defs><linearGradient x1="0%" y1="100%" x2="100%" y2="0%" id="a"><stop stop-color="#B0084D" offset="0%"/><stop stop-color="#FF4F8B" offset="100%"/></linearGradient></defs><g fill="none" fill-rule="evenodd"><path d="M0 0h64v64H0z" fill="url(#a)"/><path d="M44 51.005h6v-5.983h-6v5.983Zm-15 0h6v-5.983h-6v5.983Zm-15 0h6v-5.983h-6v5.983Zm37-7.978h-3v-3.99a.999.999 0 0 0-1-.996H33v-2.992h-2v2.992H17c-.553 0-1 .446-1 .997v3.989h-3c-.553 0-1 .447-1 .997v7.979c0 .55.447.997 1 .997h8c.552 0 1-.447 1-.997v-7.979a.999.999 0 0 0-1-.997h-3v-2.992h13v2.992h-3c-.553 0-1 .447-1 .997v7.979c0 .55.447.997 1 .997h8c.552 0 1-.447 1-.997v-7.979a.999.999 0 0 0-1-.997h-3v-2.992h13v2.992h-3c-.553 0-1 .447-1 .997v7.979c0 .55.447.997 1 .997h8c.552 0 1-.447 1-.997v-7.979a.999.999 0 0 0-1-.997ZM32 14.138l6.949 3.85L32 21.882l-6.95-3.892 6.95-3.85Zm1 17.203v-7.732l7-3.92v7.687l-7 3.965Zm-9-11.653 7 3.92v7.733l-7-3.965v-7.688Zm-1.495 9.136 9 5.098a1.008 1.008 0 0 0 .989 0l9-5.098a1 1 0 0 0 .506-.867v-9.973a.998.998 0 0 0-.515-.872l-9-4.986a1 1 0 0 0-.971 0l-9 4.986a.997.997 0 0 0-.514.872v9.973c0 .359.193.69.505.867Z" fill="#FFF"/></g></svg>