<svg width="64" height="64" xmlns="http://www.w3.org/2000/svg"><defs><linearGradient x1="0%" y1="100%" x2="100%" y2="0%" id="a"><stop stop-color="#B0084D" offset="0%"/><stop stop-color="#FF4F8B" offset="100%"/></linearGradient></defs><g fill="none" fill-rule="evenodd"><path d="M0 0h64v64H0z" fill="url(#a)"/><path d="M42 24c-1.103 0-2-.897-2-2s.897-2 2-2 2 .897 2 2-.897 2-2 2ZM32 14c0-1.103.897-2 2-2s2 .897 2 2-.897 2-2 2-2-.897-2-2Zm-4 16c-1.103 0-2-.897-2-2s.897-2 2-2 2 .897 2 2-.897 2-2 2Zm-10-9c0-1.103.897-2 2-2s2 .897 2 2-.897 2-2 2-2-.897-2-2Zm24-3c-.739 0-1.424.215-2.02.567l-2.546-2.548c.35-.595.566-1.279.566-2.019 0-2.206-1.794-4-4-4s-4 1.794-4 4c0 1.365.689 2.57 1.736 3.292l-3.373 6.745C28.242 24.025 28.125 24 28 24c-.997 0-1.899.38-2.601.985l-1.965-1.966c.35-.595.566-1.279.566-2.019 0-2.206-1.794-4-4-4s-4 1.794-4 4 1.794 4 4 4c.739 0 1.424-.215 2.02-.567l2.227 2.228A3.97 3.97 0 0 0 24 28c0 2.206 1.794 4 4 4s4-1.794 4-4c0-1.365-.689-2.57-1.736-3.292l3.373-6.745c.121.012.238.037.363.037.739 0 1.424-.215 2.02-.567l2.546 2.548A3.966 3.966 0 0 0 38 22c0 2.206 1.794 4 4 4s4-1.794 4-4-1.794-4-4-4Zm-5.469 22H26.469l-3.334-4h16.73l-3.334 4Zm-3.312 12h-3.438L27.28 42h8.44l-2.501 10ZM42 34H21a1 1 0 0 0-.769 1.64l4.854 5.824 2.945 11.779c.112.444.511.757.97.757h5c.459 0 .858-.313.97-.757l2.945-11.779 4.854-5.824A1 1 0 0 0 42 34Z" fill="#FFF"/></g></svg>