<svg width="64" height="64" xmlns="http://www.w3.org/2000/svg"><defs><linearGradient x1="0%" y1="100%" x2="100%" y2="0%" id="a"><stop stop-color="#B0084D" offset="0%"/><stop stop-color="#FF4F8B" offset="100%"/></linearGradient></defs><g fill="none" fill-rule="evenodd"><path d="M0 0h64v64H0z" fill="url(#a)"/><path d="m27.219 22.625-4-5 1.562-1.249 3.7 4.624h13.105l-1.293-1.292 1.414-1.415 3 3a1 1 0 0 1 0 1.415l-3 3-1.414-1.415L41.586 23H28c-.303 0-.591-.138-.781-.375Zm17.488 18.668a1 1 0 0 1 0 1.415l-3 3-1.414-1.415L41.586 43H28.481l-3.7 4.625-1.562-1.249 4-5c.19-.237.478-.376.781-.376h13.586l-1.293-1.292 1.414-1.415 3 3Zm9-8.585-3 3-1.414-1.415L50.586 33H33v-2h17.586l-1.293-1.292 1.414-1.415 3 3a1 1 0 0 1 0 1.415ZM15 52c-1.654 0-3-1.345-3-3 0-1.654 1.346-3 3-3 1.655 0 3 1.346 3 3 0 1.655-1.345 3-3 3Zm10-23c1.655 0 3 1.346 3 3 0 1.655-1.345 3-3 3-1.654 0-3-1.345-3-3 0-1.654 1.346-3 3-3ZM12 15c0-1.654 1.346-3 3-3 1.655 0 3 1.346 3 3 0 1.655-1.345 3-3 3-1.654 0-3-1.345-3-3Zm6.151 30.15 6.375-8.197c.159.015.312.047.474.047 2.757 0 5-2.243 5-5 0-2.756-2.243-5-5-5-.162 0-.315.033-.474.048l-6.375-8.197C19.27 17.933 20 16.558 20 15c0-2.756-2.243-5-5-5s-5 2.244-5 5c0 2.757 2.243 5 5 5 .471 0 .917-.086 1.35-.208l6.148 7.905C21.012 28.565 20 30.159 20 32c0 1.842 1.012 3.436 2.498 4.304l-6.148 7.905A4.945 4.945 0 0 0 15 44c-2.757 0-5 2.244-5 5 0 2.757 2.243 5 5 5s5-2.243 5-5c0-1.557-.73-2.932-1.849-3.85Z" fill="#FFF"/></g></svg>