<svg width="64" height="64" xmlns="http://www.w3.org/2000/svg"><defs><linearGradient x1="0%" y1="100%" x2="100%" y2="0%" id="a"><stop stop-color="#B0084D" offset="0%"/><stop stop-color="#FF4F8B" offset="100%"/></linearGradient></defs><g fill="none" fill-rule="evenodd"><path d="M0 0h64v64H0z" fill="url(#a)"/><path d="M38 43.999h9v2h-9v1h-2v-1h-3v-2h3v-1h2v1Zm3-5h6v2h-6v1h-2v-1h-6v-2h6v-1h2v1Zm4-5.001h2v2h-2v1h-2v-1H33v-2h10v-1h2v1Zm-28 3h7v2h-7c-.821 0-1.751 0-2.687-.597C12.703 37.383 10 34.997 10 30.477c0-5.358 3.545-7.408 5.73-8.16l-.032-.543c-.002-4.506 2.973-9.114 6.918-10.778 4.613-1.961 9.502-.99 13.076 2.6 1.046 1.047 1.916 2.311 2.597 3.768a5.457 5.457 0 0 1 4.981-.83c2.257.742 3.679 2.789 3.894 5.55C51.701 23.105 54 25.766 54 29.996h-2c0-4.541-3.422-5.66-5.996-6.105a1.001 1.001 0 0 1-.813-1.169c-.028-2.205-.952-3.765-2.545-4.288-1.424-.47-2.997.049-3.908 1.288a1.002 1.002 0 0 1-1.748-.258c-.636-1.79-1.549-3.29-2.715-4.457-1.428-1.436-5.348-4.523-10.879-2.17-3.197 1.348-5.7 5.248-5.7 8.877l.077 1.272a1 1 0 0 1-.752 1.03c-1.875.476-5.021 1.95-5.021 6.46 0 3.383 1.841 5.259 3.385 6.236.427.272.869.285 1.615.285Zm35 4.525-1.101-.063a1.019 1.019 0 0 0-1.032.78 10.02 10.02 0 0 1-1.305 3.153 1 1 0 0 0 .179 1.28l.822.733-2.156 2.156-.729-.817a1.001 1.001 0 0 0-1.281-.18 10.005 10.005 0 0 1-3.157 1.309 1 1 0 0 0-.777 1.033L41.525 52h-3.05l.062-1.095a.999.999 0 0 0-.777-1.032 10.046 10.046 0 0 1-3.155-1.31.996.996 0 0 0-1.28.18l-.732.82-2.156-2.157.82-.73c.364-.326.44-.868.18-1.281a9.97 9.97 0 0 1-1.306-3.155 1.021 1.021 0 0 0-1.032-.78L28 41.523v-3.05l1.103.063c.446.024.924-.3 1.032-.777a10.027 10.027 0 0 1 1.307-3.15 1 1 0 0 0-.179-1.28l-.826-.739 2.157-2.156.736.825a1 1 0 0 0 1.279.18 10.045 10.045 0 0 1 3.151-1.304 1 1 0 0 0 .777-1.032l-.062-1.106h3.05l-.062 1.107a1 1 0 0 0 .777 1.033c1.117.252 2.177.692 3.148 1.304a1 1 0 0 0 1.28-.18l.738-.827 2.157 2.156-.824.737a1 1 0 0 0-.179 1.28 10.025 10.025 0 0 1 1.306 3.151 1.02 1.02 0 0 0 1.032.778L52 38.473v3.05Zm.943-5.107-1.343.077a12.064 12.064 0 0 0-.919-2.218l1.005-.896a1.002 1.002 0 0 0 .041-1.454l-3.655-3.654a.97.97 0 0 0-.735-.293 1.002 1.002 0 0 0-.718.334l-.899 1.009a11.98 11.98 0 0 0-2.214-.918l.076-1.35a.999.999 0 0 0-.998-1.056h-5.168a1 1 0 0 0-.998 1.057l.076 1.347c-.767.23-1.509.538-2.216.917l-.897-1.006a1.004 1.004 0 0 0-.718-.334.986.986 0 0 0-.735.293l-3.655 3.654a1.002 1.002 0 0 0 .041 1.453l1.007.899c-.381.708-.688 1.449-.92 2.216l-1.344-.077a1.002 1.002 0 0 0-1.057 1v5.166a1.002 1.002 0 0 0 1.057.999l1.339-.077c.232.77.539 1.514.919 2.222l-1.001.892a1.004 1.004 0 0 0-.041 1.454l3.655 3.655a.998.998 0 0 0 1.453-.042l.892-1c.709.38 1.452.689 2.221.92l-.076 1.338A.999.999 0 0 0 37.416 54h5.168a1 1 0 0 0 .998-1.057l-.076-1.335c.77-.232 1.514-.54 2.223-.921l.89.998c.183.205.443.326.718.334.24.012.541-.098.735-.292l3.655-3.655a1 1 0 0 0-.041-1.453l-1.003-.895c.38-.708.687-1.451.919-2.22l1.341.077a1.002 1.002 0 0 0 1.057-1v-5.166a1.002 1.002 0 0 0-1.057-1Z" fill="#FFF"/></g></svg>