<svg width="64" height="64" xmlns="http://www.w3.org/2000/svg"><defs><linearGradient x1="0%" y1="100%" x2="100%" y2="0%" id="a"><stop stop-color="#B0084D" offset="0%"/><stop stop-color="#FF4F8B" offset="100%"/></linearGradient></defs><g fill="none" fill-rule="evenodd"><path d="M0 0h64v64H0z" fill="url(#a)"/><path d="M30.841 23.374 29.78 21.68a14.122 14.122 0 0 1 5.519-2.016l.285 1.98a12.15 12.15 0 0 0-4.743 1.731Zm-1.305.942a12.257 12.257 0 0 0-4.437 8.906l-1.998-.085a14.267 14.267 0 0 1 5.16-10.362l1.275 1.541Zm1.273 6.546a6.13 6.13 0 0 0-.376 3.16l-1.981.284a8.146 8.146 0 0 1 .501-4.19l1.856.746Zm.572-1.094-1.67-1.1a8.154 8.154 0 0 1 5.642-3.583l.285 1.98a6.15 6.15 0 0 0-4.257 2.703ZM31 38.994H16.956c-1.174 0-2.028-.444-2.642-.83C12.704 37.151 10 34.784 10 30.3c0-5.316 3.541-7.348 5.727-8.096l-.032-.528c-.001-4.47 2.973-9.04 6.918-10.69 4.607-1.943 9.493-.983 13.065 2.575 1.046 1.04 1.916 2.291 2.597 3.736a5.486 5.486 0 0 1 5-.816c2.246.742 3.659 2.773 3.872 5.505 2.314.584 6.824 2.483 6.824 8.383l.001.301c.002.451.005 1.192-.002 1.348l-1.998-.088c.007-.146.002-.832 0-1.25l-.001-.31c0-5.017-4.184-6.278-5.984-6.588a1 1 0 0 1-.813-1.168c-.028-2.172-.945-3.712-2.527-4.234-1.429-.472-3.01.036-3.925 1.27a1 1 0 0 1-1.744-.258c-.636-1.773-1.548-3.258-2.711-4.413-1.429-1.424-5.35-4.483-10.879-2.15-3.194 1.336-5.694 5.195-5.694 8.787l.077 1.26a1 1 0 0 1-.754 1.03C15.144 24.38 12 25.838 12 30.301c0 3.345 1.838 5.201 3.379 6.17.599.377 1.04.523 1.577.523H31v2ZM43.767 50.78h2a3.2 3.2 0 0 1-3.197 3.196 3.2 3.2 0 0 1-3.196-3.196h2c0 .66.537 1.196 1.196 1.196.66 0 1.197-.537 1.197-1.196ZM52 46.773c0 .673-.548 1.221-1.221 1.221H34.221A1.223 1.223 0 0 1 33 46.774v-.559c0-.673.548-1.22 1.221-1.22h16.558c.673 0 1.221.547 1.221 1.22v.558ZM40.021 30.93c.436-.118.74-.514.74-.966V27.88c0-.346.2-.676.55-.903a1.547 1.547 0 0 1 1.641-.078c.495.268.763.714.763.997v1.868a1 1 0 0 0 .778.975C47.274 31.37 49 33.876 49 37.28v5.714H36v-5.839c0-3.219 1.503-5.547 4.021-6.225ZM51 43.017V37.28c0-4.075-2.004-7.172-5.285-8.274v-1.11c0-1.078-.71-2.16-1.809-2.756-1.174-.637-2.554-.578-3.686.16-.913.594-1.459 1.558-1.459 2.58v1.36C35.764 30.382 34 33.284 34 37.154v5.862a3.214 3.214 0 0 0-3 3.198v.558a3.225 3.225 0 0 0 3.221 3.221h16.558A3.224 3.224 0 0 0 54 46.774v-.559c0-1.7-1.328-3.083-3-3.198Z" fill="#FFF"/></g></svg>