<svg width="64" height="64" xmlns="http://www.w3.org/2000/svg"><defs><linearGradient x1="0%" y1="100%" x2="100%" y2="0%" id="a"><stop stop-color="#2E27AD" offset="0%"/><stop stop-color="#527FFF" offset="100%"/></linearGradient></defs><g fill="none" fill-rule="evenodd"><path d="M0 0h64v64H0z" fill="url(#a)"/><path d="M53.834 32.12c0 8.528-5.106 15.872-12.414 19.176v-2.217c6.171-3.156 10.414-9.564 10.414-16.958 0-9.03-6.322-16.597-14.77-18.547l-.944-2.212c10.024 1.607 17.714 10.29 17.714 20.759ZM23.42 49.083V51.3C16.109 47.996 11 40.65 11 32.12c0-10.465 7.687-19.147 17.706-20.757l-.944 2.213C19.318 15.529 13 23.093 13 32.12c0 7.396 4.246 13.806 10.42 16.96Zm2 4.918h2V39h-2v15Zm12 0h2V39h-2v15Zm-6-3h2V34h-2v17Zm1.102-37.575 7.724 18.069-7.113-5.425a1.025 1.025 0 0 0-1.229.009l-7.105 5.417 7.723-18.07ZM21.773 35.379a.999.999 0 0 0 1.221.007l9.53-7.266 9.527 7.265a1 1 0 0 0 1.526-1.188l-10.083-23.59a1.001 1.001 0 0 0-.92-.607h-.102c-.401 0-.762.239-.92.607l-10.084 23.59a1 1 0 0 0 .305 1.182Z" fill="#FFF"/></g></svg>