<svg width="64" height="64" xmlns="http://www.w3.org/2000/svg"><defs><linearGradient x1="0%" y1="100%" x2="100%" y2="0%" id="a"><stop stop-color="#2E27AD" offset="0%"/><stop stop-color="#527FFF" offset="100%"/></linearGradient></defs><g fill="none" fill-rule="evenodd"><path d="M0 0h64v64H0z" fill="url(#a)"/><path d="m36.442 46.035.525 1.93c-1.515.412-3.529.668-5.254.668-7.104 0-13.737-3.995-16.899-10.178l1.781-.91c2.824 5.521 8.757 9.088 15.118 9.088 1.537 0 3.393-.235 4.729-.598Zm9.556-13.742 3-3a.999.999 0 0 1 1.414 0l3 3-1.414 1.414-1.423-1.422c-.153 1.432-.445 2.748-.933 4.062l-1.875-.695c.368-.992.609-1.992.758-3.058l-1.113 1.113-1.414-1.414Zm-28.588-5.57-3 2.986a.997.997 0 0 1-1.41 0l-3-2.986 1.41-1.418 1.451 1.445C13.999 17.759 21.858 11 31.705 11c6.985 0 13.615 4.139 16.89 10.545l-1.781.91C43.878 16.711 37.947 13 31.705 13c-8.57 0-15.451 5.686-16.758 13.353L16 25.305l1.41 1.418Zm14.317 6.225a3.36 3.36 0 0 1-3.356-3.357 3.36 3.36 0 0 1 3.356-3.356 3.36 3.36 0 0 1 3.358 3.356 3.361 3.361 0 0 1-3.358 3.357Zm0-8.713a5.362 5.362 0 0 0-5.356 5.356 5.363 5.363 0 0 0 5.356 5.357 5.364 5.364 0 0 0 5.358-5.357 5.364 5.364 0 0 0-5.358-5.356Zm4.436 12.395c-.8.506-1.673.867-2.595 1.075a.999.999 0 0 0-.777 1.033l.042.745h-2.211l.043-.746a1 1 0 0 0-.778-1.033 8.23 8.23 0 0 1-2.592-1.075.998.998 0 0 0-1.281.179l-.499.56-1.563-1.564.558-.498a1 1 0 0 0 .18-1.28 8.24 8.24 0 0 1-1.072-2.593c-.108-.477-.574-.798-1.032-.779l-.749.043v-2.212l.751.043c.454.015.923-.3 1.033-.777.209-.919.57-1.79 1.075-2.588a1 1 0 0 0-.18-1.28l-.564-.504 1.563-1.564.503.563a1 1 0 0 0 1.279.181 8.284 8.284 0 0 1 2.59-1.072 1 1 0 0 0 .778-1.033l-.043-.754h2.212l-.043.755c-.029.488.3.925.777 1.033a8.279 8.279 0 0 1 2.588 1.072.999.999 0 0 0 1.279-.18l.505-.565 1.564 1.564-.563.502a1 1 0 0 0-.18 1.279c.504.799.867 1.67 1.075 2.591.108.477.559.792 1.032.777l.751-.043v2.212l-.75-.043a1.005 1.005 0 0 0-1.032.779 8.252 8.252 0 0 1-1.074 2.591c-.26.413-.184.954.18 1.28l.561.5-1.564 1.563-.497-.557a1 1 0 0 0-1.28-.18Zm2.442 2.9 3.062-3.061a1 1 0 0 0-.041-1.453l-.746-.665a10.15 10.15 0 0 0 .685-1.654l.997.057a1 1 0 0 0 1.057-.998v-4.329a1.001 1.001 0 0 0-1.057-.999l-.999.057c-.18-.57-.408-1.122-.684-1.652l.747-.667a1.002 1.002 0 0 0 .041-1.453l-3.062-3.061a.978.978 0 0 0-.735-.292.997.997 0 0 0-.718.334l-.669.75a10.219 10.219 0 0 0-1.649-.684l.056-1.003a.995.995 0 0 0-.271-.743.996.996 0 0 0-.727-.314h-4.329a.993.993 0 0 0-.726.314.992.992 0 0 0-.272.743l.057 1.002c-.57.179-1.121.407-1.651.683l-.668-.748a.994.994 0 0 0-.717-.334.969.969 0 0 0-.736.292l-3.061 3.061a1 1 0 0 0 .041 1.453l.749.669c-.277.53-.506 1.081-.686 1.65l-1-.057a1 1 0 0 0-1.056.999v4.329a1 1 0 0 0 1.056.998l.995-.057c.18.571.408 1.125.686 1.656l-.744.662a1.004 1.004 0 0 0-.334.719.996.996 0 0 0 .293.735l3.061 3.061a.998.998 0 0 0 1.453-.041l.663-.744c.532.278 1.085.507 1.656.687l-.057.994a.998.998 0 0 0 .998 1.057h4.329a1 1 0 0 0 .998-1.057l-.056-.992a10.19 10.19 0 0 0 1.657-.687l.661.742a1 1 0 0 0 .718.334c.247.01.541-.098.735-.293Zm7.907 5.916a1.071 1.071 0 0 1-.756.33 1.164 1.164 0 0 1-.767-.301 1.068 1.068 0 0 1-.331-.755 1.07 1.07 0 0 1 .301-.768c.199-.208.467-.325.755-.331h.022a1.08 1.08 0 0 1 .776 1.825Zm-.837-3.825a3.06 3.06 0 0 0-2.158.945 3.056 3.056 0 0 0-.858 2.193c.015.822.351 1.588.943 2.158a3.06 3.06 0 0 0 2.132.859h.062a3.056 3.056 0 0 0 2.158-.945 3.082 3.082 0 0 0-.085-4.351 3.027 3.027 0 0 0-2.194-.859Zm4.971 5.867-1.574-.316a1.004 1.004 0 0 0-.787.174l-.866.634a.996.996 0 0 0-.403.69l-.186 1.585-2.263-.002-.183-1.571a.999.999 0 0 0-.398-.689l-.877-.648a.987.987 0 0 0-.791-.177l-1.56.312-.697-2.153 1.463-.671c.254-.117.447-.334.534-.599l.329-1.009a1.003 1.003 0 0 0-.079-.8l-.787-1.4 1.832-1.329 1.079 1.172c.19.205.456.322.736.322h.005l1.091-.006a.998.998 0 0 0 .73-.323l1.07-1.161 1.83 1.331-.784 1.394a1.001 1.001 0 0 0-.081.794l.325 1.02a1 1 0 0 0 .536.605l1.456.669-.7 2.152Zm2.344-3.598-1.864-.856-.059-.185 1.007-1.79a1 1 0 0 0-.284-1.298l-3.27-2.379a.997.997 0 0 0-1.323.131l-1.379 1.496-.214.002-1.383-1.501a.998.998 0 0 0-1.322-.132l-3.272 2.374a1 1 0 0 0-.286 1.299l1.008 1.794-.057.175-1.873.86a1.001 1.001 0 0 0-.535 1.217l1.246 3.846c.157.483.648.771 1.148.673l1.998-.4.172.127.235 2.024c.059.504.486.884.992.885l4.043.004h.001c.507 0 .934-.38.994-.884l.239-2.036.159-.116 2.015.404c.491.098.989-.189 1.147-.671l1.251-3.844a1 1 0 0 0-.534-1.219Z" fill="#FFF"/></g></svg>