<svg width="64" height="64" xmlns="http://www.w3.org/2000/svg"><defs><linearGradient x1="0%" y1="100%" x2="100%" y2="0%" id="a"><stop stop-color="#2E27AD" offset="0%"/><stop stop-color="#527FFF" offset="100%"/></linearGradient></defs><g fill="none" fill-rule="evenodd"><path d="M0 0h64v64H0z" fill="url(#a)"/><path d="M30.749 39h11v-2h-11v2Zm0-12h10v-2h-10v2Zm0-6h14v-2h-14v2Zm10.705 31c.426-2.298 2.295-4.033 4.528-4.033.825 0 1.634.24 2.34.693 1.138.73 1.928 1.958 2.187 3.34h-9.055Zm.672-10h-5.377a1 1 0 0 0-1 1v2.036l-2.012-2.642A1.003 1.003 0 0 0 32.94 42h-2.692a4.52 4.52 0 0 1-3.643-1.868c-.86-1.182-1.083-2.685-.615-4.125.575-1.77 2.368-3.007 4.358-3.007h16.84c1.974 0 3.699 1.183 4.296 2.944.813 2.399-.353 4.476-1.982 5.439a4.205 4.205 0 0 0-3.52-1.912A4.216 4.216 0 0 0 42.126 42Zm-19.744-9c-5.318 0-9.86-3.971-10.338-9.04a9.895 9.895 0 0 1 2.563-7.675A10.018 10.018 0 0 1 21.999 13h18.76c5.31 0 9.74 3.809 10.305 8.86.399 3.554-1.132 7.008-3.988 9.14H30.349c-1.881 0-3.594.755-4.803 2h-3.164Zm23.6 12.895a2.215 2.215 0 0 1-2.212-2.212c0-1.22.993-2.212 2.213-2.212 1.219 0 2.21.992 2.21 2.212 0 1.22-.991 2.212-2.21 2.212Zm3.42 1.081c-.16-.103-.33-.184-.497-.271a4.194 4.194 0 0 0 1.289-3.022c0-.13-.027-.252-.038-.379 2.923-1.461 4.305-4.811 3.223-8.002-.61-1.798-2.015-3.167-3.767-3.839a11.997 11.997 0 0 0 3.44-9.826C52.372 15.573 47.088 11 40.76 11H21.999a12.028 12.028 0 0 0-11.946 13.149C10.628 30.233 16.043 35 22.382 35h1.87c-.053.131-.12.254-.164.389-.668 2.055-.34 4.213.9 5.919A6.525 6.525 0 0 0 30.248 44h2.198l3.507 4.606A1.002 1.002 0 0 0 37.749 48v-4h4.053a4.188 4.188 0 0 0 1.253 2.701c-2.184 1.151-3.693 3.538-3.693 6.299a1 1 0 0 0 1 1h11.24a1 1 0 0 0 1-1c0-2.486-1.195-4.738-3.2-6.024ZM18.072 28c.42-2.04 2.093-3.569 4.088-3.569.746 0 1.478.217 2.118.628 1.008.646 1.715 1.723 1.968 2.941h-8.174Zm4.089-9.973c1.083 0 1.964.881 1.964 1.965a1.967 1.967 0 0 1-1.964 1.965 1.968 1.968 0 0 1-1.966-1.965c0-1.084.882-1.965 1.966-1.965ZM28.348 29c0-2.321-1.118-4.424-2.99-5.625a6.158 6.158 0 0 0-.662-.361c.866-.728 1.429-1.805 1.429-3.022a3.97 3.97 0 0 0-3.964-3.965 3.97 3.97 0 0 0-3.966 3.965c0 1.217.563 2.294 1.43 3.022-2.151 1.03-3.654 3.323-3.654 5.986a1 1 0 0 0 1 1h10.377a1 1 0 0 0 1-1Z" fill="#FFF"/></g></svg>