<svg width="64" height="64" xmlns="http://www.w3.org/2000/svg"><defs><linearGradient x1="0%" y1="100%" x2="100%" y2="0%" id="a"><stop stop-color="#2E27AD" offset="0%"/><stop stop-color="#527FFF" offset="100%"/></linearGradient></defs><g fill="none" fill-rule="evenodd"><path d="M0 0h64v64H0z" fill="url(#a)"/><path d="M45 46.161c-1.103 0-2-.897-2-2s.897-2 2-2 2 .897 2 2-.897 2-2 2Zm0-6c-2.206 0-4 1.794-4 4s1.794 4 4 4 4-1.794 4-4-1.794-4-4-4Zm7 4.531-.271-.015c-.452-.03-.924.3-1.032.778a5.749 5.749 0 0 1-.754 1.82c-.26.414-.184.955.18 1.281l.202.179-.751.751-.177-.199a1 1 0 0 0-1.281-.18 5.789 5.789 0 0 1-1.822.755.998.998 0 0 0-.777 1.032l.014.267h-1.062l.014-.268a.997.997 0 0 0-.777-1.031 5.824 5.824 0 0 1-1.82-.756 1 1 0 0 0-1.281.18l-.179.201-.751-.752.2-.178c.364-.326.44-.867.18-1.28a5.779 5.779 0 0 1-.753-1.822 1.016 1.016 0 0 0-1.032-.778l-.27.015V43.63l.272.015c.461.024.923-.3 1.033-.777a5.74 5.74 0 0 1 .755-1.818c.26-.413.184-.955-.181-1.281l-.204-.182.751-.751.182.204a1 1 0 0 0 1.28.181 5.782 5.782 0 0 1 1.818-.753.998.998 0 0 0 .777-1.033l-.015-.274h1.064l-.015.275c-.029.488.3.924.776 1.032.645.146 1.257.4 1.818.754.413.258.954.184 1.28-.181l.183-.205.751.751-.203.182c-.364.325-.44.867-.18 1.28.355.561.609 1.173.754 1.819.108.477.581.801 1.033.777L52 43.63v1.062Zm1.687-2.848a1.015 1.015 0 0 0-.744-.271l-.53.03a7.921 7.921 0 0 0-.362-.874l.396-.354a1.002 1.002 0 0 0 .041-1.453l-2.249-2.249a1.001 1.001 0 0 0-1.453.042l-.355.398a7.866 7.866 0 0 0-.873-.361l.03-.535a.994.994 0 0 0-.272-.743.996.996 0 0 0-.726-.313h-3.18a.996.996 0 0 0-.726.313.995.995 0 0 0-.272.744l.029.532a8.07 8.07 0 0 0-.873.362l-.354-.397a.998.998 0 0 0-1.453-.042l-2.249 2.249a.997.997 0 0 0 .042 1.453l.397.355c-.138.284-.26.575-.362.873l-.532-.03a1 1 0 0 0-1.057.998v3.18a1 1 0 0 0 1.057.998l.527-.03c.104.3.225.592.363.877l-.394.352a1 1 0 0 0-.041 1.453l2.249 2.248a.97.97 0 0 0 .735.293c.275-.008.535-.129.718-.334l.351-.394c.285.139.578.26.876.364l-.029.526a.995.995 0 0 0 .272.744c.188.2.451.313.726.313h3.18a.996.996 0 0 0 .726-.313c.19-.2.288-.469.272-.744l-.029-.525c.299-.103.592-.225.878-.364l.348.392c.184.206.444.327.718.335a.966.966 0 0 0 .736-.293l2.249-2.248a1 1 0 0 0-.041-1.454l-.395-.352c.138-.285.26-.577.362-.876l.529.03c.268.011.544-.083.744-.271a1 1 0 0 0 .313-.727v-3.18a1 1 0 0 0-.313-.727Zm-29.633-15.28a5.422 5.422 0 0 1 5.417-5.417 5.423 5.423 0 0 1 5.417 5.417 5.423 5.423 0 0 1-5.373 5.415l-.012-.001c-.014 0-.026.003-.04.003a5.423 5.423 0 0 1-5.409-5.417Zm5.41 7.417h.007l.044-.002c2.132.004 4.146.989 5.823 2.851l1.486-1.338c-1.031-1.146-2.207-2.029-3.464-2.624 2.113-1.31 3.528-3.642 3.528-6.304 0-4.09-3.327-7.417-7.417-7.417s-7.417 3.327-7.417 7.417c0 2.665 1.418 5 3.534 6.308-3.982 1.856-6.896 6.467-7.39 12.149L12 41.675V21.512l17.5-9.25 17.5 9.25v11.649h2V20.307L29.5 10 10 20.307v22.561l19.477 10.514 5.802-2.826-.875-1.798-4.881 2.377-9.377-5.063c.252-6.796 4.277-12.064 9.318-12.091Z" fill="#FFF"/></g></svg>