<svg width="64" height="64" xmlns="http://www.w3.org/2000/svg"><defs><linearGradient x1="0%" y1="100%" x2="100%" y2="0%" id="a"><stop stop-color="#2E27AD" offset="0%"/><stop stop-color="#527FFF" offset="100%"/></linearGradient></defs><g fill="none" fill-rule="evenodd"><path d="M0 0h64v64H0z" fill="url(#a)"/><path d="M17.991 32.118c0-2.757 2.243-5 5-5s5 2.243 5 5-2.243 5-5 5-5-2.243-5-5ZM51 21.19H13a1 1 0 0 0-1 1v21.557a1 1 0 0 0 .5.866L29 54.14a1.01 1.01 0 0 0 1.006-.004l10.519-6.173-1.991-1.15-2.717 1.594a13.407 13.407 0 0 0-1.481-4.413l-1.731 1a11.366 11.366 0 0 1 1.324 4.521l-4.433 2.601-15.215-8.784A11.235 11.235 0 0 1 23 39.19c1.906 0 3.7.502 5.264 1.38l1.961-1.132a12.83 12.83 0 0 0-3.147-1.57A6.989 6.989 0 0 0 30 32.19c0-4.32-3.935-7.738-8.407-6.862-2.738.537-4.937 2.751-5.461 5.491a6.988 6.988 0 0 0 2.774 7.037A13.194 13.194 0 0 0 14 40.715V23.188h36v3.656L52 28v-5.81a1 1 0 0 0-1-1Zm.5 8.767L43 25.05a.998.998 0 0 0-1 0l-8.5 4.907a1 1 0 0 0-.5.867v6.944l2-1.154V31.4l7.5-4.329L50 31.4v8.677l-7.512 4.338-4.513-2.606-1.999 1.155 6.012 3.471a1 1 0 0 0 1 0l8.512-4.914c.309-.179.5-.509.5-.866v-9.832c0-.358-.191-.688-.5-.867Zm-34.049-10.85 12.04-6.95 12.04 6.95h4l-15.54-8.972a.998.998 0 0 0-1 0l-15.54 8.972h4Zm8.853 27.138-1-1.732 15.068-8.7 1 1.732-15.068 8.7Z" fill="#FFF"/></g></svg>