<svg width="64" height="64" xmlns="http://www.w3.org/2000/svg"><defs><linearGradient x1="0%" y1="100%" x2="100%" y2="0%" id="a"><stop stop-color="#C8511B" offset="0%"/><stop stop-color="#F90" offset="100%"/></linearGradient></defs><g fill="none" fill-rule="evenodd"><path d="M0 0h64v64H0z" fill="url(#a)"/><path d="M15 29h-2v-7c0-.363.197-.698.515-.874l9-5 .97 1.748L15 22.588V29Zm36 0h-2v-6.412l-8.486-4.724.972-1.747 9 5.009A1 1 0 0 1 51 22v7ZM26.504 50.868l-13-7.435a.999.999 0 0 1-.504-.868V35h2v6.985l12.496 7.147-.992 1.736Zm10.992 0-.992-1.736L49 41.985V35h2v7.565c0 .359-.192.69-.504.868l-13 7.435ZM28 21.323l4 1.6 4-1.6v-5.646l-4-1.6-4 1.6v5.646Zm-6.83 6.71 10.831 5.83 10.829-5.83-8.098-4.05-1.732.694V28h-2v-3.323l-1.732-.693-8.098 4.049Zm-.282 8.848 11.111 5.983 11.113-5.984-5.371-3.836L33 35.598 33.001 38h-2L31 35.597l-4.741-2.553-5.371 3.837ZM31.001 53 31 44.598 18.525 37.88a.998.998 0 0 1-.106-1.694l5.878-4.198-5.771-3.108a.998.998 0 0 1 .027-1.775l8.23-4.115-.154-.061a1.002 1.002 0 0 1-.629-.93v-7c0-.408.249-.775.629-.928l5-2c.238-.095.504-.095.742 0l5 2c.38.153.629.52.629.929v7c0 .409-.249.776-.629.929l-.154.06 8.23 4.116a1.001 1.001 0 0 1 .028 1.775l-5.772 3.108 5.878 4.198a1 1 0 0 1-.107 1.694L33 44.597 33.001 53h-2Z" fill="#FFF"/></g></svg>