<svg width="64" height="64" xmlns="http://www.w3.org/2000/svg"><defs><linearGradient x1="0%" y1="100%" x2="100%" y2="0%" id="a"><stop stop-color="#C8511B" offset="0%"/><stop stop-color="#F90" offset="100%"/></linearGradient></defs><g fill="none" fill-rule="evenodd"><path d="M0 0h64v64H0z" fill="url(#a)"/><path d="M39.86 47.468a1 1 0 0 1-.241 1.393l-7.035 4.95a1.004 1.004 0 0 1-.582.189h-.006a1.001 1.001 0 0 1-.582-.189l-7.033-4.95a1 1 0 1 1 1.15-1.636L31 51.073V44a1 1 0 1 1 2 0v7.073l5.469-3.848a.998.998 0 0 1 1.393.243ZM23 41.433l-4 2.401-4-2.4v-4.868l4-2.4 4 2.4v4.867ZM25 42v-6c0-.35-.185-.677-.486-.858l-5-3a1 1 0 0 0-1.029 0l-5 3A1.001 1.001 0 0 0 13 36v6a1 1 0 0 0 .485.857l5 3a1 1 0 0 0 1.03 0l5-3A1 1 0 0 0 25 42ZM13 29v-7.983a.99.99 0 0 1 .123-.497l.017-.03v-.002h.001a.992.992 0 0 1 .38-.366l7.028-3.992a1.001 1.001 0 0 1 .99 1.74l-5.519 3.133 5.476 3.13a1 1 0 0 1-.992 1.735L15 22.723V29a1 1 0 0 1-2 0Zm36 12.433-4 2.401-4-2.4v-4.868l4-2.4 4 2.4v4.867Zm1.514-6.29-5-3a1 1 0 0 0-1.03 0l-5 3A1.001 1.001 0 0 0 39 36v6a1 1 0 0 0 .485.857l5 3a1 1 0 0 0 1.029 0l5-3A1 1 0 0 0 51 42v-6c0-.35-.185-.677-.486-.858ZM29 27.683l8.033 4.382L29 37.178v-9.494Zm-1.511-2.544A1 1 0 0 0 27 26v13a1 1 0 0 0 1.537.843l11-7a.998.998 0 0 0-.06-1.72l-10.999-6a.995.995 0 0 0-.989.017Zm23.51-4.123V29a1 1 0 0 1-2 0v-6.277l-5.503 3.145a1.001 1.001 0 0 1-1.364-.372.998.998 0 0 1 .372-1.364L47.984 21l-5.48-3.132a.998.998 0 0 1-.372-1.364.998.998 0 0 1 1.364-.372l6.985 3.991a1 1 0 0 1 .38.37l.013.021v.001a1 1 0 0 1 .126.502ZM28 14.567l4-2.4 4 2.4v4.857l-4 2.32-4-2.32v-4.858Zm-1.502 6.298 5 2.9a1 1 0 0 0 1.004 0l5-2.9c.308-.179.498-.509.498-.865v-6c0-.35-.185-.677-.486-.858l-5-3a1 1 0 0 0-1.029 0l-5 3A1.001 1.001 0 0 0 26 14v6a1 1 0 0 0 .498.865Z" fill="#FFF"/></g></svg>