<svg width="64" height="64" xmlns="http://www.w3.org/2000/svg"><defs><linearGradient x1="0%" y1="100%" x2="100%" y2="0%" id="a"><stop stop-color="#C8511B" offset="0%"/><stop stop-color="#F90" offset="100%"/></linearGradient></defs><g fill="none" fill-rule="evenodd"><path d="M0 0h64v64H0z" fill="url(#a)"/><path d="m32 28.12-3 1.5v4.765l3 1.5 3-1.5V29.62l-3-1.5Zm.447-2.013 3.481 1.741 2.517-1.678 1.11 1.664L37 29.537v5.466a.999.999 0 0 1-.553.894L33 37.62v3.266h-2V37.62l-3.447-1.724a.999.999 0 0 1-.553-.894v-5.466l-2.555-1.703 1.11-1.664 2.517 1.678 3.481-1.741c.281-.14.613-.14.894 0ZM42 25.596 32 20.14l-10 5.456v12.813l10 5.456 10-5.456V25.596ZM52 21v6h-2V22.62l-6 3v13.384c0 .366-.2.702-.521.878L33 45.598V51.3l4.168-2.319.973 1.749-5.655 3.144a1 1 0 0 1-.972 0l-5.655-3.144.973-1.749L31 51.3v-5.702l-10.479-5.717a1.002 1.002 0 0 1-.521-.878V25.62l-6-3v4.382h-2v-6c0-.38.214-.726.553-.896l6-3 .894 1.789-4.211 2.106 5.743 2.873 10.542-5.751a1 1 0 0 1 .958 0l10.542 5.75 5.743-2.872-4.211-2.106.894-1.79 6 3.001c.339.17.553.516.553.895Zm-2 21.385-5.447 2.723.894 1.79 6-3.001a.999.999 0 0 0 .553-.894v-6h-2v5.382ZM32 12.118l5.553 2.777.894-1.79-6-3a1.004 1.004 0 0 0-.894 0l-6 3 .894 1.79L32 12.118ZM14 42.386l5.447 2.723-.894 1.79-6-3.001a.999.999 0 0 1-.553-.894v-6h2v5.382Z" fill="#FFF"/></g></svg>