<svg width="64" height="64" xmlns="http://www.w3.org/2000/svg"><defs><linearGradient x1="0%" y1="100%" x2="100%" y2="0%" id="a"><stop stop-color="#C8511B" offset="0%"/><stop stop-color="#F90" offset="100%"/></linearGradient></defs><g fill="none" fill-rule="evenodd"><path d="M0 0h64v64H0z" fill="url(#a)"/><path d="M21 38.434v-4.826l4-2.437 4 2.437v4.826l-4 2.4-4-2.4Zm22-4.826v4.826l-4 2.4-4-2.4v-4.826l4-2.437 4 2.437Zm6 6.774-4-2v-5.336a1 1 0 0 0-.479-.854l-5-3.046a1.006 1.006 0 0 0-1.042 0l-5 3.046a1 1 0 0 0-.479.854V39c0 .35.185.677.485.858l5 3c.317.19.713.19 1.03 0l4.529-2.717 3.895 1.947L33 51.217V44h-2v7.217l-14.938-9.13 3.894-1.946 4.529 2.717a1.002 1.002 0 0 0 1.03 0l5-3c.3-.181.485-.507.485-.858v-5.954a1 1 0 0 0-.479-.854l-5-3.046a1.006 1.006 0 0 0-1.042 0l-5 3.046a1 1 0 0 0-.479.854v5.336l-4 2V22.805l6.47 4.044 1.06-1.697-6.488-4.054L31 13.618v2.816l-4.515 2.709c-.3.18-.485.506-.485.857v6c0 .35.185.677.485.858l5 3c.317.19.713.19 1.03 0l5-3c.3-.181.485-.507.485-.858v-6c0-.351-.185-.676-.485-.857L33 16.433V13.62l14.857 7.428-7.342 4.079.97 1.748L49 22.7v17.682ZM32 18.166l4 2.4v4.868l-4 2.4-4-2.4v-4.867l4-2.401Zm18.447 1.94-18-9a.998.998 0 0 0-.894 0l-18 9A1 1 0 0 0 13 21v21c0 .349.182.672.479.854l18 11a.994.994 0 0 0 1.042 0l18-11c.297-.182.479-.505.479-.854V21a1 1 0 0 0-.553-.894Z" fill="#FFF"/></g></svg>