<svg width="64" height="64" xmlns="http://www.w3.org/2000/svg"><defs><linearGradient x1="0%" y1="100%" x2="100%" y2="0%" id="a"><stop stop-color="#C8511B" offset="0%"/><stop stop-color="#F90" offset="100%"/></linearGradient></defs><g fill="none" fill-rule="evenodd"><path d="M0 0h64v64H0z" fill="url(#a)"/><path d="M37.968 42.005 33 44.848l-4.968-2.843v-5.67L33 33.492l4.968 2.843v5.67Zm2-6.25c0-.358-.192-.69-.503-.868l-5.968-3.415a1.002 1.002 0 0 0-.994 0l-5.968 3.415c-.31.178-.503.51-.503.868V38H12v2h14.032v2.585c0 .358.193.69.503.868L32 46.581V52h2v-5.419l5.465-3.128c.311-.178.503-.51.503-.868V40H52v-2H39.968v-2.245ZM15 21h5v-2h-5v2Zm22 0h12v-2H37v2Zm-25 5h40V14H12v12Zm41-14H11a1 1 0 0 0-1 1v14a1 1 0 0 0 1 1h42a1 1 0 0 0 1-1V13a1 1 0 0 0-1-1Z" fill="#FFF"/></g></svg>