<svg width="64" height="64" xmlns="http://www.w3.org/2000/svg"><defs><linearGradient x1="0%" y1="100%" x2="100%" y2="0%" id="a"><stop stop-color="#C8511B" offset="0%"/><stop stop-color="#F90" offset="100%"/></linearGradient></defs><g fill="none" fill-rule="evenodd"><path d="M0 0h64v64H0z" fill="url(#a)"/><path d="m27.729 14.621-1-1.732 4.77-2.755a.998.998 0 0 1 1 0l4.773 2.755-1 1.732L32 12.155l-4.271 2.466Zm8.27 30.753-4 2.31-4-2.31v-4.619l4-2.309 4 2.31v4.618Zm2-5.196a1 1 0 0 0-.5-.866l-5-2.887a.998.998 0 0 0-1 0l-5 2.887c-.308.18-.5.51-.5.866V41.5H13v2h13v2.452c0 .357.192.687.5.866l4.5 2.598V53.5h2v-4.084l4.5-2.598a1 1 0 0 0 .5-.866V43.5h13v-2H38v-1.322ZM42 29.5h5v-2h-5v2Zm0-5h5v-2h-5v2Zm-24-1h13v-2H18v2Zm-3 9h35v-13H15v13Zm36-15H14a1 1 0 0 0-1 1v15a1 1 0 0 0 1 1h37a1 1 0 0 0 1-1v-15a1 1 0 0 0-1-1Z" fill="#FFF"/></g></svg>