<svg width="64" height="64" xmlns="http://www.w3.org/2000/svg"><defs><linearGradient x1="0%" y1="100%" x2="100%" y2="0%" id="a"><stop stop-color="#C8511B" offset="0%"/><stop stop-color="#F90" offset="100%"/></linearGradient></defs><g fill="none" fill-rule="evenodd"><path d="M0 0h64v64H0z" fill="url(#a)"/><path d="m23 41.434-4 2.4-4-2.4v-3.867l4-2.401 4 2.4v3.868ZM25 42v-5c0-.351-.185-.676-.485-.857l-5-3a1.002 1.002 0 0 0-1.03 0l-5 3c-.3.18-.485.506-.485.857v5c0 .35.185.677.485.858l5 3a1.002 1.002 0 0 0 1.03 0l5-3c.3-.181.485-.507.485-.858Zm17 4.607v-8.04l8-4.801v8.63l-8 4.21Zm-9-2.711 6.155 4.208L33 51.344v-7.448Zm-9-17.683V17.7l7 3.888L30.998 26h2l.001-3.3L40 26.589V36l-2.4-1.8-1.2 1.599 3.6 2.7v7.759l-7-4.786V32a.998.998 0 0 0-.499-.865L24 26.213Zm-2-8.82v7.662l-6.932-4.013L22 17.392Zm10-5.263 7.142 3.759L32 19.857l-7.142-3.968L32 12.129Zm10 14.489 8-4v8.815l-8 4.8v-9.615Zm-.976-1.75L34.059 21l7.197-3.997 7.554 3.975-7.786 3.893Zm10.442-4.753-19-10a.998.998 0 0 0-.932 0l-19 10a1 1 0 0 0-.534.864l.002.02H12v10h2v-8.265l17 9.842v18.618l-6.47-4.043-1.06 1.697 8.001 5 .001-.002.011.009a.997.997 0 0 0 .983.029l19-10c.328-.173.534-.514.534-.885V21a.999.999 0 0 0-.534-.884Z" fill="#FFF"/></g></svg>