<svg width="64" height="64" xmlns="http://www.w3.org/2000/svg"><defs><linearGradient x1="0%" y1="100%" x2="100%" y2="0%" id="a"><stop stop-color="#C8511B" offset="0%"/><stop stop-color="#F90" offset="100%"/></linearGradient></defs><g fill="none" fill-rule="evenodd"><path d="M0 0h64v64H0z" fill="url(#a)"/><path d="M12 36.493v-8.637l7.479 4.318L12 36.494Zm10.479-4.319a1 1 0 0 0-.5-.866L11.5 25.258a.998.998 0 0 0-1.5.866v12.101a1 1 0 0 0 1.5.866l10.479-6.05c.31-.179.5-.509.5-.867ZM38 51.618V42.98l7.479 4.32L38 51.617Zm9.979-5.186L37.5 40.382a.998.998 0 0 0-1.5.866V53.35a1 1 0 0 0 1.5.867l10.479-6.05a1 1 0 0 0 0-1.734ZM52 36.493l-7.479-4.318L52 27.856v8.637Zm-24 3.022v-14.68l12.714 7.34L28 39.515Zm-2-18.147-7.479-4.318L26 12.732v8.636Zm0 30.252-7.479-4.318L26 42.984v8.636Zm27.5-26.362a.998.998 0 0 0-1 0l-9.883 5.706L28 22.525V11a.998.998 0 0 0-1.5-.866l-10.479 6.05a1 1 0 0 0 0 1.732L26 23.678v16.997l-9.979 5.761a1 1 0 0 0 0 1.732L26.5 54.22a.999.999 0 0 0 1 0 1 1 0 0 0 .5-.867V41.825l14.617-8.439 9.883 5.705a.998.998 0 0 0 1.5-.866v-12.1a1 1 0 0 0-.5-.867ZM38 12.732l7.479 4.318L38 21.368v-8.636Zm-1.5 11.235a.999.999 0 0 0 1 0l10.479-6.05a1 1 0 0 0 0-1.732L37.5 10.134A.998.998 0 0 0 36 11v12.1a1 1 0 0 0 .5.867Z" fill="#FFF"/></g></svg>