<svg width="64" height="64" xmlns="http://www.w3.org/2000/svg"><defs><linearGradient x1="0%" y1="100%" x2="100%" y2="0%" id="a"><stop stop-color="#C8511B" offset="0%"/><stop stop-color="#F90" offset="100%"/></linearGradient></defs><g fill="none" fill-rule="evenodd"><path d="M0 0h64v64H0z" fill="url(#a)"/><path d="M38.237 46.666c-1.263-.674-3.172-1.692-5.01-3.782-1.707-1.939-2.526-3.861-3.125-5.265a24.176 24.176 0 0 1-1.516-4.998.998.998 0 0 0-.834-.804.99.99 0 0 0-1.035.524 29.217 29.217 0 0 0-1.229 2.663c-.781 1.946-2.829 8.833-2.754 13.996h-2.927c-.882-3.247-1.899-5.948-5.693-11.851a70.8 70.8 0 0 1-.88-1.416c-.348-.568-.683-1.116-.996-1.584l4.186-5.566c.199.377.386.76.562 1.147.602 1.326.879 2.303 1.549 4.665l.332 1.168c.236.828.615 2.142 1.1 3.786.139.469.596.763 1.081.709a.998.998 0 0 0 .877-.948c.261-5.847 1.488-11.265 3.647-16.104 2.108-4.723 4.455-7.389 5.666-8.559a23.232 23.232 0 0 1 2.391-2.014l4.234 6.88c-.779.618-1.5 1.309-2.149 2.062a16.444 16.444 0 0 0-2.482 3.931c-.563 1.251-1.506 3.863-1.493 7.308.004.933.013 3.116.936 5.73.436 1.239 1.792 4.416 4.943 7.143a17.456 17.456 0 0 0 4.555 2.844c-1.841-.547-3.201-1.272-3.936-1.665m-7.311-34.607c-.363.312-.734.618-1.077.949-2.271 2.193-4.438 5.453-6.103 9.183-1.596 3.575-2.705 7.446-3.316 11.558-.658-2.322-.968-3.403-1.623-4.846a23.386 23.386 0 0 0-1.422-2.661 1 1 0 0 0-.805-.471 1.033 1.033 0 0 0-.843.398l-3.594 4.78c.39-10.125 8.558-18.299 18.783-18.89M52.02 47.904c-1.067.062-3.06.175-5.473-.324-1.243-.257-4.54-.94-7.621-3.605-2.788-2.414-3.981-5.207-4.366-6.296-.81-2.295-.817-4.171-.821-5.073-.012-3.182.917-5.591 1.317-6.48a14.342 14.342 0 0 1 2.173-3.446c.746-.865 1.6-1.637 2.538-2.292.434-.304.556-.893.279-1.344l-4.107-6.672c9.198 1.768 16.165 9.757 16.165 19.327 0 4.776-1.757 9.383-4.947 12.972L48.651 46a21.508 21.508 0 0 0 5.453-14.301c0-11.226-8.689-20.489-19.782-21.589-.062-.027-.117-.067-.184-.081a.987.987 0 0 0-.489.031 21.946 21.946 0 0 0-1.545-.06c-12.131 0-22 9.734-22 21.699 0 .489-.063 1.801-.092 2.353-.003.045-.008.088-.005.133l-.007.127.028.001c.028.154.08.305.182.436.365.467.828 1.225 1.317 2.027.29.474.593.97.904 1.454 4 6.224 4.749 8.623 5.64 12.023a1 1 0 0 0 .968.747h3.928l-.003.008A21.48 21.48 0 0 0 32.05 53a21.79 21.79 0 0 0 5.391-.676l-.496-1.938A19.766 19.766 0 0 1 32.05 51c-2.528 0-4.974-.469-7.288-1.394-.261-4.574 1.654-11.503 2.555-13.79.27.88.585 1.745.945 2.588.616 1.442 1.544 3.621 3.463 5.802 2.078 2.361 4.264 3.528 5.571 4.225 1.275.68 4.261 2.274 8.409 2.567.447.031.894.046 1.336.046 3.143-.001 6.012-.739 6.609-1.358.206-.213.335-.562.303-.858-.112-1.027-1.118-.97-1.933-.924" fill="#FFF"/></g></svg>