<svg id="emoji" viewBox="0 0 72 72" xmlns="http://www.w3.org/2000/svg" width="64" height="64">
  <g id="color">
    <rect x="5" y="17" width="62" height="38" fill="#fff"/>
    <rect x="5" y="17" width="62" height="9" fill="#d22f27"/>
    <rect x="5" y="46" width="62" height="9" fill="#d22f27"/>
    <path fill="#92d3f5" stroke="#92d3f5" strokeLinejoin="round" strokeWidth="0.9333" d="M42,36a7,7,0,0,1-14,0"/>
    <path fill="#f4aa41" stroke="#f4aa41" strokeLinejoin="round" strokeWidth="0.9333" d="M28,36a7,7,0,0,1,14,0"/>
    <path fill="#d22f27" stroke="#d22f27" strokeLinejoin="round" d="M36.5417,31s-3.1667,0-3.1667,2.1111v3.1667l3.1667,1.5833V33.6389S34.4306,33.1111,36.5417,31Z"/>
    <path fill="none" stroke="#d22f27" strokeLinecap="round" strokeLinejoin="round" d="M33,39.5794s-1.0445.6963-1.7408,0l.05-4.8191"/>
    <path fill="none" stroke="#d22f27" strokeLinecap="round" strokeLinejoin="round" d="M37.2592,39.5794s1.0445.6963,1.7408,0L38.95,34.76"/>
  </g>
  <g id="line">
    <rect x="5" y="17" width="62" height="38" fill="none" stroke="#000" strokeLinecap="round" strokeLinejoin="round" strokeWidth="2"/>
  </g>
</svg>
