<svg id="emoji" viewBox="0 0 72 72" xmlns="http://www.w3.org/2000/svg" width="64" height="64">
  <g id="color">
    <rect x="5" y="17" width="62" height="38" fill="#1e50a0"/>
    <polygon fill="#f1b31c" stroke="#f1b31c" strokeLinecap="round" strokeLinejoin="round" points="15 17 5 17 36 36 36 36 15 17"/>
    <polygon fill="#f1b31c" stroke="#f1b31c" strokeLinecap="round" strokeLinejoin="round" points="57 17 67 17 36 36 36 36 57 17"/>
    <polygon fill="#f1b31c" stroke="#f1b31c" strokeLinecap="round" strokeLinejoin="round" points="67 39 67 33 36 36 36 36 67 39"/>
    <polygon fill="#f1b31c" stroke="#f1b31c" strokeLinecap="round" strokeLinejoin="round" points="5 39 5 33 36 36 36 36 5 39"/>
    <polygon fill="#f1b31c" stroke="#f1b31c" strokeLinecap="round" strokeLinejoin="round" points="33 17 39 17 36 36 36 36 33 17"/>
    <polygon fill="#d22f27" points="36 36 67 55 5 55 36 36"/>
  </g>
  <g id="line">
    <rect x="5" y="17" width="62" height="38" fill="none" stroke="#000" strokeLinecap="round" strokeLinejoin="round" strokeWidth="2"/>
  </g>
</svg>
