<svg id="emoji" viewBox="0 0 72 72" xmlns="http://www.w3.org/2000/svg" width="64" height="64">
  <g id="color">
    <rect x="11.5" y="39" width="49" height="16" fill="#FFFFFF" stroke="none" strokeLinecap="round" strokeLinejoin="round" strokeMiterlimit="10" strokeWidth="2"/>
    <polygon fill="#FFFFFF" stroke="none" strokeLinecap="round" strokeLinejoin="round" strokeMiterlimit="10" strokeWidth="2" points="36,25 11.5,39 60.5,39"/>
    <polygon fill="#EA5A47" stroke="none" strokeLinecap="round" strokeLinejoin="round" strokeMiterlimit="10" strokeWidth="2" points="36,25 20.5,39 51.5,39"/>
    <polygon fill="#FFFFFF" stroke="none" strokeLinecap="round" strokeLinejoin="round" strokeMiterlimit="10" strokeWidth="2" points="36,25 30.5,39 41.5,39"/>
    <rect x="21" y="39" width="30" height="16" fill="#EA5A47" stroke="none" strokeLinecap="round" strokeLinejoin="round" strokeMiterlimit="10" strokeWidth="2"/>
    <rect x="30.5" y="39" width="11" height="16" fill="#FFFFFF" stroke="none" strokeLinecap="round" strokeLinejoin="round" strokeMiterlimit="10" strokeWidth="2"/>
    <rect x="36" y="44" width="0" height="11" fill="#FFFFFF" stroke="none" strokeLinecap="round" strokeLinejoin="round" strokeMiterlimit="10" strokeWidth="2"/>
    <polygon fill="#3F3F3F" stroke="none" strokeLinecap="round" strokeLinejoin="round" strokeMiterlimit="10" strokeWidth="2" points="36,44 33,55 39,55"/>
  </g>
  <g id="hair"/>
  <g id="skin"/>
  <g id="skin-shadow"/>
  <g id="line">
    <rect x="11.5" y="39" width="49" height="16" fill="none" stroke="#000000" strokeLinecap="round" strokeLinejoin="round" strokeMiterlimit="10" strokeWidth="2"/>
    <polygon fill="none" stroke="#000000" strokeLinecap="round" strokeLinejoin="round" strokeMiterlimit="10" strokeWidth="2" points="36,25 11.5,39 60.5,39"/>
    <polygon fill="none" stroke="#000000" strokeLinecap="round" strokeLinejoin="round" strokeMiterlimit="10" strokeWidth="2" points="36,25 20.5,39 51.5,39"/>
    <polygon fill="none" stroke="#000000" strokeLinecap="round" strokeLinejoin="round" strokeMiterlimit="10" strokeWidth="2" points="36,25 30.5,39 41.5,39"/>
    <rect x="21" y="39" width="30" height="16" fill="none" stroke="#000000" strokeLinecap="round" strokeLinejoin="round" strokeMiterlimit="10" strokeWidth="2"/>
    <rect x="30.5" y="39" width="11" height="16" fill="none" stroke="#000000" strokeLinecap="round" strokeLinejoin="round" strokeMiterlimit="10" strokeWidth="2"/>
    <rect x="36" y="44" width="0" height="11" fill="none" stroke="#000000" strokeLinecap="round" strokeLinejoin="round" strokeMiterlimit="10" strokeWidth="2"/>
    <polygon fill="none" stroke="#000000" strokeLinecap="round" strokeLinejoin="round" strokeMiterlimit="10" strokeWidth="2" points="36,44 33,55 39,55"/>
  </g>
</svg>
