<svg width="64" height="64" xmlns="http://www.w3.org/2000/svg"><defs><linearGradient x1="0%" y1="100%" x2="100%" y2="0%" id="a"><stop stop-color="#1B660F" offset="0%"/><stop stop-color="#6CAE3E" offset="100%"/></linearGradient></defs><g fill="none" fill-rule="evenodd"><path d="M0 0h64v64H0z" fill="url(#a)"/><path d="M22.526 29.355c.966 0 1.752.786 1.752 1.751 0 .966-.786 1.752-1.752 1.752a1.754 1.754 0 0 1-1.752-1.752c0-.965.786-1.751 1.752-1.751Zm6.109-6.187A3.75 3.75 0 0 0 31 25.138v14.264a8.08 8.08 0 0 1-1.962-.481V31a1 1 0 0 0-1-1h-1.946a3.747 3.747 0 0 0-1.945-2.262 8.471 8.471 0 0 1 4.488-4.57ZM32 19.787c.965 0 1.752.786 1.752 1.752 0 .965-.787 1.752-1.752 1.752a1.755 1.755 0 0 1-1.752-1.752c0-.966.786-1.752 1.752-1.752Zm7.853 7.951A3.749 3.749 0 0 0 37.907 30h-1.945a1 1 0 0 0-1 1v7.922a8.058 8.058 0 0 1-1.962.481V25.138a3.747 3.747 0 0 0 2.365-1.972 8.462 8.462 0 0 1 4.488 4.572Zm3.372 3.368c0 .966-.786 1.752-1.752 1.752a1.754 1.754 0 0 1-1.752-1.752c0-.965.786-1.751 1.752-1.751s1.752.786 1.752 1.751Zm-6.263 6.74V32h.878a3.75 3.75 0 0 0 1.925 2.428 8.577 8.577 0 0 1-2.803 3.418Zm-11.485-1.438c-.032-.037-.064-.073-.125-.155a8.466 8.466 0 0 1-1.112-1.829A3.745 3.745 0 0 0 26.159 32h.879v5.862a8.394 8.394 0 0 1-1.561-1.454ZM22.24 34.83c.381.959.89 1.851 1.519 2.63.058.082.125.163.194.244a10.373 10.373 0 0 0 3.085 2.505V45h2v-3.957c.634.189 1.29.316 1.962.379V45h2v-3.578c.673-.063 1.33-.189 1.962-.379V45h2v-4.789a10.61 10.61 0 0 0 4.79-5.381c1.936-.145 3.473-1.75 3.473-3.724 0-1.938-1.483-3.519-3.371-3.712a10.444 10.444 0 0 0-6.14-6.227c-.19-1.893-1.773-3.38-3.714-3.38-1.942 0-3.526 1.488-3.715 3.381a10.454 10.454 0 0 0-6.139 6.226c-1.889.193-3.372 1.774-3.372 3.712 0 1.971 1.532 3.574 3.466 3.724ZM15 48h34V16H15v32Zm39-30v-2h-3v-1a1 1 0 0 0-1-1H14a1 1 0 0 0-1 1v1h-3v2h3v3h-3v2h3v3h-3v2h3v3h-3v2h3v3h-3v2h3v3h-3v2h3v3h-3v2h3v1a1 1 0 0 0 1 1h36a1 1 0 0 0 1-1v-1h3v-2h-3v-3h3v-2h-3v-3h3v-2h-3v-3h3v-2h-3v-3h3v-2h-3v-3h3v-2h-3v-3h3Z" fill="#FFF"/></g></svg>