<svg width="64" height="64" xmlns="http://www.w3.org/2000/svg"><defs><linearGradient x1="0%" y1="100%" x2="100%" y2="0%" id="a"><stop stop-color="#1B660F" offset="0%"/><stop stop-color="#6CAE3E" offset="100%"/></linearGradient></defs><g fill="none" fill-rule="evenodd"><path d="M0 0h64v64H0z" fill="url(#a)"/><path d="M44.96 32.993v-2h-2v-2h3a1 1 0 0 1 1 1v3h-2Zm0 11h2v3a1 1 0 0 1-1 1h-3v-2h2v-2Zm-16-15h3v2h-2v2h-2v-3a1 1 0 0 1 1-1Zm6 2h5v-2h-5v2Zm-15 6h15v15h-15v-15ZM54 31.13c0-5.142-3.421-7.809-6.875-8.683-.379-2.979-1.947-5.118-4.277-5.784-1.592-.453-3.252-.099-4.557.905-.675-1.49-1.541-2.784-2.584-3.863-3.579-3.698-8.478-4.7-13.106-2.68-3.939 1.718-6.909 6.453-6.909 11.014 0 .217.006.434.017.65-2.183.78-5.709 2.89-5.709 8.374 0 .356.017.7.046 1.03.367 4.026 3.82 7.356 7.914 7.835v13.065a1 1 0 0 0 1 1h17a1 1 0 0 0 1-1v-5h3v-2h-3v-10a1 1 0 0 0-1-1h-17a1 1 0 0 0-1 1v1.917c-3.083-.46-5.646-2.973-5.922-6a9.232 9.232 0 0 1-.038-.847c0-4.61 3.069-6.157 4.954-6.672l.035-.007c.5-.112.835-.583.776-1.093a10.728 10.728 0 0 1-.073-1.252c0-3.752 2.508-7.785 5.709-9.182 5.523-2.41 9.441.762 10.869 2.24 1.169 1.208 2.083 2.755 2.714 4.597a1.001 1.001 0 0 0 1.759.258c.874-1.218 2.235-1.743 3.556-1.366 1.629.466 2.704 2.165 2.888 4.556a1 1 0 0 0 .817 1.11C47.807 24.57 52 25.88 52 31.13c0 4.72-3.338 6.213-5.04 6.67v-1.807h-2v3l-.001 1h.001v1h2v-1.137C49.8 39.283 54 36.968 54 31.13Z" fill="#FFF"/></g></svg>