<svg width="64" height="64" xmlns="http://www.w3.org/2000/svg"><defs><linearGradient x1="0%" y1="100%" x2="100%" y2="0%" id="a"><stop stop-color="#1B660F" offset="0%"/><stop stop-color="#6CAE3E" offset="100%"/></linearGradient></defs><g fill="none" fill-rule="evenodd"><path d="M0 0h64v64H0z" fill="url(#a)"/><path d="m50 42.396-17.987 9.467L15 42.411V21.59l17.013-9.452L50 21.604v20.792Zm1.466-22.28-19-10a.997.997 0 0 0-.951.01l-18 10A1 1 0 0 0 13 21v22a1 1 0 0 0 .515.873l18 10a.994.994 0 0 0 .951.01l19-10A1 1 0 0 0 52 43V21a1 1 0 0 0-.534-.884ZM32.504 19c3.428 0 6.438 2.585 7.267 5.93a9.652 9.652 0 0 0-4.328-.31 3.493 3.493 0 0 0-2.943-1.62c-1.22 0-2.293.629-2.92 1.579a9.68 9.68 0 0 0-4.37.434c.803-3.39 3.837-6.013 7.294-6.013Zm12.06 15.114C44.564 38.39 41.101 42 37 42c-.744 0-1.566-.207-2.473-.592 1.371-1.23 2.61-2.985 3.254-4.659A3.5 3.5 0 0 0 40 33.5c0-.27-.037-.53-.096-.783a9.383 9.383 0 0 0 1.963-4.397c1.683 1.436 2.697 3.548 2.697 5.795Zm-23.564 0c0-2.255.778-4.2 2.166-5.567a9.42 9.42 0 0 0 1.932 4.161A3.496 3.496 0 0 0 25 33.5c0 1.48.926 2.74 2.226 3.251.639 1.584 1.994 3.377 3.473 4.652-.863.342-1.827.597-2.699.597-3.99 0-7-3.39-7-7.885ZM32.5 28a1.501 1.501 0 1 1 1.5-1.5c0 .827-.673 1.5-1.5 1.5Zm4 7a1.501 1.501 0 1 1 1.5-1.5c0 .827-.673 1.5-1.5 1.5Zm-8-3a1.501 1.501 0 0 1 0 3 1.501 1.501 0 0 1 0-3Zm2.338-2.44c.496.272 1.058.44 1.662.44.678 0 1.307-.203 1.844-.539.224.292.435.594.615.912A3.493 3.493 0 0 0 33 33.5c0 .312.055.608.131.896a7.66 7.66 0 0 1-1.258-.015c.075-.283.127-.575.127-.88a3.487 3.487 0 0 0-1.754-3.016 7.63 7.63 0 0 1 .592-.925Zm1.789 10.821c-1.182-.842-2.406-2.236-3.145-3.539a3.46 3.46 0 0 0 1.202-.63c.63.136 1.283.213 1.95.213.593 0 1.169-.069 1.727-.175.35.272.748.476 1.185.601-.703 1.357-1.819 2.721-2.919 3.53Zm7.356-13.25a7.419 7.419 0 0 1-1.2 3.737 3.468 3.468 0 0 0-1.757-.815 9.65 9.65 0 0 0-1.346-2.11c.194-.426.306-.894.314-1.387a7.632 7.632 0 0 1 3.989.575Zm-10.979-.597a3.44 3.44 0 0 0 .421 1.6 9.639 9.639 0 0 0-1.176 1.891 3.46 3.46 0 0 0-2.026.84 7.444 7.444 0 0 1-1.202-3.617 7.628 7.628 0 0 1 3.983-.714Zm-5.969-.432C20.506 27.799 19 30.74 19 34.115 19 39.658 22.953 44 28 44c1.868 0 3.695-.8 4.641-1.288C34.235 43.562 35.672 44 37 44c5.185 0 9.564-4.527 9.564-9.885 0-3.343-1.765-6.455-4.61-8.198C41.52 20.94 37.42 17 32.504 17c-4.976 0-9.113 4.03-9.469 9.1Z" fill="#FFF"/></g></svg>