<svg width="64" height="64" xmlns="http://www.w3.org/2000/svg"><defs><linearGradient x1="0%" y1="100%" x2="100%" y2="0%" id="a"><stop stop-color="#1B660F" offset="0%"/><stop stop-color="#6CAE3E" offset="100%"/></linearGradient></defs><g fill="none" fill-rule="evenodd"><path d="M0 0h64v64H0z" fill="url(#a)"/><path d="M13 27.367h2v-5h-2v5Zm7 0h2v-5h-2v5Zm0-10h2v-5h-2v5Zm10 4h2v-5h-2v5Zm-14 8a1 1 0 0 0 1-1v-2h1v2a1 1 0 0 0 1 1h4a1 1 0 0 0 1-1v-2h2a1 1 0 0 0 1-1v-5h1v2a1 1 0 0 0 1 1h4a1 1 0 0 0 1-1v-7a1 1 0 0 0-1-1h-4a1 1 0 0 0-1 1v3h-1v-3a1 1 0 0 0-1-1h-2v-3a1 1 0 0 0-1-1h-4a1 1 0 0 0-1 1v7a1 1 0 0 0 1 1h4a1 1 0 0 0 1-1v-2h1v8h-1v-3a1 1 0 0 0-1-1h-4a1 1 0 0 0-1 1v3h-1v-3a1 1 0 0 0-1-1h-4a1 1 0 0 0-1 1v7a1 1 0 0 0 1 1h4Zm10.389-16.815-.501-1.937a19.364 19.364 0 0 1 5.641-.599 19.426 19.426 0 0 1 16.438 10.46l-1.775.92a17.428 17.428 0 0 0-14.743-9.382 17.426 17.426 0 0 0-5.06.538Zm18.22 27.314 1.594 1.208a19.514 19.514 0 0 1-7.315 5.893l-.842-1.814a17.51 17.51 0 0 0 6.563-5.287Zm-29.25-2.424-1.77.931a19.186 19.186 0 0 1-2.1-6.899l1.988-.214a17.17 17.17 0 0 0 1.882 6.182Zm10.694 7.834a2.938 2.938 0 0 1-2.933-2.934 2.937 2.937 0 0 1 2.933-2.934 2.938 2.938 0 0 1 2.935 2.934 2.939 2.939 0 0 1-2.935 2.934Zm0-7.868a4.94 4.94 0 0 0-4.933 4.934 4.94 4.94 0 0 0 4.933 4.934 4.94 4.94 0 0 0 4.935-4.934 4.94 4.94 0 0 0-4.935-4.934Zm8.835 5.83-.575-.033a1.015 1.015 0 0 0-1.032.778 7.357 7.357 0 0 1-.956 2.31 1 1 0 0 0 .179 1.28l.43.383-1.267 1.267-.38-.427a1.001 1.001 0 0 0-1.281-.179 7.35 7.35 0 0 1-2.311.957 1 1 0 0 0-.778 1.033l.033.57h-1.792l.032-.57a1 1 0 0 0-.777-1.034 7.317 7.317 0 0 1-2.311-.958.997.997 0 0 0-1.28.18l-.382.428-1.267-1.267.428-.382c.364-.325.44-.866.18-1.28a7.32 7.32 0 0 1-.956-2.31c-.108-.478-.588-.81-1.033-.779l-.573.033v-1.792l.576.033c.465.015.924-.3 1.033-.777a7.309 7.309 0 0 1 .958-2.307c.26-.414.184-.955-.18-1.28l-.433-.387 1.267-1.267.386.433a1 1 0 0 0 1.279.18 7.349 7.349 0 0 1 2.307-.955.999.999 0 0 0 .778-1.032l-.032-.58h1.792l-.033.581a1 1 0 0 0 .778 1.032 7.338 7.338 0 0 1 2.305.955c.411.26.954.185 1.28-.18l.386-.434 1.268 1.267-.432.385a1 1 0 0 0-.179 1.28c.449.711.771 1.488.957 2.308.108.478.57.793 1.032.778l.576-.033v1.792Zm.944-3.849-.828.047a9.126 9.126 0 0 0-.567-1.368l.619-.55a1 1 0 0 0 .041-1.454l-2.764-2.765a1.002 1.002 0 0 0-1.454.041l-.554.621a9.249 9.249 0 0 0-1.366-.566l.047-.83a.998.998 0 0 0-.998-1.058h-3.909a1 1 0 0 0-.998 1.057l.047.83a9.329 9.329 0 0 0-1.367.566l-.554-.62a1.002 1.002 0 0 0-1.453-.04l-2.764 2.763a1 1 0 0 0 .041 1.453l.62.553a9.425 9.425 0 0 0-.568 1.367l-.827-.047a1.001 1.001 0 0 0-1.057.998v3.91a1.001 1.001 0 0 0 1.058.998l.822-.047c.152.472.342.93.567 1.372l-.615.548a1.002 1.002 0 0 0-.041 1.454l2.764 2.764a.967.967 0 0 0 .735.292.997.997 0 0 0 .718-.334l.549-.615c.442.226.9.416 1.372.57l-.047.821a.993.993 0 0 0 .272.743c.188.2.451.314.726.314h3.909a1 1 0 0 0 .998-1.057l-.047-.82a9.461 9.461 0 0 0 1.374-.569l.546.613a.998.998 0 0 0 .718.334c.256.022.542-.097.736-.292l2.764-2.764a1.004 1.004 0 0 0-.041-1.454l-.617-.55c.226-.44.415-.899.567-1.37l.826.047a1 1 0 0 0 1.056-.998v-3.91a1 1 0 0 0-1.056-.998Zm10.371-7.395a1.35 1.35 0 0 1-1.031.158 1.364 1.364 0 0 1 .323-2.684c.461 0 .911.234 1.167.656.388.642.182 1.48-.459 1.87Zm2.17-2.907a3.368 3.368 0 0 0-4.619-1.132 3.366 3.366 0 0 0-1.132 4.617 3.338 3.338 0 0 0 2.074 1.522 3.338 3.338 0 0 0 2.544-.39 3.366 3.366 0 0 0 1.133-4.617Zm2.234 4.327-1.584-.23a1.013 1.013 0 0 0-.768.21l-.858.684a.999.999 0 0 0-.374.718l-.102 1.606-2.289.122-.276-1.604a1.002 1.002 0 0 0-.44-.67l-.897-.582a1.003 1.003 0 0 0-.794-.129l-1.574.404-.823-2.14 1.425-.75a.997.997 0 0 0 .502-.634l.277-1.063a1.003 1.003 0 0 0-.124-.788l-.857-1.349 1.782-1.445 1.159 1.13c.198.192.475.295.745.281l1.077-.05c.281-.015.544-.146.723-.363l1.033-1.25 1.925 1.246-.718 1.457a1 1 0 0 0-.035.805l.392 1.008a.999.999 0 0 0 .564.567l1.501.594-.592 2.215Zm2.156-3.747-1.924-.76-.074-.192.916-1.86a.999.999 0 0 0-.352-1.28l-3.418-2.216a1 1 0 0 0-1.315.202l-1.319 1.596-.201.01-1.486-1.446a.998.998 0 0 0-1.327-.06L39.1 26.227a1 1 0 0 0-.214 1.313l1.101 1.733-.056.216-1.822.958c-.448.236-.65.771-.468 1.244l1.463 3.802c.182.473.69.733 1.183.61l2.01-.518.162.105.353 2.05a1 1 0 0 0 .984.83h.055l4.066-.218a1 1 0 0 0 .945-.936l.129-2.052.174-.138 2.035.295a1 1 0 0 0 1.109-.73l1.052-3.936a.998.998 0 0 0-.598-1.188Z" fill="#FFF"/></g></svg>