<svg width="64" height="64" xmlns="http://www.w3.org/2000/svg"><defs><linearGradient x1="0%" y1="100%" x2="100%" y2="0%" id="a"><stop stop-color="#1B660F" offset="0%"/><stop stop-color="#6CAE3E" offset="100%"/></linearGradient></defs><g fill="none" fill-rule="evenodd"><path d="M0 0h64v64H0z" fill="url(#a)"/><path d="M49 12c1.654 0 3 1.346 3 3s-1.346 3-3 3-3-1.346-3-3 1.346-3 3-3Zm0 8c2.757 0 5-2.243 5-5s-2.243-5-5-5a5.01 5.01 0 0 0-4.899 4H35v2h9.101A5.01 5.01 0 0 0 49 20Zm-7.707 21.293c2.455-2.456 3.808-5.756 3.808-9.293 0-3.537-1.353-6.837-3.808-9.293l1.414-1.414c2.833 2.833 4.394 6.636 4.394 10.707 0 4.071-1.561 7.874-4.394 10.707l-1.414-1.414ZM22.707 22.707c-2.455 2.456-3.808 5.756-3.808 9.293 0 3.537 1.353 6.837 3.808 9.293l-1.414 1.414C18.46 39.874 16.899 36.071 16.899 32c0-4.071 1.561-7.874 4.394-10.707l1.414 1.414ZM15 52c-1.654 0-3-1.346-3-3s1.346-3 3-3 3 1.346 3 3-1.346 3-3 3Zm0-8c-2.757 0-5 2.243-5 5s2.243 5 5 5a5.01 5.01 0 0 0 4.899-4H29v-2h-9.101A5.01 5.01 0 0 0 15 44Zm34 8c-1.654 0-3-1.346-3-3s1.346-3 3-3 3 1.346 3 3-1.346 3-3 3ZM25 32c0-3.86 3.141-7 7-7s7 3.14 7 7-3.141 7-7 7-7-3.14-7-7ZM15 18c-1.654 0-3-1.346-3-3s1.346-3 3-3 3 1.346 3 3-1.346 3-3 3Zm34 26a5.01 5.01 0 0 0-4.899 4H33v-7.059c4.493-.499 8-4.317 8-8.941 0-4.624-3.507-8.442-8-8.941V15a1 1 0 0 0-1-1H19.899A5.01 5.01 0 0 0 15 10c-2.757 0-5 2.243-5 5s2.243 5 5 5a5.01 5.01 0 0 0 4.899-4H31v7.059c-4.493.499-8 4.317-8 8.941 0 4.624 3.507 8.442 8 8.941V49a1 1 0 0 0 1 1h12.101A5.01 5.01 0 0 0 49 54c2.757 0 5-2.243 5-5s-2.243-5-5-5Z" fill="#FFF"/></g></svg>