<svg width="64" height="64" xmlns="http://www.w3.org/2000/svg"><defs><linearGradient x1="0%" y1="100%" x2="100%" y2="0%" id="a"><stop stop-color="#1B660F" offset="0%"/><stop stop-color="#6CAE3E" offset="100%"/></linearGradient></defs><g fill="none" fill-rule="evenodd"><path d="M0 0h64v64H0z" fill="url(#a)"/><path d="M32 23.99c1.654 0 3-1.345 3-2.996a3.002 3.002 0 0 0-3-2.996c-1.654 0-3 1.344-3 2.996a3.002 3.002 0 0 0 3 2.995Zm-11 8.987a3.002 3.002 0 0 0-3-2.996c-1.654 0-3 1.344-3 2.996a3.002 3.002 0 0 0 3 2.995c1.654 0 3-1.344 3-2.995Zm22 0a3.002 3.002 0 0 0 3 2.995c1.654 0 3-1.344 3-2.995a3.002 3.002 0 0 0-3-2.996c-1.654 0-3 1.344-3 2.996Zm-6 .998v15.5l9.558-4.699A4.39 4.39 0 0 0 49 40.831v-1.863h2v1.863a6.376 6.376 0 0 1-3.554 5.733l-14.912 7.333a.989.989 0 0 1-.903-.01l-14.092-7.33A6.37 6.37 0 0 1 14 40.831v-1.863h2v1.863a4.39 4.39 0 0 0 2.448 3.947L27 49.227V33.975h-4.102A5.005 5.005 0 0 1 18 37.97c-2.757 0-5-2.24-5-4.993a5.002 5.002 0 0 1 5-4.993 5.005 5.005 0 0 1 4.898 3.994H28c.553 0 1 .447 1 .999v17.29l1.998 1.039.002-25.42a5.003 5.003 0 0 1-4-4.892A5.002 5.002 0 0 1 32 16c2.757 0 5 2.24 5 4.993a5.003 5.003 0 0 1-4 4.892l-.002 25.558L35 50.459V32.977a.999.999 0 0 1 1-.999h5.102A5.005 5.005 0 0 1 46 27.984c2.757 0 5 2.24 5 4.993a5.002 5.002 0 0 1-5 4.993 5.005 5.005 0 0 1-4.898-3.995H37Zm14-18.567v11.577h-2V16.391c-7.079-.166-14.362-1.54-16.936-3.722-2.679 2.162-10.081 3.532-16.064 3.718v10.598h-2V15.408c0-.548.442-.993.991-.998 8.972-.08 15.527-2.472 16.104-3.533a1.29 1.29 0 0 1 .019-.141c.057-.492.473-.736.987-.736.552 0 .992.393.992.945.355.876 6.111 3.384 16.915 3.465.549.004.992.45.992.998Z" fill="#FFF"/></g></svg>