<svg width="64" height="64" xmlns="http://www.w3.org/2000/svg"><defs><linearGradient x1="0%" y1="100%" x2="100%" y2="0%" id="a"><stop stop-color="#1B660F" offset="0%"/><stop stop-color="#6CAE3E" offset="100%"/></linearGradient></defs><g fill="none" fill-rule="evenodd"><path d="M0 0h64v64H0z" fill="url(#a)"/><path d="M21.97 18a2 2 0 0 1 1.994 2 2 2 0 0 1-1.995 2 2 2 0 0 1-1.994-2c0-1.327.671-2 1.994-2Zm0 6c.791 0 1.524-.239 2.145-.639l2.714 2.027c-.16.379-.31.764-.438 1.161l1.897.619c1.555-4.791 5.802-8.09 10.818-8.404l-.125-1.996a14.077 14.077 0 0 0-11.237 6.81l-2.274-1.7A3.953 3.953 0 0 0 25.958 20c0-2.206-1.789-4-3.989-4-2.423 0-3.988 1.57-3.988 4 0 2.206 1.789 4 3.988 4Zm30.04 6.183a12.226 12.226 0 0 0-.858-3.811L53 25.623c.568 1.41.904 2.902 1 4.435l-1.99.125Zm-.247 3.335 1.95.422a14.146 14.146 0 0 1-2.18 5.056l-1.644-1.134a12.144 12.144 0 0 0 1.874-4.344ZM42.911 33h10.97v-2H42.91v2Zm-27.922 1a2 2 0 0 1-1.995-2 2 2 0 0 1 1.995-2 2 2 0 0 1 1.994 2 2 2 0 0 1-1.994 2Zm17.848-1a7.331 7.331 0 0 0 1.743 3.571 7.299 7.299 0 0 0 5.495 2.464 7.336 7.336 0 0 0 6.858-4.717l-1.86-.72a5.34 5.34 0 0 1-5.307 3.428 5.325 5.325 0 0 1-3.699-1.787 5.36 5.36 0 0 1-1.356-3.887 5.348 5.348 0 0 1 1.783-3.709 5.362 5.362 0 0 1 8.771 2.67l1.933-.498a7.343 7.343 0 0 0-6.716-5.529 7.295 7.295 0 0 0-5.317 1.865A7.328 7.328 0 0 0 32.746 31h-13.91c-.446-1.72-1.994-3-3.847-3A3.998 3.998 0 0 0 11 32c0 2.206 1.789 4 3.989 4 1.853 0 3.401-1.28 3.846-3h14.002Zm7.615 6.807.124 1.996c-.22.013-.438.02-.657.02-4.737 0-8.974-3.206-10.221-7.833l1.924-.523c1.06 3.928 4.776 6.592 8.83 6.34Zm-1.08-19.197c5.217-.317 9.814 3.127 10.978 8.208l-1.943.448a8.57 8.57 0 0 0-8.91-6.66c-4.067.255-7.422 3.374-7.977 7.415l-1.975-.272c.683-4.981 4.817-8.825 9.828-9.139ZM21.97 47a2 2 0 0 1-1.994-2 2 2 0 0 1 1.994-2 2 2 0 0 1 1.995 2 2 2 0 0 1-1.995 2Zm18.653-3.877c-4.814.305-9.39-2.297-11.598-6.626l-1.776.911c.171.335.356.658.551.976l-3.745 3.221A3.951 3.951 0 0 0 21.969 41a3.998 3.998 0 0 0-3.988 4c0 2.206 1.789 4 3.988 4 2.2 0 3.99-1.794 3.99-4 0-.71-.201-1.367-.526-1.946l3.535-3.039a14.144 14.144 0 0 0 11.779 5.104 14.068 14.068 0 0 0 7.753-2.916l-1.216-1.585a12.09 12.09 0 0 1-6.662 2.505Z" fill="#FFF"/></g></svg>