<svg width="64" height="64" xmlns="http://www.w3.org/2000/svg"><defs><linearGradient x1="0%" y1="100%" x2="100%" y2="0%" id="a"><stop stop-color="#1B660F" offset="0%"/><stop stop-color="#6CAE3E" offset="100%"/></linearGradient></defs><g fill="none" fill-rule="evenodd"><path d="M0 0h64v64H0z" fill="url(#a)"/><path d="M32 47.468v-3.942a2.535 2.535 0 0 1 2.532-2.533h3.236A9.023 9.023 0 0 1 32 47.468m-4 .466v-4.408c0-2.5-2.033-4.533-4.532-4.533H20c0-.317.017-.629.049-.937h2.064c1.591 0 3.146-.77 4.266-2.114a3.57 3.57 0 0 1 2.752-1.29c1.066 0 2.069.47 2.754 1.291 1.119 1.342 2.673 2.112 4.264 2.113h1.802c.032.308.049.621.049.937h-3.468A4.537 4.537 0 0 0 30 43.526v4.408a8.935 8.935 0 0 1-1 .06c-.338 0-.671-.023-1-.06m-7.768-6.94h3.236A2.535 2.535 0 0 1 26 43.525v3.942a9.023 9.023 0 0 1-5.768-6.475m8.768-11c3.933 0 7.276 2.54 8.498 6.063h-1.349c-1.01 0-1.979-.496-2.729-1.394a5.571 5.571 0 0 0-4.289-2.01 5.568 5.568 0 0 0-4.288 2.01c-.75.898-1.719 1.393-2.73 1.393l-1.611.001c1.222-3.523 4.565-6.063 8.498-6.063m0-2c-6.065 0-11 4.935-11 11 0 6.066 4.935 11 11 11s11-4.934 11-11c0-6.065-4.935-11-11-11m16.922 10-1.973-.005C43.428 30.186 36.932 23.993 29 23.993c-7.295 0-13.382 5.236-14.72 12.145-1.234-1.243-2.071-2.996-2.242-4.85A9.641 9.641 0 0 1 12 30.44c0-2.127 1.516-5.114 4.361-5.193a.998.998 0 0 0 .968-.904l.08-.84c.007-.07.006-.14-.002-.212a10.664 10.664 0 0 1-.073-1.252c0-3.75 2.533-7.783 5.768-9.18 5.586-2.415 9.549.762 10.994 2.24 1.181 1.21 2.103 2.756 2.741 4.598.122.352.431.607.799.662.366.054.737-.1.956-.403.878-1.21 2.302-1.744 3.62-1.365 1.641.472 2.723 2.17 2.907 4.552a1 1 0 0 0 .819 1.108c1.823.32 6.062 1.63 6.062 6.88 0 6.242-5.915 6.843-6.078 6.862M29 51.993c-7.168 0-13-5.83-13-13 0-7.168 5.832-13 13-13s13 5.832 13 13c0 7.17-5.832 13-13 13m18.058-29.548c-.382-2.967-1.955-5.103-4.292-5.776-1.617-.465-3.301-.108-4.624.907-.683-1.494-1.559-2.793-2.617-3.874-3.607-3.694-8.548-4.696-13.216-2.679-3.977 1.718-6.975 6.453-6.975 11.016 0 .434.022.871.066 1.302-3.359.606-5.4 3.994-5.4 7.1 0 .355.016.698.046 1.03.267 2.89 1.767 5.507 3.977 7.058-.004.156-.023.308-.023.464 0 8.271 6.729 15 15 15 7.936 0 14.434-6.199 14.95-14.006l2.052.003C48.769 39.76 54 37.613 54 31.13c0-5.146-3.456-7.813-6.942-8.685" fill="#FFF"/></g></svg>