<svg width="64" height="64" xmlns="http://www.w3.org/2000/svg"><defs><linearGradient x1="0%" y1="100%" x2="100%" y2="0%" id="a"><stop stop-color="#1B660F" offset="0%"/><stop stop-color="#6CAE3E" offset="100%"/></linearGradient></defs><g fill="none" fill-rule="evenodd"><path d="M0 0h64v64H0z" fill="url(#a)"/><path d="M33 34.5a2 2 0 1 0-.001-4.001A2 2 0 0 0 33 34.5Zm6-2c0 1.93 1.57 3.5 3.5 3.5s3.5-1.57 3.5-3.5-1.57-3.5-3.5-3.5-3.5 1.57-3.5 3.5Zm-2 0c0-3.033 2.468-5.5 5.5-5.5s5.5 2.467 5.5 5.5-2.468 5.5-5.5 5.5a5.506 5.506 0 0 1-5.5-5.5Zm-24-.001c0 4.344 2.944 7.498 7 7.498.026 0 .052.001.077.003h23.846a.99.99 0 0 1 .077-.003c4.056 0 7-3.154 7-7.498s-2.944-7.496-7-7.496a.972.972 0 0 1-.077-.003H20.077a.99.99 0 0 1-.077.003c-4.056 0-7 3.152-7 7.496Zm-2 0c0-5.385 3.828-9.453 8.919-9.496.026-.002.054-.003.081-.003h24c.027 0 .055.001.081.003 5.091.043 8.919 4.111 8.919 9.496 0 5.386-3.828 9.455-8.919 9.498A1.076 1.076 0 0 1 44 42H20c-.027 0-.055-.001-.081-.003C14.828 41.954 11 37.885 11 32.499ZM14 14h7v-2h-8a1 1 0 0 0-1 1v8h2v-7Zm36 7h2v-8a1 1 0 0 0-1-1h-8v2h7v7ZM14 43h-2v8a1 1 0 0 0 1 1h8v-2h-7v-7Zm36 0h2v8a1 1 0 0 1-1 1h-8v-2h7v-7Z" fill="#FFF"/></g></svg>