<svg width="64" height="64" xmlns="http://www.w3.org/2000/svg"><defs><linearGradient x1="0%" y1="100%" x2="100%" y2="0%" id="a"><stop stop-color="#1B660F" offset="0%"/><stop stop-color="#6CAE3E" offset="100%"/></linearGradient></defs><g fill="none" fill-rule="evenodd"><path d="M0 0h64v64H0z" fill="url(#a)"/><path d="M48.5 49a2.503 2.503 0 0 1-2.5-2.5c0-1.378 1.121-2.5 2.5-2.5s2.5 1.122 2.5 2.5-1.121 2.5-2.5 2.5ZM22.76 38c-2.329-.002-4.248-1.688-4.369-3.84a5.152 5.152 0 0 1-.009-.308c0-2.799 2.034-3.718 3.247-4.017a1 1 0 0 0 .753-1.094 6.276 6.276 0 0 1-.047-.769c0-2.269 1.686-4.805 3.76-5.655.96-.393 1.847-.549 2.651-.549 2.283 0 3.895 1.262 4.598 1.944.774.751 1.381 1.715 1.801 2.864a1 1 0 0 0 1.734.263c.545-.714 1.426-1.016 2.24-.766.989.302 1.608 1.307 1.694 2.759.028.452.356.83.801.92 2.611.526 3.935 1.92 3.935 4.144C45.549 37.6 42.424 38 41.08 38H22.76ZM14 15.5c0-1.378 1.121-2.5 2.5-2.5s2.5 1.122 2.5 2.5-1.121 2.5-2.5 2.5a2.503 2.503 0 0 1-2.5-2.5Zm20 33c0 1.378-1.121 2.5-2.5 2.5a2.503 2.503 0 0 1-2.5-2.5c0-1.378 1.121-2.5 2.5-2.5s2.5 1.122 2.5 2.5ZM15.5 48a2.503 2.503 0 0 1-2.5-2.5c0-1.378 1.121-2.5 2.5-2.5s2.5 1.122 2.5 2.5-1.121 2.5-2.5 2.5Zm29-35c1.379 0 2.5 1.122 2.5 2.5S45.879 18 44.5 18a2.503 2.503 0 0 1-2.5-2.5c0-1.378 1.121-2.5 2.5-2.5Zm4 29a4.45 4.45 0 0 0-1.281.208l-2.222-3.268c1.472-.932 2.552-2.537 2.552-5.044 0-2.995-1.705-5.08-4.823-5.935-.248-1.473-.957-2.634-2-3.317l2.426-4.873c.429.136.875.229 1.348.229 2.481 0 4.5-2.019 4.5-4.5S46.981 11 44.5 11a4.505 4.505 0 0 0-4.5 4.5c0 1.287.551 2.442 1.42 3.263l-2.608 5.236a3.99 3.99 0 0 0-2.368.58 9.067 9.067 0 0 0-1.708-2.302c-2.567-2.491-6.079-3.169-9.399-1.81-.782.32-1.505.806-2.151 1.392l-2.991-3.802A4.468 4.468 0 0 0 21 15.5c0-2.481-2.019-4.5-4.5-4.5a4.505 4.505 0 0 0-4.5 4.5c0 2.481 2.019 4.5 4.5 4.5a4.44 4.44 0 0 0 2.205-.602l3.14 3.991c-.938 1.363-1.51 2.986-1.51 4.583l.002.168c-2.493.918-3.955 3.001-3.955 5.712 0 .144.005.285.013.421.118 2.104 1.365 3.905 3.164 4.9l-2.235 2.222A4.45 4.45 0 0 0 15.5 41a4.505 4.505 0 0 0-4.5 4.5c0 2.481 2.019 4.5 4.5 4.5s4.5-2.019 4.5-4.5a4.46 4.46 0 0 0-1.071-2.88l2.73-2.716c.358.06.725.096 1.1.096h9.062l-.985 4.067C28.671 44.391 27 46.246 27 48.5c0 2.481 2.019 4.5 4.5 4.5s4.5-2.019 4.5-4.5c0-2.007-1.328-3.69-3.146-4.269L33.879 40h7.201c.67 0 1.365-.086 2.041-.262l2.35 3.457A4.472 4.472 0 0 0 44 46.5c0 2.481 2.019 4.5 4.5 4.5s4.5-2.019 4.5-4.5-2.019-4.5-4.5-4.5Z" fill="#FFF"/></g></svg>