<svg width="64" height="64" xmlns="http://www.w3.org/2000/svg"><defs><linearGradient x1="0%" y1="100%" x2="100%" y2="0%" id="a"><stop stop-color="#1B660F" offset="0%"/><stop stop-color="#6CAE3E" offset="100%"/></linearGradient></defs><g fill="none" fill-rule="evenodd"><path d="M0 0h64v64H0z" fill="url(#a)"/><path d="M52 46h2v8h-8v-2h4.796l-5.549-6.341 1.506-1.318L52 50.338V46Zm-32.247-.341L14.204 52H19v2h-8v-8h2v4.338l5.247-5.997 1.506 1.318ZM54 10v8h-2v-4.338l-5.247 5.997-1.506-1.318L50.796 12H46v-2h8Zm-39.796 2 5.549 6.341-1.506 1.318L13 13.662V18h-2v-8h8v2h-4.796ZM32.5 24c-6.007 0-8.5-1.303-8.5-2 0-.773 2.308-2 8.5-2 5.863 0 8.5 1.169 8.5 2 0 .697-2.493 2-8.5 2Zm.086 19C26.664 43 24 41.831 24 41V24.622C26.406 25.82 30.387 26 32.5 26c2.113 0 6.094-.18 8.5-1.378V41c0 .831-2.61 2-8.414 2ZM32.5 18c-4.79 0-10.5.694-10.5 4v19c0 3.306 5.757 4 10.586 4C36.476 45 43 44.48 43 41V22c0-3.48-6.578-4-10.5-4Z" fill="#FFF"/></g></svg>