<svg width="64" height="64" xmlns="http://www.w3.org/2000/svg"><defs><linearGradient x1="0%" y1="100%" x2="100%" y2="0%" id="a"><stop stop-color="#1B660F" offset="0%"/><stop stop-color="#6CAE3E" offset="100%"/></linearGradient></defs><g fill="none" fill-rule="evenodd"><path d="M0 0h64v64H0z" fill="url(#a)"/><path d="M47.292 48.325a1 1 0 0 0 .708-.957v-8.523h-2v5.246l-3.17-4.712a1 1 0 0 0-1.83.558v7.908h2v-4.63l3.17 4.712a1.001 1.001 0 0 0 1.122.398ZM33.127 32.95l.774 1.093-2.866 4.186h-1.718l3.81-5.279Zm2.436-1.128 1.356 1.93a7.633 7.633 0 0 0-.592 1.715l-2.466-3.534.867-1.201 3.242-4.628h1.694l-4.101 5.718Zm-2.457-.915-3.408-4.803h1.788l2.523 3.601-.903 1.202ZM27.903 32.1c.469.576.704 1.298.704 2.166 0 1.266-.466 2.29-1.398 3.073-.932.782-2.159 1.173-3.681 1.173-1.579 0-2.987-.299-4.225-.896v-1.088c1.494.54 2.867.811 4.119.811 1.18 0 2.123-.278 2.827-.833.704-.554 1.056-1.308 1.056-2.261 0-.584-.192-1.081-.576-1.494-.384-.412-1.003-.782-1.856-1.11l-2.476-.96c-1.095-.426-1.898-.935-2.411-1.525-.512-.591-.768-1.32-.768-2.188 0-1.18.423-2.137 1.27-2.869.846-.733 1.959-1.099 3.339-1.099.626 0 1.284.074 1.974.224.69.149 1.34.359 1.952.629v1.088c-1.451-.512-2.738-.768-3.862-.768-1.095 0-1.935.239-2.518.715-.583.477-.874 1.156-.874 2.038 0 .498.088.9.266 1.205.178.306.47.584.875.833s.985.515 1.739.8l2.283.875c1.024.398 1.771.885 2.241 1.461ZM10 38.149h1.259v-6.87h5.953v-1.131h-5.953v-5.655H18.3v-1.131H10v14.787Zm40.266 6.203-.162-1.993c.3-.03 1.841-.27 1.841-2.01 0-1.48-1.163-1.9-1.856-2.02a1.005 1.005 0 0 1-.649-.41 1.006 1.006 0 0 1-.18-.625c-.06-.609-.311-1.033-.679-1.14-.279-.083-.572.032-.767.295a1.001 1.001 0 0 1-1.747-.262c-.216-.616-.527-1.129-.922-1.527-.477-.477-1.781-1.506-3.624-.724-1.033.437-1.874 1.756-1.874 2.939 0 .137.008.272.025.404.059.498-.26.963-.746 1.088-1.008.257-1.52.916-1.52 1.957 0 .092.003.18.012.265.092.983.99 1.754 2.044 1.755l-.002 2c-2.074-.002-3.847-1.57-4.034-3.568a5.065 5.065 0 0 1-.02-.452c0-1.669.824-2.975 2.244-3.623.076-1.924 1.379-3.882 3.092-4.607 2.055-.871 4.231-.438 5.819 1.155.316.317.595.677.835 1.076a2.619 2.619 0 0 1 1.747-.091c.812.237 1.706.964 2.017 2.307 1.451.48 2.785 1.669 2.785 3.808 0 2.93-2.407 3.899-3.679 4.003Z" fill="#FFF"/></g></svg>