<svg width="64" height="64" xmlns="http://www.w3.org/2000/svg"><defs><linearGradient x1="0%" y1="100%" x2="100%" y2="0%" id="a"><stop stop-color="#1B660F" offset="0%"/><stop stop-color="#6CAE3E" offset="100%"/></linearGradient></defs><g fill="none" fill-rule="evenodd"><path d="M0 0h64v64H0z" fill="url(#a)"/><path d="m51.5 32.68-.752-.656-4.682 4.681c-.076-.01-.152-.024-.232-.024-.956 0-1.734.778-1.734 1.735 0 .956.778 1.734 1.734 1.734s1.734-.778 1.734-1.734a1.72 1.72 0 0 0-.07-.462L51.5 32.68Zm-3.707.884.769-1.846a7.053 7.053 0 0 0-2.728-.55c-4.133 0-7.625 3.655-7.625 7.982h2c0-3.187 2.629-5.982 5.625-5.982.669 0 1.328.133 1.959.396Zm4.48 1.398-1.71 1.036c.586.968.896 2.057.896 3.152h2c0-1.46-.41-2.908-1.186-4.188Zm-21.957 4.267h1.719l2.865-4.185-.773-1.093-3.811 5.278Zm10.348-12.124H38.97l-3.241 4.627-.868 1.202 2.466 3.533c.127-.596.33-1.169.593-1.714l-1.358-1.93 4.102-5.718Zm-5.655 3.601-2.523-3.601h-1.788l3.407 4.803.904-1.202Zm-8.347.933-2.283-.875c-.754-.284-1.334-.551-1.739-.8-.406-.249-.697-.526-.874-.832-.179-.306-.268-.707-.268-1.205 0-.882.292-1.561.875-2.039.583-.476 1.423-.714 2.518-.714 1.124 0 2.412.256 3.862.768v-1.088c-.611-.27-1.263-.48-1.952-.63A9.367 9.367 0 0 0 24.827 24c-1.38 0-2.493.367-3.339 1.099-.846.733-1.269 1.689-1.269 2.87 0 .868.256 1.597.767 2.187.512.59 1.316 1.099 2.411 1.526l2.476.96c.854.328 1.472.697 1.856 1.109.384.413.576.911.576 1.494 0 .954-.352 1.707-1.056 2.262-.704.555-1.646.832-2.827.832-1.252 0-2.625-.27-4.118-.811v1.089c1.237.597 2.645.896 4.224.896 1.523 0 2.749-.392 3.681-1.174.932-.782 1.397-1.806 1.397-3.073 0-.867-.234-1.589-.704-2.165-.468-.576-1.215-1.064-2.24-1.462ZM11 24.363h8.3v1.131h-7.041v5.654h5.953v1.131h-5.953v6.871H11V24.363Z" fill="#FFF"/></g></svg>