<svg width="64" height="64" xmlns="http://www.w3.org/2000/svg"><defs><linearGradient x1="0%" y1="100%" x2="100%" y2="0%" id="a"><stop stop-color="#1B660F" offset="0%"/><stop stop-color="#6CAE3E" offset="100%"/></linearGradient></defs><g fill="none" fill-rule="evenodd"><path d="M0 0h64v64H0z" fill="url(#a)"/><path d="M9.854 23.429h9.458v1.336h-8.024v6.682h6.784v1.336h-6.783v8.119H9.854V23.429Zm20.399 10.325c.535.681.803 1.534.803 2.559 0 1.497-.532 2.707-1.593 3.631-1.062.925-2.46 1.387-4.195 1.387-1.799 0-3.402-.353-4.813-1.059v-1.286c1.702.639 3.266.958 4.693.958 1.345 0 2.419-.328 3.221-.983.802-.656 1.204-1.547 1.204-2.673 0-.689-.22-1.277-.657-1.765-.438-.487-1.142-.924-2.116-1.311l-2.82-1.135c-1.248-.504-2.164-1.105-2.747-1.802-.584-.698-.875-1.559-.875-2.585 0-1.395.482-2.525 1.447-3.391.963-.866 2.233-1.299 3.805-1.299.713 0 1.463.089 2.248.265.787.177 1.527.425 2.224.744v1.286c-1.652-.605-3.12-.908-4.4-.908-1.248 0-2.204.282-2.868.845-.666.563-.998 1.365-.998 2.408 0 .588.1 1.063.305 1.424.201.362.535.69.997.984.462.294 1.122.609 1.98.945l2.603 1.034c1.166.471 2.017 1.047 2.552 1.727Zm5.954 1.005.88 1.291-3.264 4.946h-1.959l4.343-6.237Zm2.774-1.334 1.872 2.762v3.032l-3.81-5.662.988-1.42 3.694-5.468h1.93l-4.674 6.756Zm-2.798-1.08-3.884-5.676h2.038l2.873 4.255-1.027 1.421ZM44.853 40h7.002v-1h-7.002v1Zm1-3h5v-3h-5v3Zm7 0v-4a1 1 0 0 0-1-1h-7a1 1 0 0 0-1 1v4a1 1 0 0 0-1 1v2c0 1.103.898 2 2 2h7c1.104 0 2-.897 2-2v-2a1 1 0 0 0-1-1Z" fill="#FFF"/></g></svg>