<svg width="64" height="64" xmlns="http://www.w3.org/2000/svg"><defs><linearGradient x1="0%" y1="100%" x2="100%" y2="0%" id="a"><stop stop-color="#1B660F" offset="0%"/><stop stop-color="#6CAE3E" offset="100%"/></linearGradient></defs><g fill="none" fill-rule="evenodd"><path d="M0 0h64v64H0z" fill="url(#a)"/><path d="m43.844 36.262-5.575 7.724h2.514l4.194-6.125-1.133-1.599Zm7.506 7.724H54l-6.591-9.375 6.002-8.368h-2.479l-4.744 6.772-1.269 1.759 6.431 9.212Zm-6.215-12.473-3.691-5.27h-2.618l4.988 7.029 1.321-1.759Zm-16.992 1.428c-1.604-.624-2.779-1.368-3.528-2.232-.75-.864-1.125-1.931-1.125-3.201 0-1.727.62-3.127 1.858-4.2 1.238-1.072 2.868-1.608 4.888-1.608.915 0 1.878.109 2.887.328a14.81 14.81 0 0 1 2.858.921v1.593c-2.123-.75-4.008-1.125-5.653-1.125-1.602 0-2.831.349-3.684 1.047-.854.697-1.28 1.691-1.28 2.982 0 .729.129 1.316.39 1.764.26.448.688.854 1.28 1.218.594.364 1.442.754 2.545 1.17l3.341 1.281c1.499.583 2.592 1.296 3.279 2.139.687.843 1.031 1.9 1.031 3.169 0 1.853-.682 3.352-2.045 4.497-1.364 1.145-3.159 1.717-5.387 1.717-2.31 0-4.372-.437-6.183-1.311v-1.593c2.186.791 4.195 1.187 6.027 1.187 1.727 0 3.107-.406 4.138-1.218 1.03-.812 1.544-1.915 1.544-3.31 0-.853-.28-1.582-.842-2.186-.562-.604-1.468-1.145-2.717-1.624l-3.622-1.405ZM10 43.87V22.231h12.147v1.655H11.842v8.274h8.713v1.656h-8.713V43.87H10Z" fill="#FFF"/></g></svg>