<svg width="64" height="64" xmlns="http://www.w3.org/2000/svg"><defs><linearGradient x1="0%" y1="100%" x2="100%" y2="0%" id="a"><stop stop-color="#1B660F" offset="0%"/><stop stop-color="#6CAE3E" offset="100%"/></linearGradient></defs><g fill="none" fill-rule="evenodd"><path d="M0 0h64v64H0z" fill="url(#a)"/><path d="M50.416 30.305c-.21-.861-4.563-2.818-10.955-2.818s-10.744 1.957-10.954 2.818l.008.058c.343.865 4.639 2.391 10.946 2.391 6.243 0 10.51-1.495 10.93-2.364l.006-.052.014.002.005-.035Zm-.379 2.71c-2.877 1.328-7.684 1.739-10.576 1.739-2.899 0-7.716-.413-10.59-1.746l1.03 7.648a6.07 6.07 0 0 1 3.088 2.604 2.849 2.849 0 0 1 1.97-.129c1.105.328 1.881 1.24 2.155 2.5.448.147.892.355 1.286.605 1.368.865 2.061 1.998 2.061 3.368 0 .925-.211 1.719-.608 2.387 1.842-.026 3.663-.22 5.162-.566a11.388 11.388 0 0 0 1.616-.486c.705-.279 1-.526 1.078-.626l.006-.057 1.07-7.951c-2.898-.921-6.568-2.579-8.545-3.508-.219.126-.47.203-.74.203-.827 0-1.5-.673-1.5-1.5s.673-1.5 1.5-1.5a1.5 1.5 0 0 1 1.361.879c1.569.74 5.28 2.445 8.196 3.411l.98-7.275ZM38.461 49.604c0-.476-.135-1.048-1.131-1.679a3.702 3.702 0 0 0-1.288-.508 1 1 0 0 1-.832-1.038c-.067-.703-.37-1.198-.819-1.33-.362-.106-.736.031-.98.358-.222.294-.59.439-.949.388a.997.997 0 0 1-.792-.651c-.245-.683-.597-1.255-1.045-1.697-.403-.398-1.324-1.133-2.629-1.133-.459 0-.965.091-1.513.319-1.178.491-2.137 1.965-2.137 3.286 0 .152.008.301.027.447a1 1 0 0 1-.749 1.094c-.804.202-1.762.751-1.762 2.221 0 1.197.661 1.853 1.216 2.194.134.082.29.125.453.125l12.591.013h.005c.391-.002 2.334-.134 2.334-2.409Zm-16.113-3.818c.058-2.084 1.486-4.215 3.366-4.999a5.96 5.96 0 0 1 2.126-.453l-1.297-9.625h.001l-.001-.004-.032-.246a.936.936 0 0 1-.009-.13c0-1.375 1.431-2.504 3.572-3.329H30V13c0-.551-.448-1-1-1H13c-.552 0-1 .449-1 1v35a1 1 0 0 0 1 1h6.909c.202-1.477 1.071-2.62 2.439-3.214ZM23.529 54a2.862 2.862 0 0 1-1.497-.421c-.631-.387-1.588-1.19-1.983-2.579H16v3h-2v-3h-1c-1.654 0-3-1.345-3-3V13c0-1.654 1.346-3 3-3h16c1.654 0 3 1.346 3 3v13.389c2.234-.582 4.887-.902 7.461-.902 6.232 0 12.96 1.852 12.96 4.842a.936.936 0 0 1-.009.13l-.032.246a.876.876 0 0 1-.024.124c-.002.009-.007.016-.009.024l-1.035 7.676c1.696.989 2.507 1.785 2.662 2.608.084.449-.033.888-.326 1.237-.34.406-.852.607-1.6.607-.374 0-.815-.056-1.315-.156l-1.029 7.644c-.041.949-.827 1.733-2.338 2.33-.55.218-1.19.411-1.902.574-1.748.405-3.88.627-6.003.627H23.529ZM16 27h11v-2H16v2Zm0 5h8v-2h-8v2Zm0-10h11v-2H16v2Z" fill="#FFF"/></g></svg>