<svg width="64" height="64" xmlns="http://www.w3.org/2000/svg"><defs><linearGradient x1="0%" y1="100%" x2="100%" y2="0%" id="a"><stop stop-color="#1B660F" offset="0%"/><stop stop-color="#6CAE3E" offset="100%"/></linearGradient></defs><g fill="none" fill-rule="evenodd"><path d="M0 0h64v64H0z" fill="url(#a)"/><path d="m50.943 45.87 1.687 1.687-1.406 1.406-2.18-2.18h-3.153l1.629 2.825 2.878.81-.538 1.913-2.257-.635L46.986 54l-1.922-.515.761-2.836-1.598-2.771-1.574 2.72.738 2.899-1.927.491-.578-2.272-2.306.618-.514-1.92 2.836-.76 1.66-2.87h-3.1l-2.243 2.188-1.388-1.424 1.677-1.636-1.686-1.687 1.406-1.406 1.976 1.976h3.241l-1.517-2.622-2.874-.809.538-1.913 2.258.635.617-2.305 1.92.515-.76 2.843 1.6 2.764 1.571-2.725-.737-2.893 1.927-.492.578 2.272 2.306-.617.514 1.92-2.84.76-1.538 2.667h3.188l2.037-1.985 1.388 1.423-1.678 1.637ZM30.76 11.988c10.344 0 17.634 3.203 17.771 4.983l-.026.195c-.023.082-.07.168-.12.253-.018.031-.027.059-.048.09-.06.085-.143.173-.23.26-.03.03-.05.059-.084.09-.097.09-.217.18-.34.27-.04.029-.073.057-.116.087a6.533 6.533 0 0 1-.463.283c-.045.025-.08.05-.126.075-.187.1-.396.202-.614.303-.039.017-.07.035-.108.051-.244.11-.51.218-.789.326l-.06.023c-3.062 1.156-8.2 2.118-14.643 2.118-8.373 0-14.549-1.628-16.823-3.19-.012-.007-.021-.016-.032-.024a3.896 3.896 0 0 1-.415-.328c-.026-.023-.04-.046-.065-.069a2.17 2.17 0 0 1-.244-.276c-.025-.036-.037-.07-.056-.106a1.054 1.054 0 0 1-.111-.232l-.027-.199c.138-1.78 7.427-4.983 17.769-4.983Zm20.172 22.293c-.292.055-1.026.083-2.681-.321l.218-1.625c1.716 1.044 2.287 1.673 2.463 1.946Zm-20.264-6.3c0-.05.041-.092.093-.092.053 0 .093.04.093.092 0 .104-.186.104-.186 0Zm.096 23.773c-8.412 0-13.52-2.155-13.52-3.103a.974.974 0 0 0-.009-.132l-3.808-28.31c.231.135.477.265.735.39.148.073.309.142.466.211a15.92 15.92 0 0 0 1.485.578c.487.167.995.325 1.532.471l.049.014c.257.07.523.134.79.2a31.885 31.885 0 0 0 1.243.278c.104.022.21.042.316.063.984.194 2.012.359 3.076.495.096.012.193.025.29.036.354.044.707.084 1.067.121l.107.011a61.752 61.752 0 0 0 3.778.26c.8.03 1.601.051 2.399.051.41 0 .822-.009 1.234-.017h.034c.37-.008.738-.02 1.107-.034a65.147 65.147 0 0 0 1.405-.067l.015-.001a58.565 58.565 0 0 0 2.212-.176c.11-.011.222-.02.333-.032a54.227 54.227 0 0 0 1.406-.165c.302-.04.602-.078.897-.122l.368-.06c.519-.08 1.028-.169 1.526-.264.19-.037.38-.073.566-.112a38.709 38.709 0 0 0 1.295-.294c.21-.053.423-.102.627-.158a27.53 27.53 0 0 0 1.037-.3c.165-.05.319-.106.48-.16.208-.07.415-.141.615-.215a13.82 13.82 0 0 0 1.048-.43c.126-.057.256-.113.377-.17.263-.129.514-.26.75-.397l-1.775 13.198c-4.633-1.454-10.825-4.288-13.486-5.541a2.078 2.078 0 0 0-2.07-1.97 2.084 2.084 0 0 0-2.082 2.08c0 1.148.934 2.082 2.082 2.082.454 0 .872-.15 1.214-.398 3.126 1.477 9.372 4.313 14.074 5.745l-.086.634 1.972.266.05-.369c1.014.239 1.849.36 2.528.36.985 0 1.648-.251 2.07-.754.348-.414.485-.936.385-1.468-.214-1.145-1.532-2.354-4.211-3.88l1.691-12.593c.005-.023.011-.045.014-.067l.051-.386a.97.97 0 0 0 .009-.131C50.522 12.884 40.107 10 30.76 10 21.414 10 11 12.884 11 17.022a.97.97 0 0 0 .009.13l.052.387c0 .007.002.014.003.02l4.192 31.169c.13 3.652 9.554 5.015 15.508 5.015 2.016 0 4.043-.129 6.026-.383l-.252-1.972c-1.9.243-3.843.366-5.774.366Z" fill="#FFF"/></g></svg>