<svg width="64" height="64" xmlns="http://www.w3.org/2000/svg"><defs><linearGradient x1="0%" y1="100%" x2="100%" y2="0%" id="a"><stop stop-color="#1B660F" offset="0%"/><stop stop-color="#6CAE3E" offset="100%"/></linearGradient></defs><g fill="none" fill-rule="evenodd"><path d="M0 0h64v64H0z" fill="url(#a)"/><path d="M0 0h64v64H0z" fill="url(#a)"/><path d="M45 32v11a1 1 0 0 1-1 1H20a1 1 0 0 1-1-1V32a1 1 0 0 1 1-1h6v2h-5v9h22v-9h-5v-2h6a1 1 0 0 1 1 1Zm5 15V29a2 2 0 0 0-2-2H16a2 2 0 0 0-2 2v18h-2V27a2 2 0 0 1 2-2H49.999a2 2 0 0 1 2 2L52 47h-2Zm-34-1h32V29H16v17Zm26.072-23h-20l1.5-2h17l1.5 2Zm-22.144-5.316A2 2 0 0 1 21.434 17h21.277c.576 0 1.125.249 1.505.683L48.868 23h-4.296l-2.7-3.6a.998.998 0 0 0-.8-.4h-18a1 1 0 0 0-.8.4l-2.7 3.6h-4.296l4.652-5.316Zm32.274 5.981-6.48-7.299A4.003 4.003 0 0 0 42.711 15H21.433a4 4 0 0 0-3.01 1.366l-6.104 6.975.029.025A3.995 3.995 0 0 0 10 27v20a2 2 0 0 0 2 2h3.072a1 1 0 0 0 1-1h32a1 1 0 0 0 1 1H52a2 2 0 0 0 2-2V27a3.99 3.99 0 0 0-1.798-3.335ZM30 35h4v-2h-4v2Zm-1 2h6a1 1 0 0 0 1-1v-4a1 1 0 0 0-1-1h-6a1 1 0 0 0-1 1v4a1 1 0 0 0 1 1Z" fill="#FFF"/></g></svg>