<svg width="64" height="64" xmlns="http://www.w3.org/2000/svg"><defs><linearGradient x1="0%" y1="100%" x2="100%" y2="0%" id="a"><stop stop-color="#1B660F" offset="0%"/><stop stop-color="#6CAE3E" offset="100%"/></linearGradient></defs><g fill="none" fill-rule="evenodd"><path d="M0 0h64v64H0z" fill="url(#a)"/><path d="M29 17h6v-2h-6v2Zm14 14v-6H22v9h12v2H21a1 1 0 0 1-1-1V24a1 1 0 0 1 1-1h23a1 1 0 0 1 1 1v7h-2Zm11-14.95v17.736h-2V16.05c0-1.681-1.271-3.05-2.832-3.05H14.832C13.271 13 12 14.369 12 16.05v24.901C12 42.632 13.271 44 14.832 44h17.147v2H14.832C12.168 46 10 43.735 10 40.951V16.05c0-2.784 2.168-5.05 4.832-5.05h34.336C51.832 11 54 13.266 54 16.05ZM16.845 40H32v2H16.845C15.276 42 14 40.709 14 39.121V17.88c0-1.588 1.276-2.88 2.845-2.88H25c.431 0 .813.276.948.684L26.721 18h10.558l.773-2.316A1 1 0 0 1 39 15h8.155C48.724 15 50 16.292 50 17.88v14.03h-2V17.88c0-.477-.387-.88-.845-.88h-7.434l-.773 2.317A.997.997 0 0 1 38 20H26a.998.998 0 0 1-.948-.683L24.279 17h-7.434c-.458 0-.845.403-.845.88v21.241c0 .477.387.879.845.879ZM43.5 45.055a2.557 2.557 0 0 1-2.554-2.555 2.557 2.557 0 0 1 2.554-2.554 2.557 2.557 0 0 1 2.554 2.554 2.557 2.557 0 0 1-2.554 2.555Zm0-7.109a4.56 4.56 0 0 0-4.554 4.554 4.56 4.56 0 0 0 4.554 4.555 4.56 4.56 0 0 0 4.554-4.555 4.56 4.56 0 0 0-4.554-4.554Zm7.886 5.262-.417-.024a.996.996 0 0 0-1.033.778 6.567 6.567 0 0 1-.852 2.057.998.998 0 0 0 .18 1.279l.311.279-1 1-.275-.309a.997.997 0 0 0-1.28-.18 6.525 6.525 0 0 1-2.058.852.999.999 0 0 0-.778 1.033l.023.413h-1.414l.023-.414a.999.999 0 0 0-.777-1.033 6.504 6.504 0 0 1-2.058-.853.997.997 0 0 0-1.28.18l-.277.31-1-.999.31-.277a1 1 0 0 0 .18-1.28 6.56 6.56 0 0 1-.851-2.058 1.015 1.015 0 0 0-1.033-.778l-.416.024v-1.415l.42.024c.451.02.924-.301 1.032-.778a6.54 6.54 0 0 1 .853-2.053 1 1 0 0 0-.18-1.28l-.315-.281 1.001-1.001.28.315a1 1 0 0 0 1.279.179 6.544 6.544 0 0 1 2.054-.849.998.998 0 0 0 .778-1.032l-.023-.422h1.414l-.023.423c-.029.487.3.924.777 1.032.728.164 1.419.45 2.054.85a1 1 0 0 0 1.279-.18l.282-.315 1 1-.313.28a.998.998 0 0 0-.18 1.279c.399.634.687 1.325.852 2.056.108.477.544.797 1.033.777l.418-.024v1.415Zm.942-3.472-.673.038a8.428 8.428 0 0 0-.461-1.112l.503-.45a1 1 0 0 0 .041-1.453l-2.497-2.497a1 1 0 0 0-1.453.041l-.451.506a8.523 8.523 0 0 0-1.111-.46l.038-.678a.998.998 0 0 0-.998-1.056h-3.532a.998.998 0 0 0-.998 1.056l.038.676c-.38.127-.753.281-1.112.461l-.45-.505a1.002 1.002 0 0 0-1.453-.041l-2.497 2.497a1 1 0 0 0 .041 1.453l.505.451a8.342 8.342 0 0 0-.462 1.111l-.675-.038a1.001 1.001 0 0 0-1.057.998v3.533a1.001 1.001 0 0 0 1.058.998l.67-.038c.127.382.281.754.462 1.115l-.501.447a1.002 1.002 0 0 0-.041 1.453l2.497 2.497c.194.195.485.302.735.293a1 1 0 0 0 .718-.334l.446-.5c.362.18.734.335 1.116.463l-.038.668a.997.997 0 0 0 .272.743c.188.2.451.314.726.314h3.532a.997.997 0 0 0 .726-.314.997.997 0 0 0 .272-.743l-.038-.667a8.618 8.618 0 0 0 1.117-.463l.445.499a1 1 0 0 0 1.453.041l2.497-2.497a.996.996 0 0 0-.041-1.453l-.502-.448c.18-.361.334-.733.462-1.114l.671.038a1.001 1.001 0 0 0 1.058-.998v-3.533a1.001 1.001 0 0 0-1.058-.998Z" fill="#FFF"/></g></svg>