<svg width="64" height="64" xmlns="http://www.w3.org/2000/svg"><defs><linearGradient x1="0%" y1="100%" x2="100%" y2="0%" id="a"><stop stop-color="#1B660F" offset="0%"/><stop stop-color="#6CAE3E" offset="100%"/></linearGradient></defs><g fill="none" fill-rule="evenodd"><path d="M0 0h64v64H0z" fill="url(#a)"/><path d="M54 31.5C54 43.355 44.083 53 31.894 53c-9.347 0-17.719-5.757-20.833-14.325l1.878-.683C15.768 45.772 23.385 51 31.894 51 42.98 51 52 42.252 52 31.5S42.98 12 31.894 12c-7.844 0-15.018 4.469-18.278 11.385l-1.808-.853C15.396 14.919 23.279 10 31.894 10 44.083 10 54 19.645 54 31.5ZM10 35h4v-2h-4v2Zm0-4h4v-2h-4v2Zm1-4h3v-2h-3v2Zm33 3c1.767 0 3 1.233 3 3v2.382A3.974 3.974 0 0 0 44 34c-1.475 0-2.75.81-3.443 2H40v-6h4Zm0 10c-1.103 0-2-.897-2-2s.897-2 2-2 2 .897 2 2-.897 2-2 2Zm-6-4h-5.557c-.693-1.19-1.968-2-3.443-2-1.516 0-2.822.857-3.5 2.104C24.822 34.857 23.516 34 22 34c-1.475 0-2.75.81-3.443 2H17V26h21v10Zm-9 4c-1.103 0-2-.897-2-2s.897-2 2-2 2 .897 2 2-.897 2-2 2Zm-7 0c-1.103 0-2-.897-2-2s.897-2 2-2 2 .897 2 2-.897 2-2 2Zm17-16H16a1 1 0 0 0-1 1v12a1 1 0 0 0 1 1h2c0 2.206 1.794 4 4 4 1.516 0 2.822-.857 3.5-2.104C26.178 41.143 27.484 42 29 42c2.206 0 4-1.794 4-4h7c0 2.206 1.794 4 4 4s4-1.794 4-4a1 1 0 0 0 1-1v-4c0-2.897-2.103-5-5-5h-4v-3a1 1 0 0 0-1-1Z" fill="#FFF"/></g></svg>