<svg width="64" height="64" xmlns="http://www.w3.org/2000/svg"><defs><linearGradient x1="0%" y1="100%" x2="100%" y2="0%" id="a"><stop stop-color="#BD0816" offset="0%"/><stop stop-color="#FF5252" offset="100%"/></linearGradient></defs><g fill="none" fill-rule="evenodd"><path d="M0 0h64v64H0z" fill="url(#a)"/><path d="M25.577 32.855h7.998v-2.013h-7.998v2.013Zm0-4.027h15.997v-2.014H25.577v2.014Zm0-4.028h13.998v-2.014H25.577V24.8Zm1 20.235v6.538l3.072-1.082C40.899 47.648 49 38.251 49 28.123c0-4.468-1.836-8.623-5.171-11.702-3.433-3.172-8.108-4.753-12.84-4.343-7.216.63-13.242 5.89-14.653 12.79-1.559 7.625 2.38 15.219 9.73 18.087.568.222.51 2.08.51 2.08Zm-1 8.965a.994.994 0 0 1-.58-.186 1.01 1.01 0 0 1-.42-.82v-8.056c0-.143.027-.273.064-.41-7.767-3.57-11.97-11.716-10.264-20.065 1.588-7.766 8.349-13.684 16.44-14.39 5.28-.464 10.518 1.311 14.364 4.864C48.879 18.35 51 23.157 51 28.123c0 11.04-8.739 21.256-20.778 24.295l-4.316 1.526a1.001 1.001 0 0 1-.33.056Zm6.765-37.603c-6.383.047-11.58 5.324-11.58 11.764 0 4.193 2.42 8.123 6.472 10.514.593.348 2.097 1.419 2.266 1.54 1.224.933 1.95 2.369 2.074 4.061v1.112c7.397-2.533 12.639-9.377 12.639-16.726a12.59 12.59 0 0 0-.451-3.346c-.026-.106-.045-.162-.063-.222a4.355 4.355 0 0 1-.033-.107c-1.295-4.703-5.403-8.136-10.225-8.542l-.106-.005c-.273-.014-.817-.043-.993-.043ZM30.576 47.75a1.01 1.01 0 0 1-1-1.008l.001-2.393c-.078-1.033-.526-1.951-1.259-2.511-.415-.295-1.654-1.168-2.092-1.425-4.674-2.758-7.464-7.337-7.464-12.253 0-7.541 6.089-13.723 13.572-13.778.2 0 .802.03 1.105.045l.133.007c5.688.48 10.504 4.503 12.022 10.014.048.152.08.26.105.373a14.44 14.44 0 0 1 .514 3.84c0 8.656-6.468 16.67-15.38 19.055a.975.975 0 0 1-.257.034Z" fill="#FFF"/></g></svg>