<svg width="64" height="64" xmlns="http://www.w3.org/2000/svg"><defs><linearGradient x1="0%" y1="100%" x2="100%" y2="0%" id="a"><stop stop-color="#BD0816" offset="0%"/><stop stop-color="#FF5252" offset="100%"/></linearGradient></defs><g fill="none" fill-rule="evenodd"><path d="M0 0h64v64H0z" fill="url(#a)"/><path d="m51 36.293-11-3.179v-3.588l11 3.2v3.567Zm-5.921 9.852-2.42 2.419-5.513-9.882 2.434-2.434 5.499 9.897Zm-9.881-8.343c-.06.06-.112.127-.154.198h-4.91a1 1 0 0 0-.771.363l-3.165-3.165a1.004 1.004 0 0 0-.198-.154v-4.91c0-.305-.139-.585-.363-.771l3.165-3.165c.06-.06.112-.127.154-.198h4.91a1 1 0 0 0 .771-.363l3.165 3.165c.06.06.127.112.198.154v4.91c0 .305.139.585.363.771l-3.165 3.165ZM31.273 51h-3.566l3.179-11h3.589l-3.202 11Zm-13.419-5.922-2.418-2.419 9.882-5.512 2.434 2.433-9.898 5.498ZM13 31.274v-3.567l11 3.179v3.588l-11-3.2Zm5.921-13.419 2.42-2.419 5.513 9.882-2.434 2.434-5.499-9.897ZM32.727 13h3.566l-3.179 11h-3.589l3.202-11Zm13.419 5.922 2.418 2.419-9.882 5.513-2.434-2.434 9.898-5.498Zm6.133 12.093-11.141-3.242 9.556-5.33a.999.999 0 0 0 .22-1.581l-3.888-3.888a.998.998 0 0 0-1.192-.167l-10.196 5.664 2.946-10.193A1.001 1.001 0 0 0 37.623 11h-5.647a.998.998 0 0 0-.96.721l-3.243 11.142-5.331-9.557a.997.997 0 0 0-1.58-.22l-3.888 3.888a1 1 0 0 0-.167 1.193l5.664 10.195-10.194-2.945a.998.998 0 0 0-1.277.96v5.648a1 1 0 0 0 .721.96l11.141 3.242-9.556 5.33a.999.999 0 0 0-.22 1.581l3.888 3.888a1 1 0 0 0 1.192.167l10.196-5.664-2.946 10.193A1.001 1.001 0 0 0 26.377 53h5.647a.998.998 0 0 0 .96-.721l3.243-11.142 5.331 9.557c.152.274.424.46.735.503.31.05.624-.061.845-.283l3.888-3.888a1 1 0 0 0 .167-1.193l-5.664-10.195 10.194 2.946A.998.998 0 0 0 53 37.623v-5.648a1 1 0 0 0-.721-.96Z" fill="#FFF"/></g></svg>