<svg width="64" height="64" xmlns="http://www.w3.org/2000/svg"><defs><linearGradient x1="0%" y1="100%" x2="100%" y2="0%" id="a"><stop stop-color="#BD0816" offset="0%"/><stop stop-color="#FF5252" offset="100%"/></linearGradient></defs><g fill="none" fill-rule="evenodd"><path d="M0 0h64v64H0z" fill="url(#a)"/><path d="m49 41.89-4 2.319V25.008l-12.982-8.114L19 24.488v12.194l-4-2.334V22.169l17-9.858 17 9.858V41.89ZM25.957 22.745l4.114 2.377L25 27.964v12.218l-4-2.334V25.637l4.957-2.892ZM43 31.05l-4 2.459v-5.536l-11.054-6.388 4.036-2.355L43 26.117v4.933Zm-10.985 9.101L43 33.397v4.261l-10.778 6.736L27 41.348v-4.104l5.015 2.907ZM27 29.136l5.086-2.849L37 29.127v5.612l-5.015 3.083L27 34.932v-5.796ZM15 41.89v-5.226l4 2.333v.039h.066l13.191 7.694L43 40.016v5.353l-11 6.378-17-9.857ZM32 10 13 21.016v22.026l19 11.016 19-11.016V21.016L32 10Z" fill="#FFF"/></g></svg>