<svg width="64" height="64" xmlns="http://www.w3.org/2000/svg"><defs><linearGradient x1="0%" y1="100%" x2="100%" y2="0%" id="a"><stop stop-color="#BD0816" offset="0%"/><stop stop-color="#FF5252" offset="100%"/></linearGradient></defs><g fill="none" fill-rule="evenodd"><path d="M0 0h64v64H0z" fill="url(#a)"/><path d="m31.293 31.293 4.179-4.179A5.963 5.963 0 0 0 32.003 26a6.003 6.003 0 0 0-5.996 5.997 6.003 6.003 0 0 0 5.996 5.997A6.004 6.004 0 0 0 38 31.997a5.954 5.954 0 0 0-1.114-3.469l-4.179 4.179-1.414-1.414Zm10.569-7.741-3.549 3.55A7.947 7.947 0 0 1 40 31.997c0 4.409-3.588 7.997-7.997 7.997s-7.996-3.588-7.996-7.997c0-4.41 3.587-7.997 7.996-7.997 1.845 0 3.541.634 4.895 1.688l3.55-3.55A12.926 12.926 0 0 0 32.003 19c-7.166 0-12.996 5.83-12.996 12.997 0 7.166 5.83 12.997 12.996 12.997C39.17 44.994 45 39.163 45 31.997c0-3.225-1.186-6.171-3.138-8.445Zm2.165-6.538A2.99 2.99 0 0 0 47.014 20 2.99 2.99 0 0 0 50 17.014a2.99 2.99 0 0 0-2.986-2.987 2.99 2.99 0 0 0-2.987 2.987Zm-2.166 3.71.987-.985a4.943 4.943 0 0 1-.821-2.725 4.993 4.993 0 0 1 4.987-4.987A4.992 4.992 0 0 1 52 17.014 4.992 4.992 0 0 1 47.014 22a4.96 4.96 0 0 1-2.761-.839l-.978.977C45.587 24.777 47 28.221 47 31.997c0 8.269-6.728 14.997-14.997 14.997s-14.996-6.728-14.996-14.997S23.734 17 32.003 17c3.775 0 7.22 1.413 9.858 3.724ZM54 32c0 12.131-9.869 22-22 22s-22-9.869-22-22 9.869-22 22-22c3.081 0 6.064.627 8.863 1.863l-.808 1.83A19.802 19.802 0 0 0 32 12c-11.028 0-20 8.972-20 20s8.972 20 20 20 20-8.972 20-20c0-2.809-.565-5.505-1.682-8.013l1.829-.813A21.592 21.592 0 0 1 54 32Z" fill="#FFF"/></g></svg>