<svg width="64" height="64" xmlns="http://www.w3.org/2000/svg"><defs><linearGradient x1="0%" y1="100%" x2="100%" y2="0%" id="a"><stop stop-color="#BD0816" offset="0%"/><stop stop-color="#FF5252" offset="100%"/></linearGradient></defs><g fill="none" fill-rule="evenodd"><path d="M0 0h64v64H0z" fill="url(#a)"/><path d="M45 48c0-1.14-.859-2-2-2s-2 .86-2 2c0 1.14.859 2 2 2s2-.86 2-2Zm-13 0c-1.141 0-2 .86-2 2 0 1.14.859 2 2 2s2-.86 2-2c0-1.14-.859-2-2-2Zm-11-2c-1.141 0-2 .86-2 2 0 1.14.859 2 2 2s2-.86 2-2c0-1.14-.859-2-2-2Zm2.661-12h16.678l-5.63-4.926-2.077 1.7a.994.994 0 0 1-1.266 0l-2.076-1.699L23.661 34ZM22 23.11v9.687l5.721-5.006L22 23.11ZM40.199 22H23.801l8.198 6.708 8.2-6.708ZM42 32.797V23.11l-5.722 4.681L42 32.797ZM47 48c0 2.243-1.757 4-4 4-2.243 0-4-1.757-4-4a3.938 3.938 0 0 1 3-3.864V42h-9v4.136c1.741.435 3 1.969 3 3.864 0 2.243-1.757 4-4 4-2.243 0-4-1.757-4-4a3.938 3.938 0 0 1 3-3.864V42h-9v2.136c1.741.435 3 1.969 3 3.864 0 2.243-1.757 4-4 4-2.243 0-4-1.757-4-4a3.938 3.938 0 0 1 3-3.864V41a1 1 0 0 1 1-1h10v-4H21a1 1 0 0 1-1-1V21a1 1 0 0 1 1-1h22a1 1 0 0 1 1 1v14a1 1 0 0 1-1 1H33v4h10a1 1 0 0 1 1 1v3.136c1.741.435 3 1.969 3 3.864Zm7-16c0 4.795-1.605 10.001-4.188 13.585l-1.624-1.17C50.54 41.154 52 36.397 52 32c0-11.028-8.972-20-19.999-20C20.973 12 12 20.972 12 32c0 4.397 1.46 9.154 3.812 12.415l-1.624 1.17C11.605 42.001 10 36.795 10 32c0-12.131 9.869-22 21.999-22C44.131 10 54 19.869 54 32Z" fill="#FFF"/></g></svg>