<svg width="64" height="64" xmlns="http://www.w3.org/2000/svg"><defs><linearGradient x1="0%" y1="100%" x2="100%" y2="0%" id="a"><stop stop-color="#BD0816" offset="0%"/><stop stop-color="#FF5252" offset="100%"/></linearGradient></defs><g fill="none" fill-rule="evenodd"><path d="M0 0h64v64H0z" fill="url(#a)"/><path d="M31 45h2v-4h-2v4Zm0-6h2v-4h-2v4Zm0 12h2v-4h-2v4ZM17 33h4v-2h-4v2Zm6 0h4v-2h-4v2ZM12 52V33h3v-2h-3V12h19v19h-2v2h23v19H12Zm21-38.586L50.586 31H33V13.414ZM54 32a1 1 0 0 0-.293-.707l-21-21A1.002 1.002 0 0 0 32 10H11a1 1 0 0 0-1 1v42a1 1 0 0 0 1 1h42a1 1 0 0 0 1-1V32Z" fill="#FFF"/></g></svg>