<svg id="emoji" viewBox="0 0 72 72" xmlns="http://www.w3.org/2000/svg" width="64" height="64">
  <g id="line">
    <path fill="none" stroke="#000" strokeMiterlimit="10" strokeWidth="2" d="M13.7,12H58.4a1.6855,1.6855,0,0,1,1.7,1.7V58.4a1.6855,1.6855,0,0,1-1.7,1.7H13.7A1.6855,1.6855,0,0,1,12,58.4V13.7A1.6275,1.6275,0,0,1,13.7,12Z"/>
    <line x1="25" x2="47" y1="39" y2="39" fill="none" stroke="#000" strokeLinecap="round" strokeLinejoin="round" strokeWidth="2"/>
    <line x1="25" x2="47" y1="30" y2="30" fill="none" stroke="#000" strokeLinecap="round" strokeLinejoin="round" strokeWidth="2"/>
    <line x1="25" x2="47" y1="21" y2="21" fill="none" stroke="#000" strokeLinecap="round" strokeLinejoin="round" strokeWidth="2"/>
    <path fill="none" stroke="#000" strokeLinecap="round" strokeLinejoin="round" strokeWidth="2" d="M25,21V39c0,5-1,9-4,12"/>
    <path fill="none" stroke="#000" strokeLinecap="round" strokeLinejoin="round" strokeWidth="2" d="M47,21V49a2.0059,2.0059,0,0,1-2,2H39"/>
  </g>
</svg>
