<svg xmlns="http://www.w3.org/2000/svg" width="64" height="64"><path style="stroke:none;fill-rule:evenodd;fill:#85a4e6;fill-opacity:1" d="M4 4v56h28V4Zm12 16h-5.867v-6.133H16Zm0 9.867h-5.867V24H16ZM16 40h-5.867v-5.867H16Zm0 10.133h-5.867v-5.867H16ZM26.133 20H20v-6.133h5.867V20Zm0 9.867H20V24h5.867v5.867Zm0 10.133H20v-5.867h5.867V40Zm0 10.133H20v-5.867h5.867v5.867Zm0 0"/><path style="stroke:none;fill-rule:evenodd;fill:#5c85de;fill-opacity:1" d="M18.133 4v56H32V4Zm8 16H20v-6.133h5.867V20Zm0 9.867H20V24h5.867v5.867Zm0 10.133H20v-5.867h5.867V40Zm0 10.133H20v-5.867h5.867v5.867Zm0 0"/><path style="stroke:none;fill-rule:evenodd;fill:#85a4e6;fill-opacity:1" d="M32 28v32h28V28Zm12 12h-5.867v-5.867H44Zm0 10.133h-5.867v-5.867H44ZM53.867 40H48v-5.867h5.867Zm0 10.133H48v-5.867h5.867Zm0 0"/><path style="stroke:none;fill-rule:evenodd;fill:#5c85de;fill-opacity:1" d="M45.867 28v32h13.867V28Zm8 12H48v-5.867h5.867Zm0 10.133H48v-5.867h5.867Zm0 0"/><path style="stroke:none;fill-rule:evenodd;fill:#85a4e6;fill-opacity:1" d="M32 21.867h28v5.867H32Zm0 0"/><path style="stroke:none;fill-rule:evenodd;fill:#5c85de;fill-opacity:1" d="M32 28h28v2.133H32Zm0 0"/><path style="stroke:none;fill-rule:evenodd;fill:#3367d6;fill-opacity:1" d="M32 21.867h2.133v5.867H32ZM32 28h2.133v32H32Zm0 0"/></svg>