<svg xmlns="http://www.w3.org/2000/svg" width="64" height="64"><path style="stroke:none;fill-rule:nonzero;fill:#669df6;fill-opacity:1" d="M32 32.773 10 19.602 32 6.879l21.973 12.453ZM14.055 19.625l17.918 10.668 17.922-10.961L32 9.254Zm0 0"/><path style="stroke:none;fill-rule:nonzero;fill:#669df6;fill-opacity:1" d="M32 57.172 9.922 42.375 32 30.133l21.734 12.375ZM13.867 42.508 32 54.668l17.867-12L32 32.48Zm0 0"/><path style="stroke:none;fill-rule:nonzero;fill:#4285f4;fill-opacity:1" d="m10.996 20.004 1.797-.984 19.941 36.265-1.8.988Zm0 0"/><path style="stroke:none;fill-rule:nonzero;fill:#4285f4;fill-opacity:1" d="M31.21 55.535 50.677 19.38l1.812.973-19.468 36.16ZM11.27 41.832l19.68-34.09 1.777 1.028-19.68 34.09Zm0 0"/><path style="stroke:none;fill-rule:nonzero;fill:#4285f4;fill-opacity:1" d="m31.21 8.57 1.786-1.015 19.746 34.633-1.789 1.019Zm0 0"/><path style="stroke:none;fill-rule:nonzero;fill:#4285f4;fill-opacity:1" d="M31.04 7.895h2.054v47.84h-2.055ZM10.827 19.813h2.05v23.093h-2.05Zm39.918-.239h2.055v23.094h-2.055Zm0 0"/><path style="stroke:none;fill-rule:nonzero;fill:#aecbfa;fill-opacity:1" d="M34.934 8.188a2.853 2.853 0 1 1-5.707-.004 2.853 2.853 0 0 1 5.707.004ZM54.64 19.574a2.853 2.853 0 1 1-5.706-.003 2.853 2.853 0 0 1 5.707.003ZM15.066 19.574a2.853 2.853 0 1 1-5.708-.003 2.853 2.853 0 0 1 5.708.003ZM36.559 31.813a4.478 4.478 0 1 1-8.957 0 4.48 4.48 0 1 1 8.957 0ZM54.64 42.508a2.853 2.853 0 1 1-5.706-.004 2.853 2.853 0 0 1 5.707.004ZM15.066 42.508a2.853 2.853 0 1 1-5.708-.003 2.853 2.853 0 0 1 5.708.003ZM34.934 55.813a2.854 2.854 0 1 1-5.709.002 2.854 2.854 0 0 1 5.709-.002Zm0 0"/><path style="stroke:none;fill-rule:nonzero;fill:#aecbfa;fill-opacity:1" d="M32 32.773 10 19.602 32 6.879l21.973 12.453ZM14.055 19.625l17.918 10.668 17.922-10.961L32 9.254Zm0 0"/><path style="stroke:none;fill-rule:nonzero;fill:#aecbfa;fill-opacity:1" d="M32 57.172 9.922 42.375 32 30.133l21.734 12.375ZM13.867 42.508 32 54.668l17.867-12L32 32.48Zm0 0"/><path style="stroke:none;fill-rule:nonzero;fill:#aecbfa;fill-opacity:1" d="m10.996 20.004 1.797-.984 19.941 36.265-1.8.988Zm0 0"/><path style="stroke:none;fill-rule:nonzero;fill:#aecbfa;fill-opacity:1" d="M31.21 55.535 50.677 19.38l1.812.973-19.468 36.16ZM11.27 41.832l19.68-34.09 1.777 1.028-19.68 34.09Zm0 0"/><path style="stroke:none;fill-rule:nonzero;fill:#aecbfa;fill-opacity:1" d="m31.21 8.57 1.786-1.015 19.746 34.633-1.789 1.019Zm0 0"/><path style="stroke:none;fill-rule:nonzero;fill:#aecbfa;fill-opacity:1" d="M31.04 7.895h2.054v47.84h-2.055ZM10.827 19.813h2.05v23.093h-2.05Zm39.918-.239h2.055v23.094h-2.055Zm0 0"/><path style="stroke:none;fill-rule:nonzero;fill:#669df6;fill-opacity:1" d="M34.934 8.188a2.853 2.853 0 1 1-5.707-.004 2.853 2.853 0 0 1 5.707.004ZM54.64 19.574a2.853 2.853 0 1 1-5.706-.003 2.853 2.853 0 0 1 5.707.003ZM15.066 19.574a2.853 2.853 0 1 1-5.708-.003 2.853 2.853 0 0 1 5.708.003ZM36.559 31.813a4.478 4.478 0 1 1-8.957 0 4.48 4.48 0 1 1 8.957 0ZM54.64 42.508a2.853 2.853 0 1 1-5.706-.004 2.853 2.853 0 0 1 5.707.004ZM15.066 42.508a2.853 2.853 0 1 1-5.708-.003 2.853 2.853 0 0 1 5.708.003ZM34.934 55.813a2.854 2.854 0 1 1-5.709.002 2.854 2.854 0 0 1 5.709-.002Zm0 0"/></svg>