<svg xmlns="http://www.w3.org/2000/svg" width="64" height="64"><path style="stroke:none;fill-rule:evenodd;fill:#4285f4;fill-opacity:1" d="M55.172 33.148 32 44.746v13.922l23.172-11.602Zm0 0"/><path style="stroke:none;fill-rule:evenodd;fill:#1e88e5;fill-opacity:1" d="m18.078 12.293-9.25 4.64Zm0 0"/><path style="stroke:none;fill-rule:evenodd;fill:#4285f4;fill-opacity:1" d="M45.922 21.574v11.574l9.25-4.613V16.934ZM32 40.105l9.281-4.613V23.895L32 28.535Zm0 0"/><path style="stroke:none;fill-rule:nonzero;fill:#aecbfa;fill-opacity:1" d="m18.078 12.293-9.25 4.64 9.25 4.641 9.281-4.64Zm0 0"/><path style="stroke:none;fill-rule:evenodd;fill:#aecbfa;fill-opacity:1" d="m32 5.332-9.281 4.64 23.203 11.602 9.25-4.64Zm0 0"/><path style="stroke:none;fill-rule:nonzero;fill:#aecbfa;fill-opacity:1" d="m32 19.254-9.281 4.64L32 28.536l9.281-4.64Zm0 0"/><path style="stroke:none;fill-rule:nonzero;fill:#669df6;fill-opacity:1" d="M22.719 40v13.922L32 58.668V44.746Zm6.96 13.922-4.64-2.32v-6.856l4.64 2.32ZM8.83 16.934v30.132l9.25 4.641V21.574Zm6.956 30.132-4.664-2.32V18.078l4.664 2.32ZM22.72 24 32 28.535V40l-9.281-4.508Zm6.96 11.602v-8l-4.64-2.403v8Zm0 0"/></svg>