<svg xmlns="http://www.w3.org/2000/svg" width="64" height="64"><path style="stroke:none;fill-rule:evenodd;fill:#4285f4;fill-opacity:1" d="m44.375 40.348 1.973-3.336h9.414L58.668 32l-5.816-10h-8.184l-2.828-4.96h-3.172v-3.36h5.172l2.828 4.988h4.238l-5.84-10H33.68V22h4.613l1.945 3.332H33.68V32h6.027l2.8-4.988H50l1.922 3.336h-7.469l-2.8 4.984H33.68v11.68h9.066l-1.918 3.336H33.68v4.984h11.386l8.746-14.984h-5.574l-1.945 3.332h-7.625v-3.332Zm0 0"/><path style="stroke:none;fill-rule:evenodd;fill:#669df6;fill-opacity:1" d="m19.625 40.348-1.973-3.336H8.238L5.332 32l5.816-10h8.184l2.828-4.96h3.172v-3.36H20.16l-2.828 4.988h-4.238l5.84-10h11.414V22h-4.641l-1.945 3.332h6.586V32h-6.055l-2.8-4.988H14l-1.922 3.336h7.469l2.8 4.984h8v11.68h-9.093l1.918 3.336h7.176v4.984H18.934l-8.747-14.984h5.575l1.945 3.332h7.625v-3.332Zm0 0"/></svg>