<svg xmlns="http://www.w3.org/2000/svg" width="64" height="64"><path style="stroke:none;fill-rule:evenodd;fill:#aecbfa;fill-opacity:1" d="m30.027 18.293-9.039-5.332a2.004 2.004 0 0 1-1.027-1.77 2 2 0 0 1 3.105-1.645l8.961 5.333Zm.692 9.2L12.508 16.96a2.005 2.005 0 0 1-.735-2.734 2.004 2.004 0 0 1 2.735-.735l16.21 9.387Zm0 0"/><path style="stroke:none;fill-rule:evenodd;fill:#669df6;fill-opacity:1" d="M52.266 14.215a2.026 2.026 0 0 0-2.664-.723L34 22.398v-4.132l9.04-5.332a1.975 1.975 0 0 0 .667-2.668 1.998 1.998 0 0 0-2.668-.664l-9.973 5.812a2.1 2.1 0 0 0-1.039 1.813V56c-.09.766.27 1.512.922 1.922.649.41 1.48.41 2.13 0A1.995 1.995 0 0 0 34 56V27.04l17.52-10.08a2.025 2.025 0 0 0 .746-2.745Zm0 0"/><path style="stroke:none;fill-rule:nonzero;fill:#669df6;fill-opacity:1" d="M34.266 8.238c0 1.239-1 2.242-2.239 2.242a2.241 2.241 0 1 1 2.238-2.242Zm0 0"/><path style="stroke:none;fill-rule:nonzero;fill:#aecbfa;fill-opacity:1" d="M25.281 28.852a1.954 1.954 0 0 1 1.012 1.707V41.44a1.963 1.963 0 0 1-1.012 1.73c-.304.173-.64.263-.988.27a2.3 2.3 0 0 1-1.012-.27l-11.52-6.636a2.003 2.003 0 0 1 2-3.469l8.532 4.907v-6.239l-3.867-2.214a2 2 0 0 1-.719-2.668 1.976 1.976 0 0 1 2.668-.72ZM16.266 24.691c0 1.239-1 2.243-2.239 2.243a2.241 2.241 0 1 1 2.238-2.242Zm0 0"/><path style="stroke:none;fill-rule:nonzero;fill:#4285f4;fill-opacity:1" d="M43.574 26.055a1.968 1.968 0 0 1 2.664.718 2 2 0 0 1-.718 2.668l-3.868 2.211v6.243l8.535-4.907a2 2 0 1 1 2 3.465l-11.519 6.64c-.313.165-.66.259-1.016.266a2.12 2.12 0 0 1-.984-.265 1.978 1.978 0 0 1-1.016-1.735v-10.8c0-.711.391-1.364 1.016-1.707ZM52.215 24.691a2.242 2.242 0 0 1-2.242 2.243 2.239 2.239 0 0 1-2.239-2.243 2.241 2.241 0 0 1 4.48 0Zm0 0"/></svg>