<svg xmlns="http://www.w3.org/2000/svg" width="64" height="64"><path style="stroke:none;fill-rule:nonzero;fill:#669df6;fill-opacity:1" d="m28.078 31.148-6.93-4.187c.102-.3.165-.617.184-.934a3.65 3.65 0 0 0-6.234-2.61 3.65 3.65 0 0 0 2.609 6.235 3.526 3.526 0 0 0 2.453-.984l6.961 4.184c.149.105.324.16.504.16a1.01 1.01 0 0 0 .508-1.864Zm-10.426-3.496a1.627 1.627 0 1 1 .004-3.254 1.627 1.627 0 0 1-.004 3.254Zm0 0"/><path style="stroke:none;fill-rule:nonzero;fill:#aecbfa;fill-opacity:1" d="M24.535 50.215A18.22 18.22 0 0 1 7.648 39.027a18.219 18.219 0 0 1 3.899-19.879 18.223 18.223 0 0 1 19.86-3.984A18.22 18.22 0 0 1 42.667 32c-.031 10.016-8.117 18.14-18.133 18.215Zm0-32.403A14.213 14.213 0 1 0 38.72 32c-.012-7.828-6.356-14.172-14.184-14.188Zm0 0"/><path style="stroke:none;fill-rule:nonzero;fill:#4285f4;fill-opacity:1" d="M52.719 41.441a4.85 4.85 0 0 0-2.934.985l-15.36-8.801A8.122 8.122 0 0 0 34.669 32a8.42 8.42 0 0 0-.215-1.625l15.36-8.8a4.85 4.85 0 0 0 2.933.984 4.955 4.955 0 0 0 4.934-4.977 4.96 4.96 0 0 0-4.97-4.941 4.958 4.958 0 0 0-4.948 4.96 3.616 3.616 0 0 0 0 .504l-15.524 8.883a6.582 6.582 0 0 0-9.05.48 6.583 6.583 0 0 0 0 9.063 6.582 6.582 0 0 0 9.05.48l15.524 8.884a3.616 3.616 0 0 0 0 .503 4.957 4.957 0 0 0 4.957 4.961 4.958 4.958 0 0 0 4.96-4.96 4.957 4.957 0 0 0-4.96-4.958Zm0 0"/></svg>