<svg xmlns="http://www.w3.org/2000/svg" width="64" height="64"><path style="stroke:none;fill-rule:nonzero;fill:#4285f4;fill-opacity:1" d="m36.863 43.367 2.551 2.547a3.743 3.743 0 0 1 3.348 6.32 3.752 3.752 0 0 1-4.395.668 3.748 3.748 0 0 1-1.933-4l-2.551-2.554Zm3.246-32.699c1.418 0 2.715.805 3.348 2.074a3.748 3.748 0 0 1-.367 3.922 3.74 3.74 0 0 1-3.676 1.422L25.5 32l6.387 6.39 4.402-4.398 2.98 2.985-11.738 11.742a3.74 3.74 0 0 1-1.726 4.09 3.739 3.739 0 0 1-5.305-4.79 3.737 3.737 0 0 1 3.895-2.132l4.511-4.512-13.8-13.809a3.746 3.746 0 0 1-4.004-1.93 3.745 3.745 0 0 1 .664-4.394 3.739 3.739 0 0 1 4.394-.66c1.45.77 2.23 2.39 1.926 4.004l4.43 4.434 6.39-6.391-4.511-4.512a3.743 3.743 0 0 1-3.008-6.484 3.739 3.739 0 0 1 4.418-.438 3.74 3.74 0 0 1 1.726 4.09l4.356 4.36 4.547-4.54a3.746 3.746 0 0 1 .793-3.085 3.752 3.752 0 0 1 2.882-1.352Zm9.485 9.48c1.441 0 2.754.829 3.375 2.133a3.735 3.735 0 0 1-.469 3.965 3.736 3.736 0 0 1-3.781 1.281L44.246 32l4.473 4.473a3.74 3.74 0 0 1 4.09 1.726 3.74 3.74 0 0 1-4.79 5.305 3.737 3.737 0 0 1-2.132-3.895L33.883 27.602l2.98-2.985 4.403 4.403 4.62-4.63a3.734 3.734 0 0 1 .891-2.96 3.734 3.734 0 0 1 2.817-1.282Zm-32.055 13.84 2.984 2.989-2.437 2.437a3.743 3.743 0 0 1-6.32 3.348 3.752 3.752 0 0 1-.668-4.395 3.748 3.748 0 0 1 4-1.933l2.445-2.442Zm0 0"/></svg>