<svg xmlns="http://www.w3.org/2000/svg" width="64" height="64"><path style="stroke:none;fill-rule:evenodd;fill:#5c85de;fill-opacity:1" d="M8 16.266c-2.934 0-6.133 2.933-6.133 5.867V48H8V36h5.867v12h5.867V22.133c0-2.934-2.933-5.867-6.132-5.867Zm0 13.601v-8h5.867v8ZM30.133 16C26.933 16 24 18.934 24 21.867V48h5.867V36h5.867c2.934 0 6.133-2.934 6.133-5.867v-8c0-2.934-2.933-5.867-6.133-5.867h-5.601Zm-.266 13.867v-8h5.867v8ZM52 22.133v20h-6.133V48H64v-5.867h-5.867v-20H64v-5.867H45.867v5.867Zm0 0"/><path style="stroke:none;fill-rule:evenodd;fill:#3367d6;fill-opacity:1" d="M8 36v-6.133h4Zm21.867 0v-6.133h3.465ZM52 26.133v-4h6.133Zm0 0"/></svg>