<svg xmlns="http://www.w3.org/2000/svg" width="64" height="64"><path style="stroke:none;fill-rule:nonzero;fill:#4285f4;fill-opacity:1" d="M9.254 41.813a11.488 11.488 0 0 1-3.332-12.336 11.494 11.494 0 1 1 19.52 11.27c-.32.382-.669.737-1.044 1.066a11.518 11.518 0 0 1-15.144 0ZM23.12 27.944c-2.894-3.468-8.05-3.941-11.523-1.05a8.184 8.184 0 0 0-1.067 11.523 8.188 8.188 0 1 0 12.59-10.473Zm16.504 13.867a11.486 11.486 0 0 1-3.328-12.335 11.485 11.485 0 0 1 10.133-7.79 11.491 11.491 0 0 1 9.383 19.059 9.817 9.817 0 0 1-1.067 1.066 11.496 11.496 0 0 1-15.121 0Zm13.867-13.867a8.186 8.186 0 0 0-12.586 10.473c2.883 3.477 8.04 3.957 11.52 1.074a8.21 8.21 0 0 0 1.066-11.547Zm0 0"/><path style="stroke:none;fill-rule:nonzero;fill:#669df6;fill-opacity:1" d="M21.332 33.172a4.504 4.504 0 0 1-4.504 4.508 4.505 4.505 0 0 1-4.508-4.508 4.504 4.504 0 0 1 4.508-4.504 4.503 4.503 0 0 1 4.504 4.504ZM51.68 33.172a4.505 4.505 0 0 1-4.508 4.508 4.504 4.504 0 0 1-4.504-4.508 4.503 4.503 0 0 1 4.504-4.504 4.504 4.504 0 0 1 4.508 4.504Zm0 0"/><path style="stroke:none;fill-rule:nonzero;fill:#aecbfa;fill-opacity:1" d="M38.375 20.828a.831.831 0 0 0 .297-.922.826.826 0 0 0-.777-.574h-11.79a.826.826 0 0 0-.777.574c-.11.34.012.711.297.922a15.28 15.28 0 0 1 5.684 7.785c.148.383.574.57.957.426a.764.764 0 0 0 .453-.453 15.104 15.104 0 0 1 5.656-7.758Zm0 0"/></svg>