<svg xmlns="http://www.w3.org/2000/svg" width="64" height="64"><path style="stroke:none;fill-rule:nonzero;fill:#4285f4;fill-opacity:1" d="M15.652 54.64a4.026 4.026 0 0 1-8 0V43.228a4.034 4.034 0 0 1 1.856-3.872 4.036 4.036 0 0 1 4.293 0 4.03 4.03 0 0 1 1.851 3.872Zm13.68 0a4.026 4.026 0 0 1-8 0V43.228a4.026 4.026 0 0 1 8 0Zm13.496 0a4.03 4.03 0 0 1-4 3.563 4.024 4.024 0 0 1-4-3.562V43.227a4.024 4.024 0 0 1 4-3.563 4.03 4.03 0 0 1 4 3.563Zm13.57 0a4.024 4.024 0 0 1-4 3.563 4.03 4.03 0 0 1-4-3.562V43.227a4.034 4.034 0 0 1 1.856-3.872 4.036 4.036 0 0 1 4.293 0 4.03 4.03 0 0 1 1.851 3.872Zm0 0"/><path style="stroke:none;fill-rule:nonzero;fill:#aecbfa;fill-opacity:1" d="M29.227 31.922c0 2.223-1.801 4.023-4.028 4.023a4.026 4.026 0 1 1 0-8.05c2.227 0 4.028 1.8 4.028 4.027Zm0 0"/><path style="stroke:none;fill-rule:nonzero;fill:#669df6;fill-opacity:1" d="M42.828 31.922a4.026 4.026 0 0 1-4.027 4.023 4.024 4.024 0 0 1-4.028-4.023c0-2.227 1.801-4.027 4.028-4.027 2.222 0 4.027 1.8 4.027 4.027Zm0 0"/><path style="stroke:none;fill-rule:nonzero;fill:#aecbfa;fill-opacity:1" d="M42.828 20.64a4.027 4.027 0 1 1-8.056 0 4.027 4.027 0 0 1 8.056 0Zm0 0"/><path style="stroke:none;fill-rule:nonzero;fill:#669df6;fill-opacity:1" d="M56.398 31.922c0 2.223-1.8 4.023-4.023 4.023a4.024 4.024 0 0 1-4.027-4.023c0-2.227 1.8-4.027 4.027-4.027 2.223 0 4.023 1.8 4.023 4.027ZM56.398 20.64a4.026 4.026 0 1 1-8.05 0 4.026 4.026 0 1 1 8.05 0Zm0 0"/><path style="stroke:none;fill-rule:nonzero;fill:#aecbfa;fill-opacity:1" d="M56.398 9.36a4.026 4.026 0 1 1-8.05 0 4.026 4.026 0 1 1 8.05 0Zm0 0"/></svg>