<svg xmlns="http://www.w3.org/2000/svg" width="64" height="64"><path style="stroke:none;fill-rule:evenodd;fill:#669df6;fill-opacity:1" d="m13.867 32 3.52-3.52-4.774-4.773a7.836 7.836 0 0 1-1.644-8.504 7.833 7.833 0 0 1 7.191-4.828 7.77 7.77 0 0 1 5.52 2.293l4.8 4.773L32 13.867l-4.773-4.773c-3.211-3.383-8-4.758-12.516-3.59a12.812 12.812 0 0 0-9.207 9.207 12.824 12.824 0 0 0 3.59 12.516ZM50.133 32l-3.52 3.52 4.774 4.8a7.84 7.84 0 0 1-11.094 11.067l-4.773-4.774-3.52 3.52 4.773 4.773c3.211 3.383 8 4.758 12.516 3.59a12.812 12.812 0 0 0 9.207-9.207 12.824 12.824 0 0 0-3.59-12.516Zm0 0"/><path style="stroke:none;fill-rule:evenodd;fill:#4285f4;fill-opacity:1" d="M23.707 51.387a7.846 7.846 0 0 1-11.094 0 7.846 7.846 0 0 1 0-11.094l4.774-4.773L28.48 46.613ZM40.32 12.613a7.81 7.81 0 0 1 8.52-1.683 7.806 7.806 0 0 1 4.812 7.23 7.988 7.988 0 0 1-2.293 5.547l-4.773 4.773L35.52 17.387ZM32 40.508A8.537 8.537 0 0 1 23.492 32 8.563 8.563 0 0 1 32 23.492 8.563 8.563 0 0 1 40.508 32 8.537 8.537 0 0 1 32 40.508ZM50.133 32l4.773-4.773c3.383-3.211 4.758-8 3.59-12.516a12.812 12.812 0 0 0-9.207-9.207 12.824 12.824 0 0 0-12.516 3.59l-27.68 27.68c-3.382 3.21-4.757 8-3.59 12.515a12.812 12.812 0 0 0 9.208 9.207 12.824 12.824 0 0 0 12.516-3.59Zm0 0"/></svg>