<svg xmlns="http://www.w3.org/2000/svg" width="64" height="64"><path style="stroke:none;fill-rule:nonzero;fill:#4285f4;fill-opacity:1" d="m57.121 24-.934-.238-2.855-.723-.238-.504c-.133-.242-.242-.508-.375-.773-.133-.27-.239-.48-.371-.723l-.426-.746-.43-.691-.453-.696a5.981 5.981 0 0 0-.504-.668c-.16-.21-.32-.453-.508-.664l-.535-.64-.531-.614-.695-.586-.586-.586-.64-.535-.614-.535-.664-.504-.668-.508-.696-.453-.691-.425-.746-.426-.723-.375-.773-.375-.504-.211-.773-2.989L40 6.88a2.083 2.083 0 0 0-2.055-1.547h-11.89A2.083 2.083 0 0 0 24 6.879l-.238.934-.723 2.988-.504.21-.773.376-.723.375-.746.425-.691.426-.696.453-.668.508-.664.504-.64.535-.614.535-1.172 1.172-.535.64a5.731 5.731 0 0 0-.535.614c-.183.211-.344.453-.504.664-.183.211-.355.434-.508.668l-.453.696-.425.691-.426.746c0 .242-.27.48-.375.723a9.326 9.326 0 0 1-.375.773c-.133.238-.16.344-.211.504l-2.989.773L6.88 24a2.083 2.083 0 0 0-1.547 2.055v11.89c.008.942.64 1.762 1.547 2l.934.242 2.988.774c0 .16.16.32.21.504.055.187.243.508.376.773.133.27.238.48.375.723l.425.746.426.691.453.696c.153.234.325.457.508.668.16.21.32.453.504.664.164.219.344.422.535.613l.535.64 1.172 1.173.64.535.614.535.664.504.668.508.696.453.691.425.746.426.723.375.773.375.504.211.773 2.989.243.933a2.082 2.082 0 0 0 2 1.547h11.89a2.082 2.082 0 0 0 2-1.547l.242-.934.774-2.855.504-.21.773-.376.723-.371.746-.43.691-.425.696-.454.668-.507.664-.504.64-.535.614-.532.586-.59.586-.586.535-.64c.191-.192.37-.395.535-.613.183-.211.344-.454.504-.664.183-.211.355-.434.508-.668l.453-.692.425-.695.426-.746c.137-.242.27-.48.375-.719.106-.242.239-.535.375-.773.133-.243.16-.348.211-.508l2.989-.774.933-.242a2.082 2.082 0 0 0 1.547-2V26.055A2.083 2.083 0 0 0 57.121 24ZM32 49.785c-9.8-.012-17.738-7.965-17.734-17.765.007-9.805 7.949-17.747 17.754-17.754 9.8-.004 17.753 7.933 17.765 17.734 0 1.191-.125 2.379-.37 3.547A17.707 17.707 0 0 1 32 49.785Zm0 0"/><path style="stroke:none;fill-rule:nonzero;fill:#669df6;fill-opacity:1" d="M32 18.348c-.996 0-1.988.105-2.96.32l.722 3.277c5.547-1.23 11.043 2.266 12.277 7.813s-2.258 11.047-7.805 12.285c-5.547 1.234-11.047-2.258-12.289-7.805A10.757 10.757 0 0 1 21.707 32h-3.36c0 7.54 6.114 13.652 13.653 13.652 7.54 0 13.652-6.113 13.652-13.652 0-7.54-6.113-13.652-13.652-13.652Zm0 0"/><path style="stroke:none;fill-rule:nonzero;fill:#aecbfa;fill-opacity:1" d="M32 25.121a6.59 6.59 0 0 0-1.492.16l.719 3.305a3.518 3.518 0 0 1 3.742 5.324 3.53 3.53 0 0 1-3.586 1.578 3.528 3.528 0 0 1-2.824-2.715 4.263 4.263 0 0 1 0-.773H25.12c0 3.8 3.078 6.879 6.879 6.879 3.8 0 6.879-3.078 6.879-6.879 0-3.8-3.078-6.879-6.879-6.879Zm0 0"/></svg>