<svg xmlns="http://www.w3.org/2000/svg" width="64" height="64"><path style="stroke:none;fill-rule:evenodd;fill:#4285f4;fill-opacity:1" d="m38.133 26.668-3.254 3.254a4.554 4.554 0 0 1 1.332 5.004A4.555 4.555 0 0 1 32 37.946a4.625 4.625 0 0 1-3.547-1.708L25.2 39.492a9.153 9.153 0 0 0 9.117 3.102 9.152 9.152 0 0 0 6.84-6.785 9.144 9.144 0 0 0-3.023-9.141Zm0 0"/><path style="stroke:none;fill-rule:evenodd;fill:#aecbfa;fill-opacity:1" d="M32 16.691c-9.203 0-16.668 7.465-16.668 16.668 0 9.207 7.465 16.668 16.668 16.668s16.668-7.46 16.668-16.668c0-9.203-7.465-16.668-16.668-16.668m0 28.641a11.863 11.863 0 0 1-10.984-7.312 11.865 11.865 0 0 1 15.511-15.512 11.863 11.863 0 0 1 7.313 10.984c0 6.54-5.3 11.84-11.84 11.84"/><path style="stroke:none;fill-rule:evenodd;fill:#669df6;fill-opacity:1" d="m57.652 31.734-6.824-2.16c.297 1.34.45 2.707.453 4.078a20.37 20.37 0 0 1-.215 2.883h6.586c.567-.078.993-.55 1.016-1.12v-2.669a1.178 1.178 0 0 0-1.016-1.121M32 14.719c1.344 0 2.684.133 4 .402l-2.453-6.8c-.188-.587-.559-1.012-1.121-1.012h-1.012a1.196 1.196 0 0 0-1.121 1.011l-2.133 6.774a20.437 20.437 0 0 1 3.84-.375M12.719 33.652c.004-1.37.156-2.738.453-4.078l-6.824 2.16c-.567.078-.993.551-1.016 1.118v2.668c.023.57.45 1.042 1.016 1.12h6.586c-.141-.953-.211-1.917-.215-2.878"/><path style="stroke:none;fill-rule:evenodd;fill:#aecbfa;fill-opacity:1" d="M32 26.668A6.666 6.666 0 1 0 32 40a6.667 6.667 0 1 0 0-13.332Zm0 10A3.333 3.333 0 0 1 32 30a3.333 3.333 0 0 1 3.332 3.332A3.327 3.327 0 0 1 32 36.692Zm0 0"/></svg>