<svg xmlns="http://www.w3.org/2000/svg" width="64" height="64"><path style="stroke:none;fill-rule:evenodd;fill:#5c85de;fill-opacity:1" d="m16 6.398-13.867 8v36.536l13.867 8V52l-8-4.535V17.867l8-4.535Zm0 0"/><path style="stroke:none;fill-rule:evenodd;fill:#3367d6;fill-opacity:1" d="M2.133 21.332V44L8 47.465V17.867Zm0 0"/><path style="stroke:none;fill-rule:evenodd;fill:#3367d6;fill-opacity:1" d="M2.133 21.332 8 20v-2.133Zm0 0"/><path style="stroke:none;fill-rule:evenodd;fill:#5c85de;fill-opacity:1" d="M48 6.398v6.934l8 4.535v29.598L48 52v6.934l13.867-8V14.398Zm0 0"/><path style="stroke:none;fill-rule:evenodd;fill:#3367d6;fill-opacity:1" d="M56 47.465 61.867 44V21.332L56 17.867Zm0 0"/><path style="stroke:none;fill-rule:evenodd;fill:#3367d6;fill-opacity:1" d="m56 20 5.867 1.332L56 17.867Zm0 25.602v1.863L61.867 44Zm0 0"/><path style="stroke:none;fill-rule:evenodd;fill:#5c85de;fill-opacity:1" d="m32 14.668-8 4.266 8 4.265 8-4.265Zm0 0"/><path style="stroke:none;fill-rule:evenodd;fill:#3367d6;fill-opacity:1" d="m33.066 33.066 7.735-4.265v-8.266l-7.735 4.266ZM31.2 24.801l-8-4.266v8.266l8 4.265Zm0 0"/><path style="stroke:none;fill-rule:evenodd;fill:#5c85de;fill-opacity:1" d="m22.828 30.336-7.734 4.266 7.734 4.27 7.465-4.27Zm0 0"/><path style="stroke:none;fill-rule:evenodd;fill:#3367d6;fill-opacity:1" d="m23.36 48.734 7.734-4.265v-8.532l-7.735 4.266Zm-1.333-8.53-7.734-4.267v8.532l7.734 4.265Zm0 0"/><path style="stroke:none;fill-rule:evenodd;fill:#5c85de;fill-opacity:1" d="m41.387 30.336-7.735 4.266 7.735 4.27 7.734-4.27Zm0 0"/><path style="stroke:none;fill-rule:evenodd;fill:#3367d6;fill-opacity:1" d="m42.188 48.734 7.734-4.265v-8.532l-7.734 4.266Zm-1.602-8.53-7.734-4.267v8.532l7.734 4.265Zm0 0"/></svg>