<svg xmlns="http://www.w3.org/2000/svg" width="64" height="64"><path style="stroke:none;fill-rule:nonzero;fill:#4285f4;fill-opacity:1" d="m27.238 31.73 4.844-4.847 4.848 4.844-4.844 4.847Zm0 0"/><path style="stroke:none;fill-rule:evenodd;fill:#669df6;fill-opacity:1" d="m47.652 31.707-.187.16-10.05 10.078-2.83-2.797 7.47-7.441L26.828 16.48V10.88l.184.187Zm0 0"/><path style="stroke:none;fill-rule:evenodd;fill:#aecbfa;fill-opacity:1" d="M26.828 16.48 11.625 31.707l18 18.027-2.797 2.801-.16-.187L6 31.707l20.828-20.828Zm0 0"/><path style="stroke:none;fill-rule:evenodd;fill:#669df6;fill-opacity:1" d="M37.172 46.934v5.601l-.16-.187-20.664-20.614 10.238-10.27 2.828 2.829-7.469 7.441Zm0 0"/><path style="stroke:none;fill-rule:nonzero;fill:#4285f4;fill-opacity:1" d="m37.172 46.934 15.203-15.2-18-18.027 2.797-2.828.16.187L58 31.734l-.188.16-20.64 20.641Zm0 0"/></svg>