<svg xmlns="http://www.w3.org/2000/svg" width="64" height="64"><path style="stroke:none;fill-rule:nonzero;fill:#4285f4;fill-opacity:1" d="M20.348 49.254v-24.48h4.96v24.48Zm-10 0v-24.48h4.824v24.48Zm20.132 0v-24.48h4.801v24.48Zm14.586-24.48V36.16l-4.613 2.133v-13.52Zm0 0"/><path style="stroke:none;fill-rule:nonzero;fill:#aecbfa;fill-opacity:1" d="M45.813 46.828 44.64 48 48 51.441l1.574-1.629.504-.503v8l-.504.746h-.16c-.941-.27-1.84-.676-2.668-1.203a12.538 12.538 0 0 1-5.492-9.332v-7.012l8.453-3.867.508.984v9.309l-.508.507L48 49.066Zm0 0"/><path style="stroke:none;fill-rule:nonzero;fill:#669df6;fill-opacity:1" d="M49.547 36.64V47.31l.508-.508 3.437-3.547 1.149 1.172-4.586 4.746-.508.508v8.16h.16c.941-.266 1.84-.672 2.668-1.2a12.46 12.46 0 0 0 5.492-9.331v-6.801ZM40 52H27.707v-4.348h11.121v.16c.172 1.45.57 2.86 1.172 4.188Zm0 0"/><path style="stroke:none;fill-rule:nonzero;fill:#aecbfa;fill-opacity:1" d="M24.719 17.387a2.99 2.99 0 0 0 2.988 2.988v5.332H6v-4.375L27.707 6.105v8.27a3.013 3.013 0 0 0-2.988 3.012Zm0 0"/><path style="stroke:none;fill-rule:nonzero;fill:#669df6;fill-opacity:1" d="M49.414 21.332v4.242H27.707v-5.199a3.013 3.013 0 0 0 0-6V6Zm0 0"/><path style="stroke:none;fill-rule:nonzero;fill:#aecbfa;fill-opacity:1" d="M27.707 47.625V52H6v-4.32Zm0 0"/></svg>