<svg xmlns="http://www.w3.org/2000/svg" width="64" height="64"><path style="stroke:none;fill-rule:nonzero;fill:#669df6;fill-opacity:1" d="M40 27.52h.426v-2.668h-7.094v-3.04h-2.934v3.04H23.52v2.668Zm0 0"/><path style="stroke:none;fill-rule:nonzero;fill:#aecbfa;fill-opacity:1" d="M40.879 39.332a18.11 18.11 0 0 1-6.746-3.387 17.068 17.068 0 0 0 3.199-5.52H34.16A13.396 13.396 0 0 1 32 33.923a12.873 12.873 0 0 1-2.16-3.496h-3.172a22.241 22.241 0 0 0 3.387 5.547 17.685 17.685 0 0 1-6.934 3.68l1.598 2.667A22.318 22.318 0 0 0 32 38.055a17.859 17.859 0 0 0 7.332 4.078Zm0 0"/><path style="stroke:none;fill-rule:nonzero;fill:#4285f4;fill-opacity:1" d="m18.188 51.895 2.53 4.398h25.31l12.64-21.918-5.066-8.773-12.641 21.89H20.719Zm27.625-39.79L43.28 7.707H17.973L5.332 29.625l5.066 8.773 12.641-21.89h20.242Zm0 0"/></svg>