<svg xmlns="http://www.w3.org/2000/svg" width="64" height="64"><path style="stroke:none;fill-rule:nonzero;fill:#4285f4;fill-opacity:1" d="m18.215 51.895 2.664 4.398H46.16l12.508-21.918-5.066-8.773-12.641 21.89H20.746Zm27.57-39.79-2.664-4.398H17.973L5.332 29.625l5.066 8.773 12.668-21.89h20.215Zm0 0"/><path style="stroke:none;fill-rule:nonzero;fill:#669df6;fill-opacity:1" d="m41.254 26.64-3.547 2.641v5.547l3.547 2.664Zm0 0"/><path style="stroke:none;fill-rule:nonzero;fill:#aecbfa;fill-opacity:1" d="m28.773 32.8-1.011 1.84h-2.43l1.52-2.613-1.52-2.668h2.43l1.011 1.707h6.668v-5.414h-5.414l1.145 1.813h2v1.976h-3.25l-2.43-3.789h-4.746v12.696h4.746l2.43-3.79h3.25v1.977h-2l-1.145 1.813h5.414V32.8Zm0 0"/></svg>