<svg xmlns="http://www.w3.org/2000/svg" width="64" height="64"><path style="stroke:none;fill-rule:nonzero;fill:#4285f4;fill-opacity:1" d="M52.027 18.453a27.804 27.804 0 0 1-2.668 2.453c5.97 8.203 5.418 19.457-1.328 27.035-6.742 7.582-17.855 9.438-26.699 4.457H26a19.873 19.873 0 0 1-2.293-3.464h-6.879a23.224 23.224 0 0 1-2.668-3.172h8.16a27.826 27.826 0 0 1-.988-3.496h-9.094a21.671 21.671 0 0 1-1.117-3.172h9.52c-.188-1.121-.293-2.266-.375-3.469h-9.758a16.33 16.33 0 0 1 0-2.05v-1.15h9.68c.003-1.155.074-2.316.21-3.464h-9.52c.24-1.082.563-2.14.962-3.176h9.066c.211-1.172.508-2.332.88-3.465h-8.184c.699-1.129 1.5-2.191 2.398-3.172h6.96a24.734 24.734 0 0 1 1.892-3.496H20a21.506 21.506 0 0 1 20.64-1.84 28.532 28.532 0 0 0 3.438 8.508s7.817-4.453 9.016-9.172a6.459 6.459 0 0 0-4.633-7.753 6.456 6.456 0 0 0-7.848 4.472v.188a25.09 25.09 0 0 0-28.527 8.254 25.097 25.097 0 0 0-.676 29.687c6.285 8.98 17.672 12.848 28.121 9.543a25.091 25.091 0 0 0 17.535-23.965 23.233 23.233 0 0 0-5.039-15.12ZM44 10.668a3.038 3.038 0 0 1 5.566-.762 3.04 3.04 0 0 1-3.406 4.469A3.012 3.012 0 0 1 44 10.668Zm0 0"/></svg>