<svg xmlns="http://www.w3.org/2000/svg" width="64" height="64"><path style="stroke:none;fill-rule:evenodd;fill:#aecbfa;fill-opacity:1" d="M17.945 28.879v7.016a13.111 13.111 0 0 0 4.563 4.64V28.88Zm0 0"/><path style="stroke:none;fill-rule:evenodd;fill:#669df6;fill-opacity:1" d="M26.375 22.426v20.082c.98.125 1.969.176 2.957.16.89.055 1.781.055 2.668 0V22.426Zm0 0"/><path style="stroke:none;fill-rule:evenodd;fill:#aecbfa;fill-opacity:1" d="M36.375 31.625v8.773a13.335 13.335 0 0 0 4.531-4.851v-3.922Zm0 0"/><path style="stroke:none;fill-rule:evenodd;fill:#4285f4;fill-opacity:1" d="m47.309 43.52-3.79 3.789a1.108 1.108 0 0 0-.335.796c0 .301.12.59.336.801l9.44 9.442c.435.43 1.138.43 1.575 0l3.813-3.813c.43-.437.43-1.14 0-1.574l-9.442-9.441c-.21-.215-.5-.336-.8-.336-.301 0-.59.12-.797.336"/><path style="stroke:none;fill-rule:evenodd;fill:#669df6;fill-opacity:1" d="M29.332 5.332c-13.254 0-24 10.746-24 24 0 13.258 10.746 24 24 24 13.258 0 24-10.742 24-24 0-13.254-10.742-24-24-24m0 41.84c-9.828-.012-17.789-7.988-17.785-17.82.004-9.832 7.973-17.801 17.805-17.805 9.832-.004 17.808 7.957 17.82 17.785a17.811 17.811 0 0 1-5.215 12.625 17.811 17.811 0 0 1-12.625 5.215"/></svg>