<svg xmlns="http://www.w3.org/2000/svg" width="64" height="64"><path style="stroke:none;fill-rule:evenodd;fill:#669df6;fill-opacity:1" d="M43.254 17.2 32 10.507a7.632 7.632 0 0 1-3.332-4.563s.426-.851 1.012-.53c.586.32 9.332 5.491 14 8.265 1.68.988.64 5.332.64 5.332a2.058 2.058 0 0 0-1.066-1.813Zm0 0"/><path style="stroke:none;fill-rule:evenodd;fill:#aecbfa;fill-opacity:1" d="M46.64 33.84a.928.928 0 0 1-.425.879l-2.668 1.816V15.332c0-.719.453-1.492-.16-1.867l2.453 1.816c.601.364.957 1.028.933 1.73Zm0 0"/><path style="stroke:none;fill-rule:evenodd;fill:#669df6;fill-opacity:1" d="M32 36.266a.966.966 0 0 1-.535-.16l-9.227-5.493v2.399L32 38.828l.773-1.52s-.586-1.042-.773-1.042Zm.535 4.8a.97.97 0 0 1-1.07 0l-9.227-5.492v1.758c.004.379.192.727.508.934l8.746 5.336c.313.183.703.183 1.016 0 .242-.438.422-.903.531-1.387l-.504-1.043Zm0 0"/><path style="stroke:none;fill-rule:evenodd;fill:#aecbfa;fill-opacity:1" d="m32 33.945 9.762-5.812v-1.145a1.055 1.055 0 0 0-.508-.91l-8.746-5.332a.987.987 0 0 0-1.016 0l-8.746 5.332c-.308.2-.5.54-.508.91v1.145Zm0 0"/><path style="stroke:none;fill-rule:evenodd;fill:#669df6;fill-opacity:1" d="m32 31.547-9.254-5.469c-.308.2-.5.54-.508.91v1.145L32 33.945l.746-1.492Zm0 0"/><path style="stroke:none;fill-rule:evenodd;fill:#4285f4;fill-opacity:1" d="M32 36.266v2.668l9.762-5.813V30.72l-9.227 5.386a1.727 1.727 0 0 1-.535.16Zm.535 4.8a.966.966 0 0 1-.535.16v2.399c.195 0 .387-.047.559-.133l8.75-5.332c.324-.195.52-.555.504-.933v-1.762Zm8.719-14.988L32 31.547v2.398l9.762-5.812v-1.145a1.055 1.055 0 0 0-.508-.91Zm0 0"/><path style="stroke:none;fill-rule:evenodd;fill:#669df6;fill-opacity:1" d="m20.746 46.746 11.067 6.586a7.252 7.252 0 0 1 3.414 4.8.488.488 0 0 1-.211.493.492.492 0 0 1-.536-.012L19.945 50c-1.41-.852-.183-5.012-.183-5.012a2.043 2.043 0 0 0 .984 1.758Zm0 0"/><path style="stroke:none;fill-rule:evenodd;fill:#aecbfa;fill-opacity:1" d="M17.36 47.281V29.785c.015-.355.203-.687.507-.879l2.668-1.574v21.094c0 .722 0 1.84.559 2.215l-2.828-1.762a1.992 1.992 0 0 1-.907-1.598Zm0 0"/><path style="stroke:none;fill-rule:evenodd;fill:#669df6;fill-opacity:1" d="M27.094 14.559a2.016 2.016 0 0 0-1.973 0l-11.2 6.773a7.01 7.01 0 0 1-5.546.695.61.61 0 0 1 0-1.066c.477-.242 16.852-9.973 16.852-9.973.613-.375 1.972 3.703 1.972 3.703Zm0 0"/><path style="stroke:none;fill-rule:evenodd;fill:#aecbfa;fill-opacity:1" d="m27.066 10.879 14.188 8.402c.312.16.516.473.531.824v3.149L24 12.69a2.016 2.016 0 0 0-1.973 0l3.145-1.84a1.915 1.915 0 0 1 1.95 0Zm0 0"/><path style="stroke:none;fill-rule:evenodd;fill:#669df6;fill-opacity:1" d="M36.852 49.309c.609.355 1.367.355 1.976 0l11.2-6.641A7.013 7.013 0 0 1 55.624 42a.559.559 0 0 1 0 1.012l-16.879 10c-.586.375-1.973-3.73-1.973-3.73Zm0 0"/><path style="stroke:none;fill-rule:evenodd;fill:#aecbfa;fill-opacity:1" d="M22.691 44.668a1.51 1.51 0 0 1-.453-.883v-3.094L40 51.171a1.839 1.839 0 0 0 1.945 0l-3.144 1.868a1.854 1.854 0 0 1-1.973 0Zm0 0"/><path style="stroke:none;fill-rule:evenodd;fill:#669df6;fill-opacity:1" d="M16.691 26.16a2.021 2.021 0 0 0-.984 1.735v13.332a7.313 7.313 0 0 1-2.32 5.332.483.483 0 0 1-.512.086.484.484 0 0 1-.29-.43v-20.16c0-.746 4.106 0 4.106 0Zm0 0"/><path style="stroke:none;fill-rule:evenodd;fill:#aecbfa;fill-opacity:1" d="M26.055 17.387a.9.9 0 0 1 .957 0l2.668 1.574-16.215 9.492a2.054 2.054 0 0 0-.985 1.762v-3.707a1.918 1.918 0 0 1 1.012-1.707Zm0 0"/><path style="stroke:none;fill-rule:evenodd;fill:#669df6;fill-opacity:1" d="M48.453 35.84V22.508a7.502 7.502 0 0 1 2.238-5.336s.883-.293.829.562c-.055.852 0 19.653 0 19.653-.829.988-4.293 0-4.293 0a2.168 2.168 0 0 0 1.226-1.547Zm0 0"/><path style="stroke:none;fill-rule:evenodd;fill:#aecbfa;fill-opacity:1" d="m50.668 38.96-12.64 7.599a.922.922 0 0 1-.989 0l-2.664-1.52 16.293-9.785a2.054 2.054 0 0 0 .984-1.762v3.84c-.05.613-.984 1.629-.984 1.629Zm0 0"/></svg>