<svg xmlns="http://www.w3.org/2000/svg" width="64" height="64"><path style="stroke:none;fill-rule:evenodd;fill:#85a4e6;fill-opacity:1" d="M60 53.867H4c-2.133 0-4-1.867-4-4v-36c0-2.133 1.867-4 4-4h56c2.133 0 4 1.867 4 4v36c0 2.399-1.867 4-4 4Zm0 0"/><path style="stroke:none;fill-rule:evenodd;fill:#5c85de;fill-opacity:1" d="M60 53.867H32V10.133h28c2.133 0 4 1.867 4 4v36c0 2.133-1.867 3.734-4 3.734Zm0 0"/><path style="stroke:none;fill-rule:evenodd;fill:#5c85de;fill-opacity:1" d="M0 16h64v8H0Zm0 0"/><path style="stroke:none;fill-rule:evenodd;fill:#3367d6;fill-opacity:1" d="M32 16h32v8H32Zm0 0"/><path style="stroke:none;fill-rule:evenodd;fill:#fff;fill-opacity:1" d="M5.867 28h52v5.867h-52Zm0 0"/><path style="stroke:none;fill-rule:evenodd;fill:#5c85de;fill-opacity:1" d="M5.867 40h12v8h-12Zm0 0"/><path style="stroke:none;fill-rule:evenodd;fill:#fff;fill-opacity:1" d="M36 42.133h4v4h-4Zm8 0h4v4h-4Zm8 0h4v4h-4Zm0 0"/></svg>