<svg xmlns="http://www.w3.org/2000/svg" width="64" height="64"><path style="stroke:none;fill-rule:nonzero;fill:#669df6;fill-opacity:1" d="M39.625 30.988h5.336v.16c0 15.758-9.176 21.332-12.215 22.774V58l.668-.215c.613-.21 15.387-5.547 15.387-26.664V27.2H37.68Zm0 0"/><path style="stroke:none;fill-rule:nonzero;fill:#4285f4;fill-opacity:1" d="m37.68 27.2 1.867-3.387V6l-2.988 2.32c-6.504 4.774-13.332 13.547-12.907 23.84A21.33 21.33 0 0 0 32.72 49.2l.27.187 2-3.254-.27-.16a16.511 16.511 0 0 1-2.184-1.895L39.625 40v-9.012Zm-1.867 3.788v6.825l-5.68 3.28a17.328 17.328 0 0 1-2.668-9.12c-.344-8.88 5.683-15.598 8.297-18.078v8.851l-4.48 8.242h4.585"/><path style="stroke:none;fill-rule:nonzero;fill:#aecbfa;fill-opacity:1" d="M32.64 53.922a24.753 24.753 0 0 1-13.492-23.363v-3.493h-3.816v3.493c0 20.054 14.934 26.668 16.64 27.203l.641.238"/></svg>