<svg xmlns="http://www.w3.org/2000/svg" width="64" height="64"><path style="stroke:none;fill-rule:nonzero;fill:#3367d6;fill-opacity:1" d="M34.398 46.934a7.451 7.451 0 0 0 8.157 5.515 7.45 7.45 0 0 0 6.511-7.383c0-4-3.464-7.464-7.464-7.464-3.47 0-6.403 2.398-7.204 5.597H14.934v4h19.464Zm23.735 11.199H5.867V29.867h13.867L24 34.133h16l4-4h13.867v28Zm-37.067-11.2h-4v4h4Zm5.868 0h-4v4h4Zm10.933-1.867c0 2.133 1.598 3.735 3.735 3.735 2.132 0 3.73-1.602 3.73-3.735 0-2.132-1.598-3.734-3.73-3.734-2.137 0-3.735 1.602-3.735 3.734Zm0 0"/><path style="stroke:none;fill-rule:nonzero;fill:#5c85de;fill-opacity:1" d="M29.867 32h-4.8l-3.465-4h-11.47v-8h19.735Zm0 0"/><path style="stroke:none;fill-rule:nonzero;fill:#85a4e6;fill-opacity:1" d="M42.133 28.8 38.668 32H32V18.133H16v-4.266h26.133Zm0 0"/><path style="stroke:none;fill-rule:nonzero;fill:#85a4e6;fill-opacity:1" d="M53.867 28H44V12H26.133V8h27.734Zm0 0"/></svg>