<svg xmlns="http://www.w3.org/2000/svg" width="64" height="64"><path style="stroke:none;fill-rule:nonzero;fill:#4285f4;fill-opacity:1" d="M32 0 6.133 11.734v17.332C5.867 45.332 17.066 60.266 32 64c14.934-3.734 25.867-18.668 25.867-34.934V11.734Zm0 0"/><path style="stroke:none;fill-rule:nonzero;fill:#2879ea;fill-opacity:1" d="M57.867 32c-.265 2.133-.535 4.266-1.066 5.867-.535 2.399-1.336 4.266-1.867 5.598-.266.8-.536 1.336-.801 1.867-.531.8-.801 1.602-1.332 2.402-1.067 1.868-2.133 3.2-3.2 4.532-1.066 1.336-2.402 2.668-4 4.27-1.601 1.331-1.867 1.862-3.734 2.929-1.867 1.07-2.933 1.867-6.402 3.203-.797.531-1.863.797-3.465 1.332l-8.535-11.734V16h21.07Zm0 0"/><path style="stroke:none;fill-rule:nonzero;fill:#fff;fill-opacity:1" d="M32 8.8c8 0 14.398 6.4 14.398 14.665 0 4.8-2.132 9.07-5.863 11.734v17.336L32 44.265l-8.535 8.27V35.2c-3.465-2.664-5.863-6.933-5.863-11.734C17.602 15.199 24 8.8 32 8.8Zm0 21.868c4 0 7.2-3.203 7.2-7.203S36 16 32 16s-7.2 3.2-7.2 7.2 3.2 7.468 7.2 7.468Zm0 0"/></svg>