<svg xmlns="http://www.w3.org/2000/svg" width="64" height="64"><path style="stroke:none;fill-rule:evenodd;fill:#4285f4;fill-opacity:1" d="M55 22.266v27.433a5.287 5.287 0 0 1-1.547 3.754A5.287 5.287 0 0 1 49.7 55H22.266a5.304 5.304 0 0 1-5.305-5.3h32.738V16.96c2.942 0 5.301 2.384 5.301 5.302Zm0 0"/><path style="stroke:none;fill-rule:evenodd;fill:#4285f4;fill-opacity:1" d="M41.734 9H14.301A5.318 5.318 0 0 0 9 14.3v27.434a5.301 5.301 0 0 0 5.3 5.305h27.434a5.277 5.277 0 0 0 3.754-1.55 5.277 5.277 0 0 0 1.551-3.755V14.301C47.04 11.375 44.664 9 41.734 9Zm0 32.734H14.301V14.301h27.433Zm0 0"/><path style="stroke:none;fill-rule:nonzero;fill:#4285f4;fill-opacity:1" d="M34.867 22.621a6.777 6.777 0 0 0-1.054-2.508 6.818 6.818 0 0 0-2.954-2.504 7.2 7.2 0 0 0-2.855-.601 7.172 7.172 0 0 0-2.832.601 6.864 6.864 0 0 0-2.957 2.508c-.774 1.098-1.203 2.453-1.203 3.906 0 .508.058 1.012.175 1.504.051.227.102.477.176.703.2.598.477 1.153.825 1.653.328.472.703.926 1.152 1.328v8.82l4.664-4.386 4.683 4.386v-8.82a7.125 7.125 0 0 0 1.981-2.98c.074-.227.125-.477.176-.704.023-.05.023-.078.023-.101a6.53 6.53 0 0 0 0-2.805Zm-3.61 1.402a3.245 3.245 0 0 1-6.488 0c0-.5.102-.976.329-1.402a3.184 3.184 0 0 1 2.906-1.855 3.198 3.198 0 0 1 2.93 1.855c.226.426.324.902.324 1.402Zm0 0"/></svg>