<svg xmlns="http://www.w3.org/2000/svg" width="64" height="64"><path style="stroke:none;fill-rule:nonzero;fill:#4285f4;fill-opacity:1" d="M43.973 32 32 43.973 20.027 32 32 20.027ZM32 39.762 39.762 32 32 24.238 24.238 32Zm0 0"/><path style="stroke:none;fill-rule:nonzero;fill:#669df6;fill-opacity:1" d="M43.547 40.055h7.066L58.668 32h-7.066Zm0 0"/><path style="stroke:none;fill-rule:nonzero;fill:#aecbfa;fill-opacity:1" d="M43.547 23.945 51.602 32h7.066l-8.055-8.055Zm-23.094 0h-7.066L5.332 32h7.066Zm0 0"/><path style="stroke:none;fill-rule:nonzero;fill:#669df6;fill-opacity:1" d="m5.332 32 8.055 8.055h7.066L12.398 32Zm0 0"/><path style="stroke:none;fill-rule:nonzero;fill:#aecbfa;fill-opacity:1" d="M23.945 13.387v7.066L32 12.398V5.332Zm0 0"/><path style="stroke:none;fill-rule:nonzero;fill:#669df6;fill-opacity:1" d="M32 5.332v7.066l8.055 8.055v-7.066Zm0 0"/><path style="stroke:none;fill-rule:nonzero;fill:#aecbfa;fill-opacity:1" d="M23.945 43.547v7.066L32 58.668v-7.066Zm0 0"/><path style="stroke:none;fill-rule:nonzero;fill:#669df6;fill-opacity:1" d="M32 51.602v7.066l8.055-8.055v-7.066Zm0 0"/></svg>