<svg xmlns="http://www.w3.org/2000/svg" width="64" height="64"><path style="stroke:none;fill-rule:nonzero;fill:#5982db;fill-opacity:1" d="M62.398 32.535c0 7.73-2.933 15.465-8.796 21.332-11.735 11.735-30.668 11.735-42.403 0C-.535 42.133-.535 23.2 11.2 11.465 22.133.535 39.734-.265 51.465 9.332l-12.797 12.8C34.133 19.466 28 20 24 24c-4.8 4.8-4.8 12.266 0 17.066 4.8 4.801 12.266 4.801 17.066 0 2.399-2.398 3.47-5.332 3.47-8.53h5.862c0 4.53-1.863 9.331-5.332 12.796-6.933 6.934-18.398 6.934-25.332 0-6.933-6.934-6.933-18.664 0-25.598 6.399-6.402 16-6.933 23.2-1.867l4.265-4.265C37.602 6.132 24 6.934 15.465 15.465 6.133 24.8 6.133 40 15.465 49.332c9.336 9.336 24.535 9.336 33.867 0 4.8-4.797 6.934-10.934 6.934-17.066h6.132Zm0 0"/><path style="stroke:none;fill-rule:nonzero;fill:#3367d6;fill-opacity:1" d="M33.867 26.668c-8.535-1.066-8.8 7.465-5.867 10.133 2.934 2.398 6.133 2.398 8.535 0 1.598-1.602 2.133-3.735 1.598-5.867l17.601-17.602-4.27-4.266ZM14.398 23.465a6.93 6.93 0 0 1-6.933 6.933 6.93 6.93 0 0 1-6.93-6.933 6.928 6.928 0 0 1 6.93-6.93 6.93 6.93 0 0 1 6.933 6.93ZM56.266 53.332a6.93 6.93 0 0 1-6.934 6.934 6.933 6.933 0 0 1-6.934-6.934 6.935 6.935 0 0 1 6.934-6.934 6.933 6.933 0 0 1 6.934 6.934ZM34.398 17.332c0 2.8-2.265 5.066-5.066 5.066a5.065 5.065 0 1 1 0-10.132c2.8 0 5.066 2.27 5.066 5.066Zm0 0"/></svg>