<svg xmlns="http://www.w3.org/2000/svg" width="64" height="64"><path style="stroke:none;fill-rule:nonzero;fill:#669df6;fill-opacity:1" d="m5.332 41.492 8 6.508V16l-8 6.48Zm0 0"/><path style="stroke:none;fill-rule:nonzero;fill:#4285f4;fill-opacity:1" d="m5.332 26.668 8-5.336V16Zm8 21.332v-5.332l-8-5.336Zm0 0"/><path style="stroke:none;fill-rule:nonzero;fill:#aecbfa;fill-opacity:1" d="m21.332 53.332-16-16V48L16 58.668ZM15.973 5.36 5.332 16l.027 10.668 15.95-15.977Zm0 0"/><path style="stroke:none;fill-rule:nonzero;fill:#669df6;fill-opacity:1" d="m58.668 22.535-8-6.508v32l8-6.453Zm0 0"/><path style="stroke:none;fill-rule:nonzero;fill:#4285f4;fill-opacity:1" d="m58.668 37.36-8 5.331v5.336Zm-8-21.333v5.332l8 5.332Zm0 0"/><path style="stroke:none;fill-rule:nonzero;fill:#aecbfa;fill-opacity:1" d="m42.668 10.691 16 16V16.027L48 5.36ZM48.027 58.668l10.641-10.64-.027-10.669-15.95 15.973ZM24 32a2.666 2.666 0 1 1-5.332 0A2.666 2.666 0 1 1 24 32ZM34.668 32a2.669 2.669 0 0 1-5.336 0 2.669 2.669 0 0 1 5.336 0ZM45.309 32a2.669 2.669 0 0 1-5.336 0 2.669 2.669 0 0 1 5.336 0Zm0 0"/></svg>