<svg xmlns="http://www.w3.org/2000/svg" width="64" height="64"><path style="stroke:none;fill-rule:nonzero;fill:#4285f4;fill-opacity:1" d="M32.082 32.172a12.15 12.15 0 0 1 8.887 3.848 8.746 8.746 0 0 1 6.605-3.016h2.32c4.844 0 8.774 3.957 8.774 8.832 0 4.879-3.93 8.832-8.773 8.832H13.113a7.808 7.808 0 0 1-7.781-7.832 7.813 7.813 0 0 1 7.781-7.832h5.797a7.71 7.71 0 0 1 4.125 1.191 12.134 12.134 0 0 1 9.047-4.023Zm-13.172 6.16h-5.797c-2.468 0-4.48 2.016-4.48 4.504 0 2.488 2.012 4.508 4.48 4.508h6.817v-.239l-.02-2.777v-.137l.016-.445v-.02l.02-.3c.074-1.067.292-2.114.648-3.117l.09-.25c.14-.368.293-.727.464-1.079l.02-.035-.063-.039a4.419 4.419 0 0 0-2.195-.574Zm30.98-2h-2.32a5.451 5.451 0 0 0-4.61 2.54l.02.034c.188.375.352.758.504 1.149l.055.16c.063.172.121.347.176.52l.039.136.066.23.063.231c.195.766.312 1.55.355 2.336l.012.328.004.332v3.012h5.637a5.488 5.488 0 0 0 5.472-5.504c0-3.043-2.453-5.504-5.472-5.504Zm-9.19 5.906v.008l.003.004Zm-.552-1.578.008.008v-.008l-.02-.035ZM15.434 21.027a6.596 6.596 0 0 1 6.62 6.582 6.6 6.6 0 0 1-6.62 6.578 6.6 6.6 0 0 1-6.621-6.578 6.6 6.6 0 0 1 6.62-6.582Zm33.535-3a7.013 7.013 0 0 1 7.027 6.996 7.013 7.013 0 0 1-7.027 6.997 7.01 7.01 0 0 1-7.024-6.997 7.01 7.01 0 0 1 7.024-6.996Zm-33.535 6.325c-1.84 0-3.317 1.464-3.317 3.253 0 1.793 1.477 3.258 3.317 3.258s3.32-1.465 3.32-3.254c0-1.793-1.48-3.257-3.32-3.257Zm16.73-11.02c4.29-.008 7.773 3.461 7.781 7.746a7.765 7.765 0 0 1-7.78 7.75 7.77 7.77 0 0 1-7.782-7.75 7.77 7.77 0 0 1 7.781-7.746Zm16.805 8.02c-2.059 0-3.723 1.648-3.723 3.671 0 2.024 1.664 3.672 3.723 3.672 2.062 0 3.722-1.648 3.722-3.672 0-2.023-1.66-3.671-3.722-3.671ZM32.164 16.66c-2.48 0-4.477 1.985-4.477 4.418 0 2.438 2 4.426 4.481 4.426 2.477 0 4.477-1.988 4.477-4.426 0-2.433-2-4.418-4.48-4.418Zm-7.977 23.633.028-.05-.027.054-.008.008ZM40.5 41.551l.043.125-.023-.074-.043-.125Zm0 0-.043-.13v-.007l-.027-.074-.004-.008-.016-.047-.02-.055-.003-.007-.02-.055-.027-.07-.031-.078-.012-.02v-.004l-.016-.047.008.031-.086-.21-.016-.036-.039-.078-.023-.05.004.003-.05-.105-.013-.02-.011-.023.008.008v-.008l-.032-.063-.027-.046-.004-.004-.055-.106-.023-.05-.02-.036-.015-.023-.043-.078-.047-.086a7.426 7.426 0 0 0-.137-.239l-.137-.214-.074-.11.04.067-.118-.18a8.864 8.864 0 0 0-7.289-3.8 8.87 8.87 0 0 0-7.281 3.788l-.004.008c-.211.305-.406.621-.578.95l-.032.054-.05.105.02-.046-.055.117-.004.015-.012.02-.05.105-.024.047v.008l-.028.055-.004.015-.05.102.015-.031-.21.527c-.067.184-.126.379-.184.57l-.145.59-.015.059-.004.031-.012.063-.02.109-.015.074v.004l-.012.074v.008l-.012.066-.003.032-.004.027-.051.41a9.078 9.078 0 0 0-.043.867l.015 2.79v.234h17.72v-3.016c0-.203-.005-.406-.02-.61l-.008-.054.004.004c0-.02-.004-.039-.004-.059v.051-.054l-.008-.059-.004-.086-.008-.035-.015-.129-.008-.063v-.023l-.027-.191-.016-.098-.027-.176-.043-.207-.008-.043-.012-.047-.02-.097-.023-.098.016.086-.02-.09-.027-.11v-.003l-.055-.211-.008-.016-.02-.07-.089-.281Zm0 0"/></svg>