<svg xmlns="http://www.w3.org/2000/svg" width="64" height="64"><path style="stroke:none;fill-rule:nonzero;fill:#4285f4;fill-opacity:1" d="M34.055 33.922a2.858 2.858 0 0 1-4.055 0l-3.973-3.977 2.028-2.023L32 31.812l11.2-11.199 2.16 2.106Zm0 0"/><path style="stroke:none;fill-rule:nonzero;fill:#669df6;fill-opacity:1" d="M42.668 30.906a2.424 2.424 0 0 0-2.16 2.16 8.561 8.561 0 0 1-7.63 7.36 8.667 8.667 0 0 1-4.905-.961 8.505 8.505 0 0 1-4.38-9.195 8.51 8.51 0 0 1 7.579-6.805 8.268 8.268 0 0 1 3.226.348c.957.34 2.028.042 2.668-.747.52-.613.704-1.441.489-2.214A2.431 2.431 0 0 0 36 19.199a13.333 13.333 0 0 0-17.332 14.11 13.328 13.328 0 0 0 14.613 12.023A13.326 13.326 0 0 0 45.332 33.68a2.424 2.424 0 0 0-2.664-2.668Zm0 0"/><path style="stroke:none;fill-rule:nonzero;fill:#aecbfa;fill-opacity:1" d="M32 48a5.335 5.335 0 0 1 0 10.668A5.335 5.335 0 0 1 32 48M32 5.332A5.335 5.335 0 0 1 32 16a5.335 5.335 0 0 1 0-10.668"/><path style="stroke:none;fill-rule:nonzero;fill:#4285f4;fill-opacity:1" d="M48 53.332a2.667 2.667 0 0 1-1.895-4.531l7.227-7.227V22.426l-7.172-7.227a2.662 2.662 0 0 1 0-3.758c.5-.507 1.184-.789 1.895-.789.71 0 1.39.282 1.89.79l8 8c.48.511.739 1.19.723 1.89v21.336a2.68 2.68 0 0 1-.773 1.867l-8 8c-.5.508-1.184.797-1.895.797Zm0 0"/><path style="stroke:none;fill-rule:nonzero;fill:#669df6;fill-opacity:1" d="M16 53.332c-.71 0-1.395-.289-1.895-.797l-8-8a2.68 2.68 0 0 1-.773-1.867V21.332a2.672 2.672 0 0 1 .773-1.89l8-8c.5-.508 1.184-.79 1.895-.79a2.669 2.669 0 0 1 1.895 4.547l-7.227 7.227v19.148l7.172 7.227a2.663 2.663 0 0 1 0 3.785 2.655 2.655 0 0 1-1.84.746Zm0 0"/></svg>