<svg xmlns="http://www.w3.org/2000/svg" width="64" height="64"><path style="stroke:none;fill-rule:nonzero;fill:#669df6;fill-opacity:1" d="M38.238 30.691a7.705 7.705 0 1 1-15.41.003 7.705 7.705 0 0 1 15.41-.003Zm0 0"/><path style="stroke:none;fill-rule:nonzero;fill:#aecbfa;fill-opacity:1" d="M48.133 18.16A21.652 21.652 0 0 0 34.96 9.547l-.723 3.465a18.11 18.11 0 0 1 1.543 35.074A18.112 18.112 0 0 1 15.04 40.05a18.101 18.101 0 0 1 2.695-22.078l-2.668-2.508c-7.773 7.808-8.421 20.219-1.507 28.793 6.914 8.578 19.175 10.578 28.457 4.64 9.28-5.933 12.605-17.906 7.718-27.777a3.5 3.5 0 0 1-1.601-2.96Zm0 0"/><path style="stroke:none;fill-rule:nonzero;fill:#669df6;fill-opacity:1" d="M38.559 54.453a5.333 5.333 0 1 1 0-10.48"/><path style="stroke:none;fill-rule:nonzero;fill:#4285f4;fill-opacity:1" d="M38.559 43.973a5.335 5.335 0 1 1 0 10.48"/><path style="stroke:none;fill-rule:nonzero;fill:#669df6;fill-opacity:1" d="M51.68 21.602a3.575 3.575 0 0 1 0-7.122v-2.668a6.346 6.346 0 0 0-5.934 6.336 6.345 6.345 0 0 0 5.934 6.332Zm0 0"/><path style="stroke:none;fill-rule:nonzero;fill:#4285f4;fill-opacity:1" d="M51.68 14.48a3.574 3.574 0 0 1 0 7.122v2.664a6.346 6.346 0 0 0 0-12.664Zm0 0"/><path style="stroke:none;fill-rule:nonzero;fill:#669df6;fill-opacity:1" d="M11.254 34.078c-2.11.402-4.25-.5-5.438-2.289a5.328 5.328 0 0 1 0-5.898 5.326 5.326 0 0 1 5.438-2.29"/><path style="stroke:none;fill-rule:nonzero;fill:#4285f4;fill-opacity:1" d="M11.254 23.602a5.333 5.333 0 0 1 0 10.476"/></svg>