<svg xmlns="http://www.w3.org/2000/svg" width="64" height="64"><path style="stroke:none;fill-rule:nonzero;fill:#aecbfa;fill-opacity:1" d="M53.867 7.121H10.133a4.773 4.773 0 0 0-4.801 4.8V40.72a4.773 4.773 0 0 0 4.8 4.8h16.536v6.028h-5.336v5.332h21.336v-5.332h-5.336V45.52h16.535a4.773 4.773 0 0 0 4.801-4.801V11.922a4.776 4.776 0 0 0-4.8-4.8Zm-9.414 32H33.785v-5.336h10.668Zm0-12.11L20.266 37.149v-4.96l17.414-7.47-17.414-7.652v-4.988l24.187 9.977Zm0 0"/><path style="stroke:none;fill-rule:nonzero;fill:#4285f4;fill-opacity:1" d="M26.668 45.52h10.664v6.027H26.668Zm0 0"/><path style="stroke:none;fill-rule:nonzero;fill:#669df6;fill-opacity:1" d="M21.332 51.547h21.336v5.332H21.332Zm0 0"/></svg>