<svg xmlns="http://www.w3.org/2000/svg" width="64" height="64"><path style="stroke:none;fill-rule:nonzero;fill:#4285f4;fill-opacity:1" d="M39.52 20.508a5.492 5.492 0 0 1-10.985 0 5.493 5.493 0 1 1 10.985 0ZM35.465 43.492a5.493 5.493 0 1 1-10.985 0 5.492 5.492 0 0 1 10.985 0ZM48.988 34.027a5.493 5.493 0 0 1-5.496 5.493 5.492 5.492 0 0 1 0-10.985 5.493 5.493 0 0 1 5.496 5.492ZM26 29.973a5.492 5.492 0 0 1-5.492 5.492 5.493 5.493 0 1 1 0-10.985A5.492 5.492 0 0 1 26 29.973Zm0 0"/><path style="stroke:none;fill-rule:nonzero;fill:#669df6;fill-opacity:1" d="M27.172 20.8a3.01 3.01 0 1 1-6.024 0 3.014 3.014 0 0 1 3.012-3.015 3.014 3.014 0 0 1 3.012 3.016ZM42.852 43.2a3.014 3.014 0 0 1-3.012 3.015 3.014 3.014 0 0 1 0-6.028 3.01 3.01 0 0 1 3.012 3.012ZM23.813 39.84a3.014 3.014 0 0 1-6.027 0 3.014 3.014 0 0 1 6.027 0ZM46.215 24.16a3.014 3.014 0 0 1-6.028 0 3.014 3.014 0 0 1 6.027 0ZM33.785 10.828a4 4 0 1 1-8 0 4 4 0 0 1 8 0ZM38.215 53.172a4 4 0 1 1-8 0 4 4 0 0 1 8 0ZM14.828 34.215a4 4 0 1 1-8 0 4 4 0 0 1 8 0ZM57.172 29.785a4 4 0 1 1-8 0 4 4 0 0 1 8 0Zm0 0"/><path style="stroke:none;fill-rule:nonzero;fill:#aecbfa;fill-opacity:1" d="M48.613 13.734a4.506 4.506 0 1 1-9.012-.004 4.506 4.506 0 0 1 9.012.004ZM24.398 50.266a4.506 4.506 0 1 1-9.012.003 4.506 4.506 0 0 1 9.012-.003ZM18.453 19.602a4.504 4.504 0 0 1-4.508 4.503 4.503 4.503 0 0 1-4.504-4.503 4.504 4.504 0 0 1 4.504-4.508 4.504 4.504 0 0 1 4.508 4.508ZM54.559 44.398a4.504 4.504 0 0 1-4.504 4.508 4.504 4.504 0 0 1-4.508-4.508 4.504 4.504 0 0 1 4.508-4.503 4.503 4.503 0 0 1 4.504 4.503Zm0 0"/></svg>