<svg xmlns="http://www.w3.org/2000/svg" width="64" height="64"><path style="stroke:none;fill-rule:nonzero;fill:#aecbfa;fill-opacity:1" d="M17.121 34.668a10.451 10.451 0 0 0-9.926 10.437c0 5.57 4.364 10.16 9.926 10.442a10.455 10.455 0 0 0 9.926-10.442c0-5.566-4.367-10.156-9.926-10.437ZM16 45.574 14.32 51.2l-2.215 1.121 1.657-6.746-1.657-6.722 2.215 1.12Zm0 6.746 2.215-6.746L16 38.852l8.852 6.722Zm0 0"/><path style="stroke:none;fill-rule:nonzero;fill:#4285f4;fill-opacity:1" d="M34 8.348 19.922 33.12c1.176.274 2.308.727 3.36 1.332l10.663-18.828 11.52 20.188L34 24.16 23.625 34.668a11.613 11.613 0 0 1 2.668 2.371L34 29.332l12.188 12.375L34 36.187l-6.266 2.801a11.957 11.957 0 0 1 1.332 3.387L34 40.16l11.625 5.332H29.332a12.46 12.46 0 0 1-.586 3.63h28.402Zm0 0"/></svg>