<svg xmlns="http://www.w3.org/2000/svg" width="64" height="64"><path style="stroke:none;fill-rule:nonzero;fill:#4285f4;fill-opacity:1" d="M40.879 5.332v6.348H35.12V5.332H28.88v6.348H23.12V5.332h-6.348v6.348a5.332 5.332 0 0 0-5.093 5.093H5.332v6.348h6.348v5.707H5.332v6.344h6.348v5.707H5.332v6.348h6.348a5.332 5.332 0 0 0 5.093 5.093v6.348h6.348V52.32h5.758v6.348h6.242V52.32h5.758v6.348h6.348V52.32a5.332 5.332 0 0 0 5.093-5.093h6.348v-6.348H52.32v-5.707h6.348v-6.344H52.32v-5.707h6.348v-6.348H52.32a5.332 5.332 0 0 0-5.093-5.093V5.332Zm4.082 40.64H19.039a1.012 1.012 0 0 1-1.012-1.011V19.039c0-.559.453-1.012 1.012-1.012h25.922c.559 0 1.012.453 1.012 1.012v25.922c0 .559-.453 1.012-1.012 1.012Zm0 0"/><path style="stroke:none;fill-rule:nonzero;fill:#4285f4;fill-opacity:1" d="M34.215 20.105v9.547h5.226l-9.336 12.961v-9.68h-5.52Zm0 0"/></svg>