<svg xmlns="http://www.w3.org/2000/svg" width="64" height="64"><path style="stroke:none;fill-rule:evenodd;fill:#669df6;fill-opacity:1" d="m13.172 36.535 17.574 17.387 2.906-3.07L16.801 34.48ZM33.52 10.828l-2.907 3.094 16.559 16.586 4.75-1.016Zm0 0"/><path style="stroke:none;fill-rule:nonzero;fill:#4285f4;fill-opacity:1" d="M30.348 13.68h3.332v13.332h-3.332Zm0 24.988h3.332V52h-3.332Zm0 0"/><path style="stroke:none;fill-rule:nonzero;fill:#aecbfa;fill-opacity:1" d="M37.012 12A5.01 5.01 0 0 1 32 17.012 5.01 5.01 0 0 1 26.988 12 5.01 5.01 0 0 1 32 6.988 5.01 5.01 0 0 1 37.012 12ZM37.012 52A5.01 5.01 0 0 1 32 57.012 5.01 5.01 0 0 1 26.988 52 5.01 5.01 0 0 1 32 46.988 5.01 5.01 0 0 1 37.012 52Zm0 0"/><path style="stroke:none;fill-rule:evenodd;fill:#669df6;fill-opacity:1" d="M7.094 30.348H47.28l9.707 4.984H16.801Zm0 0"/><path style="stroke:none;fill-rule:nonzero;fill:#aecbfa;fill-opacity:1" d="M18.668 32.828A6.666 6.666 0 0 1 12 39.492a6.666 6.666 0 1 1 0-13.332 6.667 6.667 0 0 1 6.668 6.668ZM58.668 32.828A6.666 6.666 0 0 1 52 39.492a6.666 6.666 0 1 1 0-13.332 6.667 6.667 0 0 1 6.668 6.668Zm0 0"/></svg>