<svg xmlns="http://www.w3.org/2000/svg" width="64" height="64"><path style="stroke:none;fill-rule:evenodd;fill:#669df6;fill-opacity:1" d="M32 5.332v6.43l8.348 8.586v-6.453ZM52 32l-8.32 8.348h6.668L58.668 32ZM12 32l8.348 8.348H13.68L5.332 32ZM32 58.668v-6.43l8.348-8.558v6.425Zm0 0"/><path style="stroke:none;fill-rule:evenodd;fill:#aecbfa;fill-opacity:1" d="m32 5.332-8.32 8.563v6.453L32 11.762ZM50.348 23.68H43.68L52 32h6.668ZM13.68 23.68h6.668L12 32H5.332ZM32 58.668l-8.32-8.563V43.68L32 52.238ZM40.348 40.348H23.68V23.68h16.668Zm0 0"/><path style="stroke:none;fill-rule:evenodd;fill:#669df6;fill-opacity:1" d="M40.348 23.68v16.668H23.68Zm0 0"/><path style="stroke:none;fill-rule:evenodd;fill:#4285f4;fill-opacity:1" d="M40.348 23.68v16.668L32 32Zm0 0"/></svg>