<svg xmlns="http://www.w3.org/2000/svg" width="64" height="64"><path style="stroke:none;fill-rule:nonzero;fill:#aecbfa;fill-opacity:1" d="M16 21.332h10.668V10.668H8a2.666 2.666 0 0 0-2.668 2.664V56c.012.676.277 1.324.746 1.813L16 48Zm0 0"/><path style="stroke:none;fill-rule:nonzero;fill:#4285f4;fill-opacity:1" d="m42.668 48 9.918 9.922A2.667 2.667 0 0 0 53.332 56V37.332H42.668Zm0 0"/><path style="stroke:none;fill-rule:nonzero;fill:#669df6;fill-opacity:1" d="M57.895 6.078 48 16v10.668h10.668V8a2.679 2.679 0 0 0-.773-1.922Zm0 0"/><path style="stroke:none;fill-rule:nonzero;fill:#aecbfa;fill-opacity:1" d="m48 16 9.922-9.922A2.683 2.683 0 0 0 56 5.332H37.332V16Zm0 0"/><path style="stroke:none;fill-rule:nonzero;fill:#669df6;fill-opacity:1" d="M5.332 58.668 16 48h26.668l10.664 10.668Zm0 0"/></svg>