<svg xmlns="http://www.w3.org/2000/svg" width="64" height="64"><path style="stroke:none;fill-rule:evenodd;fill:#aecbfa;fill-opacity:1" d="M12.453 27.84v8.027L32 46.266v-8.028Zm0 12.398v8.028L32 58.668v-8.027Zm0 0"/><path style="stroke:none;fill-rule:evenodd;fill:#669df6;fill-opacity:1" d="m32 46.266 19.547-10.399V27.84L32 38.238Zm0 12.402 19.547-10.402v-8.028L32 50.641Zm0 0"/><path style="stroke:none;fill-rule:evenodd;fill:#4285f4;fill-opacity:1" d="M51.547 23.762v-8.028L32 5.332v8.027Zm0 0"/><path style="stroke:none;fill-rule:evenodd;fill:#669df6;fill-opacity:1" d="M32 5.332 12.453 15.734v8.028L32 13.359Zm0 0"/><path style="stroke:none;fill-rule:evenodd;fill:#aecbfa;fill-opacity:1" d="M12.453 15.652v8.055L32 34.105v-8.05Zm0 0"/><path style="stroke:none;fill-rule:evenodd;fill:#669df6;fill-opacity:1" d="m32 34.105 19.547-10.398v-8.055L32 26.055Zm0 0"/></svg>