<svg xmlns="http://www.w3.org/2000/svg" width="64" height="64"><path style="stroke:none;fill-rule:nonzero;fill:#aecbfa;fill-opacity:1" d="m14.535 22.746 8.266-8.293 8.265 8.293-8.265 8.32Zm0 0"/><path style="stroke:none;fill-rule:nonzero;fill:#669df6;fill-opacity:1" d="m5.332 32 8.27-8.32L21.867 32l-8.265 8.32Zm0 0"/><path style="stroke:none;fill-rule:nonzero;fill:#4285f4;fill-opacity:1" d="m14.535 41.254 8.266-8.32 8.265 8.32-8.265 8.32Zm0 0"/><path style="stroke:none;fill-rule:nonzero;fill:#aecbfa;fill-opacity:1" d="m32.934 22.746 8.265-8.293 8.266 8.293-8.266 8.32Zm0 0"/><path style="stroke:none;fill-rule:nonzero;fill:#669df6;fill-opacity:1" d="m42.133 32 8.265-8.32 8.27 8.32-8.27 8.32Zm0 0"/><path style="stroke:none;fill-rule:nonzero;fill:#4285f4;fill-opacity:1" d="m32.934 41.254 8.265-8.32 8.266 8.32-8.266 8.32Zm0 0"/></svg>