<svg xmlns="http://www.w3.org/2000/svg" width="64" height="64"><path style="stroke:none;fill-rule:nonzero;fill:#4285f4;fill-opacity:1" d="M17.281 25.652a.986.986 0 0 1-1.054-.918.992.992 0 0 1 .921-1.054l6.133-.852a.982.982 0 0 1 1.117.852c.082.55-.3 1.066-.851 1.148l-6.133.824Zm7.52-.87.617-1.903 11.055 3.605-.621 1.903Zm0 0"/><path style="stroke:none;fill-rule:nonzero;fill:#4285f4;fill-opacity:1" d="M24.48 24.426h-.293a.987.987 0 0 1-.64-1.227l2.215-7.574a.982.982 0 0 1 1.226-.637.96.96 0 0 1 .602.45.966.966 0 0 1 .09.75L25.44 23.68a1.019 1.019 0 0 1-.96.746ZM38.16 28.16a.966.966 0 0 1-.828-.453.962.962 0 0 1 0-1.039l4.453-11.281c.238-.453.778-.66 1.254-.48.48.187.742.702.613 1.198l-4.48 11.31c-.129.448-.543.753-1.012.745ZM15.121 44.277l10.48-8.37 1.247 1.562-10.48 8.37Zm0 0"/><path style="stroke:none;fill-rule:nonzero;fill:#4285f4;fill-opacity:1" d="m37.652 28.559.774-1.84 9.707 4.242-.801 1.812ZM37.309 38.906l1.382-1.465 8.618 8.133-1.387 1.438ZM23.434 24.3l1.96-.398 2.153 10.61-1.957.398Zm0 0"/><path style="stroke:none;fill-rule:nonzero;fill:#4285f4;fill-opacity:1" d="m26.559 36.266 10.933-9.598 1.336 1.492-10.933 9.602Zm0 0"/><path style="stroke:none;fill-rule:nonzero;fill:#4285f4;fill-opacity:1" d="m36.668 37.922.64-10.59 2 .133-.667 10.59ZM30.32 36.852a3.63 3.63 0 0 1-3.629 3.628 3.628 3.628 0 1 1 3.629-3.629Zm0 0"/><path style="stroke:none;fill-rule:nonzero;fill:#4285f4;fill-opacity:1" d="M42.613 27.625a4.296 4.296 0 0 1-4.293 4.297 4.296 4.296 0 0 1 0-8.59 4.293 4.293 0 0 1 4.293 4.293ZM40.535 38.773a2.239 2.239 0 0 1-2.242 2.239c-1.238 0-2.238-1-2.238-2.239 0-1.238 1-2.238 2.238-2.238s2.242 1 2.242 2.238ZM26.746 23.121a2.64 2.64 0 1 1-5.281 0 2.64 2.64 0 0 1 2.64-2.64c1.461 0 2.641 1.18 2.641 2.64Zm0 0"/><path style="stroke:none;fill-rule:nonzero;fill:#669df6;fill-opacity:1" d="M34.668 8h-5.336v10.668h5.336Zm10.664 0H40v10.668h5.332ZM24 8h-5.332v10.668H24Zm10.668 37.332h-5.336V56h5.336Zm10.664 0H40V56h5.332Zm-21.332 0h-5.332V56H24Zm-5.332-16H8v5.336h10.668Zm0-10.664H8V24h10.668Zm0 21.332H8v5.332h10.668ZM56 29.332H45.332v5.336H56Zm0-10.664H45.332V24H56ZM56 40H45.332v5.332H56Zm0 0"/><path style="stroke:none;fill-rule:nonzero;fill:#669df6;fill-opacity:1" d="M48 13.332H16A2.669 2.669 0 0 0 13.332 16v32A2.669 2.669 0 0 0 16 50.668h32A2.669 2.669 0 0 0 50.668 48V16A2.669 2.669 0 0 0 48 13.332Zm-2.668 30.59c0 .777-.633 1.41-1.41 1.41H20.078c-.777 0-1.41-.633-1.41-1.41V20.078c0-.777.633-1.41 1.41-1.41h23.844c.777 0 1.41.633 1.41 1.41Zm0 0"/></svg>