<svg xmlns="http://www.w3.org/2000/svg" width="64" height="64"><path style="stroke:none;fill-rule:nonzero;fill:#669df6;fill-opacity:1" d="m32 6-1.066.719v2.668l1.066.718a9.15 9.15 0 0 1 9.148 9.094v4.16a19.197 19.197 0 0 1 4.184 2.801v-6.933C45.273 11.907 39.324 6 32 6Zm0 0"/><path style="stroke:none;fill-rule:nonzero;fill:#4285f4;fill-opacity:1" d="m42.48 50.055-3.414-3.414a9.897 9.897 0 0 0 1.309-2.16 9.122 9.122 0 0 0 0-7.094 9.473 9.473 0 0 0-1.977-2.934 8.92 8.92 0 0 0-2.906-1.945 7.152 7.152 0 0 0-1.492-.48v-4.856h-4.078V32a9.192 9.192 0 0 0-1.469.508 9.339 9.339 0 0 0-2.906 1.918 9.143 9.143 0 0 0-2.426 4.402h4.238a5.165 5.165 0 0 1 1.067-1.547 4.957 4.957 0 0 1 1.601-1.066 5.034 5.034 0 0 1 5.52 1.066c.473.45.844.996 1.094 1.598a5.04 5.04 0 0 1-2.696 6.613 5.094 5.094 0 0 1-5.547-1.066 6.106 6.106 0 0 1-1.039-1.547h-4.21c.105.516.265 1.016.476 1.496A9.121 9.121 0 0 0 32 49.945a9.398 9.398 0 0 0 3.547-.746l.293-.16 3.52 3.547Zm0 0"/><path style="stroke:none;fill-rule:nonzero;fill:#aecbfa;fill-opacity:1" d="M32 6c-7.324 0-13.273 5.906-13.332 13.227v6.96a19.306 19.306 0 0 1 4.16-2.828V19.2A9.143 9.143 0 0 1 32 10.054Zm0 0"/><path style="stroke:none;fill-rule:nonzero;fill:#669df6;fill-opacity:1" d="M34.668 28a11.71 11.71 0 0 1 2.48.746c.782.309 1.524.715 2.211 1.2l.586.429 2.883-2.91a14.012 14.012 0 0 0-1.226-.797 15.285 15.285 0 0 0-2.91-1.574A16.073 16.073 0 0 0 35.413 24 16.44 16.44 0 0 0 32 23.68l-.535.32v3.762l.508.133a9.769 9.769 0 0 1 2.027 0Zm14.184 9.332a15.398 15.398 0 0 0-1.012-3.254 16.87 16.87 0 0 0-1.574-2.879c-.188-.293-.426-.586-.614-.851l-2.984 2.984c.062.074.113.156.16.242.473.7.887 1.438 1.227 2.211a13.042 13.042 0 0 1-2.188 13.735 13.802 13.802 0 0 1-3.12 2.507c-.548.34-1.118.641-1.708.907-.8.328-1.629.578-2.48.746h-.637v4.187c.48-.043.965-.113 1.437-.215a15.258 15.258 0 0 0 3.254-1.011 16.97 16.97 0 0 0 2.907-1.575 16.145 16.145 0 0 0 2.667-2.105 18.37 18.37 0 0 0 2.133-2.375A18.066 18.066 0 0 0 48 47.68c.434-1.051.773-2.14 1.012-3.254.226-1.14.34-2.301.347-3.465a19.287 19.287 0 0 0-.507-3.629Zm0 0"/><path style="stroke:none;fill-rule:nonzero;fill:#aecbfa;fill-opacity:1" d="M21.066 33.574a12.47 12.47 0 0 1 3.547-3.547 11.77 11.77 0 0 1 2.215-1.199 11.367 11.367 0 0 1 2.48-.75c.876-.176 1.77-.273 2.665-.293V23.68a17.166 17.166 0 0 0-3.493.32 15.55 15.55 0 0 0-3.226 1.012c-1.024.437-2.008.96-2.934 1.574a17.692 17.692 0 0 0-2.535 2.105 17.787 17.787 0 0 0-2.078 2.668 17.267 17.267 0 0 0-1.574 2.907c-.43.988-.77 2.015-1.012 3.066a17.853 17.853 0 0 0 0 6.934c.215 1.12.555 2.21 1.012 3.254a16.934 16.934 0 0 0 1.574 3.148 17.43 17.43 0 0 0 2.078 2.531c.817.793 1.707 1.5 2.668 2.11.91.625 1.883 1.152 2.906 1.57 1.043.457 2.137.797 3.254 1.016.453 0 .934.16 1.414.238v-4.238h-.613a11.71 11.71 0 0 1-2.48-.747c-.778-.32-1.52-.722-2.215-1.203a13.322 13.322 0 0 1-3.653-3.652c-.468-.711-.878-1.461-1.226-2.238a13.128 13.128 0 0 1 0-10.242c.312-.793.726-1.547 1.226-2.239Zm0 0"/></svg>