<svg xmlns="http://www.w3.org/2000/svg" width="64" height="64"><path style="stroke:none;fill-rule:nonzero;fill:#aecbfa;fill-opacity:1" d="M21.875 46.223a5.535 5.535 0 0 0-5.5 5.52c0 .218.023.437.04.66a5.511 5.511 0 0 0 10.941 0c.019-.223.042-.442.042-.66a5.54 5.54 0 0 0-5.523-5.52Zm0 9.015a3.508 3.508 0 1 1 .02-7.016c.933 0 1.824.372 2.48 1.036a3.498 3.498 0 0 1 1.02 2.484 3.5 3.5 0 0 1-3.5 3.5Zm25.707-43.636a5.512 5.512 0 0 0-10.98.656 5.51 5.51 0 0 0 5.507 5.512 5.51 5.51 0 0 0 5.508-5.512c.008-.219-.015-.438-.035-.656Zm-5.457 4.18a3.506 3.506 0 0 1-3.52-3.5 3.508 3.508 0 0 1 3.5-3.52 3.513 3.513 0 0 1 3.52 3.5 3.529 3.529 0 0 1-3.5 3.52ZM34 26.874A5.5 5.5 0 1 0 37.125 34 5.502 5.502 0 0 0 34 26.875ZM32 35.5a3.5 3.5 0 1 1 0-7 3.5 3.5 0 1 1 0 7Zm0 0"/><path style="stroke:none;fill-rule:nonzero;fill:#4285f4;fill-opacity:1" d="M30 37.125v4.5a8.077 8.077 0 0 1-3.719 6.8 5.518 5.518 0 0 1 1.125 3.321c0 .223-.023.441-.039.66A12.045 12.045 0 0 0 34 41.625v-4.5a5.442 5.442 0 0 1-4 0ZM17.29 20.937a5.506 5.506 0 1 0-11.012-.004 5.506 5.506 0 0 0 11.011.005ZM13.78 41.626v-8.926c0-1.105-.894-2-2-2-1.105 0-2 .895-2 2v8.926c0 4.559 2.567 8.727 6.64 10.777a5.477 5.477 0 0 1 1.087-3.976 8.075 8.075 0 0 1-3.727-6.801Zm38.438-4.066a5.506 5.506 0 1 0 0 11.012c3.039 0 5.504-2.462 5.508-5.505v-.004a5.513 5.513 0 0 0-5.508-5.503Zm-1.996-15.184v8.926a1.999 1.999 0 1 0 4 0v-8.926a12.075 12.075 0 0 0-6.641-10.773c.02.218.04.437.04.656a5.51 5.51 0 0 1-1.126 3.32 8.106 8.106 0 0 1 3.727 6.797ZM36.64 11.602A12.04 12.04 0 0 0 30 22.375v4.504a5.442 5.442 0 0 1 4 0v-4.504a8.087 8.087 0 0 1 3.719-6.8 5.498 5.498 0 0 1-1.125-3.317c.008-.219.031-.438.047-.656Zm0 0"/></svg>