<svg xmlns="http://www.w3.org/2000/svg" width="64" height="64"><path style="stroke:none;fill-rule:nonzero;fill:#4285f4;fill-opacity:1" d="M5.281 5.332h23.707v5.922H5.281Zm0 47.414h23.707v5.922H5.281Zm0-23.707h23.707v5.922H5.281ZM34.906 5.332h23.707v5.922H34.906Zm0 47.414h23.707v5.922H34.906Zm0-23.707h23.707v5.922H34.906ZM20.078 17.172h23.707v5.922H20.078Zm0 23.707h23.707V46.8H20.078ZM5.281 17.172h8.88v5.922H5.28Zm0 23.707h8.88V46.8H5.28Zm44.453-23.707h8.88v5.922h-8.88Zm0 23.707h8.88V46.8h-8.88Zm0 0"/></svg>