<svg xmlns="http://www.w3.org/2000/svg" width="64" height="64"><path style="stroke:none;fill-rule:nonzero;fill:#4285f4;fill-opacity:1" d="M26.668 45.332h10.664V56H26.668Zm0 0"/><path style="stroke:none;fill-rule:evenodd;fill:#669df6;fill-opacity:1" d="M50.668 28.906 39.094 17.36l-2.696 2.696 14.27 14.21Zm0 0"/><path style="stroke:none;fill-rule:evenodd;fill:#4285f4;fill-opacity:1" d="m41.785 25.414-5.387-5.36 2.696-2.695 2.691 2.696Zm0 0"/><path style="stroke:none;fill-rule:evenodd;fill:#aecbfa;fill-opacity:1" d="m29.172 32.64-2.692-2.695L39.094 17.36l2.691 2.696Zm0 0"/><path style="stroke:none;fill-rule:evenodd;fill:#669df6;fill-opacity:1" d="m29.172 32.64-7.625-7.6 2.719-2.692 7.601 7.597Zm0 0"/><path style="stroke:none;fill-rule:evenodd;fill:#4285f4;fill-opacity:1" d="m26.879 30.348-5.332-5.309 2.719-2.691 2.613 2.613Zm0 0"/><path style="stroke:none;fill-rule:evenodd;fill:#aecbfa;fill-opacity:1" d="m14.508 37.309 12.37-12.348-2.69-2.695-10.856 10.828v4.215Zm0 0"/><path style="stroke:none;fill-rule:evenodd;fill:#669df6;fill-opacity:1" d="M58.668 10.8A3.31 3.31 0 0 0 56 8.134H8A3.31 3.31 0 0 0 5.332 10.8v34.531A3.174 3.174 0 0 0 8 48h48a3.174 3.174 0 0 0 2.668-2.668Zm-5.336 31.868H10.668V13.332h42.664Zm-32 16c0-1.84.828-2.668 2.668-2.668h16c1.84 0 2.668.828 2.668 2.668Zm0 0"/></svg>