<svg xmlns="http://www.w3.org/2000/svg" width="64" height="64"><path style="stroke:none;fill-rule:nonzero;fill:#669df6;fill-opacity:1" d="M39.281 30.078h11.145v3.684H39.28Zm0 0"/><path style="stroke:none;fill-rule:nonzero;fill:#669df6;fill-opacity:1" d="M47.867 16.32h3.68v31.227h-3.68Zm0 0"/><path style="stroke:none;fill-rule:nonzero;fill:#4285f4;fill-opacity:1" d="M44.215 46.188h10.984c.414 0 .746.332.746.746v10.988c0 .41-.332.746-.746.746H44.215a.75.75 0 0 1-.75-.746V46.934c0-.414.336-.746.75-.746ZM44.215 5.332h10.984c.414 0 .746.336.746.746v10.988a.744.744 0 0 1-.746.747H44.215a.747.747 0 0 1-.75-.747V6.078a.75.75 0 0 1 .75-.746Zm0 0"/><path style="stroke:none;fill-rule:nonzero;fill:#669df6;fill-opacity:1" d="M18.613 30.078h11.414v3.684H18.613Zm0 0"/><path style="stroke:none;fill-rule:nonzero;fill:#4285f4;fill-opacity:1" d="M8.828 25.68h10.985c.414 0 .746.336.746.746v10.988c0 .41-.332.746-.747.746H8.829a.75.75 0 0 1-.75-.746V26.426a.75.75 0 0 1 .75-.746ZM34.668 37.785a5.865 5.865 0 1 1 0-11.73 5.867 5.867 0 0 1 5.867 5.867 5.834 5.834 0 0 1-5.867 5.863Zm0-9.52a3.68 3.68 0 0 0-3.488 2.169 3.673 3.673 0 0 0 .687 4.046 3.673 3.673 0 0 0 4.004.891A3.678 3.678 0 0 0 38.215 32a3.656 3.656 0 0 0-3.547-3.734Zm0 0"/></svg>