<svg xmlns="http://www.w3.org/2000/svg" width="64" height="64"><path style="stroke:none;fill-rule:nonzero;fill:#4285f4;fill-opacity:1" d="M47.762 27.2h-4.856L32 56h4.852l2.668-7.2h11.52l2.667 7.2h4.961ZM41.387 44l3.945-10.398L49.282 44Zm0 0"/><path style="stroke:none;fill-rule:evenodd;fill:#669df6;fill-opacity:1" d="m34.105 39.387-6.16-6.028a41.598 41.598 0 0 0 9.067-15.757h7.12V12.8H27.149V8h-4.855v4.8H5.332v4.774h27.066a37.43 37.43 0 0 1-7.68 12.852 38.585 38.585 0 0 1-5.597-8h-4.855a42.667 42.667 0 0 0 7.226 10.933L9.172 45.332l3.441 3.469 12.106-12 7.547 7.465Zm0 0"/></svg>