<svg xmlns="http://www.w3.org/2000/svg" width="64" height="64"><path style="stroke:none;fill-rule:nonzero;fill:#669df6;fill-opacity:1" d="M53.332 13.332h-8v5.336h8v32h-8V56h13.336V13.332Zm0 0"/><path style="stroke:none;fill-rule:nonzero;fill:#4285f4;fill-opacity:1" d="m53.332 21.332 5.336-2.664h-5.336ZM58.668 48l-5.336 2.668h5.336Zm0 0"/><path style="stroke:none;fill-rule:nonzero;fill:#669df6;fill-opacity:1" d="M10.668 56h8v-5.332h-8v-32h8v-5.336H5.332V56Zm0 0"/><path style="stroke:none;fill-rule:nonzero;fill:#4285f4;fill-opacity:1" d="m5.332 48 5.336 2.668H5.332Zm5.336-26.668-5.336-2.664h5.336Zm0 0"/><path style="stroke:none;fill-rule:nonzero;fill:#aecbfa;fill-opacity:1" d="M18.668 32h26.664v5.332H18.668ZM18.668 40h26.664v5.332H18.668ZM18.668 24h26.664v5.332H18.668Zm0 0"/></svg>