<svg xmlns="http://www.w3.org/2000/svg" width="64" height="64"><path style="stroke:none;fill-rule:nonzero;fill:#4285f4;fill-opacity:1" d="M17.2 48.64a8 8 0 1 1 0-16 8 8 0 0 1 0 16Zm9.679-1.066a11.813 11.813 0 0 0-13.465-17.902 11.812 11.812 0 0 0-8.082 11.18c-.039.597-.039 1.195 0 1.789.055.394.137.789.242 1.172l.16.562c.235.727.54 1.434.907 2.105.539.985 1.222 1.883 2.027 2.668l.398.399.88.719c.609.457 1.261.851 1.949 1.175A11.846 11.846 0 0 0 24 50.668l7.813 7.812a.884.884 0 0 0 1.253 0l1.762-1.734a.884.884 0 0 0 0-1.254Zm0 0"/><path style="stroke:none;fill-rule:nonzero;fill:#aecbfa;fill-opacity:1" d="M31.465 44.215c.367-1.313.547-2.668.535-4.028-.16-8.113-6.848-14.574-14.96-14.453-1.747.02-3.477.336-5.118.934V15.547a1.65 1.65 0 0 1 1.652-1.652h43.172c.918 0 1.664.734 1.68 1.652v27.121c0 .926-.75 1.68-1.68 1.68Zm0 0"/><path style="stroke:none;fill-rule:evenodd;fill:#669df6;fill-opacity:1" d="M41.547 13.895v-3.95h-11.84v3.95h-3.973V7.652A1.676 1.676 0 0 1 27.414 6H43.84a1.65 1.65 0 0 1 1.652 1.652v6.243Zm0 0"/><path style="stroke:none;fill-rule:evenodd;fill:#4285f4;fill-opacity:1" d="m41.547 13.895 3.945-1.254v1.254ZM25.707 13.895l3.973-1.442v1.442Zm0 0"/></svg>