<svg xmlns="http://www.w3.org/2000/svg" width="64" height="64"><path style="stroke:none;fill-rule:nonzero;fill:#aecbfa;fill-opacity:1" d="M16 20.934v10.078c-.04.668-.04 1.336 0 2a20.225 20.225 0 0 0 6.398 12.32 19.566 19.566 0 0 0 9.149 4.961H32V40.32A8.322 8.322 0 0 1 23.68 32 8.322 8.322 0 0 1 32 23.68V13.492Zm37.922 8.988a2.077 2.077 0 1 1 0 4.156 2.078 2.078 0 1 1 0-4.156m0-2A4.08 4.08 0 0 0 49.84 32a4.08 4.08 0 0 0 4.082 4.078 4.079 4.079 0 0 0 0-8.156Zm0 0"/><path style="stroke:none;fill-rule:nonzero;fill:#4285f4;fill-opacity:1" d="M32 13.492V23.68A8.322 8.322 0 0 1 40.32 32 8.322 8.322 0 0 1 32 40.32v10.028h.453a19.572 19.572 0 0 0 9.149-5.016 20.219 20.219 0 0 0 6.238-12.266c.039-.664.039-1.332 0-2V20.934Zm21.922-.933a2.08 2.08 0 1 1-.005 4.16 2.08 2.08 0 0 1 .005-4.16m0-2a4.08 4.08 0 1 0 0 8.16A4.079 4.079 0 0 0 58 14.64a4.052 4.052 0 0 0-4.078-3.973ZM10.078 47.28c1.152 0 2.082.93 2.082 2.078a2.08 2.08 0 1 1-2.082-2.078m0-2a4.071 4.071 0 0 0-3.785 2.5 4.076 4.076 0 0 0 .867 4.453 4.083 4.083 0 0 0 4.45.899 4.08 4.08 0 0 0 2.523-3.774 4.08 4.08 0 0 0-4.055-4.027Zm0 0"/><path style="stroke:none;fill-rule:nonzero;fill:#aecbfa;fill-opacity:1" d="M10.078 29.922a2.078 2.078 0 1 1 0 4.156 2.077 2.077 0 1 1 0-4.156m0-2a4.066 4.066 0 0 0-3.785 2.5 4.076 4.076 0 0 0 .867 4.453 4.083 4.083 0 0 0 4.45.898A4.085 4.085 0 0 0 14.132 32a4.076 4.076 0 0 0-4.055-4.078Zm0 0"/><path style="stroke:none;fill-rule:nonzero;fill:#669df6;fill-opacity:1" d="M50 31.012h-2c.04.668.04 1.336 0 2h2.16A4.35 4.35 0 0 1 49.867 32a4.04 4.04 0 0 1 .133-.988Zm-36 2h2.16c-.039-.664-.039-1.332 0-2H14c.04.328.04.66 0 .988.04.336.04.676 0 1.012Zm4.32-19.387H14c.04.34.04.68 0 1.016.04.328.04.66 0 .984h3.734l4 2.668L24 17.281Zm31.68 0h-4.32l-5.547 3.656 2.133 1.012 4-2.668H50a3.985 3.985 0 0 1-.133-.984c.004-.344.047-.684.133-1.016ZM24 46.641a19.663 19.663 0 0 1-1.602-1.309l-4.664 3.043H14c.04.324.04.656 0 .984.04.336.04.676 0 1.016h4.32Zm26 1.734h-3.734l-4.664-3.043c-.5.484-1.028.938-1.575 1.36l5.653 3.734H50a4.032 4.032 0 0 1 0-2.05ZM32 27.68A4.32 4.32 0 0 0 27.68 32 4.32 4.32 0 0 0 32 36.32 4.32 4.32 0 0 0 36.32 32 4.35 4.35 0 0 0 32 27.68Zm0 0"/><path style="stroke:none;fill-rule:nonzero;fill:#669df6;fill-opacity:1" d="M53.922 47.281a2.08 2.08 0 1 1-.005 4.16 2.08 2.08 0 0 1 .005-4.16m0-2a4.08 4.08 0 1 0 0 8.16A4.082 4.082 0 0 0 58 49.36a4.08 4.08 0 0 0-4.078-4.027ZM10.078 12.56c1.152 0 2.082.933 2.082 2.082 0 1.148-.93 2.078-2.082 2.078a2.08 2.08 0 0 1 0-4.16m0-2a4.083 4.083 0 0 0-2.918 6.957 4.074 4.074 0 0 0 4.45.894 4.075 4.075 0 0 0 2.523-3.77 4.052 4.052 0 0 0-4.055-3.972Zm0 0"/></svg>