<svg xmlns="http://www.w3.org/2000/svg" width="64" height="64"><path style="stroke:none;fill-rule:evenodd;fill:#4285f4;fill-opacity:1" d="M32.922 5.332c1.894 0 3.492 1.05 4.8 2.82 1.067 1.442 1.989 3.434 2.747 5.875 1.5 4.801 2.347 11.211 2.347 18.035 0 6.825-.847 13.235-2.347 18.036-.758 2.445-1.68 4.433-2.746 5.875-1.309 1.77-2.907 2.82-4.801 2.82-4.328 0-7.004-3.781-8.43-10.234a1.847 1.847 0 0 1-.039-.586h4.348c.586 2.613 1.32 5.175 2.14 6.027.547.566 1.102.77 1.98.77.024-.004.048-.008.071-.016a.867.867 0 0 0 .23-.121c.27-.176.583-.485.91-.93.77-1.043 1.516-2.656 2.161-4.723 1.379-4.41 2.176-10.453 2.176-16.917 0-6.465-.801-12.508-2.176-16.918-.645-2.067-1.39-3.68-2.16-4.72a3.693 3.693 0 0 0-.91-.933.855.855 0 0 0-.23-.117c-.024-.012-.048-.016-.071-.02-.707 0-1.332.336-2.016 1.239-.867 1.152-1.625 3.031-2.215 5.68h-4.425c.703-3.555 1.718-6.184 3.078-7.985 1.46-1.937 3.383-2.957 5.578-2.957Zm.586 33.336v4.023h-21.13a2.009 2.009 0 0 1-2.01-2.011c0-1.114.898-2.012 2.01-2.012Zm23.148-4.277c1.114 0 2.012.898 2.012 2.011a2.009 2.009 0 0 1-2.012 2.012h-9.984c.164-1.309.281-2.652.351-4.023Zm-23.148-4.278v4.024H7.348a2.012 2.012 0 1 1 0-4.024ZM46.8 25.836h9.851c1.059 0 1.938.816 2.012 1.875a2.018 2.018 0 0 1-1.734 2.133l-.278.02H47.07a53.2 53.2 0 0 0-.27-4.028Zm-13.293-4.277v4.027h-21.13a2.018 2.018 0 0 1-2.01-1.875 2.018 2.018 0 0 1 1.737-2.133l.274-.02Zm0 0"/></svg>