<svg xmlns="http://www.w3.org/2000/svg" width="64" height="64"><path style="stroke:none;fill-rule:nonzero;fill:#669df6;fill-opacity:1" d="m16 32 16 13.309v8.023L5.332 32ZM32 45.309 48 32h10.668L32 53.332Zm0 0"/><path style="stroke:none;fill-rule:nonzero;fill:#aecbfa;fill-opacity:1" d="M5.332 32 32 10.668v8.023L16 32ZM32 18.691 48 32h10.668L32 10.668Zm0 0"/><path style="stroke:none;fill-rule:nonzero;fill:#4285f4;fill-opacity:1" d="M37.332 32A5.331 5.331 0 0 1 32 37.332 5.331 5.331 0 0 1 26.668 32 5.331 5.331 0 0 1 32 26.668 5.331 5.331 0 0 1 37.332 32Zm0 0"/></svg>