<svg xmlns="http://www.w3.org/2000/svg" width="64" height="64"><path style="stroke:none;fill-rule:nonzero;fill:#669df6;fill-opacity:1" d="M28.879 42.238h6.215v7.043h-6.215Zm0 0"/><path style="stroke:none;fill-rule:nonzero;fill:#4285f4;fill-opacity:1" d="M49.281 36.988a1.512 1.512 0 0 1-1.066-.453L37.332 25.254l-7.305 7.707a1.521 1.521 0 0 1-2.027.133l-5.547-4.48-5.867 7.784c-.285.375-.73.594-1.2.59H5.333v4.559c0 1.094.879 1.984 1.977 2H56.69a2.002 2.002 0 0 0 1.977-2v-4.559Zm0 0"/><path style="stroke:none;fill-rule:nonzero;fill:#669df6;fill-opacity:1" d="m14.668 34.027 6.344-8.425c.238-.325.593-.536.988-.59.398-.028.797.086 1.121.32l5.652 4.59 7.465-7.844a1.452 1.452 0 0 1 1.07-.453c.403-.004.79.16 1.067.453l11.547 11.95h8.746V16c0-1.09-.887-1.973-1.977-1.973H7.31c-1.09 0-1.977.883-1.977 1.973v18.16Zm0 0"/><path style="stroke:none;fill-rule:nonzero;fill:#4285f4;fill-opacity:1" d="M23.922 48.48h16.183c.442 0 .801.36.801.801v.028c0 .441-.36.796-.8.796H23.921a.796.796 0 0 1-.8-.796v-.028a.8.8 0 0 1 .8-.8Zm0 0"/></svg>