<svg xmlns="http://www.w3.org/2000/svg" width="64" height="64"><path style="stroke:none;fill-rule:evenodd;fill:#669df6;fill-opacity:1" d="M43.68 15.387 30.105 48.586l3.79-33.2Zm0 0"/><path style="stroke:none;fill-rule:evenodd;fill:#aecbfa;fill-opacity:1" d="m33.895 15.387-3.79 33.199H20.32Zm-24 23.68L6 48.585h6.852l1.093-9.52Zm5.652-13.758-1.094 9.543h-2.851Zm0 0"/><path style="stroke:none;fill-rule:evenodd;fill:#669df6;fill-opacity:1" d="m25.281 25.309-.027.078-3.867 9.465h-6.934l1.094-9.543ZM58 15.387 44.398 48.613l3.817-33.226Zm0 0"/><path style="stroke:none;fill-rule:evenodd;fill:#aecbfa;fill-opacity:1" d="m48.215 15.387-3.817 33.226h-9.785Zm0 0"/><path style="stroke:none;fill-rule:evenodd;fill:#669df6;fill-opacity:1" d="m19.68 39.066-3.918 9.52h-2.91l1.093-9.52Zm0 0"/></svg>