<svg xmlns="http://www.w3.org/2000/svg" width="64" height="64"><path style="stroke:none;fill-rule:evenodd;fill:#4285f4;fill-opacity:1" d="M58.668 5.332v20H43.305l-.004.125a11.413 11.413 0 0 1-8.29 10.27l-.542.144v22.797h-4.73v-2.117h-4.524v-4.606h4.523v-4.402h-6.793V42.93h6.793v-6.985a11.285 11.285 0 0 1-9.05-10.605h4.652a6.605 6.605 0 1 1 13.176 0H25.34a6.6 6.6 0 0 0 6.59 6.144 6.6 6.6 0 0 0 6.586-6.144l4.789-.004.015-.434A11.287 11.287 0 0 0 33.31 13.715l-.551-.055-.555-.02-.55.005A11.304 11.304 0 0 0 20.687 25.34l-15.356-.008v-20Zm0 0"/></svg>