<svg xmlns="http://www.w3.org/2000/svg" width="64" height="64"><path style="stroke:none;fill-rule:nonzero;fill:#4285f4;fill-opacity:1" d="M40.8 29.785v4.43h12v-4.43ZM26.294 15.707h-7.625v4.453h10.48a26.883 26.883 0 0 0-2.855-4.453Zm3.039 28.133h-9.066v4.453h6.109a28.515 28.515 0 0 0 2.957-4.453ZM32 32c.043-.738.043-1.477 0-2.215H12v4.43h20c.043-.738.043-1.477 0-2.215Zm0 0"/><path style="stroke:none;fill-rule:nonzero;fill:#669df6;fill-opacity:1" d="M9.785 33.281a1.286 1.286 0 0 1-1.2-.773 1.277 1.277 0 0 1 1.657-1.692 1.281 1.281 0 0 1-.457 2.465Zm0-5.734a4.454 4.454 0 1 0-.051 8.908 4.454 4.454 0 0 0 .051-8.908Zm6.668 19.785a1.281 1.281 0 0 1-1.203-.77 1.293 1.293 0 0 1 .262-1.406 1.284 1.284 0 0 1 1.398-.289c.48.2.797.668.797 1.188.008.336-.121.66-.36.902a1.243 1.243 0 0 1-.894.375Zm0-5.707a4.457 4.457 0 0 0-3.176 7.605 4.449 4.449 0 0 0 4.868.957 4.453 4.453 0 0 0-1.691-8.563Zm0-22.426c-.523.012-1-.297-1.203-.777a1.272 1.272 0 0 1 .273-1.406 1.279 1.279 0 0 1 2.184.93c0 .695-.562 1.253-1.254 1.253Zm0-5.707a4.447 4.447 0 0 0-4.14 2.117 4.444 4.444 0 0 0 0 4.649 4.447 4.447 0 0 0 4.14 2.117 4.455 4.455 0 0 0 0-8.883Zm0 0"/><path style="stroke:none;fill-rule:nonzero;fill:#4285f4;fill-opacity:1" d="M49.785 38.668V25.332L58.668 32Zm-24.453 20-2.293-4A28.632 28.632 0 0 0 34.215 32 29.048 29.048 0 0 0 23.012 9.332l2.32-4A33.421 33.421 0 0 1 38.668 32a33.238 33.238 0 0 1-13.336 26.668Zm0 0"/></svg>