<svg xmlns="http://www.w3.org/2000/svg" width="64" height="64"><path style="stroke:none;fill-rule:nonzero;fill:#669df6;fill-opacity:1" d="M53.332 56a2.68 2.68 0 0 1-1.867-.773l-5.332-5.332a2.668 2.668 0 0 1 3.762-3.762l5.332 5.332a2.667 2.667 0 0 1 0 3.762c-.504.5-1.184.777-1.895.773Zm-42.664 0a2.667 2.667 0 0 1-1.867-4.559l5.332-5.336c.5-.503 1.183-.789 1.894-.789.711 0 1.391.286 1.895.79a2.674 2.674 0 0 1 0 3.761L12.586 55.2c-.504.516-1.2.805-1.918.801Zm0 0"/><path style="stroke:none;fill-rule:nonzero;fill:#4285f4;fill-opacity:1" d="m14.586 45.68-3.254 3.254a29.687 29.687 0 0 0 3.79 3.757l3.253-3.25Zm38.027 3.148-2.668-2.668a3.02 3.02 0 0 0-.613-.426l-3.57 3.575c.117.218.258.425.425.613l2.665 2.664a29.472 29.472 0 0 0 3.761-3.758Zm0 0"/><path style="stroke:none;fill-rule:nonzero;fill:#669df6;fill-opacity:1" d="M32 56C18.746 56 8 45.254 8 32S18.746 8 32 8s24 10.746 24 24-10.746 24-24 24Zm0-5.332c10.309 0 18.668-8.36 18.668-18.668 0-10.309-8.36-18.668-18.668-18.668-10.309 0-18.668 8.36-18.668 18.668 0 10.309 8.36 18.668 18.668 18.668Zm0 0"/><path style="stroke:none;fill-rule:nonzero;fill:#4285f4;fill-opacity:1" d="M32 45.332c7.363 0 13.332-5.969 13.332-13.332S39.363 18.668 32 18.668V32l-10.879 7.762A13.33 13.33 0 0 0 32 45.332Zm0 0"/><path style="stroke:none;fill-rule:nonzero;fill:#aecbfa;fill-opacity:1" d="M10.668 16.188a2.675 2.675 0 0 1-2.48-1.645c-.415-1-.184-2.152.585-2.918l5.332-5.332a2.672 2.672 0 0 1 3.79 0 2.674 2.674 0 0 1 0 3.762l-5.336 5.332a2.668 2.668 0 0 1-1.891.8Zm42.664 0a2.668 2.668 0 0 1-1.89-.801l-5.337-5.332a2.674 2.674 0 0 1 0-3.762 2.672 2.672 0 0 1 3.79 0l5.332 5.332c.77.766 1 1.918.586 2.918a2.675 2.675 0 0 1-2.481 1.645Zm0 0"/></svg>