<svg xmlns="http://www.w3.org/2000/svg" width="64" height="64"><path style="stroke:none;fill-rule:nonzero;fill:#aecbfa;fill-opacity:1" d="m26.027 54.934-2.773-2.801L37.785 37.52l2.774 2.8Zm-7.28-6.082-2.774-2.797 19.601-19.707 2.774 2.8Zm-4.509-8.907-2.773-2.797 13.015-13.07 2.774 2.8Zm0 0"/><path style="stroke:none;fill-rule:nonzero;fill:#669df6;fill-opacity:1" d="m32 9.625 18.078 8v12.137A25.888 25.888 0 0 1 32 54.613a25.862 25.862 0 0 1-18.078-24.828V17.68L32 9.68m0-4.348-22 9.816v14.637c-.11 13.387 8.727 25.203 21.602 28.883h.796C45.223 55 54.047 43.258 54 29.922V15.148Zm0 0"/><path style="stroke:none;fill-rule:nonzero;fill:#669df6;fill-opacity:1" d="M42.96 38.988a3.787 3.787 0 1 1-7.573-.003 3.787 3.787 0 0 1 7.574.003ZM40.719 27.867a3.786 3.786 0 1 1-3.785-3.789 3.787 3.787 0 0 1 3.785 3.79ZM29.625 25.602a3.786 3.786 0 1 1-3.785-3.79 3.787 3.787 0 0 1 3.785 3.79Zm0 0"/></svg>