<svg xmlns="http://www.w3.org/2000/svg" width="64" height="64"><path style="stroke:none;fill-rule:evenodd;fill:#669df6;fill-opacity:1" d="M35.574 34.027V22.398h-7.148v11.63L18.375 39.84l3.57 6.187L32 40.215l10.055 5.812 3.57-6.187Zm0 0"/><path style="stroke:none;fill-rule:evenodd;fill:#4285f4;fill-opacity:1" d="M35.574 34.027V22.398H32v13.657l-11.84 6.879 1.785 3.093L32 40.215l10.055 5.812 3.57-6.187Zm0 0"/><path style="stroke:none;fill-rule:evenodd;fill:#aecbfa;fill-opacity:1" d="m28.398 7.387-5.41 3.254v9.945L32 25.465v-8.293l-3.602-1.652Zm0 0"/><path style="stroke:none;fill-rule:evenodd;fill:#669df6;fill-opacity:1" d="M35.602 15.52 32 17.172v8.293l9.012-4.88v-9.944l-5.41-3.254Zm12.773 30.027-.215 3.707 7.2 4.078-5.813 3.203-8.64-4.988.292-10.215L49.922 36l8.746 5.012v6.64l-7.176-4.132Zm-32.75 0-3.117-2.027-7.176 4.132v-6.64l8.613-4.985 8.723 5.332.293 10.215-8.508 5.04-5.812-3.282 7.199-4.16Zm0 0"/><path style="stroke:none;fill-rule:evenodd;fill:#aecbfa;fill-opacity:1" d="m58.668 47.652-.133-6.64-8.613-4.957-8.723 5.36 7.176 4.132 3.09-2.027Zm-53.336 0 7.203-4.132 3.09 2.027 7.176-4.133-8.723-5.36-8.613 4.958Zm0 0"/></svg>