<svg xmlns="http://www.w3.org/2000/svg" width="64" height="64"><path style="stroke:none;fill-rule:nonzero;fill:#669df6;fill-opacity:1" d="M46.64 33.066v17.868c0 .59-.476 1.066-1.066 1.066H13.066c-.59 0-1.066-.477-1.066-1.066V18.398c0-.585.477-1.066 1.066-1.066h17.868c.59 0 1.066-.477 1.066-1.066v-4.532c0-.59-.477-1.066-1.066-1.066H6.398c-.585 0-1.066.477-1.066 1.066v45.868c0 .586.48 1.066 1.066 1.066h45.868c.59 0 1.066-.48 1.066-1.066V33.066c0-.59-.477-1.066-1.066-1.066h-4.559c-.59 0-1.066.477-1.066 1.066Zm0 0"/><path style="stroke:none;fill-rule:nonzero;fill:#4285f4;fill-opacity:1" d="M37.332 6.398v19.204c0 .585.48 1.066 1.066 1.066h19.204a1.07 1.07 0 0 0 1.066-1.066V6.398a1.07 1.07 0 0 0-1.066-1.066H38.398a1.07 1.07 0 0 0-1.066 1.066Zm14.934 10.934h-4.559c-.59 0-1.066-.477-1.066-1.066v-4.532c0-.59.476-1.066 1.066-1.066h4.559c.59 0 1.066.477 1.066 1.066v4.532c0 .59-.477 1.066-1.066 1.066Zm0 0"/></svg>