<svg xmlns="http://www.w3.org/2000/svg" width="64" height="64"><path style="stroke:none;fill-rule:nonzero;fill:#aecbfa;fill-opacity:1" d="M24 24h16v16H24Zm0 0"/><path style="stroke:none;fill-rule:nonzero;fill:#669df6;fill-opacity:1" d="M29.332 5.332h5.336V16h-5.336Zm-10.664 0H24V16h-5.332Zm21.332 0h5.332V16H40Zm0 0"/><path style="stroke:none;fill-rule:nonzero;fill:#4285f4;fill-opacity:1" d="M29.332 48h5.336v10.668h-5.336Zm-10.664 0H24v10.668h-5.332ZM40 48h5.332v10.668H40Zm8-13.332v-5.336h10.668v5.336Zm0 10.664V40h10.668v5.332ZM48 24v-5.332h10.668V24Zm0 0"/><path style="stroke:none;fill-rule:nonzero;fill:#669df6;fill-opacity:1" d="M5.332 34.668v-5.336H16v5.336Zm0 10.664V40H16v5.332Zm0-21.332v-5.332H16V24Zm0 0"/><path style="stroke:none;fill-rule:nonzero;fill:#aecbfa;fill-opacity:1" d="M13.332 13.332v37.336h37.336V13.332Zm32 32H18.668V18.668h26.664Zm0 0"/><path style="stroke:none;fill-rule:nonzero;fill:#669df6;fill-opacity:1" d="M24 40h16l-8-8Zm0 0"/><path style="stroke:none;fill-rule:nonzero;fill:#4285f4;fill-opacity:1" d="m32 32 8 8V24Zm0 0"/></svg>