<svg xmlns="http://www.w3.org/2000/svg" width="64" height="64"><path style="stroke:none;fill-rule:nonzero;fill:#4285f4;fill-opacity:1" d="M15.36 23.04v10.347A21.758 21.758 0 0 0 32 54.105V15.281Zm0 0"/><path style="stroke:none;fill-rule:nonzero;fill:#aecbfa;fill-opacity:1" d="m32 54.105 1.762-.503A21.767 21.767 0 0 0 48.64 33.387V23.039L32 15.281ZM47.441 11.04a8.513 8.513 0 0 0-.773 0l2.21-2.664-1.519-1.281-4.453 5.332 5.332 4.426 1.282-1.52-2.668-2.266a6.88 6.88 0 0 1 .695 0 7.04 7.04 0 0 1 7.039 7.04 6.908 6.908 0 0 1-.773 3.175l1.468 1.492.239-.347a9.29 9.29 0 0 0 1.066-4.32 9.038 9.038 0 0 0-2.676-6.446 9.034 9.034 0 0 0-6.469-2.62Zm0 0"/><path style="stroke:none;fill-rule:nonzero;fill:#4285f4;fill-opacity:1" d="m15.121 47.2-1.629 1.175 2.028 2.824c-.239.016-.48.016-.72 0a7.035 7.035 0 0 1-3.546-11.437l-1.04-1.817a3.456 3.456 0 0 0-.292.293 9.017 9.017 0 0 0-2.047 8.696 9.018 9.018 0 0 0 6.445 6.187c.254.055.512.102.774.133l-2.668 1.973 1.176 1.625 5.625-4Zm0 0"/></svg>