<svg xmlns="http://www.w3.org/2000/svg" width="64" height="64"><path style="stroke:none;fill-rule:nonzero;fill:#aecbfa;fill-opacity:1" d="M23.996 18.703h5.336v10.664h-5.336Zm10.668 0h5.332v10.664h-5.332Zm0 0"/><path style="stroke:none;fill-rule:nonzero;fill:#aecbfa;fill-opacity:1" d="M21.332 50.48a21.317 21.317 0 0 1-9.937-23.984A21.308 21.308 0 0 1 32 10.703V5.367c-12.613.02-23.488 8.871-26.066 21.219C3.355 38.93 9.78 51.395 21.332 56.457Zm0 0"/><path style="stroke:none;fill-rule:nonzero;fill:#4285f4;fill-opacity:1" d="M29.332 45.367h5.332V58.7h-5.332Zm0 0"/><path style="stroke:none;fill-rule:nonzero;fill:#4285f4;fill-opacity:1" d="M45.309 26.703H18.668v7.832c0 7.367 5.973 13.344 13.344 13.344 7.367 0 13.343-5.977 13.343-13.344Zm0 0"/><path style="stroke:none;fill-rule:nonzero;fill:#669df6;fill-opacity:1" d="M32 48.031c-7.406-.054-13.367-6.093-13.332-13.496v-7.832H32"/><path style="stroke:none;fill-rule:nonzero;fill:#4285f4;fill-opacity:1" d="M32 5.367c12.621.004 23.512 8.86 26.09 21.215 2.582 12.355-3.856 24.828-15.422 29.883v-5.98a21.322 21.322 0 0 0 9.937-23.989A21.316 21.316 0 0 0 32 10.7Zm0 0"/></svg>