<svg xmlns="http://www.w3.org/2000/svg" width="64" height="64"><path style="stroke:none;fill-rule:evenodd;fill:#4285f4;fill-opacity:1" d="M20.727 11.734v10.653h.011l-.011.008v13.972l8.234 4.774-9.086 5.386-6.156-3.574a3.503 3.503 0 0 1-1.758-3.035V18.844c0-1.25.672-2.407 1.758-3.043Zm22.277 14.22 8.957 5.358v8.672a3.535 3.535 0 0 1-1.75 3.051L31.96 53.727l-.055-.036.04.036-7.876 4.648a.888.888 0 0 1-1.34-.758l-.02-9.144 9.423-5.637-.028-.043 10.899-6.367ZM33.777 5.987l16.547 9.633a3.523 3.523 0 0 1 1.762 3.047v8.906l-9.27-5.512-.011.016-10.961-6.363-8.133 4.719v-10.7l6.437-3.746a3.61 3.61 0 0 1 3.63 0Zm0 0"/></svg>