<svg xmlns="http://www.w3.org/2000/svg" width="64" height="64"><path style="stroke:none;fill-rule:nonzero;fill:#4285f4;fill-opacity:1" d="M32 5.332C17.273 5.332 5.332 17.273 5.332 32c0 14.727 11.941 26.668 26.668 26.668 14.727 0 26.668-11.941 26.668-26.668C58.668 17.273 46.727 5.332 32 5.332Zm0 48c-3.934 0-7.793-1.09-11.148-3.145l9.546-5.519v-12l-10.37-6v12.05l7.331 4.243-9.226 5.332a21.33 21.33 0 0 1-7.473-18.375 21.324 21.324 0 0 1 10.887-16.586V24L32 30.078 42.398 24 32 18.055l-7.36 4.238V11.922a21.317 21.317 0 0 1 16.348.558 21.34 21.34 0 0 1 11.145 11.973A21.633 21.633 0 0 1 53.493 32v.188l-9.598-5.52-10.403 6.023V44.72l10.403-6v-8.48l9.199 5.335C51.348 45.852 42.426 53.364 32 53.332Zm0 0"/></svg>