<svg xmlns="http://www.w3.org/2000/svg" width="64" height="64"><path style="stroke:none;fill-rule:evenodd;fill:#aecbfa;fill-opacity:1" d="M17.785 8 5.332 15.36v33.28L17.785 56v-6.398l-7.117-4.215V18.613l7.117-4.215ZM24.879 24.375 32 28.559l7.121-4.184v-8.43L32 11.762l-7.121 4.183Zm0 0"/><path style="stroke:none;fill-rule:evenodd;fill:#669df6;fill-opacity:1" d="M24.879 15.945v8.43L32 28.559l7.121-4.184v-8.43L32 20.16Zm0 0"/><path style="stroke:none;fill-rule:evenodd;fill:#4285f4;fill-opacity:1" d="m32 28.559 7.121-4.184v-8.43L32 20.16Zm0 0"/><path style="stroke:none;fill-rule:evenodd;fill:#aecbfa;fill-opacity:1" d="m33.785 41.68 7.094 4.187L48 41.68v-8.426l-7.121-4.215-7.094 4.215Zm0 0"/><path style="stroke:none;fill-rule:evenodd;fill:#669df6;fill-opacity:1" d="M33.785 33.254v8.426l7.094 4.187L48 41.68v-8.426l-7.121 4.21Zm0 0"/><path style="stroke:none;fill-rule:evenodd;fill:#4285f4;fill-opacity:1" d="M40.879 45.867 48 41.68v-8.426l-7.121 4.21Zm0 0"/><path style="stroke:none;fill-rule:evenodd;fill:#aecbfa;fill-opacity:1" d="m16 41.68 7.121 4.187 7.094-4.187v-8.426l-7.094-4.215L16 33.254Zm0 0"/><path style="stroke:none;fill-rule:evenodd;fill:#669df6;fill-opacity:1" d="M16 33.254v8.426l7.121 4.187 7.094-4.187v-8.426l-7.094 4.21Zm0 0"/><path style="stroke:none;fill-rule:evenodd;fill:#4285f4;fill-opacity:1" d="m23.121 45.867 7.094-4.187v-8.426l-7.094 4.21Zm0 0"/><path style="stroke:none;fill-rule:evenodd;fill:#669df6;fill-opacity:1" d="M5.332 21.785v20.453l5.336 3.149V18.613Zm0 0"/><path style="stroke:none;fill-rule:evenodd;fill:#4285f4;fill-opacity:1" d="m5.332 21.785 5.336-1.226v-1.946ZM10.668 45.387V43.84l-5.336-1.602Zm0 0"/><path style="stroke:none;fill-rule:evenodd;fill:#aecbfa;fill-opacity:1" d="M46.215 8v6.398l7.117 4.215v26.774l-7.117 4.215V56l12.453-7.36V15.36Zm0 0"/><path style="stroke:none;fill-rule:evenodd;fill:#669df6;fill-opacity:1" d="m53.332 45.387 5.336-3.149V21.785l-5.336-3.172Zm0 0"/><path style="stroke:none;fill-rule:evenodd;fill:#4285f4;fill-opacity:1" d="m53.332 20.559 5.336 1.226-5.336-3.172ZM53.332 43.84v1.547l5.336-3.149Zm0 0"/></svg>