<svg xmlns="http://www.w3.org/2000/svg" width="64" height="64"><path style="stroke:none;fill-rule:nonzero;fill:#4285f4;fill-opacity:1" d="m12.508 20.535 12.504-7.226V6.055L6 17.012l1.04 1.281 4.32 2.348Zm0 0"/><path style="stroke:none;fill-rule:evenodd;fill:#aecbfa;fill-opacity:1" d="M25.012 46.293 6 35.332v-6.906l19.012 10.988Zm0 4.719L6 40v6.934l19.012 10.988Zm0-23.227-12.504-7.25L6 17.012v6.668l19.012 10.988"/><path style="stroke:none;fill-rule:evenodd;fill:#669df6;fill-opacity:1" d="M25.012 57.945 43.68 47.281v-7.015L25.012 50.934m0-11.602L43.68 28.668h5.547v6.21h-4.48L25.011 46.32Zm0-4.719L44.773 23.2h6.508v3.63l6.692-6.696-6.692-6.668v3.523h-7.656l-3.277 1.918-2.828 1.63-7.254 4.183-5.332 3.066Zm0-21.304 8.43 4.879 6.292-3.63-14.722-8.503Zm0 0"/></svg>