<svg xmlns="http://www.w3.org/2000/svg" width="64" height="64"><path style="stroke:none;fill-rule:evenodd;fill:#669df6;fill-opacity:1" d="M27.945 29.332a2.429 2.429 0 1 1 .001 4.853 2.429 2.429 0 0 1 0-4.853Zm0-2.133a4.56 4.56 0 1 0 4.535 4.563 4.528 4.528 0 0 0-1.32-3.223 4.516 4.516 0 0 0-3.215-1.34Zm-15.758 2.133a2.426 2.426 0 0 1 2.426 2.43 2.426 2.426 0 1 1-4.851 0 2.426 2.426 0 0 1 2.425-2.43Zm0-2.133a4.562 4.562 0 0 0-4.234 2.797 4.573 4.573 0 0 0 .973 4.98 4.563 4.563 0 0 0 4.972 1 4.565 4.565 0 0 0 2.82-4.214 4.525 4.525 0 0 0-1.316-3.223 4.522 4.522 0 0 0-3.214-1.34Zm8.106 16.293a2.426 2.426 0 0 1 2.426 2.43 2.426 2.426 0 1 1-4.852 0 2.426 2.426 0 0 1 2.426-2.43Zm0-2.105a4.561 4.561 0 0 0-4.492 3.656 4.566 4.566 0 0 0 2.715 5.113 4.567 4.567 0 0 0 5.547-1.672 4.562 4.562 0 0 0-3.77-7.097Zm0-25.946a2.428 2.428 0 0 1 2.348 2.477 2.434 2.434 0 0 1-2.453 2.375 2.433 2.433 0 0 1-2.403-2.426 2.457 2.457 0 0 1 2.508-2.426Zm0-2.132a4.562 4.562 0 0 0-4.492 3.652 4.562 4.562 0 0 0 8.261 3.441 4.557 4.557 0 0 0-.57-5.761c-.851-.84-2-1.313-3.199-1.309Zm0 0"/><path style="stroke:none;fill-rule:nonzero;fill:#4285f4;fill-opacity:1" d="M28.426 5.332h4.48v53.336h-4.48Zm0 0"/><path style="stroke:none;fill-rule:evenodd;fill:#4285f4;fill-opacity:1" d="M43.332 12.988H31.309a.984.984 0 0 0-.801 1.067v7.52c-.051.503.3.956.8 1.038h12.024a.96.96 0 0 0 .828-1.039v-7.496a.984.984 0 0 0-.828-1.09Zm11.52 14.106H32.668c-.828 0-1.496.48-1.496 1.039v7.52c0 .585.668 1.066 1.496 1.066h22.184c.828 0 1.496-.504 1.496-1.067v-7.52c0-.585-.668-1.038-1.496-1.038ZM39.094 41.172H29.68c-.348 0-.614.48-.614 1.043v7.52c0 .585.266 1.038.614 1.038h9.414c.347 0 .64-.48.64-1.039v-7.52c-.027-.589-.293-1.042-.64-1.042Zm0 0"/></svg>