<svg xmlns="http://www.w3.org/2000/svg" width="64" height="64"><path style="stroke:none;fill-rule:nonzero;fill:#4285f4;fill-opacity:1" d="M7.492 24.988 13.84 13.68H22v4.988h-5.309l-3.52 6.238 2.161 3.63-4.238 2.476Zm0 0"/><path style="stroke:none;fill-rule:nonzero;fill:#aecbfa;fill-opacity:1" d="m38.668 34.852 6.664-3.84L52 34.852v7.707l-6.668 3.84-6.664-3.84Zm-26.668 0 6.668-3.84 6.664 3.84v7.707l-6.664 3.84L12 42.558Zm13.332-22.614L32 8.398l6.668 3.84v7.684L32 23.785l-6.668-3.863Zm0 0"/><path style="stroke:none;fill-rule:nonzero;fill:#4285f4;fill-opacity:1" d="M45.332 31.012 52 34.852v7.707l-6.668 3.84Zm-26.664 0 6.664 3.84v7.707l-6.664 3.84ZM32 8.398l6.668 3.84v7.684L32 23.785Zm16.668 20.137 2.16-3.601-3.52-6.266H42V13.68h8.16l6.348 11.308-3.602 6.024ZM25.625 55.332l-3.945-6.559 4.265-2.48 2.48 4.055h7.067L38 46.293l4.266 2.453-3.973 6.586Zm0 0"/></svg>