<svg xmlns="http://www.w3.org/2000/svg" width="64" height="64"><path style="stroke:none;fill-rule:evenodd;fill:#669df6;fill-opacity:1" d="m36.773 13.441-.718-2.507-3.762-.188-4.586 2.563 4.055 4-.055 4.613 2.719.023.054-4.613 11.305 6.828-.023 2.852 4.718.082v-5.469Zm0 0"/><path style="stroke:none;fill-rule:evenodd;fill:#aecbfa;fill-opacity:1" d="M32.293 10.746h-.027l-3.786.934-.773 1.629L13.68 21.12l-.078 5.465 4.746.082.05-2.855 11.497-6.532-.055 4.614 2.293.027Zm0 0"/><path style="stroke:none;fill-rule:evenodd;fill:#669df6;fill-opacity:1" d="M32.293 10.746h-.027l-9.094-5.414-4.637 2.535 9.172 5.442ZM45.574 40.16l-11.469 6.531.055-4.586-4.586-.05-.054 4.586 2.187 6.613 3.785-.32.774-2.266 14.054-7.816.078-5.57-4.773-.055ZM31.707 53.254l-9.227 5.172h-.132l-4.426-2.64 9.305-5.227Zm0 0"/><path style="stroke:none;fill-rule:evenodd;fill:#4285f4;fill-opacity:1" d="m36.773 13.441 9.305-5.226-4.426-2.64h-.132l-9.227 5.171Zm-.48 37.25 9.172 5.442-4.504 2.535h-.133l-9.121-5.414Zm0 0"/><path style="stroke:none;fill-rule:evenodd;fill:#aecbfa;fill-opacity:1" d="m31.707 53.227-4.48-2.668-13.707-8.184v-5.336h4.695l-.027 2.773 11.332 6.829.054-4.586 2.293.023Zm0 0"/><path style="stroke:none;fill-rule:nonzero;fill:#aecbfa;fill-opacity:1" d="M51.36 32.105a3.04 3.04 0 0 1-3.04 3.043 3.04 3.04 0 0 1 0-6.082c1.68 0 3.04 1.36 3.04 3.04ZM18.719 31.68c0 1.68-1.36 3.039-3.04 3.039-1.679 0-3.038-1.36-3.038-3.04 0-1.679 1.359-3.038 3.039-3.038 1.68 0 3.039 1.359 3.039 3.039ZM35.2 26.64c0 1.68-1.36 3.04-3.04 3.04s-3.039-1.36-3.039-3.04 1.36-3.038 3.04-3.038c1.679 0 3.038 1.359 3.038 3.039ZM34.96 37.332a3.043 3.043 0 0 1-3.038 3.043 3.044 3.044 0 0 1-3.043-3.043 3.043 3.043 0 0 1 3.043-3.039 3.042 3.042 0 0 1 3.039 3.039Zm0 0"/></svg>