<svg xmlns="http://www.w3.org/2000/svg" width="64" height="64"><path style="stroke:none;fill-rule:nonzero;fill:#a6cafd;fill-opacity:1" d="M53.332 10.668H20.535a2.984 2.984 0 0 0-2.668 1.68L8 32h5.332l8-16h29.336v2.668H56v-5.336a2.666 2.666 0 0 0-2.668-2.664Zm0 0"/><path style="stroke:none;fill-rule:nonzero;fill:#559cfc;fill-opacity:1" d="M34.668 32a8 8 0 1 1-16 0 8 8 0 0 1 16 0Zm0 0"/><path style="stroke:none;fill-rule:nonzero;fill:#fff;fill-opacity:1" d="M29.332 32A2.666 2.666 0 1 1 24 32a2.666 2.666 0 1 1 5.332 0ZM0 0h21.332v2.668H0Zm0 0"/><path style="stroke:none;fill-rule:nonzero;fill:#669df6;fill-opacity:1" d="M48 21.332h8a2.669 2.669 0 0 1 0 5.336h-8a2.669 2.669 0 0 1 0-5.336ZM40 29.332h16a2.669 2.669 0 0 1 0 5.336H40a2.669 2.669 0 0 1 0-5.336ZM48 37.332h8a2.669 2.669 0 0 1 0 5.336h-8a2.669 2.669 0 0 1 0-5.336Zm0 0"/><path style="stroke:none;fill-rule:nonzero;fill:#a6cafd;fill-opacity:1" d="M50.668 45.332V48H21.332L16 37.332h-5.332l7.172 14.32a2.984 2.984 0 0 0 2.668 1.68h32.824A2.666 2.666 0 0 0 56 50.668v-5.336Zm0 0"/><path style="fill:none;stroke-width:1;stroke-linecap:butt;stroke-linejoin:miter;stroke:#2683fb;stroke-opacity:1;stroke-miterlimit:10" d="M10 12H2" transform="scale(2.66667)"/></svg>