<svg xmlns="http://www.w3.org/2000/svg" width="64" height="64"><path style="stroke:none;fill-rule:evenodd;fill:#4285f4;fill-opacity:1" d="M39.23 23.586c.16 0 .297.113.344.266l.02.128v2.157c0 .172-.102.32-.25.37l-.114.02h-1.464v3.868c0 .109.02.222.054.324l.067.156 9.875 18.188c.273.511.312 1.12.117 1.66l-.117.265-3.582 6.719a1.796 1.796 0 0 1-1.285.938l-.274.023H21.38a1.765 1.765 0 0 1-1.402-.723l-.157-.238-3.582-6.719a2.078 2.078 0 0 1-.117-1.664l.117-.261 9.852-18.188c.055-.098.094-.207.125-.316l.02-.168v-3.864H24.77a.364.364 0 0 1-.348-.265l-.016-.13v-2.155c0-.176.106-.32.25-.375l.117-.016Zm-4.21 2.941h-6.04v4.465c0 .25-.046.5-.136.735l-.106.226-9.441 17.621c-.125.239-.152.52-.074.778l.078.187 2.441 4.527c.121.23.332.399.586.457l.188.024h3.007l-2.656-4.934a1.017 1.017 0 0 1-.078-.777l.082-.188 2.313-4.296 17.25-.004-1.371-2.555H34.68l-1.035-1.926 6.386-.004-1.918-3.586h-6.445l-1.043-1.925 6.453-.004-1.816-3.395a1.97 1.97 0 0 1-.227-.71l-.015-.25Zm8.574 20.98h-6.375l1.035 1.962 6.39-.004ZM28.348 15.396c.992 0 1.797.863 1.797 1.921 0 1.067-.805 1.926-1.797 1.926-.993 0-1.797-.86-1.797-1.926 0-1.058.804-1.921 1.797-1.921Zm6.773-4.13c1.492 0 2.695 1.294 2.695 2.887 0 1.594-1.203 2.887-2.695 2.887-1.484 0-2.691-1.293-2.691-2.887 0-1.593 1.207-2.886 2.691-2.886Zm-4.074-5.933c.992 0 1.793.863 1.793 1.926 0 1.062-.8 1.922-1.793 1.922-.992 0-1.8-.86-1.8-1.922 0-1.063.808-1.926 1.8-1.926Zm0 0"/></svg>