<svg xmlns="http://www.w3.org/2000/svg" width="64" height="64"><path style="stroke:none;fill-rule:nonzero;fill:#4285f4;fill-opacity:1" d="M39.625 14.508a14.61 14.61 0 0 0-18.824 2.824 14.174 14.174 0 0 0-3.574 9.602 14.634 14.634 0 0 0 6.425 12.078l-.453.75-1.492.425c-2.375 4.16-3.254 5.333-5.492 9.278l3.945 2.27c2.266-4 3.121-5.176 5.465-9.282l-.426-1.625.375-.695c7 3.308 15.367.594 19.09-6.196 3.723-6.789 1.516-15.304-5.039-19.43ZM34.508 36.64c-5.387 1.468-10.946-1.707-12.414-7.094-1.465-5.387 1.71-10.945 7.101-12.41 5.387-1.465 10.942 1.715 12.407 7.101 1.445 5.383-1.723 10.922-7.094 12.403Zm0 0"/><path style="stroke:none;fill-rule:nonzero;fill:#669df6;fill-opacity:1" d="m5.465 23.414.348-2.855H8.96v.933H6.719v1.2a1.819 1.819 0 0 1 2.11.296c.316.399.48.903.452 1.41 0 .336-.086.665-.242.961a1.4 1.4 0 0 1-.64.668 1.73 1.73 0 0 1-1.012.239 1.954 1.954 0 0 1-.961-.211 1.758 1.758 0 0 1-.692-.563 1.661 1.661 0 0 1-.402-.851h1.121c0 .203.09.398.238.53a.67.67 0 0 0 .536.188.61.61 0 0 0 .585-.265c.153-.227.22-.504.188-.774a.981.981 0 0 0-.238-.718.895.895 0 0 0-.668-.27c-.23.004-.453.078-.64.215Zm0 0"/><path style="stroke:none;fill-rule:nonzero;fill:#aecbfa;fill-opacity:1" d="M14.535 26.188h-1.203v-4.293l-1.36.398v-.961l2.348-.824ZM8 33.761H6.906v-4.297l-1.332.402v-.906L8 28.133Zm0 0"/><path style="stroke:none;fill-rule:nonzero;fill:#669df6;fill-opacity:1" d="M15.625 31.441a3.038 3.038 0 0 1-.477 1.786 1.975 1.975 0 0 1-2.668 0 2.648 2.648 0 0 1-.507-1.735v-1.039a2.835 2.835 0 0 1 .48-1.785 1.943 1.943 0 0 1 2.668 0c.348.508.527 1.113.504 1.73Zm-1.117-1.148a2.269 2.269 0 0 0-.188-.961.673.673 0 0 0-.613-.32.642.642 0 0 0-.586.297c-.14.296-.207.628-.187.957v1.359c-.02.36.043.715.187 1.043a.617.617 0 0 0 .613.32.623.623 0 0 0 .586-.32 2.05 2.05 0 0 0 .188-.988Zm0 0"/><path style="stroke:none;fill-rule:nonzero;fill:#aecbfa;fill-opacity:1" d="M51.012 25.973h-1.09v-4.32l-1.363.425v-.906l2.347-.852Zm0 0"/><path style="stroke:none;fill-rule:nonzero;fill:#669df6;fill-opacity:1" d="m54.988 23.2.344-2.852h3.148v.984h-2.242L56 22.48c.254-.14.54-.21.828-.214.477-.02.945.164 1.277.507.325.387.485.883.454 1.387 0 .344-.082.68-.239.988a1.61 1.61 0 0 1-.668.665c-.312.164-.66.246-1.011.242a2.268 2.268 0 0 1-.934-.215 1.634 1.634 0 0 1-.695-.586 1.59 1.59 0 0 1-.266-.856H56a.95.95 0 0 0 .266.563c.148.125.34.191.535.187a.7.7 0 0 0 .586-.27c.168-.257.226-.573.16-.878.016-.27-.07-.535-.238-.746a.92.92 0 0 0-.668-.242.921.921 0 0 0-.641.187Zm-2.883 8.241a3.013 3.013 0 0 1-.48 1.786 1.97 1.97 0 0 1-2.664 0 2.648 2.648 0 0 1-.508-1.735v-1.039a2.835 2.835 0 0 1 .48-1.785 1.943 1.943 0 0 1 2.669 0c.347.508.527 1.113.503 1.73Zm-1.117-1.148a2.245 2.245 0 0 0-.187-1.012.666.666 0 0 0-.614-.32.63.63 0 0 0-.585.293c-.141.3-.207.629-.188.96v1.36c-.02.356.043.711.188 1.04.117.222.359.35.613.32a.613.613 0 0 0 .586-.32c.129-.313.195-.65.187-.989Zm0 0"/><path style="stroke:none;fill-rule:nonzero;fill:#aecbfa;fill-opacity:1" d="m54.988 30.988.344-2.855h3.148v.933h-2.242l-.133 1.2c.254-.137.54-.211.829-.211.48-.024.945.16 1.28.504.325.406.49.921.454 1.441 0 .336-.086.664-.242.96a1.34 1.34 0 0 1-.664.665c-.309.176-.66.262-1.016.242a1.94 1.94 0 0 1-.934-.215 1.537 1.537 0 0 1-.69-.558 1.7 1.7 0 0 1-.27-.856H56a.867.867 0 0 0 .266.535c.14.137.336.207.535.188a.612.612 0 0 0 .586-.27c.16-.222.238-.496.215-.77a.994.994 0 0 0-.243-.722.835.835 0 0 0-.668-.265.928.928 0 0 0-.636.214Zm0 0"/><path style="stroke:none;fill-rule:nonzero;fill:#669df6;fill-opacity:1" d="M25.945 32.293v-2.508c.059-.66.399-1.262.934-1.652.656-.52 1.41-.91 2.215-1.145a7.647 7.647 0 0 1 6.453.746c.266.137.512.317.719.532a2.39 2.39 0 0 1 .8 2v2.027Zm5.547-6.961a2.883 2.883 0 0 1-2.027-4.926 2.886 2.886 0 0 1 3.148-.605 2.887 2.887 0 0 1 1.762 2.68 2.908 2.908 0 0 1-2.883 2.851Zm0 0"/></svg>