<svg xmlns="http://www.w3.org/2000/svg" width="64" height="64"><path style="stroke:none;fill-rule:evenodd;fill:#4285f4;fill-opacity:1" d="M14.902 28.91v11.953l8.407-5.672a9.32 9.32 0 0 0 2.55 3.743l-8.68 5.851 12.688 7.8V41.04a9.345 9.345 0 0 0 4.528-.035v11.574l6.71-4.121 2.09 3.547L32.13 58.5 10.375 45.734v-16.82h4.523Zm25.891 6.328 7.547 5.09a5.312 5.312 0 1 1-2.422 3.828l-7.691-5.187a9.324 9.324 0 0 0 2.57-3.73Zm10.395 7.45a2.125 2.125 0 1 0-.001 4.249 2.125 2.125 0 0 0 0-4.25Zm-19.126-16.04a5.324 5.324 0 0 1 5.325 5.329 5.326 5.326 0 1 1-5.324-5.328ZM32.126 5.5l21.75 12.77v16.902h-4.527V23.094l-8.508 5.738a9.39 9.39 0 0 0-2.516-3.762l8.707-5.875-12.64-7.77V22.95a9.298 9.298 0 0 0-4.528-.031V11.414L22.72 15.81l-2.125-3.54Zm-19.441 8.375a5.298 5.298 0 0 1 3.984 1.793 5.3 5.3 0 0 1 1.293 4.172l7.809 5.265a9.29 9.29 0 0 0-2.5 3.774l-7.723-5.211a5.306 5.306 0 0 1-6.149-.316 5.312 5.312 0 0 1 3.293-9.477Zm0 3.188a2.125 2.125 0 1 0 0 4.25 2.126 2.126 0 1 0 0-4.25Zm0 0"/></svg>