<svg xmlns="http://www.w3.org/2000/svg" width="64" height="64"><path style="stroke:none;fill-rule:nonzero;fill:#4285f4;fill-opacity:1" d="M57.973 34.375 46.988 45.387l-2.828-2.852 6.188-6.16h-20.32v-4h20.32l-6.188-6.188 2.828-2.828Zm0 0"/><path style="stroke:none;fill-rule:nonzero;fill:#aecbfa;fill-opacity:1" d="m31.387 12.691.8.801V16l-.8.8a12.503 12.503 0 0 0-11.653 9.868l-.347 1.36L18 28.16a8.507 8.507 0 0 0-8 8c-.027.363-.027.73 0 1.094L6.719 40a11.001 11.001 0 0 1-.746-3.945 12.289 12.289 0 0 1 10.265-11.68 16.33 16.33 0 0 1 15.149-11.684Zm0 0"/><path style="stroke:none;fill-rule:nonzero;fill:#4285f4;fill-opacity:1" d="M37.36 46.535H17.011l6.187 6.184-2.824 2.828L9.359 44.535 20.375 33.52l2.824 2.855-6.187 6.16h20.347Zm0 0"/><path style="stroke:none;fill-rule:nonzero;fill:#669df6;fill-opacity:1" d="m44.348 19.973-2.934 2.668a11.873 11.873 0 0 0-10.027-6.055V12.69a15.694 15.694 0 0 1 12.96 7.282Zm0 0"/></svg>