<svg xmlns="http://www.w3.org/2000/svg" width="64" height="64"><path style="stroke:none;fill-rule:nonzero;fill:#4285f4;fill-opacity:1" d="M44.777 17A2.244 2.244 0 0 1 47 19.258v27.781A1.827 1.827 0 0 1 45 49H12.5L6 55.5V19.258A2.244 2.244 0 0 1 8.223 17Zm0 0"/><path style="stroke:none;fill-rule:nonzero;fill:#669df6;fill-opacity:1" d="M33 30.5h7.5v13H33Zm0 0"/><path style="stroke:none;fill-rule:nonzero;fill:#aecbfa;fill-opacity:1" d="M23 23h7.5v20.5H23Zm0 0"/><path style="stroke:none;fill-rule:nonzero;fill:#fff;fill-opacity:1" d="M13 27h7.5v16.5H13Zm0 0"/><path style="stroke:none;fill-rule:nonzero;fill:#669df6;fill-opacity:1" d="M55.777 8.5a2.237 2.237 0 0 1 2.22 2.133V47l-6-6h-2V16.2c0-1.212-.985-2.192-2.196-2.188H17v-3.258A2.244 2.244 0 0 1 19.133 8.5Zm0 0"/></svg>