<svg xmlns="http://www.w3.org/2000/svg" width="64" height="64"><path style="stroke:none;fill-rule:nonzero;fill:#4285f4;fill-opacity:1" d="M25.734 10.32H47.84v4.989H25.734ZM12.133 30.266h22.105v4.988H12.133ZM25.734 48.559H47.84v4.988H25.734Zm0 0"/><path style="stroke:none;fill-rule:evenodd;fill:#4285f4;fill-opacity:1" d="m17.52 35.68 8.668 14.695-4.426 2.477-8.668-14.692ZM18.133 29.094 26.8 14.398l-4.293-2.425-8.668 14.695Zm0 0"/><path style="stroke:none;fill-rule:evenodd;fill:#aecbfa;fill-opacity:1" d="m19.945 20.426-4.425-7.492 4.425-7.602h8.828l4.399 7.602-4.399 7.492ZM35.227 40.375l-4.399-7.469 4.399-7.625h8.828l4.425 7.625-4.425 7.469ZM9.734 40.375l-4.402-7.469 4.402-7.625h8.825l4.402 7.625-4.402 7.469ZM45.441 20.426l-4.402-7.492 4.402-7.602h8.825l4.402 7.602-4.402 7.492ZM45.441 58.668l-4.402-7.496 4.402-7.598h8.825l4.402 7.598-4.402 7.496ZM19.945 58.668l-4.425-7.496 4.425-7.598h8.828l4.399 7.598-4.399 7.496Zm0 0"/></svg>