<svg xmlns="http://www.w3.org/2000/svg" width="64" height="64"><path style="stroke:none;fill-rule:evenodd;fill:#aecbfa;fill-opacity:1" d="m47.602 37.867-27.149 15.68-2.613-4.48 27.172-15.708Zm0 0"/><path style="stroke:none;fill-rule:evenodd;fill:#aecbfa;fill-opacity:1" d="M20.348 48.426v-31.36h4.984v27.602Zm0 0"/><path style="stroke:none;fill-rule:evenodd;fill:#aecbfa;fill-opacity:1" d="m25.492 25.84-.691-6.293 27.172 15.652-2.586 4.48Zm0 0"/><path style="stroke:none;fill-rule:evenodd;fill:#4285f4;fill-opacity:1" d="m38.375 27.36-13.574-7.813.691 6.293 4.028 2.293a10.664 10.664 0 0 0 8.855-.774Zm0 0"/><path style="stroke:none;fill-rule:evenodd;fill:#aecbfa;fill-opacity:1" d="M21.68 22.105a10.075 10.075 0 0 1 1.605-12.168A10.074 10.074 0 0 1 35.453 8.34a10.08 10.08 0 0 1-5.055 18.809 10.137 10.137 0 0 1-8.718-5.044Zm12.988-7.464a4.91 4.91 0 0 0-4.242-2.454 4.89 4.89 0 0 0-3.469 1.418 4.9 4.9 0 0 0-1.437 3.461 4.907 4.907 0 0 0 7.449 4.551 4.917 4.917 0 0 0 2.34-4.55 4.845 4.845 0 0 0-.641-2.426Zm0 0"/><path style="stroke:none;fill-rule:evenodd;fill:#4285f4;fill-opacity:1" d="M20.348 34.508v13.918l4.984-3.758V40.32a8.76 8.76 0 0 0-4.984-5.812Zm15.199 10.32 12.055-6.96-5.895-2.669-3.332 2.133a11.286 11.286 0 0 0-2.828 7.629Zm0 0"/><path style="stroke:none;fill-rule:evenodd;fill:#aecbfa;fill-opacity:1" d="M6.691 49.867a10.059 10.059 0 0 1 3.684-13.762A9.92 9.92 0 0 1 18 35.094a10.083 10.083 0 0 1 7.512 9.722 10.081 10.081 0 0 1-7.469 9.758 10.078 10.078 0 0 1-11.352-4.707Zm12.934-7.492A4.761 4.761 0 0 0 16.668 40a4.88 4.88 0 0 0-5.496 7.172 4.886 4.886 0 0 0 6.68 1.773 4.885 4.885 0 0 0 1.773-6.68Zm18.59 6.586a10.108 10.108 0 0 1 0-10.055C41 34.098 47.148 32.441 51.973 35.2c4.812 2.79 6.46 8.946 3.68 13.762a10.076 10.076 0 0 1-17.438 0Zm12.957-7.496a5.344 5.344 0 0 0-1.785-1.785 4.94 4.94 0 0 0-6.696 1.812 4.966 4.966 0 0 0 0 4.883 4.89 4.89 0 0 0 5.524 2.266 4.862 4.862 0 0 0 2.957-2.266 5.018 5.018 0 0 0 0-4.91Zm0 0"/><path style="stroke:none;fill-rule:evenodd;fill:#669df6;fill-opacity:1" d="M25.309 43.066s-6.243 5.332-7.47 6l7.626-4.398a10.955 10.955 0 0 0-.156-1.602Zm1.757-16.398s-1.574-8.746-1.574-9.602v8.774c.5.289 1.028.531 1.574.719Zm13.735 9.254s7.36 3.066 8.586 3.758l-7.625-4.371c-.348.16-.668.367-.961.613Zm0 0"/></svg>