<svg xmlns="http://www.w3.org/2000/svg" width="64" height="64"><path style="stroke:none;fill-rule:evenodd;fill:#4285f4;fill-opacity:1" d="M51.867 49.254a2.991 2.991 0 0 1-2.906-3.066 2.991 2.991 0 0 1 3.066-2.907 2.989 2.989 0 0 1 2.907 3.067 3.014 3.014 0 0 1-3.067 2.906Zm0 2.668a5.554 5.554 0 0 0 5.531-4.363 5.548 5.548 0 0 0-9.984-4.34 5.548 5.548 0 0 0 .586 7.02 5.534 5.534 0 0 0 3.922 1.628Zm0 0"/><path style="stroke:none;fill-rule:nonzero;fill:#4285f4;fill-opacity:1" d="M51.895 11.547A5.52 5.52 0 0 0 48 20.988a5.335 5.335 0 0 0 3.922 1.598 5.547 5.547 0 1 0 0-11.066Zm2.132 7.625a2.875 2.875 0 0 1-2.16.828 2.96 2.96 0 1 1 3.067-2.879 3.055 3.055 0 0 1-.907 2.05Zm-11.629 7.496h-.132v2.531h.187a2.962 2.962 0 0 1 0 5.922h-.187v2.664h.187a5.543 5.543 0 0 0 5.121-8.414 5.547 5.547 0 0 0-5.12-2.652ZM30.188 5.332c-13.04 0-23.63 5.336-23.63 11.734 0 6.399 10.669 11.762 23.63 11.762h.265V5.332Zm0 0"/><path style="stroke:none;fill-rule:nonzero;fill:#4285f4;fill-opacity:1" d="M30.188 33.387a37.408 37.408 0 0 1-16.723-3.332 11.869 11.869 0 0 1-6.504-6.348h-.402V32c0 6.48 10.668 11.734 23.629 11.734h.265V33.332Zm0 0"/><path style="stroke:none;fill-rule:nonzero;fill:#4285f4;fill-opacity:1" d="M30.188 48.266a37.353 37.353 0 0 1-16.723-3.305 11.869 11.869 0 0 1-6.504-6.348h-.402v8.32c0 6.481 10.668 11.735 23.629 11.735h.265V48.266Zm0 0"/><path style="stroke:none;fill-rule:nonzero;fill:#669df6;fill-opacity:1" d="M36.375 5.332h5.918v53.336h-5.918Zm0 0"/></svg>