<svg xmlns="http://www.w3.org/2000/svg" width="64" height="64"><path style="stroke:none;fill-rule:nonzero;fill:#669df6;fill-opacity:1" d="M52 43.121H32.64a6.745 6.745 0 0 0-7.308 6.664 6.672 6.672 0 0 0 7.309 6.668H52Zm0 0"/><path style="stroke:none;fill-rule:nonzero;fill:#4285f4;fill-opacity:1" d="M58.668 49.785A6.667 6.667 0 0 1 52 56.453a6.667 6.667 0 1 1 0-13.332 6.666 6.666 0 0 1 6.668 6.664Zm0 0"/><path style="stroke:none;fill-rule:nonzero;fill:#669df6;fill-opacity:1" d="M32 25.332H12.64A6.748 6.748 0 0 0 5.333 32a6.67 6.67 0 0 0 7.309 6.668H32Zm0 0"/><path style="stroke:none;fill-rule:nonzero;fill:#4285f4;fill-opacity:1" d="M38.668 32A6.667 6.667 0 0 1 32 38.668 6.667 6.667 0 0 1 25.332 32 6.667 6.667 0 0 1 32 25.332 6.667 6.667 0 0 1 38.668 32Zm0 0"/><path style="stroke:none;fill-rule:nonzero;fill:#669df6;fill-opacity:1" d="M52 7.547H32.64a6.772 6.772 0 0 0-7.308 6.668 6.66 6.66 0 0 0 2.176 4.953 6.658 6.658 0 0 0 5.133 1.71H52Zm0 0"/><path style="stroke:none;fill-rule:nonzero;fill:#4285f4;fill-opacity:1" d="M58.668 14.215A6.666 6.666 0 0 1 52 20.879a6.666 6.666 0 1 1 0-13.332 6.667 6.667 0 0 1 6.668 6.668Zm0 0"/></svg>