<svg xmlns="http://www.w3.org/2000/svg" width="64" height="64"><path style="stroke:none;fill-rule:nonzero;fill:#185abc;fill-opacity:1" d="M14.3 11.902a4.401 4.401 0 1 1-8.8-.005 4.401 4.401 0 0 1 8.8.005ZM14.3 31.848a4.401 4.401 0 0 1-8.8 0 4.401 4.401 0 0 1 8.8 0ZM14.3 51.793a4.399 4.399 0 0 1-4.398 4.402 4.401 4.401 0 1 1 4.398-4.402ZM58.188 31.852c0 3.039-2.465 5.5-5.504 5.5a5.5 5.5 0 0 1-5.5-5.5 5.504 5.504 0 0 1 5.5-5.504 5.505 5.505 0 0 1 5.504 5.504Zm0 0"/><path style="stroke:none;fill-rule:nonzero;fill:#669df6;fill-opacity:1" d="M18.543 34.488h9.297a21.53 21.53 0 0 1 1.191-1.843l.563-.81a21.201 21.201 0 0 1-1.7-2.675h-9.351c.2.692.328 1.399.371 2.113v1.125a9.235 9.235 0 0 1-.371 2.09Zm0 0"/><path style="stroke:none;fill-rule:nonzero;fill:#185abc;fill-opacity:1" d="m36.004 23.754-.613-1.098-.739-1.23-1.168-2.332c-3.336-6.696-6.78-9.77-13.726-9.77h-1.215c.25.867.375 1.77.371 2.676a9.518 9.518 0 0 1-.371 2.676h1.219c4.293 0 6.175 1.367 8.773 6.105l.633 1.153.637 1.28c3.84 7.766 6.625 10.712 13.066 11.352-.21-.875-.32-1.773-.32-2.675.004-.907.129-1.805.37-2.676h.161c-3.129-.293-4.93-1.66-7.078-5.461Zm0 0"/><path style="stroke:none;fill-rule:nonzero;fill:#669df6;fill-opacity:1" d="m31.129 38.129-.637 1.203-1.008 2.04-.636 1.202-.61 1.098c-2.437 4.308-4.347 5.566-8.48 5.566h-1.215c.207.692.332 1.399.371 2.117v.993a9.475 9.475 0 0 1-.371 2.113h1.906c6.387-.188 9.832-3.293 13.25-9.742l1.43-2.867.559-1.043.476-.887c.387-.664.809-1.313 1.273-1.926a15.058 15.058 0 0 1-4.507-2.676 21.167 21.167 0 0 0-1.801 2.809Zm0 0"/></svg>