<svg xmlns="http://www.w3.org/2000/svg" width="64" height="64"><path style="stroke:none;fill-rule:evenodd;fill:#3367d6;fill-opacity:1" d="M14.398 33.867h10.668v-3.734H14.398Zm-2.132 20.531 17.601-17.597-2.402-2.403L9.867 52Zm-1.598-41.332 17.598 17.602 2.402-2.402-17.602-17.598Zm28.266 20.801h10.668v-3.734H38.934Zm-4.801 2.934 16.8 16.531 2.399-2.398-16.531-16.801ZM38.668 28l15.465-15.734-2.399-2.399L36 25.332Zm0 0"/><path style="stroke:none;fill-rule:evenodd;fill:#5c85de;fill-opacity:1" d="M4 60h12V48H4Zm44 0h12V48H48ZM4 16h12V4H4Zm44 0h12V4H48Zm0 0"/><path style="stroke:none;fill-rule:evenodd;fill:#85a4e6;fill-opacity:1" d="M21.867 42.133h20.266V21.867H21.867Zm0 0"/><path style="stroke:none;fill-rule:evenodd;fill:#5c85de;fill-opacity:1" d="M4 37.867h12V26.133H4Zm44 0h12V26.133H48Zm0 0"/></svg>