<svg xmlns="http://www.w3.org/2000/svg" width="64" height="64"><path style="stroke:none;fill-rule:nonzero;fill:#4285f4;fill-opacity:1" d="M32 17.066a14.919 14.919 0 0 1 10.668 4.266l2.664-2.664c-7.363-7.367-19.3-7.367-26.664 0l2.664 2.664A14.919 14.919 0 0 1 32 17.066Zm0 29.868a14.919 14.919 0 0 1-10.668-4.266l-2.664 2.664c7.363 7.367 19.3 7.367 26.664 0l-2.664-2.664A14.919 14.919 0 0 1 32 46.934Zm0 0"/><path style="stroke:none;fill-rule:nonzero;fill:#669df6;fill-opacity:1" d="M32 40.188a8.16 8.16 0 0 1-8-6.243H13.625v6.348L5.332 32l8.293-8.266v6.344H24a8.16 8.16 0 0 1 8-6.238 8.16 8.16 0 0 1 8 6.238h10.426v-6.371L58.668 32l-8.293 8.32v-6.375H40a8.16 8.16 0 0 1-8 6.242Zm0-12.481a4.293 4.293 0 1 0 0 8.586 4.293 4.293 0 0 0 0-8.586Zm0 0"/></svg>