<svg xmlns="http://www.w3.org/2000/svg" width="64" height="64"><path style="stroke:none;fill-rule:nonzero;fill:#aecbfa;fill-opacity:1" d="m33.734 5.742 16.672 9.762a3.558 3.558 0 0 1 1.856 3.082v21.422a3.579 3.579 0 0 1-1.856 3.082L23.84 58.625a.907.907 0 0 1-.902.012.917.917 0 0 1-.47-.77v-9.426l-9.116-5.351a3.583 3.583 0 0 1-1.852-3.082V18.586a3.562 3.562 0 0 1 1.852-3.082l16.68-9.762a3.729 3.729 0 0 1 3.702 0Zm0 0"/><path style="stroke:none;fill-rule:nonzero;fill:#669df6;fill-opacity:1" d="M21.844 25.281c-.547 0-1 .434-1.016.985v10.629c.04.64.39 1.226.942 1.554l.039.024 5.128 2.925v4.11l.004.078c.028.344.223.648.524.816.3.164.664.168.969.008l.035-.02 13.61-7.882.093-.055a1.94 1.94 0 0 0 .887-1.582V26.297c0-.356-.188-.684-.493-.867a1.025 1.025 0 0 0-1-.032l-.03.016-9.052 5.2-.078.042a1.018 1.018 0 0 1-.965-.027l-.035-.016-9.054-5.199a.996.996 0 0 0-.508-.133Zm0 0"/><path style="stroke:none;fill-rule:nonzero;fill:#185abc;fill-opacity:1" d="M32.652 13.5a1.281 1.281 0 0 0-1.222-.023l-.035.023-9.98 5.633a1.022 1.022 0 0 0-.035 1.754l.026.015 9.977 5.735c.387.218.855.226 1.242.015l.035-.02 9.824-5.734a1.017 1.017 0 0 0 .023-1.746l-.027-.015Zm0 0"/></svg>