<svg xmlns="http://www.w3.org/2000/svg" width="64" height="64"><path style="stroke:none;fill-rule:nonzero;fill:#aecbfa;fill-opacity:1" d="m33.777 5.988 16.52 9.672a3.52 3.52 0 0 1 1.832 3.05v21.224a3.545 3.545 0 0 1-1.832 3.05l-26.32 15.391a.898.898 0 0 1-1.36-.75v-9.34l-9.031-5.3a3.54 3.54 0 0 1-1.836-3.051V18.71a3.524 3.524 0 0 1 1.836-3.05l16.52-9.673a3.69 3.69 0 0 1 3.671 0Zm0 0"/><path style="stroke:none;fill-rule:evenodd;fill:#185abc;fill-opacity:1" d="M26.188 35.297a1.906 1.906 0 0 0-3.813 0v3.808a1.906 1.906 0 1 0 3.813 0Zm0 0"/><path style="stroke:none;fill-rule:evenodd;fill:#4285f4;fill-opacity:1" d="M26.188 29.586a1.907 1.907 0 1 0-3.813 0 1.906 1.906 0 0 0 3.813 0Zm7.613 0a1.903 1.903 0 1 0-3.805 0 1.902 1.902 0 1 0 3.805 0Zm0 0"/><path style="stroke:none;fill-rule:evenodd;fill:#669df6;fill-opacity:1" d="M33.8 23.867c0-1.05-.85-1.906-1.902-1.906a1.905 1.905 0 0 0 0 3.809c1.051 0 1.903-.852 1.903-1.903Zm7.622-5.71a1.904 1.904 0 1 0-3.808-.006 1.904 1.904 0 0 0 3.808.005Zm0 0"/><path style="stroke:none;fill-rule:evenodd;fill:#185abc;fill-opacity:1" d="M41.422 29.586a1.904 1.904 0 1 0-3.808-.005 1.904 1.904 0 0 0 3.808.005Zm0 0"/><path style="stroke:none;fill-rule:evenodd;fill:#4285f4;fill-opacity:1" d="M41.422 23.867c0-1.05-.852-1.906-1.906-1.906a1.905 1.905 0 1 0 1.906 1.906Zm0 0"/><path style="stroke:none;fill-rule:evenodd;fill:#185abc;fill-opacity:1" d="M29.996 35.297c0-1.05.852-1.906 1.902-1.906 1.051 0 1.903.855 1.903 1.906v3.808a1.903 1.903 0 1 1-3.805 0Zm11.426 0c0-1.05-.852-1.906-1.906-1.906-1.051 0-1.903.855-1.903 1.906v3.808a1.904 1.904 0 1 0 3.809 0Zm0 0"/></svg>