<svg xmlns="http://www.w3.org/2000/svg" width="64" height="64"><path style="stroke:none;fill-rule:nonzero;fill:#4285f4;fill-opacity:1" d="M32 8v5.332H18.727v37.336H32V56H17.742c-2.308 0-4.199-1.938-4.394-4.387l-.016-.414V12.801C13.332 10.16 15.328 8 17.77 8Zm0 0"/><path style="stroke:none;fill-rule:nonzero;fill:#4285f4;fill-opacity:1" d="M24 41.332h8v4h-8Zm0-8h8v4h-8Zm0-8h8v4h-8Zm0 0"/><path style="stroke:none;fill-rule:evenodd;fill:#4285f4;fill-opacity:1" d="M48 52c0-2.21-1.79-4-4-4s-4 1.79-4 4 1.79 4 4 4 4-1.79 4-4ZM53.332 28a4 4 0 1 0-8 0 4 4 0 0 0 8 0ZM45.332 14.668a4 4 0 1 1-8 0 4 4 0 0 1 8 0Zm0 0"/><path style="fill:none;stroke-width:1;stroke-linecap:butt;stroke-linejoin:miter;stroke:#4285f4;stroke-opacity:1;stroke-miterlimit:4" d="M13 10.5h.813c1.916 0 1.678-.703 1.678-4M13 13.494h.812c3.777 0 4.733.221 4.685-1.994M13 16.507h.518c2.778-.006 3.01-.22 2.98 1.993" transform="scale(2.66667)"/></svg>