<svg xmlns="http://www.w3.org/2000/svg" width="64" height="64"><path style="stroke:none;fill-rule:nonzero;fill:#4285f4;fill-opacity:1" d="m49.238 37.172 9.598 9.738-9.61 9.602-2.746-2.828 4.793-4.797H5.5v-3.973h45.824l-4.86-4.93ZM27.652 20.203c8.578 0 15.532 7.063 15.532 15.774 0 2.496-.57 4.855-1.59 6.953h-27.88a15.886 15.886 0 0 1-1.589-6.953c0-8.711 6.953-15.774 15.531-15.774ZM10.773 14.45l4.641 4.774-2.789 2.793-4.64-4.774Zm33.973-.02 2.75 2.829-4.703 4.71-2.754-2.827ZM25.82 8.513l3.914.027-.043 6.707-3.914-.027Zm0 0"/></svg>