<svg xmlns="http://www.w3.org/2000/svg" width="64" height="64"><path style="stroke:none;fill-rule:evenodd;fill:#669df6;fill-opacity:1" d="M18.668 5.332 5.332 18.668v26.664l13.336 13.336H32l-6.668-7.629H22L12.96 42V22L22 12.96h3.332L32 5.333ZM38.668 5.332 32 12.961h10L51.04 22v20L42 51.04H32l6.668 7.628h6.664l13.336-13.336V18.668L45.332 5.332Zm0 0"/><path style="stroke:none;fill-rule:evenodd;fill:#4285f4;fill-opacity:1" d="m32 45.332-6.668-6.664L32 32l-6.668-6.668L32 18.668h-6.668l-6.664 6.664v13.336l6.664 6.664ZM38.668 18.668 32 25.332 38.668 32 32 38.668l6.668 6.664 6.664-6.664V25.332Zm0 0"/></svg>