<svg xmlns="http://www.w3.org/2000/svg" width="64" height="64"><path style="stroke:none;fill-rule:nonzero;fill:#4285f4;fill-opacity:1" d="M47.945 18.828 19.36 47.332l-2.425-2.426 28.558-28.531Zm0 0"/><path style="stroke:none;fill-rule:nonzero;fill:#669df6;fill-opacity:1" d="M37.41 26.934a7.52 7.52 0 1 1-10.633-.191 7.52 7.52 0 0 1 10.633.19Zm0 0"/><path style="stroke:none;fill-rule:nonzero;fill:#4285f4;fill-opacity:1" d="M58 32a25.83 25.83 0 0 1-5.094 15.441 4.092 4.092 0 0 0-2.668-2.082 22.464 22.464 0 0 0 3.414-19.945 10.978 10.978 0 0 0 3.067-1.789A25.624 25.624 0 0 1 58 32ZM47.332 52.906a25.944 25.944 0 0 1-23.812 3.707 11.074 11.074 0 0 0 1.789-3.066 22.468 22.468 0 0 0 20.023-3.414 4.107 4.107 0 0 0 2.11 2.773Zm-6.957-45.52a10.978 10.978 0 0 0-1.79 3.067h-.132a22.551 22.551 0 0 0-19.785 3.414 4.2 4.2 0 0 0-2.082-2.668 25.946 25.946 0 0 1 23.812-3.707ZM13.867 18.669a22.476 22.476 0 0 0-3.414 19.945 10.966 10.966 0 0 0-3.066 1.785 25.944 25.944 0 0 1 3.707-23.84 4.107 4.107 0 0 0 2.773 2.11Zm0 0"/><path style="stroke:none;fill-rule:evenodd;fill:#aecbfa;fill-opacity:1" d="M52.055 14.691a2.666 2.666 0 0 0-2.668-2.664 2.666 2.666 0 1 0 0 5.332 2.667 2.667 0 0 0 2.668-2.668Zm3.625 0a6.345 6.345 0 0 1-6.348 6.348 6.344 6.344 0 0 1-6.344-6.348 6.343 6.343 0 0 1 6.344-6.343 6.344 6.344 0 0 1 6.348 6.343Zm-3.625 34.774a2.666 2.666 0 0 0-2.668-2.664 2.666 2.666 0 1 0 0 5.332 2.669 2.669 0 0 0 2.668-2.668Zm3.625 0a6.345 6.345 0 0 1-6.364 6.32 6.34 6.34 0 0 1-6.328-6.355 6.344 6.344 0 0 1 6.344-6.336 6.373 6.373 0 0 1 6.348 6.37Zm-38.453 0a2.666 2.666 0 1 0-5.332.003 2.666 2.666 0 0 0 5.332-.003Zm3.625 0a6.342 6.342 0 0 1-6.372 6.32 6.344 6.344 0 0 1-6.32-6.37 6.345 6.345 0 0 1 6.375-6.321 6.343 6.343 0 0 1 6.317 6.37ZM17.227 14.69a2.666 2.666 0 1 0-5.332.004 2.666 2.666 0 0 0 5.332-.004Zm3.625 0a6.345 6.345 0 0 1-10.844 4.48 6.344 6.344 0 0 1-1.356-6.925 6.34 6.34 0 0 1 5.883-3.898 6.318 6.318 0 0 1 6.317 6.343Zm0 0"/></svg>