<svg xmlns="http://www.w3.org/2000/svg" width="64" height="64"><path style="stroke:none;fill-rule:nonzero;fill:#669df6;fill-opacity:1" d="M13.281 29.227H32v2.668H13.281Zm0 0"/><path style="stroke:none;fill-rule:nonzero;fill:#4285f4;fill-opacity:1" d="M32 29.227h18.719v2.668H32Zm0 0"/><path style="stroke:none;fill-rule:nonzero;fill:#669df6;fill-opacity:1" d="M13.332 34.668v24H32v-24Zm7.36 20.746h-4.079V37.922h4.028Zm8.242 0h-4.082V37.922h4.027Zm0 0"/><path style="stroke:none;fill-rule:nonzero;fill:#4285f4;fill-opacity:1" d="M32 34.668v24h18.668v-24Zm7.148 20.746h-4.027V37.922h4.027Zm8.239 0h-4.028V37.922h4.028Zm1.894-33.68-8-4.054a9.894 9.894 0 0 1-9.12 6.32H32v2.668h18.668V24a2.665 2.665 0 0 0-1.387-2.266Zm0 0"/><path style="stroke:none;fill-rule:nonzero;fill:#669df6;fill-opacity:1" d="M31.84 24a9.902 9.902 0 0 1-9.149-6.32l-8 4.054A2.675 2.675 0 0 0 13.332 24v2.668H32V24Zm0 0"/><path style="stroke:none;fill-rule:nonzero;fill:#4285f4;fill-opacity:1" d="M32 5.332v2.43c3.313 0 6 2.683 6 6v.183a6.002 6.002 0 0 1-6 5.977v2.453a8.534 8.534 0 0 0 8.055-8.523A8.533 8.533 0 0 0 32 5.332Zm0 0"/><path style="stroke:none;fill-rule:nonzero;fill:#669df6;fill-opacity:1" d="M32 19.922a5.994 5.994 0 0 1-4.285-1.723 5.987 5.987 0 0 1-1.793-4.254v-.183a5.983 5.983 0 0 1 1.785-4.274A5.977 5.977 0 0 1 32 7.762v-2.43a8.533 8.533 0 0 0-8.055 8.52A8.534 8.534 0 0 0 32 22.375Zm0 0"/><path style="stroke:none;fill-rule:nonzero;fill:#4285f4;fill-opacity:1" d="M30.773 9.895H33.2v7.89h-2.426Zm0 0"/></svg>