<svg xmlns="http://www.w3.org/2000/svg" width="64" height="64"><path style="stroke:none;fill-rule:evenodd;fill:#4285f4;fill-opacity:1" d="M31.969 19.2a12.713 12.713 0 0 0-4.184.702l2.235 2.602c2.84-.582 5.789.14 8.039 1.969a9.657 9.657 0 0 1 3.558 7.472c-.008 5.32-4.324 9.633-9.648 9.633a9.65 9.65 0 0 1-9.645-9.637c0-1.183.211-2.32.606-3.367l-2.23-2.601a12.687 12.687 0 0 0-1.493 5.972c0 7.024 5.727 12.746 12.762 12.746s12.758-5.722 12.758-12.746c-.012-7.043-5.72-12.742-12.758-12.746Zm0 0"/><path style="stroke:none;fill-rule:evenodd;fill:#4285f4;fill-opacity:1" d="M55.938 20.734a4.344 4.344 0 0 0-1.758-3.488 4.366 4.366 0 0 0-3.848-.68 23.945 23.945 0 0 0-28.066-6.511 7.37 7.37 0 0 1 .293 3.297 20.833 20.833 0 0 1 25.308 5.113 4.32 4.32 0 0 0-.644 2.27 4.352 4.352 0 0 0 4.355 4.343h.086c.77 2.2 1.16 4.508 1.16 6.836 0 9.273-6.105 17.145-14.523 19.824a4.354 4.354 0 0 0-7.582.945C19.8 52.036 11.113 42.97 11.113 31.915c0-4.516 1.453-8.7 3.918-12.113a7.451 7.451 0 0 1-3.222-.797A23.741 23.741 0 0 0 8 31.914C8 44.676 18.066 55.13 30.691 55.793a4.36 4.36 0 0 0 4.079 2.832c2.242 0 4.093-1.7 4.332-3.875 9.742-3.04 16.836-12.125 16.836-22.836a23.61 23.61 0 0 0-1.387-8.008 4.32 4.32 0 0 0 1.386-3.172Zm0 0"/><path style="stroke:none;fill-rule:evenodd;fill:#4285f4;fill-opacity:1" d="M32.023 33.129a1.249 1.249 0 0 1-1.246-1.242c0-.688.559-1.242 1.246-1.242.688 0 1.247.554 1.247 1.242 0 .687-.56 1.242-1.247 1.242Zm-18.05-20.781a1.247 1.247 0 0 1 2.492 0 1.247 1.247 0 0 1-2.492 0Zm18.05 15.199c-.515 0-1.003.094-1.464.258l-11.512-13.39a4.3 4.3 0 0 0 .527-2.071 4.354 4.354 0 0 0-4.355-4.356 4.354 4.354 0 0 0-4.356 4.356 4.353 4.353 0 0 0 5.82 4.082l11.512 13.387a4.354 4.354 0 0 0 3.828 6.43c2.407 0 4.36-1.95 4.36-4.356 0-2.395-1.957-4.344-4.36-4.344Zm0 0"/></svg>