<svg xmlns="http://www.w3.org/2000/svg" width="64" height="64"><path style="stroke:none;fill-rule:evenodd;fill:#5c85de;fill-opacity:1" d="M18.133 18.133c-7.735 0-8.531-10.133 0-10.133 6.133 0 8.8 1.867 13.867 4 5.602-2.133 7.734-4 13.867-4 8.531 0 7.735 10.133 0 10.133Zm0 0"/><path style="stroke:none;fill-rule:evenodd;fill:#3367d6;fill-opacity:1" d="M18.133 18.133h27.734c2.133 0 4-1.067 4.801-2.133L32 18.133 13.332 16c.8 1.066 2.668 2.133 4.8 2.133Zm0 0"/><path style="stroke:none;fill-rule:evenodd;fill:#85a4e6;fill-opacity:1" d="M53.867 34.133H34.133V56h16c2.133 0 4-1.867 4-4V34.133Zm-43.734 0h20V56h-16c-2.133 0-4-1.867-4-4ZM29.867 32V18.133H10.133c-2.133 0-4 1.867-4 4V32Zm28.266 0h-24V18.133h20c2.133 0 4 1.867 4 4Zm0 0"/><path style="stroke:none;fill-rule:evenodd;fill:#3367d6;fill-opacity:1" d="M10.133 32h20v4h-20Zm24 0h20v4h-20Zm0 0"/><path style="stroke:none;fill-rule:evenodd;fill:#3367d6;fill-opacity:1" d="M36 18.133h2.133V56H36Zm0 0"/><path style="stroke:none;fill-rule:evenodd;fill:#5c85de;fill-opacity:1" d="M28 18.133h8V56h-8Zm0 0"/></svg>