<svg xmlns="http://www.w3.org/2000/svg" width="64" height="64"><path style="stroke:none;fill-rule:evenodd;fill:#3367d6;fill-opacity:1" d="M10.027 54.613h44.586a2.028 2.028 0 0 1 0 4.055H10.027ZM52.586 8v20.266c0 1.12.906 2.027 2.027 2.027a2.026 2.026 0 0 0 2.028-2.027V12.055A4.051 4.051 0 0 0 52.586 8Zm0 0"/><path style="stroke:none;fill-rule:evenodd;fill:#5c85de;fill-opacity:1" d="M52.586 8h-12.16a2.028 2.028 0 0 0 0 4.055h12.16Zm0 0"/><path style="stroke:none;fill-rule:evenodd;fill:#3367d6;fill-opacity:1" d="M56.64 26.238H40.427a2.028 2.028 0 0 0 0 4.055H56.64Zm-48.64 0h16.215a2.027 2.027 0 0 1 0 4.055H8Zm0 0"/><path style="stroke:none;fill-rule:evenodd;fill:#3367d6;fill-opacity:1" d="M12.055 8v20.266a2.028 2.028 0 0 1-4.055 0V12.055A4.051 4.051 0 0 1 12.055 8Zm0 0"/><path style="stroke:none;fill-rule:evenodd;fill:#5c85de;fill-opacity:1" d="M12.055 8h12.16a2.027 2.027 0 0 1 0 4.055h-12.16Zm0 0"/><path style="stroke:none;fill-rule:evenodd;fill:#3367d6;fill-opacity:1" d="M52.078 34.348v22.039a2.281 2.281 0 0 0 4.563 0v-17.48a4.56 4.56 0 0 0-4.563-4.56Zm0 0"/><path style="stroke:none;fill-rule:evenodd;fill:#5c85de;fill-opacity:1" d="M52.078 34.348H40.613a2.21 2.21 0 0 0-2.008 3.347 2.222 2.222 0 0 0 2.008 1.075h11.465Zm0 0"/><path style="stroke:none;fill-rule:evenodd;fill:#3367d6;fill-opacity:1" d="M12.559 34.348v22.039a2.28 2.28 0 0 1-2.278 2.281A2.281 2.281 0 0 1 8 56.387v-17.48a4.561 4.561 0 0 1 4.559-4.56Zm0 0"/><path style="stroke:none;fill-rule:evenodd;fill:#5c85de;fill-opacity:1" d="M12.559 34.348h11.468a2.21 2.21 0 0 1 2.008 3.347 2.222 2.222 0 0 1-2.008 1.075H12.56Zm0 0"/><path style="stroke:none;fill-rule:evenodd;fill:#3367d6;fill-opacity:1" d="M44.48 21.375h-8.917v8.918h-4.458v-8.918h-8.918v-4.457h8.918V8h4.457v8.918h8.918Zm-3.164 23.996a3.041 3.041 0 1 1 4.301 4.302 3.041 3.041 0 0 1-4.3-4.302Zm-11.144 4.297a3.037 3.037 0 0 1 0-4.297 3.041 3.041 0 0 1 4.3 0 3.038 3.038 0 0 1-.003 4.3 3.037 3.037 0 0 1-4.297-.003"/><path style="stroke:none;fill-rule:evenodd;fill:#5c85de;fill-opacity:1" d="M30.172 39.535a3.041 3.041 0 0 1 0-4.3 3.045 3.045 0 0 1 4.3.003 3.04 3.04 0 0 1-4.3 4.297"/><path style="stroke:none;fill-rule:evenodd;fill:#3367d6;fill-opacity:1" d="M19.023 49.668a3.037 3.037 0 0 1 0-4.297 3.041 3.041 0 0 1 4.301 4.3 3.041 3.041 0 0 1-4.3-.003"/></svg>