<svg xmlns="http://www.w3.org/2000/svg" width="64" height="64"><path style="stroke:none;fill-rule:nonzero;fill:#4285f4;fill-opacity:1" d="M35.125 8c.535 0 1.027.332 1.172.8l.043.208.71 4.644c2.188.84 4.188 2.04 5.919 3.532l4.937-1.887a1.35 1.35 0 0 1 1.442.348l.132.18 5.07 8.304c.27.46.184.996-.148 1.379l-.156.156-4.723 3.5a19.108 19.108 0 0 1-.066 5.504l-5.687-3.18v-.054c-.305-7.114-6.313-12.766-13.715-12.766-7.598 0-13.73 5.953-13.73 13.332 0 7.379 6.132 13.332 13.73 13.332 2.168 0 4.218-.484 6.043-1.352l5.507 3.293c-1.363.98-2.84 1.79-4.402 2.403l-.812 5.316c-.11.512-.524.903-1.04.988l-.226.02H24.98a1.262 1.262 0 0 1-1.21-.8l-.06-.208-.769-5.066a20.006 20.006 0 0 1-5.746-3.149l-5.047 1.926c-.507.18-1.07.047-1.441-.348l-.133-.18-5.07-8.304a1.18 1.18 0 0 1 .148-1.379l.157-.156 4.28-3.172a18.922 18.922 0 0 1-.093-6.398L5.81 25.664a1.14 1.14 0 0 1-.403-1.332l.098-.203 5.07-8.305c.301-.445.832-.672 1.364-.582l.21.055 4.532 1.726a20.117 20.117 0 0 1 6.36-3.597l.67-4.418a1.28 1.28 0 0 1 1.048-.988L24.98 8Zm-11.5 16.004c3.355-2.504 8.176-2.95 12.02-.617 3.652 2.215 5.402 6.133 4.828 9.933l17.48 10.61c.734.312.988 1.375.348 2.156l-2.758 4.289a1.582 1.582 0 0 1-2.188.488l-17.48-10.605c-3.266 2.168-7.66 2.355-11.309.14-3.843-2.332-5.703-6.707-4.695-10.761l8.418 4.976 3.598-5.597Zm0 0"/></svg>