<svg xmlns="http://www.w3.org/2000/svg" width="64" height="64" viewBox="0 0 64 51"><path style="stroke:none;fill-rule:nonzero;fill:#ea4335;fill-opacity:1" d="m42.73 14.137 5.586-5.54.371-2.327c-10.18-9.176-26.355-8.133-35.53 2.168-2.548 2.863-4.438 6.43-5.446 10.113l2-.278 11.168-1.828.863-.87c4.969-5.41 13.371-6.137 19.106-1.536Zm0 0"/><path style="stroke:none;fill-rule:nonzero;fill:#4285f4;fill-opacity:1" d="M56.27 18.39a24.885 24.885 0 0 0-7.583-12.12l-7.84 7.77a13.76 13.76 0 0 1 5.118 10.952v1.38c3.851 0 6.976 3.097 6.976 6.917 0 3.816-3.125 6.836-6.976 6.836H31.992l-1.375 1.477v8.293l1.375 1.304h13.973c10.02.074 18.207-7.836 18.285-17.77.047-6.023-2.95-11.667-7.98-15.038"/><path style="stroke:none;fill-rule:nonzero;fill:#34a853;fill-opacity:1" d="M18.04 51.2h13.952V40.124H18.04c-.996 0-1.957-.21-2.863-.621l-1.977.601-5.625 5.536-.492 1.886c3.156 2.36 7.004 3.688 10.957 3.672"/><path style="stroke:none;fill-rule:nonzero;fill:#fbbc05;fill-opacity:1" d="M18.04 15.281C8.015 15.34-.06 23.441 0 33.375a17.95 17.95 0 0 0 7.082 14.152l8.094-8.023c-3.512-1.57-5.07-5.668-3.485-9.149 1.586-3.48 5.72-5.027 9.23-3.457a6.954 6.954 0 0 1 3.485 3.457l8.094-8.023c-3.441-4.46-8.793-7.07-14.46-7.05"/></svg>