<svg xmlns="http://www.w3.org/2000/svg" width="64" height="64"><path style="stroke:none;fill-rule:nonzero;fill:#aecbfa;fill-opacity:1" d="M36.266 32a4.266 4.266 0 1 1-8.533 0 4.266 4.266 0 0 1 8.533 0Zm0 0"/><path style="stroke:none;fill-rule:evenodd;fill:#4285f4;fill-opacity:1" d="M20.215 24.535h16.984l1.973-1.867-1.973-1.867H20.215Zm0 0"/><path style="stroke:none;fill-rule:nonzero;fill:#669df6;fill-opacity:1" d="M21.414 22.668a3.28 3.28 0 0 1-3.281 3.277 3.28 3.28 0 1 1 3.281-3.277Zm0 0"/><path style="stroke:none;fill-rule:nonzero;fill:#aecbfa;fill-opacity:1" d="M50.133 22.668a4.266 4.266 0 0 1-8.531 0c0-2.36 1.91-4.27 4.265-4.27a4.267 4.267 0 0 1 4.266 4.27Zm0 0"/><path style="stroke:none;fill-rule:evenodd;fill:#4285f4;fill-opacity:1" d="m24.96 41.332 1.974 1.867H43.68v-3.734H26.934Zm0 0"/><path style="stroke:none;fill-rule:nonzero;fill:#aecbfa;fill-opacity:1" d="M22.398 41.332c0 2.36-1.91 4.27-4.265 4.27a4.267 4.267 0 0 1-4.266-4.27 4.266 4.266 0 0 1 8.531 0Zm0 0"/><path style="stroke:none;fill-rule:nonzero;fill:#669df6;fill-opacity:1" d="M49.148 41.332a3.28 3.28 0 1 1-6.562 0 3.28 3.28 0 0 1 3.281-3.277 3.28 3.28 0 0 1 3.281 3.277Zm0 0"/><path style="stroke:none;fill-rule:evenodd;fill:#4285f4;fill-opacity:1" d="M11.148 13.332h33.813l1.973-1.867-1.973-1.863H11.148Zm0 0"/><path style="stroke:none;fill-rule:nonzero;fill:#669df6;fill-opacity:1" d="M12.879 11.465a3.28 3.28 0 1 1-6.56.002 3.28 3.28 0 0 1 6.56-.002Zm0 0"/><path style="stroke:none;fill-rule:nonzero;fill:#aecbfa;fill-opacity:1" d="M58.668 11.465a4.268 4.268 0 1 1-8.536.003 4.268 4.268 0 0 1 8.536-.003Zm0 0"/><path style="stroke:none;fill-rule:evenodd;fill:#4285f4;fill-opacity:1" d="m17.066 52.535 1.973 1.863h33.867v-3.73H19.04Zm0 0"/><path style="stroke:none;fill-rule:nonzero;fill:#aecbfa;fill-opacity:1" d="M13.867 52.535a4.266 4.266 0 0 1-4.265 4.266 4.267 4.267 0 1 1 0-8.535 4.267 4.267 0 0 1 4.265 4.27Zm0 0"/><path style="stroke:none;fill-rule:nonzero;fill:#669df6;fill-opacity:1" d="M57.68 52.535a3.28 3.28 0 1 1-6.56-.005 3.28 3.28 0 0 1 6.56.005Zm0 0"/></svg>