<svg xmlns="http://www.w3.org/2000/svg" width="64" height="64"><path style="stroke:none;fill-rule:nonzero;fill:#aecbfa;fill-opacity:1" d="M52.613 17.492a4.614 4.614 0 0 0-4.48 4.48 4.89 4.89 0 0 0 2.375 3.95V44.32l-13.762 8.16 2.133 3.415 14.8-8.668a2.235 2.235 0 0 0 1.067-1.84V25.922a4.384 4.384 0 0 0 2.375-3.95 4.31 4.31 0 0 0-1.262-3.238 4.316 4.316 0 0 0-3.246-1.242ZM48 14.613 33.04 6.188a3.141 3.141 0 0 0-2.106 0L14 16a4.59 4.59 0 0 0-7.148 3.602A4.616 4.616 0 0 0 11.359 24a4.614 4.614 0 0 0 4.48-4.398L32 10.398l13.734 8ZM29.867 49.332a4.21 4.21 0 0 0-2.375.773l-13.758-8V26.453H9.492v16.828a2.245 2.245 0 0 0 1.067 1.84l14.828 8.211v.242a4.507 4.507 0 0 0 8.988 0 4.405 4.405 0 0 0-4.508-4.242Zm0 0"/><path style="stroke:none;fill-rule:nonzero;fill:#669df6;fill-opacity:1" d="m45.227 23.012-12.961-7.598-13.254 7.598 13.254 7.386ZM32.266 33.012l-14.028-8.16v6.59l14.028 7.89Zm0 8.933-14.028-8.133v5.52l14.028 8.16Zm0 0"/><path style="stroke:none;fill-rule:nonzero;fill:#4285f4;fill-opacity:1" d="M32.238 33.012v6.32l14.028-8.16v-6.293Zm11.524-2.504a1.014 1.014 0 1 1-.004-2.027 1.014 1.014 0 0 1 .004 2.027ZM32.238 41.945v5.52l14.028-8.133v-5.52Zm11.524-2.851a1.014 1.014 0 1 1-.004-2.027 1.014 1.014 0 0 1 .004 2.027Zm0 0"/></svg>