<svg xmlns="http://www.w3.org/2000/svg" width="64" height="64"><path style="stroke:none;fill-rule:evenodd;fill:#4285f4;fill-opacity:1" d="m39.148 34.828 12.133 7.012v2.64L38.105 36.88Zm0 0"/><path style="stroke:none;fill-rule:evenodd;fill:#669df6;fill-opacity:1" d="M26.613 36.398 12.72 44.426l-.852-2.133 13.547-7.84Zm0 0"/><path style="stroke:none;fill-rule:nonzero;fill:#aecbfa;fill-opacity:1" d="M30.8 8.773h2.294v15.415H30.8Zm0 0"/><path style="stroke:none;fill-rule:evenodd;fill:#aecbfa;fill-opacity:1" d="M8.668 18.668v26.664L32 58.668l23.309-13.336V18.668L32 5.332Zm41.68 23.707L32 52.746 13.652 42.375v-20.75L32 11.254l18.32 10.371v20.75Zm0 0"/><path style="stroke:none;fill-rule:evenodd;fill:#aecbfa;fill-opacity:1" d="m31.945 30.668 10.614-6.11-10.614-6.132-10.586 6.133Zm0 0"/><path style="stroke:none;fill-rule:evenodd;fill:#669df6;fill-opacity:1" d="m30.719 32.8-10.293-6.109v12.243l10.293 6.105Zm0 0"/><path style="stroke:none;fill-rule:evenodd;fill:#4285f4;fill-opacity:1" d="M33.281 32.8v12.24l10.293-6.106V26.69Zm0 0"/></svg>