<svg xmlns="http://www.w3.org/2000/svg" width="64" height="64"><path style="stroke:none;fill-rule:nonzero;fill:#1a73e8;fill-opacity:1" d="M38.563 1.043a22.22 22.22 0 0 0-23.758 6.894l10.52 8.844Zm0 0"/><path style="stroke:none;fill-rule:nonzero;fill:#ea4335;fill-opacity:1" d="M14.805 7.938c-3.36 4-5.196 9.058-5.192 14.28a24.874 24.874 0 0 0 2.2 10.606l13.511-16.043Zm0 0"/><path style="stroke:none;fill-rule:nonzero;fill:#4285f4;fill-opacity:1" d="M31.836 13.734a8.484 8.484 0 0 1 8.512 8.485 8.394 8.394 0 0 1-2.032 5.496l13.239-15.738A22.298 22.298 0 0 0 38.563.988L25.323 16.781a8.425 8.425 0 0 1 6.512-3.047Zm0 0"/><path style="stroke:none;fill-rule:nonzero;fill:#fbbc04;fill-opacity:1" d="M31.836 30.734a8.516 8.516 0 0 1-8.516-8.515 8.442 8.442 0 0 1 2.004-5.492L11.812 32.824a78.653 78.653 0 0 0 10.079 14.418l16.48-19.527a8.42 8.42 0 0 1-6.535 3.02Zm0 0"/><path style="stroke:none;fill-rule:nonzero;fill:#34a853;fill-opacity:1" d="M38.016 52.57c7.414-11.59 16.039-16.863 16.039-30.21 0-3.567-.856-7.083-2.5-10.247L21.89 47.243a78.757 78.757 0 0 1 3.765 5.327c4.532 6.977 3.266 11.153 6.18 11.153 2.91 0 1.648-4.176 6.18-11.153Zm0 0"/></svg>