<svg xmlns="http://www.w3.org/2000/svg" width="64" height="64"><path style="stroke:none;fill-rule:evenodd;fill:#3367d6;fill-opacity:.6" d="M35.2 0v14.668H20.534Zm0 0"/><path style="stroke:none;fill-rule:evenodd;fill:#3367d6;fill-opacity:.8" d="M35.2 14.668v14.664L20.534 14.668Zm0 0"/><path style="stroke:none;fill-rule:nonzero;fill:#3367d6;fill-opacity:.6" d="M20 43.945v-.265l2.668-4.801h21.867c2.133 0 4.266-1.332 5.067-2.934L60.8 15.415 56 12.48l-3.2 5.868-8 14.664H24l-.266-.797-6.668-13.867-2.668-5.868-2.664-5.867H2.133v5.867H8l10.668 22.133-4 7.2c-.535.8-.8 1.867-.8 2.933 0 3.2 2.667 5.867 5.866 5.867h35.2v-5.867H20.8c-.266 0-.801-.266-.801-.8Zm0 0"/><path style="stroke:none;fill-rule:evenodd;fill:#3367d6;fill-opacity:1" d="M23.465 53.066c-2.93 0-5.598 2.399-5.598 5.602 0 2.934 2.399 5.598 5.598 5.598 3.203 0 5.601-2.399 5.601-5.598 0-3.203-2.668-5.602-5.601-5.602Zm24 0c-2.93 0-5.598 2.399-5.598 5.602 0 2.934 2.399 5.598 5.598 5.598 2.933 0 5.601-2.399 5.601-5.598 0-3.203-2.668-5.602-5.601-5.602Zm0 0"/><path style="stroke:none;fill-rule:evenodd;fill:#3367d6;fill-opacity:.8" d="m35.2 0 14.667 14.668H35.2Zm0 0"/><path style="stroke:none;fill-rule:evenodd;fill:#3367d6;fill-opacity:1" d="M49.867 14.668 35.2 29.332V14.668Zm0 0"/></svg>