<svg xmlns="http://www.w3.org/2000/svg" width="64" height="64"><path style="stroke:none;fill-rule:evenodd;fill:#4285f4;fill-opacity:1" d="M12.988 32.875c4.184-1.184 8.559 1.203 9.758 5.324 1.2 4.125-1.226 8.426-5.41 9.61a8.067 8.067 0 0 1-4.113.062l-.434-.117-4.144 7.36-2.75-1.505 4.136-7.375a7.746 7.746 0 0 1-2.453-3.75c-1.2-4.125 1.223-8.43 5.41-9.609Zm23.114 16.406v4.043h-8.204v-4.043Zm8.207-8.078v4.04h-16.41v-4.036ZM19.71 39.055c-.719-2.461-3.352-3.899-5.856-3.192-2.5.703-3.96 3.301-3.246 5.762.723 2.465 3.352 3.902 5.856 3.195 2.504-.707 3.965-3.3 3.246-5.765Zm32.8-5.93v4.04H27.899v-4.04Zm6.157-8.078v4.039H5.332v-4.04Zm0-8.082v4.043H5.332v-4.04ZM30.078 8.89v4.039h-18.59V8.887Zm22.434 0v4.039H33.926V8.887Zm0 0"/></svg>