<svg xmlns="http://www.w3.org/2000/svg" width="64" height="64"><path style="stroke:none;fill-rule:evenodd;fill:#669df6;fill-opacity:1" d="m32 5.332-21.895 9.121v15.012C10.105 42.96 19.441 55.602 32 58.8c12.559-3.067 21.895-15.707 21.895-29.2V14.454Zm0 10.11a7.012 7.012 0 0 1 2.68 13.492 7.004 7.004 0 0 1-8.512-2.586 7.011 7.011 0 0 1 .871-8.856A7.029 7.029 0 0 1 32 15.442Zm10.96 29.73A23.06 23.06 0 0 1 32 52.988a23.06 23.06 0 0 1-10.96-7.816v-6c0-4.453 7.308-6.719 10.96-6.719 3.652 0 10.96 2.266 10.96 6.719Zm0 0"/><path style="stroke:none;fill-rule:evenodd;fill:#4285f4;fill-opacity:1" d="M32 5.332v10.11a7.008 7.008 0 0 1 7.012 7.011A7.008 7.008 0 0 1 32 29.465v2.988c3.652 0 10.96 2.266 10.96 6.719v6A23.06 23.06 0 0 1 32 52.988v5.68c12.559-3.066 21.895-15.707 21.895-29.203V14.453Zm0 0"/></svg>