<svg xmlns="http://www.w3.org/2000/svg" width="64" height="64"><path style="stroke:none;fill-rule:evenodd;fill:#669df6;fill-opacity:1" d="M8.879 18.668 32 5.332l23.094 13.336v25.918l-8.88-7.254H17.786L8.88 44.453Zm33.789 4.453c0-5.89-4.777-10.668-10.668-10.668-5.89 0-10.668 4.777-10.668 10.668 0 5.89 4.777 10.664 10.668 10.664 5.89 0 10.668-4.773 10.668-10.664Zm-3.547 0A7.12 7.12 0 0 1 32 30.238 7.12 7.12 0 1 1 32 16a7.12 7.12 0 0 1 7.121 7.121Zm0 0"/><path style="stroke:none;fill-rule:evenodd;fill:#4285f4;fill-opacity:1" d="M32 33.785c5.89 0 10.668-4.773 10.668-10.664 0-5.89-4.777-10.668-10.668-10.668V5.332l23.094 13.336v25.918l-8.88-7.254H32Zm7.121-10.664A7.123 7.123 0 0 1 32 30.161V16a7.122 7.122 0 0 1 7.121 7.094Zm0 0"/><path style="stroke:none;fill-rule:evenodd;fill:#669df6;fill-opacity:1" d="M10.668 48 32 58.668 53.332 48l-8.879-7.121H19.547Zm0 0"/><path style="stroke:none;fill-rule:evenodd;fill:#4285f4;fill-opacity:1" d="M32 58.668 53.332 48l-8.879-7.121H32Zm0 0"/></svg>