<svg xmlns="http://www.w3.org/2000/svg" width="64" height="64"><path style="stroke:none;fill-rule:nonzero;fill:#4285f4;fill-opacity:1" d="M31.602 18.668C24.09 18.668 18 24.754 18 32.266c0 7.511 6.09 13.601 13.602 13.601 7.507 0 13.597-6.09 13.597-13.601 0-7.512-6.09-13.598-13.597-13.598Zm0 24.21c-5.895 0-10.668-4.773-10.668-10.663 0-5.89 4.773-10.668 10.668-10.668 5.89 0 10.664 4.777 10.664 10.668a10.67 10.67 0 0 1-3.114 7.558 10.673 10.673 0 0 1-7.55 3.133Zm0 0"/><path style="stroke:none;fill-rule:nonzero;fill:#669df6;fill-opacity:1" d="M36.719 33.895a5.132 5.132 0 0 0-.746-.586 8.293 8.293 0 0 0-6.961-.75 6.173 6.173 0 0 0-2.371 1.254 2.29 2.29 0 0 0-.989 1.734v2.668h11.922v-2.188a2.66 2.66 0 0 0-.855-2.132Zm-5.117-3.149a3.096 3.096 0 0 0 3.066-3.121 3.098 3.098 0 0 0-3.121-3.066 3.096 3.096 0 0 0-3.067 3.12 3.119 3.119 0 0 0 3.122 3.067Zm0 0"/><path style="stroke:none;fill-rule:nonzero;fill:#aecbfa;fill-opacity:1" d="M55.414 28.586h-2.773l2.05 2.055h-5.89v2.398h5.89l-2.05 2.082h2.773l3.254-3.281Zm0 0"/><path style="stroke:none;fill-rule:nonzero;fill:#669df6;fill-opacity:1" d="m46.773 22.668 1.707 1.707 2.614-2.59v2.906l1.945-1.972v-4.614h-4.613l-1.946 1.973h2.907Zm4.32 19.547-2.613-2.59-1.707 1.684 2.614 2.613H46.48l1.946 1.945h4.613v-4.613l-1.945-1.945ZM8.934 28.398a3.603 3.603 0 0 0 .035 7.203 3.603 3.603 0 0 0 2.528-6.156 3.61 3.61 0 0 0-2.562-1.047Zm0 5.602a2.024 2.024 0 0 1-1.421-3.469 2.017 2.017 0 0 1 2.215-.422A2.027 2.027 0 0 1 8.934 34Zm0 0"/></svg>