<svg xmlns="http://www.w3.org/2000/svg" width="64" height="64"><path style="stroke:none;fill-rule:evenodd;fill:#4285f4;fill-opacity:1" d="M33.441 33.148V21.332a3.043 3.043 0 0 0 1.63-3.414 3.042 3.042 0 0 0-5.926 0 3.034 3.034 0 0 0 1.628 3.414v11.79H19.387v-7.52a3.045 3.045 0 0 0 1.543-3.422 3.038 3.038 0 0 0-2.957-2.313 3.04 3.04 0 0 0-2.93 2.324 3.045 3.045 0 0 0 1.543 3.41v7.547H16a10.19 10.19 0 0 1-7.258-17.296 10.19 10.19 0 0 1 10.992-2.387 13.92 13.92 0 0 1 12.543-8.04 13.913 13.913 0 0 1 12.63 7.907 10.627 10.627 0 0 1 3.28-.531c5.641 0 10.211 4.57 10.211 10.21 0 5.641-4.57 10.216-10.21 10.216h-.668v-7.625a3.043 3.043 0 0 0-1.415-5.735 3.038 3.038 0 0 0-2.949 2.313 3.04 3.04 0 0 0 1.535 3.422v7.546Zm0 0"/><path style="stroke:none;fill-rule:evenodd;fill:#669df6;fill-opacity:1" d="M19.387 41.04a5.331 5.331 0 0 1 4.105 5.335 5.517 5.517 0 0 1-5.047 5.508 5.524 5.524 0 0 1-5.914-4.567 5.523 5.523 0 0 1 4.055-6.277v-7.89h2.668Zm-1.414 8a2.666 2.666 0 1 0 .004-5.332 2.666 2.666 0 0 0-.004 5.331Zm29.547-8c2.68.71 4.417 3.3 4.062 6.05a5.521 5.521 0 1 1-6.89-6.05v-7.868h2.828Zm-1.415 8a2.668 2.668 0 0 0 2.758-2.138 2.672 2.672 0 0 0-1.715-3.035 2.675 2.675 0 0 0-2.816.653 2.67 2.67 0 0 0 1.773 4.52Zm-12.664-1.145a5.494 5.494 0 1 1-6.785 6 5.49 5.49 0 0 1 4.117-6V33.227h2.829Zm-1.441 8a2.666 2.666 0 0 0 2.54-1.903 2.662 2.662 0 0 0-1.075-2.984 2.666 2.666 0 0 0-3.945 3.23A2.666 2.666 0 0 0 32 55.84Zm0 0"/></svg>