<svg xmlns="http://www.w3.org/2000/svg" width="64" height="64"><path style="fill:none;stroke-width:2;stroke-linecap:butt;stroke-linejoin:miter;stroke:#579bfb;stroke-opacity:1;stroke-miterlimit:10" d="M13.53 2.27v2.36M7.72 4.68l1.67 1.66m-4.07 4.15h2.35m5.86 8.22v-2.35m5.82-.06-1.67-1.66M21.75 10.49H19.4M19.35 4.68l-1.67 1.66M6.99 17.2l1.54 1.54" transform="scale(2.66667)"/><path style="fill:none;stroke-width:2;stroke-linecap:butt;stroke-linejoin:miter;stroke:#abc9f8;stroke-opacity:1;stroke-miterlimit:10" d="m9.6 13.81-5.38 5.38 1.93 1.93" transform="scale(2.66667)"/><path style="fill:none;stroke-width:2;stroke-linecap:butt;stroke-linejoin:miter;stroke:#579bfb;stroke-opacity:1;stroke-miterlimit:10" d="M17.64 14.6a5.81 5.81 0 1 1 0-8.21 5.802 5.802 0 0 1 0 8.21Zm0 0" transform="scale(2.66667)"/><path style="fill:none;stroke-width:1;stroke-linecap:butt;stroke-linejoin:miter;stroke:#4283f2;stroke-opacity:1;stroke-miterlimit:10" d="m10.68 10.68 1.77 1.84 3.94-4.06" transform="scale(2.66667)"/></svg>