<svg xmlns="http://www.w3.org/2000/svg" width="64" height="64"><path style="stroke:none;fill-rule:evenodd;fill:#669df6;fill-opacity:1" d="M30.188 45.492h-3.52v3.735h3.652v1.68h3.813V32.48a9.26 9.26 0 0 0 7.12-8.906 9.118 9.118 0 0 0-8.526-9.078 9.116 9.116 0 0 0-9.633 7.895c-.637 4.754 2.523 9.187 7.226 10.144v5.653h-5.629v3.734h5.497ZM32 5.332l21.895 9.121v15.012C53.895 42.96 44.559 55.602 32 58.8c-12.559-3.067-21.895-15.707-21.895-29.2V14.454Zm0 13.336a5.015 5.015 0 0 1 1.922 9.652 5.01 5.01 0 0 1-5.45-1.101A5.01 5.01 0 0 1 32 18.668Zm0 0"/><path style="stroke:none;fill-rule:evenodd;fill:#4285f4;fill-opacity:1" d="M32 50.906h2V32.48a9.26 9.26 0 0 0 7.121-8.906A9.122 9.122 0 0 0 32 14.454V5.331l21.895 9.121v15.012C53.895 42.96 44.559 55.602 32 58.8Zm0-32.238a5.015 5.015 0 0 1 1.922 9.652A2.912 2.912 0 0 1 32 28.72Zm0 0"/></svg>