<svg xmlns="http://www.w3.org/2000/svg" width="64" height="64"><defs><clipPath id="a"><path d="M5.375 5.375h53.25V35H5.375Zm0 0"/></clipPath><clipPath id="b"><path d="M15 15h34v33.281H15Zm0 0"/></clipPath></defs><g clip-path="url(#a)"><path style="stroke:none;fill-rule:nonzero;fill:#669df6;fill-opacity:1" d="m57.605 30.055-6.808-2.13c.496 2.278.574 4.63.226 6.934h6.586c.563-.086.985-.55 1.016-1.117v-2.57a1.198 1.198 0 0 0-1.016-1.11M32.125 12.747c1.34.004 2.676.145 3.988.418l-2.445-6.777a1.188 1.188 0 0 0-1.117-1.012h-1.02a1.192 1.192 0 0 0-1.12 1.012l-2.126 6.75a19.393 19.393 0 0 1 3.828-.38M12.766 31.989c0-1.37.144-2.738.433-4.078l-6.808 2.13c-.563.085-.985.55-1.016 1.116v2.57a1.206 1.206 0 0 0 1.016 1.118h6.586a19.134 19.134 0 0 1-.215-2.875v.02Zm0 0"/></g><g clip-path="url(#b)"><path style="stroke:none;fill-rule:evenodd;fill:#4285f4;fill-opacity:1" d="M43.523 20.465c-6.363-6.363-16.683-6.363-23.046 0-6.364 6.363-6.364 16.68 0 23.043 6.363 6.367 16.683 6.367 23.046 0 6.364-6.363 6.364-16.68 0-23.043Zm-3.066 2.816-4.988 3.555-.02-.008a1.03 1.03 0 0 1-1.637-.79l-.003.001-.348-6.14c2.64.328 5.098 1.519 6.996 3.386Zm-7.52 6.73 1.168 1.466-.421 1.828-1.688.816-1.691-.816-.418-1.828 1.172-1.465Zm-3.648-9.898c.418-.093.832-.164 1.246-.215l-.348 6.149-.023.012c-.02.378-.242.718-.582.882a1.035 1.035 0 0 1-1.055-.093l-.007.004-5.02-3.57a11.961 11.961 0 0 1 5.79-3.169Zm-9.32 13.102c-.301-2.746.347-5.414 1.707-7.637l4.586 4.113-.004.028c.281.25.41.636.324 1.008a1.025 1.025 0 0 1-.73.765l-.004.024Zm7.847 3.297-2.336 5.664a12.131 12.131 0 0 1-4.855-6.098l6.027-1.023.012.011c.375-.066.754.075.992.371.235.297.29.704.14 1.051l.02.028Zm6.895 7.285a12.01 12.01 0 0 1-6.59-.34l2.961-5.379h.008a1.03 1.03 0 0 1 1.812 0h.024l2.969 5.387c-.387.129-.786.242-1.184.332Zm3.828-1.598-2.36-5.722.008-.012a1.032 1.032 0 0 1 1.129-1.422l.008-.012 6.082 1.032a12.092 12.092 0 0 1-4.867 6.136Zm5.508-9-5.91-1.707-.008-.027a1.024 1.024 0 0 1-.73-.77 1.032 1.032 0 0 1 .328-1.008v-.011l4.558-4.094a12.23 12.23 0 0 1 1.504 3.684c.305 1.328.383 2.652.258 3.933Zm0 0"/></g></svg>