<svg xmlns="http://www.w3.org/2000/svg" width="64" height="64"><path style="stroke:none;fill-rule:evenodd;fill:#5c85de;fill-opacity:1" d="M26.133 58.133h11.734v-4.266H26.133Zm0 0"/><path style="stroke:none;fill-rule:evenodd;fill:#3367d6;fill-opacity:1" d="M32 58.133h5.867v-4.266H32Zm0 0"/><path style="stroke:none;fill-rule:evenodd;fill:#5c85de;fill-opacity:1" d="m52.535 61.867 7.73-21.601-10.398-5.868-6.402 19.735 3.734 7.734Zm0 0"/><path style="stroke:none;fill-rule:evenodd;fill:#3367d6;fill-opacity:1" d="m49.867 34.398-6.402 19.735 3.734 7.734Zm0 0"/><path style="stroke:none;fill-rule:evenodd;fill:#85a4e6;fill-opacity:1" d="m11.465 61.867-7.73-21.601 10.398-5.868 6.402 19.735-3.734 7.734Zm0 0"/><path style="stroke:none;fill-rule:evenodd;fill:#5c85de;fill-opacity:1" d="m14.133 34.398 6.402 19.735-3.734 7.734Zm0 0"/><path style="stroke:none;fill-rule:evenodd;fill:#85a4e6;fill-opacity:1" d="M32 30.668c-3.734 0-6.668-2.934-6.668-6.668s2.934-6.668 6.668-6.668 6.668 2.934 6.668 6.668-2.934 6.668-6.668 6.668Zm0-28.535L18.133 16v14.668L24.266 52h15.468l6.133-21.332V16Zm0 0"/><path style="stroke:none;fill-rule:evenodd;fill:#5c85de;fill-opacity:1" d="M32 2.133v15.469c3.734 0 6.668 2.933 6.668 6.664 0 3.734-2.934 6.668-6.668 6.668v21.332h7.734l6.133-21.332V16Zm0 0"/></svg>