<svg xmlns="http://www.w3.org/2000/svg" width="64" height="64"><path style="stroke:none;fill-rule:nonzero;fill:#d2e3fc;fill-opacity:1" d="M17.543 3.555c-2.844 0-4.977 2.132-4.977 4.98 0 .95.235 1.899.946 2.844l2.133-2.133v-.71c0-1.188.949-2.138 2.132-2.138 1.184 0 2.133.95 2.133 2.137a2.123 2.123 0 0 1-2.133 2.133h-.707l-2.133 1.898c2.372 1.422 5.45.946 6.876-1.425 1.417-2.371.945-5.45-1.426-6.875-.711-.473-1.66-.711-2.844-.711Zm0 0"/><path style="stroke:none;fill-rule:nonzero;fill:#5e97f6;fill-opacity:1" d="M15.645 18.016c0-1.66-.473-3.317-1.422-4.743l-2.844 2.848c.238.711.473 1.188.473 1.895 0 1.187-.473 2.132-1.184 2.847l1.422 3.793c2.37-1.426 3.555-4.031 3.555-6.64Zm0 0"/><path style="stroke:none;fill-rule:nonzero;fill:#5e97f6;fill-opacity:1" d="M8.063 22.047c-2.133 0-4.032-1.66-4.032-3.793s1.66-4.031 3.793-4.031c.711 0 1.66.238 2.371.714l2.844-2.609c-1.66-1.426-3.32-2.133-5.215-2.133C3.56 10.195 0 13.75 0 18.015c0 4.266 3.32 7.825 7.824 7.825.473 0 1.184 0 1.66-.238Zm0 0"/><path style="stroke:none;fill-rule:nonzero;fill:#4285f4;fill-opacity:1" d="M17.781 25.129c-1.66 0-3.32.238-4.98.71l2.136 5.216c.946 0 1.891-.235 2.844-.235 6.637 0 11.852 5.453 11.852 11.852 0 6.64-5.453 11.851-11.852 11.851-6.64 0-11.855-5.453-11.855-11.851 0-4.508 2.37-8.535 6.398-10.434l-2.133-5.21C1.421 31.292-2.133 41.96 2.133 50.491c4.265 8.774 14.933 12.332 23.469 8.063 8.773-4.266 12.328-14.934 8.062-23.465-3.082-5.93-9.246-9.961-15.887-9.961Zm0 0"/></svg>