<svg xmlns="http://www.w3.org/2000/svg" width="64" height="64"><path style="stroke:none;fill-rule:nonzero;fill:#669df6;fill-opacity:1" d="M29.332 5.332v53.336L56 37.332Zm0 0"/><path style="stroke:none;fill-rule:nonzero;fill:#4285f4;fill-opacity:1" d="m29.332 5.332-2.613 3.121L50.32 36.746l-23.468 18.8 2.507 3.122L56 37.308Zm0 0"/><path style="stroke:none;fill-rule:nonzero;fill:#669df6;fill-opacity:1" d="M29.332 5.332 18.668 18a8.291 8.291 0 0 1 2.957 2.668l7.707-9.094ZM22.266 48a7.77 7.77 0 0 1-2.453 3.172l9.519 7.496v-5.121Zm0 0"/><path style="stroke:none;fill-rule:nonzero;fill:#aecbfa;fill-opacity:1" d="M16 26.668a2.669 2.669 0 0 1 0-5.336 2.669 2.669 0 0 1 0 5.336M16 16a8 8 0 1 0 0 16 8 8 0 0 0 0-16M16 48a2.666 2.666 0 1 1 0-5.332A2.666 2.666 0 1 1 16 48m0-10.668a8 8 0 1 0 0 16 8 8 0 0 0 0-16"/></svg>