<svg xmlns="http://www.w3.org/2000/svg" width="64" height="64"><path style="stroke:none;fill-rule:nonzero;fill:#aecbfa;fill-opacity:1" d="M49.492 8a.987.987 0 0 1 1.016.96v11.067a1.015 1.015 0 0 1-2 0V9.04a.975.975 0 0 1 .27-.73.972.972 0 0 1 .714-.309Zm8.403 3.762V16a.987.987 0 0 1-1.016.96A.965.965 0 0 1 56 16v-4.16c0-.258.105-.508.29-.688a.97.97 0 0 1 .698-.273c.5.043.895.457.907.96Zm-5.708-4.64v14.21a1.012 1.012 0 0 0 2 0V7.122a1.012 1.012 0 0 0-2 0Zm-7.335 4.05v5.922a1.015 1.015 0 0 0 2 0v-5.922a1.015 1.015 0 0 0-2 0Zm0 0"/><path style="stroke:none;fill-rule:nonzero;fill:#669df6;fill-opacity:1" d="M6 55.547V14.133c0-2.758 2.227-5 4.988-5.012h31.41v4h-31.41A1.01 1.01 0 0 0 10 14.133v31.762l2.828-2.829H50.16c.55-.015.988-.464.988-1.011V24.96h4v17.094a5.015 5.015 0 0 1-4.988 5.011H14.48Zm0 0"/><path style="stroke:none;fill-rule:nonzero;fill:#4285f4;fill-opacity:1" d="M36.691 17.785v3.227h-4.023a24.343 24.343 0 0 1-4.906 8.64l3.386 3.336-1.226 3.278L25.602 32 18.8 38.746l-2.266-2.293 6.906-6.8a24.203 24.203 0 0 1-3.84-5.919l-.242-.507h3.254a19.371 19.371 0 0 0 2.907 4.265 20.642 20.642 0 0 0 3.945-6.64H14.48v-3.067H24v-2.664h3.2v2.664Zm-3.52 23.336h3.415l1.387-3.95h6.293l1.386 3.95h3.442l-6.188-16.48h-3.574Zm5.79-6.8 1.465-4.133.613-1.973h.188l.586 1.973 1.468 4.132Zm0 0"/></svg>