<svg xmlns="http://www.w3.org/2000/svg" width="64" height="64"><path style="stroke:none;fill-rule:nonzero;fill:#669df6;fill-opacity:1" d="M5.332 10.508h8.883v6.879H5.332Zm0 12.027h8.883v6.88H5.332Zm0 12.05h8.883v6.88H5.332Zm0 12.028h8.883v6.88H5.332Zm44.453-36.105h8.883v6.879h-8.883Zm0 12.027h8.883v6.88h-8.883Zm0 12.05h8.883v6.88h-8.883Zm0 12.028h8.883v6.88h-8.883Zm0 0"/><path style="stroke:none;fill-rule:evenodd;fill:#4285f4;fill-opacity:1" d="M56.879 17.387h-7.094v-6.88Zm0 12.027h-7.094v-6.879Zm0 12.05h-7.094v-6.878Zm0 12.056h-7.094v-6.907Zm0 0"/><path style="stroke:none;fill-rule:evenodd;fill:#aecbfa;fill-opacity:1" d="M14.215 58.668h35.57V5.332h-35.57Zm16-24h-8.883l12.453-20.64v15.304h8.883l-12.453 20.64Zm0 0"/><path style="stroke:none;fill-rule:evenodd;fill:#669df6;fill-opacity:1" d="M30.215 58.668v-8.613l12.453-20.64h-8.883V5.331h16v53.336Zm0 0"/></svg>