<svg xmlns="http://www.w3.org/2000/svg" width="64" height="64"><path style="stroke:none;fill-rule:nonzero;fill:#4285f4;fill-opacity:1" d="m33.258 8 23.707 40.879 1.703 2.941H27.766a11.753 11.753 0 0 1-10.692 6.848c-6.484 0-11.742-5.234-11.742-11.695 0-6.457 5.258-11.692 11.742-11.692.125 0 .242 0 .363.008ZM16.895 40.64l-1.782 1.77 3.762 3.75h-8.48v2.516h8.492l-3.774 3.754 1.782 1.773 6.812-6.777Zm16.363 1.622-4.735 2.097c.266 1.16.352 2.356.258 3.543h17.215Zm0-11.688-8.024 7.992a11.632 11.632 0 0 1 1.778 2.176l6.246-2.765 13.379 5.921Zm0-14.746L21.484 36.137c.149.058.293.12.438.187l11.336-11.308 12.62 12.586Zm0 0"/></svg>