<svg xmlns="http://www.w3.org/2000/svg" width="64" height="64"><path style="stroke:none;fill-rule:evenodd;fill:#4285f4;fill-opacity:1" d="M27.172 5.332c.488 0 .898.352.992.813l.023.203v5.203h5.465v-5.2c0-.488.344-.902.809-.996l.203-.023h1.66c.489 0 .899.352.992.816l.024.2v5.203h5.46v-5.2c0-.488.348-.898.81-.996l.206-.023h1.66c.485 0 .895.348.989.813l.027.203v5.203h4.852c.554 0 1.011.402 1.113.933l.02.2v4.847h5.175c.489 0 .899.348.993.813l.023.207v1.656c-.004.484-.34.898-.813 1l-.203.016h-5.175v5.476h5.175c.489 0 .899.348.993.813l.023.207v1.656a1.02 1.02 0 0 1-.813.996l-.203.02h-5.175v5.476h5.175c.489 0 .899.348.993.813l.023.207v1.656a1.02 1.02 0 0 1-.813.996l-.203.02h-5.175v4.847a1.14 1.14 0 0 1-.934 1.117l-.2.02h-4.85v5.2a1.034 1.034 0 0 1-.817 1l-.203.019H43.82a1.02 1.02 0 0 1-1-.817l-.02-.203v-5.199h-5.468v5.2c0 .491-.344.902-.809.995l-.203.024h-1.652c-.484 0-.898-.34-.996-.817l-.02-.203v-5.199H30.95l.004.133c0 6.98-5.43 12.672-12.238 12.976l-.57.016c-7.079 0-12.813-5.816-12.813-12.988s5.734-12.992 12.813-12.992l.37.003-.003-2.296H13.34c-.485 0-.899-.34-.996-.81l-.02-.206v-1.66c0-.492.348-.899.809-.996l.207-.02h5.172v-5.476H13.34c-.485 0-.899-.34-.996-.813l-.02-.203v-1.66c0-.492.344-.899.809-.996l.199-.02h5.176v-4.848c0-.558.402-1.019.933-1.113l.204-.023h4.851v-5.2c0-.488.348-.902.813-.996l.207-.023Zm-9.227 33.309-1.941 1.968 4.117 4.176h-9.27v2.781h9.27l-4.117 4.172 1.941 1.969 7.43-7.531ZM48.66 15.359H22.332V33.4a12.95 12.95 0 0 1 8.02 8.335h18.304v-26.37Zm-7.847 6.73c.554 0 1.015.4 1.113.93l.02.204v10.656c0 .555-.403 1.016-.934 1.113l-.2.02H30.177a1.134 1.134 0 0 1-1.113-.934l-.02-.2V23.224c0-.555.398-1.02.926-1.118l.207-.015Zm0 0"/></svg>