<svg xmlns="http://www.w3.org/2000/svg" width="64" height="64"><path style="stroke:none;fill-rule:nonzero;fill:#4285f4;fill-opacity:1" d="M31.727 43.184c2.16 0 3.906 1.675 3.906 3.742 0 2.066-1.746 3.742-3.906 3.742s-3.91-1.676-3.91-3.742c0-2.067 1.75-3.742 3.91-3.742Zm5.43-4.852 1.921 3.207 2.238-.004a3.897 3.897 0 0 1 3.696-2.523c2.16 0 3.91 1.672 3.91 3.742 0 2.066-1.75 3.738-3.91 3.738a3.903 3.903 0 0 1-3.672-2.453h-2.528a2.218 2.218 0 0 1-1.882-1.078l-2.133-3.55h-6.145l-2.129 3.55a2.223 2.223 0 0 1-1.882 1.078h-2.532a3.9 3.9 0 0 1-3.668 2.453c-2.16 0-3.91-1.672-3.91-3.738 0-2.07 1.75-3.742 3.91-3.742 1.711 0 3.168 1.054 3.696 2.523h2.234l1.988-3.316-3.074-5.106h-5.027a3.88 3.88 0 0 1-3.305 2.473l-.379.02c-2.16 0-3.906-1.676-3.906-3.743 0-2.066 1.746-3.742 3.906-3.742 1.7 0 3.149 1.04 3.688 2.492h4.832l3.16-5.156-1.883-3.14h-2.25a3.905 3.905 0 0 1-3.68 2.492c-2.16 0-3.91-1.676-3.91-3.743 0-2.066 1.75-3.742 3.91-3.742 1.696 0 3.145 1.043 3.68 2.492h2.52c.77.004 1.484.414 1.882 1.075l2.051 3.422h6.301l2.055-3.422a2.205 2.205 0 0 1 1.883-1.07l2.515-.005a3.903 3.903 0 0 1 3.684-2.492c2.16 0 3.91 1.676 3.91 3.742 0 2.067-1.75 3.743-3.91 3.743-1.7 0-3.145-1.04-3.684-2.493h-2.25l-1.95 3.25 3.04 5.047h5.574a3.89 3.89 0 0 1 3.305-2.476l.379-.016c2.16 0 3.906 1.676 3.906 3.742 0 2.067-1.746 3.742-3.906 3.742-1.7 0-3.149-1.039-3.684-2.492h-5.387Zm-5.43-25c2.16 0 3.906 1.676 3.906 3.742 0 2.067-1.746 3.742-3.906 3.742s-3.91-1.675-3.91-3.742c0-2.066 1.75-3.742 3.91-3.742Zm0 0"/></svg>