<svg xmlns="http://www.w3.org/2000/svg" width="64" height="64"><path style="stroke:none;fill-rule:nonzero;fill:#669df6;fill-opacity:1" d="M32 45.332a2.498 2.498 0 0 1-2.164-.984A2.505 2.505 0 0 1 29.465 42l-7.703-7.762a3.897 3.897 0 0 1-1.762.43 4.003 4.003 0 0 1-3.984-3.543 4 4 0 0 1 3.07-4.355 4.005 4.005 0 0 1 4.676 2.562H32v-2.664h-1.332v-5.734A2.665 2.665 0 0 1 32 16V5.332l-21.332 8v16.133C10.668 42.96 19.762 55.602 32 58.8Zm0 0"/><path style="stroke:none;fill-rule:nonzero;fill:#669df6;fill-opacity:1" d="m23.625 32.32 7.043 7.121v-4.773H32V32h-8.238Zm16.773-3.36-7.066-7.065v4.773H32v2.664h8.238Zm0 0"/><path style="stroke:none;fill-rule:nonzero;fill:#4285f4;fill-opacity:1" d="M34.668 18.668a2.562 2.562 0 0 1-.133.64l7.758 7.758A4 4 0 1 1 40.238 32H32v2.668h1.332v5.73A2.667 2.667 0 0 1 32 45.332v13.336c12.238-3.066 21.332-15.707 21.332-29.203V13.332L32 5.332V16a2.669 2.669 0 0 1 2.668 2.668Zm0 0"/></svg>