<svg xmlns="http://www.w3.org/2000/svg" width="64" height="64"><path style="stroke:none;fill-rule:nonzero;fill:#4285f4;fill-opacity:1" d="M22.293 20.8c-.52.419-1 .884-1.441 1.387l-.614-.613-2.343-2.347 1.414-1.415 2.343 2.348Zm23.895 23.891-1.415 1.414-2.906-2.933c.508-.418.98-.883 1.414-1.387ZM17.547 30.934c-.027.355-.027.71 0 1.066a5.323 5.323 0 0 0 0 .934h-4.559v-2Zm33.465 0v2h-4.426v-2Zm-30.239 10.8c.43.508.903.98 1.415 1.414l-2.961 2.957-1.415-1.414Zm21.625-21.629 2.293-2.293 1.414 1.415-2.906 2.906c-.43-.508-.902-.985-1.414-1.414ZM32 46.585h1.012v4.454h-2v-4.504Zm1.066-33.597v4.504a5.849 5.849 0 0 0-.906 0 6.942 6.942 0 0 0-1.066 0v-4.504Zm0 0"/><path style="stroke:none;fill-rule:evenodd;fill:#669df6;fill-opacity:1" d="M47.785 30.934a15.662 15.662 0 0 0-3.972-9.414 14.18 14.18 0 0 0-1.438-1.387 15.506 15.506 0 0 0-9.309-3.867h-2.054a15.587 15.587 0 0 0-9.36 3.894c-.496.445-.968.914-1.414 1.414a15.7 15.7 0 0 0-3.918 9.36v2c.2 3.476 1.551 6.789 3.84 9.414.438.504.91.976 1.414 1.414a15.774 15.774 0 0 0 9.492 3.972h2a15.708 15.708 0 0 0 9.387-3.922c.512-.43.984-.902 1.414-1.414a15.53 15.53 0 0 0 3.918-9.464V32c0-.32.028-.719 0-1.066ZM32 45.762c-7.598 0-13.762-6.164-13.762-13.762 0-7.598 6.164-13.762 13.762-13.762 7.598 0 13.762 6.164 13.762 13.762 0 7.598-6.164 13.762-13.762 13.762Zm0-24.242c-5.762.101-10.36 4.84-10.293 10.601.07 5.766 4.777 10.39 10.54 10.356 5.765-.032 10.417-4.715 10.421-10.477A10.514 10.514 0 0 0 32 21.52Zm0 0"/><path style="stroke:none;fill-rule:evenodd;fill:#aecbfa;fill-opacity:1" d="M32 13.332a3.73 3.73 0 0 1-3.418-3.719A3.73 3.73 0 0 1 32 5.895V8a1.733 1.733 0 0 0 0 3.441Zm0 0"/><path style="stroke:none;fill-rule:evenodd;fill:#669df6;fill-opacity:1" d="M32 13.332v-1.89A1.733 1.733 0 0 0 32 8V5.999a3.734 3.734 0 0 1 0 7.332Zm0 0"/><path style="stroke:none;fill-rule:evenodd;fill:#aecbfa;fill-opacity:1" d="M32 58a3.734 3.734 0 0 1 0-7.332v2A1.732 1.732 0 0 0 32 56Zm0 0"/><path style="stroke:none;fill-rule:evenodd;fill:#669df6;fill-opacity:1" d="M32 58v-2a1.733 1.733 0 0 0 0-3.441v-1.891a3.73 3.73 0 0 1 3.418 3.719A3.73 3.73 0 0 1 32 58.105Zm0 0"/><path style="stroke:none;fill-rule:evenodd;fill:#aecbfa;fill-opacity:1" d="M16.238 19.945a3.702 3.702 0 0 1-3.703-3.707 3.701 3.701 0 0 1 3.703-3.703v2c-.941 0-1.703.762-1.703 1.703 0 .946.762 1.707 1.703 1.707Zm0 0"/><path style="stroke:none;fill-rule:evenodd;fill:#669df6;fill-opacity:1" d="M16.238 19.945v-2c.946 0 1.707-.761 1.707-1.707 0-.941-.761-1.703-1.707-1.703v-2a3.702 3.702 0 0 1 3.707 3.703 3.703 3.703 0 0 1-3.707 3.707Zm0 0"/><path style="stroke:none;fill-rule:evenodd;fill:#aecbfa;fill-opacity:1" d="M47.762 51.465a3.702 3.702 0 0 1-3.707-3.703 3.703 3.703 0 0 1 3.707-3.707v2c-.946 0-1.707.761-1.707 1.707 0 .941.761 1.703 1.707 1.703Zm0 0"/><path style="stroke:none;fill-rule:evenodd;fill:#669df6;fill-opacity:1" d="M47.762 51.465v-2c.941 0 1.703-.762 1.703-1.703 0-.946-.762-1.707-1.703-1.707v-2a3.702 3.702 0 0 1 3.703 3.707 3.701 3.701 0 0 1-3.703 3.703Zm0 0"/><path style="stroke:none;fill-rule:evenodd;fill:#aecbfa;fill-opacity:1" d="M9.707 35.707a3.708 3.708 0 0 1 0-7.414v2C8.766 30.293 8 31.059 8 32c0 .941.766 1.707 1.707 1.707Zm0 0"/><path style="stroke:none;fill-rule:evenodd;fill:#669df6;fill-opacity:1" d="M9.707 35.707v-2c.941 0 1.707-.766 1.707-1.707 0-.941-.766-1.707-1.707-1.707v-2a3.708 3.708 0 0 1 0 7.414Zm0 0"/><path style="stroke:none;fill-rule:evenodd;fill:#aecbfa;fill-opacity:1" d="M54.293 35.707a3.688 3.688 0 0 1-2.668-1.066A3.816 3.816 0 0 1 50.668 32a3.73 3.73 0 0 1 3.73-3.707v2c-.945 0-1.718.762-1.73 1.707.004.453.184.883.504 1.2.316.34.766.523 1.226.507Zm0 0"/><path style="stroke:none;fill-rule:evenodd;fill:#669df6;fill-opacity:1" d="M54.293 35.707v-2c.941 0 1.707-.766 1.707-1.707 0-.941-.766-1.707-1.707-1.707v-2a3.708 3.708 0 0 1 0 7.414Zm0 0"/><path style="stroke:none;fill-rule:evenodd;fill:#aecbfa;fill-opacity:1" d="M16.16 51.465a3.71 3.71 0 0 1-2.668-1.117 3.548 3.548 0 0 1-1.012-2.668A3.842 3.842 0 0 1 16.348 44v2a1.839 1.839 0 0 0-1.868 1.734c-.027.438.141.864.454 1.172a1.79 1.79 0 0 0 1.254.508Zm0 0"/><path style="stroke:none;fill-rule:evenodd;fill:#669df6;fill-opacity:1" d="M16.16 51.465v-2a1.838 1.838 0 0 0 1.867-1.73 1.505 1.505 0 0 0-.453-1.176 1.786 1.786 0 0 0-1.254-.504v-2a3.71 3.71 0 0 1 2.668 1.117A3.518 3.518 0 0 1 20 47.84a3.837 3.837 0 0 1-3.84 3.625Zm0 0"/><path style="stroke:none;fill-rule:evenodd;fill:#aecbfa;fill-opacity:1" d="M47.762 19.945a3.703 3.703 0 0 1-3.707-3.707 3.702 3.702 0 0 1 3.707-3.703v2c-.946 0-1.707.762-1.707 1.703 0 .946.761 1.707 1.707 1.707Zm0 0"/><path style="stroke:none;fill-rule:evenodd;fill:#669df6;fill-opacity:1" d="M47.762 19.945v-2c.941 0 1.703-.761 1.703-1.707 0-.941-.762-1.703-1.703-1.703v-2a3.701 3.701 0 0 1 3.703 3.703 3.702 3.702 0 0 1-3.703 3.707Zm0 0"/><path style="stroke:none;fill-rule:evenodd;fill:#aecbfa;fill-opacity:1" d="M32 21.52v20.933a10.478 10.478 0 1 1 0-20.934Zm0 0"/><path style="stroke:none;fill-rule:evenodd;fill:#669df6;fill-opacity:1" d="M42.668 32c0 2.809-1.133 5.5-3.137 7.469A10.46 10.46 0 0 1 32 42.453V21.52a10.466 10.466 0 0 1 7.531 3.003A10.47 10.47 0 0 1 42.668 32Zm0 0"/><path style="stroke:none;fill-rule:nonzero;fill:#aecbfa;fill-opacity:1" d="M32.055 34.773h5.625v2h-5.625Zm0-3.652h5.625v2h-5.625Zm0-3.629h5.625v2h-5.625Zm0 0"/><path style="stroke:none;fill-rule:nonzero;fill:#fff;fill-opacity:1" d="M26.426 34.773h5.629v2h-5.63Zm0-3.652h5.629v2h-5.63Zm0-3.629h5.629v2h-5.63Zm0 0"/></svg>