<svg xmlns="http://www.w3.org/2000/svg" width="64" height="64"><path style="stroke:none;fill-rule:nonzero;fill:#669df6;fill-opacity:1" d="M19.465 41.867A15.79 15.79 0 0 1 16 32H5.332a26.374 26.374 0 0 0 6.563 17.441ZM32 5.332a26.667 26.667 0 0 0-17.465 6.535l7.57 7.574a16.003 16.003 0 0 1 16.88-1.824A16.005 16.005 0 0 1 48 32h10.668C58.668 17.273 46.727 5.332 32 5.332Zm0 0"/><path style="stroke:none;fill-rule:nonzero;fill:#aecbfa;fill-opacity:1" d="M26.668 50.668a5.335 5.335 0 1 1-10.67-.005 5.335 5.335 0 0 1 10.67.005Zm0 0"/><path style="stroke:none;fill-rule:nonzero;fill:#4285f4;fill-opacity:1" d="M56 42.668a5.335 5.335 0 1 1-10.667-.005A5.335 5.335 0 0 1 56 42.668Zm0 0"/><path style="stroke:none;fill-rule:nonzero;fill:#669df6;fill-opacity:1" d="M42.668 53.332a5.335 5.335 0 1 1-10.667.002 5.335 5.335 0 0 1 10.667-.002Zm0 0"/><path style="stroke:none;fill-rule:nonzero;fill:#4285f4;fill-opacity:1" d="M16 32H5.332a26.687 26.687 0 0 0 1.176 7.762l10.664-2.11A16.028 16.028 0 0 1 16 32Zm0 0"/><path style="stroke:none;fill-rule:nonzero;fill:#aecbfa;fill-opacity:1" d="M18.668 21.332a5.335 5.335 0 1 1-10.667.002 5.335 5.335 0 0 1 10.667-.002Zm0 0"/><path style="stroke:none;fill-rule:nonzero;fill:#4285f4;fill-opacity:1" d="M46.96 26.348A16.044 16.044 0 0 1 48 32h10.668c0-2.629-.387-5.242-1.148-7.762Zm0 0"/></svg>