<svg xmlns="http://www.w3.org/2000/svg" width="64" height="64"><path style="stroke:none;fill-rule:nonzero;fill:#4285f4;fill-opacity:1" d="M10.535 22.031a6.33 6.33 0 0 0 4.067 0v21.66c0 4.45 3.441 8.055 7.683 8.055 4.09 0 7.438-3.351 7.668-7.582l.016-.473v-3.59a6.331 6.331 0 0 0 4.062.258v3.332C34.031 50.488 28.773 56 22.285 56c-6.3 0-11.445-5.2-11.734-11.727l-.012-.582ZM51.43 46.43c2.523 0 4.57 2.14 4.57 4.785C56 53.855 53.953 56 51.43 56c-2.528 0-4.575-2.145-4.575-4.785s2.047-4.785 4.575-4.785Zm-9.715-35.563c6.488 0 11.746 5.508 11.746 12.305v21.46a6.344 6.344 0 0 0-4.063 0v-21.46c0-4.445-3.441-8.05-7.683-8.05s-7.684 3.605-7.684 8.05v3.797a6.342 6.342 0 0 0-4.066.261l.004-4.058c0-6.797 5.258-12.305 11.746-12.305ZM32.383 28.88c2.523 0 4.57 2.14 4.57 4.789 0 2.64-2.047 4.781-4.57 4.781-2.528 0-4.57-2.14-4.57-4.781 0-2.648 2.042-4.79 4.57-4.79ZM12.57 10.668c2.528 0 4.575 2.145 4.575 4.785s-2.047 4.785-4.575 4.785c-2.523 0-4.57-2.14-4.57-4.785 0-2.64 2.047-4.785 4.57-4.785Zm0 0"/></svg>