<svg xmlns="http://www.w3.org/2000/svg" width="64" height="64"><path style="stroke:none;fill-rule:nonzero;fill:#4285f4;fill-opacity:1" d="M32 52.852c1.602 0 2.895 1.3 2.895 2.906A2.9 2.9 0 0 1 32 58.668a2.898 2.898 0 0 1-2.895-2.906A2.9 2.9 0 0 1 32 52.852Zm3.57-38.301c.426 0 .82.316.856.734l.68 4.606c1.085.422 2.105 1 3.027 1.71l4.422-1.746c.425-.136.89 0 1.105.383l3.567 6.04c.214.382.105.835-.215 1.117l-3.782 2.894c.11.563.145 1.117.145 1.711 0 .594-.07 1.152-.145 1.71l3.817 2.895c.32.282.43.735.215 1.122l-3.567 6.035a.944.944 0 0 1-1.101.383l-4.461-1.747a13.16 13.16 0 0 1-2.996 1.711l-.676 4.606a.908.908 0 0 1-.89.734h-7.13a.882.882 0 0 1-.894-.734l-.676-4.606c-1.086-.422-2.11-1-3.031-1.71l-4.422 1.746c-.426.136-.89 0-1.105-.383l-3.567-6.04a.89.89 0 0 1 .215-1.117l3.781-2.894a13.203 13.203 0 0 1 0-3.422l-3.781-2.894a.853.853 0 0 1-.215-1.122l3.566-6.035a.943.943 0 0 1 1.106-.383l4.422 1.747a14.302 14.302 0 0 1 3.031-1.711l.676-4.606a.909.909 0 0 1 .894-.734ZM9.492 41.207a2.886 2.886 0 0 1 3.938 1.133 2.919 2.919 0 0 1-1.133 3.953 2.89 2.89 0 0 1-2.203.254 2.913 2.913 0 0 1-.602-5.34ZM50.57 42.34a2.887 2.887 0 0 1 3.938-1.133 2.916 2.916 0 0 1 1.129 3.953 2.89 2.89 0 0 1-3.934 1.133 2.912 2.912 0 0 1-1.133-3.953ZM32.004 26.766c-2.957 0-5.348 2.34-5.348 5.234 0 2.895 2.39 5.234 5.348 5.234 2.96 0 5.348-2.34 5.348-5.234 0-2.895-2.391-5.234-5.348-5.234Zm19.7-9.059a2.89 2.89 0 0 1 2.202-.254c.739.215 1.36.715 1.73 1.387a2.92 2.92 0 0 1-1.128 3.953 2.889 2.889 0 0 1-3.938-1.133 2.912 2.912 0 0 1 1.133-3.953ZM8.363 18.84a2.89 2.89 0 0 1 3.933-1.133 2.914 2.914 0 0 1 1.133 3.953 2.887 2.887 0 0 1-3.938 1.133 2.913 2.913 0 0 1-1.129-3.953ZM32 5.332c1.602 0 2.895 1.3 2.895 2.906A2.9 2.9 0 0 1 32 11.148a2.898 2.898 0 0 1-2.895-2.906A2.9 2.9 0 0 1 32 5.332Zm0 0"/></svg>