<svg xmlns="http://www.w3.org/2000/svg" width="64" height="64"><path style="stroke:none;fill-rule:nonzero;fill:#4285f4;fill-opacity:1" d="m52.414 55.781 1.27 1.574a6.177 6.177 0 0 1-4.657 1.254l.282-1.992a4.094 4.094 0 0 0 3.105-.836Zm-16.969-9.437c3.375 0 6.114 2.695 6.114 6.023 0 3.324-2.739 6.024-6.114 6.024s-6.113-2.7-6.113-6.024c0-3.328 2.738-6.023 6.113-6.023Zm10.426 7.097a4.017 4.017 0 0 0 1.883 2.63l-1.063 1.722a6.047 6.047 0 0 1-2.82-3.95ZM27.727 5.332c3.203 0 5.918 2.043 6.953 4.86h7.84c2.71 0 4.933 2.187 4.933 4.859v14.578H42.52V15.05h-4.934v7.289H17.867v-7.29h-4.933v36.442h12.328v4.86H12.934c-2.715 0-4.934-2.188-4.934-4.86V15.051c0-2.672 2.219-4.86 4.934-4.86h7.84a7.42 7.42 0 0 1 6.953-4.859Zm27.898 45.215c.59 1.582.48 3.34-.297 4.836l-1.82-.918c.523-1 .597-2.172.203-3.227l1.914-.695Zm-8.902-3.098 1.05 1.727a4.037 4.037 0 0 0-1.898 2.617l-2-.41a6.05 6.05 0 0 1 2.848-3.934Zm3.148-.855c1.73 0 3.344.707 4.496 1.93l-1.496 1.367a4.112 4.112 0 0 0-3.539-1.254l-.266-1.992c.25-.036.555-.051.805-.055Zm-.379-14.09c3.38 0 6.113 2.695 6.113 6.02 0 3.328-2.734 6.027-6.113 6.027-3.375 0-6.113-2.7-6.113-6.028 0-3.324 2.738-6.02 6.113-6.02Zm-14.047 0c3.375 0 6.114 2.695 6.114 6.02 0 3.328-2.739 6.027-6.114 6.027s-6.113-2.7-6.113-6.028c0-3.324 2.738-6.02 6.113-6.02ZM27.727 10.19a2.456 2.456 0 0 0-2.47 2.43 2.456 2.456 0 0 0 2.47 2.43 2.454 2.454 0 0 0 2.464-2.426 2.453 2.453 0 0 0-2.464-2.434Zm0 0"/></svg>