<svg xmlns="http://www.w3.org/2000/svg" width="64" height="64"><path style="stroke:none;fill-rule:nonzero;fill:#4285f4;fill-opacity:1" d="M55.691 28.117c.25 1.613.32 3.242.211 4.871-.617 9.352-7.043 17.68-16.418 20.907a25.086 25.086 0 0 1-8.117 1.375l-.539 3.105a.281.281 0 0 1-.121.242.304.304 0 0 1-.277.028l-4.266-3.93-.445-.098.066-.25-2.348-2.16a.275.275 0 0 1-.093-.254.277.277 0 0 1 .176-.21l8.566-3.813a.33.33 0 0 1 .422-.016c.12.094.152.27.07.402l-.535 3.094c2.11-.062 4.2-.445 6.195-1.137 7.813-2.687 13.168-9.628 13.684-17.425a18.391 18.391 0 0 0-.07-3.246l-.11-.805ZM11.098 40.945c2.582-2 6.367-1.617 8.46.848 2.09 2.465 1.692 6.086-.89 8.078-2.582 2-6.371 1.621-8.461-.848-2.09-2.464-1.691-6.082.89-8.078Zm25.77-12.316c1.866 2.57 1.198 6.234-1.49 8.187-2.687 1.95-6.378 1.45-8.241-1.113-1.867-2.57-1.2-6.234 1.488-8.187 2.688-1.95 6.379-1.453 8.242 1.113ZM33.87 5.359l6.988 6.434c.075.066.11.16.094.258a.259.259 0 0 1-.176.207l-8.562 3.812a.326.326 0 0 1-.422.02.305.305 0 0 1-.074-.402l.48-2.774c-2.191.043-4.363.43-6.433 1.149-9.082 3.124-14.703 11.933-13.586 20.906l.074.527-3.945.668c-1.7-10.988 5.097-21.898 16.21-25.727a24.987 24.987 0 0 1 8.352-1.374l.602-3.438a.264.264 0 0 1 .12-.242.314.314 0 0 1 .278-.028ZM29.75 29.066c-1.793 1.305-2.238 3.747-.992 5.457 1.242 1.715 3.703 2.043 5.492.743 1.793-1.301 2.242-3.743.996-5.453C34 28.098 31.54 27.77 29.75 29.07ZM45.2 15.254c2.503-2.082 6.304-1.828 8.484.566a5.562 5.562 0 0 1 1.46 4.18 5.573 5.573 0 0 1-2.054 3.926c-2.504 2.078-6.305 1.828-8.485-.57a5.562 5.562 0 0 1-1.46-4.18 5.573 5.573 0 0 1 2.054-3.926Zm0 0"/></svg>