<svg xmlns="http://www.w3.org/2000/svg" width="64" height="64"><path style="stroke:none;fill-rule:evenodd;fill:#5c85de;fill-opacity:1" d="m55.734 36 5.067 4c.531.535.8 1.332.265 1.867L55.2 52.266c-.265.535-1.066.8-1.867.535l-5.867-2.403c-2.133 1.602-4.531 2.934-6.93 4l-.8 6.403c0 .8-.801 1.332-1.602 1.332H25.867c-.8 0-1.332-.531-1.601-1.332l-.801-6.403c-2.399-.796-4.797-2.398-6.93-4l-5.867 2.403c-.8.265-1.336 0-1.867-.535L2.934 41.867c-.266-.8-.266-1.601.53-1.867l5.071-4a20.133 20.133 0 0 1 0-8l-5.07-4c-.797-.266-.797-1.066-.531-1.867L8.8 11.734c.265-.535 1.066-.8 1.867-.535l5.867 2.403c2.133-1.868 4.531-3.204 7.2-4l.8-6.403c0-.8.797-1.332 1.598-1.332h12c.8 0 1.332.531 1.601 1.332l.801 6.403c2.399.796 4.797 2.398 6.93 4l5.867-2.403c.8-.265 1.336 0 1.867.535l5.867 10.399c.266.8.266 1.601-.53 1.867l-5.071 4c.535 2.668.535 5.332.27 8Zm-32.8 2.398 1.601-3.199h13.067c1.332 0 2.398-.8 3.199-1.867l6.664-12.266-2.93-1.601-1.867 3.469-4.8 8.8H25.331l-.266-.535-5.332-13.332h-5.601v3.465h3.469l4.265 11.469-2.402 4.265c-.266.536-.531 1.067-.531 1.602 0 1.867 1.601 3.465 3.464 3.465h21.067v-3.465h-20c-.266.266-.531 0-.531-.27Zm2.132 5.336c-1.867 0-3.199 1.598-3.199 3.2 0 1.601 1.598 3.199 3.2 3.199 1.867 0 3.199-1.598 3.199-3.2 0-1.601-1.598-3.199-3.2-3.199Zm14.399 0c-1.863 0-3.2 1.598-3.2 3.2 0 1.601 1.602 3.199 3.2 3.199 1.867 0 3.203-1.598 3.203-3.2 0-1.601-1.602-3.199-3.203-3.199ZM32 12v8.8h8.8Zm0 0-8.8 8.8H32Zm0 8.8h-8.8l8.8 8.802Zm8.8 0H32v8.802Zm0 0"/><path style="stroke:none;fill-rule:evenodd;fill:#3367d6;fill-opacity:1" d="m32 29.602 8.8-8.801L32 12V2.133h5.867c.801 0 1.332.535 1.598 1.332l.8 6.402c2.403.801 4.801 2.399 6.934 4l5.867-2.402c.801-.266 1.332 0 1.868.535L60.8 22.398c.531.536.531 1.336-.266 1.602l-5.07 4a20.133 20.133 0 0 1 0 8l5.07 4c.531.535.797 1.332.266 1.867l-5.867 10.399c-.266.535-1.067.8-1.868.535L47.2 50.398c-2.133 1.602-4.531 2.934-6.933 4l-.801 6.403c0 .8-.797 1.332-1.598 1.332H32V42.398h11.734v-3.464H32v-3.47h5.602c1.332 0 2.398-.796 3.199-1.862l6.664-12.27-2.93-1.598-1.867 3.465-4.8 8.801H32Zm7.465 14.132c-1.863 0-3.2 1.598-3.2 3.2 0 1.601 1.602 3.199 3.2 3.199 1.867 0 3.203-1.598 3.203-3.2 0-1.601-1.602-3.199-3.203-3.199Zm0 0"/></svg>