<svg xmlns="http://www.w3.org/2000/svg" width="64" height="64"><path style="stroke:none;fill-rule:nonzero;fill:#4285f4;fill-opacity:1" d="M29.84 18.293h4.32V45.68h-4.32Zm0 0"/><path style="stroke:none;fill-rule:nonzero;fill:#669df6;fill-opacity:1" d="M5.332 29.84h7.203v4.32H5.332Zm0 0"/><path style="stroke:none;fill-rule:nonzero;fill:#4285f4;fill-opacity:1" d="M12.453 23.36h11.68c.355 0 .64.288.64.64v16.027c0 .352-.285.641-.64.641h-11.68a.644.644 0 0 1-.64-.64V24c0-.352.289-.64.64-.64Zm0 0"/><path style="stroke:none;fill-rule:nonzero;fill:#669df6;fill-opacity:1" d="M29.84 18.293h4.32V45.68h-4.32ZM51.465 29.84h7.203v4.32h-7.203Zm-33.89 15.867v3.547c0 .426.343.773.773.773h27.304c.43 0 .774-.347.774-.773v-3.547Zm28.077-31.734H18.348a.773.773 0 0 0-.774.773v3.547h28.852v-3.547a.773.773 0 0 0-.774-.773Zm0 0"/><path style="stroke:none;fill-rule:nonzero;fill:#4285f4;fill-opacity:1" d="M39.84 23.36h11.68c.355 0 .64.288.64.64v16.027c0 .352-.285.641-.64.641H39.84a.644.644 0 0 1-.64-.64V24c0-.352.288-.64.64-.64Zm0 0"/></svg>