<svg xmlns="http://www.w3.org/2000/svg" width="64" height="64"><path style="stroke:none;fill-rule:nonzero;fill:#4285f4;fill-opacity:1" d="M52.953 40c.152 0 .309.004.461.02l-.46-.02c.5 0 1 .066 1.48.203 2.437.684 4.234 3.024 4.234 5.797 0 3.316-2.563 6-5.715 6-3.156 0-5.715-2.684-5.715-6 0-2.324 1.262-4.34 3.102-5.34l.086-.043c.09-.05.187-.094.277-.133l-.363.176a5.532 5.532 0 0 1 2.613-.66Zm-41.906 0c.168 0 .328.008.488.02l-.488-.02c.86 0 1.703.203 2.469.586 1.921.973 3.246 3.031 3.246 5.414 0 3.316-2.559 6-5.715 6-3.156 0-5.715-2.684-5.715-6 0-2.98 2.074-5.457 4.79-5.922.304-.05.616-.078.925-.078Zm30.18-10c.433.004.843.184 1.144.492.3.309.469.727.461 1.16 0 .243-.05.485-.156.707l.004.008-8.375 13.762c-.153.32-.356.617-.602.875a3.156 3.156 0 0 1-2.297.996c-1.777 0-3.218-1.477-3.218-3.3 0-.821.296-1.575.777-2.15l.129-.14-.012-.012 11.102-12.015c.293-.246.66-.38 1.039-.383Zm-.938-12c7.746 3.238 13.367 10.879 14.07 19.988a7.41 7.41 0 0 0-4.078.36c-.562-7.282-4.965-13.426-11.082-16.192a8.298 8.298 0 0 0 1.067-3.511l.023-.645v-.02Zm-15.508-.488a8.473 8.473 0 0 0 .856 4.242c-6.606 2.516-11.45 8.898-12.055 16.543a7.418 7.418 0 0 0-4.082-.285c.691-9.106 6.309-16.762 14.05-20.024l.66-.265ZM32.527 12c2.907 0 5.309 2.277 5.672 5.227-.004-.004-.004-.004 0 0l.024.285c.027.324.027.648 0 .972l.02-.484c0 .54-.071 1.078-.204 1.602a6.15 6.15 0 0 1-.809 1.804A5.624 5.624 0 0 1 32.527 24c-2.359 0-4.386-1.504-5.257-3.652-.051-.121-.094-.25-.141-.375A6.149 6.149 0 0 1 26.816 18c0-.375.032-.746.094-1.113.504-2.782 2.824-4.887 5.617-4.887Zm0 0"/></svg>