<svg xmlns="http://www.w3.org/2000/svg" width="64" height="64"><path style="stroke:none;fill-rule:evenodd;fill:#5c85de;fill-opacity:1" d="M32 32c7.734 0 13.867-6.133 13.867-13.867 0-7.735-6.133-13.867-13.867-13.867-7.734 0-13.867 6.132-13.867 13.867C18.133 25.867 24.266 32 32 32Zm0 7.2c-9.332 0-28 4.534-28 13.866V60h56v-6.934C60 43.734 41.332 39.2 32 39.2Zm0 0"/><path style="stroke:none;fill-rule:evenodd;fill:#3367d6;fill-opacity:1" d="M32 32c7.734 0 13.867-6.133 13.867-13.867 0-7.735-6.133-13.867-13.867-13.867Zm0 7.2V60h28v-6.934C60 43.734 41.332 39.2 32 39.2Zm0 0"/></svg>