<svg xmlns="http://www.w3.org/2000/svg" width="64" height="64"><path style="stroke:none;fill-rule:evenodd;fill:#669df6;fill-opacity:1" d="m8.719 33.04 4.828-5.813a.267.267 0 0 1 .48.187V40a.27.27 0 0 1-.164.242.262.262 0 0 1-.289-.054l-2.133-2.133a8.816 8.816 0 0 0 .746 9.492 8.019 8.019 0 0 0 5.52 3.121 7.791 7.791 0 0 0 6.027-1.816 8.014 8.014 0 0 0 1.84-2.239l.32-.535.344.508a20.235 20.235 0 0 0 2.828 3.36l.266.242-.21.292A13.016 13.016 0 0 1 18.667 56c-7.484-.117-13.453-6.277-13.336-13.762a14.04 14.04 0 0 1 3.387-9.199Zm0 0"/><path style="stroke:none;fill-rule:evenodd;fill:#4285f4;fill-opacity:1" d="m55.281 33.04-4.828-5.813a.267.267 0 0 0-.48.187V40a.27.27 0 0 0 .164.242c.101.043.215.02.289-.054l2.133-2.133a8.816 8.816 0 0 1-.746 9.492 8.019 8.019 0 0 1-5.52 3.121 7.791 7.791 0 0 1-6.027-1.816 8.014 8.014 0 0 1-1.84-2.239l-.32-.535-.344.508a20.235 20.235 0 0 1-2.828 3.36l-.266.242.21.292A13.016 13.016 0 0 0 45.333 56c7.484-.117 13.453-6.277 13.336-13.762a14.04 14.04 0 0 0-3.387-9.199Zm0 0"/><path style="stroke:none;fill-rule:evenodd;fill:#669df6;fill-opacity:1" d="M29.332 16A2.669 2.669 0 0 1 32 13.332V8a8 8 0 0 0 0 16v-5.332A2.669 2.669 0 0 1 29.332 16"/><path style="stroke:none;fill-rule:evenodd;fill:#4285f4;fill-opacity:1" d="M40 16a8 8 0 0 0-8-8v5.332a2.669 2.669 0 0 1 0 5.336V24a8 8 0 0 0 8-8"/><path style="stroke:none;fill-rule:evenodd;fill:#aecbfa;fill-opacity:1" d="M32 45.332c-3.172 0-8-5.89-8-11.094v-7.57L32 24v-5.332L18.668 24v10.238c0 7.227 6.48 16.43 13.332 16.43Zm0 0"/><path style="stroke:none;fill-rule:evenodd;fill:#669df6;fill-opacity:1" d="M45.332 34.238V24L32 18.668V24l8 2.668v7.57c0 5.203-4.828 11.094-8 11.094v5.336c6.852 0 13.332-9.227 13.332-16.43"/><path style="stroke:none;fill-rule:evenodd;fill:#4285f4;fill-opacity:1" d="M33.012 38.375a2.856 2.856 0 0 1-4.051 0l-3.973-3.977 2.024-2.023 3.976 3.973 11.387-11.36 2.023 2.024Zm0 0"/></svg>