<svg xmlns="http://www.w3.org/2000/svg" width="64" height="64"><path style="stroke:none;fill-rule:nonzero;fill:#4285f4;fill-opacity:1" d="m43.156 33.113 10.512 4.77v7.148c0 2.84-.828 5.59-2.242 7.926L48.039 49.5a6.06 6.06 0 0 0-.746-7.496 5.768 5.768 0 0 0-4.129-1.742 5.753 5.753 0 0 0-4.125 1.742 6.054 6.054 0 0 0 0 8.43 5.745 5.745 0 0 0 7.344.761l3.64 3.715c-1.808 2.156-4.183 3.758-6.867 4.422-6.023-1.5-10.504-7.687-10.504-14.3v-7.15ZM43.258 6l.37.016c2.079.183 3.735 1.863 3.923 3.96l.015.399.016 22.832-4.328-1.969V10.375H15.367v34.992h15.774l.007.156c.055 1.442.293 2.856.696 4.215h-16.5a4.362 4.362 0 0 1-4.328-3.996L11 45.367l.02-34.992c0-2.277 1.746-4.168 3.972-4.36L15.367 6Zm-12.13 30.566v4.348H19.61v-4.348Zm7.474-8.695v4.348H19.609V27.87Zm-2.407-8.7v4.224H19.61v-4.223Zm6.961 30.63c1.938 0 3.504-1.602 3.504-3.578 0-1.973-1.566-3.57-3.504-3.57-1.933 0-3.5 1.597-3.5 3.57 0 1.976 1.567 3.574 3.5 3.574Zm0 0"/></svg>