<svg xmlns="http://www.w3.org/2000/svg" width="64" height="64"><path style="stroke:none;fill-rule:nonzero;fill:#4285f4;fill-opacity:1" d="M48.613 16.64a25.61 25.61 0 0 0-16.398-5.972c-12.906 0-23.922 9.73-26.883 23.73-.207.77.023 1.59.602 2.137a2.164 2.164 0 0 0 3.613-1.203c2.531-12.023 11.785-20.398 22.668-20.398a20.94 20.94 0 0 1 11.863 3.734Zm1.172 3.438-15.68 7.016a5.326 5.326 0 0 0-5.8 1.258 5.33 5.33 0 0 0-1.047 5.84 5.328 5.328 0 0 0 5.004 3.19 5.338 5.338 0 0 0 4.86-3.41c.16-.39.265-.804.32-1.226.042.012.09.012.132 0l13.332-10.668c1.574-1.437.719-2.824-1.12-2Zm0 0"/><path style="stroke:none;fill-rule:nonzero;fill:#669df6;fill-opacity:1" d="M55.68 26.64a2.238 2.238 0 0 1-2.239 2.239c-1.238 0-2.242-1-2.242-2.238a2.241 2.241 0 1 1 4.48 0Zm0 0"/><path style="stroke:none;fill-rule:nonzero;fill:#aecbfa;fill-opacity:1" d="M58.668 34.773a2.239 2.239 0 0 1-2.242 2.239 2.238 2.238 0 1 1 0-4.477c1.238 0 2.242 1 2.242 2.238Zm0 0"/></svg>