<svg xmlns="http://www.w3.org/2000/svg" width="64" height="64"><path style="stroke:none;fill-rule:nonzero;fill:#669df6;fill-opacity:1" d="m32 16.613-12.586 5.602v8.398a17.942 17.942 0 0 0 7.254 14.16A15.321 15.321 0 0 0 32 47.441Zm0 0"/><path style="stroke:none;fill-rule:nonzero;fill:#4285f4;fill-opacity:1" d="M32 47.387a17.385 17.385 0 0 0 12.586-16.774v-8.398L32 16.613Zm13.547-16.399c0 .692 0 1.36-.16 2.024h6.347v-2.024Zm-27.094 0c0 .692 0 1.36.16 2.024h-6.347v-2.024Zm0 0"/><path style="stroke:none;fill-rule:nonzero;fill:#aecbfa;fill-opacity:1" d="M9.574 33.945A1.949 1.949 0 0 1 7.625 32c0-1.074.875-1.945 1.95-1.945v-1.602a3.547 3.547 0 1 0 0 7.094Zm0 0"/><path style="stroke:none;fill-rule:nonzero;fill:#fff;fill-opacity:1" d="M37.922 38.055a1.495 1.495 0 0 1-1.496 1.465h-9.117a1.441 1.441 0 0 1-1.204-1.415v-7.437c0-.813.657-1.469 1.47-1.469h.745v-1.492a3.71 3.71 0 0 1 3.692-3.395 3.711 3.711 0 0 1 3.695 3.395v1.625h.719a.875.875 0 0 1 .402 0c.52.152.914.586 1.012 1.121.015.09.015.18 0 .266ZM32 25.44h-.266a2.262 2.262 0 0 0-2 1.973v1.918h4.586V27.84a2.268 2.268 0 0 0-.215-.934A2.232 2.232 0 0 0 32 25.441Zm0 0"/><path style="stroke:none;fill-rule:nonzero;fill:#4285f4;fill-opacity:1" d="M32.668 30.879 29.734 34.8h1.68v2.96l2.852-3.976h-1.598Zm0 0"/><path style="stroke:none;fill-rule:nonzero;fill:#669df6;fill-opacity:1" d="M9.574 35.547a3.517 3.517 0 0 0 2.516-1.031A3.533 3.533 0 0 0 13.12 32a3.533 3.533 0 0 0-1.031-2.516 3.517 3.517 0 0 0-2.516-1.03v1.6a1.946 1.946 0 0 1 0 3.891Zm0 0"/><path style="stroke:none;fill-rule:nonzero;fill:#aecbfa;fill-opacity:1" d="M54.426 33.945a1.946 1.946 0 0 1 0-3.89v-1.602A3.55 3.55 0 0 0 50.879 32a3.55 3.55 0 0 0 3.547 3.547Zm0 0"/><path style="stroke:none;fill-rule:nonzero;fill:#669df6;fill-opacity:1" d="M54.426 35.547a3.528 3.528 0 0 0 2.535-1.02A3.522 3.522 0 0 0 58 32a3.55 3.55 0 0 0-3.574-3.547v1.602c1.074 0 1.949.87 1.949 1.945a1.949 1.949 0 0 1-1.95 1.945Zm0 0"/></svg>