<svg xmlns="http://www.w3.org/2000/svg" width="64" height="64"><path style="stroke:none;fill-rule:nonzero;fill:#aecbfa;fill-opacity:1" d="M6 29.414h52v5.2H6Zm0 0"/><path style="stroke:none;fill-rule:nonzero;fill:#669df6;fill-opacity:1" d="M50.188 32c0 10.043-8.145 18.188-18.188 18.188S13.812 42.043 13.812 32 21.957 13.812 32 13.812 50.188 21.957 50.188 32Zm0 0"/><path style="stroke:none;fill-rule:nonzero;fill:#fff;fill-opacity:1" d="M38.508 26.8v-1.308A6.505 6.505 0 0 0 32 18.988a6.505 6.505 0 0 0-6.508 6.504v1.309a2.662 2.662 0 0 0-2.664 2.664V39.84a2.666 2.666 0 0 0 2.664 2.668h13.016a2.666 2.666 0 0 0 2.664-2.668V29.332a2.662 2.662 0 0 0-2.664-2.531Zm0 0"/><path style="stroke:none;fill-rule:nonzero;fill:#669df6;fill-opacity:1" d="M36.426 26.8h-8.852v-1.308A4.424 4.424 0 0 1 32 21.066a4.424 4.424 0 0 1 4.426 4.426Zm0 0"/><path style="stroke:none;fill-rule:nonzero;fill:#4285f4;fill-opacity:1" d="M34.586 34.586A2.584 2.584 0 0 1 32 37.172a2.584 2.584 0 0 1-2.586-2.586A2.584 2.584 0 0 1 32 32a2.584 2.584 0 0 1 2.586 2.586Zm0 0"/></svg>