<svg xmlns="http://www.w3.org/2000/svg" width="64" height="64"><path style="stroke:none;fill-rule:nonzero;fill:#669df6;fill-opacity:1" d="M21.332 5.332h21.336v5.336H21.332Zm22.773 14.48-.343.348L48 24.426l.32-.426a21.298 21.298 0 0 0-4.215-4.188Zm10.856-2.347-4.27-4.266-6.425 6.426 6.695 1.84Zm0 0"/><path style="stroke:none;fill-rule:nonzero;fill:#4285f4;fill-opacity:1" d="m44.266 19.625-.16.188A21.298 21.298 0 0 1 48.32 24l2.668-2.668Zm0 0"/><path style="stroke:none;fill-rule:nonzero;fill:#669df6;fill-opacity:1" d="M42.668 37.332C42.668 43.222 37.891 48 32 48c-5.89 0-10.668-4.777-10.668-10.668 0-5.89 4.777-10.664 10.668-10.664 5.89 0 10.668 4.773 10.668 10.664Zm0 0"/><path style="stroke:none;fill-rule:nonzero;fill:#aecbfa;fill-opacity:1" d="M32 48c5.89 0 10.668-4.777 10.668-10.668 0-5.89-4.777-10.664-10.668-10.664v10.664l-8.719 6.188A10.66 10.66 0 0 0 32 48Zm0 0"/><path style="stroke:none;fill-rule:nonzero;fill:#669df6;fill-opacity:1" d="M32 58.668c-11.781 0-21.332-9.55-21.332-21.336C10.668 25.551 20.218 16 32 16c11.781 0 21.332 9.55 21.332 21.332 0 11.785-9.55 21.336-21.332 21.336Zm0-5.336c8.836 0 16-7.164 16-16s-7.164-16-16-16-16 7.164-16 16 7.164 16 16 16Zm0 0"/></svg>