<svg xmlns="http://www.w3.org/2000/svg" width="64" height="64"><path style="stroke:none;fill-rule:evenodd;fill:#85a4e6;fill-opacity:1" d="M2.133 15.734 9.867 2.133h15.465l7.734 13.601-7.734 13.332H9.867Zm0 0"/><path style="stroke:none;fill-rule:evenodd;fill:#5c85de;fill-opacity:1" d="m30.398 20.535-7.73-13.601 2.664-5.067 7.734 13.867Zm0 0"/><path style="stroke:none;fill-rule:evenodd;fill:#3367d6;fill-opacity:1" d="M7.2 24.8h15.468L28 15.735l2.398 4.801-5.066 8.531-15.465.266Zm0 0"/><path style="stroke:none;fill-rule:evenodd;fill:#85a4e6;fill-opacity:1" d="m29.867 31.734 8-13.601h15.465l7.734 13.601-7.734 13.332H37.867Zm0 0"/><path style="stroke:none;fill-rule:evenodd;fill:#5c85de;fill-opacity:1" d="m58.398 36.535-7.73-13.601 2.664-5.067 7.734 13.867Zm0 0"/><path style="stroke:none;fill-rule:evenodd;fill:#3367d6;fill-opacity:1" d="M35.2 40.8h15.468L56 31.735l2.398 4.801-5.066 8.531-15.465.266Zm0 0"/><path style="stroke:none;fill-rule:evenodd;fill:#85a4e6;fill-opacity:1" d="m2.133 47.734 7.734-13.601h15.465l7.734 13.601-7.734 13.332H9.867Zm0 0"/><path style="stroke:none;fill-rule:evenodd;fill:#5c85de;fill-opacity:1" d="m30.398 52.535-7.73-13.601 2.664-5.067 7.734 13.867Zm0 0"/><path style="stroke:none;fill-rule:evenodd;fill:#3367d6;fill-opacity:1" d="M7.2 56.8h15.468L28 47.735l2.398 4.801-5.066 8.531-15.465.266Zm0 0"/></svg>