<svg xmlns="http://www.w3.org/2000/svg" width="64" height="64"><path style="stroke:none;fill-rule:nonzero;fill:#aecbfa;fill-opacity:1" d="M18.691 5.332h5.336v8h-5.336Zm10.668 0h5.332v8H29.36Zm10.668 0h5.332v8h-5.332Zm0 0"/><path style="stroke:none;fill-rule:nonzero;fill:#4285f4;fill-opacity:1" d="M18.691 50.668h5.336v8h-5.336Zm10.668 0h5.332v8H29.36Zm10.668 0h5.332v8h-5.332ZM50.668 40h8v5.332h-8Zm0-10.668h8v5.336h-8Zm0-10.664h8V24h-8Zm0 0"/><path style="stroke:none;fill-rule:nonzero;fill:#aecbfa;fill-opacity:1" d="M5.332 40h8v5.332h-8Zm0-10.668h8v5.336h-8Zm0-10.664h8V24h-8Zm0 0"/><path style="stroke:none;fill-rule:nonzero;fill:#669df6;fill-opacity:1" d="M29.332 34.668H24v-16h-5.332V40h10.664v8h5.336v-8h10.664V18.668H40v16h-5.332V16h-5.336ZM10.668 53.332V10.668h42.664v42.664Zm0 0"/></svg>