<svg xmlns="http://www.w3.org/2000/svg" width="64" height="64"><path style="stroke:none;fill-rule:nonzero;fill:#669df6;fill-opacity:1" d="M16 5.332h-5.332v49.547a3.494 3.494 0 0 0 3.437 3.789h35.84a3.436 3.436 0 0 0 3.387-3.79V5.333L48 5.707v47.625H16Zm0 0"/><path style="stroke:none;fill-rule:nonzero;fill:#4285f4;fill-opacity:1" d="M32 58.668h17.945a3.436 3.436 0 0 0 3.387-3.79V5.333H48v48H32Zm0 0"/><path style="stroke:none;fill-rule:nonzero;fill:#669df6;fill-opacity:1" d="M18.668 32h26.664v18.668H18.668Zm0 0"/><path style="stroke:none;fill-rule:nonzero;fill:#4285f4;fill-opacity:1" d="M32 32h13.332v18.668H32Zm0 0"/><path style="stroke:none;fill-rule:nonzero;fill:#669df6;fill-opacity:1" d="M18.668 8h2.664v8h-2.664Zm0 0"/><path style="stroke:none;fill-rule:nonzero;fill:#4285f4;fill-opacity:1" d="M20 8h1.332v8H20Zm0 0"/><path style="stroke:none;fill-rule:nonzero;fill:#669df6;fill-opacity:1" d="M26.668 8h2.664v8h-2.664Zm8 0h2.664v8h-2.664Zm8 0h2.664v8h-2.664Zm0 0"/><path style="stroke:none;fill-rule:nonzero;fill:#4285f4;fill-opacity:1" d="M28 8h1.332v8H28Zm8 0h1.332v8H36Zm8 0h1.332v8H44Zm0 0"/></svg>