<svg xmlns="http://www.w3.org/2000/svg" width="64" height="64"><path style="stroke:none;fill-rule:nonzero;fill:#4285f4;fill-opacity:1" d="M34.668 57.867a2.669 2.669 0 0 1-5.336 0 2.669 2.669 0 0 1 5.336 0ZM11.867 35.465a2.666 2.666 0 1 1-5.333.005 2.666 2.666 0 0 1 5.333-.005ZM50.266 42.668a2.666 2.666 0 1 1-5.333-.003 2.666 2.666 0 0 1 5.333.003Zm0 0"/><path style="stroke:none;fill-rule:nonzero;fill:#4285f4;fill-opacity:1" d="m42.559 45.492-.211-.426-7.442 7.602.348.266a5.78 5.78 0 0 1 1.894 2.105l.239.426 7.414-7.703-.32-.215a6.16 6.16 0 0 1-1.922-2.055Zm-28.32-7.199c-.454.828-1.118 1.52-1.891 2.055l-.375.238L26.69 55.465l.243-.426a5.569 5.569 0 0 1 1.867-2.078l.347-.242-14.695-14.852ZM47.093 4.266c-4.508.027-8.801 1.84-11.895 5.015L32 12.375l-3.2-3.094a16.636 16.636 0 0 0-11.84-5.015C7.388 4.48-.187 12.133 0 21.359c0 3.895 1.332 7.68 3.813 10.746l.292.403.27-.403a5.603 5.603 0 0 1 2.023-1.917l.375-.215-.238-.348a13.332 13.332 0 0 1-2.855-8.266c-.078-3.464 1.28-6.824 3.761-9.332 2.504-2.535 5.918-3.972 9.52-4.054 3.574.027 6.96 1.468 9.387 4L32 17.653l5.707-5.758c2.426-2.508 5.84-3.922 9.387-3.922 7.492.187 13.414 6.16 13.254 13.386 0 3.52-1.387 6.907-3.868 9.47l-6.402 6.48.43.238c.8.48 1.492 1.144 1.972 1.945l.211.375 6.403-6.402A17.236 17.236 0 0 0 64 21.359c.188-9.199-7.36-16.851-16.906-17.093Zm0 0"/></svg>