<svg xmlns="http://www.w3.org/2000/svg" width="64" height="64"><path style="stroke:none;fill-rule:nonzero;fill:#aecbfa;fill-opacity:1" d="M32 5.332h26.668V32H32Zm11.895 18.027 7.57-7.547-2.133-2.132L44 19.012l-2.668-2.664-2.133 2.132Zm0 0"/><path style="stroke:none;fill-rule:nonzero;fill:#4285f4;fill-opacity:1" d="M5.332 37.332v21.336h21.336V37.332Zm16 16H10.668V42.668h10.664ZM32 32h26.668v-5.254l-21.336-.078Zm0 0"/><path style="stroke:none;fill-rule:nonzero;fill:#669df6;fill-opacity:1" d="M53.332 10.668v16.05L58.668 32V5.332Zm0 0"/><path style="stroke:none;fill-rule:nonzero;fill:#aecbfa;fill-opacity:1" d="m26.668 58.668-5.336-5.336V42.668l5.336-5.336Zm0 0"/><path style="stroke:none;fill-rule:nonzero;fill:#669df6;fill-opacity:1" d="m5.332 58.668 5.336-5.336h10.664l5.336 5.336Zm0 0"/><path style="stroke:none;fill-rule:nonzero;fill:#4285f4;fill-opacity:1" d="M5.332 10.668V32h21.336V10.668Zm16 16H10.668V16h10.664Zm0 0"/><path style="stroke:none;fill-rule:nonzero;fill:#aecbfa;fill-opacity:1" d="m26.668 32-5.336-5.332V16l5.336-5.332Zm0 0"/><path style="stroke:none;fill-rule:nonzero;fill:#669df6;fill-opacity:1" d="m5.332 32 5.336-5.332h10.664L26.668 32Zm0 0"/><path style="stroke:none;fill-rule:nonzero;fill:#4285f4;fill-opacity:1" d="M32 37.332v21.336h21.332V37.332Zm16 16H37.332V42.668H48Zm0 0"/><path style="stroke:none;fill-rule:nonzero;fill:#aecbfa;fill-opacity:1" d="M53.332 58.668 48 53.332V42.668l5.332-5.336Zm0 0"/><path style="stroke:none;fill-rule:nonzero;fill:#669df6;fill-opacity:1" d="m32 58.668 5.332-5.336H48l5.332 5.336Zm0 0"/></svg>