<svg xmlns="http://www.w3.org/2000/svg" width="64" height="64"><path style="stroke:none;fill-rule:nonzero;fill:#4285f4;fill-opacity:1" d="M33.266 13.754v5.613H13.613v34.301h33.684V33.402h5.613v19.653a5.632 5.632 0 0 1-5.613 5.613H13.613A5.632 5.632 0 0 1 8 53.055V19.367c0-3.086 2.523-5.613 5.613-5.613Zm0 28.07v5.614h-14.04v-5.614Zm8.418-8.422v5.618H19.227v-5.618Zm0-8.422v5.618H19.227V24.98Zm8.421-14.035 2.63 5.79 5.788 2.632L52.738 22l-2.633 5.79L47.477 22l-5.793-2.633 5.789-2.633Zm-8.421-5.613 1.754 3.86 3.859 1.753-3.86 1.758-1.753 3.86-1.754-3.86-3.86-1.758 3.86-1.754Zm0 0"/></svg>