<svg xmlns="http://www.w3.org/2000/svg" width="64" height="64"><path style="stroke:none;fill-rule:nonzero;fill:#aecbfa;fill-opacity:1" d="M32 27.945V16.187c0-.558-.453-1.015-1.012-1.015h-4c-.27 0-.523.11-.707.3a.98.98 0 0 0-.281.716v5.68l2.668 6.077Zm0 0"/><path style="stroke:none;fill-rule:nonzero;fill:#669df6;fill-opacity:1" d="M23.602 46.691a5.02 5.02 0 0 0-4.657 3.086 5.011 5.011 0 0 0 1.082 5.473 5.01 5.01 0 0 0 5.477 1.082 5.011 5.011 0 0 0 3.082-4.652 5.017 5.017 0 0 0-4.984-4.989Zm24.746 0a5.01 5.01 0 0 0-4.653 3.086 5.01 5.01 0 0 0 6.555 6.555 5.011 5.011 0 0 0 3.082-4.652 4.986 4.986 0 0 0-4.984-4.989ZM39.785 13.52c0-.56-.453-1.012-1.012-1.012h-4.105a.974.974 0 0 0-.707.297.98.98 0 0 0-.281.715v14.425h6Zm0 0"/><path style="stroke:none;fill-rule:nonzero;fill:#4285f4;fill-opacity:1" d="M27.441 33.945 24.508 40h28.824a1.999 1.999 0 1 1 0 4H24.508a3.96 3.96 0 0 1-3.387-1.867 3.918 3.918 0 0 1-.215-3.867L24 32l-9.492-20.691H8.746a1.999 1.999 0 1 1 0-4h7.066c.782 0 1.493.46 1.813 1.171l9.84 21.465h17.414l8.64-15.386a2 2 0 1 1 3.493 1.949L48.348 32a3.979 3.979 0 0 1-3.47 2.055Zm20.16-12.933V8.375c0-.27-.109-.523-.3-.707a.98.98 0 0 0-.715-.281h-3.918a.957.957 0 0 0-.707.281.957.957 0 0 0-.281.707v19.57h2.105Zm0 0"/></svg>