<svg xmlns="http://www.w3.org/2000/svg" width="64" height="64"><path style="stroke:none;fill-rule:nonzero;fill:#4285f4;fill-opacity:1" d="M29.441 2.668c14.782 0 26.77 11.988 26.77 26.777l-.023 1.09 5.144 2.434v9.457c0 8.746-5.687 16.922-13.332 18.906-3.746-.973-7.027-3.434-9.39-6.719a26.715 26.715 0 0 1-9.172 1.614c-14.786 0-26.77-11.989-26.77-26.782 0-14.789 11.984-26.777 26.773-26.777Zm5.434 42.664-11.605.008c.246.715.511 1.398.793 2.05.917 2.126 1.972 3.774 3.05 4.825.88.863 1.668 1.242 2.371 1.25l.067-.004.226-.012c.641-.086 1.348-.469 2.125-1.234 1.078-1.05 2.133-2.7 3.051-4.824l.207-.504a20.814 20.814 0 0 1-.285-1.551Zm-14.71 0-8.77.004a24.02 24.02 0 0 0 12.41 7.477c-1.43-1.868-2.672-4.426-3.64-7.481Zm30.503-10.664h-5.336v5.328h-5.297l-.031.172L40 45.332h5.332v5.336h5.336v-5.336H56V40l-5.332-.004ZM17.968 32H5.524a23.883 23.883 0 0 0 3.829 10.668h10.062a54.52 54.52 0 0 1-1.45-10.664Zm18.747 0-15.778.004c.165 3.84.692 7.476 1.528 10.664h12.203v-9.7ZM18.887 18.668H7.937a23.906 23.906 0 0 0-2.546 10.664h12.523l.008-.734c.047-3.528.387-6.88.965-9.93Zm18.226 0h-15.21a55.514 55.514 0 0 0-1.02 10.664h17.246l-.008-1.094a54.733 54.733 0 0 0-1.008-9.574Zm13.75 0h-10.87c.616 3.266.964 6.875.968 10.664h1.394L48 26.668l5.406 2.555-.004-.485a23.885 23.885 0 0 0-2.539-10.07ZM23.805 6.078l-.57.149A24.065 24.065 0 0 0 9.5 16h9.977c1.03-4.137 2.53-7.574 4.328-9.922Zm5.683-.652c-.691 0-1.488.379-2.375 1.25-1.078 1.05-2.133 2.699-3.05 4.824a33.309 33.309 0 0 0-1.54 4.5h13.97a32.12 32.12 0 0 0-1.54-4.496c-.918-2.129-1.973-3.777-3.05-4.828-.88-.86-1.665-1.239-2.368-1.25Zm5.606.68.062.082c1.762 2.347 3.23 5.738 4.25 9.816h9.895a24.055 24.055 0 0 0-14.207-9.899Zm0 0"/></svg>