<svg xmlns="http://www.w3.org/2000/svg" width="64" height="64"><path style="stroke:none;fill-rule:nonzero;fill:#4285f4;fill-opacity:1" d="M58.668 16v31.7H48.102a.505.505 0 0 1-.504-.505v-3.02c0-.277.226-.503.504-.503h6.539V20.023H48.1a.502.502 0 0 1-.503-.5v-3.02c0-.28.226-.503.504-.503Zm-41.84 0c.274 0 .5.223.5.504v3.016c0 .277-.226.5-.504.5H9.355v23.648h7.422c.282 0 .508.227.508.504v3.02a.522.522 0 0 1-.148.359.505.505 0 0 1-.36.144H5.332V16Zm29.645 10.316V30.2l.16.067 3.601-1.278.746 2.188-3.632 1.238-.098.262 2.5 3.363-1.883 1.367-2.433-3.36h-.227l-2.434 3.36-1.878-1.367 2.46-3.363-.062-.262-3.633-1.238.746-2.188 3.567 1.278.195-.067v-3.883Zm-27.285 0v3.844l.16.063 3.605-1.262.746 2.168-3.637 1.226-.093.258 2.496 3.328-1.88 1.36-2.433-3.332h-.226l-2.434 3.328-1.883-1.356 2.465-3.328-.062-.258-3.633-1.226.746-2.168 3.566 1.262.196-.063v-3.844Zm13.585 0v3.844l.164.063 3.598-1.262.746 2.168-3.629 1.226-.101.258 2.5 3.328-1.883 1.36-2.434-3.332h-.226l-2.43 3.328-1.883-1.356 2.465-3.328-.066-.258-3.633-1.226.75-2.168 3.566 1.262.196-.063v-3.844Zm0 0"/></svg>