<svg xmlns="http://www.w3.org/2000/svg" width="64" height="64"><path style="stroke:none;fill-rule:nonzero;fill:#85a4e6;fill-opacity:1" d="M32 2.668 8 13.332v16c0 14.934 10.133 28.535 24 32 13.867-3.465 24-17.066 24-32v-16ZM32 32h18.668C49.332 42.934 41.868 52.8 32 55.734V32H13.332V16.8L32 8.536Zm0 0"/><path style="stroke:none;fill-rule:nonzero;fill:#5c85de;fill-opacity:1" d="M32 2.668v58.664c13.867-3.465 24-17.066 24-32v-16ZM50.668 32C49.332 42.934 41.868 52.8 32 55.734V32Zm0 0"/><path style="stroke:none;fill-rule:evenodd;fill:#3367d6;fill-opacity:1" d="M56 32h-5.332s0 .8-.27 1.602ZM8 32h5.332v-1.602Zm0 0"/></svg>