<svg xmlns="http://www.w3.org/2000/svg" width="64" height="64"><path style="stroke:none;fill-rule:nonzero;fill:#4285f4;fill-opacity:1" d="M20.746 44.266v-10c0-.399-.773-.907-1.305-1.145a14.56 14.56 0 0 1-8.164-15.715A14.552 14.552 0 0 1 24.32 5.434a14.56 14.56 0 0 1 14.961 9.472c2.657 7.012-.511 14.887-7.281 18.106a2.192 2.192 0 0 0-1.441 2.402v23.254h-9.813V54h-9.625v-9.734Zm9.707-24.293a4.858 4.858 0 0 0-4.773-4.934 4.855 4.855 0 0 0-4.934 4.774 4.881 4.881 0 0 0 4.8 4.933 4.903 4.903 0 0 0 4.88-4.773Zm0 0"/><path style="stroke:none;fill-rule:nonzero;fill:#669df6;fill-opacity:1" d="M52.055 14.906C49.55 8.04 42.328 4.11 35.199 5.734a14.5 14.5 0 0 1 11.25 12.563 14.502 14.502 0 0 1-8.234 14.715 2.24 2.24 0 0 0-1.469 2.402v23.254h6.48V35.441a2.217 2.217 0 0 1 1.465-2.402c6.817-3.191 10.024-11.094 7.364-18.133Zm0 0"/></svg>