<svg xmlns="http://www.w3.org/2000/svg" width="64" height="64"><path style="stroke:none;fill-rule:evenodd;fill:#4285f4;fill-opacity:1" d="M48.48 45.973a23.991 23.991 0 0 1-4.027 3.52l7.84 7.839a2.667 2.667 0 0 0 3.762 0 2.669 2.669 0 0 0 0-3.758Zm0 0"/><path style="stroke:none;fill-rule:nonzero;fill:#4285f4;fill-opacity:1" d="M37.332 41.332H24.508L35.172 20h-8.504v-2.668h12.824L28.828 38.668h8.504Zm0 0"/><path style="stroke:none;fill-rule:nonzero;fill:#669df6;fill-opacity:1" d="M40.668 40A3.333 3.333 0 0 1 34 40a3.333 3.333 0 0 1 6.668 0ZM30 40a3.333 3.333 0 0 1-6.668 0A3.333 3.333 0 0 1 30 40Zm0 0"/><path style="stroke:none;fill-rule:nonzero;fill:#4285f4;fill-opacity:1" d="M21.332 28h21.336v2.668H21.332Zm0 0"/><path style="stroke:none;fill-rule:evenodd;fill:#669df6;fill-opacity:1" d="M32 10.668c10.309 0 18.668 8.355 18.668 18.664C50.668 39.645 42.308 48 32 48c-10.309 0-18.668-8.355-18.668-18.668 0-10.309 8.36-18.664 18.668-18.664m0-5.336c-13.254 0-24 10.746-24 24 0 13.258 10.746 24 24 24s24-10.742 24-24c0-13.254-10.746-24-24-24"/><path style="stroke:none;fill-rule:nonzero;fill:#669df6;fill-opacity:1" d="M35.332 29.332A3.333 3.333 0 0 1 32 32.668 3.333 3.333 0 0 1 32 26a3.333 3.333 0 0 1 3.332 3.332ZM24.668 29.332a3.334 3.334 0 1 1-6.668.004 3.334 3.334 0 0 1 6.668-.004ZM46 29.332a3.333 3.333 0 1 1-6.668 0 3.333 3.333 0 0 1 6.668 0ZM40.668 18.668a3.333 3.333 0 0 1-6.668 0 3.333 3.333 0 1 1 6.668 0ZM30 18.668a3.333 3.333 0 1 1-3.332-3.336A3.333 3.333 0 0 1 30 18.668Zm0 0"/></svg>