<svg xmlns="http://www.w3.org/2000/svg" width="64" height="64"><path style="stroke:none;fill-rule:nonzero;fill:#4285f4;fill-opacity:1" d="m17.668 21.715.219.16 13.3 10.367a5.284 5.284 0 0 1 5.63 3.32 5.205 5.205 0 0 1-1.419 5.774 5.304 5.304 0 0 1-5.941.742 5.221 5.221 0 0 1-2.848-4.812l.032-.43-.008-.004-10.266-13.484c-1.148-1.504-.156-2.59 1.301-1.633Zm38.77 16.039c1.23 0 2.23.988 2.23 2.215 0 1.218-1 2.21-2.23 2.21a2.215 2.215 0 0 1-2.231-2.21c0-1.227 1-2.215 2.23-2.215ZM12.91 24.574l2.57 3.528a26.957 26.957 0 0 0-5.902 12.136 2.122 2.122 0 0 1-1.422 1.614 2.14 2.14 0 0 1-2.113-.434 2.116 2.116 0 0 1-.66-2.04 30.973 30.973 0 0 1 7.527-14.804Zm40.598 5.145c1.234 0 2.234.992 2.234 2.215 0 1.222-1 2.214-2.234 2.214a2.22 2.22 0 0 1-2.227-2.214 2.22 2.22 0 0 1 2.227-2.215Zm-5.235-6.864c1.235 0 2.23.989 2.23 2.215a2.22 2.22 0 0 1-2.23 2.211c-.59 0-1.156-.23-1.574-.644a2.214 2.214 0 0 1-.656-1.57c0-1.223 1-2.215 2.23-2.215Zm-7.27-4.859c1.231 0 2.231.992 2.231 2.215 0 1.223-1 2.215-2.23 2.215-.59 0-1.156-.23-1.574-.645a2.238 2.238 0 0 1-.657-1.57c0-1.223 1-2.215 2.23-2.215Zm-16.737-.539c1.23 0 2.23.992 2.23 2.215 0 1.223-1 2.215-2.23 2.215a2.224 2.224 0 0 1-2.23-2.215c0-1.223.995-2.215 2.23-2.215ZM32.676 16c1.23 0 2.226.988 2.226 2.215a2.22 2.22 0 0 1-2.226 2.21 2.203 2.203 0 0 1-1.574-.644 2.21 2.21 0 0 1-.66-1.566c0-1.227 1-2.215 2.234-2.215Zm0 0"/></svg>