<svg xmlns="http://www.w3.org/2000/svg" width="64" height="64"><path style="stroke:none;fill-rule:nonzero;fill:#669df6;fill-opacity:1" d="M5.36 18.64h17.706v4.454H5.36Zm24.425 22.212H5.332v4.457h24.453Zm-17.758-11.09H5.332v4.425H32l-4.453-4.425Zm0 0"/><path style="stroke:none;fill-rule:nonzero;fill:#4285f4;fill-opacity:1" d="M32 24.188a1.125 1.125 0 0 1 1.121-.961 1.098 1.098 0 0 1 1.094.96v24.481a5.582 5.582 0 0 0 2.18 4.36 5.581 5.581 0 0 0 4.777.972 5.756 5.756 0 0 0 4.16-5.625V15.332c-.059-.426.14-.844.508-1.066a1.095 1.095 0 0 1 1.2 0c.37.222.57.64.507 1.066v24.43c0 1.71.8 3.328 2.16 4.37a5.329 5.329 0 0 0 4.8.99 5.764 5.764 0 0 0 4.161-5.657V32h-4.453v7.785c.058.426-.14.848-.508 1.067a1.08 1.08 0 0 1-1.2 0A1.058 1.058 0 0 1 52 39.785V15.332A5.574 5.574 0 0 0 45.04 10a5.763 5.763 0 0 0-4.161 5.68v32.988c.062.426-.137.844-.504 1.066a1.102 1.102 0 0 1-1.203 0 1.065 1.065 0 0 1-.504-1.066V24.215a5.52 5.52 0 0 0-10.96-.96 6.142 6.142 0 0 0-.134 1.225v5.332L32 34.188Zm0 0"/></svg>