<svg xmlns="http://www.w3.org/2000/svg" width="64" height="64"><path style="stroke:none;fill-rule:evenodd;fill:#669df6;fill-opacity:1" d="m17.813 43.465-6.426-11.36 6.425-11.332h-6.027L5.332 32.105l6.453 11.36Zm0 0"/><path style="stroke:none;fill-rule:evenodd;fill:#4285f4;fill-opacity:1" d="m12.188 33.492-.801-1.387H5.332l2.961 5.254Zm0 0"/><path style="stroke:none;fill-rule:evenodd;fill:#aecbfa;fill-opacity:1" d="M40 16.988H24.32L15.492 32l8.828 14.906H40L48.773 32Zm-7.813 22.293a7.042 7.042 0 1 1 7.094-7.043 7.07 7.07 0 0 1-7.094 7.043Zm-20.8-7.12 6.425-11.388h-6.027L5.332 32.16l2.961 5.254Zm0 0"/><path style="stroke:none;fill-rule:evenodd;fill:#669df6;fill-opacity:1" d="m40 17.2-4.535 8.878a7.095 7.095 0 0 1-3.332 13.336 6.965 6.965 0 0 1-3.145-.723l-4.668 8.32H40L48.773 32Zm0 0"/><path style="stroke:none;fill-rule:evenodd;fill:#669df6;fill-opacity:1" d="m46.188 20.773 6.425 11.332-6.425 11.36h6.05l6.43-11.36-6.43-11.332Zm0 0"/><path style="stroke:none;fill-rule:evenodd;fill:#4285f4;fill-opacity:1" d="m51.813 30.746.8 1.36h6.055l-2.961-5.254Zm0 0"/><path style="stroke:none;fill-rule:evenodd;fill:#aecbfa;fill-opacity:1" d="m52.613 32.055-6.425 11.41h6.05l6.43-11.41-2.961-5.254Zm0 0"/></svg>