<svg xmlns="http://www.w3.org/2000/svg" width="64" height="64"><path style="stroke:none;fill-rule:nonzero;fill:#4285f4;fill-opacity:1" d="M24 40a16.588 16.588 0 0 0-10.668-13.332v-5.336a21.917 21.917 0 0 1 16 18.668ZM13.332 18.668v10.664l-8-5.332Zm16 22.371V48H24v-6.988"/><path style="stroke:none;fill-rule:nonzero;fill:#669df6;fill-opacity:1" d="M24 13.332h-2.668l5.336-8 5.332 8h-2.668V48H24Zm0 0"/><path style="stroke:none;fill-rule:nonzero;fill:#aecbfa;fill-opacity:1" d="M50.668 45.332V34.668l8 5.332Zm-16-22.344V16H40v6.988"/><path style="stroke:none;fill-rule:nonzero;fill:#669df6;fill-opacity:1" d="M40 50.668h2.668l-5.336 8-5.332-8h2.668V16H40Zm0 0"/><path style="stroke:none;fill-rule:nonzero;fill:#aecbfa;fill-opacity:1" d="M34.668 16H40v6.48a16.34 16.34 0 0 0 10.668 14.852v5.336a21.731 21.731 0 0 1-16-20.215"/></svg>