<svg xmlns="http://www.w3.org/2000/svg" width="64" height="64"><path style="stroke:none;fill-rule:nonzero;fill:#4285f4;fill-opacity:1" d="M57.68 17.52H24.69a.851.851 0 0 0-.851.878v5.762c0 .473.383.852.851.852H57.68a.854.854 0 0 0 .988-.852v-5.762a.857.857 0 0 0-.828-.878Zm-29.707 5.707a1.867 1.867 0 1 1 0-3.735 1.867 1.867 0 0 1 0 3.735Zm29.707 5.066H24.69a.854.854 0 0 0-.851.855v5.73c0 .474.383.856.851.856H57.68a.855.855 0 0 0 .855-.855v-5.73a.855.855 0 0 0-.855-.856ZM27.973 34a1.867 1.867 0 1 1 0-3.734 1.867 1.867 0 0 1 0 3.734Zm29.84 4.988H24.852a.851.851 0 0 0-.852.852v5.762a.851.851 0 0 0 .852.879h32.96a.86.86 0 0 0 .614-.258.86.86 0 0 0 .242-.621V39.84a.852.852 0 0 0-.855-.852Zm-29.708 5.68a1.896 1.896 0 0 1-1.867-1.895 1.896 1.896 0 0 1 3.762 0 1.894 1.894 0 0 1-1.895 1.895Zm0 0"/><path style="stroke:none;fill-rule:nonzero;fill:#669df6;fill-opacity:1" d="M17.973 26.293h-5.68a2.162 2.162 0 0 1-2.426-1.867A2.164 2.164 0 0 1 11.734 22h6.239a2.171 2.171 0 0 1 2.492 1.8 2.174 2.174 0 0 1-1.797 2.493Zm0 0"/><path style="stroke:none;fill-rule:nonzero;fill:#aecbfa;fill-opacity:1" d="M17.973 34.16H7.785a2.185 2.185 0 0 1-2.254-1.902 2.185 2.185 0 0 1 1.696-2.418h10.668a2.196 2.196 0 0 1 2.546 1.773 2.2 2.2 0 0 1-1.773 2.547Zm0 0"/><path style="stroke:none;fill-rule:nonzero;fill:#669df6;fill-opacity:1" d="M17.973 42h-5.68a2.162 2.162 0 0 1-2.426-1.867 2.162 2.162 0 0 1 1.867-2.426h6.239a2.171 2.171 0 0 1 2.492 1.8A2.174 2.174 0 0 1 18.668 42Zm0 0"/></svg>