<svg xmlns="http://www.w3.org/2000/svg" width="64" height="64"><path style="stroke:none;fill-rule:evenodd;fill:#5c85de;fill-opacity:1" d="m55.734 36 5.067 4c.531.535.8 1.332.265 1.867L55.2 52.266c-.265.535-1.066.8-1.867.535l-5.867-2.403c-2.133 1.602-4.531 2.934-6.93 4l-.8 6.403c0 .8-.801 1.332-1.602 1.332H25.867c-.8 0-1.332-.531-1.601-1.332l-.801-6.403c-2.399-.796-4.797-2.398-6.93-4l-5.867 2.403c-.8.265-1.336 0-1.867-.535L2.934 41.867c-.266-.8-.266-1.601.53-1.867l5.071-4a20.133 20.133 0 0 1 0-8l-5.07-4c-.797-.266-.797-1.066-.531-1.867L8.8 11.734c.265-.535 1.066-.8 1.867-.535l5.867 2.403c2.133-1.868 4.531-3.204 7.2-4l.8-6.403c0-.8.797-1.332 1.598-1.332h12c.8 0 1.332.531 1.601 1.332l.801 6.403c2.399.796 4.797 2.398 6.93 4l5.867-2.403c.8-.265 1.336 0 1.867.535l5.867 10.399c.266.8.266 1.601-.53 1.867l-5.071 4c.535 2.668.535 5.332.27 8ZM32 48c2.133 0 4-1.867 4-4h-8c0 2.133 1.867 4 4 4Zm10.133-18.133c0-6.133-1.332-9.332-6.934-10.668v-1.066c0-1.598-1.332-2.934-2.933-2.934-1.598 0-3.2 1.067-3.2 2.934v1.332C23.2 20.8 22.133 24 22.133 30.133V36l-4 4v2.133h28V40l-4-4Zm0 0"/><path style="stroke:none;fill-rule:evenodd;fill:#3367d6;fill-opacity:1" d="M32 61.867V48c2.133 0 4-1.867 4-4h-4v-2.133h13.867V40l-4-4v-5.867c0-6.133-1.332-9.332-6.933-10.668v-1.332c0-1.598-1.332-2.934-2.934-2.934V2.133h5.867c.801 0 1.332.535 1.598 1.332l.8 6.402c2.403.801 4.801 2.399 6.934 4l5.867-2.402c.801-.266 1.332 0 1.868.535L60.8 22.398c.531.536.531 1.336-.266 1.602l-5.07 4a20.133 20.133 0 0 1 0 8l5.07 4c.531.535.797 1.332.266 1.867l-5.867 10.399c-.266.535-1.067.8-1.868.535L47.2 50.398c-2.133 1.602-4.531 2.934-6.933 4l-.801 6.403c0 .8-.797 1.332-1.598 1.332H32Zm0 0"/></svg>