<svg xmlns="http://www.w3.org/2000/svg" width="64" height="64"><path style="stroke:none;fill-rule:nonzero;fill:#669df6;fill-opacity:1" d="M53.332 37.04a2.051 2.051 0 0 0-2.664-.427L32 50.32v.586a1.931 1.931 0 0 1 1.852.883 1.925 1.925 0 0 1 0 2.05 1.92 1.92 0 0 1-1.852.88 1.95 1.95 0 0 0 1.2-.399l19.76-14.586a2.029 2.029 0 0 0 .372-2.695Zm0 0"/><path style="stroke:none;fill-rule:nonzero;fill:#aecbfa;fill-opacity:1" d="M32 54.719a1.921 1.921 0 0 1-1.695-1.907c0-.972.73-1.792 1.695-1.906v-.586L13.332 36.613a2.02 2.02 0 0 0-2.664.426 1.971 1.971 0 0 0 .426 2.668l19.758 14.586c.34.258.75.398 1.175.398Zm0 0"/><path style="stroke:none;fill-rule:nonzero;fill:#4285f4;fill-opacity:1" d="M32 48.906a3.921 3.921 0 1 0 0 7.84 3.921 3.921 0 1 0 0-7.84Zm0 5.813c-.777 0-1.48-.469-1.777-1.192a1.923 1.923 0 0 1 .43-2.093 1.914 1.914 0 0 1 2.1-.399 1.926 1.926 0 0 1 1.169 1.793c0 .504-.203.992-.567 1.348-.359.355-.847.55-1.355.543Zm0 0"/><path style="stroke:none;fill-rule:nonzero;fill:#aecbfa;fill-opacity:1" d="M16 16.293a2.03 2.03 0 0 1-2-2V9.281a2.028 2.028 0 1 1 4.027 0v5.012c-.015 1.11-.918 2-2.027 2ZM17.973 32a2.026 2.026 0 1 1-4.051 0 2.025 2.025 0 1 1 4.05 0ZM17.973 26.105a2.026 2.026 0 1 1-4.051 0c0-1.117.906-2.027 2.023-2.027 1.121 0 2.028.91 2.028 2.027ZM17.973 20.188a2.028 2.028 0 0 1-2.028 2.027 2.027 2.027 0 0 1 0-4.055c1.121 0 2.028.906 2.028 2.027Zm0 0"/><path style="stroke:none;fill-rule:nonzero;fill:#4285f4;fill-opacity:1" d="M48 22.16c-1.11-.015-2-.918-2-2.027V15.12a1.999 1.999 0 1 1 4 0v5.012a2.001 2.001 0 0 1-2 2.027ZM50.078 32.027a2.027 2.027 0 0 1-2.023 2.028 2.028 2.028 0 0 1 0-4.055c1.117 0 2.023.906 2.023 2.027ZM50.078 26.027a2.027 2.027 0 0 1-2.023 2.028 2.028 2.028 0 0 1 0-4.055c1.117 0 2.023.906 2.023 2.027ZM50.078 9.281a2.027 2.027 0 0 1-2.023 2.028 2.028 2.028 0 0 1 0-4.055c1.117 0 2.023.906 2.023 2.027Zm0 0"/><path style="stroke:none;fill-rule:nonzero;fill:#669df6;fill-opacity:1" d="M32 40a2.03 2.03 0 0 1-2-2v-5.094a2.024 2.024 0 0 1 2.012-1.793c1.031 0 1.898.77 2.015 1.793v5.04A2.024 2.024 0 0 1 32 40ZM34.027 43.867a2.028 2.028 0 1 1-4.056-.001 2.028 2.028 0 0 1 4.056.001ZM34.027 27.04A2.026 2.026 0 0 1 32 29.065a2.028 2.028 0 1 1 2.027-2.027ZM34.027 21.121a2.028 2.028 0 1 1-4.056-.001 2.028 2.028 0 0 1 4.056.001Zm0 0"/><path style="stroke:none;fill-rule:nonzero;fill:#4285f4;fill-opacity:1" d="M40 28.105a2.024 2.024 0 0 1-2-2v-5.011a2.032 2.032 0 0 1 .934-1.95c.66-.414 1.5-.414 2.16 0a2.032 2.032 0 0 1 .933 1.95v5.011c-.015 1.11-.918 2-2.027 2ZM42.055 15.172a2.028 2.028 0 0 1-4.055 0 2.027 2.027 0 0 1 4.055 0ZM42.055 37.84a2.028 2.028 0 1 1-4.056-.002 2.028 2.028 0 0 1 4.056.002ZM42.055 31.922a2.027 2.027 0 0 1-4.055 0 2.028 2.028 0 0 1 4.055 0Zm0 0"/><path style="stroke:none;fill-rule:nonzero;fill:#aecbfa;fill-opacity:1" d="M26 37.84a2.028 2.028 0 1 1-4.053-.001 2.028 2.028 0 0 1 4.053 0ZM26 21.121a2.028 2.028 0 1 1-4.056-.001A2.028 2.028 0 0 1 26 21.12ZM26 15.172a2.028 2.028 0 0 1-4.055 0 2.027 2.027 0 0 1 4.055 0ZM24 33.945A2.022 2.022 0 0 1 21.973 32v-5.066c0-1.106.894-2 2-2 1.105 0 2 .894 2 2V32A1.995 1.995 0 0 1 24 33.945Zm0 0"/></svg>