<svg xmlns="http://www.w3.org/2000/svg" width="64" height="64"><path style="stroke:none;fill-rule:nonzero;fill:#669df6;fill-opacity:1" d="M43.547 12.879H28.828l3.918 6.215h5.469v3.547h-7.79l-6.21-9.762H5.359v11.547h5.309l3.36-6.211h6.85l2.294 3.547H16.32l-3.36 6.21h-7.6v6.907h7.6l3.36 6.43h6.852l-2.293 3.57h-6.852l-3.359-6.238H5.359v11.574h18.856l6.21-9.79h7.79v3.548h-5.469l-3.918 6.242h14.719V33.309H26.453l-2.215 3.57h-4.906l3.36-5.332-3.36-5.332h4.906l2.137 3.547h17.172Zm0 0"/><path style="stroke:none;fill-rule:nonzero;fill:#4285f4;fill-opacity:1" d="M58.668 15.813 48 23.573V39.84l10.668 7.867Zm0 0"/></svg>