<svg xmlns="http://www.w3.org/2000/svg" width="64" height="64"><path style="stroke:none;fill-rule:nonzero;fill:#aecbfa;fill-opacity:1" d="M42.668 5.332h16v16h-16Zm0 0"/><path style="stroke:none;fill-rule:nonzero;fill:#669df6;fill-opacity:1" d="M50.668 5.332h8v16h-8Zm0 0"/><path style="stroke:none;fill-rule:nonzero;fill:#aecbfa;fill-opacity:1" d="M42.668 42.668h16v16h-16Zm0 0"/><path style="stroke:none;fill-rule:nonzero;fill:#669df6;fill-opacity:1" d="M50.668 42.668h8v16h-8Zm0 0"/><path style="stroke:none;fill-rule:nonzero;fill:#aecbfa;fill-opacity:1" d="M5.332 5.332h16v16h-16Zm0 0"/><path style="stroke:none;fill-rule:nonzero;fill:#669df6;fill-opacity:1" d="M13.332 5.332h8v16h-8Zm0 0"/><path style="stroke:none;fill-rule:nonzero;fill:#aecbfa;fill-opacity:1" d="M5.332 42.668h16v16h-16Zm0 0"/><path style="stroke:none;fill-rule:nonzero;fill:#669df6;fill-opacity:1" d="M13.332 42.668h8v16h-8Zm8-32h21.336V16H21.332Zm0 37.332h21.336v5.332H21.332ZM48 21.332h5.332v21.336H48Zm-37.332 0H16v21.336h-5.332Zm0 0"/><path style="stroke:none;fill-rule:nonzero;fill:#4285f4;fill-opacity:1" d="M10.668 21.332H16v5.336h-5.332Zm37.332 0h5.332v5.336H48ZM21.332 10.668h5.336V16h-5.336Zm0 37.332h5.336v5.332h-5.336Zm0 0"/></svg>