<svg xmlns="http://www.w3.org/2000/svg" width="64" height="64"><path style="stroke:none;fill-rule:evenodd;fill:#669df6;fill-opacity:1" d="m38.078 40.879 5.149 5.148L32 55.067 3.2 32h18.132c0 5.89 4.777 10.668 10.668 10.668 2.16.02 4.273-.605 6.078-1.79ZM42.668 32a10.682 10.682 0 0 1-1.707 5.813l5.547 5.601L60.828 32Zm0 0"/><path style="stroke:none;fill-rule:evenodd;fill:#aecbfa;fill-opacity:1" d="M32 8.96 3.2 32h18.132c0-5.89 4.777-10.668 10.668-10.668 5.89 0 10.668 4.777 10.668 10.668h18.105Zm0 0"/><path style="stroke:none;fill-rule:evenodd;fill:#4285f4;fill-opacity:1" d="M32 25.52a6.323 6.323 0 0 1 4.559 1.894 6.398 6.398 0 0 1 1.925 4.574 6.396 6.396 0 0 1-1.925 4.57 6.42 6.42 0 0 1-9.118 0 6.396 6.396 0 0 1-1.925-4.57c0-1.722.695-3.37 1.925-4.574A6.323 6.323 0 0 1 32 25.52Zm0 0"/></svg>