<svg xmlns="http://www.w3.org/2000/svg" width="64" height="64"><path style="stroke:none;fill-rule:evenodd;fill:#4285f4;fill-opacity:1" d="M16.918 36.02c6.305-.004 11.414 5.105 11.418 11.406-.004 6.304-5.117 11.41-11.418 11.406-6.305.004-11.414-5.102-11.418-11.406 0-6.301 5.113-11.41 11.418-11.406Zm-.09 4.976-1.738 1.742 3.676 3.696-8.286-.004v2.472h8.293l-3.683 3.7 1.734 1.742 6.653-6.676ZM58.832 5.5v33.395H47.316v11.503H30.574c.363-1.597.438-3.25.223-4.878h11.637V34.016h11.515V10.379H30.29v11.508H18.77v11.62a14.15 14.15 0 0 0-4.882.223V17.008h11.52V5.5Zm-9.64 9.629v14.137H37.675V40.77h-8.403a13.998 13.998 0 0 0-5.746-5.739v-8.394h11.52V15.129Zm0 0"/></svg>