<svg xmlns="http://www.w3.org/2000/svg" width="64" height="64"><path style="stroke:none;fill-rule:nonzero;fill:#4285f4;fill-opacity:1" d="M38.426 30.668a7.92 7.92 0 1 1-15.841-.005 7.92 7.92 0 0 1 15.84.005Zm0 0"/><path style="stroke:none;fill-rule:nonzero;fill:#669df6;fill-opacity:1" d="M16.105 28.773a5.387 5.387 0 1 1-10.772-.001 5.387 5.387 0 0 1 10.772.001ZM44.105 49.652a5.387 5.387 0 1 1-10.772-.001 5.387 5.387 0 0 1 10.772.001ZM52.188 11.2a6.482 6.482 0 0 0 0 12.96 6.482 6.482 0 0 0 0-12.96Zm0 10.132a3.652 3.652 0 0 1-2.622-6.227 3.653 3.653 0 0 1 6.246 2.574 3.649 3.649 0 0 1-3.625 3.653Zm0 0"/><path style="stroke:none;fill-rule:nonzero;fill:#669df6;fill-opacity:1" d="M48.535 17.813A22.106 22.106 0 0 0 35.04 8.96l-.746 3.574c10.023 2.086 16.453 11.906 14.363 21.926-2.09 10.023-11.914 16.453-21.933 14.36-10.024-2.098-16.446-11.919-14.348-21.942a18.363 18.363 0 0 1 4.984-9.254l-2.668-2.664c-7.925 8.02-8.566 20.71-1.484 29.488 7.078 8.778 19.617 10.84 29.133 4.79 9.515-6.048 12.972-18.278 8.035-28.41a3.625 3.625 0 0 1-1.84-3.017Zm0 0"/></svg>