<svg xmlns="http://www.w3.org/2000/svg" width="64" height="64"><path style="stroke:none;fill-rule:nonzero;fill:#4285f4;fill-opacity:1" d="M10.668 48V16H32v-5.332H8a2.666 2.666 0 0 0-2.668 2.664v37.336A2.666 2.666 0 0 0 8 53.332h24V48Zm0 0"/><path style="stroke:none;fill-rule:nonzero;fill:#669df6;fill-opacity:1" d="M56 10.668H32V16h21.332v32H32v5.332h24a2.666 2.666 0 0 0 2.668-2.664V13.332A2.666 2.666 0 0 0 56 10.668M24 32v-5.332L32 24v-5.332L18.668 24v8c0 6.348 8 13.332 13.332 13.332V40c-2.375 0-8-3.68-8-8"/><path style="stroke:none;fill-rule:nonzero;fill:#aecbfa;fill-opacity:1" d="M40 32c0 4.32-5.602 8-8 8v5.332c5.332 0 13.332-6.984 13.332-13.332v-8L32 18.668V24l8 2.668V32"/><path style="stroke:none;fill-rule:nonzero;fill:#4285f4;fill-opacity:1" d="M33.574 34.133a2.293 2.293 0 0 1-3.176 0l-2.664-3.254 1.598-1.547L32 32.238l8-8 1.602 1.575Zm0 0"/></svg>