<svg xmlns="http://www.w3.org/2000/svg" width="64" height="64"><path style="stroke:none;fill-rule:nonzero;fill:#4285f4;fill-opacity:1" d="M52 53.492h-1.867v-4H52a2.024 2.024 0 0 0 2-2V36a2.03 2.03 0 0 0-2-2h-9.625v-4H52c3.313 0 6 2.688 6 6v11.492c0 3.317-2.688 6-6 6Zm-21.2 0H17.735v-4h13.067Zm0 0"/><path style="stroke:none;fill-rule:evenodd;fill:#669df6;fill-opacity:1" d="M21.652 34H12c-3.313 0-6-2.688-6-6V16.508c0-3.317 2.688-6 6-6h2.668v4H12c-1.105 0-2 .894-2 2V28a2.03 2.03 0 0 0 2 2h9.652Zm0 0"/><path style="stroke:none;fill-rule:nonzero;fill:#4285f4;fill-opacity:1" d="M46.133 14.508H31.52v-4h14.613Zm0 0"/><path style="stroke:none;fill-rule:nonzero;fill:#aecbfa;fill-opacity:1" d="M23.012 10.508v-4h-8A3.013 3.013 0 0 0 12 9.492v6a3.014 3.014 0 0 0 3.012 3.016h8v-4H16v-4Zm0 0"/><path style="stroke:none;fill-rule:evenodd;fill:#669df6;fill-opacity:1" d="M34 9.492v6c0 1.656-1.332 3-2.988 3.016h-8v-4H30v-4h-6.988v-4h8A2.985 2.985 0 0 1 34 9.492Zm0 0"/><path style="stroke:none;fill-rule:nonzero;fill:#aecbfa;fill-opacity:1" d="M51.492 19.012a6.502 6.502 0 0 1-6.504-6.504 6.505 6.505 0 1 1 13.012 0 6.53 6.53 0 0 1-6.508 6.504Zm0-9.012a2.505 2.505 0 0 0-2.504 2.508 2.504 2.504 0 0 0 2.504 2.504 2.505 2.505 0 1 0 0-5.012Zm0 0"/><path style="stroke:none;fill-rule:nonzero;fill:#9aa0a6;fill-opacity:1" d="M12.508 58a6.5 6.5 0 0 1-6.031-4 6.503 6.503 0 0 1 1.394-7.098 6.498 6.498 0 0 1 7.094-1.422A6.505 6.505 0 0 1 12.508 58Zm0-9.012a2.502 2.502 0 0 0-2.336 1.528 2.512 2.512 0 0 0 .527 2.742 2.504 2.504 0 0 0 2.735.554 2.507 2.507 0 0 0-.926-4.824Zm0 0"/><path style="stroke:none;fill-rule:nonzero;fill:#aecbfa;fill-opacity:1" d="M12.508 58a6.5 6.5 0 0 1-6.031-4 6.503 6.503 0 0 1 1.394-7.098 6.498 6.498 0 0 1 7.094-1.422A6.505 6.505 0 0 1 12.508 58Zm0-9.012a2.502 2.502 0 0 0-2.336 1.528 2.512 2.512 0 0 0 .527 2.742 2.504 2.504 0 0 0 2.735.554 2.507 2.507 0 0 0-.926-4.824Zm28.453.532v-4h-8a3.014 3.014 0 0 0-2.988 3.015v6a2.985 2.985 0 0 0 2.988 2.985h8v-4h-6.988v-4Zm0 0"/><path style="stroke:none;fill-rule:evenodd;fill:#669df6;fill-opacity:1" d="M51.973 48.535v6a3.013 3.013 0 0 1-3.012 2.985h-8v-4H48v-4h-7.04v-4h8a3.042 3.042 0 0 1 3.013 3.015Zm0 0"/><path style="stroke:none;fill-rule:nonzero;fill:#aecbfa;fill-opacity:1" d="M32 30v-4h-8a3.01 3.01 0 0 0-3.012 2.988v6A3.01 3.01 0 0 0 24 38h8v-4h-7.012v-4Zm0 0"/><path style="stroke:none;fill-rule:evenodd;fill:#669df6;fill-opacity:1" d="M42.988 28.988v6A3.016 3.016 0 0 1 40 38h-8v-4h6.988v-4H32v-4h8a2.988 2.988 0 0 1 2.988 2.988Zm0 0"/></svg>