<svg xmlns="http://www.w3.org/2000/svg" width="64" height="64"><path style="fill:none;stroke-width:2;stroke-linecap:butt;stroke-linejoin:miter;stroke:#4285f4;stroke-opacity:1;stroke-miterlimit:10" d="M4 6h16a1 1 0 0 1 1 1v10a1 1 0 0 1-1 1H4a1 1 0 0 1-1-1V7a1 1 0 0 1 1-1Zm0 0" transform="scale(2.66667)"/><path style="fill:none;stroke-width:1;stroke-linecap:butt;stroke-linejoin:miter;stroke:#669df6;stroke-opacity:1;stroke-miterlimit:10" d="M14.002 10.47h4m-4 3.042h4" transform="scale(2.66667)"/><path style="fill:none;stroke-width:1;stroke-linecap:butt;stroke-linejoin:miter;stroke:#aecbfa;stroke-opacity:1;stroke-miterlimit:10" d="M6.492 9.49H11.5v5.008H6.492Zm0 0" transform="scale(2.66667)"/><path style="stroke:none;fill-rule:nonzero;fill:#4285f4;fill-opacity:1" d="M21.34 29.355h5.37v5.313h-5.37Zm0 0"/></svg>