<svg id="emoji" viewBox="0 0 72 72" xmlns="http://www.w3.org/2000/svg" width="64" height="64">
  <g id="color">
    <path fill="#FCEA2B" d="M36,13c-12.6823,0-23,10.3177-23,23c0,12.6822,10.3177,23,23,23c12.6822,0,23-10.3178,23-23 C59,23.3177,48.6822,13,36,13z"/>
  </g>
  <g id="hair"/>
  <g id="skin"/>
  <g id="skin-shadow"/>
  <g id="line">
    <circle cx="36" cy="36" r="23" fill="none" stroke="#000000" strokeMiterlimit="10" strokeWidth="2"/>
    <path fill="none" stroke="#000000" strokeLinecap="round" strokeLinejoin="round" strokeMiterlimit="10" strokeWidth="2" d="M29.5,43c1.2841-0.6376,3.9847-1.0308,6.8421-0.9981c2.6235,0.03,4.9897,0.4146,6.1579,0.9981"/>
    <line x1="47.5" x2="42.5" y1="29" y2="33" fill="none" stroke="#000000" strokeLinecap="round" strokeLinejoin="round" strokeMiterlimit="10" strokeWidth="2"/>
    <line x1="42.5" x2="47.5" y1="29" y2="33" fill="none" stroke="#000000" strokeLinecap="round" strokeLinejoin="round" strokeMiterlimit="10" strokeWidth="2"/>
    <line x1="29.5" x2="24.5" y1="29" y2="33" fill="none" stroke="#000000" strokeLinecap="round" strokeLinejoin="round" strokeMiterlimit="10" strokeWidth="2"/>
    <line x1="24.5" x2="29.5" y1="29" y2="33" fill="none" stroke="#000000" strokeLinecap="round" strokeLinejoin="round" strokeMiterlimit="10" strokeWidth="2"/>
  </g>
</svg>
