<svg id="emoji" viewBox="0 0 72 72" xmlns="http://www.w3.org/2000/svg" width="64" height="64">
  <g id="color">
    <circle cx="36.0928" cy="58.8419" r="3" fill="#FFFFFF" stroke="none" strokeLinecap="round" strokeLinejoin="round" strokeMiterlimit="10" strokeWidth="2"/>
    <path fill="#FFFFFF" stroke="none" strokeLinecap="round" strokeLinejoin="round" strokeMiterlimit="10" strokeWidth="2" d="M35.9873,49.3729c-1.3809,0-2.5-1.1191-2.5-2.5V11.6636c0-1.3809,1.1191-2.5,2.5-2.5s2.5,1.1191,2.5,2.5v35.2093 C38.4873,48.2538,37.3682,49.3729,35.9873,49.3729z"/>
  </g>
  <g id="hair"/>
  <g id="skin"/>
  <g id="skin-shadow"/>
  <g id="line">
    <circle cx="36.0928" cy="58.8419" r="3" fill="none" stroke="#000000" strokeLinecap="round" strokeLinejoin="round" strokeMiterlimit="10" strokeWidth="2"/>
    <path fill="none" stroke="#000000" strokeLinecap="round" strokeLinejoin="round" strokeMiterlimit="10" strokeWidth="2" d="M35.9873,49.3729c-1.3809,0-2.5-1.1191-2.5-2.5V11.6636c0-1.3809,1.1191-2.5,2.5-2.5s2.5,1.1191,2.5,2.5v35.2093 C38.4873,48.2538,37.3682,49.3729,35.9873,49.3729z"/>
  </g>
</svg>
