<svg width="64" height="64" xmlns="http://www.w3.org/2000/svg"><defs><linearGradient x1="0%" y1="100%" x2="100%" y2="0%" id="a"><stop stop-color="#B0084D" offset="0%"/><stop stop-color="#FF4F8B" offset="100%"/></linearGradient></defs><g fill="none" fill-rule="evenodd"><path d="M0 0h64v64H0z" fill="url(#a)"/><path d="M28 44h3v-2h-3v2Zm5 0h3v-2h-3v2Zm-5-22h3v-2h-3v2Zm5 0h3v-2h-3v2Zm-11-9.26-10 5.834v27.808l10 5V12.741ZM24 20h2v2h-2v20h2v2h-2v9a1.001 1.001 0 0 1-1.447.895l-12-6A1.001 1.001 0 0 1 10 47V18a1 1 0 0 1 .496-.864l12-7A1.002 1.002 0 0 1 24 11v9Zm28-1.426L42 12.74v38.641l10-5V18.574ZM54 18v29c0 .379-.214.725-.553.895l-12 6a1.005 1.005 0 0 1-.972-.044A1.001 1.001 0 0 1 40 53v-9h-2v-2h2V22h-2v-2h2v-9a.998.998 0 0 1 1.504-.864l12 7A1 1 0 0 1 54 18Zm-19.061 9.342-1.878-.684-4 11 1.878.684 4-11Zm4.768 5.365a.999.999 0 0 0 0-1.414l-3-3-1.414 1.414L37.586 32l-2.293 2.293 1.414 1.414 3-3Zm-12.414 3-3-3a.999.999 0 0 1 0-1.414l3-3 1.414 1.414L26.414 32l2.293 2.293-1.414 1.414Z" fill="#FFF"/></g></svg>