<svg width="64" height="64" xmlns="http://www.w3.org/2000/svg"><defs><linearGradient x1="0%" y1="100%" x2="100%" y2="0%" id="a"><stop stop-color="#B0084D" offset="0%"/><stop stop-color="#FF4F8B" offset="100%"/></linearGradient></defs><g fill="none" fill-rule="evenodd"><path d="M0 0h64v64H0z" fill="url(#a)"/><path d="m53.362 22.968-3.425-1.128c4.082 7.557 3.292 17.17-2.245 23.379C43.757 49.63 38.008 52 32.205 52c-3.157 0-6.331-.702-9.239-2.16l.913-1.779c7.441 3.732 16.82 1.98 22.3-4.163 5.008-5.613 5.63-14.718 1.734-21.558l-1.344 3.987-1.914-.631 2.017-5.984a1.008 1.008 0 0 1 1.276-.63L54 21.075l-.638 1.892ZM16.817 40.19l.567-3.371 1.99.328-1.008 5.984a.997.997 0 0 1-.475.69 1.014 1.014 0 0 1-.84.092L11 41.918l.638-1.892 3.413 1.124c-3.998-7.337-3.187-16.197 2.326-22.377 6.066-6.8 16.435-8.744 24.657-4.623l-.913 1.78c-7.41-3.717-16.762-1.966-22.23 4.163-4.94 5.537-5.663 13.491-2.074 20.097Zm6.988-3.208c0-.897.74-1.627 1.646-1.627.908 0 1.646.73 1.646 1.627a1.64 1.64 0 0 1-1.646 1.63 1.64 1.64 0 0 1-1.646-1.63Zm7.85-8.814c.272.065.552.108.844.108.263 0 .519-.03.765-.082l2.964 6.023a3.618 3.618 0 0 0-1.167 1.768h-6.105a3.605 3.605 0 0 0-1.108-1.72l3.807-6.097Zm.844-5.142c.908 0 1.647.73 1.647 1.628 0 .897-.739 1.627-1.647 1.627-.906 0-1.645-.73-1.645-1.627 0-.898.739-1.628 1.645-1.628Zm7.714 13.956a1.64 1.64 0 0 1-1.647 1.63 1.64 1.64 0 0 1-1.646-1.63c0-.897.74-1.627 1.646-1.627.908 0 1.647.73 1.647 1.627Zm-11.257.998h6.105a3.653 3.653 0 0 0 3.505 2.626c2.02 0 3.665-1.626 3.665-3.624 0-1.997-1.644-3.622-3.665-3.622-.168 0-.33.027-.49.049l-3.032-6.16a3.583 3.583 0 0 0 1.119-2.595c0-1.998-1.643-3.623-3.664-3.623-2.02 0-3.662 1.625-3.662 3.623 0 .99.405 1.885 1.056 2.539l-3.885 6.223a3.642 3.642 0 0 0-.557-.056c-2.02 0-3.663 1.625-3.663 3.622 0 1.998 1.643 3.624 3.663 3.624a3.652 3.652 0 0 0 3.505-2.626Z" fill="#FFF"/></g></svg>