<svg width="64" height="64" xmlns="http://www.w3.org/2000/svg"><defs><linearGradient x1="0%" y1="100%" x2="100%" y2="0%" id="a"><stop stop-color="#B0084D" offset="0%"/><stop stop-color="#FF4F8B" offset="100%"/></linearGradient></defs><g fill="none" fill-rule="evenodd"><path d="M0 0h64v64H0z" fill="url(#a)"/><path d="M47.219 15H33.376L21.249 35.387l-.605-2.259-1.932.518 1.585 5.913 5.913-1.584-.517-1.932-2.982.799L34.513 17h11.552l5.774 10-5.774 10h-5.921v2h7.075l6.929-12-6.929-12Zm-4.965 13.671L30.787 49H16.928L10 37l6.928-12h6.216v2h-5.062l-5.773 10 5.773 10h11.537l11.199-19.853-3.023.81-.517-1.932 5.914-1.584 1.584 5.913-1.932.518-.59-2.201Z" fill="#FFF"/></g></svg>