<svg width="64" height="64" xmlns="http://www.w3.org/2000/svg"><defs><linearGradient x1="0%" y1="100%" x2="100%" y2="0%" id="a"><stop stop-color="#B0084D" offset="0%"/><stop stop-color="#FF4F8B" offset="100%"/></linearGradient></defs><g fill="none" fill-rule="evenodd"><path d="M0 0h64v64H0z" fill="url(#a)"/><path d="M10 37h19v-2H10v2Zm6-5h14v-2H16v2Zm18.47 2.281c0 .112.008.218.02.319.106.777.769 1.4 1.511 1.4h10c.229-.032 1.305-.264 1.305-1.696 0-1.189-.859-1.587-1.578-1.711a1 1 0 0 1-.831-1.025c-.05-.5-.248-.845-.535-.929-.213-.061-.427.028-.574.227a1.004 1.004 0 0 1-.952.395.997.997 0 0 1-.795-.655c-.188-.531-.467-.992-.806-1.332-.305-.306-1.005-.873-1.993-.873-.346 0-.729.07-1.142.245-.878.372-1.62 1.536-1.62 2.541 0 .119.007.235.022.35.06.499-.26.965-.746 1.089-.854.217-1.286.774-1.286 1.655Zm-1.962.582a4.344 4.344 0 0 1-.038-.582c0-1.519.739-2.711 2.016-3.317.095-1.742 1.282-3.502 2.833-4.16 1.882-.798 3.878-.403 5.332 1.059.271.27.511.574.719.909.49-.18 1.03-.206 1.554-.052.926.27 1.602 1.044 1.865 2.087 1.318.454 2.517 1.547 2.517 3.497 0 2.698-2.106 3.599-3.219 3.696H35.999c-1.75-.001-3.251-1.356-3.491-3.137ZM52 50v-2H30v2c0 1.439.561 2 2 2h17c1.038 0 3-.418 3-2Zm0-32v-4c0-1.439-.561-2-2-2H32c-1.439 0-2 .561-2 2v4h22Zm2 29c0 .005-.003.009-.003.013H54V50c0 2.626-2.516 4-5 4H32c-2.542 0-4-1.458-4-4V39h2v7h22V20H30v8h-2V14c0-2.542 1.458-4 4-4h18c2.542 0 4 1.458 4 4v33ZM35 16h2v-2h-2v2Zm4 0h8v-2h-8v2Z" fill="#FFF"/></g></svg>