<svg width="64" height="64" xmlns="http://www.w3.org/2000/svg"><defs><linearGradient x1="0%" y1="100%" x2="100%" y2="0%" id="a"><stop stop-color="#B0084D" offset="0%"/><stop stop-color="#FF4F8B" offset="100%"/></linearGradient></defs><g fill="none" fill-rule="evenodd"><path d="M0 0h64v64H0z" fill="url(#a)"/><path d="M43.262 52c-1.566 0-2.84-1.264-2.84-2.818s1.274-2.818 2.84-2.818c1.565 0 2.839 1.264 2.839 2.818S44.827 52 43.26 52Zm-6.718-13H28.4l-4.072-7 4.072-7h8.144l4.072 7-4.072 7ZM22.746 17.636c-1.566 0-2.84-1.264-2.84-2.818S21.18 12 22.746 12c1.565 0 2.84 1.264 2.84 2.818s-1.275 2.818-2.84 2.818Zm20.516 26.728c-.542 0-1.055.109-1.543.272l-3.103-5.198 4.036-6.938c.18-.31.18-.69 0-1l-4.654-8c-.18-.31-.512-.5-.873-.5h-8.324l-2.777-4.651c.963-.881 1.576-2.132 1.576-3.531 0-2.656-2.177-4.818-4.854-4.818-2.678 0-4.855 2.162-4.855 4.818 0 2.657 2.177 4.818 4.855 4.818.542 0 1.055-.109 1.542-.272l2.566 4.295-4.561 7.841c-.18.31-.18.69 0 1l4.653 8c.18.31.512.5.873.5h9.306c.026 0 .05-.008.075-.01l2.783 4.661c-.962.881-1.575 2.132-1.575 3.531 0 2.656 2.177 4.818 4.854 4.818s4.854-2.162 4.854-4.818c0-2.657-2.177-4.818-4.854-4.818Zm4.672-18.728c-1.566 0-2.84-1.264-2.84-2.818S46.367 20 47.933 20c1.564 0 2.839 1.264 2.839 2.818s-1.275 2.818-2.84 2.818Zm3.045.903c1.094-.884 1.809-2.214 1.809-3.721 0-2.656-2.177-4.818-4.854-4.818a4.83 4.83 0 0 0-1.8.353l-2.73-3.921c-.189-.27-.499-.432-.83-.432h-9.067v2h8.54l2.41 3.466a4.782 4.782 0 0 0-1.379 3.352c0 2.657 2.178 4.818 4.856 4.818.434 0 .848-.075 1.25-.182L51.83 32l-3.85 6.616 1.746 1 4.139-7.116c.18-.31.18-.69 0-1l-2.886-4.961ZM17.71 43.636c-1.566 0-2.84-1.264-2.84-2.818S16.142 38 17.708 38c1.564 0 2.839 1.264 2.839 2.818s-1.275 2.818-2.84 2.818Zm2.913 1.011c1.17-.88 1.94-2.261 1.94-3.829 0-2.656-2.177-4.818-4.854-4.818-.7 0-1.364.155-1.965.421L13.17 32l4.472-7.689-1.745-1-4.763 8.189c-.18.31-.18.69 0 1l2.974 5.114c-.771.854-1.256 1.969-1.256 3.204 0 2.657 2.178 4.818 4.855 4.818.368 0 .723-.048 1.066-.125l2.821 4.057c.189.27.498.432.83.432h9.067v-2h-8.537l-2.333-3.353Z" fill="#FFF"/></g></svg>