<svg width="64" height="64" xmlns="http://www.w3.org/2000/svg"><defs><linearGradient x1="0%" y1="100%" x2="100%" y2="0%" id="a"><stop stop-color="#B0084D" offset="0%"/><stop stop-color="#FF4F8B" offset="100%"/></linearGradient></defs><g fill="none" fill-rule="evenodd"><path d="M0 0h64v64H0z" fill="url(#a)"/><path d="M51.098 34h-14.93l1.073-4h14.93l-1.073 4Zm2.375-6h-17a1 1 0 0 0-.966.741l-1.607 6A.999.999 0 0 0 34.866 36h17a1 1 0 0 0 .965-.741l1.608-6A1 1 0 0 0 53.473 28ZM34.17 49.5c0 1.378-1.12 2.5-2.5 2.5a2.503 2.503 0 0 1-2.5-2.5c0-1.378 1.121-2.5 2.5-2.5 1.38 0 2.5 1.122 2.5 2.5ZM11.303 38l.804-3h12.93l-.805 3H11.303Zm0-9 .804-3h12.929l-.804 3H11.303ZM29.17 14.5c0-1.378 1.121-2.5 2.5-2.5 1.38 0 2.5 1.122 2.5 2.5s-1.12 2.5-2.5 2.5a2.503 2.503 0 0 1-2.5-2.5ZM43.67 42h-24v-2H25a1 1 0 0 0 .966-.741l1.34-5A.999.999 0 0 0 26.34 33h-6.67v-2H25a1 1 0 0 0 .966-.741l1.34-5A.999.999 0 0 0 26.34 24h-6.67v-2h24v4h2v-5a1 1 0 0 0-1-1h-12v-1.121c2-.457 3.5-2.242 3.5-4.379 0-2.481-2.018-4.5-4.5-4.5a4.505 4.505 0 0 0-4.5 4.5c0 2.137 1.5 3.922 3.5 4.379V20h-12a1 1 0 0 0-1 1v3h-6.33c-.452 0-.848.304-.966.741l-1.339 5A1 1 0 0 0 10 31h7.67v2h-6.33c-.452 0-.848.304-.966.741l-1.339 5A1 1 0 0 0 10 40h7.67v3a1 1 0 0 0 1 1h12v1.121c-2 .457-3.5 2.242-3.5 4.379 0 2.481 2.02 4.5 4.5 4.5 2.482 0 4.5-2.019 4.5-4.5 0-2.137-1.5-3.922-3.5-4.379V44h12a1 1 0 0 0 1-1v-5h-2v4Z" fill="#FFF"/></g></svg>