<svg width="64" height="64" xmlns="http://www.w3.org/2000/svg"><defs><linearGradient x1="0%" y1="100%" x2="100%" y2="0%" id="a"><stop stop-color="#B0084D" offset="0%"/><stop stop-color="#FF4F8B" offset="100%"/></linearGradient></defs><g fill="none" fill-rule="evenodd"><path d="M0 0h64v64H0z" fill="url(#a)"/><path d="M15.078 41.583a18.901 18.901 0 0 1-1.534-3.293l1.887-.659a16.891 16.891 0 0 0 1.374 2.947l-1.727 1.005Zm.036-14.227-1.924-.542a18.889 18.889 0 0 1 1.839-4.32l1.731.995a16.961 16.961 0 0 0-1.646 3.867Zm9.472-10.892-.819-1.813c4.929-2.2 10.709-2.202 15.642 0l-.818 1.813c-4.415-1.97-9.594-1.968-14.005 0Zm21.831 7.025 1.73-.995a18.79 18.79 0 0 1 1.838 4.32l-1.924.54a16.852 16.852 0 0 0-1.644-3.865Zm1.328 14.142 1.887.66a19.045 19.045 0 0 1-1.484 3.208l-1.732-.995c.532-.915.978-1.88 1.329-2.873Zm-9.154 9.897.818 1.814A19.07 19.07 0 0 1 31.588 51a19.06 19.06 0 0 1-7.821-1.658l.819-1.814c4.412 1.968 9.591 1.969 14.005 0ZM19.5 47.9a2.495 2.495 0 0 1-2.5-2.486 2.495 2.495 0 0 1 2.5-2.485c1.379 0 2.5 1.116 2.5 2.485a2.495 2.495 0 0 1-2.5 2.486Zm0-6.959c-2.482 0-4.5 2.007-4.5 4.473 0 2.468 2.018 4.474 4.5 4.474 2.481 0 4.5-2.006 4.5-4.474 0-2.466-2.019-4.473-4.5-4.473Zm24 6.959a2.495 2.495 0 0 1-2.5-2.486 2.495 2.495 0 0 1 2.5-2.485c1.379 0 2.5 1.116 2.5 2.485a2.495 2.495 0 0 1-2.5 2.486Zm0-6.959c-2.482 0-4.5 2.007-4.5 4.473 0 2.468 2.018 4.474 4.5 4.474 2.481 0 4.5-2.006 4.5-4.474 0-2.466-2.019-4.473-4.5-4.473ZM12 32.492a2.495 2.495 0 0 1 2.5-2.484c1.379 0 2.5 1.115 2.5 2.485a2.495 2.495 0 0 1-2.5 2.485 2.495 2.495 0 0 1-2.5-2.485Zm6.949.498h3.187l-.967 1.435 1.662 1.107 2-2.969a.988.988 0 0 0 .002-1.103l-2-2.995-1.666 1.098.96 1.439h-3.403A4.492 4.492 0 0 0 14.5 28.02c-2.482 0-4.5 2.007-4.5 4.473 0 2.467 2.018 4.473 4.5 4.473a4.48 4.48 0 0 0 4.449-3.976ZM49.5 34.978a2.495 2.495 0 0 1-2.5-2.485 2.495 2.495 0 0 1 2.5-2.485c1.379 0 2.5 1.115 2.5 2.485a2.495 2.495 0 0 1-2.5 2.485Zm0-6.958c-2.482 0-4.5 2.007-4.5 4.473 0 2.467 2.018 4.473 4.5 4.473 2.481 0 4.5-2.006 4.5-4.473 0-2.466-2.019-4.473-4.5-4.473Zm-30-11.929c1.379 0 2.5 1.115 2.5 2.485a2.495 2.495 0 0 1-2.5 2.485 2.495 2.495 0 0 1-2.5-2.485 2.495 2.495 0 0 1 2.5-2.485Zm0 6.958c2.481 0 4.5-2.006 4.5-4.473 0-2.466-2.019-4.473-4.5-4.473-2.482 0-4.5 2.007-4.5 4.473 0 2.467 2.018 4.473 4.5 4.473Zm24-6.958c1.379 0 2.5 1.115 2.5 2.485a2.495 2.495 0 0 1-2.5 2.485 2.495 2.495 0 0 1-2.5-2.485 2.495 2.495 0 0 1 2.5-2.485Zm0 6.958c2.481 0 4.5-2.006 4.5-4.473 0-2.466-2.019-4.473-4.5-4.473-2.482 0-4.5 2.007-4.5 4.473 0 2.467 2.018 4.473 4.5 4.473Zm-3.332 11.378.963-1.436H39v-1.988h2.132l-.964-1.438 1.664-1.102 2 2.981a.988.988 0 0 1 0 1.102l-2 2.984-1.664-1.103Zm-3.977 1.749c-1.31-.439-2.75-.658-4.189-.658-1.44 0-2.879.22-4.19.658.436-1.267.668-2.686.668-4.18 0-1.492-.232-2.913-.668-4.18 2.621.879 5.758.879 8.379 0-.435 1.267-.668 2.688-.668 4.18 0 1.494.233 2.913.668 4.18Zm3.525-10.442a.988.988 0 0 0 0-1.405 1.003 1.003 0 0 0-1.414 0c-2.944 2.925-9.657 2.925-12.6 0a1.003 1.003 0 0 0-1.414 0 .988.988 0 0 0 0 1.405c1.373 1.365 2.192 3.706 2.192 6.262 0 2.556-.819 4.897-2.192 6.262a.99.99 0 0 0 0 1.406 1.003 1.003 0 0 0 1.414 0c2.943-2.926 9.656-2.926 12.6 0a.996.996 0 0 0 .707.291.998.998 0 0 0 1-.994.99.99 0 0 0-.293-.703c-1.373-1.365-2.193-3.706-2.193-6.262 0-2.556.82-4.897 2.193-6.262Z" fill="#FFF"/></g></svg>