<svg width="64" height="64" xmlns="http://www.w3.org/2000/svg"><defs><linearGradient x1="0%" y1="100%" x2="100%" y2="0%" id="a"><stop stop-color="#B0084D" offset="0%"/><stop stop-color="#FF4F8B" offset="100%"/></linearGradient></defs><g fill="none" fill-rule="evenodd"><path d="M0 0h64v64H0z" fill="url(#a)"/><path d="m23.847 35.514 1.999-2.95a.977.977 0 0 0 .002-1.096l-2-2.976-1.665 1.092.96 1.429h-3.127v1.975h3.136l-.967 1.427 1.662 1.099Zm17.996-.002 2-2.964a.977.977 0 0 0 0-1.096l-2-2.962-1.664 1.095.964 1.429h-3.131v1.975h3.13l-.963 1.427 1.664 1.096ZM28.494 32c0 1.485-.232 2.896-.667 4.154a13.39 13.39 0 0 1 4.188-.654c1.44 0 2.879.218 4.188.654-.434-1.258-.667-2.669-.667-4.154 0-1.483.233-2.894.667-4.152-2.62.872-5.755.872-8.376 0 .435 1.258.667 2.669.667 4.152Zm-4.19 7.62a.979.979 0 0 1 0-1.397c1.372-1.356 2.19-3.682 2.19-6.223 0-2.539-.818-4.865-2.19-6.221a.979.979 0 0 1 0-1.397 1.007 1.007 0 0 1 1.413 0c2.942 2.907 9.654 2.907 12.597 0a1.007 1.007 0 0 1 1.414 0 .979.979 0 0 1 0 1.397c-1.373 1.356-2.193 3.682-2.193 6.221 0 2.54.82 4.867 2.193 6.223a.979.979 0 0 1 0 1.397 1 1 0 0 1-.707.29.999.999 0 0 1-.707-.29c-2.943-2.907-9.655-2.907-12.597 0a1.007 1.007 0 0 1-1.414 0Zm26.969-9.357a2.49 2.49 0 0 0-1.764-.722 2.49 2.49 0 0 0-1.763.722 2.432 2.432 0 0 0-.731 1.741c0 .66.26 1.278.73 1.743a2.518 2.518 0 0 0 3.528 0 2.446 2.446 0 0 0 0-3.484Zm1.413 4.88a4.51 4.51 0 0 1-3.177 1.3 4.51 4.51 0 0 1-3.177-1.3 4.381 4.381 0 0 1-1.317-3.139c0-1.185.468-2.3 1.317-3.139a4.492 4.492 0 0 1 3.177-1.3c1.2 0 2.329.462 3.177 1.301a4.406 4.406 0 0 1 0 6.277ZM16.254 30.28a2.49 2.49 0 0 0-1.762-.721c-.667 0-1.293.256-1.765.72a2.447 2.447 0 0 0 0 3.486c.942.929 2.586.93 3.527 0a2.447 2.447 0 0 0 0-3.485Zm1.414 4.881a4.488 4.488 0 0 1-3.176 1.3 4.49 4.49 0 0 1-3.178-1.3 4.407 4.407 0 0 1 0-6.278 4.49 4.49 0 0 1 3.178-1.3c1.2 0 2.328.462 3.176 1.3a4.407 4.407 0 0 1 0 6.278Zm25.763 8.175c-6.329 6.253-16.627 6.253-22.956 0-1.634-1.614-2.651-3.275-3.513-5.732l-1.89.647c.968 2.762 2.125 4.64 3.99 6.481C22.616 48.245 27.284 50 31.952 50c4.67 0 9.338-1.755 12.892-5.268 1.989-1.964 3.22-3.904 4.111-6.485l-1.891-.64c-.788 2.279-1.874 3.991-3.633 5.729ZM16.96 26.399l-1.887-.649c.96-2.728 2.153-4.667 3.993-6.484 7.105-7.021 18.667-7.021 25.772 0 1.943 1.919 3.211 3.919 4.114 6.484l-1.887.649c-.81-2.3-1.899-4.016-3.64-5.737-6.327-6.25-16.62-6.25-22.946 0-1.633 1.614-2.653 3.277-3.519 5.737Z" fill="#FFF"/></g></svg>