<svg width="64" height="64" xmlns="http://www.w3.org/2000/svg"><defs><linearGradient x1="0%" y1="100%" x2="100%" y2="0%" id="a"><stop stop-color="#B0084D" offset="0%"/><stop stop-color="#FF4F8B" offset="100%"/></linearGradient></defs><g fill="none" fill-rule="evenodd"><path d="M0 0h64v64H0z" fill="url(#a)"/><path d="M14 31a1.001 1.001 0 0 1 0 2 1.001 1.001 0 0 1 0-2Zm19.396 20c-8.888 0-16.574-6.919-18.244-16.232A3.002 3.002 0 0 0 16.815 33H22v-2h-5.185a3.003 3.003 0 0 0-1.66-1.768C16.776 20.49 24.451 14 33.396 14c4.191 0 7.192.844 10.033 2.821l1.142-1.642C41.411 12.98 37.965 12 33.396 12c-10.002 0-18.57 7.322-20.255 17.14A2.994 2.994 0 0 0 11 32c0 1.353.906 2.486 2.139 2.859C14.88 45.248 23.456 53 33.396 53c4.232 0 8.333-1.409 12.189-4.189l-1.17-1.622C40.907 49.718 37.199 51 33.396 51Zm-8.334-21.541c1.395.378 3.029.541 4.372.541 1.282 0 2.826-.145 4.184-.474l-3.513 7.027A1.002 1.002 0 0 0 30 37v3.501a25.52 25.52 0 0 0-.399.331c-.394.33-1.169.981-1.601 1.142V37c0-.127-.024-.253-.071-.372l-2.867-7.169ZM29.434 26c2.599 0 4.581.566 5.335 1-.754.434-2.736 1-5.335 1-2.695 0-4.533-.601-5.216-1 .683-.399 2.521-1 5.216-1ZM27 44h1c.043 0 .086-.003.128-.008.966-.125 1.918-.924 2.758-1.628.259-.217.486-.412.66-.526.283-.185.454-.5.454-.838v-3.764l4.592-9.183c.258-.308.408-.657.408-1.053 0-2.201-4.525-3-7.566-3-2.989 0-7.434.799-7.434 3 0 .317.101.601.268.862L26 37.192V43a1 1 0 0 0 1 1Zm22-1a1.001 1.001 0 0 1 0 2 1.001 1.001 0 0 1 0-2Zm0-24a1.001 1.001 0 0 1 0 2 1.001 1.001 0 0 1 0-2Zm2 12a1.001 1.001 0 0 1 0 2 1.001 1.001 0 0 1 0-2Zm-7 2h4.185A2.993 2.993 0 0 0 51 35c1.654 0 3-1.346 3-3s-1.346-3-3-3a2.993 2.993 0 0 0-2.815 2H44V21h2.185A2.993 2.993 0 0 0 49 23c1.654 0 3-1.346 3-3s-1.346-3-3-3a2.993 2.993 0 0 0-2.815 2H43a1 1 0 0 0-1 1v11h-5v2h5v11a1 1 0 0 0 1 1h3.185A2.993 2.993 0 0 0 49 47c1.654 0 3-1.346 3-3s-1.346-3-3-3a2.993 2.993 0 0 0-2.815 2H44V33Z" fill="#FFF"/></g></svg>