<svg xmlns="http://www.w3.org/2000/svg">
  <path style="stroke:none;fill-rule:nonzero;fill:#252f3e;fill-opacity:1" d="M54.293 41.668c0 2.3593.2539 4.2695.6992 5.6718.5078 1.4024 1.1445 2.9297 2.0351 4.586.3165.5117.4454 1.0195.4454 1.4687 0 .6367-.3829 1.2735-1.207 1.9102l-4.0079 2.6758c-.5703.3828-1.1445.5742-1.6523.5742-.6328 0-1.2696-.3203-1.9063-.8945-.8906-.9532-1.6523-1.9727-2.289-2.9922-.6368-1.082-1.2696-2.293-1.9688-3.7617-4.961 5.8632-11.1914 8.793-18.6914 8.793-5.3438 0-9.6016-1.5274-12.7188-4.586-3.1132-3.0586-4.703-7.1367-4.703-12.2344 0-5.414 1.9062-9.8125 5.785-13.125 3.879-3.3125 9.0274-4.9687 15.5782-4.9687 2.1602 0 4.3867.1914 6.7383.5078 2.3516.3203 4.7695.828 7.3125 1.4023V22.047c0-4.8438-1.0195-8.2227-2.9883-10.1953-2.0352-1.9766-5.4687-2.9297-10.3633-2.9297-2.2265 0-4.5156.2539-6.8672.8281-2.3515.5703-4.6406 1.2734-6.8671 2.164-1.0157.4454-1.7813.7032-2.2227.8282-.4453.1289-.7656.1914-1.0195.1914-.8907 0-1.336-.6367-1.336-1.9766V7.836c0-1.0196.129-1.7813.4453-2.2305.3203-.4453.8907-.8907 1.7813-1.336 2.2265-1.1484 4.8945-2.1015 8.0117-2.8672 3.1133-.828 6.4219-1.2109 9.918-1.2109 7.5625 0 13.0937 1.7188 16.6562 5.1602 3.4961 3.4414 5.2774 8.664 5.2774 15.6757V41.668Zm-25.8125 9.6875c2.1015 0 4.2617-.3828 6.5508-1.1485 2.289-.7656 4.3242-2.168 6.039-4.078 1.0156-1.211 1.7813-2.547 2.1602-4.0782.3828-1.5274.6367-3.375.6367-5.543V33.832c-1.8438-.4453-3.8125-.828-5.8477-1.082-2.0351-.254-4.0078-.3828-5.9765-.3828-4.2617 0-7.375.8281-9.4727 2.5469-2.0976 1.7226-3.1172 4.1445-3.1172 7.328 0 2.9962.7657 5.2266 2.3555 6.754 1.5234 1.5937 3.75 2.3594 6.6719 2.3594Zm51.0547 6.8789c-1.1446 0-1.9102-.1914-2.418-.6367-.5078-.3829-.9531-1.2735-1.336-2.4844l-14.9374-49.25c-.3829-1.2774-.5743-2.1055-.5743-2.5508 0-1.0195.5078-1.5938 1.5274-1.5938h6.2304c1.207 0 2.0352.1915 2.4805.6407.5078.3789.8867 1.2734 1.2695 2.4844L82.457 47.0194l9.918-42.1758c.3203-1.2773.6992-2.1054 1.211-2.4843.5078-.3828 1.3984-.6406 2.543-.6406h5.0858c1.207 0 2.0313.1914 2.543.6406.5078.3789.9531 1.2734 1.207 2.4844l10.043 42.6874 11-42.6874c.3828-1.2774.8281-2.1055 1.2734-2.4844.5079-.3828 1.332-.6406 2.4766-.6406h5.914c1.0157 0 1.59.5117 1.59 1.5937 0 .3203-.0626.6367-.129 1.0195-.0625.3828-.1914.8907-.4453 1.5938l-15.3203 49.25c-.3828 1.2734-.8281 2.1054-1.336 2.4844-.5078.3828-1.3359.6406-2.414.6406h-5.4688c-1.207 0-2.0351-.1914-2.543-.6406-.5077-.4454-.953-1.2735-1.207-2.547L98.543 14.0157l-9.789 41.0352c-.3204 1.2734-.6993 2.1015-1.211 2.5469-.5078.4453-1.3985.6367-2.543.6367Zm81.6953 1.7226c-3.3086 0-6.6133-.3828-9.793-1.1484-3.1797-.7656-5.6563-1.5938-7.3086-2.5469-1.0195-.5742-1.7187-1.211-1.9726-1.7851-.254-.5743-.3829-1.211-.3829-1.7852v-3.25c0-1.336.5118-1.9727 1.4649-1.9727.3789 0 .7617.0626 1.1445.1915.379.125.9531.3789 1.5899.6367 2.1601.9531 4.5117 1.7187 6.9921 2.2304 2.543.5079 5.0235.7618 7.5665.7618 4.0039 0 7.1171-.6993 9.2812-2.1016 2.1602-1.4023 3.3047-3.4414 3.3047-6.0508 0-1.7851-.5703-3.25-1.7149-4.461-1.1445-1.2109-3.3085-2.2929-6.4218-3.3124l-9.2188-2.8672c-4.6406-1.4688-8.0742-3.6328-10.1719-6.5-2.0976-2.8047-3.1796-5.9258-3.1796-9.2383 0-2.6758.5742-5.0351 1.7187-7.0742 1.1445-2.039 2.668-3.8203 4.5742-5.2227 1.9102-1.4648 4.0703-2.5507 6.6133-3.3125 2.543-.7656 5.2149-1.0859 8.0117-1.0859 1.3985 0 2.8594.0664 4.2578.2578 1.4649.1875 2.797.4453 4.1328.6992 1.2735.3203 2.4805.6367 3.625 1.0196 1.1446.3828 2.0352.7656 2.668 1.1484.8906.5078 1.5274 1.0195 1.9102 1.5898.3789.5118.5703 1.211.5703 2.1055V9.875c0 1.3398-.5078 2.039-1.461 2.039-.5078 0-1.3359-.2538-2.418-.7656-3.621-1.6562-7.6913-2.4843-12.207-2.4843-3.621 0-6.4843.5742-8.453 1.7851-1.9727 1.211-2.9884 3.0586-2.9884 5.6719 0 1.7812.6368 3.3125 1.9063 4.5234 1.2734 1.211 3.625 2.422 6.9922 3.504l9.0312 2.8671c4.5743 1.4649 7.8828 3.504 9.8516 6.1172 1.9726 2.6094 2.9258 5.6055 2.9258 8.918 0 2.7422-.5742 5.2265-1.6524 7.3906-1.1445 2.168-2.6718 4.0781-4.6406 5.6094-1.9726 1.5898-4.3242 2.7383-7.0586 3.5664-2.8594.8906-5.8476 1.3398-9.0898 1.3398Zm0 0"/>
  <path style="stroke:none;fill-rule:nonzero;fill:#f90;fill-opacity:1" d="M173.246 90.9219c-20.9179 15.4804-51.3085 23.6992-77.4374 23.6992-36.6211 0-69.6133-13.5703-94.5352-36.125-1.9726-1.7852-.1914-4.2031 2.1602-2.8047 26.957 15.6758 60.207 25.168 94.6016 25.168 23.203 0 48.6992-4.8399 72.1601-14.7813 3.4961-1.5937 6.4844 2.293 3.0508 4.8438Zm8.7071-9.9414c-2.668-3.4414-17.6719-1.6563-24.4765-.8282-2.0313.254-2.3516-1.5273-.5078-2.8671 11.953-8.4102 31.5976-5.9883 33.8867-3.1836 2.289 2.8671-.6368 22.5546-11.8243 31.9843-1.7187 1.4649-3.371.6993-2.6054-1.2109 2.543-6.3086 8.1992-20.5156 5.5273-23.8945Zm0 0"/>
</svg>
