<svg width="64" height="64" xmlns="http://www.w3.org/2000/svg"><defs><linearGradient x1="0%" y1="100%" x2="100%" y2="0%" id="a"><stop stop-color="#C8511B" offset="0%"/><stop stop-color="#F90" offset="100%"/></linearGradient></defs><g fill="none" fill-rule="evenodd"><path d="M0 0h64v64H0z" fill="url(#a)"/><path d="m22.707 42.707-1.414-1.414L12 50.586V46h-2v7a1 1 0 0 0 1 1h7v-2h-4.586l9.293-9.293ZM53 10h-7v2h4.586l-8.793 8.793 1.414 1.414L52 13.414V18h2v-7a1 1 0 0 0-1-1ZM35 47h12V35H35v12Zm14-13v14a1 1 0 0 1-1 1H34a1 1 0 0 1-1-1V34a1 1 0 0 1 1-1h14a1 1 0 0 1 1 1Zm-32-5h12V17H17v12Zm14-13v14a1 1 0 0 1-1 1H16a1 1 0 0 1-1-1V16a1 1 0 0 1 1-1h14a1 1 0 0 1 1 1Zm-1 17H16a1 1 0 0 0-1 1v10.758l2-2V35h12v12h-7.758l-2 2H30a1 1 0 0 0 1-1V34a1 1 0 0 0-1-1Zm17-11.758 2-2V30a1 1 0 0 1-1 1H34a1 1 0 0 1-1-1V16a1 1 0 0 1 1-1h10.758l-2 2H35v12h12v-7.758Z" fill="#FFF"/></g></svg>