<svg width="64" height="64" xmlns="http://www.w3.org/2000/svg"><defs><linearGradient x1="0%" y1="100%" x2="100%" y2="0%" id="a"><stop stop-color="#C8511B" offset="0%"/><stop stop-color="#F90" offset="100%"/></linearGradient></defs><g fill="none" fill-rule="evenodd"><path d="M0 0h64v64H0z" fill="url(#a)"/><path d="M33 35.771v-2.888l2-1v2.733l-2 1.155Zm-4-3.888 2 1v2.888l-2-1.155v-2.733Zm3-2.5 1.764.882-1.764.882-1.764-.882L32 29.383Zm.447-2.012a.998.998 0 0 0-.894 0l-4 2a1 1 0 0 0-.553.894v4.928a1 1 0 0 0 .5.866l4 2.31a.999.999 0 0 0 1 0l4-2.31a1 1 0 0 0 .5-.866v-4.928a1 1 0 0 0-.553-.894l-4-2Zm-.448-15.309 6.721 7.893c-1.815-.529-4.155-1.002-6.72-1.002-2.522 0-4.901.495-6.75 1.037l6.749-7.928ZM22 23.265c.149 0 .3-.033.44-.102.045-.022 4.562-2.21 9.56-2.21 5.185 0 9.5 2.18 9.543 2.202a1.002 1.002 0 0 0 1.219-1.538l-9.336-10.964c-.692-.88-2.185-.85-2.827-.03l-9.361 10.994A1.001 1.001 0 0 0 22 23.265Zm8 29h4v-1h-4v1Zm-4-1h2v2a1 1 0 0 0 1 1h6a1 1 0 0 0 1-1v-2h2v-2H26v2Zm14.928-12.48c.07-.953.072-1.959.072-2.957v-5.622l3 3.9v7.822l-3.072-3.143Zm-.42 2.431 3.777 3.866a1 1 0 0 0 1.715-.7V33.765a1 1 0 0 0-.207-.609L41 26.926v-2.66h-2v11.562c0 5.583-.676 6.425-3 6.425a1 1 0 0 0-1 1v5.012h2V44.19c2.012-.276 3.011-1.418 3.508-2.973ZM20 41.928v-7.823l3-3.899v5.622c0 .998.002 2.004.072 2.957L20 41.928Zm7 2.261v4.076h2v-5.012a1 1 0 0 0-1-1c-2.324 0-3-.842-3-6.425V24.265h-2v2.66l-4.793 6.231a1 1 0 0 0-.207.61v10.616a.999.999 0 0 0 1.715.7l3.777-3.866c.497 1.555 1.496 2.697 3.508 2.973Z" fill="#FFF"/></g></svg>