<svg width="64" height="64" xmlns="http://www.w3.org/2000/svg"><defs><linearGradient x1="0%" y1="100%" x2="100%" y2="0%" id="a"><stop stop-color="#C8511B" offset="0%"/><stop stop-color="#F90" offset="100%"/></linearGradient></defs><g fill="none" fill-rule="evenodd"><path d="M0 0h64v64H0z" fill="url(#a)"/><path d="M25.793 26.293 19.586 32.5l6.207 6.207 1.414-1.414-4.793-4.793 4.793-4.793-1.414-1.414ZM12 50h19V14H12v36Zm-2 2h23V12H10v40Zm4-20c0 8.822 7.178 16 16 16v-2c-7.72 0-14-6.28-14-14s6.28-14 14-14v-2c-8.822 0-16 7.178-16 16Zm20.448 7.705v2c5.352 0 9.706-4.353 9.706-9.705s-4.354-9.705-9.706-9.705v2c4.249 0 7.706 3.456 7.706 7.705 0 4.249-3.457 7.705-7.706 7.705ZM54 28.834v6.333c0 .988-.804 1.792-1.792 1.792h-2.534a16.41 16.41 0 0 1-1.087 2.616l1.794 1.794c.339.338.525.788.525 1.267 0 .479-.186.929-.525 1.267l-4.478 4.478a1.796 1.796 0 0 1-2.534.001l-1.794-1.795a16.34 16.34 0 0 1-2.617 1.086v2.536c0 .987-.804 1.791-1.791 1.791H34v-2h2.958v-3.847l.744-.197a14.319 14.319 0 0 0 3.546-1.472l.666-.387 2.722 2.723 4.183-4.184-2.722-2.722.387-.666a14.315 14.315 0 0 0 1.472-3.545l.196-.744H52v-5.917h-3.848l-.196-.745a14.315 14.315 0 0 0-1.472-3.545l-.387-.666 2.722-2.722-4.182-4.184-2.723 2.723-.666-.387a14.319 14.319 0 0 0-3.546-1.472l-.744-.197V14h-2.894v-2h3.103c.987 0 1.791.804 1.791 1.792v2.535a16.34 16.34 0 0 1 2.617 1.086l1.794-1.794a1.794 1.794 0 0 1 2.534-.001l4.478 4.479c.339.338.525.788.525 1.267 0 .479-.186.929-.525 1.267l-1.794 1.794c.438.843.803 1.718 1.087 2.617h2.534c.988 0 1.792.803 1.792 1.792Z" fill="#FFF"/></g></svg>