<svg width="64" height="64" xmlns="http://www.w3.org/2000/svg"><defs><linearGradient x1="0%" y1="100%" x2="100%" y2="0%" id="a"><stop stop-color="#C8511B" offset="0%"/><stop stop-color="#F90" offset="100%"/></linearGradient></defs><g fill="none" fill-rule="evenodd"><path d="M0 0h64v64H0z" fill="url(#a)"/><path d="M38.461 34.917v-3.051c0-.318-.064-.552-.193-.702-.129-.15-.332-.225-.608-.225-.474 0-.939.153-1.395.459v3.519h-.891v-4.563h.747l.09.504c.57-.426 1.17-.639 1.8-.639.438 0 .771.115.999.346.228.231.342.566.342 1.004v3.348h-.891Zm-8.415-.945c.666.216 1.235.324 1.71.324.456 0 .806-.104 1.048-.311.243-.207.365-.505.365-.895 0-.426-.114-.735-.343-.927-.227-.192-.599-.288-1.115-.288-.372 0-.837.03-1.396.09v-.594l.171-2.691h3.286v.738h-2.53l-.116 1.827c.329-.06.627-.09.891-.09.648 0 1.155.171 1.52.513.366.342.55.813.55 1.413 0 .588-.213 1.064-.64 1.426-.425.364-.986.545-1.682.545-.613 0-1.186-.12-1.719-.36v-.72Zm-4.481-2.295h1.268c.384 0 .677-.096.878-.288.2-.192.301-.477.301-.855 0-.372-.096-.653-.288-.842-.192-.189-.477-.283-.855-.283h-1.304v2.268Zm-.892 3.24V28.68h2.277c.606 0 1.089.167 1.449.5.36.333.541.781.541 1.345 0 .414-.114.772-.338 1.076-.225.302-.542.523-.95.661l1.656 2.655h-.999l-1.53-2.511h-1.214v2.511h-.892ZM23 41h18V23H23v18Zm20-18h3v2h-3v2h3v2h-3v2h3v2h-3v2h3v2h-3v2h3v2h-3v.345c0 .913-.743 1.655-1.656 1.655H41v3h-2v-3h-2v3h-2v-3h-2v3h-2v-3h-2v3h-2v-3h-2v3h-2v-3h-.344A1.657 1.657 0 0 1 21 41.345V41h-3v-2h3v-2h-3v-2h3v-2h-3v-2h3v-2h-3v-2h3v-2h-3v-2h3v-.344c0-.913.743-1.656 1.656-1.656H23v-3h2v3h2v-3h2v3h2v-3h2v3h2v-3h2v3h2v-3h2v3h.344c.913 0 1.656.743 1.656 1.656V23ZM32 52H12V32h4v-2h-4.157A1.845 1.845 0 0 0 10 31.843v20.315c0 1.016.826 1.842 1.843 1.842h20.314A1.844 1.844 0 0 0 34 52.158V48h-2v4Zm20.157-42H31.843A1.845 1.845 0 0 0 30 11.843V16h2v-4h20v20h-4v2h4.157A1.844 1.844 0 0 0 54 32.158V11.843A1.845 1.845 0 0 0 52.157 10Z" fill="#FFF"/></g></svg>