<svg width="64" height="64" xmlns="http://www.w3.org/2000/svg"><defs><linearGradient x1="0%" y1="100%" x2="100%" y2="0%" id="a"><stop stop-color="#C8511B" offset="0%"/><stop stop-color="#F90" offset="100%"/></linearGradient></defs><g fill="none" fill-rule="evenodd"><path d="M0 0h64v64H0z" fill="url(#a)"/><path d="M38.208 34.88v-2.712c0-.283-.058-.491-.172-.624-.115-.133-.295-.2-.54-.2-.422 0-.835.136-1.24.408v3.128h-.792v-4.056h.664l.08.448c.507-.379 1.04-.568 1.6-.568.389 0 .685.103.888.308.202.205.304.503.304.892v2.976h-.792Zm-7.48-.84c.591.192 1.098.288 1.52.288.405 0 .716-.092.932-.276.216-.184.324-.449.324-.796 0-.378-.102-.653-.305-.824-.202-.171-.533-.256-.991-.256-.331 0-.744.027-1.24.08v-.528l.151-2.392h2.921v.656h-2.248l-.105 1.624c.293-.053.558-.08.792-.08.577 0 1.027.152 1.353.456.325.304.487.723.487 1.256 0 .523-.189.945-.567 1.268-.379.323-.878.484-1.496.484a3.687 3.687 0 0 1-1.528-.32v-.64Zm-1.968.84v-4.36l-1.56 2.944h-.744l-1.568-2.952v4.368h-.752v-5.544h.912l1.792 3.4 1.784-3.4h.888v5.544h-.752ZM23 41h18V23H23v18Zm20-18h3v2h-3v2h3v2h-3v2h3v2h-3v2h3v2h-3v2h3v2h-3v.344c0 .913-.743 1.656-1.656 1.656H41v3h-2v-3h-2v3h-2v-3h-2v3h-2v-3h-2v3h-2v-3h-2v3h-2v-3h-.344A1.658 1.658 0 0 1 21 41.344V41h-3v-2h3v-2h-3v-2h3v-2h-3v-2h3v-2h-3v-2h3v-2h-3v-2h3v-.344c0-.913.743-1.656 1.656-1.656H23v-3h2v3h2v-3h2v3h2v-3h2v3h2v-3h2v3h2v-3h2v3h.344c.913 0 1.656.743 1.656 1.656V23ZM32 52H12V32h4v-2h-4.157A1.845 1.845 0 0 0 10 31.843v20.314c0 1.016.826 1.843 1.843 1.843h20.314A1.845 1.845 0 0 0 34 52.157V48h-2v4Zm20.157-42H31.843A1.845 1.845 0 0 0 30 11.843V16h2v-4h20v20h-4v2h4.157A1.845 1.845 0 0 0 54 32.157V11.843A1.845 1.845 0 0 0 52.157 10Z" fill="#FFF"/></g></svg>