<svg width="64" height="64" xmlns="http://www.w3.org/2000/svg"><defs><linearGradient x1="0%" y1="100%" x2="100%" y2="0%" id="a"><stop stop-color="#C8511B" offset="0%"/><stop stop-color="#F90" offset="100%"/></linearGradient></defs><g fill="none" fill-rule="evenodd"><path d="M0 0h64v64H0z" fill="url(#a)"/><path d="M30.726 29.922c-.447.26-.726.745-.726 1.263v20.35l-15-8.677V23.01l17.172-9.933 14.916 7.38-16.362 9.464Zm18.978-9.502c0-.518-.278-1-.783-1.288l-16.042-7.936a1.447 1.447 0 0 0-1.451-.002l-17.699 10.24c-.449.259-.729.743-.729 1.263v20.476c0 .518.279 1.001.728 1.262l16.088 9.306a1.45 1.45 0 0 0 1.456.001c.449-.259.728-.743.728-1.263v-20.98l16.978-9.821c.448-.259.726-.74.726-1.258ZM50 42.941l-12.996 8.592V44.41l6.599-4.994c.25-.19.397-.486.397-.8V30.48l6-3.474v15.935Zm1.273-18.142a1.452 1.452 0 0 0-1.456 0l-6.938 4.014c-.24.13-.879.475-.879 1.217v8.087l-6.337 4.796a1.465 1.465 0 0 0-.659 1.221v8.412c0 .52.28 1.004.729 1.264.218.125.462.19.712.19.264 0 .537-.072.794-.222l14.036-9.28c.447-.26.725-.744.725-1.262V26.063c0-.52-.279-1.004-.727-1.264Z" fill="#FFF"/></g></svg>