<svg width="64" height="64" xmlns="http://www.w3.org/2000/svg"><defs><linearGradient x1="0%" y1="100%" x2="100%" y2="0%" id="a"><stop stop-color="#C8511B" offset="0%"/><stop stop-color="#F90" offset="100%"/></linearGradient></defs><g fill="none" fill-rule="evenodd"><path d="M0 0h64v64H0z" fill="url(#a)"/><path d="m16.961 26.035-1.859-.737C17.781 18.54 24.572 14 32 14c7.428 0 14.219 4.54 16.898 11.298l-1.859.737C44.659 20.033 38.615 16 32 16s-12.659 4.033-15.039 10.035Zm30.075 11.714 1.865.724C46.223 45.368 39.431 50 32 50c-7.431 0-14.223-4.632-16.901-11.527l1.865-.724C19.346 43.88 25.388 48 32 48s12.654-4.12 15.036-10.251ZM52 34.842a.162.162 0 0 1-.158.158h-5.684a.162.162 0 0 1-.158-.158v-5.684c0-.084.074-.158.158-.158h5.684c.084 0 .158.074.158.158v5.684ZM51.842 27h-5.684A2.16 2.16 0 0 0 44 29.158v5.684A2.16 2.16 0 0 0 46.158 37h5.684A2.16 2.16 0 0 0 54 34.842v-5.684A2.16 2.16 0 0 0 51.842 27ZM12 34.842v-5.684c0-.084.074-.158.158-.158h5.684c.084 0 .158.074.158.158v5.684a.162.162 0 0 1-.158.158h-5.684a.162.162 0 0 1-.158-.158Zm8 0v-5.684A2.16 2.16 0 0 0 17.842 27h-5.684A2.16 2.16 0 0 0 10 29.158v5.684A2.16 2.16 0 0 0 12.158 37h5.684A2.16 2.16 0 0 0 20 34.842ZM33 33h4v-3h-4v3Zm-6 0h4v-3h-4v3Zm-2 2h14v-7H25v7Zm6 1v2h-7v-2h-1v-9h18v9h-3v2h-2v-2h-5Zm9 4v-2h3V25H21v13h1v2h11v-2h1v2h6Z" fill="#FFF"/></g></svg>