<svg width="64" height="64" xmlns="http://www.w3.org/2000/svg"><defs><linearGradient x1="0%" y1="100%" x2="100%" y2="0%" id="a"><stop stop-color="#C8511B" offset="0%"/><stop stop-color="#F90" offset="100%"/></linearGradient></defs><g fill="none" fill-rule="evenodd"><path d="M0 0h64v64H0z" fill="url(#a)"/><path d="M42.467 46.382v-3.764l1.994-1v3.764l-1.994 1Zm-3.987-4.764 1.994 1v3.764l-1.994-1v-3.764Zm-4.983 9.764v-3.764l1.993-1v3.764l-1.993 1Zm-3.987-4.764 1.993 1v3.764l-1.993-1v-3.764Zm-4.984-.236v-3.764l1.994-1v3.764l-1.994 1Zm-3.987-4.764 1.994 1v3.764l-1.994-1v-3.764Zm2.99-2.5 1.759.882-1.758.882L21.77 40l1.759-.882Zm8.971 5 1.758.882-1.758.882L30.742 45l1.758-.882Zm8.97-5L43.23 40l-1.759.882L39.712 40l1.758-.882Zm4.433-.012-3.987-2a.991.991 0 0 0-.891 0l-3.987 2a.999.999 0 0 0-.551.894v3.882l-3.541-1.776a.991.991 0 0 0-.892 0l-3.54 1.776V40a.999.999 0 0 0-.552-.894l-3.987-2a.991.991 0 0 0-.89 0l-3.988 2a.999.999 0 0 0-.55.894v6c0 .379.212.725.55.895l3.987 2a.996.996 0 0 0 .891 0l3.541-1.777V51c0 .379.214.725.552.895l3.986 2a.996.996 0 0 0 .892 0l3.986-2c.338-.17.552-.516.552-.895v-3.882l3.54 1.777a.996.996 0 0 0 .892 0l3.987-2c.338-.17.55-.516.55-.895v-6a.999.999 0 0 0-.55-.894ZM54 28.09c0 5.103-11.077 7.856-21.5 7.856S11 33.193 11 28.09c0-2.461 2.68-4.616 7.547-6.067l.568 1.917c-3.776 1.126-6.122 2.716-6.122 4.15 0 2.764 8.343 5.856 19.507 5.856 11.164 0 19.507-3.092 19.507-5.856 0-1.434-2.346-3.024-6.122-4.15l.568-1.917C51.32 23.474 54 25.629 54 28.09ZM32.5 12.064 40.547 15 32.5 17.936 24.453 15l8.047-2.936Zm8.868 16.584c-1.556.7-4.155 1.516-7.871 1.645V19.701l8.97-3.273v10.485c0 .754-.431 1.435-1.1 1.735Zm-18.835-1.735V16.428l8.97 3.273v10.592c-3.716-.129-6.315-.945-7.87-1.645-.669-.3-1.1-.981-1.1-1.735Zm.283 3.56c1.87.842 5.07 1.846 9.684 1.846 4.615 0 7.813-1.004 9.684-1.846 1.383-.622 2.277-2.019 2.277-3.56V15a1 1 0 0 0-.656-.94l-10.964-4a.998.998 0 0 0-.682 0l-10.964 4a1 1 0 0 0-.656.94v11.913c0 1.541.894 2.938 2.277 3.56Z" fill="#FFF"/></g></svg>