<svg width="64" height="64" xmlns="http://www.w3.org/2000/svg"><defs><linearGradient x1="0%" y1="100%" x2="100%" y2="0%" id="a"><stop stop-color="#C8511B" offset="0%"/><stop stop-color="#F90" offset="100%"/></linearGradient></defs><g fill="none" fill-rule="evenodd"><path d="M0 0h64v64H0z" fill="url(#a)"/><path d="M43 17h6v-2h-6v2Zm-1-4h8v-2h-8v2Zm1 20h6v-2h-6v2Zm-1 4h8v-2h-8v2Zm-13.175.582a.997.997 0 0 0 .04-1.514l-11-10-1.345 1.479 10.142 9.221-10.102 8.266 1.265 1.548 11-9ZM27 46h16v-2H27v2Zm27 6v-8h-2v8H12V12h21v-2H12c-1.084 0-2 .916-2 2v40c0 1.075.912 1.991 2 2h40c1.084 0 2-.916 2-2ZM40 35.942a8.97 8.97 0 0 1 2.421-6.142l8.621-9.236A10.965 10.965 0 0 0 54 13.058V10h-2v3.058a8.967 8.967 0 0 1-2.421 6.142l-8.621 9.236A10.969 10.969 0 0 0 38 35.942V38h2v-2.058Zm8.736-9.976-1.368 1.465 2.211 2.369A8.97 8.97 0 0 1 52 35.942V38h2v-2.058c0-2.796-1.051-5.462-2.958-7.506l-2.306-2.47Zm-7.778-5.402A10.965 10.965 0 0 1 38 13.058V10h2v3.058c0 2.289.859 4.469 2.421 6.141l2.211 2.37-1.368 1.465-2.306-2.47Z" fill="#FFF"/></g></svg>