<svg width="64" height="64" xmlns="http://www.w3.org/2000/svg"><defs><linearGradient x1="0%" y1="100%" x2="100%" y2="0%" id="a"><stop stop-color="#C8511B" offset="0%"/><stop stop-color="#F90" offset="100%"/></linearGradient></defs><g fill="none" fill-rule="evenodd"><path d="M0 0h64v64H0z" fill="url(#a)"/><path d="M22.68 52h-9.106l10.264-21.59 4.562 9.451L22.68 52Zm2.047-24.333a.994.994 0 0 0-.896-.564h-.003a.994.994 0 0 0-.896.569L11.097 52.569c-.147.31-.126.674.057.965.181.29.5.466.842.466H23.31a.996.996 0 0 0 .9-.572l6.194-13.144a1.003 1.003 0 0 0-.005-.864l-5.672-11.753ZM51.008 52h-9.022L26.955 19.578a.997.997 0 0 0-.903-.578h-5.924l.007-7h11.68l14.96 32.42c.163.354.516.58.904.58h3.33v7Zm.996-9h-3.69l-14.96-32.42a.995.995 0 0 0-.903-.58H19.14a.999.999 0 0 0-.996.999l-.008 9A.993.993 0 0 0 19.131 21h6.286l15.03 32.422a.995.995 0 0 0 .903.578h10.654c.55 0 .996-.448.996-1v-9c0-.552-.445-1-.996-1Z" fill="#FFF"/></g></svg>