<svg width="64" height="64" xmlns="http://www.w3.org/2000/svg"><defs><linearGradient x1="0%" y1="100%" x2="100%" y2="0%" id="a"><stop stop-color="#C8511B" offset="0%"/><stop stop-color="#F90" offset="100%"/></linearGradient></defs><g fill="none" fill-rule="evenodd"><path d="M0 0h64v64H0z" fill="url(#a)"/><path d="M33.999 26.988c0-.828-.673-1.501-1.5-1.501s-1.5.673-1.5 1.5c0 .828.673 1.501 1.5 1.501s1.5-.673 1.5-1.5Zm.003-3.149 11.255-12.526 1.488 1.336-11.262 12.535c.321.529.516 1.141.516 1.804 0 1.93-1.57 3.501-3.5 3.501s-3.5-1.57-3.5-3.501c0-1.931 1.57-3.502 3.5-3.502.54 0 1.046.133 1.503.353Zm3.507-7.766c-1.58-.72-3.26-1.09-5.01-1.09-6.621 0-12.002 5.382-12.002 12.005 0 4.071 2.04 7.833 5.44 10.054l1.1-1.68a9.966 9.966 0 0 1-4.54-8.374c0-5.513 4.49-10.005 10.002-10.005 1.28 0 2.51.24 3.67.7l1.34-1.61Zm3.861 6.303a10.01 10.01 0 0 1 1.13 4.612c0 3.391-1.7 6.522-4.54 8.373l1.1 1.681a12.004 12.004 0 0 0 3.8-16.107l-1.49 1.44Zm-12.03 9.697a5.553 5.553 0 0 1-2.73-7.629l-1.778-.916a7.55 7.55 0 0 0 3.71 10.38l.797-1.835Zm9.39-6.756c.18.53.27 1.09.27 1.66a5.547 5.547 0 0 1-3.24 5.043c-.03.02-.07.04-.1.05v.01l.8 1.83A7.554 7.554 0 0 0 41 26.979c0-1.151-.27-2.301-.77-3.332l-1.5 1.67Zm10.251 1.44C48.501 36.932 33.88 53.94 33.26 54.65c-.19.22-.47.35-.76.35-.29 0-.57-.13-.76-.35-.62-.71-15.243-17.718-15.723-27.893a16.411 16.411 0 0 1 .042-2.125c.017-.223.038-.444.065-.665.893-7.826 7.156-13.536 15.826-13.957l1.05-.01c3.01.15 5.71.9 8.071 2.231l-1.381 1.53c-2-1.05-4.26-1.64-6.74-1.76h-.95c-5.258.261-9.523 2.736-11.91 6.508l.008.005a13.573 13.573 0 0 0-.98 1.87 13.78 13.78 0 0 0-.855 2.829c-.016.085-.037.169-.05.255-.04.23-.069.463-.097.696-.026.22-.05.443-.065.669a15.497 15.497 0 0 0-.034 1.835c.012.257.035.519.067.787.065.535.17 1.09.31 1.661.348 1.43.914 2.962 1.626 4.536a49.236 49.236 0 0 0 1.955 3.823 71.243 71.243 0 0 0 1.703 2.861c.196.315.394.627.593.937a102.08 102.08 0 0 0 3.02 4.422 128.895 128.895 0 0 0 5.208 6.754 128.895 128.895 0 0 0 5.808-7.595c1.405-1.99 2.859-4.185 4.167-6.42.186-.318.371-.638.55-.959a49.236 49.236 0 0 0 1.956-3.823c.712-1.574 1.278-3.106 1.626-4.536.139-.57.244-1.126.309-1.661.032-.268.055-.53.067-.788.14-2.95-.58-5.762-2.08-8.153l.002-.002-.022-.038 1.4-1.56c1.672 2.416 2.636 5.335 2.712 8.567.012.423.008.848-.012 1.276Z" fill="#FFF"/></g></svg>