<svg width="64" height="64" xmlns="http://www.w3.org/2000/svg"><defs><linearGradient x1="0%" y1="100%" x2="100%" y2="0%" id="a"><stop stop-color="#C8511B" offset="0%"/><stop stop-color="#F90" offset="100%"/></linearGradient></defs><g fill="none" fill-rule="evenodd"><path d="M0 0h64v64H0z" fill="url(#a)"/><path d="M48.51 30.87c-3.702 2.311-8.86 4.658-14.52 6.609-4.015 1.385-7.946 2.448-11.446 3.118 2.987 7.438 8.442 12.231 13.762 11.333 4.986-.842 8.705-6.721 9.254-14.63l1.996.139c-.624 8.987-4.91 15.449-10.918 16.463a9.453 9.453 0 0 1-1.58.132c-5.8 0-11.47-5.282-14.515-13.089a43.79 43.79 0 0 1-2.06.276c-1.126.12-2.137.18-3.036.18-3.078 0-4.827-.706-5.32-2.137-.612-1.775.992-3.865 4.904-6.39l1.083 1.681c-3.668 2.368-4.2 3.757-4.096 4.058.112.322 1.498 1.127 6.253.62a41.457 41.457 0 0 0 1.594-.203 33.78 33.78 0 0 1-1.126-4.615C16.7 22.348 21.417 11.455 29.25 10.133c4.664-.792 9.635 1.986 13.272 7.424l-1.662 1.111c-3.187-4.764-7.403-7.219-11.278-6.563-6.745 1.139-10.725 10.997-8.872 21.977a32.312 32.312 0 0 0 1.143 4.614c3.478-.647 7.433-1.711 11.484-3.108 5.523-1.904 10.535-4.182 14.113-6.415 4.058-2.532 4.654-4.02 4.543-4.342-.1-.294-1.216-.997-5.12-.721l-.14-1.995c4.227-.302 6.568.376 7.15 2.065.638 1.847-1.12 4.036-5.374 6.69" fill="#FFF"/></g></svg>