<svg width="64" height="64" xmlns="http://www.w3.org/2000/svg"><defs><linearGradient x1="0%" y1="100%" x2="100%" y2="0%" id="a"><stop stop-color="#C8511B" offset="0%"/><stop stop-color="#F90" offset="100%"/></linearGradient></defs><g fill="none" fill-rule="evenodd"><path d="M0 0h64v64H0z" fill="url(#a)"/><path d="M26.943 37H31a1.002 1.002 0 0 1 .976 1.217l-.934 4.204L37.056 34H33a1.002 1.002 0 0 1-.977-1.217l.935-4.204L26.943 37ZM29 48a1.001 1.001 0 0 1-.977-1.217L29.753 39H25a1.001 1.001 0 0 1-.814-1.581l10-14a1 1 0 0 1 1.79.798L34.247 32H39a1 1 0 0 1 .813 1.581l-10 14A.998.998 0 0 1 29 48Zm-10 4h26V21a1 1 0 0 1 1-1h3v-8h-5v4a1 1 0 0 1-1 1h-7a1 1 0 0 1-1-1v-4h-6v4a1 1 0 0 1-1 1h-7a1 1 0 0 1-1-1v-4h-5v8h3a1 1 0 0 1 1 1v31Zm27 2H18a1 1 0 0 1-1-1V22h-3a1 1 0 0 1-1-1V11a1 1 0 0 1 1-1h7a1 1 0 0 1 1 1v4h5v-4a1 1 0 0 1 1-1h8a1 1 0 0 1 1 1v4h5v-4a1 1 0 0 1 1-1h7a1 1 0 0 1 1 1v10a1 1 0 0 1-1 1h-3v31a1 1 0 0 1-1 1Z" fill="#FFF"/></g></svg>