<svg width="64" height="64" xmlns="http://www.w3.org/2000/svg"><defs><linearGradient x1="0%" y1="100%" x2="100%" y2="0%" id="a"><stop stop-color="#C8511B" offset="0%"/><stop stop-color="#F90" offset="100%"/></linearGradient></defs><g fill="none" fill-rule="evenodd"><path d="M0 0h64v64H0z" fill="url(#a)"/><path d="M45.438 45.008H19.403c-3.144 0-6.504-2.866-7.24-5.975h8.434c.411 0 .78-.248.932-.625a.99.99 0 0 0-.239-1.092 1.657 1.657 0 0 1 .138-2.535c.43-.326.97-.421 1.515-.274.513.138.946.55 1.104 1.048.205.65.043 1.308-.437 1.761a.992.992 0 0 0-.24 1.092c.153.377.522.625.933.625h8.424c-.08.3-.12.612-.12.931 0 1.152.53 2.213 1.454 2.913.925.7 2.117.922 3.263.613a3.618 3.618 0 0 0 2.49-2.373 3.722 3.722 0 0 0 .057-2.084h12.036c-.584 4.356-4.062 5.975-6.47 5.975ZM17.014 31.504a.995.995 0 0 0 .758-1.086 9.45 9.45 0 0 1-.069-1.156c0-3.453 2.496-7.174 5.684-8.47 1.898-.772 3.85-.973 5.698-.636v8.741c0 .408.25.775.633.926.38.15.817.057 1.1-.24.687-.72 1.936-.647 2.545.123.33.416.436.94.302 1.473-.128.515-.537.96-1.042 1.132-.662.227-1.336.068-1.805-.421a1.01 1.01 0 0 0-1.1-.24.996.996 0 0 0-.633.925v4.467H26.02a3.722 3.722 0 0 0-.057-2.084 3.62 3.62 0 0 0-2.49-2.373c-1.15-.31-2.337-.088-3.265.614a3.625 3.625 0 0 0-1.453 2.911c0 .32.041.632.12.932h-6.844c.283-3.81 3.206-5.103 4.983-5.538Zm14.08-10.75a10.361 10.361 0 0 1 3.196 2.122c1.137 1.092 2.07 2.56 2.696 4.246.127.34.431.585.793.64.358.058.725-.091.948-.38.676-.878 1.676-1.38 2.746-1.38 1.584 0 3.505 1.168 3.7 4.46a.998.998 0 0 0 .805.917c3.718.741 5.728 2.644 5.985 5.663H38.154c-.41 0-.78.247-.933.625a.992.992 0 0 0 .24 1.091c.48.453.643 1.112.437 1.763a1.62 1.62 0 0 1-1.104 1.047c-.546.147-1.085.051-1.514-.274a1.657 1.657 0 0 1-.138-2.536.99.99 0 0 0 .24-1.091 1.004 1.004 0 0 0-.933-.625h-3.355v-2.758c.7.184 1.454.16 2.184-.09a3.644 3.644 0 0 0 2.338-2.536 3.659 3.659 0 0 0-.67-3.179 3.748 3.748 0 0 0-3.852-1.287v-6.439Zm16.012 8.838c-.518-3.848-3.139-5.581-5.633-5.581a5.403 5.403 0 0 0-3.195 1.041c-.685-1.392-1.565-2.622-2.588-3.606-3.565-3.436-8.448-4.37-13.066-2.498-3.951 1.608-6.93 6.042-6.93 10.314 0 .185.004.366.011.546C12.115 30.995 10 33.875 10 37.655c0 .094.002.184.005.279a1.05 1.05 0 0 0 .012.292l.001.006c.25 4.425 4.899 8.768 9.385 8.768h26.035C48.748 47 54 44.481 54 37.723c0-4.148-2.439-7.013-6.894-8.131Z" fill="#FFF"/></g></svg>