<svg width="64" height="64" xmlns="http://www.w3.org/2000/svg"><defs><linearGradient x1="0%" y1="100%" x2="100%" y2="0%" id="a"><stop stop-color="#C8511B" offset="0%"/><stop stop-color="#F90" offset="100%"/></linearGradient></defs><g fill="none" fill-rule="evenodd"><path d="M0 0h64v64H0z" fill="url(#a)"/><path d="M31 12.783V16h2v-3.217l2.48 1.515 1.041-1.707-4-2.445a1.001 1.001 0 0 0-1.042 0l-4 2.445 1.042 1.707 2.48-1.515ZM29 54h6v-2h-6v2Zm8.697-6L32 44.201l-5.697 3.8h11.394ZM51 22v4h-2v-2.84c-8.926 1.551-15.58 8.084-16 15.884v3.421l2 1.333v-2.834c.224-5.14 3.835-8.547 8.84-8.332 4.123.18 7.332 3.681 7.153 7.806a6.198 6.198 0 0 1-6.453 5.915 5.159 5.159 0 0 1-4.924-5.37c.104-2.375 2.012-4.087 4.427-3.982L43.957 39c-1.267-.049-2.289.813-2.343 2.07a3.157 3.157 0 0 0 3.013 3.286 4.19 4.19 0 0 0 4.368-4.004 5.495 5.495 0 0 0-5.244-5.72 8.495 8.495 0 0 0-.356-.009c-3.674 0-6.227 2.526-6.396 6.385L37 45.131l4.555 3.037A1 1 0 0 1 41 50H23a1.001 1.001 0 0 1-.555-1.832L27 45.131v-4.167c-.173-3.939-2.883-6.507-6.75-6.334a5.495 5.495 0 0 0-5.245 5.721 4.173 4.173 0 0 0 4.37 4.004 3.157 3.157 0 0 0 3.011-3.286c-.055-1.257-1.022-2.117-2.343-2.07l-.086-1.998c2.427-.105 4.323 1.606 4.427 3.981a5.158 5.158 0 0 1-5.196 5.377 6.197 6.197 0 0 1-6.18-5.92c-.18-4.126 3.03-7.627 7.153-7.807 4.98-.222 8.615 3.191 8.838 8.288L29 43.798l2-1.333V39c-.414-7.753-7.07-14.289-16-15.84V26h-2v-4a1 1 0 0 1 .338-.75c.045-.039.101-.055.152-.085l-.01-.019 4-2.444 1.041 1.707-1.773 1.084C23.135 22.987 28.311 26.864 31 31.911v-1.91c0-5.737-2.772-10.837-6.948-12.878l-2.554 1.466-.996-1.734 3-1.722c.271-.156.601-.176.891-.053 3.548 1.515 6.24 4.702 7.607 8.726 1.366-4.025 4.06-7.21 7.607-8.726.29-.123.621-.103.891.053l3 1.722-.996 1.734-2.554-1.466C35.772 19.163 33 24.264 33 30v1.93c2.69-5.064 7.865-8.943 14.252-10.437L45.48 20.41l1.042-1.707 4 2.444-.01.02c.05.03.106.045.151.084A1 1 0 0 1 51 22Zm-2 10h2v-3h-2v3Zm-36 0h2v-3h-2v3Z" fill="#FFF"/></g></svg>