<svg width="64" height="64" xmlns="http://www.w3.org/2000/svg"><defs><linearGradient x1="0%" y1="100%" x2="100%" y2="0%" id="a"><stop stop-color="#C8511B" offset="0%"/><stop stop-color="#F90" offset="100%"/></linearGradient></defs><g fill="none" fill-rule="evenodd"><path d="M0 0h64v64H0z" fill="url(#a)"/><path d="m25.317 34.02 1.522.868-.99 1.737-2.035-1.16a37.638 37.638 0 0 1-3.005 2.478L32 44.868l11.19-6.925a37.942 37.942 0 0 1-3.01-2.482l-2.046 1.164-.988-1.738 1.532-.87A29.716 29.716 0 0 1 36.25 31.2l-3.75 2.165a.995.995 0 0 1-1 0l-3.75-2.165a29.552 29.552 0 0 1-2.433 2.82Zm3.572-4.47L32 31.344l3.11-1.796c-1.382-2.154-2.431-4.443-3.11-6.893-.68 2.45-1.729 4.74-3.111 6.893Zm-11.558.707C20.933 27.013 23 22.91 23 19h2c0 2.894.641 5.48 1.855 7.481l-1.711 1.038a13.825 13.825 0 0 1-1.318-2.935c-.906 2.2-2.307 4.322-4.166 6.211l3.861 2.201C28.535 27.998 31 22.06 31 14.981a1 1 0 1 1 2 0c0 7.077 2.463 13.014 7.475 18.012l3.863-2.199c-1.858-1.889-3.258-4.01-4.165-6.21a13.775 13.775 0 0 1-1.318 2.935l-1.711-1.038c1.214-2 1.856-4.587 1.856-7.48h2c0 3.91 2.066 8.012 5.669 11.256a1.002 1.002 0 0 1-.175 1.612l-4.487 2.553a37.802 37.802 0 0 0 3.556 2.752 1.001 1.001 0 0 1-.037 1.677l-13 8.044a1.005 1.005 0 0 1-1.053 0l-13-8.044a1.002 1.002 0 0 1-.037-1.677 37.43 37.43 0 0 0 3.552-2.75l-4.483-2.555a1 1 0 0 1-.174-1.612Zm26.465-13.689-3.897-2.25-1 1.732 3.897 2.25 1-1.732ZM25.1 16.05l-1-1.732-3.897 2.25 1 1.732 3.897-2.25Zm26.54 5.25-4.313-2.693-1.059 1.697 2.896 1.807-2.661 1.527.994 1.735L50 23.88v16.507l-2.553-1.28-.895 1.79 2.34 1.168L32 51.845l-16.893-9.78 2.34-1.17-.895-1.79L14 40.386V23.88l2.503 1.494.994-1.735-2.661-1.527 2.895-1.807-1.059-1.697-4.313 2.693c-.295.183-.361.507-.359.853v19.852a.999.999 0 0 0 .499.86l19 11a.997.997 0 0 0 1.002 0l19-11a1 1 0 0 0 .5-.86V22.153c.001-.346-.066-.67-.361-.853ZM32 40.021c.172 0 .345-.044.5-.133l2.789-1.61-1-1.733L32 37.867l-2.289-1.322-1 1.732 2.789 1.611a.999.999 0 0 0 .5.133Zm-3.467-25.775-1.029-1.715 3.981-2.388a.996.996 0 0 1 1.029 0l3.982 2.388-1.03 1.715L32 12.166l-3.467 2.08Z" fill="#FFF"/></g></svg>