<svg width="64" height="64" xmlns="http://www.w3.org/2000/svg"><defs><linearGradient x1="0%" y1="100%" x2="100%" y2="0%" id="a"><stop stop-color="#C8511B" offset="0%"/><stop stop-color="#F90" offset="100%"/></linearGradient></defs><g fill="none" fill-rule="evenodd"><path d="M0 0h64v64H0z" fill="url(#a)"/><path d="m50 42.395-17 8.947V43.34l8.466-4.456a.982.982 0 0 0 .282-.234l2.606 1.636 1.063-1.695L42 36.446v-8.55l8-4.236v18.735Zm-27 3.947v-8.506l5.045-2.67v1.832a.998.998 0 0 0 1.518.855l1.437-.87v5.15l-8 4.21Zm-9-6.005V21.602l17-8.947v8.477l-8.465 4.455-3.263-1.846-.984 1.741L21 27.016v9.615l-7 3.706Zm20.518-5.483A1 1 0 0 0 35 34v-2.398l5-2.647v8.441l-7 3.684v-5.307l1.518-.918ZM30 31.475l3-1.732v3.692l-3 1.79v-3.75Zm-1.461-1.436c-.306.18-.539.507-.539.862v2.001l-5 2.671v-7.97l8-4.21v5.204l-2.461 1.442ZM40 18.655v8.035l-5 2.648v-1.34a1 1 0 0 0-1.506-.863l-.494.29V22.34l7-3.684Zm11.516 2.487a1 1 0 0 0-.36-.123l-3.987-2.326-1.008 1.727 2.703 1.578L42 25.632V17a1 1 0 0 0-1.466-.885L33 20.08v-7.348l2.292 1.323 1-1.732-3.792-2.19-.001.003a.997.997 0 0 0-.965-.02l-19 10a1 1 0 0 0-.534.884v21a1 1 0 0 0 .484.856c.009.006.019.007.028.012l-.002.003 4.336 2.442.98-1.743-2.74-1.543L21 38.896v9.103a1 1 0 0 0 1.466.884L31 44.393V51.255l-2.494-1.458-1.01 1.727 3.999 2.337.001-.002a.997.997 0 0 0 .97.023l19-10A1 1 0 0 0 52 43V22c0-.35-.184-.676-.484-.857Z" fill="#FFF"/></g></svg>