<svg width="64" height="64" xmlns="http://www.w3.org/2000/svg"><defs><linearGradient x1="0%" y1="100%" x2="100%" y2="0%" id="a"><stop stop-color="#C8511B" offset="0%"/><stop stop-color="#F90" offset="100%"/></linearGradient></defs><g fill="none" fill-rule="evenodd"><path d="M0 0h64v64H0z" fill="url(#a)"/><path d="m42.195 32.688-3.202 1.86 6.583 4.635c.265.187.424.492.424.817v4.234l3-1.8v-4.917l-6.805-4.829Zm-9.646 3.928L44 44.146V40.52l-7.435-5.235a.997.997 0 0 1 .074-1.682l11.394-6.616-3.106-1.863L19.526 40.85a.997.997 0 0 1-1.041.007L15 38.767v3.667l3.975 2.385 12.475-8.203a.998.998 0 0 1 1.099 0Zm-10.475-6.084 2.93-1.914-6.504-3.752A.998.998 0 0 1 18 24v-4.233l-3 1.8v4.857l7.074 4.108Zm9.424-4.119L20 19.737v3.685l7.413 4.277a1.001 1.001 0 0 1 .047 1.703l-11.577 7.562 3.109 1.865 25.439-15.75a1.003 1.003 0 0 1 1.262.171L49 25.234v-3.668l-4.009-2.405-12.489 7.252a.996.996 0 0 1-1.004 0Zm19.004 1.452-6.406 3.72 6.483 4.6c.263.187.421.491.421.815v6a1 1 0 0 1-.486.857l-5 3a.993.993 0 0 1-1.064-.022L32 38.648l-12.451 8.187a1 1 0 0 1-1.064.022l-5-3A.999.999 0 0 1 13 43v-6c0-.338.17-.652.453-.837l6.746-4.407-6.701-3.89A1 1 0 0 1 13 27v-6c0-.35.184-.677.485-.857l5-3a.997.997 0 0 1 1.017-.008L32 24.392l12.498-7.257a.997.997 0 0 1 1.016.008l5 3A1 1 0 0 1 51 21v6c0 .356-.19.686-.498.865ZM28 14.565l3.982-2.399 3.071 1.835-3.568 2.142A.999.999 0 0 0 31 17v4h2v-3.434l3-1.8V18h2v-4a.997.997 0 0 0-.488-.858l-5.019-3a.994.994 0 0 0-1.028.002l-4.981 3A.996.996 0 0 0 26 14v4h2v-3.435ZM36 46h2v4a.997.997 0 0 1-.485.856l-4.98 3a.993.993 0 0 1-1.028.002l-5.02-3A.997.997 0 0 1 26 50v-4h2v2.234l3-1.8V43h2v4a1 1 0 0 1-.486.857L28.946 50l3.071 1.835L36 49.435V46Z" fill="#FFF"/></g></svg>