<svg width="64" height="64" xmlns="http://www.w3.org/2000/svg"><defs><linearGradient x1="0%" y1="100%" x2="100%" y2="0%" id="a"><stop stop-color="#C8511B" offset="0%"/><stop stop-color="#F90" offset="100%"/></linearGradient></defs><g fill="none" fill-rule="evenodd"><path d="M0 0h64v64H0z" fill="url(#a)"/><path d="m46.692 39.09 1.879-.686-1.467-4.021a1.002 1.002 0 0 0-1.282-.596l-4.116 1.5.685 1.88 1.745-.637c-.957 1.827-2.006 3.522-3.1 4.978-.213.289-.427.56-.642.824-2.518 3.11-5.044 4.726-6.445 4.118-.451-.196-.815-.63-1.081-1.291l-1.856.748c.464 1.149 1.204 1.972 2.139 2.377.463.202.953.302 1.468.302 2.134 0 4.677-1.72 7.329-4.995.231-.285.463-.58.691-.886 1.197-1.594 2.346-3.451 3.382-5.453l.671 1.838Zm-8.161-21.965c1.061.468 1.656 2.318 1.589 4.948-.001.039-.001.146.003.185l-.002.094c-.096 2.533-.742 5.565-1.828 8.719l-.64-1.572-1.854.753 1.613 3.965a.998.998 0 0 0 1.303.55l4.059-1.651-.754-1.852-1.955.795c1.222-3.46 1.946-6.818 2.054-9.631l.003-.11a3.221 3.221 0 0 0-.001-.241c.081-3.547-.907-5.954-2.791-6.785-.938-.404-2.516-.59-4.701.824l1.085 1.68c.798-.516 1.935-1.051 2.817-.671ZM26 30.789h3v-2h-3v2Zm0-4h3v-2h-3v2Zm-2 11h7v-15h-7v15Zm8-17a1 1 0 0 1 1 1v17a1 1 0 0 1-1 1h-9a1 1 0 0 1-1-1v-17a1 1 0 0 1 1-1h9Zm15.1 6.63c-.31-2.272-1.373-4.016-3.037-4.957l-.984 1.74c1.234.7 1.98 2.153 2.099 4.095a1 1 0 0 0 .802.919c3.994.799 6.02 2.95 6.02 6.39 0 5.38-4.309 6.183-6.877 6.183H44v2h1.123c2.082 0 8.877-.59 8.877-8.182 0-4.18-2.443-7.065-6.9-8.188ZM37 43.789H18.74c-4.654 0-8.486-3.366-8.721-7.664a9.963 9.963 0 0 1-.019-.578c0-3.813 2.114-6.718 5.704-7.915a11.278 11.278 0 0 1-.013-.553c0-4.313 2.98-8.783 6.931-10.398 4.601-1.887 9.487-.946 13.064 2.513 1.382 1.346 2.452 3.04 3.185 5.038l-1.879.688c-.618-1.69-1.552-3.174-2.698-4.291-1.434-1.385-5.368-4.37-10.915-2.097-3.19 1.304-5.688 5.058-5.688 8.547 0 .396.023.788.069 1.163a.997.997 0 0 1-.753 1.093c-1.87.462-5.007 1.882-5.007 6.212 0 .163.008.317.016.472.177 3.234 3.131 5.77 6.724 5.77H37v2Z" fill="#FFF"/></g></svg>