<svg width="64" height="64" xmlns="http://www.w3.org/2000/svg"><defs><linearGradient x1="0%" y1="100%" x2="100%" y2="0%" id="a"><stop stop-color="#C8511B" offset="0%"/><stop stop-color="#F90" offset="100%"/></linearGradient></defs><g fill="none" fill-rule="evenodd"><path d="M0 0h64v64H0z" fill="url(#a)"/><path d="M32 47.796c-1.171 0-2.313-.12-3.422-.333L31.6 35.164 34.523 47.6c-.827.117-1.665.197-2.523.197ZM20.773 31.882h4.325c.234 3.38 1.119 6.413 2.445 8.48a11.12 11.12 0 0 1-6.77-8.48Zm6.796-12.096c-.628.964-1.158 2.144-1.571 3.485a16.97 16.97 0 0 1-2.374-.754 11.23 11.23 0 0 1 3.945-2.73Zm12.365 2.668c-.714.3-1.497.555-2.332.767-.412-1.32-.937-2.483-1.557-3.435a11.226 11.226 0 0 1 3.889 2.668Zm-3.84 17.893c1.323-2.055 2.194-5.054 2.423-8.465h4.321c-.635 3.785-3.223 6.996-6.744 8.465Zm.419-8.465c-.214 2.856-.927 5.422-1.95 7.149l-1.682-7.149h3.632Zm2.062-1.99a24.695 24.695 0 0 0-.479-4.749 18.074 18.074 0 0 0 3.113-1.073 10.999 10.999 0 0 1 1.776 5.823h-4.41Zm-6.767-10.94c1.402 0 2.903 1.765 3.838 4.674-1.253.196-2.584.299-3.946.299-1.289 0-2.547-.097-3.742-.273.936-2.925 2.442-4.7 3.85-4.7Zm-4.348 6.636c1.356.213 2.784.326 4.24.326 1.53 0 3.03-.124 4.447-.358.263 1.303.417 2.762.429 4.337h-9.537c.011-1.56.162-3.01.421-4.305Zm-6.83 4.305c.035-2.11.665-4.074 1.727-5.743.948.423 2.014.769 3.152 1.045a24.686 24.686 0 0 0-.47 4.698H20.63Zm8.104 8.55c-.855-1.703-1.441-4.02-1.631-6.56h3.243l-1.612 6.56Zm20.118-14.86A17.778 17.778 0 0 1 50 29.894c0 8.329-5.757 15.327-13.515 17.318l-1.064-4.529c5.558-1.585 9.574-6.726 9.574-12.602 0-7.233-5.916-13.118-13.187-13.118-7.272 0-13.188 5.885-13.188 13.118 0 5.75 3.741 10.735 9.107 12.464l-1.091 4.44C19.322 44.708 14 37.908 14 29.893c0-9.872 8.075-17.904 18-17.904 4.155 0 8.078 1.397 11.262 3.95h-3.119v1.99h6.428v-6.394h-2v2.898A19.88 19.88 0 0 0 32 10c-11.028 0-20 8.924-20 19.893 0 8.949 5.974 16.532 14.161 19.022l-1.133 4.614 1.944.471 1.13-4.6c1.261.25 2.564.386 3.898.386 1.016 0 2.005-.1 2.979-.246l1.047 4.451 1.948-.454-1.033-4.39C45.583 46.948 52 39.162 52 29.892c0-2.413-.43-4.771-1.277-7.01l-1.871.7Z" fill="#FFF"/></g></svg>