<svg width="64" height="64" xmlns="http://www.w3.org/2000/svg"><defs><linearGradient x1="0%" y1="100%" x2="100%" y2="0%" id="a"><stop stop-color="#C8511B" offset="0%"/><stop stop-color="#F90" offset="100%"/></linearGradient></defs><g fill="none" fill-rule="evenodd"><path d="M0 0h64v64H0z" fill="url(#a)"/><path d="M41.441 44.995c-1.93 0-3.5-1.57-3.5-3.5s1.57-3.5 3.5-3.5 3.5 1.57 3.5 3.5-1.57 3.5-3.5 3.5Zm0-9a5.506 5.506 0 0 0-5.5 5.5c0 3.033 2.468 5.5 5.5 5.5s5.5-2.467 5.5-5.5-2.468-5.5-5.5-5.5Zm10.5 7h-1.439a.998.998 0 0 0-.966.742 8.018 8.018 0 0 1-.839 1.998 1 1 0 0 0 .159 1.218l1.009.999-1.928 1.91-1.022-1.013a1.005 1.005 0 0 0-1.203-.156 8.31 8.31 0 0 1-2.025.832 1 1 0 0 0-.746.967v1.503h-3v-1.44c0-.458-.312-.858-.757-.97a8.989 8.989 0 0 1-2.156-.847.999.999 0 0 0-1.17.15l-1.135 1.074-2.081-1.971 1.056-1.001a1 1 0 0 0 .165-1.25 7.903 7.903 0 0 1-.884-2.014 1 1 0 0 0-.963-.731h-1.075v-2.888c.161.013.332.038.411.05.174.026.322.046.429.038l.644-.03a.997.997 0 0 0 .923-.747 8.51 8.51 0 0 1 .843-2.067 1.001 1.001 0 0 0-.154-1.197l-1.04-1.06 1.951-1.987 1.008 1.033a.999.999 0 0 0 1.225.162 8.102 8.102 0 0 1 2.02-.855c.436-.118.74-.514.74-.966v-1.486h3v1.439a1 1 0 0 0 .744.967 8.196 8.196 0 0 1 2.023.84 1 1 0 0 0 1.21-.158l1.019-1.02L49.872 35l-1.02 1.02a.999.999 0 0 0-.157 1.21c.371.638.654 1.318.84 2.022a1 1 0 0 0 .967.744h1.439v3ZM29 51.829l-17-10.39V21.556l14-8.75v6.642l-7.531 4.706A1 1 0 0 0 18 25v13c0 .35.184.677.485.857l10 6c.304.182.682.19.993.02l.18-.097c.22.133.476.214.753.214h.878c.134.367.291.727.469 1.078l-.896.85a1.472 1.472 0 0 0-.461 1.068c0 .402.168.79.46 1.067l1.048.993L29 51.829Zm3-32.417v-6.663l15 8.824v9.634c-.033.027-.073.038-.103.068l-.871.87a10.334 10.334 0 0 0-1.085-.45v-1.23c0-.81-.659-1.47-1.47-1.47H41V25c0-.363-.198-.698-.515-.874L32 19.412Zm20.471 18.583H51.24a10.334 10.334 0 0 0-.45-1.085l.871-.871a1.472 1.472 0 0 0 0-2.08L49 31.3V21a1 1 0 0 0-.494-.862l-17-10A1.001 1.001 0 0 0 30 11v9a1 1 0 0 0 .514.874L39 25.589v3.472a1.467 1.467 0 0 0-1.059 1.404v1.28c-.368.132-.729.284-1.081.458l-.555-.568a1.608 1.608 0 0 0-1.116-.722 1.509 1.509 0 0 0-1.292.409l-2.352 2.398-1.895-2.38L34.708 25h-2.246L28 30.243V25h-2v13h2v-6l2.962 3.754c.067.13.135.26.243.37l.253.258.598.759c-.157.338-.303.682-.422 1.035-.578-.085-1.536-.222-2.19.343-.324.28-.503.682-.503 1.13v3.15L20 37.434v-11.88l7.53-4.705A1 1 0 0 0 28 20v-9a1.002 1.002 0 0 0-1.531-.848l-16 10A1 1 0 0 0 10 21v21a1 1 0 0 0 .478.853l18 11a.999.999 0 0 0 1.043 0l3.892-2.378.299.284a1.47 1.47 0 0 0 2.022 0l.987-.936c.397.185.804.346 1.22.483v1.218c0 .81.659 1.47 1.47 1.47h4.06c.811 0 1.47-.66 1.47-1.47v-1.292c.37-.128.732-.278 1.087-.447l.874.866a1.474 1.474 0 0 0 2.069 0l2.682-2.656c.28-.278.434-.65.434-1.044 0-.395-.154-.766-.435-1.044l-.859-.851c.169-.347.318-.701.445-1.062h1.233c.811 0 1.47-.66 1.47-1.47v-4.06c0-.81-.659-1.47-1.47-1.47Z" fill="#FFF"/></g></svg>