<svg width="64" height="64" xmlns="http://www.w3.org/2000/svg"><defs><linearGradient x1="0%" y1="100%" x2="100%" y2="0%" id="a"><stop stop-color="#C8511B" offset="0%"/><stop stop-color="#F90" offset="100%"/></linearGradient></defs><g fill="none" fill-rule="evenodd"><path d="M0 0h64v64H0z" fill="url(#a)"/><path d="m48.812 47.865-15.842-.017c-1.763-.002-3.287-1.3-3.468-2.957a4.686 4.686 0 0 1-.027-.5c0-2.22 1.415-3.047 2.602-3.349.486-.124.805-.59.746-1.088a5.414 5.414 0 0 1-.039-.653c0-1.92 1.371-4.062 3.056-4.776.776-.329 1.493-.459 2.143-.459 1.85 0 3.156 1.06 3.726 1.632.626.627 1.136 1.467 1.475 2.43a1 1 0 0 0 1.748.261c.409-.553 1.042-.786 1.646-.61.748.22 1.247 1.015 1.346 2.138a1 1 0 0 0 .828 1.061c.943.162 3.134.823 3.134 3.451 0 3.06-2.838 3.41-3.074 3.436ZM29 51.828 12 41.44V21.554l14-8.75v6.642l-7.53 4.706A1 1 0 0 0 18 25v13a1 1 0 0 0 .486.857l8.998 5.4c-.001.045-.009.087-.009.134 0 .251.014.491.039.72.272 2.49 2.297 4.396 4.819 4.68L29 51.828Zm11.486-27.702L32 19.411v-6.663l15 8.824v14.262a3.42 3.42 0 0 0-2.5.325 7.675 7.675 0 0 0-3.5-3.378v-7.78a.999.999 0 0 0-.514-.875Zm9.355 15.053c-.141-.78-.432-1.457-.841-2.004V21a.999.999 0 0 0-.493-.862l-17-10A.999.999 0 0 0 30 11v9c0 .363.198.698.515.874L39 25.588v6.576a7.28 7.28 0 0 0-3.939.52c-1.02.431-1.923 1.19-2.643 2.116l-2.767-3.46L34.708 25h-2.245L28 30.241v-5.24h-2v13h2v-6l3.454 4.376c-.423.928-.67 1.932-.67 2.924v.061c-1.373.548-2.361 1.533-2.883 2.812L20 37.434v-11.88l7.531-4.706c.292-.183.469-.504.469-.848v-9a1 1 0 0 0-1.53-.848l-16 10A1 1 0 0 0 10 21v21c0 .348.182.671.479.853l18 11a.998.998 0 0 0 1.043 0l6.549-4.002 12.821.011c1.728-.14 4.994-1.457 4.994-5.433 0-3.025-1.972-4.65-4.045-5.25Z" fill="#FFF"/></g></svg>