<svg width="64" height="64" xmlns="http://www.w3.org/2000/svg"><defs><linearGradient x1="0%" y1="100%" x2="100%" y2="0%" id="a"><stop stop-color="#C8511B" offset="0%"/><stop stop-color="#F90" offset="100%"/></linearGradient></defs><g fill="none" fill-rule="evenodd"><path d="M0 0h64v64H0z" fill="url(#a)"/><path d="M39.998 44.026h1v-1h-1v1Zm-1 2h3a1 1 0 0 0 1-1v-3a1 1 0 0 0-1-1h-3a1 1 0 0 0-1 1v3a1 1 0 0 0 1 1Zm8-2h1v-1h-1v1Zm-1 2h3a1 1 0 0 0 1-1v-3a1 1 0 0 0-1-1h-3a1 1 0 0 0-1 1v3a1 1 0 0 0 1 1Zm-6-10h1v-1h-1v1Zm-1 2h3a1 1 0 0 0 1-1v-3a1 1 0 0 0-1-1h-3a1 1 0 0 0-1 1v3a1 1 0 0 0 1 1Zm8-2h1v-1h-1v1Zm-1 2h3a1 1 0 0 0 1-1v-3a1 1 0 0 0-1-1h-3a1 1 0 0 0-1 1v3a1 1 0 0 0 1 1Zm-10 14h16v-21h-16v21ZM29 51.829l-17-10.39V21.556l14-8.75v6.64l-7.53 4.708A1 1 0 0 0 18 25v13c0 .35.185.676.485.857l10 6c.305.182.683.19.994.02l4.519-2.464v6.36L29 51.83Zm11.485-27.702L32 19.412v-6.663l15 8.823v7.454h-6V25a.998.998 0 0 0-.515-.874Zm12.513 4.899H49V21a.999.999 0 0 0-.493-.862l-17-10A.999.999 0 0 0 30 11v9a1 1 0 0 0 .515.874L39 25.589v3.437h-4.002a1 1 0 0 0-1 1v6.778l-4.347-5.462L34.709 25h-2.246L28 30.24v-5.24h-2v13h2v-6l4.752 6.02h1.246v2.115l-4.974 2.713L20 37.434v-11.88l7.53-4.705c.292-.183.47-.504.47-.848v-9a1 1 0 0 0-1.53-.848l-16 10A1 1 0 0 0 10 21v21c0 .348.182.67.479.853l18 11a.995.995 0 0 0 1.043 0l4.476-2.735v1.907a1 1 0 0 0 1 1h18a1 1 0 0 0 1-1v-23a1 1 0 0 0-1-1Z" fill="#FFF"/></g></svg>