<svg width="64" height="64" xmlns="http://www.w3.org/2000/svg"><defs><linearGradient x1="0%" y1="100%" x2="100%" y2="0%" id="a"><stop stop-color="#C8511B" offset="0%"/><stop stop-color="#F90" offset="100%"/></linearGradient></defs><g fill="none" fill-rule="evenodd"><path d="M0 0h64v64H0z" fill="url(#a)"/><path d="M47.707 22.559c-.29-.456-.602-.891-.935-1.304l4.837-2.01c.28.439.64 1.019.952 1.548l-4.854 1.766Zm3.635 9.352.857-.313a19.125 19.125 0 0 1-1.79 8.288c-4.488 9.62-15.965 13.797-25.585 9.313a19.156 19.156 0 0 1-6.7-5.2l2.446-.89c.005-.001.01-.004.014-.006l2.733-.995a14.023 14.023 0 0 0 3.66 2.472 14.063 14.063 0 0 0 10.823.467 14.065 14.065 0 0 0 9.191-11.555l4.351-1.581ZM11.21 38.508l4.802-1.748a14.102 14.102 0 0 0 2.504 4.968l-4.966 1.808a19.343 19.343 0 0 1-2.34-5.028ZM21.678 30.6c.015.46.054.925.116 1.389l-4.88 1.776a19.25 19.25 0 0 1-.216-1.353l4.98-1.812Zm19.066-4.971c-.275.1-.493.316-.596.59-.1.275-.078.58.065.836a12.157 12.157 0 0 1 1.522 6.845.998.998 0 0 0 .997 1.075c.116 0 .231-.02.342-.06l1.764-.641a12.019 12.019 0 0 1-.86 2.61 12.077 12.077 0 0 1-6.863 6.283 12.07 12.07 0 0 1-9.293-.401 11.993 11.993 0 0 1-3.538-2.512 1 1 0 0 0-1.058-.242l-2.708.986a12.128 12.128 0 0 1-2.732-5.422l5.47-1.991a1 1 0 0 0 .64-1.13 12.155 12.155 0 0 1-.193-3.218 1.003 1.003 0 0 0-.392-.873 1.008 1.008 0 0 0-.947-.143l-1.37.499c.188-.903.464-1.778.85-2.607 2.833-6.075 10.08-8.712 16.156-5.88a12.063 12.063 0 0 1 3.53 2.517 1 1 0 0 0 1.1.225l2.203-.916c.445.499.841 1.057 1.208 1.64l-5.297 1.93Zm3.018 6.908a14.152 14.152 0 0 0-1.276-5.415l4.801-1.748a19.285 19.285 0 0 1 1.44 5.358l-4.965 1.805Zm-30.146-1.132a19.228 19.228 0 0 1 1.797-8.291C19.9 13.494 31.376 9.32 40.997 13.803a19.286 19.286 0 0 1 6.52 4.977l-5.045 2.095a14.012 14.012 0 0 0-3.626-2.454c-7.077-3.3-15.516-.226-18.815 6.848a14.004 14.004 0 0 0-1.19 4.235l-5.225 1.902ZM54.9 20.898c-.515-1.066-2-3.346-2.062-3.443a1.001 1.001 0 0 0-1.222-.377l-2.177.903a21.28 21.28 0 0 0-7.596-5.991c-10.625-4.952-23.29-.34-28.242 10.279a21.229 21.229 0 0 0-1.92 10.62 1 1 0 0 0 1.338.862l1.755-.638c.087.605.211 1.22.355 1.84l-5.47 1.992a1 1 0 0 0-.629 1.184 21.407 21.407 0 0 0 3.317 7.19 1 1 0 0 0 1.157.362l2.65-.964a21.171 21.171 0 0 0 7.824 6.295A21.135 21.135 0 0 0 32.926 53c8.01-.001 15.692-4.546 19.295-12.27a21.142 21.142 0 0 0 1.912-10.618 1.007 1.007 0 0 0-.457-.762 1.004 1.004 0 0 0-.882-.097l-2.136.777-.006.002a21.25 21.25 0 0 0-1.698-5.8l5.388-1.96c.265-.096.478-.301.585-.563a1.003 1.003 0 0 0-.027-.812Z" fill="#FFF"/></g></svg>