<svg width="64" height="64" xmlns="http://www.w3.org/2000/svg"><defs><linearGradient x1="0%" y1="100%" x2="100%" y2="0%" id="a"><stop stop-color="#C8511B" offset="0%"/><stop stop-color="#F90" offset="100%"/></linearGradient></defs><g fill="none" fill-rule="evenodd"><path d="M0 0h64v64H0z" fill="url(#a)"/><path d="m17.789 26.4-1.832-.801a16.006 16.006 0 0 1 29.336 0l-1.832.801a14.01 14.01 0 0 0-25.672 0Zm24.964 12.599 1.73 1.002A16.058 16.058 0 0 1 30.625 48a16.058 16.058 0 0 1-13.858-7.999l1.73-1.002A14.057 14.057 0 0 0 30.625 46c4.982 0 9.629-2.683 12.128-7.001ZM40 35h-4v-4h4v4Zm-14 0h4v-4h-4v4Zm-10 0h4v-4h-4v4Zm33.388-2.599-2.249-3.009-1.602 1.197L46.592 32H42v-2a1 1 0 0 0-1-1h-6a1 1 0 0 0-1 1v2h-2v-2a1 1 0 0 0-1-1h-6a1 1 0 0 0-1 1v2h-2v-2a1 1 0 0 0-1-1h-6a1 1 0 0 0-1 1v6a1 1 0 0 0 1 1h6a1 1 0 0 0 1-1v-2h2v2a1 1 0 0 0 1 1h6a1 1 0 0 0 1-1v-2h2v2a1 1 0 0 0 1 1h6a1 1 0 0 0 1-1v-2h4.592l-1.055 1.411 1.602 1.197 2.249-3.009a1.002 1.002 0 0 0 0-1.198Z" fill="#FFF"/></g></svg>