<svg width="64" height="64" xmlns="http://www.w3.org/2000/svg"><defs><linearGradient x1="0%" y1="100%" x2="100%" y2="0%" id="a"><stop stop-color="#C8511B" offset="0%"/><stop stop-color="#F90" offset="100%"/></linearGradient></defs><g fill="none" fill-rule="evenodd"><path d="M0 0h64v64H0z" fill="url(#a)"/><path d="M52 37.093h-6.954v-3.011H40v3.011h-7v-3.011h-5v3.011h-7v-7.026h7v3.011h5v-3.011h7v3.011h5v-3.011h7v7.026Zm.369-9.033h-7.738c-.9 0-1.631.733-1.631 1.636v1.375h-1v-1.375c0-.903-.731-1.636-1.631-1.636h-7.738c-.9 0-1.631.733-1.631 1.636v1.375h-1v-1.375c0-.903-.731-1.636-1.631-1.636h-7.738c-.9 0-1.631.733-1.631 1.636v7.768c0 .903.731 1.636 1.631 1.636h7.738c.9 0 1.631-.733 1.631-1.636V36.09h1v1.375c0 .903.731 1.636 1.631 1.636h7.738c.9 0 1.631-.733 1.631-1.636V36.09h1.046v1.375c0 .903.731 1.636 1.631 1.636h7.692c.9 0 1.631-.733 1.631-1.636v-7.768c0-.903-.731-1.636-1.631-1.636ZM48 34.082h1v-1.004h-1v1.004Zm-.369 2.007h1.738c.9 0 1.631-.733 1.631-1.636v-1.746c0-.903-.731-1.636-1.631-1.636h-1.738c-.9 0-1.631.733-1.631 1.636v1.746c0 .903.731 1.636 1.631 1.636ZM36 34.082h1v-1.004h-1v1.004Zm1.369-3.011h-1.738c-.9 0-1.631.733-1.631 1.636v1.746c0 .903.731 1.636 1.631 1.636h1.738c.9 0 1.631-.733 1.631-1.636v-1.746c0-.903-.731-1.636-1.631-1.636ZM24 34.08h1v-1.003h-1v1.004Zm1.369-3.01h-1.738c-.9 0-1.631.733-1.631 1.636v1.746c0 .903.731 1.636 1.631 1.636h1.738c.9 0 1.631-.733 1.631-1.636v-1.746c0-.903-.731-1.636-1.631-1.636ZM24 14.007c7.435 0 12 2.34 12 4.015 0 1.677-4.565 4.015-12 4.015S12 19.7 12 18.022c0-1.676 4.565-4.015 12-4.015Zm12 32.904c0 1.705-4.565 4.082-12 4.082s-12-2.377-12-4.082v-6.036c2.583 1.945 7.059 3.246 11.765 3.246 6.249 0 9.535-1.483 9.672-1.547l-.833-1.824c-.031.013-3.076 1.364-8.839 1.364-5.872 0-10.584-2.097-11.765-4.102V30.98c1.502 1.207 3.613 2.15 5.976 2.592l.367-1.973c-3.37-.632-5.618-2.277-6.343-3.583V21.23c2.613 1.842 7.4 2.815 12 2.815s9.387-.973 12-2.815v4.822h2v-8.03C38 14.111 30.787 12 24 12s-14 2.11-14 6.022v28.89C10 50.865 17.213 53 24 53s14-2.134 14-6.089v-5.803h-2v5.803Z" fill="#FFF"/></g></svg>