<svg id="emoji" viewBox="0 0 72 72" xmlns="http://www.w3.org/2000/svg" width="64" height="64">
  <g id="color">
    <rect x="19" y="32" width="34" height="24" fill="#FFFFFF" stroke="none"/>
    <rect x="25" y="40" width="9" height="16" fill="#A57939" stroke="none" strokeLinecap="round" strokeLinejoin="round" strokeMiterlimit="10" strokeWidth="2"/>
    <rect x="40" y="40" width="8" height="7" fill="#92D3F5" stroke="none" strokeLinecap="round" strokeLinejoin="round" strokeMiterlimit="10" strokeWidth="2"/>
    <polygon fill="#EA5A47" stroke="none" strokeLinecap="round" strokeLinejoin="round" strokeMiterlimit="10" strokeWidth="2" points="53,32 19,32.0003 19,31 35,15 53,31"/>
    <polygon fill="#EA5A47" stroke="none" strokeLinecap="round" strokeLinejoin="round" strokeMiterlimit="10" strokeWidth="2" points="29,21 24,26 24,17 29,17"/>
  </g>
  <g id="hair"/>
  <g id="skin"/>
  <g id="skin-shadow"/>
  <g id="line">
    <rect x="25" y="40" width="9" height="16" fill="none" stroke="#000000" strokeLinecap="round" strokeLinejoin="round" strokeMiterlimit="10" strokeWidth="2"/>
    <rect x="40" y="40" width="8" height="7" fill="none" stroke="#000000" strokeLinecap="round" strokeLinejoin="round" strokeMiterlimit="10" strokeWidth="2"/>
    <polygon fill="none" stroke="#000000" strokeLinecap="round" strokeLinejoin="round" strokeMiterlimit="10" strokeWidth="2" points="53,32 19,32.0003 19,31 35,15 53,31"/>
    <rect x="19" y="32" width="34" height="24" fill="none" stroke="#000000" strokeLinecap="round" strokeLinejoin="round" strokeMiterlimit="10" strokeWidth="2"/>
    <polygon fill="none" stroke="#000000" strokeLinecap="round" strokeLinejoin="round" strokeMiterlimit="10" strokeWidth="2" points="29,21 24,26 24,17 29,17"/>
  </g>
</svg>
