<svg id="emoji" viewBox="0 0 72 72" xmlns="http://www.w3.org/2000/svg" width="64" height="64">
  <g id="line">
    <path fill="none" stroke="#000000" strokeLinecap="round" strokeLinejoin="round" strokeMiterlimit="10" strokeWidth="2" d="M13.6707,21.3098c1.4142,9.8995,26.8701,35.3553,36.7696,36.7696c0,0,5.6569,0,8.4853-5.6569l-9.1924-9.1924l-3.5355,3.5355 c-7.0711-1.4142-19.799-14.1421-21.2132-21.2132l3.5355-3.5355l-9.1924-9.1924C13.6707,15.6529,13.6707,21.3098,13.6707,21.3098z"/>
    <path fill="none" stroke="#000000" strokeLinecap="round" strokeLinejoin="round" strokeMiterlimit="10" strokeWidth="2" d="M13.6707,21.3098c1.4142,9.8995,26.8701,35.3553,36.7696,36.7696c0,0,5.6569,0,8.4853-5.6569l-9.1924-9.1924l-3.5355,3.5355 c-7.0711-1.4142-19.799-14.1421-21.2132-21.2132l3.5355-3.5355l-9.1924-9.1924C13.6707,15.6529,13.6707,21.3098,13.6707,21.3098z"/>
  </g>
</svg>
