<svg xmlns="http://www.w3.org/2000/svg" width="64" height="64"><defs><linearGradient id="a" gradientUnits="userSpaceOnUse" x1="9" y1="-.88" x2="9" y2="16.01" gradientTransform="scale(3.55556)"><stop offset=".22" style="stop-color:#32d4f5;stop-opacity:1"/><stop offset=".43" style="stop-color:#31d1f2;stop-opacity:1"/><stop offset=".6" style="stop-color:#2dc6e9;stop-opacity:1"/><stop offset=".76" style="stop-color:#28b5d9;stop-opacity:1"/><stop offset=".91" style="stop-color:#1f9dc4;stop-opacity:1"/><stop offset="1" style="stop-color:#198ab3;stop-opacity:1"/></linearGradient></defs><path style="stroke:none;fill-rule:nonzero;fill:url(#a)" d="M62.223 33.563a13.692 13.692 0 0 0-11.805-13.297c-.29-9.453-8.145-16.91-17.602-16.711A17.778 17.778 0 0 0 15.93 15.254 16.286 16.286 0 0 0 1.707 31.109c.25 9.153 7.879 16.368 17.031 16.11.496.035.996.035 1.492 0h27.555c.238.035.477.035.711 0 7.524-.078 13.61-6.133 13.727-13.657Zm0 0"/><path style="stroke:none;fill-rule:nonzero;fill:#37c2b1;fill-opacity:1" d="m51.664 53.832-7.113 7.61a.926.926 0 0 1-.934.226.929.929 0 0 1-.629-.727l-4.304-20.976a.925.925 0 0 1 .425-.856l4.696-1.918a.92.92 0 0 1 1.172.461l6.933 15.29a.856.856 0 0 1-.246.89Zm0 0"/><path style="stroke:none;fill-rule:nonzero;fill:#42e8ca;fill-opacity:1" d="m28.445 53.832 7.11 7.61a.928.928 0 0 0 1.566-.5l4.3-20.977a.923.923 0 0 0-.53-.996l-4.696-1.918a.92.92 0 0 0-1.172.46l-6.933 15.29a.855.855 0 0 0 .355 1.031Zm0 0"/><path style="stroke:none;fill-rule:nonzero;fill:#005ba1;fill-opacity:1" d="m41.172 21.332.926-.781a1.456 1.456 0 0 1 2.027.18c.11.124.191.269.25.425l.426 1.137c.254.64.918 1.023 1.597.926l1.176-.215a1.462 1.462 0 0 1 1.672 1.176c.035.16.035.332 0 .496l-.215 1.172a1.498 1.498 0 0 0 .926 1.601l1.137.39a1.49 1.49 0 0 1 .851 1.884 2.601 2.601 0 0 1-.246.43l-.785.886a1.502 1.502 0 0 0 0 1.852l.785.922a1.422 1.422 0 0 1-.215 2.027c-.117.101-.25.187-.39.25l-1.137.426c-.66.234-1.055.91-.926 1.601l.215 1.172a1.39 1.39 0 0 1-1.176 1.637 1.18 1.18 0 0 1-.496 0h-1.176a1.417 1.417 0 0 0-1.597.922l-.426 1.101a1.422 1.422 0 0 1-.746.817 1.411 1.411 0 0 1-1.106.039c-.156-.055-.3-.14-.425-.25l-.891-.887a1.416 1.416 0 0 0-1.848 0l-.922.746c-.292.25-.671.371-1.05.336a1.409 1.409 0 0 1-.977-.516.833.833 0 0 1-.25-.425l-.426-1.102a1.388 1.388 0 0 0-1.601-.926l-1.172.215a1.458 1.458 0 0 1-1.672-1.21 1.02 1.02 0 0 1 0-.462l.215-1.172a1.428 1.428 0 0 0-.926-1.601l-1.101-.426a1.494 1.494 0 0 1-1.032-1.777c.07-.153.153-.293.246-.426l.786-.926a1.496 1.496 0 0 0 0-1.848l-.786-.89a1.445 1.445 0 0 1-.32-1.074c.04-.391.23-.747.535-.989a.807.807 0 0 1 .426-.215l1.105-.425a1.49 1.49 0 0 0 .922-1.598l-.07-1.066a1.457 1.457 0 0 1 1.172-1.672h.5l1.172.21a1.458 1.458 0 0 0 1.601-.921l.426-1.176a1.455 1.455 0 0 1 1.848-.852l.43.25.921.782c.57.37 1.325.297 1.813-.18Zm0 0"/><path style="stroke:none;fill-rule:nonzero;fill:#ffca00;fill-opacity:1" d="M48.676 32.07a8.39 8.39 0 0 1-8.39 8.39 8.387 8.387 0 0 1-8.391-8.39 8.39 8.39 0 0 1 8.39-8.39 8.392 8.392 0 0 1 8.39 8.39Zm0 0"/></svg>