<svg xmlns="http://www.w3.org/2000/svg" width="64" height="64"><defs><radialGradient id="a" gradientUnits="userSpaceOnUse" cx="7.18" cy="9.5" fx="7.18" fy="9.5" r="7.38" gradientTransform="scale(3.55556)"><stop offset="0" style="stop-color:#76bc2d;stop-opacity:1"/><stop offset=".41" style="stop-color:#74b92c;stop-opacity:1"/><stop offset=".66" style="stop-color:#6fb12a;stop-opacity:1"/><stop offset=".88" style="stop-color:#66a227;stop-opacity:1"/><stop offset="1" style="stop-color:#5e9624;stop-opacity:1"/></radialGradient></defs><path style="stroke:none;fill-rule:nonzero;fill:#258277;fill-opacity:1" d="M35.555 36.41a3.552 3.552 0 0 1-1.102 2.809 5.306 5.306 0 0 1-3.164 1.316v2.133h-1.566v-2.207a8.343 8.343 0 0 1-3.91-.996v-2.88a6.484 6.484 0 0 0 1.777.892 8.91 8.91 0 0 0 2.133.496v-3.696a8.631 8.631 0 0 1-3.235-1.886 4.09 4.09 0 0 1 .215-5.512 5.037 5.037 0 0 1 3.02-1.352v-1.953h1.53v1.918a7.87 7.87 0 0 1 3.27.711v2.848a8.05 8.05 0 0 0-3.27-1.106V32a8.261 8.261 0 0 1 3.27 1.922 3.552 3.552 0 0 1 1.032 2.488Zm-5.832-5.086V28.02a1.42 1.42 0 0 0-1.278 1.492c0 .746.461 1.351 1.422 1.812Zm3.023 5.227c0-.676-.496-1.207-1.492-1.672v3.2c.996-.177 1.492-.673 1.492-1.528Zm0 0"/><path style="stroke:none;fill-rule:nonzero;fill:#ffca00;fill-opacity:1" d="M58.809 33.742H46.008a15.75 15.75 0 0 1-5.262 11.735l8.5 9.562a28.445 28.445 0 0 0 9.563-21.332"/><path style="stroke:none;fill-rule:nonzero;fill:url(#a)" d="M30.293 49.527c-8.7 0-15.75-7.05-15.75-15.75 0-8.699 7.05-15.75 15.75-15.75V5.297c-15.711 0-28.445 12.734-28.445 28.445s12.734 28.446 28.445 28.446a28.434 28.434 0 0 0 18.988-7.114l-8.535-9.562a15.557 15.557 0 0 1-10.453 4.015Zm0 0"/><path style="stroke:none;fill-rule:nonzero;fill:#ccc;fill-opacity:1" d="M28.977 1.707v14.79a18.095 18.095 0 0 1 13.097 5.312 18.091 18.091 0 0 1 5.285 13.105h14.864A33.205 33.205 0 0 0 28.977 1.707Zm0 0"/><path style="stroke:none;fill-rule:nonzero;fill:#999;fill-opacity:1" d="M47.43 34.914c.101-10.047-7.946-18.281-17.989-18.418h-.464l1.175 2.207c8.125.477 14.602 6.98 15.04 15.11Zm0 0"/></svg>