<svg xmlns="http://www.w3.org/2000/svg" width="64" height="64"><defs><linearGradient id="a" gradientUnits="userSpaceOnUse" x1="9" y1="17.2" x2="9" y2="-3.28" gradientTransform="scale(3.55556)"><stop offset="0" style="stop-color:#5e9624;stop-opacity:1"/><stop offset=".18" style="stop-color:#629c25;stop-opacity:1"/><stop offset=".44" style="stop-color:#6dae2a;stop-opacity:1"/><stop offset=".73" style="stop-color:#7fcb30;stop-opacity:1"/><stop offset=".82" style="stop-color:#86d633;stop-opacity:1"/></linearGradient></defs><path style="stroke:none;fill-rule:nonzero;fill:url(#a)" d="M62.223 8.89v38.505a2.06 2.06 0 0 1-2.063 2.062H44.09a.537.537 0 0 0-.535.5v6.223a.983.983 0 0 1-.543.91.985.985 0 0 1-1.055-.094l-9.672-7.434H3.84a2.06 2.06 0 0 1-2.063-2.058V8.89a2.077 2.077 0 0 1 .59-1.485c.39-.394.918-.613 1.473-.613h56.32c.555 0 1.082.219 1.473.613.387.395.597.93.59 1.485Zm0 0"/><path style="stroke:none;fill-rule:nonzero;fill:#fff;fill-opacity:1" d="M33.922 34.238h-4.125a1.272 1.272 0 0 1-1.352-1.207l-.71-20.836c-.012-.336.117-.66.35-.902.235-.242.556-.379.892-.379h6.046c.34 0 .668.14.907.39.234.25.355.587.336.926l-1.102 20.836a1.24 1.24 0 0 1-1.242 1.172ZM31.074 37.762h1.672c1.2 0 2.168.968 2.168 2.168v1.672a2.168 2.168 0 0 1-2.168 2.168h-1.672a2.17 2.17 0 0 1-2.168-2.168V39.93c0-1.2.973-2.168 2.168-2.168Zm0 0"/></svg>