<svg xmlns="http://www.w3.org/2000/svg" width="64" height="64"><defs><linearGradient id="a" gradientUnits="userSpaceOnUse" x1="8.15" y1="17.49" x2="8.15" y2="2.09" gradientTransform="scale(3.55556)"><stop offset="0" style="stop-color:#5e9624;stop-opacity:1"/><stop offset=".31" style="stop-color:#69a828;stop-opacity:1"/><stop offset=".93" style="stop-color:#86d633;stop-opacity:1"/></linearGradient></defs><path style="stroke:none;fill-rule:nonzero;fill:#5e9624;fill-opacity:1" d="M54.043 1.777H12.766a2.028 2.028 0 0 0-1.567.711L6.863 7.504l47.575 48.21-7.114 6.509h3.555c.601 0 1.18-.215 1.637-.606l4.16-3.804a2.1 2.1 0 0 0 .676-1.528V4.73a2.88 2.88 0 0 0-3.309-2.953Zm0 0"/><path style="stroke:none;fill-rule:nonzero;fill:#fff;fill-opacity:1" d="m10.348 7.465 2.629-2.985a1.79 1.79 0 0 1 1.246-.64h38.683c1.024 0 1.848.828 1.848 1.848v48.996a1.852 1.852 0 0 1-.602 1.351l-4.09 3.77"/><path style="stroke:none;fill-rule:nonzero;fill:url(#a)" d="M49.777 7.43H7.11a.218.218 0 0 0-.175.215v53.332c0 .746.605 1.351 1.351 1.351h41.492c.746 0 1.352-.605 1.352-1.351V8.817a1.354 1.354 0 0 0-1.352-1.387Zm0 0"/><path style="stroke:none;fill-rule:nonzero;fill:#fff;fill-opacity:1" d="M44.445 27.805a1.313 1.313 0 0 0-1.316-1.387H36.55a.565.565 0 0 0-.531.32l-2.739 4.907-4.48-9.067-4.16 12.977-3.555-9.242-4.695 8.675a.647.647 0 0 1-.532.356h-2.136a1.31 1.31 0 0 0-1.313 1.172 1.31 1.31 0 0 0 1.313 1.457h3.558c.242 0 .461-.137.567-.356l2.773-5.226 4.305 10.668 4.37-13.727 3.84 7.79 4.305-7.716a.559.559 0 0 1 .532-.32h5.156c.71 0 1.297-.57 1.316-1.281Zm0 0"/></svg>