<svg xmlns="http://www.w3.org/2000/svg" width="64" height="64"><defs><linearGradient id="a" gradientUnits="userSpaceOnUse" x1="6050.2" y1="-3638.83" x2="6038.28" y2="-3638.83" gradientTransform="scale(3.55556) rotate(90 1202.39 -4832.22)"><stop offset="0" style="stop-color:#198ab3;stop-opacity:1"/><stop offset="0" style="stop-color:#198ab3;stop-opacity:1"/><stop offset=".11" style="stop-color:#22a5cb;stop-opacity:1"/><stop offset=".23" style="stop-color:#29bade;stop-opacity:1"/><stop offset=".37" style="stop-color:#2ec9eb;stop-opacity:1"/><stop offset=".53" style="stop-color:#31d1f3;stop-opacity:1"/><stop offset=".78" style="stop-color:#32d4f5;stop-opacity:1"/></linearGradient></defs><path style="stroke:none;fill-rule:nonzero;fill:#198ab3;fill-opacity:1" d="M53.902 48.035a7.404 7.404 0 0 1 5.918 2.082A7.399 7.399 0 0 1 62.008 56a6.72 6.72 0 0 1-10.88 4.445 2.387 2.387 0 0 1-.925-1.922V48Zm0 0"/><path style="stroke:none;fill-rule:nonzero;fill:url(#a)" d="M62.188 48V16a8.144 8.144 0 0 0-8.145-8.07H1.813v32a8.141 8.141 0 0 0 8.144 8.14h35.27a91.695 91.695 0 0 1 10.668 0c7.109 1.137 5.828 8.782 5.828 8.782.488-2.922.64-5.891.465-8.852Zm0 0"/><path style="stroke:none;fill-rule:nonzero;fill:#198ab3;fill-opacity:1" d="M1.777 40.605v-.25a6.54 6.54 0 0 1 11.52-3.199.824.824 0 0 0 .894.215.812.812 0 0 0 .528-.75V8.816c.039-.34.039-.687 0-1.03a6.579 6.579 0 0 0-12.942 0 3.262 3.262 0 0 0 0 1.03Zm0 0"/><path style="stroke:none;fill-rule:nonzero;fill:#fff;fill-opacity:1" d="M43.875 30.152a.995.995 0 0 0-.996-.996h-3.555c-.215-.5-.39-1.031-.605-1.531-.782-2.023-1.633-4.05-2.453-6.043l-.286-.676a4.911 4.911 0 0 0 3.625-5.375 4.907 4.907 0 1 0-6.113 5.375l-.32.711a312.579 312.579 0 0 0-2.594 6.047l-.64 1.563h-3.555a.995.995 0 0 0-.996.996.945.945 0 0 0 .281.715c.187.187.445.289.715.28h2.844c-.356.852-.676 1.708-.997 2.56A186.752 186.752 0 0 0 25.992 40a.82.82 0 0 0 .406 1.086.823.823 0 0 0 1.086-.41c1.102-1.922 2.133-3.875 3.13-5.797.64-1.207 1.245-2.418 1.847-3.555h4.48l1.707 3.555a292.433 292.433 0 0 0 3.024 5.832.817.817 0 0 0 1.492-.64c-.64-2.098-1.352-4.16-2.062-6.223l-.961-2.594h2.632c.305.05.614-.05.832-.27a.954.954 0 0 0 .27-.832ZM32 16.141a2.88 2.88 0 0 1 2.879-2.88c1.59 0 2.883 1.29 2.883 2.88a2.88 2.88 0 1 1-5.762 0Zm1.527 13.015v-.25l1.176-2.558 1.137 2.523v.285Zm0 0"/></svg>