<svg xmlns="http://www.w3.org/2000/svg" width="64" height="64"><defs><linearGradient id="a" gradientUnits="userSpaceOnUse" x1="5.23" y1="17.45" x2="5.23" y2="8.09" gradientTransform="scale(3.55556)"><stop offset="0" style="stop-color:#1988d9;stop-opacity:1"/><stop offset=".9" style="stop-color:#54aef0;stop-opacity:1"/></linearGradient><linearGradient id="b" gradientUnits="userSpaceOnUse" x1="11.5" y1="12.45" x2="11.5" y2=".55" gradientTransform="scale(3.55556)"><stop offset="0" style="stop-color:#198ab3;stop-opacity:1"/><stop offset=".01" style="stop-color:#198bb4;stop-opacity:1"/><stop offset=".44" style="stop-color:#27b2d7;stop-opacity:1"/><stop offset=".79" style="stop-color:#2fcbed;stop-opacity:1"/><stop offset="1" style="stop-color:#32d4f5;stop-opacity:1"/></linearGradient></defs><path style="stroke:none;fill-rule:nonzero;fill:url(#a)" d="M19.875 46.684h15.36v15.359h-15.36ZM4.09 62.043h13.226v-15.36H1.957V59.91a2.13 2.13 0 0 0 2.133 2.133ZM1.957 44.266h15.36v-15.5H1.956Zm0 0"/><path style="stroke:none;fill-rule:evenodd;fill:url(#b)" d="M40.89 1.957a20.935 20.935 0 0 1 21.152 21.332 20.938 20.938 0 0 1-6.132 15.023 20.929 20.929 0 0 1-15.02 6.133H19.735V23.11a20.929 20.929 0 0 1 6.133-15.02 20.938 20.938 0 0 1 15.024-6.132Zm0 0"/><path style="stroke:none;fill-rule:nonzero;fill:#fff;fill-opacity:1" d="M26.988 20.09h4.832v14.504h-4.832ZM36.656 24.926h4.836v9.668h-4.836ZM46.328 15.254h4.836v19.34h-4.836Zm0 0"/></svg>