<svg xmlns="http://www.w3.org/2000/svg" width="64" height="64"><defs><radialGradient id="a" gradientUnits="userSpaceOnUse" cx="5.72" cy="7.45" fx="5.72" fy="7.45" r="8.42" gradientTransform="translate(11.484 5.369) scale(3.59111)"><stop offset=".18" style="stop-color:#5ea0ef;stop-opacity:1"/><stop offset=".56" style="stop-color:#5c9fee;stop-opacity:1"/><stop offset=".69" style="stop-color:#559ced;stop-opacity:1"/><stop offset=".78" style="stop-color:#4a97e9;stop-opacity:1"/><stop offset=".86" style="stop-color:#3990e4;stop-opacity:1"/><stop offset=".93" style="stop-color:#2387de;stop-opacity:1"/><stop offset=".99" style="stop-color:#087bd6;stop-opacity:1"/><stop offset="1" style="stop-color:#0078d4;stop-opacity:1"/></radialGradient><radialGradient id="b" gradientUnits="userSpaceOnUse" cx="28.18" cy="202.29" fx="28.18" fy="202.29" r="2.7" gradientTransform="matrix(3.37778 0 0 3.37778 -63.182 -657.813)"><stop offset=".19" style="stop-color:#8c8e90;stop-opacity:1"/><stop offset=".35" style="stop-color:#848688;stop-opacity:1"/><stop offset=".6" style="stop-color:#6e7071;stop-opacity:1"/><stop offset=".91" style="stop-color:#4a4b4c;stop-opacity:1"/><stop offset="1" style="stop-color:#3e3f3f;stop-opacity:1"/></radialGradient></defs><path style="stroke:none;fill-rule:nonzero;fill:url(#a)" d="M62.223 32C62.223 15.367 48.69 1.883 32 1.883S1.777 15.367 1.777 32C1.777 48.633 15.31 62.117 32 62.117S62.223 48.633 62.223 32Zm0 0"/><path style="stroke:none;fill-rule:nonzero;fill:#fff;fill-opacity:1" d="M58.313 32C58.313 17.527 46.53 5.797 32 5.797 17.469 5.797 5.687 17.527 5.687 32 5.688 46.473 17.47 58.203 32 58.203c14.531 0 26.313-11.73 26.313-26.203Zm0 0"/><path style="stroke:none;fill-rule:nonzero;fill:#9cebff;fill-opacity:1" d="M9.672 33.563a22.174 22.174 0 0 0 6.469 14.222l7.113-7.11a12.536 12.536 0 0 1-3.555-7.112Zm0 0"/><path style="stroke:none;fill-rule:nonzero;fill:#32bedd;fill-opacity:1" d="M46.684 15.184a22.22 22.22 0 0 0-13.121-5.442v9.922a12.102 12.102 0 0 1 6.082 2.488ZM17.316 15.184l7.11 7.109a12.151 12.151 0 0 1 6.082-2.488V9.742a22.212 22.212 0 0 0-13.192 5.442ZM41.883 24.355a12.783 12.783 0 0 1 2.527 6.082h9.918a21.915 21.915 0 0 0-5.437-13.05Zm0 0"/><path style="stroke:none;fill-rule:nonzero;fill:#50e6ff;fill-opacity:1" d="m22.117 24.355-7.113-7.109a21.882 21.882 0 0 0-5.332 13.192h9.918a12.783 12.783 0 0 1 2.527-6.083Zm0 0"/><path style="stroke:none;fill-rule:nonzero;fill:#f04049;fill-opacity:1" d="M50.277 24.89A1.602 1.602 0 0 0 48.25 24l-14.648 5.902 1.136 2.88 14.649-5.794a1.568 1.568 0 0 0 .89-2.097Zm0 0"/><path style="stroke:none;fill-rule:nonzero;fill:url(#b)" d="M36.266 32a4.266 4.266 0 1 0-8.533 0 4.266 4.266 0 0 0 8.533 0Zm0 0"/></svg>