<svg xmlns="http://www.w3.org/2000/svg" width="64" height="64"><defs><linearGradient id="a" gradientUnits="userSpaceOnUse" x1="9" y1="17.5" x2="9" y2=".5" gradientTransform="scale(3.55556)"><stop offset="0" style="stop-color:#0078d4;stop-opacity:1"/><stop offset=".82" style="stop-color:#5ea0ef;stop-opacity:1"/></linearGradient></defs><path style="stroke:none;fill-rule:nonzero;fill:#fff;fill-opacity:1" d="M35.555 2.238H9.707c-1.121 0-2.027.91-2.027 2.028v55.468c0 1.118.906 2.028 2.027 2.028h44.586c1.121 0 2.027-.91 2.027-2.028V23.04a2.063 2.063 0 0 0-2.027-2.062h-14.79a1.98 1.98 0 0 1-1.444-.582 1.98 1.98 0 0 1-.582-1.446V4.266a2.031 2.031 0 0 0-1.922-2.028Zm0 0"/><path style="stroke:none;fill-rule:nonzero;fill:url(#a)" d="M34.488 4.836v13.937a5.124 5.124 0 0 0 5.121 5.086h14.043v35.305H10.348V4.836h24.14m1.067-3.059H9.387A2.06 2.06 0 0 0 7.324 3.84v56.32a2.06 2.06 0 0 0 2.063 2.063h45.226a2.06 2.06 0 0 0 2.063-2.063V22.898a2.06 2.06 0 0 0-2.063-2.062H39.61a2.06 2.06 0 0 1-2.062-2.063V3.84a2.062 2.062 0 0 0-1.992-2.063Zm0 0"/><path style="stroke:none;fill-rule:nonzero;fill:#0078d4;fill-opacity:1" d="M55.895 21.332 36.835 2.238v15.54a3.553 3.553 0 0 0 3.556 3.554Zm0 0"/><path style="stroke:none;fill-rule:nonzero;fill:#b31b1b;fill-opacity:1" d="M37.012 39.75a7.858 7.858 0 0 1-10.418 0l-.637 12.906a1.03 1.03 0 0 0 1.777.785l3.98-4.09 4.056 3.981a1.03 1.03 0 0 0 1.742-.781Zm0 0"/><path style="stroke:none;fill-rule:nonzero;fill:#e62323;fill-opacity:1" d="M41.207 33.102c0-5.145-4.152-9.317-9.277-9.317-5.125 0-9.282 4.172-9.282 9.317 0 5.144 4.157 9.316 9.282 9.316s9.277-4.172 9.277-9.316Zm0 0"/><path style="stroke:none;fill-rule:nonzero;fill:#ffd400;fill-opacity:1" d="M38.969 33.102c0-3.907-3.153-7.075-7.04-7.075-3.89 0-7.038 3.168-7.038 7.075 0 3.91 3.148 7.078 7.039 7.078 3.886 0 7.039-3.168 7.039-7.078Zm0 0"/></svg>