<svg xmlns="http://www.w3.org/2000/svg" xmlns:xlink="http://www.w3.org/1999/xlink" width="64" height="64"><defs><linearGradient id="f" gradientUnits="userSpaceOnUse" x1="6.7" y1="7.26" x2="6.7" y2="18.36" gradientTransform="scale(3.55556)"><stop offset=".22" style="stop-color:#32d4f5;stop-opacity:1"/><stop offset="1" style="stop-color:#198ab3;stop-opacity:1"/></linearGradient><linearGradient id="i" gradientUnits="userSpaceOnUse" x1="6.42" y1="1.32" x2="7.23" y2="11.39" gradientTransform="scale(3.55556)"><stop offset=".22" style="stop-color:#32d4f5;stop-opacity:1"/><stop offset="1" style="stop-color:#198ab3;stop-opacity:1"/></linearGradient><clipPath id="b"><path d="M0 0h64v64H0z"/></clipPath><clipPath id="c"><path d="M0 0h64v64H0z"/></clipPath><mask id="e"><g filter="url(#a)"><path style="fill:#000;fill-opacity:.8;stroke:none" d="M0 0h64v64H0z"/></g></mask><mask id="h"><g filter="url(#a)"><path style="fill:#000;fill-opacity:.8;stroke:none" d="M0 0h64v64H0z"/></g></mask><g id="d" clip-path="url(#b)"><path style="stroke:none;fill-rule:nonzero;fill:#fff;fill-opacity:1" d="M48.18 32.32a8.668 8.668 0 0 1-4.836-1.422l4.797 12.516 4.73-12.41a9.042 9.042 0 0 1-4.691 1.316Zm0 0"/></g><g id="g" clip-path="url(#c)"><path style="stroke:none;fill-rule:nonzero;fill:#fff;fill-opacity:1" d="M24.07 32.496a13.21 13.21 0 0 1-7.11-2.133l7.11 18.668 7.114-18.523a13.552 13.552 0 0 1-7.114 1.988Zm0 0"/></g><filter id="a" filterUnits="objectBoundingBox" x="0%" y="0%" width="100%" height="100%"><feColorMatrix in="SourceGraphic" values="0 0 0 0 1 0 0 0 0 1 0 0 0 0 1 0 0 0 1 0"/></filter></defs><path style="stroke:none;fill-rule:nonzero;fill:#0078d4;fill-opacity:1" d="M61.227 49.492a2.804 2.804 0 0 0 2.844-2.809.979.979 0 0 0-.071-.46c-1.102-8.891-6.188-16.145-15.86-16.145-9.667 0-14.894 6.258-15.89 16.145a2.879 2.879 0 0 0 2.559 3.129h26.418Zm0 0"/><use xlink:href="#d" mask="url(#e)"/><path style="stroke:none;fill-rule:nonzero;fill:#0078d4;fill-opacity:1" d="M57.102 23.395c0 4.93-3.997 8.925-8.922 8.925a8.926 8.926 0 0 1-8.926-8.925c0-4.93 3.996-8.922 8.926-8.922a8.921 8.921 0 0 1 8.922 8.922Zm0 0"/><path style="stroke:none;fill-rule:nonzero;fill:url(#f)" d="M43.344 58.168a4.231 4.231 0 0 0 4.23-4.23 2.631 2.631 0 0 0 0-.497c-1.672-13.3-9.246-24.109-23.68-24.109-14.437 0-22.331 9.176-23.894 24a4.269 4.269 0 0 0 3.805 4.66H43.27Zm0 0"/><use xlink:href="#g" mask="url(#h)"/><path style="stroke:none;fill-rule:nonzero;fill:url(#i)" d="M37.297 19.164c0 7.363-5.969 13.332-13.332 13.332s-13.332-5.969-13.332-13.332S16.602 5.832 23.965 5.832s13.332 5.969 13.332 13.332Zm0 0"/></svg>