<svg xmlns="http://www.w3.org/2000/svg" width="64" height="64"><defs><radialGradient id="a" gradientUnits="userSpaceOnUse" cx="9" cy="7.35" fx="9" fy="7.35" r="6.42" gradientTransform="scale(3.55556)"><stop offset="0" style="stop-color:#b77af4;stop-opacity:1"/><stop offset=".21" style="stop-color:#b378f2;stop-opacity:1"/><stop offset=".43" style="stop-color:#a672ed;stop-opacity:1"/><stop offset=".65" style="stop-color:#9267e4;stop-opacity:1"/><stop offset=".88" style="stop-color:#7559d8;stop-opacity:1"/><stop offset="1" style="stop-color:#624fd0;stop-opacity:1"/></radialGradient><linearGradient id="b" gradientUnits="userSpaceOnUse" x1="9.02" y1="3.91" x2="9.08" y2="11.49" gradientTransform="scale(3.55556)"><stop offset="0" style="stop-color:#f2f2f2;stop-opacity:1"/><stop offset=".23" style="stop-color:#f1f1f2;stop-opacity:.988235"/><stop offset=".37" style="stop-color:#ededf1;stop-opacity:.94902"/><stop offset=".48" style="stop-color:#e7e5f0;stop-opacity:.890196"/><stop offset=".58" style="stop-color:#dedbee;stop-opacity:.811765"/><stop offset=".67" style="stop-color:#d3ceeb;stop-opacity:.701961"/><stop offset=".76" style="stop-color:#c4bee8;stop-opacity:.568627"/><stop offset=".84" style="stop-color:#b4abe5;stop-opacity:.411765"/><stop offset=".92" style="stop-color:#a095e1;stop-opacity:.219608"/><stop offset=".99" style="stop-color:#8b7ddc;stop-opacity:.0196078"/><stop offset="1" style="stop-color:#897bdc;stop-opacity:0"/></linearGradient></defs><path style="stroke:none;fill-rule:nonzero;fill:#cecece;fill-opacity:1" d="m36.375 61.832 2.879-3.094v-8.25H24.89v8.25l2.879 3.094c.171.203.41.344.675.39h7.11a1.14 1.14 0 0 0 .82-.39Zm0 0"/><path style="stroke:none;fill-rule:nonzero;fill:url(#a)" d="M32 1.777a20.94 20.94 0 0 0-21.012 23.36c.957 8.785 9.313 12.87 11.696 24 .18.781.87 1.34 1.671 1.351h15.29c.8-.011 1.492-.57 1.671-1.351 2.383-11.13 10.664-15.215 11.696-24A20.94 20.94 0 0 0 32 1.777Zm-7.11 48.711"/><path style="stroke:none;fill-rule:nonzero;fill:url(#b)" d="M40.746 13.477a4.977 4.977 0 0 0-4.8 5.117v2.738h-7.5v-2.738a5.027 5.027 0 0 0-1.43-3.614 5.027 5.027 0 0 0-3.586-1.503 4.971 4.971 0 0 0-4.797 5.117 5.008 5.008 0 0 0 4.797 5.156h2.277v21.336a1.279 1.279 0 0 0 2.559 0V23.75h7.68v21.336c0 .707.574 1.277 1.28 1.277.708 0 1.282-.57 1.282-1.277V23.75h2.238a4.975 4.975 0 0 0 4.8-5.156 4.977 4.977 0 0 0-4.8-5.117Zm-15.039 7.855h-2.418a2.63 2.63 0 0 1-2.418-2.738 2.629 2.629 0 0 1 2.418-2.735 2.629 2.629 0 0 1 2.418 2.735Zm15.219 0h-2.418v-2.879a2.418 2.418 0 0 1 3.691-2.336c.79.5 1.219 1.41 1.11 2.336a2.602 2.602 0 0 1-2.383 2.879Zm0 0"/><path style="stroke:none;fill-rule:nonzero;fill:#999;fill-opacity:1" d="m24.746 56.18 14.508-2.813V51.77l-14.508 2.843ZM39.254 57.281v-1.566l-14.508 2.879v.144l1.102 1.207Zm0 0"/></svg>