<svg xmlns="http://www.w3.org/2000/svg" width="64" height="64"><defs><linearGradient id="a" gradientUnits="userSpaceOnUse" x1="11.13" y1="10.95" x2="11.13" y2="1.21" gradientTransform="scale(3.55556)"><stop offset="0" style="stop-color:#0078d4;stop-opacity:1"/><stop offset=".16" style="stop-color:#1380da;stop-opacity:1"/><stop offset=".53" style="stop-color:#3c91e5;stop-opacity:1"/><stop offset=".82" style="stop-color:#559cec;stop-opacity:1"/><stop offset="1" style="stop-color:#5ea0ef;stop-opacity:1"/></linearGradient><linearGradient id="b" gradientUnits="userSpaceOnUse" x1="7.06" y1="16.79" x2="7.06" y2="6.78" gradientTransform="scale(3.55556)"><stop offset="0" style="stop-color:#198ab3;stop-opacity:1"/><stop offset=".13" style="stop-color:#21a0c7;stop-opacity:1"/><stop offset=".31" style="stop-color:#28b7db;stop-opacity:1"/><stop offset=".5" style="stop-color:#2ec7ea;stop-opacity:1"/><stop offset=".72" style="stop-color:#31d1f2;stop-opacity:1"/><stop offset="1" style="stop-color:#32d4f5;stop-opacity:1"/></linearGradient></defs><path style="stroke:none;fill-rule:nonzero;fill:url(#a)" d="M64 28.09a10.986 10.986 0 0 0-9.527-10.668C54.145 9.867 47.809 3.977 40.25 4.195a14.22 14.22 0 0 0-13.582 9.352c-6.438.773-11.34 6.14-11.52 12.621a13.29 13.29 0 0 0 13.758 12.941h24.07c6.067-.054 10.965-4.957 11.024-11.02Zm0 0"/><path style="stroke:none;fill-rule:nonzero;fill:#fff;fill-opacity:1" d="m51.164 18.559-6.508-6.329c-.71-.71-1.312-.46-1.312.641v2.844c0 .215-.09.418-.242.566a.775.775 0 0 1-.579.215c-4.195 0-15.89 1.106-16.32 17.106 0 .449.367.816.82.816h4.16a.82.82 0 0 0 .817-.89 9.811 9.811 0 0 1 10.668-11.84.82.82 0 0 1 .816.82v2.629c0 1.316.426 1.531 1.317.64l6.363-5.867a.82.82 0 0 0 0-1.352Zm0 0"/><path style="stroke:none;fill-rule:nonzero;fill:url(#b)" d="M50.203 48.57a11.274 11.274 0 0 0-9.777-10.847c-.328-7.785-6.86-13.856-14.649-13.618a14.58 14.58 0 0 0-13.937 9.532A13.44 13.44 0 0 0 0 46.578 13.658 13.658 0 0 0 14.223 59.7h24.105c.2.035.406.035.606 0 6.136-.074 11.117-4.992 11.27-11.129Zm0 0"/></svg>