<svg xmlns="http://www.w3.org/2000/svg" width="64" height="64"><defs><linearGradient id="a" gradientUnits="userSpaceOnUse" x1="6.57" y1="7.06" x2="6.57" y2="3.76" gradientTransform="scale(3.55556)"><stop offset="0" style="stop-color:#773adc;stop-opacity:1"/><stop offset="1" style="stop-color:#b77af4;stop-opacity:1"/></linearGradient><linearGradient id="b" gradientUnits="userSpaceOnUse" x1="11.02" y1="11.15" x2="11.02" y2="7.86" gradientTransform="scale(3.55556)"><stop offset="0" style="stop-color:#773adc;stop-opacity:1"/><stop offset="1" style="stop-color:#b77af4;stop-opacity:1"/></linearGradient><linearGradient id="c" gradientUnits="userSpaceOnUse" x1="15.15" y1="3.79" x2="15.15" y2=".5" gradientTransform="scale(3.55556)"><stop offset="0" style="stop-color:#773adc;stop-opacity:1"/><stop offset="1" style="stop-color:#b77af4;stop-opacity:1"/></linearGradient><linearGradient id="d" gradientUnits="userSpaceOnUse" x1="2.85" y1="11.86" x2="2.85" y2="8.57" gradientTransform="scale(3.55556)"><stop offset="0" style="stop-color:#773adc;stop-opacity:1"/><stop offset="1" style="stop-color:#b77af4;stop-opacity:1"/></linearGradient></defs><path style="stroke:none;fill-rule:nonzero;fill:#b796f9;fill-opacity:1" d="M52.375 5.762 38.187 31.004l-15.003-15.29L7.714 35.77l3.63 2.843 12.265-15.82 15.575 15.89L56.39 8.07Zm0 0"/><path style="stroke:none;fill-rule:nonzero;fill:url(#a)" d="M29.191 19.234c0-3.238-2.609-5.867-5.832-5.867-3.218 0-5.832 2.63-5.832 5.867 0 3.243 2.614 5.868 5.832 5.868 3.223 0 5.832-2.625 5.832-5.868Zm0 0"/><path style="stroke:none;fill-rule:nonzero;fill:url(#b)" d="M45.012 33.777c0-3.238-2.61-5.867-5.828-5.867-3.223 0-5.832 2.63-5.832 5.867 0 3.243 2.609 5.868 5.832 5.868 3.218 0 5.828-2.625 5.828-5.868Zm0 0"/><path style="stroke:none;fill-rule:nonzero;fill:url(#c)" d="M59.7 7.645c0-3.239-2.614-5.868-5.833-5.868-3.222 0-5.832 2.63-5.832 5.868 0 3.238 2.61 5.867 5.832 5.867 3.219 0 5.832-2.63 5.832-5.867Zm0 0"/><path style="stroke:none;fill-rule:nonzero;fill:url(#d)" d="M15.965 36.336c0-3.238-2.61-5.863-5.832-5.863-3.219 0-5.832 2.625-5.832 5.863 0 3.242 2.613 5.867 5.832 5.867 3.222 0 5.832-2.625 5.832-5.867Zm0 0"/><path style="stroke:none;fill-rule:nonzero;fill:#0078d4;fill-opacity:1" d="M21.156 35.27h7.18c.55 0 .996.449.996.996v24.96c0 .551-.445.997-.996.997h-7.18a.995.995 0 0 1-.996-.996V36.266c0-.547.445-.996.996-.996Zm0 0"/><path style="stroke:none;fill-rule:nonzero;fill:#005ba1;fill-opacity:1" d="M35.77 44.586h7.18c.55 0 .995.445.995.996v15.645c0 .55-.445.996-.996.996h-7.18a.995.995 0 0 1-.996-.996V45.582c0-.55.446-.996.997-.996ZM50.383 26.238h7.18c.55 0 .996.45.996.996v33.993c0 .55-.446.996-.996.996h-7.18a.995.995 0 0 1-.996-.996V27.234c0-.547.445-.996.996-.996Zm0 0"/><path style="stroke:none;fill-rule:nonzero;fill:#5ea0ef;fill-opacity:1" d="M6.543 44.586h7.18c.55 0 .996.445.996.996v15.645c0 .55-.446.996-.996.996h-7.18a.995.995 0 0 1-.996-.996V45.582c0-.55.445-.996.996-.996Zm0 0"/></svg>