<svg xmlns="http://www.w3.org/2000/svg" width="64" height="64"><defs><linearGradient id="a" gradientUnits="userSpaceOnUse" x1="9" y1="177.9" x2="9" y2="160.1" gradientTransform="matrix(3.55556 0 0 3.55556 0 -568.889)"><stop offset="0" style="stop-color:#0078d4;stop-opacity:1"/><stop offset=".064" style="stop-color:#0a7cd7;stop-opacity:1"/><stop offset=".338" style="stop-color:#2e8ce1;stop-opacity:1"/><stop offset=".594" style="stop-color:#4897e9;stop-opacity:1"/><stop offset=".822" style="stop-color:#589eed;stop-opacity:1"/><stop offset="1" style="stop-color:#5ea0ef;stop-opacity:1"/></linearGradient><linearGradient id="b" gradientUnits="userSpaceOnUse" x1="-26.189" y1="-295.6" x2="-26.189" y2="-311.105" gradientTransform="matrix(4.11022 0 0 3.65867 140.178 1143.502)"><stop offset="0" style="stop-color:#fea11b;stop-opacity:1"/><stop offset=".284" style="stop-color:#fea51a;stop-opacity:1"/><stop offset=".547" style="stop-color:#feb018;stop-opacity:1"/><stop offset=".8" style="stop-color:#ffc314;stop-opacity:1"/><stop offset="1" style="stop-color:#ffd70f;stop-opacity:1"/></linearGradient></defs><path style="stroke:none;fill-rule:nonzero;fill:url(#a)" d="M63.645 35.555v-7.11l-1.067-.355-7.824-2.488-2.133-4.98 4.27-8.532-5.336-4.98-1.067.355-7.11 3.558-4.98-2.132L35.555.355h-7.11l-.71 1.067-2.489 7.824-4.98 1.777L12.09 7.11l-4.98 5.336.355 1.067 3.558 7.11-1.777 4.98-8.89 2.843v7.11l1.066.355 7.824 2.488 2.133 4.98-4.27 8.532 5.336 4.98 1.067-.355 7.11-3.558 4.98 2.132 2.843 8.536h7.11l.355-1.067 2.488-7.824 4.98-2.133 8.177 3.914 4.98-4.98-.355-1.067-3.559-7.11 2.133-4.98ZM32 45.867A13.665 13.665 0 0 1 18.133 32 13.665 13.665 0 0 1 32 18.133 13.665 13.665 0 0 1 45.867 32 13.665 13.665 0 0 1 32 45.867Zm0 0"/><path style="stroke:none;fill-rule:nonzero;fill:url(#b)" d="M30.223 37.332H17.422a.761.761 0 0 1-.711-.71v-.356L32 6.043c0-.356.355-.356.71-.356h14.935a.768.768 0 0 1 .71.711v.356L30.223 30.578h17.422a.765.765 0 0 1 .71.711c0 .195-.16.356-.355.356L18.844 61.867c-.356 0-2.133 1.778-1.422-.71Zm0 0"/></svg>