<svg xmlns="http://www.w3.org/2000/svg" width="64" height="64"><defs><linearGradient id="a" gradientUnits="userSpaceOnUse" x1="9" y1="-7205.66" x2="9" y2="-7219.44" gradientTransform="matrix(3.55556 0 0 -3.55556 0 -25623.289)"><stop offset=".13" style="stop-color:#773adc;stop-opacity:1"/><stop offset=".23" style="stop-color:#8249e2;stop-opacity:1"/><stop offset=".43" style="stop-color:#9664ec;stop-opacity:1"/><stop offset=".6" style="stop-color:#a274f2;stop-opacity:1"/><stop offset=".74" style="stop-color:#a67af4;stop-opacity:1"/></linearGradient></defs><path style="stroke:none;fill-rule:nonzero;fill:#773adc;fill-opacity:1" d="M51.379 31.29H13.086v17.245c0 4.477 8.566 8.14 19.34 8.14 10.773 0 19.344-3.554 19.344-8.14Zm0 0"/><path style="stroke:none;fill-rule:nonzero;fill:url(#a)" d="M29.832 7.68 1.387 22.223a2.523 2.523 0 0 0-.89 3.34c.187.417.5.765.89.996l28.445 12.375a3.321 3.321 0 0 0 2.594 0l30.152-12.446a2.56 2.56 0 0 0 .996-3.34 2.264 2.264 0 0 0-.996-1.07L32.496 7.61a3.052 3.052 0 0 0-2.664.07Zm0 0"/><path style="stroke:none;fill-rule:nonzero;fill:#50e6ff;fill-opacity:1" d="M56.32 36.266a4.5 4.5 0 0 0-.816-1.848 18.445 18.445 0 0 0-8.961-7.93l-12.375-5.156-3.945 2.809 12.445 5.3a17.945 17.945 0 0 1 9.668 9.457c.547 1.95.883 3.954.996 5.973m.57 0 1.493-2.95 1.886 2.415h.356a17.8 17.8 0 0 0-1.352-8.07Zm0 0"/><path style="stroke:none;fill-rule:nonzero;fill:#552f99;fill-opacity:1" d="M36.55 22.969c0-1.336-2.132-2.418-4.765-2.418-2.629 0-4.762 1.082-4.762 2.418s2.133 2.418 4.762 2.418c2.633 0 4.766-1.082 4.766-2.418Zm0 0"/></svg>