<svg xmlns="http://www.w3.org/2000/svg" width="64" height="64"><defs><linearGradient id="a" gradientUnits="userSpaceOnUse" x1="8.15" y1="17.5" x2="8.15" y2="2.09" gradientTransform="scale(3.55556)"><stop offset="0" style="stop-color:#1988d9;stop-opacity:1"/><stop offset=".9" style="stop-color:#54aef0;stop-opacity:1"/></linearGradient></defs><path style="stroke:none;fill-rule:nonzero;fill:#005ba1;fill-opacity:1" d="m6.863 7.504 4.301-5.016a2.107 2.107 0 0 1 1.602-.71h41.277a2.877 2.877 0 0 1 2.25.761c.605.563.941 1.363.914 2.191v51.555c0 .59-.262 1.145-.71 1.528l-4.622 4.23H9.672l-2.879-1.172Zm0 0"/><path style="stroke:none;fill-rule:nonzero;fill:#fff;fill-opacity:1" d="m10.348 7.465 2.629-2.985a1.79 1.79 0 0 1 1.246-.64H52.94a1.85 1.85 0 0 1 1.852 1.848v48.996a1.854 1.854 0 0 1-.605 1.386l-4.126 3.735Zm0 0"/><path style="stroke:none;fill-rule:nonzero;fill:url(#a)" d="M49.777 7.43H7.11a.213.213 0 0 0-.21.215v53.332c.019.753.632 1.351 1.386 1.351h41.492c.746 0 1.352-.605 1.352-1.351V8.817c0-.75-.598-1.368-1.352-1.387Zm0 0"/><path style="stroke:none;fill-rule:nonzero;fill:#fff;fill-opacity:1" d="M17.777 22.043h21.407c.546 0 .996.445.996.996v6.473c0 .55-.45.996-.996.996H17.777a.995.995 0 0 1-.996-.996v-6.473c0-.55.446-.996.996-.996Zm0 0"/></svg>