<svg xmlns="http://www.w3.org/2000/svg" xmlns:xlink="http://www.w3.org/1999/xlink" width="64" height="64"><defs><linearGradient id="c" gradientUnits="userSpaceOnUse" x1="6.49" y1="6.29" x2="6.49" y2="18.38" gradientTransform="scale(3.55556)"><stop offset=".1" style="stop-color:#54aef0;stop-opacity:1"/><stop offset="1" style="stop-color:#1988d9;stop-opacity:1"/></linearGradient><linearGradient id="f" gradientUnits="userSpaceOnUse" x1="7.13" y1="-.19" x2="8.01" y2="10.79" gradientTransform="scale(3.55556)"><stop offset=".1" style="stop-color:#54aef0;stop-opacity:1"/><stop offset="1" style="stop-color:#1988d9;stop-opacity:1"/></linearGradient><linearGradient id="g" gradientUnits="userSpaceOnUse" x1="13.76" y1="18.05" x2="13.76" y2="10.25" gradientTransform="scale(3.55556)"><stop offset="0" style="stop-color:#76bc2d;stop-opacity:1"/><stop offset=".6" style="stop-color:#81ce31;stop-opacity:1"/><stop offset=".82" style="stop-color:#86d633;stop-opacity:1"/></linearGradient><clipPath id="b"><path d="M0 0h64v64H0z"/></clipPath><filter id="a" filterUnits="objectBoundingBox" x="0%" y="0%" width="100%" height="100%"><feColorMatrix in="SourceGraphic" values="0 0 0 0 1 0 0 0 0 1 0 0 0 0 1 0 0 0 1 0"/></filter><mask id="e"><g filter="url(#a)"><path style="fill:#000;fill-opacity:.8;stroke:none" d="M0 0h64v64H0z"/></g></mask><g id="d" clip-path="url(#b)"><path style="stroke:none;fill-rule:nonzero;fill:#fff;fill-opacity:1" d="M26.594 29.652c-2.785 0-5.512-.804-7.856-2.308l7.785 20.3 7.715-20.195a14.227 14.227 0 0 1-7.644 2.203Zm0 0"/></g></defs><path style="stroke:none;fill-rule:nonzero;fill:url(#c)" d="M33.246 36.656c0-1 .809-1.812 1.813-1.812h10.418a23.224 23.224 0 0 0-18.883-8.64c-15.926 0-24.282 9.991-25.883 26.312a4.582 4.582 0 0 0 4.125 5.047H33.28Zm0 0"/><use xlink:href="#d" mask="url(#e)"/><path style="stroke:none;fill-rule:nonzero;fill:url(#f)" d="M41.102 15.11c0 8.011-6.497 14.507-14.508 14.507-8.012 0-14.504-6.496-14.504-14.508C12.09 7.098 18.582.605 26.594.605c8.011 0 14.508 6.493 14.508 14.504Zm0 0"/><path style="stroke:none;fill-rule:nonzero;fill:url(#g)" d="M44.766 55.86h8.32v8.32h-8.32Zm-9.707-11.094h8.32v-8.32h-7.113a1.17 1.17 0 0 0-1.172 1.171ZM36.23 64.18h7.114v-8.32h-8.285v7.109a1.174 1.174 0 0 0 1.172 1.21Zm-1.171-9.707h8.32v-8.25h-8.32Zm19.379 9.707h7.109c.308 0 .601-.125.816-.348a1.13 1.13 0 0 0 .32-.828v-7.11h-8.245Zm-9.672-9.707h8.32v-8.25h-8.32Zm9.672 0h8.316v-8.25h-8.316Zm0-18.028v8.32h8.316v-7.113a1.137 1.137 0 0 0-1.137-1.172Zm-9.672 8.32h8.32v-8.32h-8.32Zm0 0"/></svg>