<svg xmlns="http://www.w3.org/2000/svg" width="64" height="64"><defs><linearGradient id="a" gradientUnits="userSpaceOnUse" x1="-6941.93" y1="-2082.96" x2="-6941.93" y2="-2101.68" gradientTransform="matrix(1.77778 0 0 -1.77778 12360.533 -3674.489)"><stop offset="0" style="stop-color:#5ea0ef;stop-opacity:1"/><stop offset=".18" style="stop-color:#589eed;stop-opacity:1"/><stop offset=".41" style="stop-color:#4897e9;stop-opacity:1"/><stop offset=".66" style="stop-color:#2e8ce1;stop-opacity:1"/><stop offset=".94" style="stop-color:#0a7cd7;stop-opacity:1"/><stop offset="1" style="stop-color:#0078d4;stop-opacity:1"/></linearGradient><linearGradient id="b" gradientUnits="userSpaceOnUse" x1="11.5" y1="12.45" x2="11.5" y2=".55" gradientTransform="scale(3.55556)"><stop offset="0" style="stop-color:#198ab3;stop-opacity:1"/><stop offset=".24" style="stop-color:#22a5cb;stop-opacity:1"/><stop offset=".53" style="stop-color:#2bbfe2;stop-opacity:1"/><stop offset=".79" style="stop-color:#30cff0;stop-opacity:1"/><stop offset="1" style="stop-color:#32d4f5;stop-opacity:1"/></linearGradient></defs><path style="stroke:none;fill-rule:nonzero;fill:url(#a)" d="M19.875 46.684h15.36v13.761c0 .98-.794 1.778-1.778 1.778H19.875ZM4.09 62.043h13.226v-15.36H1.957V59.91a2.13 2.13 0 0 0 2.133 2.133ZM1.957 44.266h15.36v-15.5H3.733c-.984 0-1.777.793-1.777 1.777Zm0 0"/><path style="stroke:none;fill-rule:evenodd;fill:url(#b)" d="M40.89 1.957a20.935 20.935 0 0 1 21.152 21.332 20.938 20.938 0 0 1-6.132 15.023 20.929 20.929 0 0 1-15.02 6.133H19.735V23.11a20.929 20.929 0 0 1 6.133-15.02 20.938 20.938 0 0 1 15.024-6.132Zm0 0"/><path style="stroke:none;fill-rule:nonzero;fill:#fff;fill-opacity:1" d="M53.902 11.52a3.555 3.555 0 0 0-3.554 3.554c.004.805.28 1.582.78 2.207l-5.937 10.63h-.46a3.552 3.552 0 0 0-1.887.57l-4.586-4.696c.187-.437.285-.91.285-1.387a3.646 3.646 0 0 0-3.645-3.644 3.646 3.646 0 0 0-3.644 3.644c.008.602.168 1.188.46 1.707l-4.16 5.477a4.717 4.717 0 0 0-.995 0 3.555 3.555 0 0 0 0 7.11 3.556 3.556 0 0 0 3.558-3.555 3.596 3.596 0 0 0-.465-1.672l4.375-5.508c.293.035.594.035.887 0 .441-.02.875-.117 1.281-.285l5.012 5.262c-.016.21-.016.425 0 .64a3.558 3.558 0 0 0 7.113 0 3.903 3.903 0 0 0-.71-2.133l5.937-10.668h.355a3.555 3.555 0 0 0 3.555-3.554 3.556 3.556 0 0 0-.988-2.61 3.57 3.57 0 0 0-2.567-1.09Zm0 0"/></svg>