<svg xmlns="http://www.w3.org/2000/svg" width="64" height="64"><defs><linearGradient id="a" gradientUnits="userSpaceOnUse" x1="5.77" y1="7.08" x2="5.88" y2="17.58" gradientTransform="scale(3.55556)"><stop offset="0" style="stop-color:#32d4f5;stop-opacity:1"/><stop offset=".32" style="stop-color:#31d1f3;stop-opacity:1"/><stop offset=".53" style="stop-color:#2ec9eb;stop-opacity:1"/><stop offset=".7" style="stop-color:#29bade;stop-opacity:1"/><stop offset=".86" style="stop-color:#22a5cb;stop-opacity:1"/><stop offset="1" style="stop-color:#198ab3;stop-opacity:1"/><stop offset="1" style="stop-color:#198ab3;stop-opacity:1"/></linearGradient></defs><path style="stroke:none;fill-rule:nonzero;fill:#f2f2f2;fill-opacity:1" d="M53.617 41.422c-9.699 7.531-23.668 5.773-31.199-3.93-7.531-9.699-5.773-23.668 3.93-31.199l.246-.176c9.75-7.465 23.703-5.61 31.168 4.14 7.46 9.75 5.605 23.704-4.145 31.165"/><path style="stroke:none;fill-rule:nonzero;fill:#0078d4;fill-opacity:1" d="M57.742 10.453C50.344.653 36.406-1.305 26.594 6.078l-.246.18a22.26 22.26 0 0 0-7.575 24.922 22.264 22.264 0 0 0 21.262 15.043 21.914 21.914 0 0 0 13.582-4.66c9.66-7.493 11.5-21.36 4.125-31.11ZM20.656 22.438a19.689 19.689 0 0 1 2.172-7.575h5.367a38.67 38.67 0 0 0-1.03 7.575Zm10.668-7.575h7.395v7.575h-8.676c.09-2.563.473-5.102 1.14-7.575Zm10.238 0h7.399a33.532 33.532 0 0 1 1.137 7.575h-8.535ZM38.72 25.281v7.535h-7.535a32.77 32.77 0 0 1-1.141-7.535Zm2.843 0h8.536a32.979 32.979 0 0 1-1.137 7.535h-7.54Zm11.415 0h6.472a19.924 19.924 0 0 1-2.133 7.535H51.77c.625-2.464.98-4.992 1.066-7.535Zm0-2.843a35.87 35.87 0 0 0-1.067-7.575h5.406a19.302 19.302 0 0 1 2.133 7.575Zm2.527-10.418h-4.59a20.845 20.845 0 0 0-3.129-5.903 19.18 19.18 0 0 1 7.574 5.903Zm-7.54 0h-6.401V4.906a11.614 11.614 0 0 1 6.257 7.114ZM38.72 4.906v7.114h-6.54a11.608 11.608 0 0 1 6.4-7.254Zm-10.594 3.63c1.207-.927 2.52-1.7 3.91-2.313a21.774 21.774 0 0 0-3.129 5.937h-4.265a17.823 17.823 0 0 1 3.484-3.625ZM20.656 25.28h6.508a38.28 38.28 0 0 0 1.031 7.535h-5.367a18.55 18.55 0 0 1-2.172-7.535Zm4.02 10.453h4.41a21.469 21.469 0 0 0 3.129 5.903 19.017 19.017 0 0 1-7.54-5.903Zm7.504 0h6.398v7.11a11.615 11.615 0 0 1-6.398-7.29Zm9.242 7.11v-7.29h6.398a11.617 11.617 0 0 1-6.398 7.395Zm10.453-3.735a17.635 17.635 0 0 1-4.125 2.418 20.594 20.594 0 0 0 3.164-5.972h4.445a20.144 20.144 0 0 1-3.484 3.554Zm0 0"/><path style="stroke:none;fill-rule:nonzero;fill:url(#a)" d="M38.578 62.223H3.164c-1.102 0-1.777-1.813-1.137-2.739l12.196-17.777a1.39 1.39 0 0 0 .25-.816V29.156c0-.394-.32-.71-.711-.71h-.64a1.387 1.387 0 0 1-1.388-1.387v-.641c-.043-.39.086-.781.352-1.074.266-.293.64-.457 1.035-.453h15.535a1.417 1.417 0 0 1 1.387 1.422v.636c.02.387-.117.762-.375 1.043a1.435 1.435 0 0 1-1.012.453h-.676a.668.668 0 0 0-.488.211.655.655 0 0 0-.183.5v11.77c-.012.281.074.558.246.781L39.75 59.484c.64.961-.035 2.739-1.172 2.739Zm0 0"/><path style="stroke:none;fill-rule:nonzero;fill:#fff;fill-opacity:1" d="m7.965 57.527 8.781-12.797a3.11 3.11 0 0 0 .57-1.851v-5.156c.02-.555.473-.993 1.032-.993h4.976a1.03 1.03 0 0 1 1.031.993v5.511c-.011.442.11.88.356 1.246l8.996 13.047a.78.78 0 0 1 .035.793.781.781 0 0 1-.676.418H8.606a.781.781 0 0 1-.676-.418.78.78 0 0 1 .035-.793Zm0 0"/></svg>