<svg xmlns="http://www.w3.org/2000/svg" xmlns:xlink="http://www.w3.org/1999/xlink" width="64" height="64"><defs><clipPath id="b"><path d="M0 0h64v64H0z"/></clipPath><clipPath id="c"><path d="M0 0h64v64H0z"/></clipPath><clipPath id="d"><path d="M0 0h64v64H0z"/></clipPath><clipPath id="e"><path d="M0 0h64v64H0z"/></clipPath><mask id="g"><g filter="url(#a)"><path style="fill:#000;fill-opacity:.501961;stroke:none" d="M0 0h64v64H0z"/></g></mask><mask id="i"><g filter="url(#a)"><path style="fill:#000;fill-opacity:.501961;stroke:none" d="M0 0h64v64H0z"/></g></mask><mask id="k"><g filter="url(#a)"><path style="fill:#000;fill-opacity:.501961;stroke:none" d="M0 0h64v64H0z"/></g></mask><mask id="m"><g filter="url(#a)"><path style="fill:#000;fill-opacity:.501961;stroke:none" d="M0 0h64v64H0z"/></g></mask><g id="f" clip-path="url(#b)"><path style="stroke:none;fill-rule:nonzero;fill:#999;fill-opacity:1" d="M3.805 5.367H8.39v12.801c0 .57-.461 1.031-1.032 1.031H2.81a1.03 1.03 0 0 1-1.032-1.031V7.504a2.034 2.034 0 0 1 2.028-2.137Zm0 0"/></g><g id="h" clip-path="url(#c)"><path style="stroke:none;fill-rule:nonzero;fill:#999;fill-opacity:1" d="M55.61 5.367h4.585c1.121 0 2.028.91 2.028 2.028v10.668c0 .57-.461 1.03-1.032 1.03h-4.586a1.03 1.03 0 0 1-1.03-1.03V5.367Zm0 0"/></g><g id="j" clip-path="url(#d)"><path style="stroke:none;fill-rule:nonzero;fill:#999;fill-opacity:1" d="M2.809 45.367h4.586c.57 0 1.03.465 1.03 1.031V59.2h-4.62a2.026 2.026 0 0 1-2.028-2.027v-10.95a1.03 1.03 0 0 1 1.032-.855Zm0 0"/></g><g id="l" clip-path="url(#e)"><path style="stroke:none;fill-rule:nonzero;fill:#999;fill-opacity:1" d="M56.605 45.367h4.586c.57 0 1.032.465 1.032 1.031v10.668a2.026 2.026 0 0 1-2.028 2.028H55.61V46.223c.086-.489.5-.844.996-.856Zm0 0"/></g><filter id="a" filterUnits="objectBoundingBox" x="0%" y="0%" width="100%" height="100%"><feColorMatrix in="SourceGraphic" values="0 0 0 0 1 0 0 0 0 1 0 0 0 0 1 0 0 0 1 0"/></filter></defs><path style="stroke:none;fill-rule:nonzero;fill:#76bc2d;fill-opacity:1" d="M38.508 29.938a.93.93 0 0 1-.856.96h-7.43a.925.925 0 0 1-.96-.855v-5.547a.921.921 0 0 1 .855-.957h7.43a.924.924 0 0 1 .96.852ZM51.7 35.555c.019.5-.36.922-.856.96h-7.43a.924.924 0 0 1-.96-.85v-5.513a.925.925 0 0 1 .855-.96h7.43a.927.927 0 0 1 .96.851ZM38.508 41.246a.924.924 0 0 1-.856.957h-7.43a.921.921 0 0 1-.96-.851v-5.547a.927.927 0 0 1 .855-.961h7.43a.93.93 0 0 1 .96.855Zm0 0"/><path style="stroke:none;fill-rule:nonzero;fill:#86d633;fill-opacity:1" d="M25.316 24.32a.892.892 0 0 1-.82.926h-7.644a.924.924 0 0 1-.957-.82v-5.758a.922.922 0 0 1 .851-.89h7.434c.78 0 1.136.39 1.136.96Zm0 0"/><path style="stroke:none;fill-rule:nonzero;fill:#76bc2d;fill-opacity:1" d="M25.316 35.555a.89.89 0 0 1-.82.96h-7.644a.91.91 0 0 1-.688-.269.918.918 0 0 1-.27-.691v-5.617a.925.925 0 0 1 .852-.926h7.434c.78 0 1.136.394 1.136.925ZM25.316 46.898a.894.894 0 0 1-.82.96l-7.644.001a.924.924 0 0 1-.957-.855v-5.758a.89.89 0 0 1 .852-.926h7.433c.78 0 1.136.356 1.136.926Zm0 0"/><path style="stroke:none;fill-rule:nonzero;fill:#999;fill-opacity:1" d="M3.805 5.367H8.39v12.801c0 .57-.461 1.031-1.032 1.031H2.81a1.03 1.03 0 0 1-1.032-1.031V7.504a2.034 2.034 0 0 1 2.028-2.137Zm0 0"/><use xlink:href="#f" mask="url(#g)"/><path style="stroke:none;fill-rule:nonzero;fill:#999;fill-opacity:1" d="M55.61 5.367h4.585c1.121 0 2.028.91 2.028 2.028v10.668c0 .57-.461 1.03-1.032 1.03h-4.586a1.03 1.03 0 0 1-1.03-1.03V5.367Zm0 0"/><use xlink:href="#h" mask="url(#i)"/><path style="stroke:none;fill-rule:nonzero;fill:#949494;fill-opacity:1" d="M62.223 7.395v4.445H1.777V7.395c0-1.118.907-2.028 2.028-2.028H60.23a2.028 2.028 0 0 1 1.993 2.028Zm0 0"/><path style="stroke:none;fill-rule:nonzero;fill:#999;fill-opacity:1" d="M2.809 45.367h4.586c.57 0 1.03.465 1.03 1.031V59.2h-4.62a2.026 2.026 0 0 1-2.028-2.027v-10.95a1.03 1.03 0 0 1 1.032-.855Zm0 0"/><use xlink:href="#j" mask="url(#k)"/><path style="stroke:none;fill-rule:nonzero;fill:#999;fill-opacity:1" d="M56.605 45.367h4.586c.57 0 1.032.465 1.032 1.031v10.668a2.026 2.026 0 0 1-2.028 2.028H55.61V46.223c.086-.489.5-.844.996-.856Zm0 0"/><use xlink:href="#l" mask="url(#m)"/><path style="stroke:none;fill-rule:nonzero;fill:#949494;fill-opacity:1" d="M1.777 57.172V52.73h60.446v4.442a2.026 2.026 0 0 1-2.028 2.027H3.805a2.026 2.026 0 0 1-2.028-2.027Zm0 0"/></svg>