<svg xmlns="http://www.w3.org/2000/svg" width="64" height="64"><defs><linearGradient id="a" gradientUnits="userSpaceOnUse" x1="7.37" y1=".5" x2="7.37" y2="13.23" gradientTransform="scale(3.55556)"><stop offset="0" style="stop-color:#b3b2b3;stop-opacity:1"/><stop offset=".38" style="stop-color:#afaeaf;stop-opacity:1"/><stop offset=".76" style="stop-color:#a2a2a2;stop-opacity:1"/><stop offset="1" style="stop-color:#979797;stop-opacity:1"/></linearGradient><linearGradient id="b" gradientUnits="userSpaceOnUse" x1="8.96" y1="13.29" x2="17.32" y2="13.29" gradientTransform="scale(3.55556)"><stop offset="0" style="stop-color:#005ba1;stop-opacity:1"/><stop offset=".07" style="stop-color:#0060a9;stop-opacity:1"/><stop offset=".36" style="stop-color:#0071c8;stop-opacity:1"/><stop offset=".52" style="stop-color:#0078d4;stop-opacity:1"/><stop offset=".64" style="stop-color:#0074cd;stop-opacity:1"/><stop offset=".82" style="stop-color:#006abb;stop-opacity:1"/><stop offset="1" style="stop-color:#005ba1;stop-opacity:1"/></linearGradient></defs><path style="stroke:none;fill-rule:nonzero;fill:url(#a)" d="M26.203 1.777 2.418 15.574v3.414h4.375v25.883h4.3V18.988h30.223V47.04h4.301V18.99h4.375v-3.415Zm0 0"/><path style="stroke:none;fill-rule:nonzero;fill:#50e6ff;fill-opacity:1" d="M15.395 44.871h8.64v-8.605h-8.64Zm12.94 0h8.642v-8.605h-8.532ZM15.396 32h8.64v-8.71h-8.64Zm13.05-8.71V32h8.532v-8.71Zm0 0"/><path style="stroke:none;fill-rule:nonzero;fill:url(#b)" d="M46.719 37.012C38.508 37.012 32 34.879 32 32.285v25.207c0 2.598 6.543 4.696 14.648 4.73h.215c8.211 0 14.86-2.132 14.86-4.73V32.285c-.141 2.594-6.79 4.727-15.004 4.727Zm0 0"/><path style="stroke:none;fill-rule:nonzero;fill:#e8e8e8;fill-opacity:1" d="M61.582 32.285c0 2.594-6.648 4.727-14.863 4.727-8.211 0-14.719-2.133-14.719-4.727 0-2.597 6.648-4.73 14.863-4.73 8.211 0 14.86 2.097 14.86 4.73"/><path style="stroke:none;fill-rule:nonzero;fill:#50e6ff;fill-opacity:1" d="M58.133 32c0 1.672-5.121 3.023-11.414 3.023-6.293 0-11.375-1.46-11.375-3.023 0-1.563 5.082-3.023 11.375-3.023S58.133 30.328 58.133 32"/><path style="stroke:none;fill-rule:nonzero;fill:#32bedd;fill-opacity:1" d="M46.719 32.605a30.54 30.54 0 0 0-9.032 1.137 30.172 30.172 0 0 0 9.032 1.172c3.054.07 6.097-.328 9.031-1.172a30.523 30.523 0 0 0-9.031-1.137Zm0 0"/></svg>