<svg xmlns="http://www.w3.org/2000/svg" width="64" height="64"><defs><linearGradient id="a" gradientUnits="userSpaceOnUse" x1="11.08" y1="31.2" x2="11.08" y2="15.71" gradientTransform="matrix(3.55556 0 0 3.52 0 -50.916)"><stop offset="0" style="stop-color:#949494;stop-opacity:1"/><stop offset=".33" style="stop-color:#9b9b9b;stop-opacity:1"/><stop offset=".82" style="stop-color:#aeafb0;stop-opacity:1"/><stop offset="1" style="stop-color:#b6b8b9;stop-opacity:1"/></linearGradient></defs><path style="stroke:none;fill-rule:nonzero;fill:url(#a)" d="M64 34.453V28.09l-.355-.32-6.543-2.207-1.672-4.231 3.238-6.684.355-.746-2.132-2.168-2.493-2.453-.851.426-6.399 3.234-4.304-1.207-2.774-7.113h-6.363l-.32.32-2.203 6.508-4.48 1.672-7.395-3.559-4.555 4.446.43.855 3.41 6.469a21.337 21.337 0 0 1 11.379-3.055 22.25 22.25 0 0 1 12.695 4.051c.445.281.875.59 1.277.926a11.53 11.53 0 0 1 3.309 4.8c.496 1.255.75 2.594.746 3.946 0 3.059-1.219 5.988-3.39 8.145a11.472 11.472 0 0 1-8.165 3.34 11.63 11.63 0 0 1-6.648-2.098 22.457 22.457 0 0 1-14.223 6.222l-.676 1.387 4.551 4.586.926-.25 6.398-3.555 4.41 1.813 2.81 7.68h6.398l.25-.887 2.273-6.793 4.34-1.813 7.5 3.555 4.516-4.48-.426-.852-3.305-6.363 1.352-4.446Zm0 0"/><path style="stroke:none;fill-rule:nonzero;fill:#50e6ff;fill-opacity:1" d="M14.223 37.867a12.81 12.81 0 0 1-9.102-3.734 1.637 1.637 0 0 1 .64-3.02A1.63 1.63 0 0 1 7.43 32a9.432 9.432 0 0 0 6.793 2.594A9.308 9.308 0 0 0 20.906 32a12.608 12.608 0 0 1 9.067-3.555A12.948 12.948 0 0 1 39.109 32c.442.406.625 1.023.48 1.605a1.644 1.644 0 0 1-1.183 1.184 1.643 1.643 0 0 1-1.605-.477 9.568 9.568 0 0 0-6.723-2.773 9.266 9.266 0 0 0-6.683 2.773 12.843 12.843 0 0 1-9.172 3.555Zm0 0"/><path style="stroke:none;fill-rule:nonzero;fill:#50e6ff;fill-opacity:1" d="M14.223 31.36c-1.68 0-3.29-.665-4.48-1.848a1.637 1.637 0 0 1 2.312-2.313c.57.582 1.355.903 2.168.89a3.842 3.842 0 0 0 2.132-.89c7.56-7.46 19.711-7.46 27.27 0a1.636 1.636 0 0 1-.043 2.266 1.637 1.637 0 0 1-2.266.047c-6.308-6.262-16.484-6.262-22.793 0a6.884 6.884 0 0 1-4.3 1.847Zm0 0"/><path style="stroke:none;fill-rule:nonzero;fill:#32bedd;fill-opacity:1" d="M14.223 44.375A19.24 19.24 0 0 1 .46 38.719a1.673 1.673 0 0 1 0-2.274c.652-.64 1.7-.64 2.348 0a15.893 15.893 0 0 0 11.414 4.692 16.003 16.003 0 0 0 11.379-4.727 6.874 6.874 0 0 1 4.3-1.742 6.506 6.506 0 0 1 4.446 1.848 1.639 1.639 0 0 1 0 2.312c-.653.64-1.696.64-2.348 0a2.948 2.948 0 0 0-2.098-.89 3.566 3.566 0 0 0-2.132.925 19.253 19.253 0 0 1-13.547 5.512Zm0 0"/></svg>