<svg xmlns="http://www.w3.org/2000/svg" width="64" height="64"><defs><linearGradient id="a" gradientUnits="userSpaceOnUse" x1="9" y1="13.51" x2="9" y2=".76" gradientTransform="scale(3.55556)"><stop offset="0" style="stop-color:#f78d1e;stop-opacity:1"/><stop offset=".44" style="stop-color:#f8911e;stop-opacity:1"/><stop offset=".85" style="stop-color:#f99c1d;stop-opacity:1"/><stop offset="1" style="stop-color:#faa21d;stop-opacity:1"/></linearGradient></defs><path style="stroke:none;fill-rule:nonzero;fill:url(#a)" d="M2.133 2.703h59.734c1.176 0 2.133.953 2.133 2.133v41.066c0 1.18-.957 2.133-2.133 2.133H2.133A2.133 2.133 0 0 1 0 45.902V4.836c0-1.18.957-2.133 2.133-2.133Zm0 0"/><path style="stroke:none;fill-rule:nonzero;fill:#fff;fill-opacity:1" d="M4.8 6.684h54.4c.59 0 1.066.476 1.066 1.066v35.2c0 .59-.477 1.07-1.067 1.07H4.801c-.59 0-1.067-.48-1.067-1.07V7.75c0-.59.477-1.066 1.067-1.066Zm0 0"/><path style="stroke:none;fill-rule:nonzero;fill:#d15900;fill-opacity:1" d="M53.121 33.207c0 .559-.441 1.016-.996 1.031H29.012c-.567 0-1.032-.46-1.032-1.031 0-.566.465-1.027 1.032-1.027h23.113c.27-.004.527.11.715.3.187.196.289.458.281.727M53.121 26.809c0 .554-.441 1.011-.996 1.03H29.012c-.567 0-1.032-.46-1.032-1.03 0-.57.465-1.032 1.032-1.032h23.113c.27 0 .527.11.715.305.187.195.289.457.281.727M53.121 17.527a1.01 1.01 0 0 1-.281.73c-.188.192-.445.302-.715.302H13.406a1.03 1.03 0 1 1 0-2.063h38.719c.27 0 .527.11.715.305.187.195.289.457.281.726"/><path style="stroke:none;fill-rule:nonzero;fill:#b31b1b;fill-opacity:1" d="M18.238 45.121a8.96 8.96 0 0 1-11.98 0L5.512 60.02c-.04.496.242.96.699 1.16.453.199.988.09 1.328-.274l4.621-4.691 4.656 4.726c.336.36.86.47 1.313.278.45-.192.734-.64.715-1.13Zm0 0"/><path style="stroke:none;fill-rule:nonzero;fill:#e62323;fill-opacity:1" d="M23.074 37.477c0-5.93-4.789-10.739-10.699-10.739-5.914 0-10.703 4.809-10.703 10.739 0 5.93 4.789 10.738 10.703 10.738 5.91 0 10.7-4.809 10.7-10.738Zm0 0"/><path style="stroke:none;fill-rule:nonzero;fill:#ffb34d;fill-opacity:1" d="M20.516 37.477c0-4.497-3.645-8.145-8.141-8.145a8.145 8.145 0 0 0-8.145 8.145 8.141 8.141 0 0 0 8.145 8.14 8.14 8.14 0 0 0 8.14-8.14Zm0 0"/></svg>