<svg xmlns="http://www.w3.org/2000/svg" width="64" height="64"><defs><linearGradient id="a" gradientUnits="userSpaceOnUse" x1="5.57" y1="17.5" x2="5.57" y2=".5" gradientTransform="scale(3.55556)"><stop offset=".05" style="stop-color:#949494;stop-opacity:1"/><stop offset=".36" style="stop-color:#979797;stop-opacity:1"/><stop offset=".54" style="stop-color:#9f9f9f;stop-opacity:1"/><stop offset=".69" style="stop-color:#adadad;stop-opacity:1"/><stop offset=".73" style="stop-color:#b3b3b3;stop-opacity:1"/></linearGradient><linearGradient id="b" gradientUnits="userSpaceOnUse" x1="10.56" y1="6.02" x2="10.56" y2="19.71" gradientTransform="scale(3.55556)"><stop offset=".18" style="stop-color:#5ea0ef;stop-opacity:1"/><stop offset="1" style="stop-color:#0078d4;stop-opacity:1"/></linearGradient></defs><path style="stroke:none;fill-rule:nonzero;fill:url(#a)" d="M37.547 60.195c.008.54-.2 1.063-.582 1.446-.383.382-.906.59-1.445.582H4.055a1.989 1.989 0 0 1-1.422-.598 1.972 1.972 0 0 1-.57-1.43V3.805a1.972 1.972 0 0 1 .57-1.43 1.989 1.989 0 0 1 1.422-.598h31.5a1.987 1.987 0 0 1 2.027 2.027Zm0 0"/><path style="stroke:none;fill-rule:nonzero;fill:#003067;fill-opacity:1" d="M7.11 22.969c0-1.051.43-2.055 1.187-2.782a3.86 3.86 0 0 1 2.832-1.058h17.777a3.844 3.844 0 0 1 3.735 3.84 3.842 3.842 0 0 1-3.84 3.875H11.023a3.873 3.873 0 0 1-3.914-3.875ZM7.11 11.52a3.875 3.875 0 0 1 4.02-3.875h17.776a3.84 3.84 0 0 1 3.735 3.875 3.84 3.84 0 0 1-3.84 3.84H11.023a3.833 3.833 0 0 1-2.761-1.098 3.836 3.836 0 0 1-1.153-2.742Zm0 0"/><path style="stroke:none;fill-rule:nonzero;fill:#50e6ff;fill-opacity:1" d="M13.867 11.52a2.596 2.596 0 1 1-5.191.004 2.596 2.596 0 0 1 5.191-.004ZM13.867 22.969a2.596 2.596 0 0 1-5.191 0 2.596 2.596 0 0 1 5.191 0Zm0 0"/><path style="stroke:none;fill-rule:nonzero;fill:url(#b)" d="M61.938 51.129a11.096 11.096 0 0 0-9.493-10.668c-.254-7.633-6.586-13.648-14.222-13.512a14.229 14.229 0 0 0-13.618 9.461 13.153 13.153 0 0 0-11.449 12.762c.192 7.39 6.332 13.23 13.723 13.05h24.07c6.063-.117 10.934-5.03 10.989-11.093Zm0 0"/></svg>