<svg xmlns="http://www.w3.org/2000/svg" width="64" height="64"><defs><linearGradient id="a" gradientUnits="userSpaceOnUse" x1="10.79" y1="2.17" x2="10.79" y2="16.56" gradientTransform="scale(3.55556)"><stop offset=".18" style="stop-color:#5ea0ef;stop-opacity:1"/><stop offset="1" style="stop-color:#0078d4;stop-opacity:1"/></linearGradient></defs><path style="stroke:none;fill-rule:nonzero;fill:#b3b3b3;fill-opacity:1" d="M5.902 29.121v-.5c0-1.02.828-1.848 1.848-1.848h15.004a1.85 1.85 0 0 1 1.851 1.848v.5a1.85 1.85 0 0 1-1.851 1.848H7.75a1.849 1.849 0 0 1-1.848-1.848Zm0 0"/><path style="stroke:none;fill-rule:nonzero;fill:#a3a3a3;fill-opacity:1" d="M0 37.617v-.496a1.85 1.85 0 0 1 1.848-1.851h15.004a1.85 1.85 0 0 1 1.851 1.851v.496a1.847 1.847 0 0 1-1.851 1.848H1.848A1.846 1.846 0 0 1 0 37.617Zm0 0"/><path style="stroke:none;fill-rule:nonzero;fill:#7a7a7a;fill-opacity:1" d="M5.902 46.117v-.5c0-1.02.828-1.847 1.848-1.847h15.004a1.85 1.85 0 0 1 1.851 1.847v.5a1.85 1.85 0 0 1-1.851 1.848H7.75a1.849 1.849 0 0 1-1.848-1.848Zm0 0"/><path style="stroke:none;fill-rule:nonzero;fill:url(#a)" d="M64 39.11a11.665 11.665 0 0 0-9.992-11.305c-.25-8.04-6.926-14.383-14.969-14.223a15.046 15.046 0 0 0-14.223 9.957 13.828 13.828 0 0 0-12.015 13.512c.27 7.742 6.687 13.844 14.433 13.722h25.282c6.34-.171 11.41-5.32 11.484-11.664Zm0 0"/></svg>