<svg xmlns="http://www.w3.org/2000/svg" width="64" height="64"><defs><linearGradient id="a" gradientUnits="userSpaceOnUse" x1="9" y1="15.83" x2="9" y2="5.79" gradientTransform="scale(3.55556)"><stop offset="0" style="stop-color:#32bedd;stop-opacity:1"/><stop offset=".18" style="stop-color:#32caea;stop-opacity:1"/><stop offset=".41" style="stop-color:#32d2f2;stop-opacity:1"/><stop offset=".78" style="stop-color:#32d4f5;stop-opacity:1"/></linearGradient></defs><path style="stroke:none;fill-rule:nonzero;fill:url(#a)" d="M1.777 20.586h60.446v33.707a2.026 2.026 0 0 1-2.028 2.027H3.805a2.026 2.026 0 0 1-2.028-2.027Zm0 0"/><path style="stroke:none;fill-rule:nonzero;fill:#005ba1;fill-opacity:1" d="M3.805 7.715h56.39c1.121 0 2.028.906 2.028 2.027v10.844H1.777V9.707a2.028 2.028 0 0 1 2.028-1.992Zm0 0"/><path style="stroke:none;fill-rule:nonzero;fill:#f2f2f2;fill-opacity:1" d="M10.914 11.555h42.207c.547 0 .996.445.996.996v3.199c0 .55-.449.996-.996.996H10.914a.994.994 0 0 1-.992-.996v-3.2c0-.55.445-.995.992-.995Zm0 0"/><path style="stroke:none;fill-rule:nonzero;fill:#fff;fill-opacity:1" d="m23.75 32-3.2 10.668h-2.558l-1.957-7.113c-.039-.317-.039-.64 0-.961.04.308.04.62 0 .926l-2.523 7.148h-2.524L7.82 32h2.528l1.953 7.785c.031.309.031.617 0 .926a5.234 5.234 0 0 1 0-.926L14.863 32h2.309l1.957 7.82c.023.309.023.617 0 .926a5.234 5.234 0 0 1 0-.926L21.332 32ZM40.105 32l-3.199 10.668h-2.558l-1.957-7.113c-.04-.317-.04-.64 0-.961a6.43 6.43 0 0 1-.391.96l-2.133 7.114H27.38L24.179 32h2.524l1.988 7.785c.028.309.028.617 0 .926 0-.285 0-.606.18-.926L31.254 32h2.273l1.957 7.82c.024.309.024.617 0 .926a5.234 5.234 0 0 1 0-.926L37.797 32ZM56.496 32l-3.164 10.668h-2.559l-2.027-7.113a6.575 6.575 0 0 1 0-.961 3.53 3.53 0 0 1-.176.926l-2.347 7.148h-2.489L40.535 32h2.559l1.957 7.785c.027.309.027.617 0 .926a4.076 4.076 0 0 1 0-.926L47.609 32h2.168l1.922 7.82c.024.309.024.617 0 .926a5.234 5.234 0 0 1 0-.926L54.152 32Zm0 0"/></svg>