<svg xmlns="http://www.w3.org/2000/svg" width="64" height="64"><defs><linearGradient id="a" gradientUnits="userSpaceOnUse" x1="13.45" y1="6.3" x2="13.45" y2="16.46" gradientTransform="scale(3.55556)"><stop offset="0" style="stop-color:#ffd70f;stop-opacity:1"/><stop offset=".12" style="stop-color:#fc1;stop-opacity:1"/><stop offset=".44" style="stop-color:#feb517;stop-opacity:1"/><stop offset=".75" style="stop-color:#fea61a;stop-opacity:1"/><stop offset="1" style="stop-color:#fea11b;stop-opacity:1"/></linearGradient></defs><path style="fill:#fff;fill-opacity:1;stroke:none" d="M0 0h64v64H0z"/><path style="stroke:none;fill-rule:nonzero;fill:#821010;fill-opacity:1" d="M51.344 5.406H2.168a2.047 2.047 0 0 0-1.54.574c-.41.399-.64.95-.628 1.524V32.78a2.062 2.062 0 0 0 2.098 2.063h27.234V24.89a1.742 1.742 0 0 1 1.211-1.672h.46a17.4 17.4 0 0 0 11.345-4.125 8.219 8.219 0 0 1 2.453-.89c.976-.247 1.976-.392 2.984-.427a13.964 13.964 0 0 1 2.988.285c.922.176 1.813.5 2.633.961V7.503a2.08 2.08 0 0 0-.593-1.483 2.056 2.056 0 0 0-1.47-.614ZM36.336 25.457V32h14.437v-6.543Zm0 0"/><path style="stroke:none;fill-rule:nonzero;fill:#e62323;fill-opacity:1" d="M3.023 8.32h14.47v6.399H3.022Zm0 0"/><path style="stroke:none;fill-rule:nonzero;fill:#ff7381;fill-opacity:1" d="M19.664 8.32h14.469v6.399H19.664Zm0 0"/><path style="stroke:none;fill-rule:nonzero;fill:#e62323;fill-opacity:1" d="M36.336 8.32h14.473v6.399H36.336ZM3.023 16.89h6.008v6.4H3.023Zm0 0"/><path style="stroke:none;fill-rule:nonzero;fill:#ff7381;fill-opacity:1" d="M50.773 16.89v1.278a14.02 14.02 0 0 0-2.988-.39c-1-.012-2.004.085-2.984.285V16.89ZM11.234 16.89h14.473v6.4H11.234Zm0 0"/><path style="stroke:none;fill-rule:nonzero;fill:#e62323;fill-opacity:1" d="M42.348 16.89v2.169a17.4 17.4 0 0 1-11.344 4.125h-3.129V16.89ZM3.023 25.492h14.47v6.403H3.022Zm0 0"/><path style="stroke:none;fill-rule:nonzero;fill:#ff7381;fill-opacity:1" d="M19.664 25.457h9.668v6.402h-9.668Zm0 0"/><path style="stroke:none;fill-rule:nonzero;fill:#dfa500;fill-opacity:1" d="M64 39.11c0 10.667-12.8 19.128-15.574 20.87-.332.18-.73.18-1.067 0-2.879-1.703-15.68-10.203-15.68-20.87V26.417c0-.555.442-1.012.997-1.031 9.957-.25 7.644-4.621 15.11-4.621 7.468 0 5.155 4.37 15.112 4.62.555.02.997.477.997 1.032Zm0 0"/><path style="stroke:none;fill-rule:nonzero;fill:url(#a)" d="M47.785 40.46V22.399c6.863 0 4.73 4.02 13.867 4.27.512 0 .926.414.926.922v12.73Zm0 0H33.066c.891 9.142 11.805 16.392 14.223 17.778h.426Zm0 0"/><path style="stroke:none;fill-rule:nonzero;fill:#ffd400;fill-opacity:1" d="M33.922 26.668c9.137-.25 7.11-4.27 13.863-4.27v18.063H33.066V27.59c0-.485.371-.887.856-.922ZM62.508 40.46H47.785v18.063h.395c2.558-1.632 13.437-8.746 14.328-18.062Zm0 0"/></svg>