<svg xmlns="http://www.w3.org/2000/svg" width="64" height="64"><defs><radialGradient id="a" gradientUnits="userSpaceOnUse" cx="9" cy="9" fx="9" fy="9" r="8.5" gradientTransform="scale(3.55556)"><stop offset="0" style="stop-color:#198ab3;stop-opacity:1"/><stop offset=".382" style="stop-color:#1a8cb5;stop-opacity:1"/><stop offset=".576" style="stop-color:#1c94bc;stop-opacity:1"/><stop offset=".727" style="stop-color:#21a1c8;stop-opacity:1"/><stop offset=".856" style="stop-color:#27b4d8;stop-opacity:1"/><stop offset=".97" style="stop-color:#2fccee;stop-opacity:1"/><stop offset="1" style="stop-color:#32d4f5;stop-opacity:1"/></radialGradient></defs><path style="stroke:none;fill-rule:nonzero;fill:url(#a)" d="M62.223 32c0 16.691-13.532 30.223-30.223 30.223S1.777 48.69 1.777 32 15.31 1.777 32 1.777 62.223 15.31 62.223 32Zm0 0"/><path style="stroke:none;fill-rule:nonzero;fill:#005ba1;fill-opacity:1" d="M58.031 32c0 14.375-11.656 26.031-26.031 26.031C17.625 58.031 5.969 46.375 5.969 32 5.969 17.625 17.625 5.969 32 5.969c14.375 0 26.031 11.656 26.031 26.031Zm0 0"/><path style="stroke:none;fill-rule:nonzero;fill:#f2f2f2;fill-opacity:1" d="m32.355 35.332-10.078-10a1.804 1.804 0 0 0-2.52 0l-1.269 1.262a1.68 1.68 0 0 0-.508 1.199c0 .453.18.887.5 1.207l7.582 7.543-7.746 7.691a1.685 1.685 0 0 0 0 2.402l1.286 1.266c.699.684 1.82.684 2.52 0L32.354 37.73c.32-.316.5-.75.5-1.199a1.65 1.65 0 0 0-.5-1.199ZM31.129 27.3c0 .45.18.884.5 1.2L41.87 38.668c.7.684 1.82.684 2.52 0l1.285-1.266c.324-.316.508-.746.508-1.199 0-.453-.18-.883-.5-1.203l-7.73-7.688 7.577-7.546c.32-.317.504-.75.504-1.203 0-.45-.183-.883-.512-1.196l-1.28-1.27a1.804 1.804 0 0 0-2.52 0l-10.078 10a1.69 1.69 0 0 0-.516 1.204Zm0 0"/></svg>