<svg xmlns="http://www.w3.org/2000/svg" width="64" height="64"><defs><linearGradient id="a" gradientUnits="userSpaceOnUse" x1="10.646" y1="12.18" x2="10.646" y2="1.846" gradientTransform="scale(3.55556)"><stop offset="0" style="stop-color:#005ba1;stop-opacity:1"/><stop offset=".192" style="stop-color:#1e71b5;stop-opacity:1"/><stop offset=".567" style="stop-color:#5598da;stop-opacity:1"/><stop offset=".848" style="stop-color:#76b0f0;stop-opacity:1"/><stop offset="1" style="stop-color:#83b9f9;stop-opacity:1"/></linearGradient></defs><path style="stroke:none;fill-rule:nonzero;fill:#fff;fill-opacity:1" d="M56.223 24.934c0 10.148-8.223 18.375-18.371 18.375-10.145 0-18.372-8.227-18.372-18.375 0-10.145 8.227-18.372 18.372-18.372 10.148 0 18.37 8.227 18.37 18.372Zm0 0"/><path style="stroke:none;fill-rule:nonzero;fill:#767676;fill-opacity:1" d="M3.773 55.484 22.75 36.508a3.628 3.628 0 0 1 5.133 0l.36.355a3.628 3.628 0 0 1 0 5.133L9.265 60.976a3.64 3.64 0 0 1-5.137 0l-.356-.359a3.628 3.628 0 0 1 0-5.133Zm0 0"/><path style="stroke:none;fill-rule:nonzero;fill:#a3a3a3;fill-opacity:1" d="M61.29 25.352c0 12.918-10.474 23.39-23.392 23.39s-23.39-10.472-23.39-23.39c0-12.918 10.472-23.391 23.39-23.391 12.918 0 23.391 10.473 23.391 23.39Zm0 0"/><path style="stroke:none;fill-rule:nonzero;fill:url(#a)" d="M56.223 24.934c0 10.148-8.223 18.375-18.371 18.375-10.145 0-18.372-8.227-18.372-18.375 0-10.145 8.227-18.372 18.372-18.372 10.148 0 18.37 8.227 18.37 18.372Zm0 0"/><path style="stroke:none;fill-rule:nonzero;fill:#f2f2f2;fill-opacity:1" d="M51.734 21.238a5.601 5.601 0 0 1-10.496 3.91ZM34.488 25.148a5.601 5.601 0 0 1-10.496-3.91Zm0 0"/></svg>