<svg xmlns="http://www.w3.org/2000/svg" xmlns:xlink="http://www.w3.org/1999/xlink" width="64" height="64"><defs><clipPath id="b"><path d="M0 0h64v64H0z"/></clipPath><clipPath id="c"><path d="M0 0h64v64H0z"/></clipPath><clipPath id="d"><path d="M0 0h64v64H0z"/></clipPath><mask id="g"><g filter="url(#a)"><path style="fill:#000;fill-opacity:.74902;stroke:none" d="M0 0h64v64H0z"/></g></mask><mask id="i"><g filter="url(#a)"><path style="fill:#000;fill-opacity:.74902;stroke:none" d="M0 0h64v64H0z"/></g></mask><mask id="k"><g filter="url(#a)"><path style="fill:#000;fill-opacity:.74902;stroke:none" d="M0 0h64v64H0z"/></g></mask><g id="f" clip-path="url(#b)"><path style="stroke:none;fill-rule:nonzero;fill:#c3f1ff;fill-opacity:1" d="M44.977 53.688c.18.171.46.171.64 0a.388.388 0 0 0 0-.282v-8a.617.617 0 0 0-.21-.394.467.467 0 0 0-.606 0 .24.24 0 0 0 0 .25v8.07a.385.385 0 0 0 .176.355Zm0 0"/></g><g id="h" clip-path="url(#c)"><path style="stroke:none;fill-rule:nonzero;fill:#c3f1ff;fill-opacity:1" d="M42.168 34.809h9.14c.313 0 .567.254.567.57v.07a.57.57 0 0 1-.566.57h-9.141a.57.57 0 0 1-.566-.57v-.07c0-.316.253-.57.566-.57Zm0 0"/></g><g id="j" clip-path="url(#d)"><path style="stroke:none;fill-rule:nonzero;fill:#c3f1ff;fill-opacity:1" d="M42.168 36.8h9.14c.313 0 .567.255.567.567v.074a.567.567 0 0 1-.566.567h-9.141a.567.567 0 0 1-.566-.567v-.074c0-.312.253-.566.566-.566Zm0 0"/></g><radialGradient id="e" gradientUnits="userSpaceOnUse" cx="8.38" cy="445.94" fx="8.38" fy="445.94" r="4.05" gradientTransform="matrix(3.55556 0 0 5.65333 0 -2506.631)"><stop offset="0" style="stop-color:#5ea0ef;stop-opacity:1"/><stop offset=".11" style="stop-color:#519aeb;stop-opacity:1"/><stop offset=".51" style="stop-color:#2588df;stop-opacity:1"/><stop offset=".82" style="stop-color:#0a7cd7;stop-opacity:1"/><stop offset="1" style="stop-color:#0078d4;stop-opacity:1"/></radialGradient><filter id="a" filterUnits="objectBoundingBox" x="0%" y="0%" width="100%" height="100%"><feColorMatrix in="SourceGraphic" values="0 0 0 0 1 0 0 0 0 1 0 0 0 0 1 0 0 0 1 0"/></filter></defs><path style="stroke:none;fill-rule:nonzero;fill:#0078d4;fill-opacity:1" d="M7.54 1.777h7.038v2.028H7.54Zm51.554 2.028h1.136V4.87h1.958V1.777h-3.094ZM4.977 60.09H3.98v-1.14H1.777v3.308h3.2Zm55.289-1.067v1.067h-1.137v2.133h3.094v-3.2ZM4.02 4.836V3.77h.992V1.777H1.777v3.059Zm14.007-3.059h7.004v2.028h-7.004Zm10.418 0h7.004v2.028h-7.004Zm10.524 0h7.004v2.028h-7.004Zm10.453 0h7.004v2.028h-7.004ZM7.609 60.09h6.97v2.027h-6.97Zm10.454 0h7.003v2.027h-7.003Zm10.488 0h7.004v2.027H28.55Zm10.488 0h7.004v2.027h-7.004Zm10.453 0h7.004v2.027h-7.004ZM60.16 7.29h2.028v7.003H60.16Zm0 10.487h2.028v7.004H60.16Zm0 10.453h2.028v6.97H60.16Zm0 10.454h2.028v7.004H60.16Zm0 10.488h2.028v7.008H60.16ZM1.777 7.219h2.028v7.004H1.777Zm0 10.488h2.028v7.004H1.777Zm0 10.453h2.028v7.04H1.777Zm0 10.488h2.028v7.004H1.777Zm0 10.418h2.028v7.004H1.777Zm0 0"/><path style="stroke:none;fill-rule:nonzero;fill:#76bc2d;fill-opacity:1" d="M36.621 39.11a5.333 5.333 0 0 1 0-7.5l2.703-2.704a43.113 43.113 0 0 0-9.492-1.031c-10.918 0-19.734 3.555-19.734 8.105 0 4.555 8.746 8.11 19.699 8.11a42.303 42.303 0 0 0 10.418-1.422Zm0 0"/><path style="stroke:none;fill-rule:nonzero;fill:url(#e)" d="M49.492 17.957c0-4.48-8.816-8.11-19.695-8.11s-19.7 3.63-19.7 8.11c0 4.477 8.821 8.105 19.7 8.105s19.695-3.628 19.695-8.105Zm0 0"/><path style="stroke:none;fill-rule:nonzero;fill:#005ba1;fill-opacity:1" d="M36.8 17.848c0-.98-2.929-1.778-6.542-1.778s-6.543.797-6.543 1.778c0 .984 2.93 1.777 6.543 1.777s6.543-.793 6.543-1.777Zm0 0"/><path style="stroke:none;fill-rule:nonzero;fill:#0078d4;fill-opacity:1" d="M55.395 37.867a3.558 3.558 0 0 0 1.09-2.558 3.56 3.56 0 0 0-1.09-2.563l-6.258-6.293a3.548 3.548 0 0 0-2.559-1.086c-.965 0-1.89.39-2.558 1.086l-6.258 6.258a3.558 3.558 0 0 0-1.09 2.559c0 .968.394 1.89 1.09 2.562l5.226 5.332c.172.2.274.45.282.711v9.707c.007.32.132.625.355.855l2.383 2.38a.855.855 0 0 0 1.176 0l3.625-3.626a.499.499 0 0 0 0-.675l-1.067-.996a.462.462 0 0 1 0-.711l.961-.996a.499.499 0 0 0 0-.676l-.96-.957a.51.51 0 0 1-.169-.375.51.51 0 0 1 .168-.375l.961-.957a.499.499 0 0 0 0-.676l-1.351-1.422v-.465Zm-8.817-9.887a2.062 2.062 0 0 1 2.168.848A2.06 2.06 0 0 1 46.578 32a2.063 2.063 0 0 1 0-4.125Zm0 0"/><path style="stroke:none;fill-rule:nonzero;fill:#0078d4;fill-opacity:1" d="M42.844 25.246a5.31 5.31 0 0 1 3.554-1.566c.801.011 1.59.195 2.313.535.32-.52.527-1.102.605-1.707v-4.73c0 4.445-8.82 8.07-19.699 8.07-10.879 0-19.555-3.555-19.555-8.07v4.48c0 4.48 8.817 8.105 19.735 8.105a44.844 44.844 0 0 0 8.816-.851Zm0 0"/><use xlink:href="#f" mask="url(#g)"/><use xlink:href="#h" mask="url(#i)"/><use xlink:href="#j" mask="url(#k)"/><path style="stroke:none;fill-rule:nonzero;fill:#5e9624;fill-opacity:1" d="m41.602 44.16-1.497-1.492a43.42 43.42 0 0 1-10.308 1.207c-10.918 0-19.735-3.555-19.735-8.105v4.515c0 4.48 8.817 8.106 19.735 8.106a41.615 41.615 0 0 0 11.805-1.637Zm-6.508-9.527a17.27 17.27 0 0 0-4.836-.606c-3.555 0-6.543.817-6.543 1.778 0 .96 2.953 1.777 6.543 1.777 1.719.027 3.433-.2 5.086-.676a5.657 5.657 0 0 1-.25-2.312Zm0 0"/></svg>