<svg xmlns="http://www.w3.org/2000/svg" xmlns:xlink="http://www.w3.org/1999/xlink" width="64" height="64"><defs><clipPath id="b"><path d="M0 0h64v64H0z"/></clipPath><clipPath id="c"><path d="M0 0h64v64H0z"/></clipPath><clipPath id="d"><path d="M0 0h64v64H0z"/></clipPath><clipPath id="e"><path d="M0 0h64v64H0z"/></clipPath><clipPath id="f"><path d="M0 0h64v64H0z"/></clipPath><clipPath id="g"><path d="M0 0h64v64H0z"/></clipPath><clipPath id="h"><path d="M0 0h64v64H0z"/></clipPath><mask id="k"><g filter="url(#a)"><path style="fill:#000;fill-opacity:.701961;stroke:none" d="M0 0h64v64H0z"/></g></mask><mask id="m"><g filter="url(#a)"><path style="fill:#000;fill-opacity:.701961;stroke:none" d="M0 0h64v64H0z"/></g></mask><mask id="o"><g filter="url(#a)"><path style="fill:#000;fill-opacity:.701961;stroke:none" d="M0 0h64v64H0z"/></g></mask><mask id="q"><g filter="url(#a)"><path style="fill:#000;fill-opacity:.701961;stroke:none" d="M0 0h64v64H0z"/></g></mask><mask id="s"><g filter="url(#a)"><path style="fill:#000;fill-opacity:.701961;stroke:none" d="M0 0h64v64H0z"/></g></mask><mask id="u"><g filter="url(#a)"><path style="fill:#000;fill-opacity:.701961;stroke:none" d="M0 0h64v64H0z"/></g></mask><mask id="w"><g filter="url(#a)"><path style="fill:#000;fill-opacity:.701961;stroke:none" d="M0 0h64v64H0z"/></g></mask><g id="j" clip-path="url(#b)"><path style="stroke:none;fill-rule:nonzero;fill:#fff;fill-opacity:1" d="M21.719 30.688h40.758a1.24 1.24 0 0 1 1.296 1.164v4.644H20.414v-4.644c.043-.68.625-1.2 1.305-1.165Zm0 0"/></g><g id="l" clip-path="url(#c)"><path style="stroke:none;fill-rule:nonzero;fill:#fff;fill-opacity:1" d="M57.867 48.613H31.11c-.593 0-1.07.274-1.07.606v1.492c0 .336.484.605 1.07.605h26.758c.598 0 1.067-.27 1.067-.605v-1.492c.011-.332-.47-.606-1.067-.606Zm0 0"/></g><g id="n" clip-path="url(#d)"><path style="stroke:none;fill-rule:nonzero;fill:#fff;fill-opacity:1" d="M57.867 41.809H31.11c-.593 0-1.07.27-1.07.605v1.492c0 .336.484.606 1.07.606h26.758c.598 0 1.067-.27 1.067-.606v-1.492c.011-.336-.47-.605-1.067-.605Zm0 0"/></g><g id="p" clip-path="url(#e)"><path style="stroke:none;fill-rule:nonzero;fill:#fff;fill-opacity:1" d="M59.59 57.855H31.05c-.636 0-1.152.293-1.152.649v1.586c0 .355.516.644 1.153.644H59.59c.637 0 1.152-.289 1.152-.644v-1.594c0-.348-.515-.64-1.152-.64Zm0 0"/></g><g id="r" clip-path="url(#f)"><path style="stroke:none;fill-rule:nonzero;fill:#fff;fill-opacity:1" d="M27.363 43.16c0 .98-.793 1.77-1.77 1.77a1.769 1.769 0 1 1 0-3.54c.977 0 1.77.794 1.77 1.77Zm0 0"/></g><g id="t" clip-path="url(#g)"><path style="stroke:none;fill-rule:nonzero;fill:#fff;fill-opacity:1" d="M27.363 49.965a1.771 1.771 0 1 1-3.542.004 1.771 1.771 0 0 1 3.542-.004Zm0 0"/></g><g id="v" clip-path="url(#h)"><path style="stroke:none;fill-rule:nonzero;fill:#fff;fill-opacity:1" d="M27.055 59.3a1.888 1.888 0 1 1-3.776-.002 1.888 1.888 0 0 1 3.776.003Zm0 0"/></g><linearGradient id="i" gradientUnits="userSpaceOnUse" x1="11.202" y1="13.906" x2="2.831" y2="-.576" gradientTransform="scale(3.55556)"><stop offset="0" style="stop-color:#0078d4;stop-opacity:1"/><stop offset=".998" style="stop-color:#83b9f9;stop-opacity:1"/></linearGradient><filter id="a" filterUnits="objectBoundingBox" x="0%" y="0%" width="100%" height="100%"><feColorMatrix in="SourceGraphic" values="0 0 0 0 1 0 0 0 0 1 0 0 0 0 1 0 0 0 1 0"/></filter></defs><path style="stroke:none;fill-rule:nonzero;fill:#5ea0ef;fill-opacity:1" d="M44.707 24.926c0 14.347-17.668 25.906-21.508 28.246a1.41 1.41 0 0 1-1.465 0C17.891 50.844.227 39.273.227 24.926V7.656c.011-.75.617-1.36 1.367-1.37C15.332 5.921 12.172 0 22.469 0s7.133 5.922 20.875 6.285c.75.012 1.355.621 1.363 1.371Zm0 0"/><path style="stroke:none;fill-rule:nonzero;fill:url(#i)" d="M42.863 25.07c0 13.157-16.199 23.758-19.722 25.907-.414.25-.934.25-1.344 0C18.273 48.844 2.074 38.234 2.074 25.07V9.246a1.27 1.27 0 0 1 1.25-1.258c12.602-.343 9.7-5.773 19.145-5.773 9.441 0 6.543 5.43 19.133 5.765a1.267 1.267 0 0 1 1.25 1.254Zm0 0"/><path style="stroke:none;fill-rule:nonzero;fill:#83b9f9;fill-opacity:1" d="M21.797 30.688h40.598a1.312 1.312 0 0 1 1.378 1.234v30.844A1.312 1.312 0 0 1 62.395 64H21.797a1.313 1.313 0 0 1-1.383-1.234V31.922c.047-.719.66-1.27 1.383-1.235Zm0 0"/><use xlink:href="#j" mask="url(#k)"/><use xlink:href="#l" mask="url(#m)"/><use xlink:href="#n" mask="url(#o)"/><use xlink:href="#p" mask="url(#q)"/><use xlink:href="#r" mask="url(#s)"/><use xlink:href="#t" mask="url(#u)"/><use xlink:href="#v" mask="url(#w)"/></svg>