<svg xmlns="http://www.w3.org/2000/svg" xmlns:xlink="http://www.w3.org/1999/xlink" width="64" height="64"><defs><clipPath id="b"><path d="M0 0h64v64H0z"/></clipPath><clipPath id="c"><path d="M0 0h64v64H0z"/></clipPath><clipPath id="d"><path d="M0 0h64v64H0z"/></clipPath><clipPath id="e"><path d="M0 0h64v64H0z"/></clipPath><clipPath id="f"><path d="M0 0h64v64H0z"/></clipPath><clipPath id="g"><path d="M0 0h64v64H0z"/></clipPath><clipPath id="h"><path d="M0 0h64v64H0z"/></clipPath><mask id="k"><g filter="url(#a)"><path style="fill:#000;fill-opacity:.701961;stroke:none" d="M0 0h64v64H0z"/></g></mask><mask id="m"><g filter="url(#a)"><path style="fill:#000;fill-opacity:.701961;stroke:none" d="M0 0h64v64H0z"/></g></mask><mask id="o"><g filter="url(#a)"><path style="fill:#000;fill-opacity:.701961;stroke:none" d="M0 0h64v64H0z"/></g></mask><mask id="q"><g filter="url(#a)"><path style="fill:#000;fill-opacity:.701961;stroke:none" d="M0 0h64v64H0z"/></g></mask><mask id="s"><g filter="url(#a)"><path style="fill:#000;fill-opacity:.701961;stroke:none" d="M0 0h64v64H0z"/></g></mask><mask id="u"><g filter="url(#a)"><path style="fill:#000;fill-opacity:.701961;stroke:none" d="M0 0h64v64H0z"/></g></mask><mask id="w"><g filter="url(#a)"><path style="fill:#000;fill-opacity:.701961;stroke:none" d="M0 0h64v64H0z"/></g></mask><g id="j" clip-path="url(#b)"><path style="stroke:none;fill-rule:nonzero;fill:#fff;fill-opacity:1" d="M21.434 30.738H62.19a1.234 1.234 0 0 1 1.297 1.16v4.649H20.133v-4.649c.039-.68.62-1.195 1.3-1.16Zm0 0"/></g><g id="l" clip-path="url(#c)"><path style="stroke:none;fill-rule:nonzero;fill:#fff;fill-opacity:1" d="M57.602 48.66H30.824c-.594 0-1.066.27-1.066.606v1.492c0 .336.48.605 1.066.605h26.778c.597 0 1.066-.27 1.066-.605v-1.492c0-.336-.488-.606-1.066-.606Zm0 0"/></g><g id="n" clip-path="url(#d)"><path style="stroke:none;fill-rule:nonzero;fill:#fff;fill-opacity:1" d="M57.602 41.86H30.824c-.594 0-1.066.269-1.066.605v1.492c0 .336.48.605 1.066.605h26.778c.597 0 1.066-.269 1.066-.605v-1.492c0-.336-.488-.606-1.066-.606Zm0 0"/></g><g id="p" clip-path="url(#e)"><path style="stroke:none;fill-rule:nonzero;fill:#fff;fill-opacity:1" d="M59.309 57.906H30.762c-.633 0-1.149.29-1.149.645v1.59c0 .355.516.648 1.149.648h28.547c.632 0 1.148-.289 1.148-.648v-1.59c-.012-.356-.516-.645-1.148-.645Zm0 0"/></g><g id="r" clip-path="url(#f)"><path style="stroke:none;fill-rule:nonzero;fill:#fff;fill-opacity:1" d="M27.078 43.21a1.77 1.77 0 0 1-3.539 0 1.77 1.77 0 0 1 3.54 0Zm0 0"/></g><g id="t" clip-path="url(#g)"><path style="stroke:none;fill-rule:nonzero;fill:#fff;fill-opacity:1" d="M27.078 50.012c0 .98-.793 1.77-1.77 1.77a1.77 1.77 0 1 1 1.77-1.77Zm0 0"/></g><g id="v" clip-path="url(#h)"><path style="stroke:none;fill-rule:nonzero;fill:#fff;fill-opacity:1" d="M26.77 59.348a1.888 1.888 0 1 1-3.776-.003 1.888 1.888 0 0 1 3.776.003Zm0 0"/></g><linearGradient id="i" gradientUnits="userSpaceOnUse" x1="11.122" y1="13.92" x2="2.751" y2="-.562" gradientTransform="scale(3.55556)"><stop offset="0" style="stop-color:#a33a85;stop-opacity:1"/><stop offset=".998" style="stop-color:#dc92bf;stop-opacity:1"/></linearGradient><filter id="a" filterUnits="objectBoundingBox" x="0%" y="0%" width="100%" height="100%"><feColorMatrix in="SourceGraphic" values="0 0 0 0 1 0 0 0 0 1 0 0 0 0 1 0 0 0 1 0"/></filter></defs><path style="stroke:none;fill-rule:nonzero;fill:#ce74b6;fill-opacity:1" d="M44.422 24.969c0 14.355-17.668 25.906-21.508 28.25a1.41 1.41 0 0 1-1.465 0C17.605 50.875-.059 39.324-.059 24.969V7.703c.008-.75.618-1.36 1.368-1.367C15.047 5.969 11.887.046 22.184.046c10.296 0 7.132 5.923 20.875 6.29.75.012 1.355.617 1.363 1.367Zm0 0"/><path style="stroke:none;fill-rule:nonzero;fill:url(#i)" d="M42.578 25.121c0 13.156-16.2 23.754-19.723 25.902-.414.25-.933.25-1.343 0-3.524-2.148-19.735-12.746-19.735-25.902V9.285a1.271 1.271 0 0 1 1.254-1.258c12.614-.332 9.707-5.765 19.153-5.765 9.441 0 6.543 5.433 19.144 5.765a1.27 1.27 0 0 1 1.25 1.258Zm0 0"/><path style="stroke:none;fill-rule:nonzero;fill:#dc92bf;fill-opacity:1" d="M21.512 30.738h40.597a1.309 1.309 0 0 1 1.38 1.23v30.848a1.312 1.312 0 0 1-1.38 1.23H21.512a1.312 1.312 0 0 1-1.38-1.23V31.97c.044-.719.661-1.27 1.38-1.23Zm0 0"/><use xlink:href="#j" mask="url(#k)"/><use xlink:href="#l" mask="url(#m)"/><use xlink:href="#n" mask="url(#o)"/><use xlink:href="#p" mask="url(#q)"/><use xlink:href="#r" mask="url(#s)"/><use xlink:href="#t" mask="url(#u)"/><use xlink:href="#v" mask="url(#w)"/></svg>