<svg xmlns="http://www.w3.org/2000/svg" width="64" height="64"><defs><linearGradient id="a" gradientUnits="userSpaceOnUse" x1="8.995" y1="20.15" x2="8.995" y2="4.41" gradientTransform="matrix(3.55556 0 0 -3.55556 0 71.111)"><stop offset="0" style="stop-color:#5ea0ef;stop-opacity:1"/><stop offset="1" style="stop-color:#0078d4;stop-opacity:1"/></linearGradient></defs><path style="stroke:none;fill-rule:nonzero;fill:url(#a)" d="M3.555 5.867h56.89a1.776 1.776 0 0 1 1.813 1.637v39.465a1.744 1.744 0 0 1-1.813 1.636H3.555a1.778 1.778 0 0 1-1.848-1.636V7.574a1.772 1.772 0 0 1 1.848-1.707Zm0 0"/><path style="stroke:none;fill-rule:nonzero;fill:#50e6ff;fill-opacity:1" d="m42.203 29.652 9.461 5.477 9.492 5.441a.546.546 0 0 1 .25.356c.035.148.004.3-.078.43a.517.517 0 0 1-.172.171l-6.328 3.559 4.516 7.75a3.129 3.129 0 0 1-1.14 4.23l-.923.536a3.093 3.093 0 0 1-4.23-1.106l-4.516-7.82-6.297 3.554a.531.531 0 0 1-.816-.496V30.152a.577.577 0 0 1 .598-.543c.062.004.125.02.183.043Zm0 0"/><path style="stroke:none;fill-rule:nonzero;fill:#fff;fill-opacity:1" d="M27.023 11.805h10.239c.277 0 .5.222.5.496v10.668c0 .254-.207.46-.465.46H27.234a.497.497 0 0 1-.496-.495V12.266a.459.459 0 0 1 .32-.461Zm0 0"/><path style="stroke:none;fill-rule:nonzero;fill:#83b9f9;fill-opacity:1" d="M27.023 28.977h10.239c.265.02.48.23.5.5V40.14a.463.463 0 0 1-.465.464H27.234a.498.498 0 0 1-.496-.5V29.441a.46.46 0 0 1 .32-.464Zm18.844-17.172h10.238c.278 0 .5.222.5.496v10.668c0 .254-.207.46-.464.46H46.043a.497.497 0 0 1-.496-.495V12.266a.459.459 0 0 1 .32-.461Zm0 0"/><path style="stroke:none;fill-rule:nonzero;fill:#fff;fill-opacity:1" d="M9.102 28.977h10.242c.265.02.476.23.496.5V40.14a.463.463 0 0 1-.461.464H9.316a.498.498 0 0 1-.5-.5V29.441a.46.46 0 0 1 .32-.464ZM9.102 11.805h10.242c.265.02.476.23.496.496v10.668c0 .254-.207.46-.461.46H9.316a.498.498 0 0 1-.5-.495V12.266a.459.459 0 0 1 .32-.461Zm0 0"/></svg>