<svg xmlns="http://www.w3.org/2000/svg" xmlns:xlink="http://www.w3.org/1999/xlink" width="64" height="64"><defs><clipPath id="b"><path d="M0 0h64v64H0z"/></clipPath><clipPath id="c"><path d="M0 0h64v64H0z"/></clipPath><clipPath id="d"><path d="M0 0h64v64H0z"/></clipPath><mask id="h"><g filter="url(#a)"><path style="fill:#000;fill-opacity:.74902;stroke:none" d="M0 0h64v64H0z"/></g></mask><mask id="j"><g filter="url(#a)"><path style="fill:#000;fill-opacity:.74902;stroke:none" d="M0 0h64v64H0z"/></g></mask><mask id="l"><g filter="url(#a)"><path style="fill:#000;fill-opacity:.74902;stroke:none" d="M0 0h64v64H0z"/></g></mask><g id="g" clip-path="url(#b)"><path style="stroke:none;fill-rule:nonzero;fill:#0078d4;fill-opacity:1" d="M29.7 54.82c.183.184.46.235.698.13a.626.626 0 0 0 .368-.606V43.266a.664.664 0 0 0-.29-.551.633.633 0 0 0-.648-.02.633.633 0 0 0-.316.57v11.079a.663.663 0 0 0 .187.476Zm0 0"/></g><g id="i" clip-path="url(#c)"><path style="stroke:none;fill-rule:nonzero;fill:#0078d4;fill-opacity:1" d="M25.707 28.145h12.95c.433 0 .78.351.78.785v.148c0 .43-.347.781-.78.781h-12.95a.781.781 0 0 1-.781-.78v-.15c0-.433.351-.784.785-.784Zm0 0"/></g><g id="k" clip-path="url(#d)"><path style="stroke:none;fill-rule:nonzero;fill:#0078d4;fill-opacity:1" d="M25.707 30.934h12.95c.433 0 .78.351.78.78v.15a.785.785 0 0 1-.785.784H25.707a.782.782 0 0 1-.781-.785v-.144c0-.434.347-.785.781-.785Zm0 0"/></g><linearGradient id="e" gradientUnits="userSpaceOnUse" x1="9" y1="13.704" x2="9" y2="1.277" gradientTransform="scale(3.55556)"><stop offset="0" style="stop-color:#0078d4;stop-opacity:1"/><stop offset=".817" style="stop-color:#5ea0ef;stop-opacity:1"/></linearGradient><linearGradient id="f" gradientUnits="userSpaceOnUse" x1="8.999" y1="16.723" x2="8.999" y2="4.174" gradientTransform="scale(3.55556)"><stop offset="0" style="stop-color:#32bedd;stop-opacity:1"/><stop offset=".113" style="stop-color:#3ccce9;stop-opacity:1"/><stop offset=".292" style="stop-color:#47dbf5;stop-opacity:1"/><stop offset=".504" style="stop-color:#4ee3fd;stop-opacity:1"/><stop offset=".834" style="stop-color:#50e6ff;stop-opacity:1"/></linearGradient><filter id="a" filterUnits="objectBoundingBox" x="0%" y="0%" width="100%" height="100%"><feColorMatrix in="SourceGraphic" values="0 0 0 0 1 0 0 0 0 1 0 0 0 0 1 0 0 0 1 0"/></filter></defs><path style="stroke:none;fill-rule:nonzero;fill:url(#e)" d="M63.172 34.887a14.013 14.013 0 0 0-12.156-13.465c-.418-9.656-8.524-17.18-18.184-16.883a18.116 18.116 0 0 0-17.309 11.816c-8.195.993-14.437 7.82-14.695 16.07.367 9.337 8.215 16.618 17.555 16.286.523 0 1.039-.023 1.547-.063h28.425a3.03 3.03 0 0 0 .75-.113c7.586-.055 13.782-6.07 14.067-13.648Zm0 0"/><path style="stroke:none;fill-rule:nonzero;fill:url(#f)" d="M44.445 32.453a5.147 5.147 0 0 0 0-7.258l-8.828-8.84a5.121 5.121 0 0 0-3.62-1.503c-1.36 0-2.661.543-3.622 1.503l-8.82 8.84a5.147 5.147 0 0 0 0 7.258l7.343 7.367c.27.27.422.637.418 1.02v13.687c0 .465.184.91.512 1.239l3.348 3.355c.215.219.512.34.82.34.305 0 .602-.121.817-.34l3.246-3.254v-.047l1.914-1.91a.667.667 0 0 0 0-.945l-1.375-1.383a.729.729 0 0 1 0-1.031l1.375-1.383a.661.661 0 0 0 0-.95l-1.375-1.382a.729.729 0 0 1 0-1.031l1.379-1.383a.674.674 0 0 0 0-.945l-1.918-1.922v-.711ZM32 18.488a2.921 2.921 0 0 1 2.703 1.793 2.918 2.918 0 0 1-3.808 3.817 2.92 2.92 0 0 1-1.801-2.696c0-.773.304-1.515.851-2.058A2.894 2.894 0 0 1 32 18.488Zm0 0"/><use xlink:href="#g" mask="url(#h)"/><use xlink:href="#i" mask="url(#j)"/><use xlink:href="#k" mask="url(#l)"/></svg>