<svg xmlns="http://www.w3.org/2000/svg" width="64" height="64"><defs><linearGradient id="a" gradientUnits="userSpaceOnUse" x1="7.699" y1="259.22" x2="7.699" y2="263.711" gradientTransform="matrix(3.55556 0 0 3.55556 0 -888.889)"><stop offset=".23" style="stop-color:#5ea0ef;stop-opacity:1"/><stop offset=".32" style="stop-color:#5b9fee;stop-opacity:1"/><stop offset=".48" style="stop-color:#509aeb;stop-opacity:1"/><stop offset=".57" style="stop-color:#3f92e6;stop-opacity:1"/><stop offset=".75" style="stop-color:#2688df;stop-opacity:1"/><stop offset=".93" style="stop-color:#127fd9;stop-opacity:1"/></linearGradient><linearGradient id="b" gradientUnits="userSpaceOnUse" x1="9.927" y1="261.091" x2="9.927" y2="265.582" gradientTransform="matrix(3.55556 0 0 3.55556 0 -888.889)"><stop offset=".02" style="stop-color:#5ea0ef;stop-opacity:1"/><stop offset=".14" style="stop-color:#5b9fee;stop-opacity:1"/><stop offset=".23" style="stop-color:#5b9fee;stop-opacity:1"/><stop offset=".34" style="stop-color:#509aeb;stop-opacity:1"/><stop offset=".44" style="stop-color:#3f92e6;stop-opacity:1"/><stop offset=".63" style="stop-color:#2688df;stop-opacity:1"/><stop offset=".93" style="stop-color:#127fd9;stop-opacity:1"/></linearGradient></defs><path style="stroke:none;fill-rule:nonzero;fill:#7a7a7a;fill-opacity:1" d="M29.34 8.965h3.988v25.148H29.34Zm0 0"/><path style="stroke:none;fill-rule:nonzero;fill:#1490df;fill-opacity:1" d="M37.188 8.18a5.857 5.857 0 1 1-11.714-.026 5.857 5.857 0 0 1 11.713.026Zm0 0"/><path style="stroke:none;fill-rule:nonzero;fill:url(#a)" d="M30.535 32.781h-6.398a7.982 7.982 0 0 0-7.88 7.367 7.981 7.981 0 0 0 6.641 8.497 8.517 8.517 0 0 1 .079-2.97 5.044 5.044 0 0 1 1.16-9.956h6.398a5.056 5.056 0 0 1 0 10.113h-1.758a3.89 3.89 0 0 0-.355 1.598c0 .457.086.906.254 1.332h1.875a7.992 7.992 0 0 0 7.054-3.946 7.981 7.981 0 0 0 0-8.082 7.98 7.98 0 0 0-7.054-3.941Zm0 0"/><path style="stroke:none;fill-rule:nonzero;fill:url(#b)" d="M39.758 39.543c.058.402.09.812.094 1.223a8.2 8.2 0 0 1-.176 1.746 5.039 5.039 0 0 1 3.879 5.492 5.04 5.04 0 0 1-5.035 4.46H32.12a5.058 5.058 0 0 1-4.926-5.058 5.055 5.055 0 0 1 4.926-5.054h1.758c.234-.5.355-1.047.355-1.598 0-.457-.086-.906-.254-1.328h-1.847a7.985 7.985 0 0 0 0 15.965h6.398a7.985 7.985 0 0 0 7.88-7.364 7.981 7.981 0 0 0-6.641-8.496Zm0 0"/><path style="stroke:none;fill-rule:nonzero;fill:#50e6ff;fill-opacity:1" d="m19.84 58.754-1.465 1.476a.993.993 0 0 1-1.422 0L.574 43.875a2.011 2.011 0 0 1 0-2.844l1.477-1.465 17.777 17.75c.188.184.29.434.29.696a.969.969 0 0 1-.29.695Zm0 0"/><path style="stroke:none;fill-rule:nonzero;fill:#1490df;fill-opacity:1" d="m18.07 24.96 1.633 1.634a1.005 1.005 0 0 1 0 1.426L2.223 45.543.582 43.918a2.011 2.011 0 0 1 0-2.844l16.074-16.113a1 1 0 0 1 1.414 0Zm0 0"/><path style="stroke:none;fill-rule:nonzero;fill:#50e6ff;fill-opacity:1" d="M44.148 59.914a.99.99 0 0 1-.02-1.394h.02L61.926 40.78l1.48 1.48a2.011 2.011 0 0 1 0 2.844L47.012 61.418a.986.986 0 0 1-1.39.023l-.02-.02Zm0 0"/><path style="stroke:none;fill-rule:nonzero;fill:#1490df;fill-opacity:1" d="m47.328 26.129 16.09 16.129c.773.781.773 2.039 0 2.82l-1.64 1.633L44.28 29.176a1.024 1.024 0 0 1 0-1.422l1.637-1.621a1.002 1.002 0 0 1 1.41-.004Zm0 0"/></svg>