<svg xmlns="http://www.w3.org/2000/svg" width="64" height="64"><defs><linearGradient id="a" gradientUnits="userSpaceOnUse" x1="9" y1="14.633" x2="9" y2="1.875" gradientTransform="scale(3.55556)"><stop offset="0" style="stop-color:#0078d4;stop-opacity:1"/><stop offset="1" style="stop-color:#5ea0ef;stop-opacity:1"/></linearGradient><linearGradient id="b" gradientUnits="userSpaceOnUse" x1="11.443" y1="9.184" x2="11.443" y2="15.325" gradientTransform="scale(3.55556)"><stop offset="0" style="stop-color:#fff;stop-opacity:1"/><stop offset="1" style="stop-color:#f2f2f2;stop-opacity:1"/></linearGradient></defs><path style="stroke:none;fill-rule:nonzero;fill:url(#a)" d="M64 37.82A14.376 14.376 0 0 0 51.52 24c-.434-9.91-8.75-17.633-18.668-17.332a18.59 18.59 0 0 0-17.778 12.117C6.66 19.81.258 26.825 0 35.297c.375 9.586 8.43 17.066 18.02 16.73.535 0 1.066-.023 1.59-.066h29.18c.26-.004.519-.043.773-.117C57.352 51.789 63.718 45.605 64 37.82Zm0 0"/><path style="stroke:none;fill-rule:nonzero;fill:#50e6ff;fill-opacity:1" d="M40.684 29.46c13.73 0 22.117 10.22 22.789 24.18a3.535 3.535 0 0 1-3.528 3.708h-38.52a3.558 3.558 0 0 1-3.527-3.711c.688-13.957 9.079-24.176 22.786-24.176Zm0 0"/><path style="stroke:none;fill-rule:nonzero;fill:url(#b)" d="M21.426 54.98a1.165 1.165 0 0 1-1.176-1.23c.656-13.34 9.84-21.926 20.434-21.926 10.59 0 19.8 8.586 20.441 21.926a1.165 1.165 0 0 1-1.18 1.23Zm0 0"/><path style="stroke:none;fill-rule:nonzero;fill:#9cebff;fill-opacity:1" d="M51.734 39.184a16.522 16.522 0 0 0-9.875-4.215v7.699c1.68.219 3.27.895 4.59 1.957Zm0 0"/><path style="stroke:none;fill-rule:nonzero;fill:#50e6ff;fill-opacity:1" d="m29.637 39.184 5.281 5.43a9.254 9.254 0 0 1 4.59-1.946v-7.7a16.51 16.51 0 0 0-9.871 4.216Zm0 0"/><path style="stroke:none;fill-rule:nonzero;fill:#9cebff;fill-opacity:1" d="M48.113 46.324a9.8 9.8 0 0 1 1.903 4.719h7.468a17.514 17.514 0 0 0-4.086-10.152Zm0 0"/><path style="stroke:none;fill-rule:nonzero;fill:#32bedd;fill-opacity:1" d="m33.258 46.324-5.285-5.433a17.547 17.547 0 0 0-4.102 10.148h7.469c.21-1.71.87-3.34 1.918-4.715ZM54.438 44.64a1.178 1.178 0 0 0-1.524-.667l-11.023 4.394.859 2.188 11.02-4.39c.605-.24.902-.919.667-1.524Zm0 0"/><path style="stroke:none;fill-rule:nonzero;fill:#767676;fill-opacity:1" d="M43.898 49.953a3.215 3.215 0 1 1-6.43 0 3.215 3.215 0 0 1 6.43 0Zm0 0"/></svg>