<svg xmlns="http://www.w3.org/2000/svg" width="64" height="64"><defs><linearGradient id="a" gradientUnits="userSpaceOnUse" x1="8.693" y1="12.726" x2="8.693" y2=".705" gradientTransform="scale(3.55556)"><stop offset="0" style="stop-color:#0078d4;stop-opacity:1"/><stop offset=".105" style="stop-color:#1480da;stop-opacity:1"/><stop offset=".306" style="stop-color:#348ee3;stop-opacity:1"/><stop offset=".5" style="stop-color:#4b98ea;stop-opacity:1"/><stop offset=".682" style="stop-color:#599eee;stop-opacity:1"/><stop offset=".84" style="stop-color:#5ea0ef;stop-opacity:1"/></linearGradient></defs><path style="stroke:none;fill-rule:nonzero;fill:url(#a)" d="M61.059 31.863A13.553 13.553 0 0 0 49.3 18.843C48.906 9.5 41.062 2.212 31.71 2.509a17.513 17.513 0 0 0-16.738 11.414A16.174 16.174 0 0 0 .75 29.48c.348 9.036 7.941 16.09 16.98 15.766.504 0 1-.023 1.497-.062h27.496c.242-.004.48-.043.71-.11 7.352-.039 13.36-5.867 13.626-13.21Zm0 0"/><path style="stroke:none;fill-rule:nonzero;fill:#fff;fill-opacity:1" d="M37.047 22.68a4.689 4.689 0 0 1-9.375 0 4.688 4.688 0 0 1 9.375 0ZM48.89 27.371a3.77 3.77 0 0 0-3.761-3.777c-2.074 0-3.758 1.691-3.758 3.777 0 2.086 1.684 3.777 3.758 3.777a3.77 3.77 0 0 0 3.762-3.777ZM39.668 12.852a2.622 2.622 0 1 1-5.246 0 2.622 2.622 0 0 1 2.625-2.622 2.619 2.619 0 0 1 2.621 2.622Zm0 0"/><path style="stroke:none;fill-rule:nonzero;fill:#50e6ff;fill-opacity:1" d="M62.016 61.512H31.082c-.984 0-1.562-1.575-1.004-2.387L40.742 43.59c.145-.207.219-.457.219-.711V32.613A.618.618 0 0 0 40.34 32h-.57a1.222 1.222 0 0 1-1.223-1.223v-.554c0-.676.547-1.223 1.223-1.223h13.562c.676 0 1.223.547 1.223 1.223v.55A1.22 1.22 0 0 1 53.332 32h-.57a.612.612 0 0 0-.614.613v10.293c-.003.254.075.5.22.711L63.03 59.125c.555.793-.031 2.387-1.015 2.387Zm0 0"/><path style="stroke:none;fill-rule:nonzero;fill:#fff;fill-opacity:1" d="m34.652 57.344 8.098-11.805c.336-.492.52-1.074.516-1.676V39.11c0-.52.422-.941.945-.941h4.594c.52 0 .941.422.941.941v5.078c0 .403.125.797.356 1.13l8.265 12.027a.71.71 0 0 1-.578 1.105H35.23a.71.71 0 0 1-.578-1.105Zm0 0"/><path style="stroke:none;fill-rule:nonzero;fill:#86d633;fill-opacity:1" d="m42.484 53.453 1.649 3.813c.035.09.125.148.226.144a.234.234 0 0 0 .215-.164l1.719-5.101a.236.236 0 0 1 .207-.165.232.232 0 0 1 .227.13l1.402 2.671a.236.236 0 0 0 .207.117c.082 0 .16-.043.203-.117l1.871-3.16a.228.228 0 0 1 .207-.117h3.758l-.766-1.11a.239.239 0 0 0-.195-.101h-3.488a.24.24 0 0 0-.203.113l-1.118 1.89a.236.236 0 0 1-.207.126.236.236 0 0 1-.207-.125l-1.71-3.25a.235.235 0 0 0-.434.035l-1.602 4.793a.239.239 0 0 1-.215.164.233.233 0 0 1-.226-.148l-1.375-3.2a.234.234 0 0 0-.215-.132c-.09 0-.172.05-.21.132l-1.95 3.555a.238.238 0 0 1-.211.121h-3.2a.233.233 0 0 0-.195.106l-.761 1.105h4.86a.246.246 0 0 0 .21-.121l1.105-2.012a.233.233 0 0 1 .422.008Zm0 0"/></svg>