<svg xmlns="http://www.w3.org/2000/svg" width="64" height="64"><defs><linearGradient id="a" gradientUnits="userSpaceOnUse" x1="9" y1="17.86" x2="9" y2="4.06" gradientTransform="scale(3.55556)"><stop offset="0" style="stop-color:#0078d4;stop-opacity:1"/><stop offset=".16" style="stop-color:#1380da;stop-opacity:1"/><stop offset=".53" style="stop-color:#3c91e5;stop-opacity:1"/><stop offset=".82" style="stop-color:#559cec;stop-opacity:1"/><stop offset="1" style="stop-color:#5ea0ef;stop-opacity:1"/></linearGradient></defs><path style="stroke:none;fill-rule:nonzero;fill:url(#a)" d="M59.2 60.73 46.436 27.59a1.004 1.004 0 0 0-.925-.64H36.41v-7.891a4.626 4.626 0 0 0-2.18-4.34 4.618 4.618 0 0 0-4.851 0 4.626 4.626 0 0 0-2.18 4.34v7.89h-8.21c-.423 0-.802.254-.962.64L4.801 60.73c-.27.579-.242 1.25.078 1.801.32.551.887.914 1.52.973h51.203a1.97 1.97 0 0 0 1.52-.973c.32-.55.347-1.222.077-1.8Zm0 0"/><path style="stroke:none;fill-rule:nonzero;fill:#83b9f9;fill-opacity:1" d="m11.98 42.668 30.688-15.719h2.664c.434-.004.82.266.961.676l2.953 7.645L6.398 56.89ZM33.922 63.43l21.332-12.797 3.875 10.097c.254.583.21 1.254-.113 1.801-.32.551-.887.91-1.524.973Zm0 0"/><path style="stroke:none;fill-rule:nonzero;fill:#0078d4;fill-opacity:1" d="M31.54.57 16.89 9.066a.56.56 0 0 0-.285.496v1.317c0 .316.254.57.567.57h2.207v15.5h2.773v-15.5h19.34v15.5h2.738v-15.5h2.243a.568.568 0 0 0 .566-.57V9.563a.56.56 0 0 0-.285-.497L32 .57a.773.773 0 0 0-.46 0Zm0 0"/></svg>