<svg xmlns="http://www.w3.org/2000/svg" xmlns:xlink="http://www.w3.org/1999/xlink" width="64" height="64"><defs><linearGradient id="c" gradientUnits="userSpaceOnUse" x1="8.956" y1="14.347" x2="8.956" y2="1.59" gradientTransform="scale(3.55556)"><stop offset="0" style="stop-color:#0078d4;stop-opacity:1"/><stop offset="1" style="stop-color:#5ea0ef;stop-opacity:1"/></linearGradient><linearGradient id="d" gradientUnits="userSpaceOnUse" x1="9.014" y1="15.941" x2="9.014" y2="12.602" gradientTransform="scale(3.55556)"><stop offset="0" style="stop-color:#76bc2d;stop-opacity:1"/><stop offset=".817" style="stop-color:#86d633;stop-opacity:1"/></linearGradient><clipPath id="b"><path d="M0 0h64v64H0z"/></clipPath><filter id="a" filterUnits="objectBoundingBox" x="0%" y="0%" width="100%" height="100%"><feColorMatrix in="SourceGraphic" values="0 0 0 0 1 0 0 0 0 1 0 0 0 0 1 0 0 0 1 0"/></filter><mask id="f"><g filter="url(#a)"><path style="fill:#000;fill-opacity:.6;stroke:none" d="M0 0h64v64H0z"/></g></mask><g id="e" clip-path="url(#b)"><path style="stroke:none;fill-rule:nonzero;fill:#fff;fill-opacity:1" d="M47.902 51.355h1.793c.403 0 .727.325.727.727v1.793a.724.724 0 0 1-.727.723h-1.793a.724.724 0 0 1-.722-.723v-1.793c0-.402.324-.727.722-.727Zm0 0"/></g></defs><path style="stroke:none;fill-rule:nonzero;fill:url(#c)" d="M63.844 36.809a14.38 14.38 0 0 0-12.48-13.825C50.93 13.078 42.62 5.36 32.71 5.652a18.585 18.585 0 0 0-17.777 12.125C6.52 18.797.109 25.81-.156 34.277c.375 9.59 8.43 17.07 18.02 16.735.534 0 1.066-.024 1.59-.067h29.179c.265.004.531-.03.789-.101 7.789-.063 14.148-6.25 14.422-14.035Zm0 0"/><path style="stroke:none;fill-rule:nonzero;fill:#fff;fill-opacity:1" d="M41.082 28.004a9.005 9.005 0 0 0-7.457-8.91 9 9 0 0 0-10.035 5.855 9 9 0 0 0 4.09 10.875v11.66h8.644V35.91a8.978 8.978 0 0 0 4.758-7.906ZM33.656 44.8h-3.308v-7.965a9.148 9.148 0 0 0 1.726.176 9.323 9.323 0 0 0 1.582-.16Zm0-10.688a6.363 6.363 0 0 1-1.582.223 6.151 6.151 0 0 1-1.726-.27Zm2.668-1.422-8.644-.132a6.348 6.348 0 1 1 8.644.12Zm0 0"/><path style="stroke:none;fill-rule:nonzero;fill:url(#d)" d="M11.79 44.809h40.515c.8 0 1.453.648 1.453 1.449v8.969c0 .8-.653 1.449-1.453 1.449H11.789c-.8 0-1.45-.649-1.45-1.45v-8.968c0-.801.65-1.45 1.45-1.45Zm0 0"/><path style="stroke:none;fill-rule:nonzero;fill:#fff;fill-opacity:1" d="M47.902 46.883h1.793c.403 0 .727.324.727.726v1.793a.724.724 0 0 1-.727.723h-1.793a.724.724 0 0 1-.722-.723V47.61c0-.402.324-.726.722-.726Zm0 0"/><use xlink:href="#e" mask="url(#f)"/><path style="stroke:none;fill-rule:nonzero;fill:#76bc2d;fill-opacity:1" d="M38.398 28.004a6.333 6.333 0 0 0-5.738-6.344 6.34 6.34 0 0 0-2.313 12.414v10.727h3.31V34.133a6.32 6.32 0 0 0 4.741-6.13Zm0 0"/></svg>