<svg xmlns="http://www.w3.org/2000/svg" width="64" height="64"><defs><linearGradient id="a" gradientUnits="userSpaceOnUse" x1="12.805" y1="15.237" x2="12.805" y2="7.962" gradientTransform="scale(3.55556)"><stop offset="0" style="stop-color:#0078d4;stop-opacity:1"/><stop offset=".156" style="stop-color:#1380da;stop-opacity:1"/><stop offset=".528" style="stop-color:#3c91e5;stop-opacity:1"/><stop offset=".822" style="stop-color:#559cec;stop-opacity:1"/><stop offset="1" style="stop-color:#5ea0ef;stop-opacity:1"/></linearGradient></defs><path style="stroke:none;fill-rule:nonzero;fill:#949494;fill-opacity:1" d="M55.465 20.266H.238v-9.633c0-.445.36-.805.805-.805h53.605a.81.81 0 0 1 .809.805Zm0 0"/><path style="stroke:none;fill-rule:nonzero;fill:#bfbfbf;fill-opacity:1" d="M.223 20.266H55.44v32.902a.821.821 0 0 1-.82.824H1.047a.822.822 0 0 1-.824-.824Zm0 0"/><path style="stroke:none;fill-rule:nonzero;fill:#005ba1;fill-opacity:1" d="M4.035 23.11h47.54v26.917H4.034Zm0 0"/><path style="stroke:none;fill-rule:nonzero;fill:#fff;fill-opacity:1" d="M17.207 38.18h8.215c.515 0 .933.418.933.933v.004a.937.937 0 0 1-.933.938h-8.215a.938.938 0 0 1-.937-.938v-.004c0-.515.418-.933.937-.933ZM9.512 39.875l5.953-5.953a.603.603 0 0 0 0-.867L9.422 27.25a.613.613 0 0 0-.442-.168.613.613 0 0 0-.425.203l-.45.45a.608.608 0 0 0 .036.84l4.742 4.491a.609.609 0 0 1 0 .86l-4.625 4.742a.606.606 0 0 0 0 .848l.355.355a.62.62 0 0 0 .45.203.616.616 0 0 0 .449-.199Zm0 0"/><path style="stroke:none;fill-rule:nonzero;fill:url(#a)" d="M63.777 46.074a8.175 8.175 0 0 0-7.113-7.879c-.242-5.656-4.988-10.062-10.644-9.886a10.603 10.603 0 0 0-10.137 6.89 9.787 9.787 0 0 0-8.606 9.414c.211 5.473 4.809 9.739 10.278 9.547l.906-.039h16.648c.153 0 .301-.023.442-.066a8.297 8.297 0 0 0 8.226-7.977Zm0 0"/></svg>