<svg xmlns="http://www.w3.org/2000/svg" width="64" height="64"><defs><linearGradient id="a" gradientUnits="userSpaceOnUse" x1="8.991" y1="14.11" x2="8.991" y2="1.365" gradientTransform="scale(3.55556)"><stop offset="0" style="stop-color:#773adc;stop-opacity:1"/><stop offset=".817" style="stop-color:#a67af4;stop-opacity:1"/></linearGradient><linearGradient id="b" gradientUnits="userSpaceOnUse" x1="12.253" y1="4.246" x2="12.253" y2="9.797" gradientTransform="scale(3.55556)"><stop offset="0" style="stop-color:#c3f1ff;stop-opacity:1"/><stop offset=".999" style="stop-color:#9cebff;stop-opacity:1"/></linearGradient><linearGradient id="c" gradientUnits="userSpaceOnUse" x1="12.253" y1="16.635" x2="12.253" y2="12.512" gradientTransform="scale(3.55556)"><stop offset="0" style="stop-color:#c3f1ff;stop-opacity:1"/><stop offset=".999" style="stop-color:#9cebff;stop-opacity:1"/></linearGradient></defs><path style="stroke:none;fill-rule:nonzero;fill:url(#a)" d="M63.938 35.977c0-2.91-4.243-3.868-5.876-6.106-2.246-3.082-2.488-7.031-6.597-7.703-.422-9.902-8.735-17.621-18.645-17.316a18.578 18.578 0 0 0-17.75 12.09A17.148 17.148 0 0 0 0 33.448c.371 9.578 8.422 17.055 18 16.711.54 0 1.07-.023 1.586-.066h29.156c.262-.004.52-.04.77-.114 7.781-.054 14.14-6.23 14.425-14.003Zm0 0"/><path style="stroke:none;fill-rule:nonzero;fill:#005ba1;fill-opacity:1" d="M28.316 23.3h30.5c.59 0 1.067.477 1.067 1.067v10.945c0 .59-.477 1.067-1.067 1.067h-30.5c-.59 0-1.066-.477-1.066-1.066V24.367c0-.59.477-1.066 1.066-1.066Zm0 0"/><path style="stroke:none;fill-rule:nonzero;fill:url(#b)" d="M31.54 15.098h24.058c.59 0 1.066.476 1.066 1.066v17.598c0 .59-.477 1.07-1.066 1.07H31.539c-.59 0-1.066-.48-1.066-1.07V16.164c0-.59.476-1.066 1.066-1.066Zm0 0"/><path style="stroke:none;fill-rule:nonzero;fill:#5ea0ef;fill-opacity:1" d="M25.266 29.086h36.601c1.176 0 2.133.953 2.133 2.133v21.687H23.137V31.22a2.13 2.13 0 0 1 2.129-2.133Zm0 0"/><path style="stroke:none;fill-rule:nonzero;fill:#0078d4;fill-opacity:1" d="M23.137 50.11H64v3.624H23.137Zm0 0"/><path style="stroke:none;fill-rule:nonzero;fill:#83b9f9;fill-opacity:1" d="M29.5 43.75h28.121c.59 0 1.066.48 1.066 1.066v2.106c0 .59-.476 1.066-1.066 1.066H29.5c-.59 0-1.066-.476-1.066-1.066v-2.106c0-.586.476-1.066 1.066-1.066Zm0 0"/><path style="stroke:none;fill-rule:nonzero;fill:#c3f1ff;fill-opacity:1" d="M58.063 35.848a1.013 1.013 0 1 1-2.03-.002 1.013 1.013 0 0 1 2.03.002Zm0 0"/><path style="stroke:none;fill-rule:nonzero;fill:url(#c)" d="M30.473 44.488h26.191v13.59c0 .59-.477 1.07-1.066 1.07H31.535c-.59 0-1.066-.48-1.066-1.07v-13.59Zm0 0"/></svg>