<svg xmlns="http://www.w3.org/2000/svg" width="64" height="64"><defs><linearGradient id="a" gradientUnits="userSpaceOnUse" x1="9" y1="5.38" x2="9" y2="0" gradientTransform="scale(3.55556)"><stop offset=".199" style="stop-color:#005ba1;stop-opacity:1"/><stop offset="1" style="stop-color:#0078d4;stop-opacity:1"/></linearGradient><linearGradient id="b" gradientUnits="userSpaceOnUse" x1="9" y1="12.713" x2="9" y2="5.287" gradientTransform="scale(3.55556)"><stop offset="0" style="stop-color:#198ab3;stop-opacity:1"/><stop offset=".172" style="stop-color:#32bedd;stop-opacity:1"/><stop offset=".5" style="stop-color:#50e6ff;stop-opacity:1"/><stop offset=".5" style="stop-color:#4fe4fd;stop-opacity:1"/><stop offset=".5" style="stop-color:#4bddf8;stop-opacity:1"/><stop offset=".5" style="stop-color:#44d2ee;stop-opacity:1"/><stop offset=".5" style="stop-color:#3ac1e0;stop-opacity:1"/><stop offset=".5" style="stop-color:#2dabce;stop-opacity:1"/><stop offset=".5" style="stop-color:#1d90b8;stop-opacity:1"/><stop offset=".5" style="stop-color:#198ab3;stop-opacity:1"/><stop offset=".662" style="stop-color:#32bedd;stop-opacity:1"/><stop offset=".975" style="stop-color:#50e6ff;stop-opacity:1"/></linearGradient></defs><path style="stroke:none;fill-rule:nonzero;fill:#0078d4;fill-opacity:1" d="M32 0 4.09 15.965v31.894L32 64l27.91-15.965v-32Zm22.754 44.691L32 57.848 9.246 44.832V19.129L32 5.973l22.754 13.191Zm0 0"/><path style="stroke:none;fill-rule:nonzero;fill:url(#a)" d="M32 0 4.09 15.965l5.156 3.164L32 5.973l22.754 13.156 5.156-3.164Zm0 0"/><path style="stroke:none;fill-rule:nonzero;fill:#50e6ff;fill-opacity:1" d="M45.297 37.246a2.572 2.572 0 0 0-1.149-1.02 20.746 20.746 0 0 0-15.921-11.894l23.03-13.309-5.355-3.074-26.226 15.16a2.672 2.672 0 0 0-1.246 3.004 2.67 2.67 0 0 0 2.582 1.977c.11-.02.218-.047.32-.082l.445 1.86a15.352 15.352 0 0 1 17.2 7.956l-26.13 15.102 5.333 3.078L44.324 40.89c.348-.211.645-.496.86-.84l.265-.067c-.023-.101-.062-.195-.086-.297a2.61 2.61 0 0 0-.066-2.44Zm0 0"/><path style="stroke:none;fill-rule:nonzero;fill:url(#b)" d="M42.988 32.047a6.575 6.575 0 0 0-6.574 6.578 6.575 6.575 0 0 0 6.574 6.578 6.578 6.578 0 0 0 0-13.156Zm-21.976-13.32a6.578 6.578 0 0 0 0 13.156 6.575 6.575 0 0 0 6.574-6.578 6.575 6.575 0 0 0-6.574-6.578Zm0 0"/></svg>