<svg xmlns="http://www.w3.org/2000/svg" xmlns:xlink="http://www.w3.org/1999/xlink" width="64" height="64"><defs><linearGradient id="c" gradientUnits="userSpaceOnUse" x1="9" y1="15.342" x2="9" y2="2.658" gradientTransform="scale(3.55556)"><stop offset="0" style="stop-color:#0078d4;stop-opacity:1"/><stop offset=".817" style="stop-color:#5ea0ef;stop-opacity:1"/></linearGradient><clipPath id="b"><path d="M0 0h64v64H0z"/></clipPath><filter id="a" filterUnits="objectBoundingBox" x="0%" y="0%" width="100%" height="100%"><feColorMatrix in="SourceGraphic" values="0 0 0 0 1 0 0 0 0 1 0 0 0 0 1 0 0 0 1 0"/></filter><mask id="e"><g filter="url(#a)"><path style="fill:#000;fill-opacity:.74902;stroke:none" d="M0 0h64v64H0z"/></g></mask><g id="d" clip-path="url(#b)"><path style="stroke:none;fill-rule:nonzero;fill:#fff;fill-opacity:1" d="m4.71 41.766 6.337 5.238a.599.599 0 0 0 .984-.46v-2.282h15.121v-3.555H5.11a.597.597 0 0 0-.398 1.059Zm0 0"/></g></defs><path style="stroke:none;fill-rule:nonzero;fill:url(#c)" d="M63.813 40.422c-.211-7-5.465-12.817-12.407-13.738-.426-9.856-8.699-17.54-18.558-17.235a18.495 18.495 0 0 0-17.664 12.047A17.069 17.069 0 0 0 .188 37.91c.367 9.535 8.378 16.977 17.914 16.64.53 0 1.066-.03 1.578-.073h29.03c.259 0 .517-.04.767-.114 7.738-.062 14.054-6.207 14.336-13.941Zm0 0"/><path style="stroke:none;fill-rule:nonzero;fill:#50e6ff;fill-opacity:1" d="M33.664 37.492c-.18-9.199-7.754-16.531-16.953-16.41C7.508 21.203.129 28.727.188 37.93.25 47.133 7.726 54.559 16.93 54.559H33.672V37.492Zm0 0"/><use xlink:href="#d" mask="url(#e)"/><path style="stroke:none;fill-rule:nonzero;fill:#fff;fill-opacity:1" d="m28.3 36.46-6.468-5.25a.6.6 0 0 0-.98.462v2.297H7.148v3.554h20.774a.6.6 0 0 0 .57-.394.6.6 0 0 0-.191-.668Zm0 0"/></svg>