<svg xmlns="http://www.w3.org/2000/svg" xmlns:xlink="http://www.w3.org/1999/xlink" width="64" height="64"><defs><linearGradient id="d" gradientUnits="userSpaceOnUse" x1="9" y1="15.379" x2="9" y2="2.798" gradientTransform="scale(3.55556)"><stop offset="0" style="stop-color:#0078d4;stop-opacity:1"/><stop offset=".156" style="stop-color:#1380da;stop-opacity:1"/><stop offset=".528" style="stop-color:#3c91e5;stop-opacity:1"/><stop offset=".822" style="stop-color:#559cec;stop-opacity:1"/><stop offset="1" style="stop-color:#5ea0ef;stop-opacity:1"/></linearGradient><linearGradient id="e" gradientUnits="userSpaceOnUse" x1="-416.202" y1="-210.743" x2="-416.202" y2="-217.833" gradientTransform="matrix(3.55556 0 0 -3.55556 1518.67 -731.584)"><stop offset="0" style="stop-color:#c3f1ff;stop-opacity:1"/><stop offset=".107" style="stop-color:#beeffe;stop-opacity:1"/><stop offset=".765" style="stop-color:#32bedd;stop-opacity:1"/></linearGradient><clipPath id="b"><path d="M0 0h64v64H0z"/></clipPath><clipPath id="c"><path d="M0 0h64v64H0z"/></clipPath><mask id="g"><g filter="url(#a)"><path style="fill:#000;fill-opacity:.8;stroke:none" d="M0 0h64v64H0z"/></g></mask><mask id="i"><g filter="url(#a)"><path style="fill:#000;fill-opacity:.85098;stroke:none" d="M0 0h64v64H0z"/></g></mask><g id="f" clip-path="url(#b)"><path style="stroke:none;fill-rule:nonzero;fill:#9cebff;fill-opacity:1" d="M36.785 31.32v12.461l-10.77 6.262v-12.48Zm0 0"/></g><g id="h" clip-path="url(#c)"><path style="stroke:none;fill-rule:nonzero;fill:#9cebff;fill-opacity:1" d="m36.785 31.293-10.77 6.258-10.769-6.262 10.77-6.262Zm0 0"/></g><filter id="a" filterUnits="objectBoundingBox" x="0%" y="0%" width="100%" height="100%"><feColorMatrix in="SourceGraphic" values="0 0 0 0 1 0 0 0 0 1 0 0 0 0 1 0 0 0 1 0"/></filter></defs><path style="stroke:none;fill-rule:nonzero;fill:url(#d)" d="M63.555 40.672A14.182 14.182 0 0 0 51.25 27.039c-.426-9.773-8.629-17.387-18.406-17.082A18.33 18.33 0 0 0 15.32 21.898C7.02 22.906.7 29.824.445 38.18c.364 9.46 8.317 16.84 17.778 16.5.527 0 1.047-.024 1.562-.067h28.781a2.94 2.94 0 0 0 .758-.113c7.68-.059 13.953-6.152 14.23-13.828Zm0 0"/><path style="stroke:none;fill-rule:nonzero;fill:url(#e)" d="m29.762 34.379 8.18-16.078c.18-.348.538-.567.93-.567.386 0 .745.22.925.567l8.144 15.36c.59.96.88 2.073.825 3.198 0 3.371-4.438 6.102-9.914 6.102-5.477 0-9.914-2.73-9.914-6.102a4.201 4.201 0 0 1 .824-2.48Zm0 0"/><path style="stroke:none;fill-rule:nonzero;fill:#fff;fill-opacity:1" d="M29.762 34.516c-.672 1.351-.832 1.582-.832 2.453 0 .176.015.347.039.52v.199h.047c.5 2.609 3.672 4.71 7.785 5.246v-.528c-3.91-.523-6.918-2.488-7.29-4.922.16-2.445 3.126-5.07 7.29-5.66v-.308l-.082.047-.356-.2a10.436 10.436 0 0 0-5.996 3.125l.059-.11 2.531-4.976-.457-.265-2.738 5.398Zm0 0"/><use xlink:href="#f" mask="url(#g)"/><use xlink:href="#h" mask="url(#i)"/><path style="stroke:none;fill-rule:nonzero;fill:#9cebff;fill-opacity:1" d="M26.016 37.563v12.464l-10.77-6.261V31.305Zm0 0"/><path style="stroke:none;fill-rule:nonzero;fill:#fff;fill-opacity:1" d="m26.016 50.348-11.024-6.403V31.172l11.024-6.399 11.023 6.399v12.762Zm-10.512-6.715 10.512 6.11 10.507-6.11v-12.16l-10.507-6.11-10.512 6.106Zm0 0"/><path style="stroke:none;fill-rule:nonzero;fill:#fff;fill-opacity:1" d="M48.754 36.832a5.587 5.587 0 0 0-.824-3.2l-8.145-15.359a1.042 1.042 0 0 0-1.855 0L32.5 28.98l.457.266 5.441-10.71c.086-.18.27-.29.47-.29a.52.52 0 0 1 .46.277l8.14 15.36v.043c.329.5.544 1.062.641 1.652a11.703 11.703 0 0 0-9.597-4.539c-.727 0-1.45.063-2.164.188l.355.199.082-.047v.308a12.347 12.347 0 0 1 1.738-.125c5.239 0 9.47 3.125 9.664 5.801-.449 2.844-4.468 5.047-9.347 5.047a15.09 15.09 0 0 1-2.055-.14v.527c.684.09 1.367.137 2.055.137 5.082 0 9.262-2.352 9.84-5.383h.05c0-.063 0-.121-.02-.184a3.49 3.49 0 0 0 .044-.535Zm0 0"/></svg>