<svg xmlns="http://www.w3.org/2000/svg" width="64" height="64"><defs><linearGradient id="a" gradientUnits="userSpaceOnUse" x1="12.726" y1="2199.244" x2="12.726" y2="2193.605" gradientTransform="matrix(3.55556 0 0 3.55556 0 -7764.06)"><stop offset="0" style="stop-color:#32bedd;stop-opacity:1"/><stop offset=".18" style="stop-color:#32caea;stop-opacity:1"/><stop offset=".41" style="stop-color:#32d2f2;stop-opacity:1"/><stop offset=".78" style="stop-color:#32d4f5;stop-opacity:1"/></linearGradient></defs><path style="stroke:none;fill-rule:nonzero;fill:#83b9f9;fill-opacity:1" d="M1.777 15.746h33.95v18.941c0 .63-.512 1.141-1.141 1.141H2.918c-.629 0-1.14-.512-1.14-1.14Zm0 0"/><path style="stroke:none;fill-rule:nonzero;fill:#1f56a3;fill-opacity:1" d="M2.918 8.496h31.668c.629 0 1.14.508 1.14 1.14v6.11H1.778v-6.11c0-.632.512-1.14 1.141-1.14Zm0 0"/><path style="stroke:none;fill-rule:nonzero;fill:#f2f2f2;fill-opacity:1" d="M6.914 10.676h23.672c.316 0 .57.258.57.574v1.777a.572.572 0 0 1-.57.575H6.914a.572.572 0 0 1-.57-.575V11.25c0-.316.254-.574.57-.574Zm0 0"/><path style="stroke:none;fill-rule:nonzero;fill:#83b9f9;fill-opacity:1" d="M15.008 25.555h33.984v18.937c0 .63-.512 1.14-1.14 1.14H16.148c-.628 0-1.14-.51-1.14-1.14Zm0 0"/><path style="stroke:none;fill-rule:nonzero;fill:#1f56a3;fill-opacity:1" d="M16.148 18.332h31.668c.63 0 1.141.512 1.141 1.14v6.083H15.043v-6.082a1.14 1.14 0 0 1 1.105-1.141Zm0 0"/><path style="stroke:none;fill-rule:nonzero;fill:#f2f2f2;fill-opacity:1" d="M20.148 20.516H43.82c.317 0 .57.257.57.574v1.777c0 .317-.253.57-.57.57H20.148a.568.568 0 0 1-.57-.57V21.09c0-.317.254-.574.57-.574Zm0 0"/><path style="stroke:none;fill-rule:nonzero;fill:url(#a)" d="M28.273 35.426h33.95v18.937a1.14 1.14 0 0 1-1.141 1.14H29.414a1.14 1.14 0 0 1-1.14-1.14Zm0 0"/><path style="stroke:none;fill-rule:nonzero;fill:#0078d4;fill-opacity:1" d="M29.414 28.172h31.668c.629 0 1.14.512 1.14 1.14v6.114H28.274v-6.114c0-.628.512-1.14 1.141-1.14ZM55.637 44.223a2.752 2.752 0 1 1-5.505.003 2.752 2.752 0 0 1 5.505-.003ZM48.117 44.223a2.752 2.752 0 1 1-5.505.003 2.752 2.752 0 0 1 5.505-.003ZM40.36 44.223a2.752 2.752 0 1 1-5.503.003 2.752 2.752 0 0 1 5.502-.003Zm0 0"/><path style="stroke:none;fill-rule:nonzero;fill:#f2f2f2;fill-opacity:1" d="M33.41 30.355h23.672c.316 0 .57.254.57.57v1.778a.572.572 0 0 1-.57.574H33.41a.572.572 0 0 1-.57-.574v-1.777c0-.317.254-.57.57-.57Zm0 0"/></svg>