<svg xmlns="http://www.w3.org/2000/svg" width="64" height="64"><defs><linearGradient id="a" gradientUnits="userSpaceOnUse" x1="-1194.321" y1="9.128" x2="-1190.755" y2="9.128" gradientTransform="matrix(-3.55556 0 0 3.55556 -4195.154 0)"><stop offset="0" style="stop-color:#32bedd;stop-opacity:1"/><stop offset=".998" style="stop-color:#9cebff;stop-opacity:.501961"/></linearGradient><linearGradient id="b" gradientUnits="userSpaceOnUse" x1="-1194.321" y1="9.128" x2="-1190.755" y2="9.128" gradientTransform="matrix(-3.55556 0 0 3.55556 -4195.154 0)"><stop offset="0" style="stop-color:#32bedd;stop-opacity:1"/><stop offset=".998" style="stop-color:#9cebff;stop-opacity:.501961"/></linearGradient><linearGradient id="c" gradientUnits="userSpaceOnUse" x1="80.363" y1="9.135" x2="83.929" y2="9.135" gradientTransform="matrix(3.55556 0 0 3.55556 -273.052 0)"><stop offset="0" style="stop-color:#005ba1;stop-opacity:1"/><stop offset=".998" style="stop-color:#005ba1;stop-opacity:0"/></linearGradient><linearGradient id="d" gradientUnits="userSpaceOnUse" x1="3.555" y1="9.326" x2="14.434" y2="9.326" gradientTransform="scale(3.55556)"><stop offset="0" style="stop-color:#005ba1;stop-opacity:1"/><stop offset=".974" style="stop-color:#32bedd;stop-opacity:1"/></linearGradient></defs><path style="stroke:none;fill-rule:nonzero;fill:#5ea0ef;fill-opacity:1" d="m25.36 15.89-12.676 7.372L0 15.887l12.684-7.371Zm0 0"/><path style="stroke:none;fill-rule:nonzero;fill:#005ba1;fill-opacity:1" d="m25.36 49.047-12.68-7.324v14.691Zm0 0"/><path style="stroke:none;fill-rule:nonzero;fill:#0078d4;fill-opacity:1" d="m12.684 23.262-.004-.004v.004L0 15.887V49.07l12.68 7.371 12.68-7.37v-.024l-12.68 7.367V41.723l12.68 7.324V15.89Zm0 0"/><path style="stroke:none;fill-rule:nonzero;fill:#9cebff;fill-opacity:1" d="m38.64 15.89 12.676 7.372L64 15.887 51.316 8.516Zm0 0"/><path style="stroke:none;fill-rule:nonzero;fill:#32bedd;fill-opacity:1" d="m38.64 49.047 12.68-7.324v14.691Zm0 0"/><path style="stroke:none;fill-rule:nonzero;fill:url(#a)" d="M51.316 23.234h.004V41.7l-12.68 7.348V15.863Zm0 0"/><path style="stroke:none;fill-rule:nonzero;fill:#9cebff;fill-opacity:1" d="m38.64 15.89 12.676 7.372L64 15.887 51.316 8.516Zm0 0"/><path style="stroke:none;fill-rule:nonzero;fill:#50e6ff;fill-opacity:1" d="M51.316 23.262 38.641 15.89v33.156l12.68-7.324v14.691l-12.68-7.367v.023l12.68 7.371L64 49.071V15.886Zm0 0"/><path style="stroke:none;fill-rule:nonzero;fill:#32bedd;fill-opacity:1" d="m38.64 49.047 12.68-7.324v14.691Zm0 0"/><path style="stroke:none;fill-rule:nonzero;fill:url(#b)" d="M51.316 23.234h.004V41.7l-12.68 7.348V15.863Zm0 0"/><path style="stroke:none;fill-rule:nonzero;fill:url(#c)" d="M12.684 23.258h-.004v18.465l12.68 7.347V15.89Zm0 0"/><path style="stroke:none;fill-rule:nonzero;fill:url(#d)" d="M51.281 36.004c-2.218 5.531-10.902 9.187-19.015 9.187h-.57c-8.114 0-16.798-3.656-19.016-9.187 0 0-.09-5.55 0-6.09 1.613 6.176 10.074 10.742 18.82 10.742h.96c8.731 0 17.208-4.566 18.821-10.742.09.54 0 6.09 0 6.09Zm-3.636-14.875a23.661 23.661 0 0 1-15.184 5.238H31.5a23.656 23.656 0 0 1-15.172-5.226l-3.043 1.777c2.902 4.848 10.895 7.98 18.41 7.98h.57c7.52 0 15.524-3.14 18.422-8.003Zm0 0"/></svg>