<svg xmlns="http://www.w3.org/2000/svg" xmlns:xlink="http://www.w3.org/1999/xlink" width="64" height="64"><defs><clipPath id="b"><path d="M0 0h64v64H0z"/></clipPath><clipPath id="c"><path d="M0 0h64v64H0z"/></clipPath><mask id="f"><g filter="url(#a)"><path style="fill:#000;fill-opacity:.8;stroke:none" d="M0 0h64v64H0z"/></g></mask><mask id="h"><g filter="url(#a)"><path style="fill:#000;fill-opacity:.6;stroke:none" d="M0 0h64v64H0z"/></g></mask><g id="e" clip-path="url(#b)"><path style="stroke:none;fill-rule:nonzero;fill:#fff;fill-opacity:1" d="M30.91 40.102h23.7c.59 0 1.066.48 1.066 1.066v3.898c0 .59-.477 1.067-1.067 1.067H30.91c-.59 0-1.07-.477-1.07-1.067v-3.898c0-.586.48-1.066 1.07-1.066Zm0 0"/></g><g id="g" clip-path="url(#c)"><path style="stroke:none;fill-rule:nonzero;fill:#fff;fill-opacity:1" d="M30.91 49.848h23.7c.59 0 1.066.48 1.066 1.066v3.898c0 .59-.477 1.067-1.067 1.067H30.91c-.59 0-1.07-.477-1.07-1.066v-3.899c0-.586.48-1.066 1.07-1.066Zm0 0"/></g><linearGradient id="d" gradientUnits="userSpaceOnUse" x1="9" y1="15.563" x2="9" y2="-2.323" gradientTransform="scale(3.55556)"><stop offset="0" style="stop-color:#0078d4;stop-opacity:1"/><stop offset="1" style="stop-color:#5ea0ef;stop-opacity:1"/></linearGradient><filter id="a" filterUnits="objectBoundingBox" x="0%" y="0%" width="100%" height="100%"><feColorMatrix in="SourceGraphic" values="0 0 0 0 1 0 0 0 0 1 0 0 0 0 1 0 0 0 1 0"/></filter></defs><path style="stroke:none;fill-rule:nonzero;fill:url(#d)" d="M64 33.777a14.556 14.556 0 0 0-12.48-14.082C51.19 9.684 42.867 1.801 32.852 2.023A18.741 18.741 0 0 0 14.988 14.38C6.523 15.504.152 22.652 0 31.19.266 40.88 8.332 48.52 18.02 48.258c.535 0 1.066-.024 1.59-.07h29.18c.26 0 .519-.043.773-.118 7.863-.129 14.23-6.43 14.437-14.293Zm0 0"/><path style="stroke:none;fill-rule:nonzero;fill:#50e6ff;fill-opacity:1" d="M28.266 25.84H56a2.13 2.13 0 0 1 2.133 2.133v27.73c0 1.18-.953 2.137-2.133 2.137H28.266a2.136 2.136 0 0 1-2.133-2.137v-27.73c0-1.18.957-2.133 2.133-2.133Zm0 0"/><path style="stroke:none;fill-rule:nonzero;fill:#50e6ff;fill-opacity:1" d="M26.715 25.574h30.832c1.18 0 2.133.957 2.133 2.133v30.832a2.13 2.13 0 0 1-2.133 2.133H26.715a2.133 2.133 0 0 1-2.133-2.133V27.707c0-1.176.957-2.133 2.133-2.133Zm0 0"/><path style="stroke:none;fill-rule:nonzero;fill:#fff;fill-opacity:1" d="M30.91 30.355h23.7c.59 0 1.066.48 1.066 1.07v3.895c0 .59-.477 1.067-1.067 1.067H30.91c-.59 0-1.07-.477-1.07-1.067v-3.894c0-.59.48-1.07 1.07-1.07Zm0 0"/><use xlink:href="#e" mask="url(#f)"/><use xlink:href="#g" mask="url(#h)"/></svg>