<svg xmlns="http://www.w3.org/2000/svg" width="64" height="64"><defs><linearGradient id="a" gradientUnits="userSpaceOnUse" x1="9" y1="0" x2="9" y2="18" gradientTransform="scale(3.55556)"><stop offset="0" style="stop-color:#5ea0ef;stop-opacity:1"/><stop offset="1" style="stop-color:#0078d4;stop-opacity:1"/></linearGradient><linearGradient id="b" gradientUnits="userSpaceOnUse" x1="-998.057" y1="-213.109" x2="-1002.698" y2="-204.987" gradientTransform="matrix(0 3.55556 -3.55556 0 -694.297 3580.416)"><stop offset="0" style="stop-color:#fff;stop-opacity:1"/><stop offset="1" style="stop-color:#fff;stop-opacity:.301961"/></linearGradient><linearGradient id="c" gradientUnits="userSpaceOnUse" x1="-122.365" y1="1106.487" x2="-127.006" y2="1114.61" gradientTransform="matrix(0 -3.55556 3.55556 0 -3932.53 -399.918)"><stop offset="0" style="stop-color:#fff;stop-opacity:1"/><stop offset="1" style="stop-color:#fff;stop-opacity:.301961"/></linearGradient></defs><path style="stroke:none;fill-rule:nonzero;fill:url(#a)" d="M2.133 0h59.734C63.043 0 64 .957 64 2.133v59.734A2.136 2.136 0 0 1 61.867 64H2.133A2.136 2.136 0 0 1 0 61.867V2.133C0 .957.957 0 2.133 0Zm0 0"/><path style="stroke:none;fill-rule:nonzero;fill:#fff;fill-opacity:1" d="M47.223 34.922a12.623 12.623 0 0 0-6.922 1.91v3.344c1.84-1.614 4.199-2.5 6.644-2.492 2.797 0 4.196 1.73 4.196 5.187l-6.106.86c-4.48.62-6.719 2.835-6.719 6.64a5.557 5.557 0 0 0 1.72 4.266 6.686 6.686 0 0 0 4.76 1.613 6.831 6.831 0 0 0 6.267-3.66h.078v3.183h3.257V42.516c0-5.063-2.39-7.594-7.175-7.594Zm3.91 12.566a6.073 6.073 0 0 1-1.582 4.305 5.221 5.221 0 0 1-4.004 1.7 4.11 4.11 0 0 1-2.844-.942 3.1 3.1 0 0 1-1.066-2.434 3.251 3.251 0 0 1 1.152-2.847 7.996 7.996 0 0 1 3.434-1.133l4.91-.676Zm0 0"/><path style="stroke:none;fill-rule:nonzero;fill:url(#b)" d="m49.004 31.613 5.465-5.617c.593-.59.375-1.105-.57-1.105h-2.43c-.39 0-.711-.32-.711-.711.078-3.625-.938-13.684-14.68-14.024a.709.709 0 0 0-.71.711v3.555c0 .2.081.387.226.523a.715.715 0 0 0 .543.188 8.434 8.434 0 0 1 7.383 1.941 8.436 8.436 0 0 1 2.796 7.106c0 .39-.32.71-.71.71h-2.227c-1.145 0-1.34.356-.574 1.106l5.066 5.617a.714.714 0 0 0 1.133 0Zm0 0"/><path style="stroke:none;fill-rule:nonzero;fill:url(#c)" d="m16.07 35.313-5.468 5.617c-.594.593-.375 1.11.574 1.11h2.426c.39 0 .71.315.71.71-.09 3.621.922 13.68 14.665 14.023.394 0 .71-.32.71-.714v-3.555a.713.713 0 0 0-.762-.71 8.433 8.433 0 0 1-10.18-9.07c.001-.392.317-.712.712-.712h2.246c1.14 0 1.332-.356.57-1.106l-5.062-5.593a.707.707 0 0 0-.57-.286.718.718 0 0 0-.57.285Zm0 0"/><path style="stroke:none;fill-rule:nonzero;fill:#fff;fill-opacity:1" d="M23.574 15.645a9.322 9.322 0 0 1 5.035 2.652 7.12 7.12 0 0 1 2.188 5.168 7.127 7.127 0 0 1-2.238 5.144 10.81 10.81 0 0 1-6.805 2.637l-1.016-2.285a9.695 9.695 0 0 0 5.692-1.645 4.62 4.62 0 0 0 2.008-3.828 5.036 5.036 0 0 0-1.56-3.636 7.29 7.29 0 0 0-3.886-2.04 23.052 23.052 0 0 1-4.043 8.18c.242.574.555 1.121.93 1.625l-1.906 1.32a7.902 7.902 0 0 1-.774-1.183 8.226 8.226 0 0 1-5.137 2.258 4.051 4.051 0 0 1-2.917-1.125 4.426 4.426 0 0 1-1.168-3.332 8.44 8.44 0 0 1 1.898-5.18 11.728 11.728 0 0 1 4.855-3.773c.06-1.899.118-3.223.184-3.98-1.976.077-3.535.112-4.68.112l-.382-2.199c1.23.047 2.972.027 5.23-.058.156-1.63.406-3.247.746-4.848l2.203.324-.61 4.36c3.087-.204 6.161-.57 9.212-1.106l.465 2.137c-3.27.55-6.567.933-9.875 1.144a25.857 25.857 0 0 0-.211 3.297 14.512 14.512 0 0 1 3.328-.437c.293 0 .578 0 .863.03.2-.589.34-1.202.406-1.82l2.254.325c-.054.59-.152 1.18-.289 1.762Zm-7.39 9.855a24.626 24.626 0 0 1-1.352-6.473 8.729 8.729 0 0 0-3.246 2.844 6.26 6.26 0 0 0-1.2 3.555 2.439 2.439 0 0 0 .509 1.804c.277.286.648.45 1.046.465a5.726 5.726 0 0 0 1.86-.492 6.93 6.93 0 0 0 2.383-1.703Zm4.414-7.855a13.013 13.013 0 0 0-3.47.52c.044 1.765.321 3.515.817 5.206a21.33 21.33 0 0 0 2.653-5.726Zm0 0"/></svg>