<svg xmlns="http://www.w3.org/2000/svg" width="64" height="64"><defs><linearGradient id="a" gradientUnits="userSpaceOnUse" x1="13.119" y1="5.643" x2="11.489" y2="16.919" gradientTransform="scale(3.55556)"><stop offset="0" style="stop-color:#a67af4;stop-opacity:1"/><stop offset="1" style="stop-color:#773adc;stop-opacity:1"/></linearGradient></defs><path style="stroke:none;fill-rule:nonzero;fill:#773adc;fill-opacity:1" d="m17.402 12.328 4.11 2.375-11.403 19.754-4.113-2.375ZM21.54 15.082l4.112-2.375 11.403 19.754-4.11 2.375ZM32.754 34.844v4.746H9.945v-4.746Zm0 0"/><path style="stroke:none;fill-rule:nonzero;fill:#86d633;fill-opacity:1" d="M27.555 9.418a5.778 5.778 0 0 1-5.782 5.781 5.78 5.78 0 1 1 0-11.562 5.78 5.78 0 0 1 5.782 5.781ZM11.563 37.563a5.783 5.783 0 0 1-5.782 5.78 5.78 5.78 0 1 1 0-11.563 5.78 5.78 0 0 1 5.782 5.782Zm0 0"/><path style="stroke:none;fill-rule:nonzero;fill:#fff;fill-opacity:1" d="M62.61 40.348c0 10.457-8.477 18.933-18.934 18.933s-18.934-8.476-18.934-18.933c0-10.457 8.477-18.934 18.934-18.934s18.933 8.477 18.933 18.934Zm0 0"/><path style="stroke:none;fill-rule:nonzero;fill:#773adc;fill-opacity:1" d="M35.031 45.246a1.065 1.065 0 0 1-.754-1.82l4.012-4.008a1.07 1.07 0 0 1 1.055-.332c.383.098.683.394.781.781.094.383-.031.79-.328 1.055l-4.012 4.008c-.2.203-.469.316-.754.316ZM37.996 48.207c-.434 0-.82-.262-.984-.66a1.058 1.058 0 0 1 .23-1.16l4.004-4.008a1.06 1.06 0 0 1 1.043-.305c.379.094.672.39.77.77.097.375-.02.777-.305 1.043l-4 4.011c-.2.2-.473.309-.758.309ZM40.93 51.14a1.078 1.078 0 0 1-.985-.66 1.06 1.06 0 0 1 .23-1.156l4.005-4.011a1.068 1.068 0 1 1 1.512 1.508l-4.008 4.023c-.204.195-.473.3-.754.297ZM42.395 37.883a1.068 1.068 0 0 1-.75-1.82l4.007-4.008a1.063 1.063 0 0 1 1.48.023c.407.406.419 1.063.028 1.484l-4.012 4.004c-.199.204-.468.313-.753.317ZM45.36 40.844a1.068 1.068 0 0 1-.755-1.817l4.008-4.011a1.067 1.067 0 1 1 1.508 1.507l-4.004 4.012c-.203.2-.476.309-.758.309ZM48.293 43.777c-.434 0-.82-.261-.984-.66a1.058 1.058 0 0 1 .23-1.16l4.016-4.012a1.072 1.072 0 0 1 1.511 0 1.072 1.072 0 0 1-.004 1.512l-4.011 4.008c-.2.203-.473.312-.758.312Zm0 0"/><path style="stroke:none;fill-rule:nonzero;fill:#a67af4;fill-opacity:1" d="M34.203 42.746a1.052 1.052 0 0 0-.754-.316c-.285 0-.554.113-.758.316l-6.843 6.844a20.31 20.31 0 0 0 10.48 9.363l6.29-6.285a1.067 1.067 0 0 0 0-1.516Zm0 0"/><path style="stroke:none;fill-rule:nonzero;fill:#b796f9;fill-opacity:1" d="m53.238 22.219-7.797 7.797a1.06 1.06 0 0 0 0 1.511l8.41 8.414a1.073 1.073 0 0 0 1.512 0l7.235-7.23a20.296 20.296 0 0 0-9.36-10.492Zm0 0"/><path style="stroke:none;fill-rule:nonzero;fill:url(#a)" d="M43.734 22.523c9.711 0 17.586 7.875 17.586 17.586 0 9.715-7.875 17.586-17.586 17.586-9.714 0-17.586-7.87-17.586-17.586.012-9.707 7.88-17.574 17.586-17.586m0-2.664c-11.195 0-20.27 9.07-20.27 20.266 0 11.191 9.075 20.266 20.27 20.266C54.926 60.39 64 51.316 64 40.125c0-11.195-9.074-20.266-20.266-20.266Zm0 0"/></svg>