<svg xmlns="http://www.w3.org/2000/svg" xmlns:xlink="http://www.w3.org/1999/xlink" width="64" height="64"><defs><linearGradient id="c" gradientUnits="userSpaceOnUse" x1="6.234" y1="5.679" x2="6.234" y2="16.03" gradientTransform="scale(3.55556)"><stop offset=".227" style="stop-color:#a67af4;stop-opacity:1"/><stop offset="1" style="stop-color:#773adc;stop-opacity:1"/></linearGradient><linearGradient id="f" gradientUnits="userSpaceOnUse" x1="5.972" y1=".13" x2="6.727" y2="9.529" gradientTransform="scale(3.55556)"><stop offset=".225" style="stop-color:#a67af4;stop-opacity:1"/><stop offset="1" style="stop-color:#773adc;stop-opacity:1"/></linearGradient><linearGradient id="g" gradientUnits="userSpaceOnUse" x1="9.128" y1="13.552" x2="18" y2="13.552" gradientTransform="scale(3.55556)"><stop offset="0" style="stop-color:#1988d9;stop-opacity:1"/><stop offset=".9" style="stop-color:#54aef0;stop-opacity:1"/></linearGradient><clipPath id="b"><path d="M0 0h64v64H0z"/></clipPath><filter id="a" filterUnits="objectBoundingBox" x="0%" y="0%" width="100%" height="100%"><feColorMatrix in="SourceGraphic" values="0 0 0 0 1 0 0 0 0 1 0 0 0 0 1 0 0 0 1 0"/></filter><mask id="e"><g filter="url(#a)"><path style="fill:#000;fill-opacity:.8;stroke:none" d="M0 0h64v64H0z"/></g></mask><g id="d" clip-path="url(#b)"><path style="stroke:none;fill-rule:nonzero;fill:#fff;fill-opacity:1" d="M22.398 26.41c-2.382 0-4.714-.687-6.718-1.98l6.664 17.406 6.613-17.3a12.35 12.35 0 0 1-6.559 1.874Zm0 0"/></g></defs><path style="stroke:none;fill-rule:nonzero;fill:#773adc;fill-opacity:1" d="M58 42.477a2.63 2.63 0 0 0 2.637-2.625c.008-.106.008-.211 0-.317-1.051-8.273-5.77-15-14.77-15-9.164 0-13.89 5.703-14.812 15.031a2.65 2.65 0 0 0 2.36 2.907c.089.004.179.004.269 0Zm0 0"/><path style="stroke:none;fill-rule:nonzero;fill:#773adc;fill-opacity:1" d="M54.16 18.184c0 4.586-3.715 8.3-8.3 8.3a8.299 8.299 0 0 1-8.301-8.3c0-4.586 3.714-8.301 8.3-8.301s8.301 3.715 8.301 8.3Zm0 0"/><path style="stroke:none;fill-rule:nonzero;fill:url(#c)" d="M40.375 50.355a3.945 3.945 0 0 0 3.953-3.93c0-.16-.008-.32-.031-.476-1.543-12.386-8.613-22.484-22.098-22.484C8.48 23.465 1.402 32 .02 45.985a3.966 3.966 0 0 0 3.934 4.37Zm0 0"/><use xlink:href="#d" mask="url(#e)"/><path style="stroke:none;fill-rule:nonzero;fill:url(#f)" d="M34.75 13.98c0 6.864-5.566 12.43-12.434 12.43-6.863 0-12.43-5.566-12.43-12.43 0-6.863 5.567-12.43 12.43-12.43 6.868 0 12.434 5.567 12.434 12.43Zm0 0"/><path style="stroke:none;fill-rule:nonzero;fill:url(#g)" d="m48.227 33.922-15.77 22.082 15.77 6.445L64 56.004Zm0 0"/><path style="stroke:none;fill-rule:nonzero;fill:#50e6ff;fill-opacity:1" d="m48.227 33.922-15.77 22.082 15.77 6.445Zm0 0"/></svg>