<svg xmlns="http://www.w3.org/2000/svg" width="64" height="64"><defs><linearGradient id="a" gradientUnits="userSpaceOnUse" x1="7.123" y1="0" x2="7.123" y2="13.962" gradientTransform="scale(3.55556)"><stop offset="0" style="stop-color:#0078d4;stop-opacity:1"/><stop offset="1" style="stop-color:#005ba1;stop-opacity:1"/></linearGradient></defs><path style="stroke:none;fill-rule:nonzero;fill:url(#a)" d="M50.148 24.82c0 13.711-11.113 24.825-24.82 24.825C11.618 49.645.504 38.53.504 24.82.504 11.113 11.617 0 25.328 0c13.707 0 24.82 11.113 24.82 24.82Zm0 0"/><path style="stroke:none;fill-rule:nonzero;fill:#0078d4;fill-opacity:1" d="M62.953 39.695c0 13.125-10.637 23.766-23.766 23.766-13.124 0-23.761-10.64-23.761-23.766 0-13.125 10.636-23.765 23.761-23.765 13.13 0 23.766 10.64 23.766 23.765Zm0 0"/><path style="stroke:none;fill-rule:nonzero;fill:#83b9f9;fill-opacity:1" d="M63.496 38.898h-.039c-.437-13.257-11.426-23.718-24.691-23.5-13.262.22-23.903 11.036-23.903 24.301 0 13.266 10.64 24.078 23.903 24.297 13.265.219 24.254-10.238 24.691-23.5h.04Zm-10.082 0a27.89 27.89 0 0 0-1.953-10.12h7.625a22.63 22.63 0 0 1 2.781 10.12Zm-36.887 1.598h8.766a27.837 27.837 0 0 0 2.008 10.125h-8a22.488 22.488 0 0 1-2.774-10.125ZM38.871 27.18h-8.89a27.477 27.477 0 0 1 8.89-8.77Zm1.598-8.766a25.234 25.234 0 0 1 8.492 8.766h-8.492ZM38.87 28.777v10.121h-11.98c.023-3.5.808-6.953 2.293-10.12ZM25.29 38.898h-8.762a22.53 22.53 0 0 1 2.77-10.12h8.129a26.31 26.31 0 0 0-2.137 10.12Zm1.606 1.598H38.87v10.125h-9.777a25.77 25.77 0 0 1-2.2-10.125ZM38.87 52.23v9.282a26.492 26.492 0 0 1-9.004-9.29Zm1.598 0h8.363a26.11 26.11 0 0 1-8.363 8.868Zm0-1.601V40.496h11.347a25.844 25.844 0 0 1-2.203 10.125Zm0-11.734V28.777h9.246a25.985 25.985 0 0 1 2.097 10.121ZM58.113 27.16h-7.418a26.456 26.456 0 0 0-9.32-10.058A22.722 22.722 0 0 1 58.113 27.18Zm-20.07-10.094a28.455 28.455 0 0 0-9.809 10.114h-7.968a22.68 22.68 0 0 1 17.777-10.114ZM20.266 52.223h7.824a27.176 27.176 0 0 0 9.094 10.074 22.715 22.715 0 0 1-16.918-10.074Zm21.297 10.05a27.212 27.212 0 0 0 9.062-10.05h7.465a22.711 22.711 0 0 1-16.52 10.05Zm17.511-11.652H51.41a27.833 27.833 0 0 0 2.004-10.125h8.453a22.6 22.6 0 0 1-2.785 10.125Zm0 0"/><path style="stroke:none;fill-rule:nonzero;fill:#42e8ca;fill-opacity:1" d="M39.223 34.434a5.484 5.484 0 0 0-2.36.546L22.5 17.29a5.598 5.598 0 0 0-.66-7.294 5.6 5.6 0 0 0-7.309-.394 5.593 5.593 0 0 0 5.453 9.633l14.504 17.878a5.465 5.465 0 0 0-.816 2.844 5.533 5.533 0 0 0 5.535 5.535 5.533 5.533 0 0 0 5.535-5.535 5.533 5.533 0 0 0-5.535-5.535Zm0 0"/></svg>