<svg xmlns="http://www.w3.org/2000/svg" xmlns:xlink="http://www.w3.org/1999/xlink" width="64" height="64"><defs><clipPath id="b"><path d="M0 0h64v64H0z"/></clipPath><clipPath id="c"><path d="M0 0h64v64H0z"/></clipPath><mask id="f"><g filter="url(#a)"><path style="fill:#000;fill-opacity:.6;stroke:none" d="M0 0h64v64H0z"/></g></mask><mask id="h"><g filter="url(#a)"><path style="fill:#000;fill-opacity:.8;stroke:none" d="M0 0h64v64H0z"/></g></mask><g id="e" clip-path="url(#b)"><path style="stroke:none;fill-rule:nonzero;fill:#5ea0ef;fill-opacity:1" d="M6.79 23.668h50.937c1.18 0 2.136.957 2.136 2.133v26.008a2.136 2.136 0 0 1-2.136 2.132H6.789a2.136 2.136 0 0 1-2.137-2.132V25.8c0-1.176.957-2.133 2.137-2.133Zm0 0"/></g><g id="g" clip-path="url(#c)"><path style="stroke:none;fill-rule:nonzero;fill:#fff;fill-opacity:1" d="m25.277 46.992-1.14 1.14a.512.512 0 0 1-.73 0L15.14 39.84a1.03 1.03 0 0 1 0-1.457l1.14-1.137 9 9.02c.2.203.2.527-.004.726Zm12.989 0 1.14 1.14a.512.512 0 0 0 .73 0l8.266-8.292a1.03 1.03 0 0 0 0-1.457l-1.144-1.137-8.996 9.02c-.2.203-.2.527.004.726Zm0 0"/></g><linearGradient id="d" gradientUnits="userSpaceOnUse" x1="9" y1="16.236" x2="9" y2="5.599" gradientTransform="scale(3.55556)"><stop offset="0" style="stop-color:#005ba1;stop-opacity:1"/><stop offset=".775" style="stop-color:#0078d4;stop-opacity:1"/></linearGradient><filter id="a" filterUnits="objectBoundingBox" x="0%" y="0%" width="100%" height="100%"><feColorMatrix in="SourceGraphic" values="0 0 0 0 1 0 0 0 0 1 0 0 0 0 1 0 0 0 1 0"/></filter></defs><path style="stroke:none;fill-rule:nonzero;fill:url(#d)" d="M0 19.91h64v35.68c0 1.18-.957 2.133-2.133 2.133H2.133A2.133 2.133 0 0 1 0 55.59Zm0 0"/><use xlink:href="#e" mask="url(#f)"/><path style="stroke:none;fill-rule:nonzero;fill:#005ba1;fill-opacity:1" d="M2.133 6.273h59.734c1.176 0 2.133.954 2.133 2.133V19.91H0V8.41a2.134 2.134 0 0 1 2.133-2.137Zm0 0"/><use xlink:href="#g" mask="url(#h)"/><path style="stroke:none;fill-rule:nonzero;fill:#fff;fill-opacity:1" d="m24.29 29.984 1.136 1.141a.512.512 0 0 1 0 .73l-9.156 9.13-1.137-1.145a1.025 1.025 0 0 1 0-1.457l8.426-8.403c.203-.199.527-.199.73.004Zm14.956 0-1.137 1.141a.512.512 0 0 0 0 .73l9.157 9.13 1.136-1.141a1.042 1.042 0 0 0 0-1.461l-8.425-8.399a.52.52 0 0 0-.368-.152.532.532 0 0 0-.363.156ZM29.012 51.07l-1.825-.582a.368.368 0 0 1-.238-.465l7.43-23.214a.347.347 0 0 1 .18-.22.353.353 0 0 1 .28-.019l1.825.582a.349.349 0 0 1 .219.18c.047.09.054.191.02.285l-7.43 23.227a.36.36 0 0 1-.46.227ZM11.258 13.68a2.7 2.7 0 0 1-2.703 2.699 2.7 2.7 0 1 1 0-5.402 2.704 2.704 0 0 1 2.703 2.703Zm5.808-2.703a2.7 2.7 0 1 0 0 5.402 2.7 2.7 0 1 0 0-5.402Zm8.508 0a2.7 2.7 0 1 0 0 5.402 2.7 2.7 0 1 0-.008-5.402Zm0 0"/></svg>