<svg xmlns="http://www.w3.org/2000/svg" width="64" height="64"><defs><linearGradient id="a" gradientUnits="userSpaceOnUse" x1="9.261" y1="-.364" x2="6.218" y2="20.052" gradientTransform="scale(3.55556)"><stop offset="0" style="stop-color:#32bedd;stop-opacity:1"/><stop offset="1" style="stop-color:#198ab3;stop-opacity:1"/></linearGradient><linearGradient id="b" gradientUnits="userSpaceOnUse" x1="10.798" y1="7.388" x2="14.441" y2="19.066" gradientTransform="scale(3.55556)"><stop offset="0" style="stop-color:#50e6ff;stop-opacity:1"/><stop offset=".997" style="stop-color:#32bedd;stop-opacity:1"/></linearGradient><linearGradient id="c" gradientUnits="userSpaceOnUse" x1="-.168" y1="4.114" x2="12.572" y2="10.895" gradientTransform="scale(3.55556)"><stop offset="0" style="stop-color:#fff;stop-opacity:1"/><stop offset="1" style="stop-color:#9cebff;stop-opacity:1"/></linearGradient></defs><path style="stroke:none;fill-rule:nonzero;fill:url(#a)" d="M51.3 11.91 32.829 1.246a9.332 9.332 0 0 0-9.324 0L5.035 11.91a9.332 9.332 0 0 0-4.66 8.074V41.32a9.334 9.334 0 0 0 4.66 8.078l18.488 10.664a9.332 9.332 0 0 0 9.325 0l18.488-10.664a9.334 9.334 0 0 0 4.66-8.078V19.984a9.338 9.338 0 0 0-4.695-8.074Zm0 0"/><path style="stroke:none;fill-rule:nonzero;fill:url(#b)" d="m59.883 27.531-12.988-7.5a7.504 7.504 0 0 0-7.493 0l-12.984 7.5a7.466 7.466 0 0 0-3.746 6.485v14.996a7.498 7.498 0 0 0 3.746 6.488l12.984 7.496a7.485 7.485 0 0 0 7.493 0L59.883 55.5a7.495 7.495 0 0 0 3.762-6.488V34.016a7.484 7.484 0 0 0-3.762-6.485Zm0 0"/><path style="stroke:none;fill-rule:nonzero;fill:url(#c)" d="m26.945 10.535 3.739-2.07 16.035 33.234-1.301 1.422h-35.34l.399-4.254h29.8Zm0 0"/><path style="stroke:none;fill-rule:nonzero;fill:#fff;fill-opacity:1" d="M15.047 41.191a5.335 5.335 0 0 1-10.668 0 5.335 5.335 0 0 1 10.668 0ZM51.484 41.516a8.333 8.333 0 0 1-8.336 8.332 8.332 8.332 0 0 1-8.332-8.332 8.333 8.333 0 0 1 8.332-8.336 8.334 8.334 0 0 1 8.336 8.336ZM33.922 9.094a5.335 5.335 0 0 1-5.332 5.336 5.335 5.335 0 0 1 0-10.668 5.331 5.331 0 0 1 5.332 5.332Zm0 0"/></svg>