<svg xmlns="http://www.w3.org/2000/svg" width="64" height="64"><defs><linearGradient id="a" gradientUnits="userSpaceOnUse" x1="7.699" y1="956.076" x2="7.699" y2="960.567" gradientTransform="matrix(3.55556 0 0 3.55556 0 -3377.778)"><stop offset=".23" style="stop-color:#5ea0ef;stop-opacity:1"/><stop offset=".93" style="stop-color:#127fd9;stop-opacity:1"/></linearGradient><linearGradient id="b" gradientUnits="userSpaceOnUse" x1="9.927" y1="957.947" x2="9.927" y2="962.438" gradientTransform="matrix(3.55556 0 0 3.55556 0 -3377.778)"><stop offset=".02" style="stop-color:#5ea0ef;stop-opacity:1"/><stop offset=".93" style="stop-color:#127fd9;stop-opacity:1"/></linearGradient></defs><path style="stroke:none;fill-rule:nonzero;fill:url(#a)" d="M30.535 21.605h-6.398a7.979 7.979 0 0 0-7.88 7.364 7.981 7.981 0 0 0 6.641 8.496 8.566 8.566 0 0 1 .09-2.977 5.04 5.04 0 0 1 1.16-9.953h6.403a5.055 5.055 0 0 1 0 10.11h-1.774a3.89 3.89 0 0 0-.355 1.597c0 .453.086.906.254 1.328h1.875a7.98 7.98 0 0 0 7.054-3.941 7.981 7.981 0 0 0 0-8.082 7.98 7.98 0 0 0-7.054-3.942Zm0 0"/><path style="stroke:none;fill-rule:nonzero;fill:url(#b)" d="M39.758 28.363c.058.407.09.817.094 1.227a8.164 8.164 0 0 1-.176 1.742 5.04 5.04 0 0 1 3.879 5.496 5.046 5.046 0 0 1-5.035 4.461H32.12a5.056 5.056 0 0 1-5.055-5.059 5.053 5.053 0 0 1 5.055-5.054h1.758c.234-.5.355-1.047.355-1.598a3.62 3.62 0 0 0-.254-1.332h-1.847a7.986 7.986 0 0 0 0 15.969h6.398a7.988 7.988 0 0 0 7.88-7.367 7.981 7.981 0 0 0-6.641-8.496Zm0 0"/><path style="stroke:none;fill-rule:nonzero;fill:#50e6ff;fill-opacity:1" d="m19.84 47.578-1.465 1.477a.996.996 0 0 1-1.422 0L.582 32.71a2.011 2.011 0 0 1 0-2.844l1.48-1.453L19.84 46.168a.985.985 0 0 1 0 1.39Zm0 0"/><path style="stroke:none;fill-rule:nonzero;fill:#1490df;fill-opacity:1" d="m18.07 13.781 1.633 1.637a.996.996 0 0 1 0 1.422L2.223 34.363l-1.641-1.62a2.011 2.011 0 0 1 0-2.845l16.074-16.117a1.007 1.007 0 0 1 1.414 0Zm0 0"/><path style="stroke:none;fill-rule:nonzero;fill:#50e6ff;fill-opacity:1" d="M44.148 48.734a.974.974 0 0 1-.296-.687.967.967 0 0 1 .277-.7h.02L61.925 29.61l1.48 1.477a2.011 2.011 0 0 1 0 2.844L47.012 50.242a.98.98 0 0 1-1.39.024l-.02-.02Zm0 0"/><path style="stroke:none;fill-rule:nonzero;fill:#1490df;fill-opacity:1" d="m47.328 14.95 16.09 16.128c.773.781.773 2.04 0 2.82l-1.64 1.637L44.28 18a1.021 1.021 0 0 1 0-1.426l1.637-1.625a1.002 1.002 0 0 1 1.41 0Zm0 0"/></svg>