<svg xmlns="http://www.w3.org/2000/svg" xmlns:xlink="http://www.w3.org/1999/xlink" width="64" height="64"><defs><linearGradient id="n" gradientUnits="userSpaceOnUse" x1="10.467" y1="9.987" x2="10.467" y2="7.506" gradientTransform="scale(3.55556)"><stop offset="0" style="stop-color:#773adc;stop-opacity:1"/><stop offset="1" style="stop-color:#a67af4;stop-opacity:1"/></linearGradient><linearGradient id="o" gradientUnits="userSpaceOnUse" x1="4.288" y1="13.077" x2="4.58" y2="5.029" gradientTransform="scale(3.55556)"><stop offset="0" style="stop-color:#5e9624;stop-opacity:1"/><stop offset="1" style="stop-color:#76bc2d;stop-opacity:1"/></linearGradient><linearGradient id="p" gradientUnits="userSpaceOnUse" x1="8.711" y1="13.237" x2="9.003" y2="5.189" gradientTransform="scale(3.55556)"><stop offset="0" style="stop-color:#5e9624;stop-opacity:1"/><stop offset="1" style="stop-color:#76bc2d;stop-opacity:1"/></linearGradient><linearGradient id="q" gradientUnits="userSpaceOnUse" x1="8.915" y1="13.245" x2="9.207" y2="5.197" gradientTransform="scale(3.55556)"><stop offset="0" style="stop-color:#5e9624;stop-opacity:1"/><stop offset="1" style="stop-color:#76bc2d;stop-opacity:1"/></linearGradient><linearGradient id="r" gradientUnits="userSpaceOnUse" x1="4.471" y1="13.083" x2="4.763" y2="5.035" gradientTransform="scale(3.55556)"><stop offset="0" style="stop-color:#5e9624;stop-opacity:1"/><stop offset="1" style="stop-color:#76bc2d;stop-opacity:1"/></linearGradient><clipPath id="b"><path d="M0 0h64v64H0z"/></clipPath><clipPath id="c"><path d="M0 0h64v64H0z"/></clipPath><clipPath id="d"><path d="M0 0h64v64H0z"/></clipPath><clipPath id="e"><path d="M0 0h64v64H0z"/></clipPath><mask id="g"><g filter="url(#a)"><path style="fill:#000;fill-opacity:.501961;stroke:none" d="M0 0h64v64H0z"/></g></mask><mask id="i"><g filter="url(#a)"><path style="fill:#000;fill-opacity:.501961;stroke:none" d="M0 0h64v64H0z"/></g></mask><mask id="k"><g filter="url(#a)"><path style="fill:#000;fill-opacity:.501961;stroke:none" d="M0 0h64v64H0z"/></g></mask><mask id="m"><g filter="url(#a)"><path style="fill:#000;fill-opacity:.501961;stroke:none" d="M0 0h64v64H0z"/></g></mask><g id="f" clip-path="url(#b)"><path style="stroke:none;fill-rule:nonzero;fill:#a3a3a3;fill-opacity:1" d="M2.18 3.531h4.847v13.446a1.09 1.09 0 0 1-1.09 1.09H1.09A1.088 1.088 0 0 1 0 16.976V5.71a2.131 2.131 0 0 1 2.105-2.18Zm0 0"/></g><g id="h" clip-path="url(#c)"><path style="stroke:none;fill-rule:nonzero;fill:#a3a3a3;fill-opacity:1" d="M56.977 3.531h4.843a2.13 2.13 0 0 1 2.133 2.133V16.97a1.09 1.09 0 0 1-1.086 1.09h-4.8a1.09 1.09 0 0 1-1.09-1.09Zm0 0"/></g><g id="j" clip-path="url(#d)"><path style="stroke:none;fill-rule:nonzero;fill:#a3a3a3;fill-opacity:1" d="M1.09 45.867h4.848c.601 0 1.09.488 1.09 1.086v13.559H2.18a2.144 2.144 0 0 1-1.532-.598A2.16 2.16 0 0 1 0 58.402V47.023a1.085 1.085 0 0 1 1.012-1.156Zm0 0"/></g><g id="l" clip-path="url(#e)"><path style="stroke:none;fill-rule:nonzero;fill:#a3a3a3;fill-opacity:1" d="M58.066 45.867h4.844c.594 0 1.078.473 1.09 1.067v11.265c0 1.18-.957 2.137-2.133 2.137h-4.89V47c-.02-.29.074-.57.265-.79.188-.218.457-.35.746-.37Zm0 0"/></g><filter id="a" filterUnits="objectBoundingBox" x="0%" y="0%" width="100%" height="100%"><feColorMatrix in="SourceGraphic" values="0 0 0 0 1 0 0 0 0 1 0 0 0 0 1 0 0 0 1 0"/></filter></defs><path style="stroke:none;fill-rule:nonzero;fill:#a3a3a3;fill-opacity:1" d="M2.18 3.531h4.847v13.446a1.09 1.09 0 0 1-1.09 1.09H1.09A1.088 1.088 0 0 1 0 16.976V5.71a2.131 2.131 0 0 1 2.105-2.18Zm0 0"/><use xlink:href="#f" mask="url(#g)"/><path style="stroke:none;fill-rule:nonzero;fill:#a3a3a3;fill-opacity:1" d="M56.977 3.531h4.843a2.13 2.13 0 0 1 2.133 2.133V16.97a1.09 1.09 0 0 1-1.086 1.09h-4.8a1.09 1.09 0 0 1-1.09-1.09Zm0 0"/><use xlink:href="#h" mask="url(#i)"/><path style="stroke:none;fill-rule:nonzero;fill:#949494;fill-opacity:1" d="M63.96 5.637v4.691H.114V5.637c0-1.18.957-2.133 2.133-2.133H61.82a2.108 2.108 0 0 1 1.512.621c.402.398.629.945.629 1.512Zm0 0"/><path style="stroke:none;fill-rule:nonzero;fill:#a3a3a3;fill-opacity:1" d="M1.09 45.867h4.848c.601 0 1.09.488 1.09 1.086v13.559H2.18a2.144 2.144 0 0 1-1.532-.598A2.16 2.16 0 0 1 0 58.402V47.023a1.085 1.085 0 0 1 1.012-1.156Zm0 0"/><use xlink:href="#j" mask="url(#k)"/><path style="stroke:none;fill-rule:nonzero;fill:#a3a3a3;fill-opacity:1" d="M58.066 45.867h4.844c.594 0 1.078.473 1.09 1.067v11.265c0 1.18-.957 2.137-2.133 2.137h-4.89V47c-.02-.29.074-.57.265-.79.188-.218.457-.35.746-.37Zm0 0"/><use xlink:href="#l" mask="url(#m)"/><path style="stroke:none;fill-rule:nonzero;fill:#949494;fill-opacity:1" d="M0 58.363v-4.675h63.852v4.695a2.136 2.136 0 0 1-2.133 2.133H2.133A2.138 2.138 0 0 1 0 58.364Zm0 0"/><path style="stroke:none;fill-rule:nonzero;fill:url(#n)" d="m54.883 31.387-7.594-7.692a.379.379 0 0 0-.527-.07.372.372 0 0 0-.14.355v4.73a.36.36 0 0 1-.329.419H27.84a4.39 4.39 0 0 0-3.469-1.715c-.152 0-.3-.023-.445-.023a4.602 4.602 0 0 0 .004 9.203c.144 0 .293 0 .441-.02a4.525 4.525 0 0 0 3.508-1.758h18.344a.373.373 0 0 1 .355.332v4.672a.383.383 0 0 0 .356.395c.113 0 .222-.05.293-.14l7.609-7.571c.3-.305.32-.785.047-1.117Zm0 0"/><path style="stroke:none;fill-rule:nonzero;fill:url(#o)" d="M9.762 19.371v10.961h6.949a7.368 7.368 0 0 1 5.797-5.645v-7.113H11.543c-.477 0-.93.192-1.266.528-.332.335-.52.793-.515 1.27Zm0 0"/><path style="stroke:none;fill-rule:nonzero;fill:url(#p)" d="M36.477 17.59H25.512v7.11a7.337 7.337 0 0 1 3.52 1.605h9.222v-6.938c0-.98-.797-1.777-1.777-1.777Zm0 0"/><path style="stroke:none;fill-rule:nonzero;fill:url(#q)" d="M25.512 39.3v7.036h10.965c.98 0 1.777-.797 1.777-1.777V37.66h-9.172a7.315 7.315 0 0 1-3.57 1.64Zm0 0"/><path style="stroke:none;fill-rule:nonzero;fill:url(#r)" d="M16.71 33.594H9.763v10.965c0 .98.797 1.777 1.781 1.777h10.965v-7.07a7.246 7.246 0 0 1-5.797-5.672Zm0 0"/></svg>