<svg xmlns="http://www.w3.org/2000/svg" xmlns:xlink="http://www.w3.org/1999/xlink" width="64" height="64"><defs><clipPath id="b"><path d="M0 0h64v64H0z"/></clipPath><clipPath id="c"><path d="M0 0h64v64H0z"/></clipPath><clipPath id="d"><path d="M0 0h64v64H0z"/></clipPath><clipPath id="e"><path d="M0 0h64v64H0z"/></clipPath><mask id="g"><g filter="url(#a)"><path style="fill:#000;fill-opacity:.501961;stroke:none" d="M0 0h64v64H0z"/></g></mask><mask id="i"><g filter="url(#a)"><path style="fill:#000;fill-opacity:.501961;stroke:none" d="M0 0h64v64H0z"/></g></mask><mask id="k"><g filter="url(#a)"><path style="fill:#000;fill-opacity:.501961;stroke:none" d="M0 0h64v64H0z"/></g></mask><mask id="m"><g filter="url(#a)"><path style="fill:#000;fill-opacity:.501961;stroke:none" d="M0 0h64v64H0z"/></g></mask><g id="f" clip-path="url(#b)"><path style="stroke:none;fill-rule:nonzero;fill:#a3a3a3;fill-opacity:1" d="M2.18 3.531h4.847v13.446a1.09 1.09 0 0 1-1.09 1.09H1.09A1.088 1.088 0 0 1 0 16.976V5.71a2.131 2.131 0 0 1 2.105-2.18Zm0 0"/></g><g id="h" clip-path="url(#c)"><path style="stroke:none;fill-rule:nonzero;fill:#a3a3a3;fill-opacity:1" d="M56.977 3.531h4.843a2.13 2.13 0 0 1 2.133 2.133V16.97a1.09 1.09 0 0 1-1.086 1.09h-4.8a1.09 1.09 0 0 1-1.09-1.09Zm0 0"/></g><g id="j" clip-path="url(#d)"><path style="stroke:none;fill-rule:nonzero;fill:#a3a3a3;fill-opacity:1" d="M1.09 45.867h4.848c.601 0 1.09.488 1.09 1.086v13.559H2.18a2.144 2.144 0 0 1-1.532-.598A2.16 2.16 0 0 1 0 58.402V47.023a1.085 1.085 0 0 1 1.012-1.156Zm0 0"/></g><g id="l" clip-path="url(#e)"><path style="stroke:none;fill-rule:nonzero;fill:#a3a3a3;fill-opacity:1" d="M58.066 45.867h4.844c.594 0 1.078.473 1.09 1.067v11.265c0 1.18-.957 2.137-2.133 2.137h-4.89V47c-.02-.29.074-.57.265-.79.188-.218.457-.35.746-.37Zm0 0"/></g><linearGradient id="n" gradientUnits="userSpaceOnUse" x1="10.275" y1="11.03" x2="10.275" y2="7.773" gradientTransform="scale(3.55556)"><stop offset="0" style="stop-color:#0078d4;stop-opacity:1"/><stop offset="1" style="stop-color:#5ea0ef;stop-opacity:1"/></linearGradient><filter id="a" filterUnits="objectBoundingBox" x="0%" y="0%" width="100%" height="100%"><feColorMatrix in="SourceGraphic" values="0 0 0 0 1 0 0 0 0 1 0 0 0 0 1 0 0 0 1 0"/></filter></defs><path style="stroke:none;fill-rule:nonzero;fill:#a3a3a3;fill-opacity:1" d="M2.18 3.531h4.847v13.446a1.09 1.09 0 0 1-1.09 1.09H1.09A1.088 1.088 0 0 1 0 16.976V5.71a2.131 2.131 0 0 1 2.105-2.18Zm0 0"/><use xlink:href="#f" mask="url(#g)"/><path style="stroke:none;fill-rule:nonzero;fill:#a3a3a3;fill-opacity:1" d="M56.977 3.531h4.843a2.13 2.13 0 0 1 2.133 2.133V16.97a1.09 1.09 0 0 1-1.086 1.09h-4.8a1.09 1.09 0 0 1-1.09-1.09Zm0 0"/><use xlink:href="#h" mask="url(#i)"/><path style="stroke:none;fill-rule:nonzero;fill:#949494;fill-opacity:1" d="M63.96 5.637v4.691H.114V5.637c0-1.18.957-2.133 2.133-2.133H61.82a2.108 2.108 0 0 1 1.512.621c.402.398.629.945.629 1.512Zm0 0"/><path style="stroke:none;fill-rule:nonzero;fill:#a3a3a3;fill-opacity:1" d="M1.09 45.867h4.848c.601 0 1.09.488 1.09 1.086v13.559H2.18a2.144 2.144 0 0 1-1.532-.598A2.16 2.16 0 0 1 0 58.402V47.023a1.085 1.085 0 0 1 1.012-1.156Zm0 0"/><use xlink:href="#j" mask="url(#k)"/><path style="stroke:none;fill-rule:nonzero;fill:#a3a3a3;fill-opacity:1" d="M58.066 45.867h4.844c.594 0 1.078.473 1.09 1.067v11.265c0 1.18-.957 2.137-2.133 2.137h-4.89V47c-.02-.29.074-.57.265-.79.188-.218.457-.35.746-.37Zm0 0"/><use xlink:href="#l" mask="url(#m)"/><path style="stroke:none;fill-rule:nonzero;fill:#949494;fill-opacity:1" d="M0 58.363v-4.675h63.852v4.695a2.136 2.136 0 0 1-2.133 2.133H2.133A2.138 2.138 0 0 1 0 58.364Zm0 0"/><path style="stroke:none;fill-rule:nonzero;fill:url(#n)" d="M45.934 40.148c.113 0 .222-.05.293-.14l7.609-7.567a.84.84 0 0 0 0-1.132l-7.61-7.688a.368.368 0 0 0-.246-.156.366.366 0 0 0-.28.082.372.372 0 0 0-.141.355v4.735a.374.374 0 0 1-.332.414H27.504a4.397 4.397 0 0 0-3.469-1.711c-.148 0-.293-.024-.441-.024a4.6 4.6 0 0 0-.434 9.18h.875a4.51 4.51 0 0 0 3.512-1.754h17.648c.192 0 .352.145.371.332v4.688a.381.381 0 0 0 .368.386Zm0 0"/><path style="stroke:none;fill-rule:nonzero;fill:#773adc;fill-opacity:1" d="M31.594 37.582a9.766 9.766 0 0 1-17.723-5.633 9.764 9.764 0 0 1 6.75-9.32 9.762 9.762 0 0 1 10.938 3.574h5.296a14.362 14.362 0 0 0-16.109-8.348 14.37 14.37 0 0 0-11.433 14.09A14.368 14.368 0 0 0 20.8 45.992a14.367 14.367 0 0 0 16.078-8.41Zm0 0"/></svg>