<svg xmlns="http://www.w3.org/2000/svg" xmlns:xlink="http://www.w3.org/1999/xlink" width="64" height="64"><defs><linearGradient id="c" gradientUnits="userSpaceOnUse" x1="9" y1="778.831" x2="9" y2="790.831" gradientTransform="matrix(3.55556 0 0 -3.55556 0 2814.28)"><stop offset="0" style="stop-color:#0078d4;stop-opacity:1"/><stop offset=".8" style="stop-color:#5ea0ef;stop-opacity:1"/></linearGradient><linearGradient id="d" gradientUnits="userSpaceOnUse" x1="9" y1="774.201" x2="9" y2="778.831" gradientTransform="matrix(3.55556 0 0 -3.55556 0 2814.28)"><stop offset="0" style="stop-color:#ccc;stop-opacity:1"/><stop offset="1" style="stop-color:#707070;stop-opacity:1"/></linearGradient><clipPath id="b"><path d="M0 0h64v64H0z"/></clipPath><filter id="a" filterUnits="objectBoundingBox" x="0%" y="0%" width="100%" height="100%"><feColorMatrix in="SourceGraphic" values="0 0 0 0 1 0 0 0 0 1 0 0 0 0 1 0 0 0 1 0"/></filter><mask id="f"><g filter="url(#a)"><path style="fill:#000;fill-opacity:.8;stroke:none" d="M0 0h64v64H0z"/></g></mask><g id="e" clip-path="url(#b)"><path style="stroke:none;fill-rule:nonzero;fill:#fff;fill-opacity:1" d="M35.941 7.746a.987.987 0 0 0-.476 1.914 14.603 14.603 0 1 1-15.953 6.531l.394.274 2.77 1.93a.158.158 0 0 0 .137-.055.17.17 0 0 0 .042-.14l-.652-7.555a.169.169 0 0 0-.195-.137L14.934 12.8a.161.161 0 0 0-.118.09.166.166 0 0 0-.004.148l2.918 1.922.165.11a16.531 16.531 0 0 0 1.414 19.359A16.525 16.525 0 0 0 48.422 22.62 16.526 16.526 0 0 0 35.953 7.746Zm0 0"/></g></defs><path style="stroke:none;fill-rule:nonzero;fill:url(#c)" d="M2.133 2.438h59.734C63.043 2.438 64 3.39 64 4.57V42.97c0 1.18-.957 2.133-2.133 2.133H2.133A2.133 2.133 0 0 1 0 42.969V4.57c0-1.18.957-2.133 2.133-2.133Zm0 0"/><path style="stroke:none;fill-rule:nonzero;fill:url(#d)" d="M44.836 58.008c-6.328-.996-6.578-5.547-6.578-12.906H25.707c0 7.359-.215 11.91-6.543 12.906A3.557 3.557 0 0 0 16 61.562h32a3.557 3.557 0 0 0-3.164-3.554Zm0 0"/><use xlink:href="#e" mask="url(#f)"/><path style="stroke:none;fill-rule:nonzero;fill:#fff;fill-opacity:1" d="m39.762 20.621-1.188-2.058.645-3.754-3.02-1.743-2.93 2.438h-2.374l-2.93-2.438-3.02 1.743.657 3.77-1.2 2.042-3.574 1.32v3.489l3.574 1.32 1.188 2.055-.645 3.77 3.02 1.741 2.93-2.433h2.375l2.93 2.433 3.019-1.742-.645-3.758 1.188-2.054 3.574-1.317v-3.488Zm-7.68 8.344a5.27 5.27 0 0 1-5.281-5.258 5.264 5.264 0 0 1 5.262-5.273 5.264 5.264 0 0 1 5.269 5.265 5.265 5.265 0 0 1-5.25 5.266Zm0 0"/></svg>