<svg xmlns="http://www.w3.org/2000/svg" width="64" height="64"><defs><linearGradient id="a" gradientUnits="userSpaceOnUse" x1="15.601" y1="771.736" x2="2.537" y2="793.07" gradientTransform="matrix(3.55556 0 0 -3.55556 0 2814.28)"><stop offset="0" style="stop-color:#0078d4;stop-opacity:1"/><stop offset="1" style="stop-color:#289bf2;stop-opacity:1"/></linearGradient><linearGradient id="b" gradientUnits="userSpaceOnUse" x1="5.138" y1="789.264" x2="13.27" y2="773.77" gradientTransform="matrix(3.55556 0 0 -3.55556 0 2814.28)"><stop offset="0" style="stop-color:#00ccf9;stop-opacity:1"/><stop offset="1" style="stop-color:#0095e6;stop-opacity:1"/></linearGradient><linearGradient id="c" gradientUnits="userSpaceOnUse" x1="5.768" y1="791.577" x2="9.72" y2="780.168" gradientTransform="matrix(3.55556 0 0 -3.55556 0 2814.28)"><stop offset="0" style="stop-color:#7cecff;stop-opacity:1"/><stop offset="1" style="stop-color:#50e6ff;stop-opacity:1"/></linearGradient></defs><path style="stroke:none;fill-rule:nonzero;fill:url(#a)" d="M27.637 13.09 0 40.73v17.454A5.823 5.823 0 0 0 5.816 64h52.368A5.823 5.823 0 0 0 64 58.184V5.816A5.823 5.823 0 0 0 58.184 0H55.27L34.91 20.363Zm0 0"/><path style="stroke:none;fill-rule:nonzero;fill:url(#b)" d="M27.637 30.547 2.082 56.097A4.249 4.249 0 0 0 .73 61.005 5.817 5.817 0 0 0 5.816 64h52.368A5.823 5.823 0 0 0 64 58.184V8.73L34.91 37.816Zm0 0"/><path style="stroke:none;fill-rule:nonzero;fill:url(#c)" d="M34.91 20.363 55.27 0H5.816A5.823 5.823 0 0 0 0 5.816V40.73l27.637-27.64Zm0 0"/></svg>