<svg xmlns="http://www.w3.org/2000/svg" width="64" height="64"><path style="stroke:none;fill-rule:nonzero;fill:#32bedd;fill-opacity:1" d="M58.348 14.238v28.325l-24.48 14.234V28.426Zm0 0"/><path style="stroke:none;fill-rule:nonzero;fill:#9cebff;fill-opacity:1" d="M58.348 14.238 33.87 28.465 9.387 14.235 33.87 0Zm0 0"/><path style="stroke:none;fill-rule:nonzero;fill:#50e6ff;fill-opacity:1" d="M33.867 28.465v28.332L9.387 42.563V14.233Zm0 0"/><path style="stroke:none;fill-rule:nonzero;fill:#9cebff;fill-opacity:1" d="m9.387 42.563 24.48-14.137v28.37Zm0 0"/><path style="stroke:none;fill-rule:nonzero;fill:#50e6ff;fill-opacity:1" d="m58.348 42.563-24.48-14.137v28.37Zm0 0"/><path style="stroke:none;fill-rule:nonzero;fill:#773adc;fill-opacity:1" d="M46.531 52.191 34.676 63.828a.594.594 0 0 1-1.016-.433l.063-6.47v-.39c-14.137-.133-28.2-7.824-28.075-21.418 1.993 3.047 12.012 11.207 28.165 11.38v-.118l.062-6.469a.596.596 0 0 1 1.023-.414l11.633 11.856c.23.234.23.609 0 .84Zm0 0"/></svg>