<svg xmlns="http://www.w3.org/2000/svg" width="64" height="64"><defs><linearGradient id="a" gradientUnits="userSpaceOnUse" x1="7.688" y1="-26.771" x2="7.688" y2="-21.482" gradientTransform="matrix(3.55556 0 0 3.55556 0 113.778)"><stop offset=".23" style="stop-color:#5ea0ef;stop-opacity:1"/><stop offset=".32" style="stop-color:#5b9fee;stop-opacity:1"/><stop offset=".48" style="stop-color:#509aeb;stop-opacity:1"/><stop offset=".57" style="stop-color:#3f92e6;stop-opacity:1"/><stop offset=".75" style="stop-color:#2688df;stop-opacity:1"/><stop offset=".93" style="stop-color:#127fd9;stop-opacity:1"/></linearGradient><linearGradient id="b" gradientUnits="userSpaceOnUse" x1="10.312" y1="-24.568" x2="10.312" y2="-19.279" gradientTransform="matrix(3.55556 0 0 3.55556 0 113.778)"><stop offset=".2" style="stop-color:#50e6ff;stop-opacity:1"/><stop offset=".65" style="stop-color:#32bedd;stop-opacity:1"/><stop offset="1" style="stop-color:#198ab3;stop-opacity:1"/></linearGradient><linearGradient id="c" gradientUnits="userSpaceOnUse" x1="9" y1="5.38" x2="9" y2="0" gradientTransform="scale(3.55556)"><stop offset=".199" style="stop-color:#005ba1;stop-opacity:1"/><stop offset="1" style="stop-color:#0078d4;stop-opacity:1"/></linearGradient></defs><path style="stroke:none;fill-rule:nonzero;fill:url(#a)" d="M31.063 18.594h-7.524a9.4 9.4 0 0 0-1.46 18.676 10.086 10.086 0 0 1 .097-3.493 5.94 5.94 0 0 1-4.61-6.48 5.944 5.944 0 0 1 5.973-5.254h7.523A5.955 5.955 0 0 1 37.017 28a5.955 5.955 0 0 1-5.953 5.957h-2.07a4.525 4.525 0 0 0-.442 1.879c.004.535.105 1.07.3 1.57h2.212A9.405 9.405 0 0 0 40.28 28c0-5.121-4.097-9.3-9.218-9.402Zm0 0"/><path style="stroke:none;fill-rule:nonzero;fill:url(#b)" d="M41.922 26.555c.066.476.105.957.11 1.437a9.743 9.743 0 0 1-.208 2.051 5.942 5.942 0 0 1-1.363 11.734h-7.523a5.952 5.952 0 0 1-5.954-5.957 5.952 5.952 0 0 1 5.953-5.953h2.07a4.232 4.232 0 0 0 .141-3.449h-2.21c-5.122.098-9.22 4.281-9.22 9.402 0 5.121 4.098 9.305 9.22 9.403h7.523a9.401 9.401 0 0 0 1.46-18.676Zm0 0"/><path style="stroke:none;fill-rule:nonzero;fill:#0078d4;fill-opacity:1" d="M32-.09 4.09 15.875V47.77L32 63.91l27.91-15.965v-32Zm22.754 44.695L32 57.762 9.246 44.742V19.04L32 5.883l22.754 13.191Zm0 0"/><path style="stroke:none;fill-rule:nonzero;fill:url(#c)" d="M32 0 4.09 15.965l5.156 3.164L32 5.973l22.754 13.156 5.156-3.164Zm0 0"/></svg>