<svg xmlns="http://www.w3.org/2000/svg" width="64" height="64"><defs><linearGradient id="a" gradientUnits="userSpaceOnUse" x1="9" y1="17.253" x2="9" y2=".747" gradientTransform="scale(3.55556)"><stop offset="0" style="stop-color:#50e6ff;stop-opacity:1"/><stop offset="1" style="stop-color:#9cebff;stop-opacity:1"/></linearGradient></defs><path style="stroke:none;fill-rule:nonzero;fill:#50e6ff;fill-opacity:1" d="M58.184 29.867c0 17.207-20.797 31.063-25.325 33.871a1.64 1.64 0 0 1-1.718 0C26.613 60.93 5.816 47.074 5.816 29.868V9.18a1.647 1.647 0 0 1 1.61-1.64C23.602 7.11 19.875 0 32 0c12.125 0 8.398 7.11 24.574 7.54.895.019 1.606.75 1.61 1.64Zm0 0"/><path style="stroke:none;fill-rule:nonzero;fill:url(#a)" d="M56.016 30.059c0 15.78-19.078 28.484-23.227 31.062-.484.3-1.094.3-1.578 0C27.063 58.543 7.984 45.832 7.984 30.06V11.07a1.514 1.514 0 0 1 1.477-1.504C24.297 9.168 20.883 2.656 32 2.656s7.703 6.512 22.54 6.91c.815.02 1.472.688 1.476 1.504Zm0 0"/><path style="stroke:none;fill-rule:nonzero;fill:#fff;fill-opacity:1" d="M39.59 28.574a4.555 4.555 0 1 1-9.11 0 4.555 4.555 0 0 1 9.11 0ZM31.57 39.676c0 1.699-1.379 3.078-3.074 3.078a3.076 3.076 0 1 1 3.074-3.078ZM30.09 16.254a3.813 3.813 0 0 1-3.813 3.812 3.813 3.813 0 1 1 0-7.628 3.813 3.813 0 0 1 3.813 3.816Zm0 0"/><path style="stroke:none;fill-rule:nonzero;fill:#e6e6e6;fill-opacity:1" d="M43.5 41.406 35.8 27.93l-.765.441.63-.465-8.72-12.394-1.593 1.16 7.722 10.98-17.113 1.41.164 1.989 16.95-1.406-5.622 9.34L29.141 40l5.78-9.617 6.868 12Zm0 0"/><path style="stroke:none;fill-rule:nonzero;fill:#fff;fill-opacity:1" d="M35.035 24.066a4.624 4.624 0 1 1-4.621 4.625v-.117a4.623 4.623 0 0 1 4.621-4.508Zm-12.48-7.82a3.837 3.837 0 0 0 6.53 2.774 3.838 3.838 0 0 0-2.675-6.575h-.098a3.803 3.803 0 0 0-3.757 3.809ZM12.98 30.29a3.08 3.08 0 0 0 3.079 3.078 3.078 3.078 0 0 0 3.074-3.078c0-1.7-1.38-3.078-3.078-3.074a3.075 3.075 0 0 0-3.075 3.074Zm12.446 9.363a3.1 3.1 0 1 0 6.2.047 3.097 3.097 0 0 0-3.08-3.125h-.03a3.083 3.083 0 0 0-3.098 3.055Zm13.687 2.489a3.586 3.586 0 0 0 3.559 3.613 3.586 3.586 0 0 0 3.61-3.563 3.58 3.58 0 0 0-3.563-3.605h-.02a3.532 3.532 0 0 0-3.59 3.469Zm0 0"/></svg>