<svg xmlns="http://www.w3.org/2000/svg" width="64" height="64"><defs><linearGradient id="a" gradientUnits="userSpaceOnUse" x1="-40" y1="74.181" x2="-40" y2="59.819" gradientTransform="matrix(3.55556 0 0 3.55556 174.222 -206.222)"><stop offset="0" style="stop-color:#198ab3;stop-opacity:1"/><stop offset=".619" style="stop-color:#31d0f1;stop-opacity:1"/><stop offset="1" style="stop-color:#32d4f5;stop-opacity:1"/></linearGradient></defs><path style="stroke:none;fill-rule:nonzero;fill:#32bedd;fill-opacity:1" d="M22.102 1.777H10.117A3.648 3.648 0 0 0 6.47 5.426v11.996h7.293V9.074h8.34ZM53.883 1.777h-11.98v7.297h8.335v8.348h7.293V5.426a3.648 3.648 0 0 0-3.648-3.649ZM50.238 46.578v8.336h-8.336v7.309h11.98a3.648 3.648 0 0 0 3.65-3.649V46.578ZM13.762 54.926v-8.348H6.469v11.984a3.644 3.644 0 0 0 3.648 3.66h11.985v-7.296Zm0 0"/><path style="stroke:none;fill-rule:nonzero;fill:url(#a)" d="M13.242 57.531h37.516a2.09 2.09 0 0 0 2.086-2.082V8.535a2.09 2.09 0 0 0-2.086-2.086H13.242a2.09 2.09 0 0 0-2.086 2.086v46.93a2.092 2.092 0 0 0 2.086 2.066Zm0 0"/><path style="stroke:none;fill-rule:nonzero;fill:#fff;fill-opacity:1" d="M16.355 53.367h31.29a1.05 1.05 0 0 0 1.042-1.043V11.68c0-.575-.468-1.043-1.042-1.047h-31.29a1.051 1.051 0 0 0-1.043 1.047v40.644a1.05 1.05 0 0 0 1.043 1.043Zm0 0"/><path style="stroke:none;fill-rule:nonzero;fill:#5e9624;fill-opacity:1" d="M23.664 47.11h16.672a1.04 1.04 0 0 0 1.043-1.04V41.38c0-.574-.465-1.04-1.043-1.043H23.664a1.045 1.045 0 0 0-1.043 1.043v4.691c0 .575.465 1.04 1.043 1.04Zm0 0"/><path style="stroke:none;fill-rule:nonzero;fill:#76bc2d;fill-opacity:1" d="M23.664 35.387h16.672a1.04 1.04 0 0 0 1.043-1.04v-4.69c0-.575-.465-1.044-1.043-1.044H23.664c-.578 0-1.043.469-1.043 1.043v4.692c0 .574.465 1.039 1.043 1.039Zm0 0"/><path style="stroke:none;fill-rule:nonzero;fill:#86d633;fill-opacity:1" d="M23.664 23.664h16.672a1.045 1.045 0 0 0 1.043-1.043V17.93a1.04 1.04 0 0 0-1.043-1.04H23.664a1.04 1.04 0 0 0-1.043 1.04v4.691c0 .574.465 1.04 1.043 1.043Zm0 0"/></svg>