<svg xmlns="http://www.w3.org/2000/svg" width="64" height="64"><defs><linearGradient id="a" gradientUnits="userSpaceOnUse" x1="11.176" y1="7.698" x2="11.176" y2="16.95" gradientTransform="matrix(3.55556 0 0 -3.55556 0 64)"><stop offset="0" style="stop-color:#0078d4;stop-opacity:1"/><stop offset=".149" style="stop-color:#1882db;stop-opacity:1"/><stop offset=".373" style="stop-color:#378fe4;stop-opacity:1"/><stop offset=".594" style="stop-color:#4c99ea;stop-opacity:1"/><stop offset=".806" style="stop-color:#5a9eee;stop-opacity:1"/><stop offset="1" style="stop-color:#5ea0ef;stop-opacity:1"/></linearGradient></defs><path style="stroke:none;fill-rule:nonzero;fill:url(#a)" d="M62.934 26.328a10.42 10.42 0 0 0-9.047-10.02c-.317-7.183-6.344-12.78-13.532-12.566a13.483 13.483 0 0 0-12.882 8.785 12.448 12.448 0 0 0-10.938 11.97c.274 6.952 6.117 12.374 13.07 12.124.383.008.766-.008 1.149-.047H51.91c.192-.004.38-.035.559-.086 5.644-.043 10.258-4.52 10.465-10.16Zm0 0"/><path style="stroke:none;fill-rule:nonzero;fill:#fff;fill-opacity:1" d="m38.316 35.43.07 1.535 1.52.203a9.028 9.028 0 0 1 7.824 8.637 9.173 9.173 0 0 1-9.054 8.89h-.156l-.114.02-.125-.024H14.816a11.462 11.462 0 0 1-4.402-.597 12.053 12.053 0 0 1-3.934-2.285 11.877 11.877 0 0 1-2.632-3.68 10.803 10.803 0 0 1 1.988-11.414A11.162 11.162 0 0 1 12.8 33.28l1.113-.133.387-1.05a12.373 12.373 0 0 1 4.586-5.907A12.189 12.189 0 0 1 26 24.06h.086c6.508-.204 11.96 4.87 12.23 11.375Zm0 0"/><path style="stroke:none;fill-rule:nonzero;fill:#50e6ff;fill-opacity:1" d="m38.367 56.535-.3-.07h-23.25a13.282 13.282 0 0 1-4.977-.688 13.787 13.787 0 0 1-4.531-2.636 13.539 13.539 0 0 1-3.082-4.266 12.657 12.657 0 0 1 2.289-13.352 12.983 12.983 0 0 1 8.101-4.011v-.028a14.083 14.083 0 0 1 5.246-6.754 13.509 13.509 0 0 1 8.153-2.453c7.468-.203 13.722 5.614 14.058 13.075l.051.05a10.78 10.78 0 0 1 9.367 10.344c-.117 5.906-4.898 10.656-10.808 10.727Zm-12.41-30.7a10.443 10.443 0 0 0-9.988 6.876l-.766 2.074-2.191.254a9.472 9.472 0 0 0-5.903 2.898 9.055 9.055 0 0 0-1.632 9.512 9.889 9.889 0 0 0 2.214 3.067 9.902 9.902 0 0 0 3.297 1.898 9.71 9.71 0 0 0 3.707.504h23.813a7.405 7.405 0 0 0 7.43-7.168 7.212 7.212 0 0 0-6.282-6.824l-3-.395-.129-3.027c-.238-5.52-4.863-9.824-10.382-9.668Zm0 0"/><path style="stroke:none;fill-rule:nonzero;fill:#0078d4;fill-opacity:1" d="M18.133 44.445V43.38l-1.09-.356-.277-.746.53-1.113v-.129l-.355-.355-.406-.43h-.137l-1.066.535-.746-.191-.453-1.2h-1.067l-.355 1.094-.746.278-1.242-.586-.766.77v.128l.531 1.067-.297.746-1.3.453v1.066h.148l1.133.383.32.73-.597 1.239.773.773h.125l1.07-.555.746.297.473 1.305h1.066v-.148l.387-1.157.711-.297 1.262.575.746-.746v-.149l-.469-1.027.215-.75Zm-4.512.985a1.522 1.522 0 0 1-1.422-.922 1.513 1.513 0 0 1 .317-1.66 1.51 1.51 0 0 1 1.656-.34c.277.113.515.308.687.558.168.25.254.543.254.844a1.5 1.5 0 0 1-1.422 1.52Zm0 0"/><path style="stroke:none;fill-rule:evenodd;fill:#0078d4;fill-opacity:1" d="M13.566 56.55c-6.933-.038-12.527-5.687-12.5-12.624.028-6.938 5.664-12.54 12.602-12.528 6.934.016 12.55 5.641 12.55 12.579h-3.82a8.752 8.752 0 0 0-8.746-8.762c-4.832-.004-8.757 3.91-8.761 8.746a8.756 8.756 0 0 0 8.75 8.762h2.785a.2.2 0 0 0 .199-.059.2.2 0 0 0 .059-.09.258.258 0 0 0 0-.11v-3.097a.3.3 0 0 1 .183-.238c.102-.024.211 0 .297.062l5.332 5.332c.02.059.02.118 0 .176a.27.27 0 0 1-.098.149l-5.332 5.332a.302.302 0 0 1-.148.066.24.24 0 0 1-.156-.027.264.264 0 0 1-.125-.102.264.264 0 0 1-.051-.152v-3.153a.263.263 0 0 0-.078-.187.272.272 0 0 0-.192-.078h-2.75Zm0 0"/></svg>