<svg xmlns="http://www.w3.org/2000/svg" width="64" height="64"><defs><linearGradient id="a" gradientUnits="userSpaceOnUse" x1="9.908" y1="15.943" x2="7.516" y2="2.383" gradientTransform="scale(3.55556)"><stop offset=".15" style="stop-color:#0078d4;stop-opacity:1"/><stop offset=".8" style="stop-color:#5ea0ef;stop-opacity:1"/><stop offset="1" style="stop-color:#83b9f9;stop-opacity:1"/></linearGradient></defs><path style="stroke:none;fill-rule:nonzero;fill:url(#a)" d="M51.52 25.422c-.313-10.027-8.637-17.934-18.668-17.727a18.741 18.741 0 0 0-17.864 12.403C6.508 21.246.137 28.418 0 36.977c.258 9.699 8.32 17.359 18.02 17.117h31.117c8-.2 14.484-6.54 14.863-14.532a14.598 14.598 0 0 0-12.48-14.14Zm0 0"/><path style="stroke:none;fill-rule:nonzero;fill:#f2f2f2;fill-opacity:1" d="M45.867 40.535v-12.09h-3.199V43.13h8.746v-2.594ZM20.48 34.594a6.386 6.386 0 0 1-1.812-1.102 1.57 1.57 0 0 1-.43-1.137 1.22 1.22 0 0 1 .535-1.066c.438-.3.961-.453 1.493-.426a5.741 5.741 0 0 1 3.554 1.032v-3.06a9.18 9.18 0 0 0-3.554-.57 5.826 5.826 0 0 0-3.875 1.212 3.841 3.841 0 0 0-1.493 3.164c0 1.812 1.137 3.234 3.555 4.3.785.336 1.527.766 2.203 1.282.34.28.535.699.535 1.136 0 .438-.21.848-.57 1.102a2.836 2.836 0 0 1-1.598.39 5.885 5.885 0 0 1-3.875-1.492v3.309a7.694 7.694 0 0 0 3.801.852 6.692 6.692 0 0 0 4.2-1.172 3.851 3.851 0 0 0 1.171-3.239 3.725 3.725 0 0 0-.89-2.488 8.64 8.64 0 0 0-2.95-2.027Zm18.63 5.656a7.78 7.78 0 0 0 0-8.25 6.45 6.45 0 0 0-2.489-2.668 7.078 7.078 0 0 0-3.555-.922 7.5 7.5 0 0 0-3.84.957A6.596 6.596 0 0 0 26.634 32a8.744 8.744 0 0 0-.926 4.055 8.032 8.032 0 0 0 .852 3.554 6.296 6.296 0 0 0 2.453 2.63 7.352 7.352 0 0 0 3.558 1.07l3.055 3.554h4.305l-4.375-3.914a6.344 6.344 0 0 0 3.554-2.699Zm-3.555-.89a3.34 3.34 0 0 1-2.703 1.245 3.256 3.256 0 0 1-2.7-1.28 5.388 5.388 0 0 1-1.03-3.555 5.432 5.432 0 0 1 1.03-3.555 3.548 3.548 0 0 1 2.774-1.317 3.08 3.08 0 0 1 2.664 1.317 5.737 5.737 0 0 1 .96 3.555 5.18 5.18 0 0 1-.995 3.59Zm0 0"/></svg>