<svg xmlns="http://www.w3.org/2000/svg" width="64" height="64"><defs><linearGradient id="a" gradientUnits="userSpaceOnUse" x1="4.969" y1="45.222" x2="79.875" y2="45.222" gradientTransform="matrix(.64 0 0 -.64 0 65.28)"><stop offset="0" style="stop-color:#005ba1;stop-opacity:1"/><stop offset=".07" style="stop-color:#0060a9;stop-opacity:1"/><stop offset=".36" style="stop-color:#0071c8;stop-opacity:1"/><stop offset=".52" style="stop-color:#0078d4;stop-opacity:1"/><stop offset=".64" style="stop-color:#0074cd;stop-opacity:1"/><stop offset=".82" style="stop-color:#006abb;stop-opacity:1"/><stop offset="1" style="stop-color:#005ba1;stop-opacity:1"/></linearGradient></defs><path style="stroke:none;fill-rule:nonzero;fill:url(#a)" d="M27.152 17.566c-13.238 0-23.972-3.742-23.972-8.68v46.227c0 4.746 10.547 8.598 23.636 8.676h.336c13.235 0 23.97-3.742 23.97-8.676V8.887c0 4.824-10.735 8.68-23.97 8.68Zm0 0"/><path style="stroke:none;fill-rule:nonzero;fill:#e8e8e8;fill-opacity:1" d="M51.121 8.887c0 4.824-10.734 8.68-23.969 8.68-13.234 0-23.976-3.743-23.976-8.68C3.176 3.953 13.91.21 27.152.21c13.243 0 23.97 3.742 23.97 8.676Zm0 0"/><path style="stroke:none;fill-rule:nonzero;fill:#50e6ff;fill-opacity:1" d="M45.547 8.176c0 3.07-8.262 5.535-18.399 5.535-10.132 0-18.398-2.465-18.398-5.535 0-3.067 8.266-5.496 18.398-5.496 10.137 0 18.399 2.468 18.399 5.496Zm0 0"/><path style="stroke:none;fill-rule:nonzero;fill:#198ab3;fill-opacity:1" d="M27.152 9.441c-4.93-.054-9.84.664-14.543 2.133 3.188 1.176 9.704 2.332 14.633 2.16a41.78 41.78 0 0 0 14.551-2.21 49.025 49.025 0 0 0-14.64-2.083Zm0 0"/><path style="stroke:none;fill-rule:nonzero;fill:#fff;fill-opacity:1" d="M46.648 61.578c6.942 0 12.567-5.625 12.567-12.566 0-6.938-5.625-12.567-12.567-12.567-6.937 0-12.566 5.63-12.566 12.567 0 6.941 5.629 12.566 12.566 12.566Zm0 0"/><path style="stroke:none;fill-rule:nonzero;fill:#003067;fill-opacity:1" d="M46.348 38.355a10.658 10.658 0 0 1 10.613 9.606 10.658 10.658 0 0 1-8.52 11.5 10.656 10.656 0 1 1-2.094-21.105Zm0-3.816a14.49 14.49 0 0 0-5.574 27.871 14.488 14.488 0 0 0 17.601-5.328 14.484 14.484 0 0 0-1.8-18.297 14.468 14.468 0 0 0-10.227-4.246Zm0 0"/><path style="stroke:none;fill-rule:nonzero;fill:#76bc2d;fill-opacity:1" d="M39.648 52.379a1.725 1.725 0 0 0 1.72 1.71h.01l5.755-.05v-3.617h-3.711v-6.664l-2.113.012a1.717 1.717 0 0 0-1.711 1.73l.015 2.543h-2.281v1.703h2.293ZM53.45 45.41a1.721 1.721 0 0 0-1.72-1.707h-.011l-5.64.047v4.016h3.714v6.27l1.996-.013a1.72 1.72 0 0 0 1.707-1.726l-.016-2.547h2.286v-1.707h-2.297Zm0 0"/></svg>