<svg xmlns="http://www.w3.org/2000/svg" width="64" height="64"><defs><linearGradient id="a" gradientUnits="userSpaceOnUse" x1="8.56" y1="17.59" x2="8.56" y2=".59" gradientTransform="scale(3.55556)"><stop offset="0" style="stop-color:#1988d9;stop-opacity:1"/><stop offset=".22" style="stop-color:#218ddc;stop-opacity:1"/><stop offset=".56" style="stop-color:#379ce5;stop-opacity:1"/><stop offset=".9" style="stop-color:#54aef0;stop-opacity:1"/></linearGradient></defs><path style="stroke:none;fill-rule:nonzero;fill:url(#a)" d="M48.96 56.215c-13.194 10.23-32.187 7.824-42.417-5.371-10.23-13.196-7.828-32.188 5.367-42.418l.32-.211C25.496-1.687 44.254.922 54.312 14.066 64.368 27.211 61.984 46 48.962 56.215"/><path style="stroke:none;fill-rule:nonzero;fill:#fff;fill-opacity:1" d="M30.438 21.938a4.429 4.429 0 0 1-3.168-1.172 3.55 3.55 0 0 1-1.207-2.809 3.545 3.545 0 0 1 1.207-2.809 4.662 4.662 0 0 1 3.168-.925 4.563 4.563 0 0 1 3.164 1.066 3.56 3.56 0 0 1 1.242 2.809 3.552 3.552 0 0 1-1.242 2.843 4.415 4.415 0 0 1-3.164.997Zm2.273 28.62h-4.656a1.495 1.495 0 0 1-1.496-1.492V27.344c0-.828.671-1.496 1.496-1.496h4.656c.824 0 1.492.668 1.492 1.496v21.722c0 .825-.668 1.493-1.492 1.493Zm0 0"/></svg>