<svg xmlns="http://www.w3.org/2000/svg" width="64" height="64"><defs><linearGradient id="a" gradientUnits="userSpaceOnUse" x1="8.66" y1="17.12" x2="8.66" y2="1.03" gradientTransform="scale(3.55556)"><stop offset="0" style="stop-color:#1988d9;stop-opacity:1"/><stop offset=".22" style="stop-color:#218ddc;stop-opacity:1"/><stop offset=".56" style="stop-color:#379ce5;stop-opacity:1"/><stop offset=".9" style="stop-color:#54aef0;stop-opacity:1"/></linearGradient></defs><path style="stroke:none;fill-rule:nonzero;fill:url(#a)" d="M30.793 60.871c29.082-20.836 30.078-32.996 30.184-36.8.18-5.333-.532-19.235-14.754-20.337a15.137 15.137 0 0 0-15.43 10.133 15.218 15.218 0 0 0-15.61-10.133C1.138 4.836.392 18.738.57 24.07c0 3.805 1.137 15.965 30.223 36.801"/><path style="stroke:none;fill-rule:nonzero;fill:#fff;fill-opacity:1" d="M60.977 21.973H46.754a.606.606 0 0 0-.461.25l-4.3 7.43a.572.572 0 0 1-.481.265.572.572 0 0 1-.48-.266l-6.153-11.695a1.095 1.095 0 0 0-.996-.629 1.09 1.09 0 0 0-.992.629l-5.903 17.598a.567.567 0 0 1-.515.328.563.563 0 0 1-.516-.328l-5.05-11.696a1.105 1.105 0 0 0-1.957 0l-6.895 12.407a.573.573 0 0 1-.465.285H5.05a45.635 45.635 0 0 0 3.2 4.34h5.973c.199.011.386-.102.46-.286l4.305-7.93a.565.565 0 0 1 .992 0l5.903 13.723c.164.43.574.715 1.031.715.461 0 .871-.285 1.031-.715l6.223-18.488a.534.534 0 0 1 .996 0l5.191 9.852a1.066 1.066 0 0 0 1.883 0l6.614-11.13a.57.57 0 0 1 .464-.284h11.485"/></svg>