<svg xmlns="http://www.w3.org/2000/svg" xmlns:xlink="http://www.w3.org/1999/xlink" width="64" height="64"><defs><clipPath id="b"><path d="M0 0h64v64H0z"/></clipPath><clipPath id="c"><path d="M0 0h64v64H0z"/></clipPath><clipPath id="d"><path d="M0 0h64v64H0z"/></clipPath><mask id="g"><g filter="url(#a)"><path style="fill:#000;fill-opacity:.74902;stroke:none" d="M0 0h64v64H0z"/></g></mask><mask id="i"><g filter="url(#a)"><path style="fill:#000;fill-opacity:.74902;stroke:none" d="M0 0h64v64H0z"/></g></mask><mask id="k"><g filter="url(#a)"><path style="fill:#000;fill-opacity:.74902;stroke:none" d="M0 0h64v64H0z"/></g></mask><g id="f" clip-path="url(#b)"><path style="stroke:none;fill-rule:nonzero;fill:#ff9300;fill-opacity:1" d="M27.094 57.637a.891.891 0 0 0 1.352-.746V41.066a.962.962 0 0 0-.391-.78.884.884 0 0 0-.938-.04.884.884 0 0 0-.449.82v15.825c.016.3.172.578.426.746Zm0 0"/></g><g id="h" clip-path="url(#c)"><path style="stroke:none;fill-rule:nonzero;fill:#ff9300;fill-opacity:1" d="M21.367 19.379H39.93c.629 0 1.136.508 1.136 1.137v.175c0 .63-.507 1.141-1.136 1.141H21.367a1.141 1.141 0 0 1-1.137-1.14v-.176c0-.63.512-1.137 1.137-1.137Zm0 0"/></g><g id="j" clip-path="url(#d)"><path style="stroke:none;fill-rule:nonzero;fill:#ff9300;fill-opacity:1" d="M21.367 23.36H39.93c.629 0 1.136.511 1.136 1.136v.18c0 .629-.507 1.137-1.136 1.137H21.367a1.138 1.138 0 0 1-1.137-1.137v-.18a1.14 1.14 0 0 1 1.137-1.137Zm0 0"/></g><radialGradient id="e" gradientUnits="userSpaceOnUse" cx="-36.63" cy="17.12" fx="-36.63" fy="17.12" r="11.18" gradientTransform="translate(148.907 -26.311) scale(3.34222)"><stop offset=".27" style="stop-color:#ffd70f;stop-opacity:1"/><stop offset=".49" style="stop-color:#ffcb12;stop-opacity:1"/><stop offset=".88" style="stop-color:#feac19;stop-opacity:1"/><stop offset="1" style="stop-color:#fea11b;stop-opacity:1"/></radialGradient><filter id="a" filterUnits="objectBoundingBox" x="0%" y="0%" width="100%" height="100%"><feColorMatrix in="SourceGraphic" values="0 0 0 0 1 0 0 0 0 1 0 0 0 0 1 0 0 0 1 0"/></filter></defs><path style="stroke:none;fill-rule:nonzero;fill:url(#e)" d="M48.215 25.563a7.356 7.356 0 0 0 0-10.415L35.555 2.453A7.332 7.332 0 0 0 30.363.297a7.339 7.339 0 0 0-5.191 2.156L12.516 15.148a7.43 7.43 0 0 0 0 10.415L23.184 36.23c.375.395.59.915.601 1.458v19.628a2.49 2.49 0 0 0 .711 1.778l4.8 4.8c.306.325.731.512 1.177.512.445 0 .867-.187 1.172-.511l4.656-4.66 2.738-2.739a.916.916 0 0 0 .293-.676c0-.254-.105-.5-.293-.672l-1.953-1.992a1.022 1.022 0 0 1-.32-.746c0-.285.113-.555.32-.746l1.953-1.992a.928.928 0 0 0 0-1.352l-2.062-2.097a.993.993 0 0 1-.317-.73.99.99 0 0 1 .317-.727l2.132-2.098a.932.932 0 0 0 .297-.676c0-.258-.11-.5-.297-.676l-2.734-2.773v-.996ZM30.437 5.512a4.193 4.193 0 0 1 4.157 4.218 4.196 4.196 0 0 1-8.39-.023 4.17 4.17 0 0 1 1.206-2.965 4.153 4.153 0 0 1 2.953-1.23Zm0 0"/><use xlink:href="#f" mask="url(#g)"/><use xlink:href="#h" mask="url(#i)"/><use xlink:href="#j" mask="url(#k)"/></svg>