<svg xmlns="http://www.w3.org/2000/svg" width="64" height="64"><defs><radialGradient id="a" gradientUnits="userSpaceOnUse" cx="8.81" cy="9" fx="8.81" fy="9" r="8.41" gradientTransform="scale(3.55556)"><stop offset="0" style="stop-color:#7956ba;stop-opacity:1"/><stop offset=".69" style="stop-color:#724eb4;stop-opacity:1"/><stop offset=".87" style="stop-color:#6f4bb2;stop-opacity:1"/></radialGradient><radialGradient id="b" gradientUnits="userSpaceOnUse" cx="8.8" cy="9.11" fx="8.8" fy="9.11" r="1.19" gradientTransform="scale(3.55556)"><stop offset="0" style="stop-color:#7f7f7f;stop-opacity:1"/><stop offset="1" style="stop-color:#5e5e5e;stop-opacity:1"/></radialGradient></defs><path style="stroke:none;fill-rule:nonzero;fill:#b0b0b0;fill-opacity:1" d="M61.617 32.285c0 16.692-13.531 30.223-30.222 30.223-16.692 0-30.223-13.531-30.223-30.223 0-16.691 13.531-30.222 30.223-30.222 16.69 0 30.222 13.53 30.222 30.222Zm0 0"/><path style="stroke:none;fill-rule:nonzero;fill:#fff;fill-opacity:1" d="M56.996 32.18c0 14.175-11.492 25.668-25.672 25.668-14.176 0-25.672-11.493-25.672-25.668C5.652 18 17.148 6.508 31.324 6.508c14.18 0 25.672 11.492 25.672 25.672Zm0 0"/><path style="stroke:none;fill-rule:nonzero;fill:#7a7a7a;fill-opacity:1" d="m43.477 18.945 3.191-3.191 1.031 1.031-3.191 3.192ZM49.102 31.54h4.515v1.456h-4.515ZM43.25 45.336l1.027-1.031 3.196 3.195-1.032 1.031ZM30.508 50.098h1.457v4.515h-1.457ZM14.582 16.645l1.031-1.032 3.192 3.192-1.032 1.03ZM14.785 47.648l3.192-3.191 1.03 1.031-3.195 3.192ZM8.535 31.54h4.516v1.456H8.535Zm0 0"/><path style="stroke:none;fill-rule:nonzero;fill:url(#a)" d="M31.43 2.063c-.578 0-1.137.234-1.543.648-.41.414-.633.973-.625 1.555 0 1.222.98 2.222 2.203 2.242 12.21.02 22.734 8.59 25.226 20.539 2.496 11.95-3.722 24.012-14.902 28.914-11.18 4.902-24.266 1.3-31.363-8.629-7.102-9.93-6.274-23.477 1.984-32.469l1.813 2.63L19.27 6.257 7.11 7.68l2.667 3.554C-.219 21.543-1.566 37.47 6.551 49.312c8.113 11.844 23.453 16.333 36.676 10.731C56.445 54.441 63.895 40.305 61.03 26.23 58.168 12.16 45.79 2.055 31.43 2.062Zm0 0"/><path style="stroke:none;fill-rule:nonzero;fill:#7a7a7a;fill-opacity:1" d="M31.324 10.098h.356c1.02 0 1.847.828 1.847 1.847v19.45a1.85 1.85 0 0 1-1.847 1.851h-.356a1.85 1.85 0 0 1-1.847-1.851v-19.45c0-1.02.828-1.847 1.847-1.847Zm0 0"/><path style="stroke:none;fill-rule:nonzero;fill:#7a7a7a;fill-opacity:1" d="m42.176 43.04-.25.253a1.858 1.858 0 0 1-2.617 0l-7.641-7.645a1.846 1.846 0 0 1 0-2.613l.25-.254a1.846 1.846 0 0 1 2.613 0l7.645 7.645c.722.722.722 1.89 0 2.613Zm0 0"/><path style="stroke:none;fill-rule:nonzero;fill:url(#b)" d="M35.59 32.285a4.266 4.266 0 1 1-8.532 0 4.266 4.266 0 0 1 8.532 0Zm0 0"/></svg>