<svg xmlns="http://www.w3.org/2000/svg" width="64" height="64"><path style="stroke:none;fill-rule:nonzero;fill:#949494;fill-opacity:1" d="M1.777 53.617c0 .207.106.395.286.5l4.124 2.309 6.97 4.02c.284.16.648.066.816-.216l2.347-3.98a.566.566 0 0 0-.215-.746L7.93 50.879a.598.598 0 0 1-.285-.496V13.687c0-.203.105-.394.285-.496l8.175-4.62a.571.571 0 0 0 .215-.75L13.973 3.84a.615.615 0 0 0-.348-.317.628.628 0 0 0-.469.032L6.328 7.504 2.062 9.883a.574.574 0 0 0-.285.5Zm0 0"/><path style="stroke:none;fill-rule:nonzero;fill:#a3a3a3;fill-opacity:1" d="m7.61 13.406.21-.215L16 8.571a.492.492 0 0 0 .285-.325.5.5 0 0 0-.07-.426l-2.348-3.98a.53.53 0 0 0-.324-.328.523.523 0 0 0-.457.043L6.223 7.504l-4.23 2.379s-.18 0-.216.215l3.2 1.812ZM16 55.43l-8.18-4.621a.739.739 0 0 1-.246-.32l-5.761 3.554h.18l4.085 2.312 7.113 3.946a.52.52 0 0 0 .442.074.527.527 0 0 0 .34-.285l2.347-3.985a.5.5 0 0 0-.32-.675Zm0 0"/><path style="stroke:none;fill-rule:nonzero;fill:#949494;fill-opacity:1" d="M62.223 53.617a.574.574 0 0 1-.285.5l-4.126 2.309-6.968 4.02a.606.606 0 0 1-.817-.216l-2.347-3.98a.566.566 0 0 1 .215-.746l8.175-4.625a.598.598 0 0 0 .285-.496V13.687a.567.567 0 0 0-.285-.496l-8.175-4.62a.571.571 0 0 1-.215-.75l2.347-3.981a.615.615 0 0 1 .348-.317.628.628 0 0 1 .469.032l6.828 3.875 4.266 2.383a.57.57 0 0 1 .285.5Zm0 0"/><path style="stroke:none;fill-rule:nonzero;fill:#a3a3a3;fill-opacity:1" d="m56.39 13.406-.21-.215L48 8.571a.492.492 0 0 1-.285-.325.5.5 0 0 1 .07-.426l2.348-3.98a.53.53 0 0 1 .324-.328.523.523 0 0 1 .457.043l6.863 3.875 4.23 2.383.216.214-3.2 1.813ZM48 55.43l8.18-4.621a.739.739 0 0 0 .246-.32l5.761 3.554-4.09 2.312-7.109 3.946a.523.523 0 0 1-.441.074.525.525 0 0 1-.344-.285l-2.344-3.985A.494.494 0 0 1 48 55.43Zm0 0"/><path style="stroke:none;fill-rule:nonzero;fill:#32bedd;fill-opacity:1" d="M50.879 21.086v21.828L31.965 53.902V32.035Zm0 0"/><path style="stroke:none;fill-rule:nonzero;fill:#9cebff;fill-opacity:1" d="M50.879 21.086 32 32.07 13.086 21.086 32 10.098Zm0 0"/><path style="stroke:none;fill-rule:nonzero;fill:#50e6ff;fill-opacity:1" d="M31.965 32.07v21.832l-18.88-10.988V21.086Zm0 0"/><path style="stroke:none;fill-rule:nonzero;fill:#9cebff;fill-opacity:1" d="m13.086 42.914 18.879-10.879v21.867Zm0 0"/><path style="stroke:none;fill-rule:nonzero;fill:#50e6ff;fill-opacity:1" d="M50.879 42.914 31.965 32.035v21.867Zm0 0"/></svg>