<svg xmlns="http://www.w3.org/2000/svg" width="64" height="64"><defs><radialGradient id="a" gradientUnits="userSpaceOnUse" cx="-7.55" cy="17.42" fx="-7.55" fy="17.42" r="9" gradientTransform="translate(56.96 -26.204) scale(3.34222)"><stop offset=".18" style="stop-color:#5ea0ef;stop-opacity:1"/><stop offset=".56" style="stop-color:#5c9fee;stop-opacity:1"/><stop offset=".69" style="stop-color:#559ced;stop-opacity:1"/><stop offset=".78" style="stop-color:#4a97e9;stop-opacity:1"/><stop offset=".86" style="stop-color:#3990e4;stop-opacity:1"/><stop offset=".93" style="stop-color:#2387de;stop-opacity:1"/><stop offset=".99" style="stop-color:#087bd6;stop-opacity:1"/><stop offset="1" style="stop-color:#0078d4;stop-opacity:1"/></radialGradient><radialGradient id="b" gradientUnits="userSpaceOnUse" cx="-7.17" cy="18.5" fx="-7.17" fy="18.5" r="1.26" gradientTransform="translate(55.751 -29.653) scale(3.34222)"><stop offset="0" style="stop-color:#7f7f7f;stop-opacity:1"/><stop offset="1" style="stop-color:#5e5e5e;stop-opacity:1"/></radialGradient></defs><path style="stroke:none;fill-rule:nonzero;fill:url(#a)" d="M61.797 32.32c0 16.692-13.531 30.223-30.223 30.223-16.691 0-30.222-13.531-30.222-30.223 0-16.691 13.53-30.222 30.222-30.222s30.223 13.53 30.223 30.222Zm0 0"/><path style="stroke:none;fill-rule:nonzero;fill:#fff;fill-opacity:1" d="M58.027 32.32c0 14.532-11.78 26.313-26.312 26.313-14.531 0-26.309-11.781-26.309-26.313 0-14.53 11.778-26.312 26.309-26.312S58.027 17.789 58.027 32.32Zm0 0"/><path style="stroke:none;fill-rule:nonzero;fill:#7a7a7a;fill-opacity:1" d="m43.898 19.016 3.196-3.196 1.031 1.032-3.195 3.195ZM49.527 31.574h4.516v1.457h-4.516ZM43.691 45.355l1.032-1.03 3.191 3.19-1.027 1.032ZM30.969 50.063h1.457v4.515h-1.457ZM15.113 16.707l1.032-1.031 3.195 3.195-1.031 1.031ZM15.34 47.629l3.191-3.195 1.032 1.03-3.192 3.196ZM9.066 31.574h4.516v1.457H9.066ZM31.715 10.063h.355a1.85 1.85 0 0 1 1.852 1.847v19.485a1.85 1.85 0 0 1-1.852 1.851h-.355a1.85 1.85 0 0 1-1.848-1.851V11.91c0-1.02.828-1.848 1.848-1.848Zm0 0"/><path style="stroke:none;fill-rule:nonzero;fill:#7a7a7a;fill-opacity:1" d="m42.566 42.973-.254.25a1.846 1.846 0 0 1-2.613 0l-7.644-7.645a1.846 1.846 0 0 1 0-2.613l.254-.25a1.846 1.846 0 0 1 2.613 0l7.644 7.64a1.858 1.858 0 0 1 0 2.618Zm0 0"/><path style="stroke:none;fill-rule:nonzero;fill:url(#b)" d="M35.98 32.285a4.266 4.266 0 1 1-8.532 0 4.266 4.266 0 0 1 8.532 0Zm0 0"/></svg>