<svg xmlns="http://www.w3.org/2000/svg" width="64" height="64"><defs><linearGradient id="a" gradientUnits="userSpaceOnUse" x1="7.63" y1="15.34" x2="7.63" y2="5.84" gradientTransform="scale(3.55556)"><stop offset="0" style="stop-color:#ccc;stop-opacity:1"/><stop offset=".15" style="stop-color:#dadada;stop-opacity:1"/><stop offset=".44" style="stop-color:#eee;stop-opacity:1"/><stop offset=".72" style="stop-color:#fbfbfb;stop-opacity:1"/><stop offset="1" style="stop-color:#fff;stop-opacity:1"/></linearGradient></defs><path style="stroke:none;fill-rule:nonzero;fill:#50e6ff;fill-opacity:1" d="M53.332 16.96h-3.555v45.513l3.555-6.864Zm0 0"/><path style="stroke:none;fill-rule:nonzero;fill:#9cebff;fill-opacity:1" d="m53.332 55.574-3.555 6.864 3.555-2.848 4.375-3.375Zm0 0"/><path style="stroke:none;fill-rule:nonzero;fill:#a3a3a3;fill-opacity:1" d="M29.832 10.168a5.578 5.578 0 0 1 5.723-5.367 5.59 5.59 0 0 1 4.011 1.48 5.588 5.588 0 0 1 1.786 3.887v6.793h2.773v-6.793a8.355 8.355 0 0 0-8.57-8.14 8.349 8.349 0 0 0-8.532 8.14v6.793h2.774Zm0 0"/><path style="stroke:none;fill-rule:nonzero;fill:#767676;fill-opacity:1" d="M21.332 10.168a5.582 5.582 0 0 1 5.762-5.367 5.62 5.62 0 0 1 5.797 5.367v6.793h2.664v-6.793a8.387 8.387 0 0 0-8.461-8.14 8.355 8.355 0 0 0-8.535 8.14v6.793h2.773Zm0 0"/><path style="stroke:none;fill-rule:nonzero;fill:#32bedd;fill-opacity:1" d="M49.492 16.96v45.513L5.156 58.949l1.352-41.988ZM53.156 16.96v38.65l4.371.64-1.312-39.29Zm0 0"/><path style="stroke:none;fill-rule:nonzero;fill:url(#a)" d="M43.344 43.77a8.178 8.178 0 0 0-6.367-7.75 10.097 10.097 0 0 0-9.457-9.782A8.787 8.787 0 0 0 18.488 32a8.18 8.18 0 0 0-7.574 8.215 9.743 9.743 0 0 0 9.106 9.562h.78l14.79.996h.39a7.103 7.103 0 0 0 5.153-1.957 7.1 7.1 0 0 0 2.21-5.046Zm0 0"/></svg>