<svg xmlns="http://www.w3.org/2000/svg" width="64" height="64"><defs><linearGradient id="a" gradientUnits="userSpaceOnUse" x1="8.88" y1="17.09" x2="8.88" y2="1.09" gradientTransform="scale(3.55556)"><stop offset="0" style="stop-color:#5e9624;stop-opacity:1"/><stop offset=".01" style="stop-color:#5e9724;stop-opacity:1"/><stop offset=".35" style="stop-color:#6cab29;stop-opacity:1"/><stop offset=".68" style="stop-color:#73b82c;stop-opacity:1"/><stop offset="1" style="stop-color:#76bc2d;stop-opacity:1"/></linearGradient></defs><path style="stroke:none;fill-rule:nonzero;fill:url(#a)" d="M23.04 43.7h17.065v17.066H23.04ZM3.128 20.94h17.066V3.875H5.512a2.382 2.382 0 0 0-2.383 2.383Zm2.383 39.825h14.683V43.699H3.13v14.684a2.382 2.382 0 0 0 2.383 2.383ZM3.129 40.852h17.066V23.785H3.13Zm39.82 19.914h14.723a2.385 2.385 0 0 0 2.348-2.383V43.699H42.95ZM23.04 40.852h17.066V23.785H23.04Zm19.91 0h17.07V23.785H42.95Zm0-36.977v17.066h17.07V6.258c0-1.301-1.046-2.363-2.347-2.383ZM23.04 20.941h17.066V3.875H23.04Zm0 0"/></svg>