<svg xmlns="http://www.w3.org/2000/svg" width="64" height="64"><defs><linearGradient id="a" gradientUnits="userSpaceOnUse" x1="9" y1=".31" x2="9" y2="17.69" gradientTransform="scale(3.55556)"><stop offset="0" style="stop-color:#c69aeb;stop-opacity:1"/><stop offset=".09" style="stop-color:#bb90e4;stop-opacity:1"/><stop offset=".49" style="stop-color:#926bc9;stop-opacity:1"/><stop offset=".81" style="stop-color:#7854b8;stop-opacity:1"/><stop offset="1" style="stop-color:#6f4bb2;stop-opacity:1"/></linearGradient></defs><path style="stroke:none;fill-rule:nonzero;fill:url(#a)" d="m62.793 10.168-8.5-8.426a2.071 2.071 0 0 0-1.527-.64l-15.754.605a1.843 1.843 0 0 0-1.457.605L1.207 36.517a2.096 2.096 0 0 0 0 2.949l22.898 22.793c.832.812 2.16.812 2.989 0L61.547 28.02c.355-.352.57-.82.605-1.317l1.243-14.898a2.028 2.028 0 0 0-.602-1.637ZM52.551 15.75a3.84 3.84 0 1 1 3.84-3.805 3.8 3.8 0 0 1-3.84 3.805Zm0 0"/><path style="stroke:none;fill-rule:nonzero;fill:#552f99;fill-opacity:1" d="M52.55 5.121a6.821 6.821 0 0 0-6.788 6.848 6.824 6.824 0 0 0 6.836 6.804 6.83 6.83 0 0 0 6.816-6.828 6.862 6.862 0 0 0-6.863-6.824Zm3.77 7.57a3.843 3.843 0 0 1-4.02 3.086 3.842 3.842 0 0 1-3.577-3.582 3.838 3.838 0 0 1 3.082-4.015 3.822 3.822 0 0 1 3.465 1.05 3.835 3.835 0 0 1 1.05 3.461Zm0 0"/></svg>