<svg xmlns="http://www.w3.org/2000/svg" xmlns:xlink="http://www.w3.org/1999/xlink" width="64" height="64"><defs><linearGradient id="c" gradientUnits="userSpaceOnUse" x1="9" y1="1.48" x2="9" y2="17.07" gradientTransform="scale(3.55556)"><stop offset="0" style="stop-color:#76bc2d;stop-opacity:1"/><stop offset=".32" style="stop-color:#73b82c;stop-opacity:1"/><stop offset=".65" style="stop-color:#6cab29;stop-opacity:1"/><stop offset=".99" style="stop-color:#5e9724;stop-opacity:1"/><stop offset="1" style="stop-color:#5e9624;stop-opacity:1"/></linearGradient><clipPath id="b"><path d="M0 0h64v64H0z"/></clipPath><filter id="a" filterUnits="objectBoundingBox" x="0%" y="0%" width="100%" height="100%"><feColorMatrix in="SourceGraphic" values="0 0 0 0 1 0 0 0 0 1 0 0 0 0 1 0 0 0 1 0"/></filter><mask id="e"><g filter="url(#a)"><path style="fill:#000;fill-opacity:.901961;stroke:none" d="M0 0h64v64H0z"/></g></mask><g id="d" clip-path="url(#b)"><path style="stroke:none;fill-rule:nonzero;fill:#fff;fill-opacity:1" d="M32.25 17.102a2.915 2.915 0 0 1-2.918-2.88 2.917 2.917 0 0 1 2.918-2.913 2.914 2.914 0 0 1 2.914 2.914 2.914 2.914 0 0 1-2.914 2.879ZM29.332 51.77a2.917 2.917 0 0 0 2.918 2.914 2.914 2.914 0 0 0 2.914-2.914 2.917 2.917 0 0 0-2.914-2.918 2.92 2.92 0 0 0-2.918 2.918Zm2.988-9.602a5.336 5.336 0 0 1-5.37-3.059l-5.153.996A9.53 9.53 0 0 0 32 46.223c6.008 0 10.348-3.164 10.348-7.575a7.354 7.354 0 0 0-3.985-7.109A46.262 46.262 0 0 0 32 29.617c-2.383-.566-3.91-1.883-3.91-3.555A3.555 3.555 0 0 1 32 22.97c1.867-.11 3.64.84 4.586 2.453L41.03 24A9.1 9.1 0 0 0 32 19.379c-4.195 0-9.066 1.848-9.066 7.11 0 6.437 3.945 7.714 9.562 8.82 1.316.246 4.375 1.136 4.375 3.554-.14 1.352-1.316 3.305-4.55 3.305Zm0 0"/></g></defs><path style="stroke:none;fill-rule:nonzero;fill:url(#c)" d="M43.91 5.262H20.09a7.12 7.12 0 0 0-6.152 3.554L2.062 29.441a7.111 7.111 0 0 0 0 7.11l11.876 20.586a7.103 7.103 0 0 0 6.152 3.554h23.82a7.103 7.103 0 0 0 6.153-3.554L61.937 36.55a7.111 7.111 0 0 0 0-7.11L50.063 8.816a7.12 7.12 0 0 0-6.153-3.554Zm0 0"/><use xlink:href="#d" mask="url(#e)"/></svg>