<svg xmlns="http://www.w3.org/2000/svg" width="64" height="64"><defs><linearGradient id="a" gradientUnits="userSpaceOnUse" x1="9" y1="2.95" x2="9" y2="6.34" gradientTransform="scale(3.55556)"><stop offset="0" style="stop-color:#c69aeb;stop-opacity:1"/><stop offset="1" style="stop-color:#6f4bb2;stop-opacity:1"/></linearGradient><linearGradient id="b" gradientUnits="userSpaceOnUse" x1="8.99" y1="6.76" x2="8.99" y2="9.22" gradientTransform="scale(3.55556)"><stop offset="0" style="stop-color:#54aef0;stop-opacity:1"/><stop offset="1" style="stop-color:#1988d9;stop-opacity:1"/></linearGradient></defs><path style="stroke:none;fill-rule:nonzero;fill:#949494;fill-opacity:1" d="M48.676 39.895 43.344 28.16 32 14.934 20.586 28.125 15.219 39.82l1.883.89 4.375-9.526 4.3 9.527 1.922-.852-4.98-10.988L32 18.133l9.246 10.773-5.05 10.953 1.882.887 4.375-9.492 4.3 9.527Zm0 0"/><path style="stroke:none;fill-rule:nonzero;fill:url(#a)" d="M38.008 16.535a6.007 6.007 0 1 1-12.016 0 6.008 6.008 0 1 1 12.016 0Zm0 0"/><path style="stroke:none;fill-rule:nonzero;fill:url(#b)" d="M21.332 24.035a4.38 4.38 0 0 1 4.164 2.567 4.372 4.372 0 0 1-5.59 5.871 4.372 4.372 0 0 1 1.426-8.438Zm16.785 4.41a4.336 4.336 0 0 0 4.336 4.336 4.368 4.368 0 0 0 4.07-2.683 4.378 4.378 0 0 0-.941-4.782 4.37 4.37 0 0 0-7.465 3.129Zm0 0"/><path style="stroke:none;fill-rule:nonzero;fill:#37c2b1;fill-opacity:1" d="M19.59 40.25a3.45 3.45 0 1 1-6.9-.002 3.45 3.45 0 0 1 6.9.002ZM30.188 40.285a3.45 3.45 0 1 1-6.897-.002 3.45 3.45 0 0 1 6.896.002ZM40.57 40.32a3.45 3.45 0 1 1-6.9-.001 3.45 3.45 0 0 1 6.9.001ZM51.164 40.355a3.45 3.45 0 1 1-6.897-.002 3.45 3.45 0 0 1 6.897.002Zm0 0"/><path style="stroke:none;fill-rule:nonzero;fill:#949494;fill-opacity:1" d="M1.777 54.117c0 .203.106.395.286.496l4.09 2.278 7.109 4.05c.289.145.636.055.816-.21l2.172-3.84a.552.552 0 0 0 .074-.442.541.541 0 0 0-.289-.344l-8.14-4.87a.56.56 0 0 1-.286-.497V13.262a.56.56 0 0 1 .286-.496l8.14-4.73a.534.534 0 0 0 .215-.927l-2.313-3.945a.64.64 0 0 0-.816-.215L6.293 6.9l-4.23 2.488a.567.567 0 0 0-.286.496Zm0 0"/><path style="stroke:none;fill-rule:nonzero;fill:#a3a3a3;fill-opacity:1" d="m16.25 7.11-2.313-3.946a.652.652 0 0 0-.605-.285h-.281l-6.828 4.02-4.23 2.488a.337.337 0 0 0-.216 0 .873.873 0 0 0 0 .285l5.832 3.555a.56.56 0 0 1 .286-.497l8.14-4.695a.534.534 0 0 0 .215-.926ZM16.25 56.89l-2.313 4.087a.637.637 0 0 1-.605.285.434.434 0 0 1-.281 0l-6.828-4.16-4.23-2.489a.337.337 0 0 1-.216 0 .873.873 0 0 1 0-.285l5.832-3.555a.56.56 0 0 0 .286.497l8.14 4.73c.168.07.29.215.332.39a.592.592 0 0 1-.117.5Zm0 0"/><path style="stroke:none;fill-rule:nonzero;fill:#949494;fill-opacity:1" d="M62.223 9.883a.567.567 0 0 0-.285-.496l-4.09-2.278-7.11-4.05a.638.638 0 0 0-.816.21L47.75 7.11a.552.552 0 0 0-.074.442.541.541 0 0 0 .289.344l8.14 4.726c.18.106.29.293.286.5v37.617a.56.56 0 0 1-.286.496l-8.14 4.73a.544.544 0 0 0-.29.34.549.549 0 0 0 .075.442l2.313 4.09a.64.64 0 0 0 .816.215l6.828-3.95 4.23-2.488a.567.567 0 0 0 .286-.496Zm0 0"/><path style="stroke:none;fill-rule:nonzero;fill:#a3a3a3;fill-opacity:1" d="m47.75 56.89 2.313 4.087a.637.637 0 0 0 .605.285h.281l6.828-3.946 4.23-2.488c.071.02.145.02.216 0a.873.873 0 0 0 0-.285l-5.832-3.555a.56.56 0 0 1-.286.496l-8.14 4.73a.535.535 0 0 0-.215.677ZM47.75 7.11l2.313-3.946a.652.652 0 0 1 .605-.285.434.434 0 0 1 .281 0l6.828 3.95 4.23 2.487a.337.337 0 0 1 .216 0 .873.873 0 0 1 0 .286l-5.832 3.554a.566.566 0 0 0-.286-.5l-8.14-4.62a.566.566 0 0 1-.356-.407.578.578 0 0 1 .141-.52Zm0 0"/></svg>