<svg xmlns="http://www.w3.org/2000/svg" xmlns:xlink="http://www.w3.org/1999/xlink" width="64" height="64"><defs><linearGradient id="c" gradientUnits="userSpaceOnUse" x1="8.67" y1="8.09" x2="8.67" y2="20.18" gradientTransform="scale(3.55556)"><stop offset=".22" style="stop-color:#32d4f5;stop-opacity:1"/><stop offset="1" style="stop-color:#198ab3;stop-opacity:1"/></linearGradient><linearGradient id="f" gradientUnits="userSpaceOnUse" x1="8.33" y1="1.61" x2="9.21" y2="12.59" gradientTransform="scale(3.55556)"><stop offset=".22" style="stop-color:#32d4f5;stop-opacity:1"/><stop offset="1" style="stop-color:#198ab3;stop-opacity:1"/></linearGradient><clipPath id="b"><path d="M0 0h64v64H0z"/></clipPath><filter id="a" filterUnits="objectBoundingBox" x="0%" y="0%" width="100%" height="100%"><feColorMatrix in="SourceGraphic" values="0 0 0 0 1 0 0 0 0 1 0 0 0 0 1 0 0 0 1 0"/></filter><mask id="e"><g filter="url(#a)"><path style="fill:#000;fill-opacity:.8;stroke:none" d="M0 0h64v64H0z"/></g></mask><g id="d" clip-path="url(#b)"><path style="stroke:none;fill-rule:nonzero;fill:#fff;fill-opacity:1" d="M30.863 36.02c-2.789.015-5.523-.79-7.86-2.313l7.79 20.336 7.75-20.195a14.574 14.574 0 0 1-7.68 2.172Zm0 0"/></g></defs><path style="stroke:none;fill-rule:nonzero;fill:url(#c)" d="M52.09 64a4.635 4.635 0 0 0 3.37-1.277 4.642 4.642 0 0 0 1.43-3.309v-.57c-1.816-14.469-10.097-26.239-25.85-26.239-15.75 0-24.462 10.063-26.063 26.274a4.596 4.596 0 0 0 .984 3.434c.773.96 1.91 1.57 3.14 1.687Zm0 0"/><use xlink:href="#d" mask="url(#e)"/><path style="stroke:none;fill-rule:nonzero;fill:url(#f)" d="M45.367 21.512c0 8.011-6.492 14.508-14.504 14.508-8.011 0-14.508-6.497-14.508-14.508 0-8.012 6.497-14.508 14.508-14.508 8.012 0 14.504 6.496 14.504 14.508Zm0 0"/><path style="stroke:none;fill-rule:nonzero;fill:#767676;fill-opacity:1" d="M52.621 25.707c.52-3.012.41-6.098-.32-9.066A22.01 22.01 0 0 0 31.609 0a19.652 19.652 0 0 0-18.523 9.848 2.1 2.1 0 0 0 .637 2.882 1.924 1.924 0 0 0 2.632-.57A16.106 16.106 0 0 1 31.36 4.02a18.136 18.136 0 0 1 16.926 13.082 18.99 18.99 0 0 1 .461 7.789 3.293 3.293 0 0 0-1.918 2.097l-.96 3.2a3.344 3.344 0 0 0 2.202 4.16A3.553 3.553 0 0 0 52.266 32l.96-3.2a3.273 3.273 0 0 0-.605-3.093Zm0 0"/></svg>