<svg xmlns="http://www.w3.org/2000/svg" width="64" height="64"><defs><linearGradient id="a" gradientUnits="userSpaceOnUse" x1="9" y1="12.43" x2="9" y2="1.26" gradientTransform="scale(3.55556)"><stop offset="0" style="stop-color:#0078d4;stop-opacity:1"/><stop offset=".82" style="stop-color:#5ea0ef;stop-opacity:1"/></linearGradient><linearGradient id="b" gradientUnits="userSpaceOnUse" x1="9" y1="16.74" x2="9" y2="12.43" gradientTransform="scale(3.55556)"><stop offset=".15" style="stop-color:#ccc;stop-opacity:1"/><stop offset="1" style="stop-color:#707070;stop-opacity:1"/></linearGradient></defs><path style="stroke:none;fill-rule:nonzero;fill:url(#a)" d="M4.195 4.48H59.77c1.097 0 1.992.891 1.992 1.993v35.73a1.993 1.993 0 0 1-1.992 1.992H4.195a1.993 1.993 0 0 1-1.992-1.992V6.473c0-1.102.895-1.993 1.992-1.993Zm0 0"/><path style="stroke:none;fill-rule:nonzero;fill:#50e6ff;fill-opacity:1" d="M41.922 22.543v11.555L32 39.895v-11.56Zm0 0"/><path style="stroke:none;fill-rule:nonzero;fill:#9cebff;fill-opacity:1" d="M32 28.336v11.559l-9.922-5.797V22.543Zm0 0"/><path style="stroke:none;fill-rule:nonzero;fill:#c3f1ff;fill-opacity:1" d="M22.078 34.098 32 28.336v11.559Zm0 0"/><path style="stroke:none;fill-rule:nonzero;fill:#9cebff;fill-opacity:1" d="M41.922 34.098 32 28.336v11.559Zm0 0"/><path style="stroke:none;fill-rule:nonzero;fill:url(#b)" d="M43.945 56.215c-5.902-.926-6.113-5.192-6.113-12.02H26.168c0 6.828-.211 11.094-6.113 12.02a3.552 3.552 0 0 0-2.953 3.305h29.796a3.552 3.552 0 0 0-2.953-3.305Zm0 0"/><path style="stroke:none;fill-rule:nonzero;fill:#c3f1ff;fill-opacity:1" d="M39.574 22.117a13.44 13.44 0 0 1-7.394 0l-.18-.18-.676.25a12.697 12.697 0 0 1-7.36-.535l-1.636.961L32 28.445l9.922-5.832-1.352-.781Zm0 0"/><path style="stroke:none;fill-rule:nonzero;fill:#ffca00;fill-opacity:1" d="M44.375 17.777c-.32-1.03-1.602-2.488-6.508-.996a13.45 13.45 0 0 0-5.512 3.555 15.384 15.384 0 0 1 9.567-6.148l-4.305-.215 1.492-2.88A15.435 15.435 0 0 0 32 20.126v.46A20.95 20.95 0 0 0 22.684 7.11l1.457 3.84h-5.973a22.667 22.667 0 0 1 11.414 7.574 12.125 12.125 0 0 0-3.555-2.203 7.985 7.985 0 0 0-5.261-.78 2.235 2.235 0 0 0-1.317 1.276c-.426.997-.355 2.954 4.371 4.836a12.71 12.71 0 0 0 7.364.535l.816-.25h.285a13.44 13.44 0 0 0 7.395 0 8.27 8.27 0 0 0 4.55-2.703c.211-.453.262-.968.145-1.457Zm-19.84 2.383c-2.773-1.101-3.77-2.238-3.558-2.808a.396.396 0 0 1 .355-.286c.355 0 1.496-.32 4.09.747a10.662 10.662 0 0 1 4.16 3.058 11.575 11.575 0 0 1-5.047-.71Zm18.133-1.601a7.118 7.118 0 0 1-3.559 1.992 11.375 11.375 0 0 1-5.152.25 11.846 11.846 0 0 1 4.406-2.703c2.844-.891 4.305-.641 4.516 0 0 .18-.078.347-.211.46Zm0 0"/></svg>