<svg xmlns="http://www.w3.org/2000/svg" xmlns:xlink="http://www.w3.org/1999/xlink" width="64" height="64"><defs><clipPath id="b"><path d="M0 0h64v64H0z"/></clipPath><clipPath id="c"><path d="M0 0h64v64H0z"/></clipPath><clipPath id="d"><path d="M0 0h64v64H0z"/></clipPath><mask id="g"><g filter="url(#a)"><path style="fill:#000;fill-opacity:.901961;stroke:none" d="M0 0h64v64H0z"/></g></mask><mask id="i"><g filter="url(#a)"><path style="fill:#000;fill-opacity:.6;stroke:none" d="M0 0h64v64H0z"/></g></mask><mask id="k"><g filter="url(#a)"><path style="fill:#000;fill-opacity:.901961;stroke:none" d="M0 0h64v64H0z"/></g></mask><g id="f" clip-path="url(#b)"><path style="stroke:none;fill-rule:nonzero;fill:#fff;fill-opacity:1" d="M44.82 14.953h4.403c.289 0 .523.235.523.524v32.195c0 .289-.234.523-.523.523H44.82a.523.523 0 0 1-.523-.523V15.477c0-.29.234-.524.523-.524Zm0 0"/></g><g id="h" clip-path="url(#c)"><path style="stroke:none;fill-rule:nonzero;fill:#fff;fill-opacity:1" d="M6.355 41.348h29.348c.309 0 .563.254.563.566v5.754a.566.566 0 0 1-.563.566H6.355a.567.567 0 0 1-.566-.566v-5.754c0-.312.254-.566.566-.566Zm0 0"/></g><g id="j" clip-path="url(#d)"><path style="stroke:none;fill-rule:nonzero;fill:#fff;fill-opacity:1" d="M53.05 28.555h4.645c.223 0 .403.18.403.402v18.836c0 .223-.18.402-.403.402h-4.644a.401.401 0 0 1-.399-.402V28.957c0-.223.18-.402.399-.402Zm0 0"/></g><linearGradient id="e" gradientUnits="userSpaceOnUse" x1="9" y1="790.787" x2="9" y2="774.125" gradientTransform="matrix(3.55556 0 0 -3.55556 0 2814.28)"><stop offset="0" style="stop-color:#6cc6b9;stop-opacity:1"/><stop offset=".46" style="stop-color:#6ac4b7;stop-opacity:1"/><stop offset=".64" style="stop-color:#62bdb0;stop-opacity:1"/><stop offset=".77" style="stop-color:#56b1a4;stop-opacity:1"/><stop offset="1" style="stop-color:#258277;stop-opacity:1"/></linearGradient><filter id="a" filterUnits="objectBoundingBox" x="0%" y="0%" width="100%" height="100%"><feColorMatrix in="SourceGraphic" values="0 0 0 0 1 0 0 0 0 1 0 0 0 0 1 0 0 0 1 0"/></filter></defs><path style="stroke:none;fill-rule:nonzero;fill:url(#e)" d="M1.953 9.371h60.129A1.843 1.843 0 0 1 64 11.11v41.782a1.843 1.843 0 0 1-1.918 1.738H1.953A1.877 1.877 0 0 1 0 52.89V11.184c.04-1.04.91-1.848 1.95-1.813Zm0 0"/><use xlink:href="#f" mask="url(#g)"/><use xlink:href="#h" mask="url(#i)"/><use xlink:href="#j" mask="url(#k)"/><path style="stroke:none;fill-rule:nonzero;fill:#fff;fill-opacity:1" d="m32.414 16.969-7.57 13.472-8.012-8.16-8.258 10.707 1.938 1.52 6.547-8.45 8.312 8.485 9.188-16.344Zm0 0"/><path style="stroke:none;fill-rule:nonzero;fill:#fff;fill-opacity:1" d="M20.043 24.16a3.123 3.123 0 0 0-3.113-3.133 3.124 3.124 0 0 0-3.117 3.133 3.124 3.124 0 0 0 3.117 3.133 3.123 3.123 0 0 0 3.113-3.133ZM28.488 31.926a3.124 3.124 0 0 0-3.117-3.133 3.123 3.123 0 0 0-3.113 3.133 3.123 3.123 0 0 0 3.113 3.133 3.124 3.124 0 0 0 3.117-3.133ZM36.328 17.973a3.124 3.124 0 0 0-3.117-3.133 3.123 3.123 0 0 0-3.113 3.133 3.123 3.123 0 0 0 3.113 3.132 3.124 3.124 0 0 0 3.117-3.132ZM12.98 33.29a3.123 3.123 0 0 0-3.113-3.13 3.12 3.12 0 0 0-3.113 3.13 3.12 3.12 0 0 0 3.113 3.132 3.123 3.123 0 0 0 3.113-3.133Zm0 0"/></svg>