<svg xmlns="http://www.w3.org/2000/svg" width="64" height="64"><defs><linearGradient id="a" gradientUnits="userSpaceOnUse" x1="8.47" y1="2.89" x2="14.96" y2="9.62" gradientTransform="scale(3.55556)"><stop offset="0" style="stop-color:#dfa500;stop-opacity:1"/><stop offset=".28" style="stop-color:#efb700;stop-opacity:1"/><stop offset=".51" style="stop-color:#ffca00;stop-opacity:1"/><stop offset="1" style="stop-color:#e1a800;stop-opacity:1"/></linearGradient><linearGradient id="b" gradientUnits="userSpaceOnUse" x1="6.86" y1="11.19" x2="-.99" y2="18.81" gradientTransform="scale(3.55556)"><stop offset="0" style="stop-color:#faa21d;stop-opacity:1"/><stop offset=".24" style="stop-color:#f99d1a;stop-opacity:1"/><stop offset=".51" style="stop-color:#f69012;stop-opacity:1"/><stop offset=".8" style="stop-color:#f17905;stop-opacity:1"/><stop offset=".88" style="stop-color:#ef7100;stop-opacity:1"/></linearGradient></defs><path style="stroke:none;fill-rule:nonzero;fill:#f78d1e;fill-opacity:1" d="M14.473 37.121a20.13 20.13 0 0 0-10.668-4.055.985.985 0 0 1-.91-.445.99.99 0 0 1-.051-1.012 19.012 19.012 0 0 1 5.37-6.082 17.318 17.318 0 0 1 15.645-3.02c.79.165 1.543.493 2.203.958ZM27.379 49.992 41.03 38.398c.457.68.785 1.442.961 2.243a17.46 17.46 0 0 1-3.058 15.644 18.543 18.543 0 0 1-6.082 5.262.99.99 0 0 1-1.09-.074.991.991 0 0 1-.367-1.028 20.357 20.357 0 0 0-4.016-10.453Zm0 0"/><path style="stroke:none;fill-rule:nonzero;fill:#fcd116;fill-opacity:1" d="M61.797.96a86.267 86.267 0 0 0-47.574 35.696l13.12 13.121A86.267 86.267 0 0 0 63.04 2.203a1.024 1.024 0 0 0-.273-.969 1.024 1.024 0 0 0-.97-.273Zm0 0"/><path style="stroke:none;fill-rule:nonzero;fill:url(#a)" d="M61.797.96a86.267 86.267 0 0 0-47.574 35.696l13.12 13.121A86.267 86.267 0 0 0 63.04 2.203a1.024 1.024 0 0 0-.273-.969 1.024 1.024 0 0 0-.97-.273Zm0 0"/><path style="stroke:none;fill-rule:nonzero;fill:#0078d4;fill-opacity:1" d="M61.797.96a78.252 78.252 0 0 0-15.824 6.505L56.64 18.133a78.2 78.2 0 0 0 6.398-15.93 1.024 1.024 0 0 0-.273-.969 1.024 1.024 0 0 0-.97-.273Zm0 0"/><path style="stroke:none;fill-rule:nonzero;fill:url(#b)" d="M.926 62.008a36.69 36.69 0 0 1 13.297-25.352l13.12 13.121a36.69 36.69 0 0 1-25.35 13.297.978.978 0 0 1-.778-.289.978.978 0 0 1-.29-.777Zm0 0"/><path style="stroke:none;fill-rule:nonzero;fill:#dfa500;fill-opacity:1" d="M47.395 23.395a6.792 6.792 0 1 1-13.584.002 6.792 6.792 0 0 1 13.584-.002Zm0 0"/><path style="stroke:none;fill-rule:nonzero;fill:#f2f2f2;fill-opacity:1" d="M45.688 23.395a5.083 5.083 0 1 1-10.168 0 5.083 5.083 0 0 1 5.085-5.082 5.08 5.08 0 0 1 5.083 5.082Zm0 0"/><path style="stroke:none;fill-rule:nonzero;fill:#d15900;fill-opacity:1" d="M18.348 48.32a10.66 10.66 0 0 1-4.73 2.098 11.743 11.743 0 0 1 2.062-4.766l12.765-12.8 2.664 2.668Zm0 0"/></svg>