<svg xmlns="http://www.w3.org/2000/svg" width="64" height="64"><defs><linearGradient id="a" gradientUnits="userSpaceOnUse" x1="2.94" y1="3.74" x2="8.67" y2="3.74" gradientTransform="scale(3.55556)"><stop offset="0" style="stop-color:#b77af4;stop-opacity:1"/><stop offset="1" style="stop-color:#773adc;stop-opacity:1"/></linearGradient><linearGradient id="b" gradientUnits="userSpaceOnUse" x1="9.13" y1="3.79" x2="14.85" y2="3.79" gradientTransform="scale(3.55556)"><stop offset="0" style="stop-color:#b77af4;stop-opacity:1"/><stop offset="1" style="stop-color:#773adc;stop-opacity:1"/></linearGradient><linearGradient id="c" gradientUnits="userSpaceOnUse" x1=".01" y1="9.12" x2="5.73" y2="9.12" gradientTransform="scale(3.55556)"><stop offset="0" style="stop-color:#b77af4;stop-opacity:1"/><stop offset="1" style="stop-color:#773adc;stop-opacity:1"/></linearGradient><linearGradient id="d" gradientUnits="userSpaceOnUse" x1="6.18" y1="9.08" x2="11.9" y2="9.08" gradientTransform="scale(3.55556)"><stop offset="0" style="stop-color:#b77af4;stop-opacity:1"/><stop offset="1" style="stop-color:#773adc;stop-opacity:1"/></linearGradient><linearGradient id="e" gradientUnits="userSpaceOnUse" x1="12.35" y1="9.13" x2="18.08" y2="9.13" gradientTransform="scale(3.55556)"><stop offset="0" style="stop-color:#b77af4;stop-opacity:1"/><stop offset="1" style="stop-color:#773adc;stop-opacity:1"/></linearGradient><linearGradient id="f" gradientUnits="userSpaceOnUse" x1="2.87" y1="14.56" x2="8.6" y2="14.56" gradientTransform="scale(3.55556)"><stop offset="0" style="stop-color:#b77af4;stop-opacity:1"/><stop offset="1" style="stop-color:#773adc;stop-opacity:1"/></linearGradient><linearGradient id="g" gradientUnits="userSpaceOnUse" x1="9.05" y1="14.6" x2="14.78" y2="14.6" gradientTransform="scale(3.55556)"><stop offset="0" style="stop-color:#b77af4;stop-opacity:1"/><stop offset="1" style="stop-color:#773adc;stop-opacity:1"/></linearGradient></defs><path style="stroke:none;fill-rule:nonzero;fill:url(#a)" d="M20.621 4.336 10.453 6.223V20.09l10.168 2.168 10.207-4.09V7.82Zm0 0"/><path style="stroke:none;fill-rule:nonzero;fill:#341a6e;fill-opacity:1" d="M10.453 6.223V20.09l10.277 2.168V4.48Zm4.34 12.8-2.883-.57V7.785l2.883-.46Zm4.477.817-3.305-.531v-12.2l3.305-.566Zm0 0"/><path style="stroke:none;fill-rule:nonzero;fill:url(#b)" d="M42.633 4.516 32.46 6.398v13.868l10.172 2.172L52.8 18.313V8Zm0 0"/><path style="stroke:none;fill-rule:nonzero;fill:#341a6e;fill-opacity:1" d="M32.46 6.398v13.868l10.208 2.172V4.655ZM36.767 19.2l-2.883-.566V7.965l2.883-.461Zm4.48.82-3.309-.535V7.29l3.31-.605Zm0 0"/><path style="stroke:none;fill-rule:nonzero;fill:url(#c)" d="M10.203 23.465.035 25.352v13.867l10.168 2.168 10.207-4.09V26.949Zm0 0"/><path style="stroke:none;fill-rule:nonzero;fill:#341a6e;fill-opacity:1" d="M0 25.352v13.757l10.277 2.172V23.504Zm4.3 12.835-2.878-.605V26.914l2.879-.496Zm4.516.922-3.304-.53v-12.34l3.304-.567Zm0 0"/><path style="stroke:none;fill-rule:nonzero;fill:url(#d)" d="m32.14 23.324-10.167 1.883v13.867l10.168 2.207 10.172-4.125V26.81Zm0 0"/><path style="stroke:none;fill-rule:nonzero;fill:#341a6e;fill-opacity:1" d="M21.973 25.207v13.902l10.242 2.172V23.504Zm4.304 12.836-2.882-.602V26.773l2.882-.496Zm4.477.785-3.305-.535V26.098l3.305-.57Zm0 0"/><path style="stroke:none;fill-rule:nonzero;fill:url(#e)" d="M54.078 23.504 43.91 25.387v13.867l10.168 2.168 10.207-4.09V26.988Zm0 0"/><path style="stroke:none;fill-rule:nonzero;fill:#341a6e;fill-opacity:1" d="M43.91 25.387v13.722l10.278 2.172V23.504Zm4.34 12.836-2.883-.606V26.95l2.883-.496Zm4.48.78-3.308-.53V26.277l3.308-.57Zm0 0"/><path style="stroke:none;fill-rule:nonzero;fill:url(#f)" d="m20.375 42.809-10.172 1.847v13.867l10.172 2.207 10.203-4.125V46.293Zm0 0"/><path style="stroke:none;fill-rule:nonzero;fill:#341a6e;fill-opacity:1" d="M10.203 44.656v13.867L20.48 60.73V42.668Zm4.34 12.836-2.879-.601V46.223l2.879-.5Zm4.48.82-3.308-.535v-12.23l3.308-.57Zm0 0"/><path style="stroke:none;fill-rule:nonzero;fill:url(#g)" d="M42.348 42.95 32.18 44.835v13.867l10.168 2.168 10.203-4.09V46.438Zm0 0"/><path style="stroke:none;fill-rule:nonzero;fill:#341a6e;fill-opacity:1" d="M32.18 44.836v13.867l10.273 2.168V43.094Zm4.336 12.836-2.88-.606V46.398l2.88-.496Zm4.48.781-3.309-.531v-12.2l3.31-.566Zm0 0"/></svg>