<svg xmlns="http://www.w3.org/2000/svg" width="64" height="64"><defs><linearGradient id="a" gradientUnits="userSpaceOnUse" x1="10.31" y1="12.7" x2="10.31" y2="6.83" gradientTransform="scale(3.55556)"><stop offset="0" style="stop-color:#0078d4;stop-opacity:1"/><stop offset=".82" style="stop-color:#5ea0ef;stop-opacity:1"/></linearGradient><linearGradient id="b" gradientUnits="userSpaceOnUse" x1="10.31" y1="14.97" x2="10.31" y2="12.7" gradientTransform="scale(3.55556)"><stop offset=".15" style="stop-color:#ccc;stop-opacity:1"/><stop offset="1" style="stop-color:#707070;stop-opacity:1"/></linearGradient></defs><path style="stroke:none;fill-rule:nonzero;fill:#0078d4;fill-opacity:1" d="M7.54 1.777h7.003v2.028H7.539ZM59.129 3.805h1.137v1.101h1.957V1.777h-3.094ZM5.012 60.055H4.02v-1.14H1.777v3.308h3.235ZM60.266 59.023v1.032h-1.137v2.168h3.094v-3.2ZM4.02 4.836V3.805h.992V1.777H1.777v3.059ZM13.012 12.621h29.191c.57 0 1.031.461 1.031 1.031v18.844c0 .57-.46 1.031-1.03 1.031H13.011c-.567 0-1.032-.46-1.032-1.03V13.651c0-.57.465-1.03 1.032-1.03Zm0 0"/><path style="stroke:none;fill-rule:nonzero;fill:#50e6ff;fill-opacity:1" d="M32.816 20.055v6.078l-5.191 3.058v-6.117Zm0 0"/><path style="stroke:none;fill-rule:nonzero;fill:#c3f1ff;fill-opacity:1" d="m32.816 20.055-5.191 3.054-5.227-3.054 5.227-3.059Zm0 0"/><path style="stroke:none;fill-rule:nonzero;fill:#9cebff;fill-opacity:1" d="M27.625 23.11v6.081l-5.227-3.058v-6.078Zm0 0"/><path style="stroke:none;fill-rule:nonzero;fill:url(#a)" d="M22.043 24.285h29.191c.57 0 1.032.461 1.032 1.031V44.16c0 .57-.461 1.031-1.032 1.031H22.043c-.566 0-1.031-.46-1.031-1.03V25.315c0-.57.465-1.03 1.031-1.03Zm0 0"/><path style="stroke:none;fill-rule:nonzero;fill:#50e6ff;fill-opacity:1" d="M41.848 31.68v6.082l-5.192 3.054v-6.078Zm0 0"/><path style="stroke:none;fill-rule:nonzero;fill:#c3f1ff;fill-opacity:1" d="m41.848 31.68-5.192 3.058-5.226-3.058 5.226-3.059Zm0 0"/><path style="stroke:none;fill-rule:nonzero;fill:#9cebff;fill-opacity:1" d="M36.656 34.738v6.078l-5.226-3.054V31.68Zm0 0"/><path style="stroke:none;fill-rule:nonzero;fill:#c3f1ff;fill-opacity:1" d="m31.43 37.762 5.226-3.024v6.078Zm0 0"/><path style="stroke:none;fill-rule:nonzero;fill:#9cebff;fill-opacity:1" d="m41.848 37.762-5.192-3.024v6.078Zm0 0"/><path style="stroke:none;fill-rule:nonzero;fill:url(#b)" d="M42.914 51.484c-3.094-.496-3.2-2.738-3.2-6.328h-6.151c0 3.555 0 5.832-3.2 6.328a1.81 1.81 0 0 0-1.527 1.743H44.48a1.816 1.816 0 0 0-1.566-1.743Zm0 0"/><path style="stroke:none;fill-rule:nonzero;fill:#0078d4;fill-opacity:1" d="M18.027 1.777h7.004v2.028h-7.004ZM28.48 1.777h7.004v2.028H28.48ZM38.969 1.777h7.004v2.028h-7.004ZM49.457 1.777h7.004v2.028h-7.004ZM7.61 60.055h7.003v2.023H7.61ZM18.063 60.055h7.003v2.023h-7.003ZM28.55 60.055h7.005v2.023H28.55ZM39.04 60.055h7.003v2.023h-7.004ZM49.492 60.055h7.004v2.023h-7.004ZM60.195 7.29h2.028v7.003h-2.028ZM60.195 17.742h2.028v7.004h-2.028ZM60.195 28.23h2.028v7.004h-2.028ZM60.195 38.684h2.028v7.004h-2.028ZM60.195 49.172h2.028v7.008h-2.028ZM1.777 7.219h2.028v7.004H1.777ZM1.777 17.707h2.028v7.004H1.777ZM1.777 28.16h2.028v7.004H1.777ZM1.777 38.648h2.028v7.004H1.777ZM1.777 49.102h2.028v7.003H1.777Zm0 0"/></svg>