<svg xmlns="http://www.w3.org/2000/svg" width="64" height="64"><defs><linearGradient id="a" gradientUnits="userSpaceOnUse" x1="9" y1="11.06" x2="9" y2="7.53" gradientTransform="scale(3.55556)"><stop offset="0" style="stop-color:#e26708;stop-opacity:1"/><stop offset="1" style="stop-color:#f78d1e;stop-opacity:1"/></linearGradient><linearGradient id="b" gradientUnits="userSpaceOnUse" x1="9" y1="17.7" x2="9" y2=".3" gradientTransform="scale(3.55556)"><stop offset="0" style="stop-color:#e26708;stop-opacity:1"/><stop offset=".005" style="stop-color:#e26808;stop-opacity:1"/><stop offset=".117" style="stop-color:#ec7912;stop-opacity:1"/><stop offset=".257" style="stop-color:#f28419;stop-opacity:1"/><stop offset=".454" style="stop-color:#f68b1d;stop-opacity:1"/><stop offset="1" style="stop-color:#f78d1e;stop-opacity:1"/></linearGradient></defs><path style="stroke:none;fill-rule:nonzero;fill:#e27908;fill-opacity:1" d="m32 34.488-8.89 8.89c0-.71-.712-1.421-1.067-2.132-.355-.71-.711-.71-1.066-.71L29.512 32l-9.246-9.246a4.294 4.294 0 0 0 2.488-2.488L32 29.512l9.246-9.246c.356.71.356 1.066 1.066 1.422a4.941 4.941 0 0 1 1.422 1.066L34.488 32l8.89 8.89a3.083 3.083 0 0 0-2.132 2.844ZM19.555 48.355l7.824 7.825v-.36a5.723 5.723 0 0 1 1.777-3.91l-6.402-6.398a3.767 3.767 0 0 1-3.2 2.843ZM7.82 36.266l7.47 7.824a3.554 3.554 0 0 1 2.487-3.2l-6.043-6.402a5.724 5.724 0 0 1-3.914 1.778ZM15.29 19.91l-6.4 6.402a5.156 5.156 0 0 1 3.555 2.489l6.043-6.047-2.133-1.067c-.355-.71-.71-1.066-1.066-1.777ZM27.379 7.82l-7.469 7.47a3.876 3.876 0 0 1 2.844 2.843l6.402-6.399A5.085 5.085 0 0 1 27.38 7.82ZM44.445 15.29l-7.113-7.11a4.719 4.719 0 0 1-2.133 3.554l6.403 6.399a3.876 3.876 0 0 1 2.843-2.844ZM55.82 26.668l-6.754-6.758a3.876 3.876 0 0 1-2.843 2.844l6.398 6.402a3.949 3.949 0 0 1 3.2-2.488ZM52.621 34.844l-6.043 6.047c.711.355 1.067.355 1.422 1.066a3.224 3.224 0 0 1 1.066 2.488l7.47-7.468a7.106 7.106 0 0 1-3.915-2.133ZM41.602 45.867l-6.047 6.043.355.356a4.533 4.533 0 0 1 1.422 3.554l7.469-7.465a3.224 3.224 0 0 1-2.489-1.066 2.695 2.695 0 0 1-.71-1.422Zm0 0"/><path style="stroke:none;fill-rule:nonzero;fill:#f78d1e;fill-opacity:1" d="M24.535 19.2a5.335 5.335 0 1 1-10.667.002 5.335 5.335 0 0 1 10.667-.003ZM50.133 19.2a5.335 5.335 0 1 1-10.67.002 5.335 5.335 0 0 1 10.67-.003ZM24.535 44.8a5.335 5.335 0 1 1-10.67-.005 5.335 5.335 0 0 1 10.67.006ZM50.133 44.8a5.335 5.335 0 1 1-10.667-.005 5.335 5.335 0 0 1 10.667.006Zm0 0"/><path style="stroke:none;fill-rule:nonzero;fill:url(#a)" d="M7.82 25.246a6.754 6.754 0 1 1 0 13.508A6.753 6.753 0 0 1 1.066 32a6.753 6.753 0 0 1 6.754-6.754Zm48.36 0A6.753 6.753 0 0 1 62.934 32a6.753 6.753 0 0 1-6.754 6.754 6.754 6.754 0 1 1 0-13.508Zm0 0"/><path style="stroke:none;fill-rule:nonzero;fill:url(#b)" d="M32 1.066a6.753 6.753 0 0 1 6.754 6.754 6.754 6.754 0 1 1-13.508 0A6.753 6.753 0 0 1 32 1.066Zm0 48.356a6.754 6.754 0 0 1 6.754 6.758A6.753 6.753 0 0 1 32 62.934a6.753 6.753 0 0 1-6.754-6.754A6.754 6.754 0 0 1 32 49.422Zm0 0"/></svg>