<svg xmlns="http://www.w3.org/2000/svg" xmlns:xlink="http://www.w3.org/1999/xlink" width="64" height="64"><defs><linearGradient id="d" gradientUnits="userSpaceOnUse" x1="8.86" y1="13.02" x2="8.86" y2="1.02" gradientTransform="scale(3.55556)"><stop offset="0" style="stop-color:#0078d4;stop-opacity:1"/><stop offset=".82" style="stop-color:#5ea0ef;stop-opacity:1"/></linearGradient><linearGradient id="i" gradientUnits="userSpaceOnUse" x1="8.86" y1="17.65" x2="8.86" y2="13.02" gradientTransform="scale(3.55556)"><stop offset="0" style="stop-color:#1490df;stop-opacity:1"/><stop offset=".98" style="stop-color:#1f56a3;stop-opacity:1"/></linearGradient><clipPath id="b"><path d="M0 0h64v64H0z"/></clipPath><clipPath id="c"><path d="M0 0h64v64H0z"/></clipPath><mask id="f"><g filter="url(#a)"><path style="fill:#000;fill-opacity:.2;stroke:none" d="M0 0h64v64H0z"/></g></mask><mask id="h"><g filter="url(#a)"><path style="fill:#000;fill-opacity:.2;stroke:none" d="M0 0h64v64H0z"/></g></mask><g id="e" clip-path="url(#b)"><path style="stroke:none;fill-rule:nonzero;fill:#83b9f9;fill-opacity:1" d="m20.836 31.148 10.668-6.187v12.445Zm0 0"/></g><g id="g" clip-path="url(#c)"><path style="stroke:none;fill-rule:nonzero;fill:#5ea0ef;fill-opacity:1" d="m42.168 31.148-10.664-6.187v12.445Zm0 0"/></g><filter id="a" filterUnits="objectBoundingBox" x="0%" y="0%" width="100%" height="100%"><feColorMatrix in="SourceGraphic" values="0 0 0 0 1 0 0 0 0 1 0 0 0 0 1 0 0 0 1 0"/></filter></defs><path style="stroke:none;fill-rule:nonzero;fill:url(#d)" d="M1.637 3.625h59.73c1.18 0 2.137.957 2.137 2.137V44.16c0 1.18-.957 2.133-2.137 2.133H1.637A2.13 2.13 0 0 1-.496 44.16V5.762c0-1.18.953-2.137 2.133-2.137Zm0 0"/><path style="stroke:none;fill-rule:nonzero;fill:#fff;fill-opacity:1" d="M4.23 7.184h54.543a1.17 1.17 0 0 1 1.172 1.171v33.207c0 .649-.523 1.176-1.172 1.176H4.23a1.174 1.174 0 0 1-1.171-1.175V8.355A1.17 1.17 0 0 1 4.23 7.184Zm0 0"/><path style="stroke:none;fill-rule:nonzero;fill:#0078d4;fill-opacity:1" d="M42.168 18.738v12.41l-10.664 6.258V24.961Zm0 0"/><path style="stroke:none;fill-rule:nonzero;fill:#83b9f9;fill-opacity:1" d="m42.168 18.738-10.664 6.258-10.668-6.258 10.668-6.222Zm0 0"/><path style="stroke:none;fill-rule:nonzero;fill:#5ea0ef;fill-opacity:1" d="M31.504 24.996v12.41l-10.668-6.258v-12.41Zm0 0"/><use xlink:href="#e" mask="url(#f)"/><use xlink:href="#g" mask="url(#h)"/><path style="stroke:none;fill-rule:nonzero;fill:url(#i)" d="M44.3 59.2c-6.292-.997-6.538-5.583-6.538-12.907H25.207c0 7.324-.246 11.91-6.539 12.906a3.55 3.55 0 0 0-3.164 3.555h32a3.559 3.559 0 0 0-3.203-3.555Zm0 0"/></svg>