<svg xmlns="http://www.w3.org/2000/svg" width="64" height="64"><defs><linearGradient id="a" gradientUnits="userSpaceOnUse" x1="8.88" y1="12.21" x2="8.88" y2=".21" gradientTransform="scale(3.55556)"><stop offset="0" style="stop-color:#0078d4;stop-opacity:1"/><stop offset=".82" style="stop-color:#5ea0ef;stop-opacity:1"/></linearGradient><linearGradient id="b" gradientUnits="userSpaceOnUse" x1="8.88" y1="16.84" x2="8.88" y2="12.21" gradientTransform="scale(3.55556)"><stop offset=".15" style="stop-color:#ccc;stop-opacity:1"/><stop offset="1" style="stop-color:#707070;stop-opacity:1"/></linearGradient></defs><path style="stroke:none;fill-rule:nonzero;fill:url(#a)" d="M1.707.746h59.734c1.176 0 2.133.957 2.133 2.133V41.28a2.136 2.136 0 0 1-2.133 2.133H1.707a2.133 2.133 0 0 1-2.133-2.133V2.88c0-1.176.953-2.133 2.133-2.133Zm0 0"/><path style="stroke:none;fill-rule:nonzero;fill:#50e6ff;fill-opacity:1" d="M42.238 15.86v12.406l-10.664 6.257V22.078Zm0 0"/><path style="stroke:none;fill-rule:nonzero;fill:#c3f1ff;fill-opacity:1" d="m42.238 15.86-10.664 6.257-10.668-6.258 10.668-6.222Zm0 0"/><path style="stroke:none;fill-rule:nonzero;fill:#9cebff;fill-opacity:1" d="M31.574 22.117v12.406l-10.668-6.257V15.859Zm0 0"/><path style="stroke:none;fill-rule:nonzero;fill:#c3f1ff;fill-opacity:1" d="m20.906 28.266 10.668-6.188v12.445Zm0 0"/><path style="stroke:none;fill-rule:nonzero;fill:#9cebff;fill-opacity:1" d="m42.238 28.266-10.664-6.188v12.445Zm0 0"/><path style="stroke:none;fill-rule:nonzero;fill:url(#b)" d="M44.41 56.32c-6.332-.996-6.578-5.547-6.578-12.906h-12.55c0 7.36-.216 11.91-6.544 12.906a3.554 3.554 0 0 0-3.164 3.555h32a3.554 3.554 0 0 0-3.164-3.555Zm0 0"/></svg>