<svg xmlns="http://www.w3.org/2000/svg" width="64" height="64"><defs><linearGradient id="a" gradientUnits="userSpaceOnUse" x1="9.01" y1="11.69" x2="9.01" y2="2.48" gradientTransform="scale(3.55556)"><stop offset="0" style="stop-color:#0078d4;stop-opacity:1"/><stop offset=".54" style="stop-color:#358ee3;stop-opacity:1"/><stop offset="1" style="stop-color:#5ea0ef;stop-opacity:1"/></linearGradient></defs><path style="stroke:none;fill-rule:nonzero;fill:#76bc2d;fill-opacity:1" d="M53.617 39.54c0-4.892-9.66-8.856-21.582-8.856-11.918 0-21.582 3.964-21.582 8.855 0 4.887 9.664 8.852 21.582 8.852 11.922 0 21.582-3.965 21.582-8.852Zm0 0"/><path style="stroke:none;fill-rule:nonzero;fill:#5e9624;fill-opacity:1" d="M39.75 39.465c0-1.078-3.215-1.953-7.18-1.953-3.968 0-7.183.875-7.183 1.953 0 1.082 3.215 1.957 7.183 1.957 3.965 0 7.18-.875 7.18-1.957Zm0 0"/><path style="stroke:none;fill-rule:nonzero;fill:url(#a)" d="M53.617 19.875c0-4.89-9.66-8.852-21.582-8.852-11.918 0-21.582 3.961-21.582 8.852 0 4.89 9.664 8.855 21.582 8.855 11.922 0 21.582-3.964 21.582-8.855Zm0 0"/><path style="stroke:none;fill-rule:nonzero;fill:#005ba1;fill-opacity:1" d="M39.75 19.77c0-1.082-3.215-1.957-7.18-1.957-3.968 0-7.183.875-7.183 1.957 0 1.078 3.215 1.953 7.183 1.953 3.965 0 7.18-.875 7.18-1.953Zm0 0"/><path style="stroke:none;fill-rule:nonzero;fill:#949494;fill-opacity:1" d="M13.832.426H3.164a2.063 2.063 0 0 0-2.133 2.097v10.668c0 .57.461 1.032 1.032 1.032h1.171c.282.007.551-.094.754-.29.2-.195.313-.46.313-.742V3.555h9.531c.277.011.55-.094.75-.29.203-.195.316-.46.316-.742v-1.03a1.055 1.055 0 0 0-.3-.766c-.203-.2-.48-.309-.766-.301ZM60.445.426H49.777c-.59 0-1.066.476-1.066 1.066v1.14c.07.532.527.927 1.066.923h9.567v9.601a1.02 1.02 0 0 0 .312.778c.211.203.496.308.79.289h1.171c.281.007.551-.094.754-.29.2-.195.313-.46.313-.742V2.523A2.083 2.083 0 0 0 62.02.988a2.092 2.092 0 0 0-1.575-.562ZM13.832 61.191H4.301V51.59c0-.278-.114-.547-.313-.742a1.056 1.056 0 0 0-.754-.29H2.063c-.57 0-1.032.465-1.032 1.032v10.668a2.068 2.068 0 0 0 .59 1.48c.39.395.918.617 1.473.617h10.668a1.03 1.03 0 0 0 1.066-1.03v-1.138a1.068 1.068 0 0 0-.996-.996ZM61.477 50.559h-1.032c-.57 0-1.03.464-1.03 1.03v9.602h-9.638a1.102 1.102 0 0 0-1.066 1.067v1.137c.02.578.492 1.03 1.066 1.03h10.668a2.098 2.098 0 0 0 2.098-2.097V51.664a1.037 1.037 0 0 0-1.066-1.105Zm0 0"/><path style="stroke:none;fill-rule:nonzero;fill:#5e9624;fill-opacity:1" d="M32 48.215c11.91 0 21.582-3.95 21.582-8.856v5.227c-.25 4.766-9.883 8.746-21.582 8.746-11.7 0-21.582-3.98-21.582-8.852v-5.12c.035 4.906 9.707 8.855 21.582 8.855Zm0 0"/><path style="stroke:none;fill-rule:nonzero;fill:#0078d4;fill-opacity:1" d="M32 28.445c11.91 0 21.582-3.984 21.582-8.855v5.3c-.25 4.797-9.883 8.602-21.582 8.602-11.7 0-21.547-3.98-21.547-8.887V19.7c0 4.871 9.672 8.746 21.547 8.746Zm0 0"/></svg>