<svg xmlns="http://www.w3.org/2000/svg" width="64" height="64"><defs><linearGradient id="a" gradientUnits="userSpaceOnUse" x1="-175.993" y1="-343.723" x2="-175.993" y2="-359.232" gradientTransform="matrix(4.11022 0 0 3.65867 755.815 1317.504)"><stop offset="0" style="stop-color:#fea11b;stop-opacity:1"/><stop offset=".284" style="stop-color:#fea51a;stop-opacity:1"/><stop offset=".547" style="stop-color:#feb018;stop-opacity:1"/><stop offset=".8" style="stop-color:#ffc314;stop-opacity:1"/><stop offset="1" style="stop-color:#ffd70f;stop-opacity:1"/></linearGradient></defs><path style="stroke:none;fill-rule:nonzero;fill:#50e6ff;fill-opacity:1" d="m19.7 46.598-2.083 2.086a.947.947 0 0 1-1.344.004L.793 33.254a1.903 1.903 0 0 1-.004-2.684l2.094-2.097L19.707 45.25a.949.949 0 0 1 .004 1.34Zm0 0"/><path style="stroke:none;fill-rule:nonzero;fill:#1490df;fill-opacity:1" d="m17.293 15.305 2.098 2.093a.945.945 0 0 1 0 1.34L2.863 35.313.766 33.218a1.89 1.89 0 0 1-.004-2.68l15.191-15.234a.953.953 0 0 1 1.34 0Zm0 0"/><path style="stroke:none;fill-rule:nonzero;fill:#50e6ff;fill-opacity:1" d="m61.117 28.488 2.094 2.098a1.894 1.894 0 0 1-.004 2.68l-15.48 15.433a.945.945 0 0 1-1.34 0l-2.082-2.09a.945.945 0 0 1 0-1.34l16.82-16.773Zm0 0"/><path style="stroke:none;fill-rule:nonzero;fill:#1490df;fill-opacity:1" d="m63.227 33.21-2.098 2.09-16.527-16.57a.95.95 0 0 1 0-1.343l2.097-2.094a.954.954 0 0 1 1.344.004l15.191 15.238a1.89 1.89 0 0 1-.004 2.68Zm0 0"/><path style="stroke:none;fill-rule:nonzero;fill:url(#a)" d="M30.078 35.2H17.316a.683.683 0 0 1-.71-.645c0-.09.019-.184.062-.266l15.3-30.27a.727.727 0 0 1 .66-.378h15.095a.688.688 0 0 1 .71.644.564.564 0 0 1-.124.356L30.344 28.324h17.52a.68.68 0 0 1 .71.645c0 .16-.066.316-.183.433l-29.118 30.29c-.273.163-2.218 1.777-1.265-.672Zm0 0"/></svg>