<svg xmlns="http://www.w3.org/2000/svg" width="64" height="64"><defs><linearGradient id="a" gradientUnits="userSpaceOnUse" x1="8.07" y1="17.35" x2="8.07" y2="2.34" gradientTransform="scale(3.55556)"><stop offset="0" style="stop-color:#32bedd;stop-opacity:1"/><stop offset=".3" style="stop-color:#36c3e1;stop-opacity:1"/><stop offset=".67" style="stop-color:#41d2ee;stop-opacity:1"/><stop offset="1" style="stop-color:#50e6ff;stop-opacity:1"/></linearGradient></defs><path style="stroke:none;fill-rule:nonzero;fill:#0078d4;fill-opacity:1" d="M2.914 2.313h39.113c.98 0 1.778.792 1.778 1.777v49.812c0 .98-.797 1.778-1.778 1.778H2.914c-.98 0-1.777-.797-1.777-1.778V4.09c0-.985.797-1.777 1.777-1.777Zm0 0"/><path style="stroke:none;fill-rule:nonzero;fill:url(#a)" d="M9.137 8.32H48.25c.98 0 1.777.797 1.777 1.778V59.91c0 .985-.797 1.778-1.777 1.778H9.137c-.98 0-1.778-.793-1.778-1.778V10.098c0-.98.797-1.778 1.778-1.778Zm0 0"/><path style="stroke:none;fill-rule:nonzero;fill:#773adc;fill-opacity:1" d="M62.719 45.477 52.516 35.309a.493.493 0 0 0-.578-.16.504.504 0 0 0-.313.515v5.938c-12.266 0-24.531 6.539-24.531 18.378 1.742-2.628 10.668-9.632 24.531-9.632v5.687c.004.211.129.399.32.48.192.087.414.051.57-.09L62.72 46.224a.604.604 0 0 0 0-.746Zm0 0"/><path style="stroke:none;fill-rule:nonzero;fill:#50e6ff;fill-opacity:1" d="M41.137 24.25v14.469L28.69 46.008V31.504Zm0 0"/><path style="stroke:none;fill-rule:nonzero;fill:#c3f1ff;fill-opacity:1" d="M41.137 24.25 28.69 31.54 16.25 24.25l12.441-7.29Zm0 0"/><path style="stroke:none;fill-rule:nonzero;fill:#9cebff;fill-opacity:1" d="M28.691 31.54v14.468l-12.441-7.29V24.25Zm0 0"/><path style="stroke:none;fill-rule:nonzero;fill:#c3f1ff;fill-opacity:1" d="m16.25 38.719 12.441-7.215v14.504Zm0 0"/><path style="stroke:none;fill-rule:nonzero;fill:#9cebff;fill-opacity:1" d="M41.137 38.719 28.69 31.504v14.504Zm0 0"/></svg>