<svg xmlns="http://www.w3.org/2000/svg" width="64" height="64"><defs><linearGradient id="a" gradientUnits="userSpaceOnUse" x1="9" y1="17.44" x2="9" y2="11.44" gradientTransform="scale(3.55556)"><stop offset="0" style="stop-color:#0078d4;stop-opacity:1"/><stop offset=".82" style="stop-color:#5ea0ef;stop-opacity:1"/></linearGradient></defs><path style="stroke:none;fill-rule:nonzero;fill:#005ba1;fill-opacity:1" d="M21.477 1.992h32.46c.825 0 1.493.668 1.493 1.492v41.387c0 .824-.668 1.492-1.492 1.492H21.477a1.495 1.495 0 0 1-1.497-1.492V3.484c0-.824.672-1.492 1.497-1.492Zm0 0"/><path style="stroke:none;fill-rule:nonzero;fill:#0078d4;fill-opacity:1" d="M16.105 6.793H48.57c.825 0 1.492.668 1.492 1.492v41.387c0 .824-.667 1.492-1.492 1.492H16.105a1.492 1.492 0 0 1-1.492-1.492V8.285c0-.824.668-1.492 1.492-1.492Zm0 0"/><path style="stroke:none;fill-rule:nonzero;fill:#32bedd;fill-opacity:1" d="M10.668 11.625h32.46c.825 0 1.493.672 1.493 1.496v41.387c0 .824-.668 1.492-1.492 1.492H10.668a1.495 1.495 0 0 1-1.496-1.492V13.12c0-.824.672-1.496 1.496-1.496Zm0 0"/><path style="stroke:none;fill-rule:nonzero;fill:#50e6ff;fill-opacity:1" d="M37.262 24.852v12.054L26.914 42.95V30.9Zm0 0"/><path style="stroke:none;fill-rule:nonzero;fill:#c3f1ff;fill-opacity:1" d="m37.262 24.852-10.348 6.082-10.344-6.082 10.344-6.043Zm0 0"/><path style="stroke:none;fill-rule:nonzero;fill:#9cebff;fill-opacity:1" d="M26.914 30.934v12.015L16.57 36.906V24.852Zm0 0"/><path style="stroke:none;fill-rule:nonzero;fill:#c3f1ff;fill-opacity:1" d="m16.57 36.906 10.344-6.008V42.95Zm0 0"/><path style="stroke:none;fill-rule:nonzero;fill:#9cebff;fill-opacity:1" d="m37.262 36.906-10.348-6.008V42.95Zm0 0"/><path style="stroke:none;fill-rule:nonzero;fill:url(#a)" d="M3.98 40.676h56a1.99 1.99 0 0 1 1.993 1.992V59.98a1.99 1.99 0 0 1-1.993 1.993h-56a1.99 1.99 0 0 1-1.988-1.993V42.668a1.99 1.99 0 0 1 1.988-1.992Zm0 0"/><path style="stroke:none;fill-rule:nonzero;fill:#f2f2f2;fill-opacity:1" d="M24.996 45.938H39.04a1.53 1.53 0 0 1 1.531 1.527v.039a1.53 1.53 0 0 1-1.53 1.527H24.995a1.53 1.53 0 0 1-1.531-1.527v-.04a1.53 1.53 0 0 1 1.531-1.526Zm0 0"/></svg>