<svg xmlns="http://www.w3.org/2000/svg" width="64" height="64"><defs><linearGradient id="a" gradientUnits="userSpaceOnUse" x1="5.51" y1="802.5" x2="12.94" y2="810.58" gradientTransform="matrix(3.55556 0 0 5.65333 0 -4546.702)"><stop offset="0" style="stop-color:#0078d4;stop-opacity:1"/><stop offset=".02" style="stop-color:#0d7ed8;stop-opacity:1"/><stop offset=".08" style="stop-color:#2b8ae0;stop-opacity:1"/><stop offset=".15" style="stop-color:#4194e7;stop-opacity:1"/><stop offset=".22" style="stop-color:#519beb;stop-opacity:1"/><stop offset=".29" style="stop-color:#5b9fee;stop-opacity:1"/><stop offset=".4" style="stop-color:#5ea0ef;stop-opacity:1"/><stop offset=".55" style="stop-color:#5b9fee;stop-opacity:1"/><stop offset=".68" style="stop-color:#509aeb;stop-opacity:1"/><stop offset=".8" style="stop-color:#3f92e6;stop-opacity:1"/><stop offset=".91" style="stop-color:#2688df;stop-opacity:1"/><stop offset=".99" style="stop-color:#127fd9;stop-opacity:1"/></linearGradient></defs><path style="stroke:none;fill-rule:nonzero;fill:#76bc2d;fill-opacity:1" d="M58.523 42.027c0-6.047-11.937-10.953-26.664-10.953-14.73 0-26.668 4.906-26.668 10.953s11.938 10.95 26.668 10.95c14.727 0 26.664-4.903 26.664-10.95Zm0 0"/><path style="stroke:none;fill-rule:nonzero;fill:#5e9624;fill-opacity:1" d="M41.387 41.922c0-1.336-3.965-2.418-8.852-2.418-4.89 0-8.855 1.082-8.855 2.418 0 1.332 3.965 2.414 8.855 2.414 4.887 0 8.852-1.082 8.852-2.414Zm0 0"/><path style="stroke:none;fill-rule:nonzero;fill:url(#a)" d="M58.523 17.742c0-6.047-11.937-10.949-26.664-10.949-14.73 0-26.668 4.902-26.668 10.95 0 6.046 11.938 10.948 26.668 10.948 14.727 0 26.664-4.902 26.664-10.949Zm0 0"/><path style="stroke:none;fill-rule:nonzero;fill:#005ba1;fill-opacity:1" d="M41.387 17.602c0-1.336-3.965-2.418-8.852-2.418-4.89 0-8.855 1.082-8.855 2.418 0 1.332 3.965 2.418 8.855 2.418 4.887 0 8.852-1.086 8.852-2.418Zm0 0"/><path style="stroke:none;fill-rule:nonzero;fill:#5e9624;fill-opacity:1" d="M32 52.766c14.754 0 26.668-4.907 26.668-10.953v6.472C58.168 54.152 46.438 58.95 32 58.95 17.562 58.95 5.332 54.043 5.332 48v-6.188C5.192 47.86 17.137 52.767 32 52.767Zm0 0"/><path style="stroke:none;fill-rule:nonzero;fill:#0078d4;fill-opacity:1" d="M32 28.445c14.754 0 26.668-4.906 26.668-10.953v6.473c-.5 5.867-12.23 10.668-26.668 10.668-14.438 0-26.668-4.91-26.668-10.953v-6.188C5.192 23.54 17.137 28.445 32 28.445Zm0 0"/></svg>