<svg xmlns="http://www.w3.org/2000/svg" width="64" height="64"><defs><linearGradient id="a" gradientUnits="userSpaceOnUse" x1="2525.57" y1="-412.026" x2="2525.544" y2="-402.136" gradientTransform="matrix(1.77778 .00356 .00356 -1.77778 -4469.941 -682.372)"><stop offset="0" style="stop-color:#ef7100;stop-opacity:1"/><stop offset="1" style="stop-color:#faa21d;stop-opacity:1"/></linearGradient><linearGradient id="b" gradientUnits="userSpaceOnUse" x1="12.79" y1="17.38" x2="12.79" y2="12.44" gradientTransform="scale(3.55556)"><stop offset="0" style="stop-color:#ef7100;stop-opacity:1"/><stop offset="1" style="stop-color:#faa21d;stop-opacity:1"/></linearGradient><linearGradient id="c" gradientUnits="userSpaceOnUse" x1="15.3" y1="9.98" x2="15.3" y2="5.04" gradientTransform="scale(3.55556)"><stop offset="0" style="stop-color:#ef7100;stop-opacity:1"/><stop offset="1" style="stop-color:#faa21d;stop-opacity:1"/></linearGradient><linearGradient id="d" gradientUnits="userSpaceOnUse" x1="2.7" y1="9.98" x2="2.7" y2="5.04" gradientTransform="scale(3.55556)"><stop offset="0" style="stop-color:#ef7100;stop-opacity:1"/><stop offset="1" style="stop-color:#faa21d;stop-opacity:1"/></linearGradient><linearGradient id="e" gradientUnits="userSpaceOnUse" x1="9" y1="5.56" x2="9" y2=".62" gradientTransform="scale(3.55556)"><stop offset="0" style="stop-color:#ef7100;stop-opacity:1"/><stop offset="1" style="stop-color:#faa21d;stop-opacity:1"/></linearGradient></defs><path style="stroke:none;fill-rule:nonzero;fill:#e27908;fill-opacity:1" d="M56.89 25.602 36.41 10.988 32 7.75l-4.336 3.2L7.11 25.601l8 24.175 1.672 5.121H47.36l1.602-5.12 7.93-24ZM20.48 49.777l-7.113-22.113L32 14.223l18.773 13.476-7.109 22.113Zm0 0"/><path style="stroke:none;fill-rule:nonzero;fill:url(#a)" d="M26.809 53.012c0 4.851-3.93 8.785-8.782 8.785-4.851 0-8.78-3.934-8.78-8.785a8.781 8.781 0 0 1 17.562 0Zm0 0"/><path style="stroke:none;fill-rule:nonzero;fill:url(#b)" d="M54.258 53.012c0 4.851-3.934 8.785-8.781 8.785a8.786 8.786 0 0 1-8.786-8.785 8.784 8.784 0 0 1 17.566 0Zm0 0"/><path style="stroke:none;fill-rule:nonzero;fill:url(#c)" d="M63.184 26.703a8.784 8.784 0 0 1-17.566 0 8.781 8.781 0 0 1 8.78-8.781c4.852 0 8.786 3.93 8.786 8.781Zm0 0"/><path style="stroke:none;fill-rule:nonzero;fill:url(#d)" d="M18.383 26.703a8.784 8.784 0 0 1-17.567 0c0-4.851 3.934-8.781 8.786-8.781a8.781 8.781 0 0 1 8.78 8.781Zm0 0"/><path style="stroke:none;fill-rule:nonzero;fill:url(#e)" d="M40.781 10.988a8.781 8.781 0 0 1-17.562 0c0-4.851 3.93-8.785 8.781-8.785 4.852 0 8.781 3.934 8.781 8.785Zm0 0"/></svg>