<svg xmlns="http://www.w3.org/2000/svg" xmlns:xlink="http://www.w3.org/1999/xlink" width="64" height="64"><defs><clipPath id="b"><path d="M0 0h64v64H0z"/></clipPath><clipPath id="c"><path d="M0 0h64v64H0z"/></clipPath><clipPath id="d"><path d="M0 0h64v64H0z"/></clipPath><clipPath id="e"><path d="M0 0h64v64H0z"/></clipPath><clipPath id="f"><path d="M0 0h64v64H0z"/></clipPath><clipPath id="g"><path d="M0 0h64v64H0z"/></clipPath><clipPath id="h"><path d="M0 0h64v64H0z"/></clipPath><mask id="k"><g filter="url(#a)"><path style="fill:#000;fill-opacity:.6;stroke:none" d="M0 0h64v64H0z"/></g></mask><mask id="m"><g filter="url(#a)"><path style="fill:#000;fill-opacity:.6;stroke:none" d="M0 0h64v64H0z"/></g></mask><mask id="o"><g filter="url(#a)"><path style="fill:#000;fill-opacity:.54902;stroke:none" d="M0 0h64v64H0z"/></g></mask><mask id="r"><g filter="url(#a)"><path style="fill:#000;fill-opacity:.54902;stroke:none" d="M0 0h64v64H0z"/></g></mask><mask id="t"><g filter="url(#a)"><path style="fill:#000;fill-opacity:.54902;stroke:none" d="M0 0h64v64H0z"/></g></mask><mask id="w"><g filter="url(#a)"><path style="fill:#000;fill-opacity:.701961;stroke:none" d="M0 0h64v64H0z"/></g></mask><mask id="z"><g filter="url(#a)"><path style="fill:#000;fill-opacity:.54902;stroke:none" d="M0 0h64v64H0z"/></g></mask><g id="j" clip-path="url(#b)"><path style="stroke:none;fill-rule:nonzero;fill:#fff;fill-opacity:1" d="M23.785 25.707a46.246 46.246 0 0 1 31.68-12.73 30.001 30.001 0 0 0-5.297-5.118 50.953 50.953 0 0 0-16.676 3.91 44.537 44.537 0 0 0-14.504 10.028 9.772 9.772 0 0 1 4.797 3.91Zm0 0"/></g><g id="l" clip-path="url(#c)"><path style="stroke:none;fill-rule:nonzero;fill:#fff;fill-opacity:1" d="M8.816 37.867a63.566 63.566 0 0 0-2.949 9.317 28 28 0 0 0 2.203 3.27c.64.816 1.246 1.566 1.957 2.312a63.72 63.72 0 0 1 3.84-12.34 9.811 9.811 0 0 1-5.05-2.559Zm0 0"/></g><g id="n" clip-path="url(#d)"><path style="stroke:none;fill-rule:nonzero;fill:#f2f2f2;fill-opacity:1" d="M12.3 21.723A42.728 42.728 0 0 1 9.849 11.27a29.003 29.003 0 0 0-3.91 5.156 45.359 45.359 0 0 0 2.027 8.465 9.562 9.562 0 0 1 4.336-3.168Zm0 0"/></g><g id="q" clip-path="url(#e)"><path style="stroke:none;fill-rule:nonzero;fill:#f2f2f2;fill-opacity:1" d="M29.723 48.605a6.292 6.292 0 0 1 1.922-4.515 42.332 42.332 0 0 1-8.997-6.613 9.747 9.747 0 0 1-5.296 2.949 46.347 46.347 0 0 0 5.156 4.55 42.875 42.875 0 0 0 7.289 4.446 6.34 6.34 0 0 1-.074-.817Zm0 0"/></g><g id="s" clip-path="url(#f)"><path style="stroke:none;fill-rule:nonzero;fill:#f2f2f2;fill-opacity:1" d="M52.125 49.352c-3.305 0-6.598-.38-9.813-1.137.016.129.016.262 0 .39a6.209 6.209 0 0 1-1.816 4.407 48.674 48.674 0 0 0 12.16.855 29.23 29.23 0 0 0 4.235-4.765 41.347 41.347 0 0 1-4.766.25Zm0 0"/></g><g id="v" clip-path="url(#g)"><path style="stroke:none;fill-rule:nonzero;fill:#f2f2f2;fill-opacity:1" d="M43.805 31.75a6.486 6.486 0 0 1 2.168-3.555 90.635 90.635 0 0 1-15.856-14.718 59.963 59.963 0 0 1-7.113-10.383 27.364 27.364 0 0 0-3.875 1.492 64.375 64.375 0 0 0 7.644 11.309A94.05 94.05 0 0 0 43.805 31.75Zm0 0"/></g><g id="y" clip-path="url(#h)"><path style="stroke:none;fill-rule:nonzero;fill:#f2f2f2;fill-opacity:1" d="m61.688 37.477-1.243-.606-1.066-.57h-.215l-.926-.746h-.246l-1.101-.711a6.292 6.292 0 0 1-2.278 3.273c.426.281.89.531 1.352.781l.285.176 1.242.676 3.059 1.602a30.67 30.67 0 0 0 1.031-3.946Zm0 0"/></g><linearGradient id="p" gradientUnits="userSpaceOnUse" x1="4.4" y1="11.48" x2="4.37" y2="7.53" gradientTransform="scale(3.55556)"><stop offset="0" style="stop-color:#ccc;stop-opacity:1"/><stop offset="1" style="stop-color:#fcfcfc;stop-opacity:1"/></linearGradient><linearGradient id="u" gradientUnits="userSpaceOnUse" x1="10.13" y1="15.45" x2="10.13" y2="11.9" gradientTransform="scale(3.55556)"><stop offset="0" style="stop-color:#ccc;stop-opacity:1"/><stop offset="1" style="stop-color:#fcfcfc;stop-opacity:1"/></linearGradient><linearGradient id="x" gradientUnits="userSpaceOnUse" x1="14.18" y1="11.15" x2="14.18" y2="7.38" gradientTransform="scale(3.55556)"><stop offset="0" style="stop-color:#ccc;stop-opacity:1"/><stop offset="1" style="stop-color:#fcfcfc;stop-opacity:1"/></linearGradient><linearGradient id="A" gradientUnits="userSpaceOnUse" x1="4.4" y1="11.48" x2="4.37" y2="7.53" gradientTransform="scale(3.55556)"><stop offset="0" style="stop-color:#ccc;stop-opacity:1"/><stop offset="1" style="stop-color:#fcfcfc;stop-opacity:1"/></linearGradient><linearGradient id="B" gradientUnits="userSpaceOnUse" x1="10.13" y1="15.45" x2="10.13" y2="11.9" gradientTransform="scale(3.55556)"><stop offset="0" style="stop-color:#ccc;stop-opacity:1"/><stop offset="1" style="stop-color:#fcfcfc;stop-opacity:1"/></linearGradient><radialGradient id="i" gradientUnits="userSpaceOnUse" cx="13428.81" cy="3518.86" fx="13428.81" fy="3518.86" r="56.67" gradientTransform="matrix(.53333 0 0 .53333 -7130.062 -1844.729)"><stop offset=".18" style="stop-color:#5ea0ef;stop-opacity:1"/><stop offset="1" style="stop-color:#0078d4;stop-opacity:1"/></radialGradient><filter id="a" filterUnits="objectBoundingBox" x="0%" y="0%" width="100%" height="100%"><feColorMatrix in="SourceGraphic" values="0 0 0 0 1 0 0 0 0 1 0 0 0 0 1 0 0 0 1 0"/></filter></defs><path style="stroke:none;fill-rule:nonzero;fill:url(#i)" d="M50.523 55.895c-13.195 10.23-32.187 7.824-42.418-5.372C-2.125 37.328.281 18.336 13.477 8.105l.32-.21c13.262-9.903 32.02-7.293 42.078 5.851 10.059 13.145 7.672 31.934-5.352 42.149"/><use xlink:href="#j" mask="url(#k)"/><use xlink:href="#l" mask="url(#m)"/><use xlink:href="#n" mask="url(#o)"/><path style="stroke:none;fill-rule:nonzero;fill:url(#p)" d="M25.281 30.863c0 5.36-4.347 9.707-9.707 9.707-5.363 0-9.707-4.347-9.707-9.707a9.704 9.704 0 0 1 9.707-9.707c5.36 0 9.707 4.344 9.707 9.707Zm0 0"/><use xlink:href="#q" mask="url(#r)"/><use xlink:href="#s" mask="url(#t)"/><path style="stroke:none;fill-rule:nonzero;fill:url(#u)" d="M42.348 48.605a6.33 6.33 0 0 1-12.66 0 6.33 6.33 0 0 1 12.66 0Zm0 0"/><use xlink:href="#v" mask="url(#w)"/><path style="stroke:none;fill-rule:nonzero;fill:url(#x)" d="M57.137 32.96a6.718 6.718 0 1 1-13.438 0 6.722 6.722 0 0 1 6.719-6.722 6.722 6.722 0 0 1 6.719 6.723Zm0 0"/><use xlink:href="#y" mask="url(#z)"/><path style="stroke:none;fill-rule:nonzero;fill:url(#A)" d="M25.281 30.863c0 5.36-4.347 9.707-9.707 9.707-5.363 0-9.707-4.347-9.707-9.707a9.704 9.704 0 0 1 9.707-9.707c5.36 0 9.707 4.344 9.707 9.707Zm0 0"/><path style="stroke:none;fill-rule:nonzero;fill:url(#B)" d="M42.348 48.605a6.33 6.33 0 0 1-12.66 0 6.33 6.33 0 0 1 12.66 0Zm0 0"/></svg>