<svg xmlns="http://www.w3.org/2000/svg" width="64" height="64"><defs><linearGradient id="a" gradientUnits="userSpaceOnUse" x1="7.12" y1="17.44" x2="7.12" y2=".56" gradientTransform="scale(3.55556)"><stop offset="0" style="stop-color:#32bedd;stop-opacity:1"/><stop offset=".36" style="stop-color:#34c1e0;stop-opacity:1"/><stop offset=".63" style="stop-color:#3ccbe8;stop-opacity:1"/><stop offset=".88" style="stop-color:#48dbf6;stop-opacity:1"/><stop offset="1" style="stop-color:#50e6ff;stop-opacity:1"/></linearGradient></defs><path style="stroke:none;fill-rule:nonzero;fill:url(#a)" d="M3.344 1.992h43.98a1.99 1.99 0 0 1 1.992 1.988v56.04a1.99 1.99 0 0 1-1.992 1.988H3.344a1.99 1.99 0 0 1-1.992-1.988V3.98a1.99 1.99 0 0 1 1.992-1.988Zm0 0"/><path style="stroke:none;fill-rule:nonzero;fill:#773adc;fill-opacity:1" d="M62.508 44.02 52.3 33.812a.532.532 0 0 0-.887.356v5.973c-12.266 0-24.535 6.543-24.535 18.347 1.742-2.629 10.668-9.636 24.535-9.636v5.726a.53.53 0 0 0 .332.453c.191.078.406.04.555-.097L62.508 44.73a.536.536 0 0 0 0-.71Zm0 0"/><path style="stroke:none;fill-rule:nonzero;fill:#50e6ff;fill-opacity:1" d="M39.324 19.91v16.285l-13.972 8.18v-16.32Zm0 0"/><path style="stroke:none;fill-rule:nonzero;fill:#c3f1ff;fill-opacity:1" d="m39.324 19.91-13.972 8.18-14.008-8.18 14.008-8.176Zm0 0"/><path style="stroke:none;fill-rule:nonzero;fill:#9cebff;fill-opacity:1" d="M25.352 28.09v16.285l-14.008-8.18V19.91Zm0 0"/><path style="stroke:none;fill-rule:nonzero;fill:#c3f1ff;fill-opacity:1" d="m11.344 36.195 14.008-8.14v16.32Zm0 0"/><path style="stroke:none;fill-rule:nonzero;fill:#9cebff;fill-opacity:1" d="m39.324 36.195-13.972-8.14v16.32Zm0 0"/></svg>