<svg xmlns="http://www.w3.org/2000/svg" width="64" height="64"><defs><linearGradient id="a" gradientUnits="userSpaceOnUse" x1="7.05" y1="8.98" x2="7.05" y2=".34" gradientTransform="scale(3.55556)"><stop offset="0" style="stop-color:#0078d4;stop-opacity:1"/><stop offset="1" style="stop-color:#5ea0ef;stop-opacity:1"/></linearGradient><linearGradient id="b" gradientUnits="userSpaceOnUse" x1="7.05" y1="3.78" x2="7.05" y2="2.4" gradientTransform="scale(3.55556)"><stop offset="0" style="stop-color:#194f9b;stop-opacity:0"/><stop offset=".26" style="stop-color:#194f9c;stop-opacity:.0117647"/><stop offset=".41" style="stop-color:#18519e;stop-opacity:.0509804"/><stop offset=".52" style="stop-color:#1654a2;stop-opacity:.109804"/><stop offset=".62" style="stop-color:#1457a7;stop-opacity:.211765"/><stop offset=".71" style="stop-color:#115cae;stop-opacity:.329412"/><stop offset=".8" style="stop-color:#0d62b6;stop-opacity:.470588"/><stop offset=".88" style="stop-color:#096ac0;stop-opacity:.65098"/><stop offset=".95" style="stop-color:#0472cb;stop-opacity:.85098"/><stop offset="1" style="stop-color:#0078d4;stop-opacity:1"/></linearGradient></defs><path style="stroke:none;fill-rule:nonzero;fill:#949494;fill-opacity:1" d="m56.105 31.61 6.649-6.72c.535-.57.355-1.03-.461-1.03h-3.305a.828.828 0 0 1-.593-.255.833.833 0 0 1-.227-.601c0-4.195-1.066-15.895-17.066-16.285a.833.833 0 0 0-.602.226.83.83 0 0 0-.25.594v4.05a.81.81 0 0 0 .262.606.826.826 0 0 0 .625.215c3.09-.691 6.32.16 8.672 2.277a9.778 9.778 0 0 1 3.168 8.387.802.802 0 0 1-.227.602.804.804 0 0 1-.59.254h-3.094c-.816 0-.996.46-.46 1.066l6.187 6.754a.85.85 0 0 0 1.312-.14Zm0 0"/><path style="stroke:none;fill-rule:nonzero;fill:url(#a)" d="M4.941 1.207h40.25a2.03 2.03 0 0 1 2.028 2.027v26.668c0 1.121-.91 2.028-2.028 2.028H4.941a2.028 2.028 0 0 1-2.027-2.028V3.234a2.03 2.03 0 0 1 2.027-2.027Zm0 0"/><path style="stroke:none;fill-rule:nonzero;fill:#83b9f9;fill-opacity:1" d="M4.906 1.207h40.856a1.46 1.46 0 0 1 1.457 1.461v5.867H2.914v-5.3c0-1.106.887-2.008 1.992-2.028Zm0 0"/><path style="stroke:none;fill-rule:nonzero;fill:url(#b)" d="M2.914 8.535H47.22v4.906H2.914Zm0 0"/><path style="stroke:none;fill-rule:nonzero;fill:#005ba1;fill-opacity:1" d="M36.48 38.934h25.598c.707 0 1.281.574 1.281 1.28v16.958c0 .707-.574 1.281-1.28 1.281H36.48a1.282 1.282 0 0 1-1.28-1.281V40.215c0-.707.573-1.281 1.28-1.281Zm0 0"/><path style="stroke:none;fill-rule:nonzero;fill:#fff;fill-opacity:1" d="M9.281 11.344h31.535a.674.674 0 0 1 .676.636v3.31a.678.678 0 0 1-.676.605H9.281a.641.641 0 0 1-.676-.605v-3.31a.635.635 0 0 1 .676-.636ZM9.281 17.777h31.57a.602.602 0 0 1 .64.605l.001 3.306c0 .355-.285.64-.64.64H9.282a.639.639 0 0 1-.641-.64v-3.165a.592.592 0 0 1 .129-.535.606.606 0 0 1 .511-.21ZM9.281 24.496h31.57c.356 0 .641.29.641.64v3.31a.64.64 0 0 1-.64.605H9.282a.642.642 0 0 1-.641-.606v-3.308c0-.352.285-.64.64-.64Zm0 0"/><path style="stroke:none;fill-rule:nonzero;fill:#0078d4;fill-opacity:1" d="M31.82 34.738h25.602c.707 0 1.281.575 1.281 1.282v16.957c0 .707-.574 1.28-1.281 1.28H31.82a1.281 1.281 0 0 1-1.277-1.28V36.02c0-.708.574-1.282 1.277-1.282Zm0 0"/><path style="stroke:none;fill-rule:nonzero;fill:#83b9f9;fill-opacity:1" d="M32 34.738h25.957c.508 0 .922.414.922.926v3.555H30.543v-3.38A1.282 1.282 0 0 1 32 34.738Zm0 0"/><path style="stroke:none;fill-rule:nonzero;fill:#fff;fill-opacity:1" d="M34.594 41.207h20.054c.223 0 .41.172.426.395v2.097a.426.426 0 0 1-.426.39H34.594a.39.39 0 0 1-.297-.1.39.39 0 0 1-.129-.29v-2.097a.393.393 0 0 1 .426-.395ZM34.594 45.367h20.054a.39.39 0 0 1 .426.395v2.097a.387.387 0 0 1-.426.391H34.594a.432.432 0 0 1-.426-.39v-2.098a.432.432 0 0 1 .426-.395ZM34.594 49.563h20.054a.39.39 0 0 1 .426.395v2.097a.387.387 0 0 1-.426.39H34.594a.432.432 0 0 1-.426-.39v-2.098a.432.432 0 0 1 .426-.395Zm0 0"/></svg>