<svg xmlns="http://www.w3.org/2000/svg" width="64" height="64"><defs><linearGradient id="a" gradientUnits="userSpaceOnUse" x1="8.8" y1="12.87" x2="8.8" y2=".87" gradientTransform="scale(3.55556)"><stop offset="0" style="stop-color:#0078d4;stop-opacity:1"/><stop offset=".82" style="stop-color:#5ea0ef;stop-opacity:1"/></linearGradient><linearGradient id="b" gradientUnits="userSpaceOnUse" x1="8.81" y1="17.5" x2="8.81" y2="12.87" gradientTransform="scale(3.55556)"><stop offset="0" style="stop-color:#1490df;stop-opacity:1"/><stop offset=".98" style="stop-color:#1f56a3;stop-opacity:1"/></linearGradient></defs><path style="stroke:none;fill-rule:nonzero;fill:url(#a)" d="M1.422 3.094h59.734c1.176 0 2.133.953 2.133 2.133v38.398c0 1.18-.957 2.137-2.133 2.137H1.422a2.134 2.134 0 0 1-2.133-2.137V5.227a2.13 2.13 0 0 1 2.133-2.133Zm0 0"/><path style="stroke:none;fill-rule:nonzero;fill:#50e6ff;fill-opacity:1" d="M41.957 18.203v12.41l-10.668 6.258V24.426Zm0 0"/><path style="stroke:none;fill-rule:nonzero;fill:#c3f1ff;fill-opacity:1" d="m41.957 18.203-10.633 6.258-10.703-6.258 10.703-6.223Zm0 0"/><path style="stroke:none;fill-rule:nonzero;fill:#9cebff;fill-opacity:1" d="M31.29 24.46v12.411L20.62 30.613v-12.41Zm0 0"/><path style="stroke:none;fill-rule:nonzero;fill:#c3f1ff;fill-opacity:1" d="m20.621 30.613 10.668-6.187V36.87Zm0 0"/><path style="stroke:none;fill-rule:nonzero;fill:#9cebff;fill-opacity:1" d="m41.957 30.613-10.668-6.187V36.87Zm0 0"/><path style="stroke:none;fill-rule:nonzero;fill:url(#b)" d="M44.125 58.668c-6.328-.996-6.578-5.547-6.543-12.906H24.891c0 7.36 0 11.91-6.438 12.906a3.553 3.553 0 0 0-3.129 3.555h32a3.769 3.769 0 0 0-3.199-3.555Zm0 0"/><path style="stroke:none;fill-rule:nonzero;fill:#fff;fill-opacity:1" d="M16.64 7.36H6.864a2.347 2.347 0 0 0-2.347 2.347v9.813a1.17 1.17 0 0 0 1.171 1.171h.786c.644 0 1.172-.523 1.172-1.171v-9.067h8.996a1.173 1.173 0 0 0 1.136-1.172v-.746c0-.637-.504-1.156-1.136-1.176ZM16.64 38.152H7.61v-8.996c0-.648-.528-1.176-1.173-1.176h-.75c-.648 0-1.171.528-1.171 1.176v9.953a2.358 2.358 0 0 0 .675 1.684c.442.45 1.043.7 1.672.7h9.778c.34-.016.66-.177.875-.442.218-.262.312-.606.261-.946v-.78c0-.634-.504-1.153-1.136-1.173ZM55.86 7.465h-9.637c-.649 0-1.172.527-1.172 1.176v.746a1.171 1.171 0 0 0 1.172 1.281h8.996v8.922c0 .648.523 1.176 1.172 1.176h.816c.648 0 1.176-.528 1.176-1.176V9.813c0-.653-.27-1.278-.75-1.727a2.355 2.355 0 0 0-1.774-.621ZM57.066 28.055h-.746a1.17 1.17 0 0 0-1.172 1.172v9.03h-8.925a1.17 1.17 0 0 0-1.172 1.173v.785a1.17 1.17 0 0 0 1.172 1.172H56c1.3 0 2.363-1.047 2.383-2.348v-9.812c0-.336-.14-.66-.395-.883a1.153 1.153 0 0 0-.922-.29Zm0 0"/></svg>