<svg xmlns="http://www.w3.org/2000/svg" width="64" height="64"><defs><linearGradient id="a" gradientUnits="userSpaceOnUse" x1="12.74" y1="15.28" x2="12.74" y2="8.52" gradientTransform="scale(3.55556)"><stop offset="0" style="stop-color:#0078d4;stop-opacity:1"/><stop offset=".82" style="stop-color:#5ea0ef;stop-opacity:1"/></linearGradient><linearGradient id="b" gradientUnits="userSpaceOnUse" x1="12.74" y1="17.89" x2="12.74" y2="15.28" gradientTransform="scale(3.55556)"><stop offset=".15" style="stop-color:#ccc;stop-opacity:1"/><stop offset="1" style="stop-color:#707070;stop-opacity:1"/></linearGradient></defs><path style="stroke:none;fill-rule:nonzero;fill:#005ba1;fill-opacity:1" d="M4.02 3.164h33.527c.668 0 1.207.543 1.207 1.211v21.582c0 .668-.54 1.207-1.207 1.207H4.02c-.668 0-1.211-.539-1.211-1.207V4.375c0-.668.543-1.21 1.21-1.21Zm0 0"/><path style="stroke:none;fill-rule:nonzero;fill:#50e6ff;fill-opacity:1" d="M26.773 11.664v7.004l-5.972 3.484v-6.968Zm0 0"/><path style="stroke:none;fill-rule:nonzero;fill:#c3f1ff;fill-opacity:1" d="m26.773 11.664-5.972 3.52-6.008-3.52 6.008-3.523Zm0 0"/><path style="stroke:none;fill-rule:nonzero;fill:#9cebff;fill-opacity:1" d="M20.8 15.184v6.968l-6.007-3.484v-7.004Zm0 0"/><path style="stroke:none;fill-rule:nonzero;fill:#0078d4;fill-opacity:1" d="M18.133 16.926h33.531c.664 0 1.207.539 1.207 1.207v21.582c0 .668-.543 1.21-1.207 1.21H18.133a1.209 1.209 0 0 1-1.207-1.21V18.133c0-.668.539-1.207 1.207-1.207Zm0 0"/><path style="stroke:none;fill-rule:nonzero;fill:#50e6ff;fill-opacity:1" d="M40.89 25.457v6.969l-5.976 3.52V28.94Zm0 0"/><path style="stroke:none;fill-rule:nonzero;fill:#c3f1ff;fill-opacity:1" d="m40.89 25.457-5.976 3.484-6.008-3.484 6.008-3.52Zm0 0"/><path style="stroke:none;fill-rule:nonzero;fill:#9cebff;fill-opacity:1" d="M34.914 28.941v7.004l-6.008-3.52v-6.968Zm0 0"/><path style="stroke:none;fill-rule:nonzero;fill:url(#a)" d="M28.516 30.293h33.527c.668 0 1.21.543 1.21 1.21v21.583c0 .668-.542 1.207-1.21 1.207H28.516c-.668 0-1.207-.54-1.207-1.207V31.504c0-.668.539-1.211 1.207-1.211Zm0 0"/><path style="stroke:none;fill-rule:nonzero;fill:#50e6ff;fill-opacity:1" d="M51.27 38.828v6.969l-5.973 3.52v-7.005Zm0 0"/><path style="stroke:none;fill-rule:nonzero;fill:#c3f1ff;fill-opacity:1" d="m51.27 38.828-5.973 3.52-6.008-3.52 6.008-3.52Zm0 0"/><path style="stroke:none;fill-rule:nonzero;fill:#9cebff;fill-opacity:1" d="M45.297 42.348v6.968l-6.008-3.52v-6.968Zm0 0"/><path style="stroke:none;fill-rule:nonzero;fill:#c3f1ff;fill-opacity:1" d="m39.29 45.797 6.007-3.484v7.003Zm0 0"/><path style="stroke:none;fill-rule:nonzero;fill:#9cebff;fill-opacity:1" d="m51.27 45.797-5.973-3.484v7.003Zm0 0"/><path style="stroke:none;fill-rule:nonzero;fill:url(#b)" d="M52.48 61.582c-3.554-.57-3.554-3.129-3.554-7.11h-7.114c0 4.122 0 6.684-3.554 7.11a2.1 2.1 0 0 0-1.778 2.027h17.778a2.1 2.1 0 0 0-1.778-2.027Zm0 0"/></svg>