<svg xmlns="http://www.w3.org/2000/svg" width="64" height="64"><defs><linearGradient id="a" gradientUnits="userSpaceOnUse" x1="8.99" y1="16.61" x2="8.99" y2="-1.27" gradientTransform="scale(3.55556)"><stop offset="0" style="stop-color:#0078d4;stop-opacity:1"/><stop offset=".16" style="stop-color:#1380da;stop-opacity:1"/><stop offset=".53" style="stop-color:#3c91e5;stop-opacity:1"/><stop offset=".82" style="stop-color:#559cec;stop-opacity:1"/><stop offset="1" style="stop-color:#5ea0ef;stop-opacity:1"/></linearGradient></defs><path style="stroke:none;fill-rule:nonzero;fill:url(#a)" d="M64 37.512a14.613 14.613 0 0 0-12.48-14.223c-.27-10.05-8.614-17.996-18.668-17.777a18.706 18.706 0 0 0-17.778 12.336C6.492 18.968.051 26.258 0 34.914c.27 9.691 8.34 17.328 18.027 17.066h30.754c.262.02.524.02.782 0 7.933-.132 14.324-6.539 14.437-14.468Zm0 0"/><path style="stroke:none;fill-rule:nonzero;fill:#e3e3e3;fill-opacity:1" d="M21.156 34.313a2.525 2.525 0 1 1-5.05-.003 2.525 2.525 0 0 1 5.05.002Zm0 0"/><path style="stroke:none;fill-rule:nonzero;fill:#fff;fill-opacity:1" d="M27.52 35.27v-2.024h-.286l-2.168-.71-.57-1.388 1.106-2.347-1.422-1.422h-.285l-2.028 1.066-1.387-.57-.89-2.453h-2.027v.285l-.711 2.168-1.493.57-2.308-1.101-1.426 1.422v.285l1.031 2.023-.566 1.387-2.488.89v2.204h.28l2.173.71.566 1.387L11.52 40l1.421 1.422h.286l2.027-1.031 1.387.57.886 2.453h2.028v-.285l.71-2.168 1.387-.57L24 41.492l1.422-1.422v-.285l-1.031-2.023.57-1.387Zm-8.887 2.953a3.913 3.913 0 1 1 3.91-3.91 3.867 3.867 0 0 1-1.137 2.773 3.867 3.867 0 0 1-2.773 1.137Zm0 0"/><path style="stroke:none;fill-rule:nonzero;fill:#e3e3e3;fill-opacity:1" d="M38.543 23.43a2.988 2.988 0 0 1-2.988 2.988 2.985 2.985 0 0 1-2.985-2.988 2.987 2.987 0 0 1 5.973 0Zm0 0"/><path style="stroke:none;fill-rule:nonzero;fill:#fff;fill-opacity:1" d="M46.223 24.57v-2.418h-.32l-2.633-.82-.602-1.812 1.312-2.844-1.703-1.707h-.32l-2.453 1.246-1.637-.676-1.066-2.953h-2.524v.355l-.855 2.598-1.672.676-2.773-1.317-1.707 1.707.18.32.995 2.63-.57 1.777-2.984.961v2.598h.355l2.594.851.605 1.602-1.316 2.843L28.906 32l.356-.18 2.418-1.242 1.672.676 1.066 2.95h2.418v-.356l.852-2.594 1.671-.676 2.809 1.317 1.707-1.707-.176-.32-1.031-2.56.676-1.671Zm-10.668 3.555a4.694 4.694 0 1 1 4.695-4.695 4.682 4.682 0 0 1-1.363 3.332 4.665 4.665 0 0 1-3.332 1.363Zm0 0"/></svg>