<svg xmlns="http://www.w3.org/2000/svg" width="64" height="64"><defs><linearGradient id="a" gradientUnits="userSpaceOnUse" x1="9" y1=".36" x2="9" y2="18.31" gradientTransform="scale(3.55556)"><stop offset=".18" style="stop-color:#5ea0ef;stop-opacity:1"/><stop offset="1" style="stop-color:#0078d4;stop-opacity:1"/></linearGradient></defs><path style="stroke:none;fill-rule:nonzero;fill:url(#a)" d="M64 40.25a14.65 14.65 0 0 0-12.48-14.223C51.23 15.984 42.898 8.051 32.852 8.25a18.67 18.67 0 0 0-17.778 12.406C6.508 21.758.07 29.016 0 37.652c.348 9.664 8.355 17.282 18.027 17.141h30.754c.262.035.524.035.782 0 7.96-.137 14.363-6.586 14.437-14.543Zm0 0"/><path style="stroke:none;fill-rule:nonzero;fill:#f2f2f2;fill-opacity:1" d="M43.84 23.43a10.913 10.913 0 0 0-19.945 3.023 11.226 11.226 0 0 0 1.171 8.07l-8.32 8.426a2.825 2.825 0 0 0-.828 1.992c0 .75.3 1.465.828 1.993a2.781 2.781 0 0 0 1.992.816 2.712 2.712 0 0 0 1.992-.816l8.282-8.391c.902.523 1.87.918 2.883 1.172A10.95 10.95 0 0 0 43.84 23.43Zm-1.918 7.468a7.688 7.688 0 0 1-7.434 5.868 6.465 6.465 0 0 1-1.812-.25 6.677 6.677 0 0 1-2.489-1.137 7.668 7.668 0 0 1-1.992-1.992 7.72 7.72 0 0 1-1.101-6.153 7.614 7.614 0 0 1 7.394-5.902 8.407 8.407 0 0 1 1.848.215 7.763 7.763 0 0 1 4.695 3.555 7.585 7.585 0 0 1 .89 5.796Zm0 0"/><path style="stroke:none;fill-rule:nonzero;fill:#83b9f9;fill-opacity:1" d="M42.098 29.086c0-4.242-3.422-7.68-7.645-7.68-4.223 0-7.644 3.438-7.644 7.68 0 4.238 3.421 7.68 7.644 7.68 4.223 0 7.645-3.442 7.645-7.68Zm0 0"/></svg>