<svg xmlns="http://www.w3.org/2000/svg" width="64" height="64"><defs><linearGradient id="a" gradientUnits="userSpaceOnUse" x1="9" y1="16.82" x2="9" y2="1.18" gradientTransform="scale(3.55556)"><stop offset="0" style="stop-color:#198ab3;stop-opacity:1"/><stop offset=".09" style="stop-color:#1f9dc4;stop-opacity:1"/><stop offset=".24" style="stop-color:#28b5d9;stop-opacity:1"/><stop offset=".4" style="stop-color:#2dc6e9;stop-opacity:1"/><stop offset=".57" style="stop-color:#31d1f2;stop-opacity:1"/><stop offset=".78" style="stop-color:#32d4f5;stop-opacity:1"/></linearGradient><linearGradient id="b" gradientUnits="userSpaceOnUse" x1="8.36" y1="11.35" x2="8.36" y2="14.46" gradientTransform="scale(3.55556)"><stop offset="0" style="stop-color:#c69aeb;stop-opacity:1"/><stop offset="1" style="stop-color:#6f4bb2;stop-opacity:1"/></linearGradient></defs><path style="stroke:none;fill-rule:nonzero;fill:url(#a)" d="M50.418 20.941c-.273-9.468-8.129-16.945-17.602-16.746a17.772 17.772 0 0 0-16.886 11.7C7.867 17.004 1.844 23.863 1.777 32c.328 9.102 7.926 16.238 17.032 16 .496.035.996.035 1.492 0h4.27a5.13 5.13 0 0 1-.391-1.992c.011-.91.254-1.805.71-2.594H18.81C12.23 43.637 6.676 38.57 6.293 32a11.836 11.836 0 0 1 10.348-11.625l2.703-.43.886-2.593A13.261 13.261 0 0 1 32.816 8.71c6.977-.16 12.797 5.297 13.086 12.266v3.914l3.875.53a9.206 9.206 0 0 1 8.035 8.856c-.171 5.024-4.285 9.012-9.316 9.032h-4.371A13.936 13.936 0 0 0 30.363 32a2.27 2.27 0 0 0-2.203 1.04 2.272 2.272 0 0 0 0 2.437 2.27 2.27 0 0 0 2.203 1.039 9.42 9.42 0 0 1 8.844 9.406 9.42 9.42 0 0 1-8.844 9.402 2.277 2.277 0 0 0-2.203 3.477 2.27 2.27 0 0 0 2.203 1.039 13.936 13.936 0 0 0 13.762-11.875h3.734c.235.035.473.035.711 0 7.496-.133 13.54-6.192 13.653-13.688a13.724 13.724 0 0 0-11.805-13.336Zm0 0"/><path style="stroke:none;fill-rule:nonzero;fill:url(#b)" d="M29.652 40.355h.145a5.475 5.475 0 0 1 5.473 5.477v.14a5.475 5.475 0 0 1-5.473 5.477h-.145a5.475 5.475 0 0 1-5.472-5.476v-.141a5.475 5.475 0 0 1 5.472-5.477Zm0 0"/></svg>