<svg xmlns="http://www.w3.org/2000/svg" width="64" height="64"><defs><linearGradient id="a" gradientUnits="userSpaceOnUse" x1="9" y1="3.72" x2="9" y2="15.02" gradientTransform="scale(3.55556)"><stop offset=".18" style="stop-color:#5ea0ef;stop-opacity:1"/><stop offset="1" style="stop-color:#0078d4;stop-opacity:1"/></linearGradient></defs><path style="stroke:none;fill-rule:nonzero;fill:#949494;fill-opacity:1" d="M30.473 30.898H3.555V7.75c0-2.145 1.73-3.89 3.875-3.91h23.043ZM6.898 27.555h20.23V7.109H7.43a.535.535 0 0 0-.532.536ZM60.445 30.898H33.527V3.84H56.57a3.912 3.912 0 0 1 3.875 3.91Zm-23.574-3.343h20.23V7.75a.54.54 0 0 0-.531-.64H36.871ZM30.473 60.73H7.43a3.877 3.877 0 0 1-3.875-3.84V33.708h26.918ZM6.898 37.05v19.84c0 .294.239.532.532.532h19.699V37.05ZM56.57 60.73H33.527V33.707h26.918v23.184a3.877 3.877 0 0 1-3.875 3.84Zm-19.699-3.343h19.7a.533.533 0 0 0 .53-.535V37.05h-20.23Zm0 0"/><path style="stroke:none;fill-rule:nonzero;fill:url(#a)" d="M52.16 37.762a9.213 9.213 0 0 0-7.86-8.89c-.23-6.294-5.472-11.235-11.765-11.095a11.806 11.806 0 0 0-11.203 7.715 10.953 10.953 0 0 0-9.457 10.668c.215 6.067 5.273 10.828 11.344 10.668h19.945c4.934-.152 8.887-4.137 8.996-9.066Zm0 0"/></svg>