<svg xmlns="http://www.w3.org/2000/svg" xmlns:xlink="http://www.w3.org/1999/xlink" width="64" height="64"><defs><linearGradient id="d" gradientUnits="userSpaceOnUse" x1="8.83" y1="12.87" x2="8.83" y2=".87" gradientTransform="scale(3.55556)"><stop offset="0" style="stop-color:#0078d4;stop-opacity:1"/><stop offset=".82" style="stop-color:#5ea0ef;stop-opacity:1"/></linearGradient><linearGradient id="i" gradientUnits="userSpaceOnUse" x1="8.83" y1="17.5" x2="8.83" y2="12.87" gradientTransform="scale(3.55556)"><stop offset="0" style="stop-color:#1490df;stop-opacity:1"/><stop offset=".98" style="stop-color:#1f56a3;stop-opacity:1"/></linearGradient><clipPath id="b"><path d="M0 0h64v64H0z"/></clipPath><clipPath id="c"><path d="M0 0h64v64H0z"/></clipPath><mask id="f"><g filter="url(#a)"><path style="fill:#000;fill-opacity:.2;stroke:none" d="M0 0h64v64H0z"/></g></mask><mask id="h"><g filter="url(#a)"><path style="fill:#000;fill-opacity:.2;stroke:none" d="M0 0h64v64H0z"/></g></mask><g id="e" clip-path="url(#b)"><path style="stroke:none;fill-rule:nonzero;fill:#83b9f9;fill-opacity:1" d="m20.73 30.613 10.665-6.187V36.87Zm0 0"/></g><g id="g" clip-path="url(#c)"><path style="stroke:none;fill-rule:nonzero;fill:#5ea0ef;fill-opacity:1" d="m42.063 30.613-10.668-6.187V36.87Zm0 0"/></g><filter id="a" filterUnits="objectBoundingBox" x="0%" y="0%" width="100%" height="100%"><feColorMatrix in="SourceGraphic" values="0 0 0 0 1 0 0 0 0 1 0 0 0 0 1 0 0 0 1 0"/></filter></defs><path style="stroke:none;fill-rule:nonzero;fill:url(#d)" d="M1.527 3.094h59.735a2.13 2.13 0 0 1 2.133 2.133v38.398c0 1.18-.954 2.137-2.133 2.137H1.527a2.136 2.136 0 0 1-2.132-2.137V5.227c0-1.18.957-2.133 2.132-2.133Zm0 0"/><path style="stroke:none;fill-rule:nonzero;fill:#fff;fill-opacity:1" d="M4.125 6.648h54.543c.648 0 1.172.528 1.172 1.172v33.211a1.17 1.17 0 0 1-1.172 1.172H4.125a1.174 1.174 0 0 1-1.176-1.172V7.821c0-.645.528-1.173 1.176-1.173Zm0 0"/><path style="stroke:none;fill-rule:nonzero;fill:#0078d4;fill-opacity:1" d="M42.063 18.203v12.41l-10.668 6.258V24.426Zm0 0"/><path style="stroke:none;fill-rule:nonzero;fill:#83b9f9;fill-opacity:1" d="m42.063 18.203-10.668 6.258-10.665-6.258 10.665-6.223Zm0 0"/><path style="stroke:none;fill-rule:nonzero;fill:#5ea0ef;fill-opacity:1" d="M31.395 24.46v12.411L20.73 30.613v-12.41Zm0 0"/><use xlink:href="#e" mask="url(#f)"/><use xlink:href="#g" mask="url(#h)"/><path style="stroke:none;fill-rule:nonzero;fill:url(#i)" d="M44.23 58.668c-6.328-.996-6.578-5.547-6.578-12.906h-12.55c0 7.36-.211 11.91-6.543 12.906a3.554 3.554 0 0 0-3.164 3.555h32a3.554 3.554 0 0 0-3.165-3.555Zm0 0"/><path style="stroke:none;fill-rule:nonzero;fill:#5ea0ef;fill-opacity:1" d="M18.133 9.137H9.316a2.092 2.092 0 0 0-2.133 2.098v8.82c0 .586.477 1.066 1.067 1.066h.71c.59 0 1.067-.48 1.067-1.066V11.91h8.106c.59 0 1.066-.476 1.066-1.066v-.676a1.069 1.069 0 0 0-1.066-1.031ZM18.133 36.871h-8.14v-8.105c0-.59-.481-1.067-1.067-1.067H8.25c-.59 0-1.066.477-1.066 1.067v8.816a2.092 2.092 0 0 0 2.132 2.098h8.817c.574 0 1.047-.457 1.066-1.032v-.71c0-.59-.476-1.067-1.066-1.067ZM53.332 9.207h-8.676a1.043 1.043 0 0 0-.765.305c-.2.199-.309.476-.301.765v.672c0 .281.113.551.316.742.2.196.473.301.75.29h8.11v8.18c0 .28.113.546.312.741.203.196.473.297.754.29h.711c.57 0 1.031-.462 1.031-1.032v-8.816a2.103 2.103 0 0 0-2.242-2.137ZM54.543 27.77h-.676c-.59 0-1.066.476-1.066 1.066v8.105h-8.145a1.055 1.055 0 0 0-.765.301c-.2.203-.309.48-.301.766v.71c0 .59.48 1.067 1.066 1.067h8.676a2.092 2.092 0 0 0 2.098-2.133v-8.816a1.061 1.061 0 0 0-.887-1.066Zm0 0"/></svg>