<svg xmlns="http://www.w3.org/2000/svg" width="64" height="64"><defs><linearGradient id="a" gradientUnits="userSpaceOnUse" x1="9" y1=".81" x2="9" y2="21.28" gradientTransform="scale(3.55556)"><stop offset="0" style="stop-color:#ffd70f;stop-opacity:1"/><stop offset=".34" style="stop-color:#eeb309;stop-opacity:1"/><stop offset=".77" style="stop-color:#dc8c03;stop-opacity:1"/><stop offset="1" style="stop-color:#d57d01;stop-opacity:1"/></linearGradient></defs><path style="stroke:none;fill-rule:nonzero;fill:url(#a)" d="M62.223 8.89v38.505a2.062 2.062 0 0 1-2.098 2.062h-16.07c-.278 0-.5.223-.5.5v6.223a.991.991 0 0 1-.559.883.99.99 0 0 1-1.039-.102l-9.672-7.398H3.875a2.058 2.058 0 0 1-2.098-2.06V8.892a2.062 2.062 0 0 1 2.098-2.063h56.25a2.058 2.058 0 0 1 2.098 2.063Zm0 0"/><path style="stroke:none;fill-rule:nonzero;fill:#ffe452;fill-opacity:1" d="m7.29 32 10.667 8.96a1.03 1.03 0 0 0 1.668-.78v-3.914h42.527v-6.043H7.93A1.031 1.031 0 0 0 7.29 32Zm0 0"/><path style="stroke:none;fill-rule:nonzero;fill:#fff;fill-opacity:1" d="m57.742 22.969-11.058-8.961a1.036 1.036 0 0 0-1.079-.125c-.351.168-.582.52-.593.91v3.91H1.777v6.188h55.325a1.03 1.03 0 0 0 1.109-.7c.156-.468-.04-.98-.469-1.222Zm0 0"/></svg>