<svg xmlns="http://www.w3.org/2000/svg" width="64" height="64"><defs><linearGradient id="a" gradientUnits="userSpaceOnUse" x1="9" y1="19.85" x2="9" y2="-1.02" gradientTransform="scale(3.55556)"><stop offset="0" style="stop-color:#5e9624;stop-opacity:1"/><stop offset=".02" style="stop-color:#5f9724;stop-opacity:1"/><stop offset="1" style="stop-color:#76bc2d;stop-opacity:1"/></linearGradient></defs><path style="stroke:none;fill-rule:nonzero;fill:url(#a)" d="M.64 30.473 30.474.64A2.12 2.12 0 0 1 32-.004c.574 0 1.129.23 1.527.645L63.36 30.473c.414.398.645.953.645 1.527a2.12 2.12 0 0 1-.645 1.527L33.492 63.395a2.132 2.132 0 0 1-2.984 0L.64 33.527A2.12 2.12 0 0 1-.004 32c0-.574.23-1.129.645-1.527Zm0 0"/><path style="stroke:none;fill-rule:nonzero;fill:#b4ec36;fill-opacity:1" d="m39.82 14.223-7.535-7.504a.43.43 0 0 0-.57 0l-7.535 7.504a.353.353 0 0 0-.13.437c.071.16.243.242.41.203h4.411c.215 0 .39.176.39.39v7.11c0 .219.177.39.391.39h4.696a.39.39 0 0 0 .39-.39v-7.11c0-.214.176-.39.39-.39h4.411c.168.04.34-.043.41-.203a.353.353 0 0 0-.129-.437ZM14.223 23.504l-7.47 7.57a.4.4 0 0 0 0 .535l7.47 7.5a.39.39 0 0 0 .675-.28v-4.376c0-.215.176-.39.391-.39h7.11a.358.358 0 0 0 .355-.391v-4.695a.346.346 0 0 0 .02-.332.359.359 0 0 0-.266-.2h-7.113a.37.37 0 0 1-.274-.09.364.364 0 0 1-.117-.265v-4.305a.413.413 0 0 0-.25-.531.413.413 0 0 0-.531.25ZM50.063 39.11l7.574-7.536a.392.392 0 0 0 0-.535l-7.575-7.535a.392.392 0 0 0-.41-.059.399.399 0 0 0-.23.34v4.445a.358.358 0 0 1-.39.356h-7.11c-.102 0-.2.043-.266.117a.357.357 0 0 0-.093.274v4.695a.358.358 0 0 0 .36.39h7.108c.215 0 .39.176.39.391v4.41a.392.392 0 0 0 .642.246Zm0 0"/><path style="stroke:none;fill-rule:nonzero;fill:#fff;fill-opacity:1" d="M41.922 32a9.925 9.925 0 0 0-8.98-9.938 9.925 9.925 0 0 0-10.696 8.067 9.917 9.917 0 0 0 7.086 11.363v3.38a6.083 6.083 0 0 0-3.117 6.835 6.083 6.083 0 0 0 5.91 4.645 6.075 6.075 0 0 0 5.906-4.645 6.078 6.078 0 0 0-3.117-6.836v-3.555A9.852 9.852 0 0 0 41.922 32Zm0 0"/><path style="stroke:none;fill-rule:nonzero;fill:#5ea0ef;fill-opacity:1" d="M37.797 31.965a5.761 5.761 0 0 1-5.762 5.758 5.758 5.758 0 0 1-5.758-5.758 5.761 5.761 0 0 1 5.758-5.762 5.765 5.765 0 0 1 5.762 5.762Zm0 0"/></svg>