<svg xmlns="http://www.w3.org/2000/svg" width="64" height="64"><defs><radialGradient id="a" gradientUnits="userSpaceOnUse" cx="6.61" cy="45.13" fx="6.61" fy="45.13" r="6.4" gradientTransform="translate(17.92 -127.609) scale(3.34222)"><stop offset="0" style="stop-color:#5ea0ef;stop-opacity:1"/><stop offset=".28" style="stop-color:#5b9fee;stop-opacity:1"/><stop offset=".47" style="stop-color:#529bec;stop-opacity:1"/><stop offset=".64" style="stop-color:#4394e7;stop-opacity:1"/><stop offset=".79" style="stop-color:#2d8be1;stop-opacity:1"/><stop offset=".93" style="stop-color:#117fd9;stop-opacity:1"/><stop offset="1" style="stop-color:#0078d4;stop-opacity:1"/></radialGradient></defs><path style="stroke:none;fill-rule:nonzero;fill:#198ab3;fill-opacity:1" d="m2.43 58.188 11.64-11.641a2.24 2.24 0 0 1 3.168 0l.203.2a2.24 2.24 0 0 1 0 3.167l-11.64 11.64a2.24 2.24 0 0 1-3.168 0l-.203-.199a2.24 2.24 0 0 1 0-3.167Zm0 0"/><path style="stroke:none;fill-rule:nonzero;fill:url(#a)" d="M60.445 15.465a22.96 22.96 0 0 0-2.668-4.797C50.418.863 36.5-1.109 26.703 6.258l-.215.18a21.937 21.937 0 0 0-7.855 11.84c0 .78-.356 1.562-.465 2.343a22.23 22.23 0 0 0 6.723 19.414c.242.254.504.492.78.711l.782.64a20.469 20.469 0 0 0 3.344 2.134l.355.214.602.246.5.25.531.215.57.211.497.18.71.215h.395l1.031.281 1.137.25h.285c.293.02.59.02.887 0h5.406c.91-.11 1.817-.289 2.703-.531a22.124 22.124 0 0 0 7.856-3.914 22.739 22.739 0 0 0 4.02-4.016 22.334 22.334 0 0 0 3.163-21.656ZM55.29 12.16h-4.34a20.95 20.95 0 0 0-3.129-5.902 18.968 18.968 0 0 1 7.575 5.902ZM41.387 5.05a11.607 11.607 0 0 1 6.398 7.11h-6.398Zm0 10.098h7.36a32.911 32.911 0 0 1 1.175 7.5h-8.535Zm0 10.344h8.535a32.816 32.816 0 0 1-1.176 7.54h-7.254v-7.68ZM30.293 20.41c.172-1.828.504-3.637.996-5.406h7.36v7.504h-8.497c.035-.711.07-1.422.141-2.098Zm8.355-15.504v7.114h-6.363a11.484 11.484 0 0 1 6.363-7.114ZM28.23 8.676a20.808 20.808 0 0 1 3.91-2.278 21.83 21.83 0 0 0-3.128 5.938H24.89a20.209 20.209 0 0 1 3.34-3.66Zm-5.296 6.328h5.511a32.84 32.84 0 0 0-.855 4.766c0 .886-.176 1.812-.176 2.738h-6.613c.125-.899.3-1.79.531-2.668.34-1.668.875-3.293 1.602-4.836ZM20.8 25.352h6.508a33.045 33.045 0 0 0 1.136 7.539h-5.511a19.027 19.027 0 0 1-2.133-7.54Zm4.09 10.453h4.3a21.05 21.05 0 0 0 3.13 5.902 18.889 18.889 0 0 1-7.43-5.902Zm13.828 7.11a11.478 11.478 0 0 1-6.364-7.11h6.364Zm0-10.099h-7.43a32.765 32.765 0 0 1-1.137-7.535h8.496v7.61Zm5.441 8.606a7.057 7.057 0 0 1-2.597 1.492v-7.11h6.402a15.791 15.791 0 0 1-3.875 5.688Zm7.75-2.313a18.281 18.281 0 0 1-4.09 2.418 20.845 20.845 0 0 0 3.13-5.902h4.445a18.865 18.865 0 0 1-3.485 3.484Zm5.262-6.328H51.84a37.706 37.706 0 0 0 1.031-7.535h6.438a18.788 18.788 0 0 1-2.137 7.645Zm-4.3-10.273a37.97 37.97 0 0 0-1.032-7.504h5.367a19.728 19.728 0 0 1 2.137 7.504Zm0 0"/><path style="stroke:none;fill-rule:nonzero;fill:#50e6ff;fill-opacity:1" d="M36.977 38.898c0 7.934-6.43 14.364-14.364 14.364-7.933 0-14.363-6.43-14.363-14.364 0-7.933 6.43-14.363 14.363-14.363 7.934 0 14.364 6.43 14.364 14.363Zm0 0"/><path style="stroke:none;fill-rule:nonzero;fill:#fff;fill-opacity:1" d="M33.848 38.648c0 6.227-5.047 11.274-11.27 11.274-6.226 0-11.27-5.047-11.27-11.274 0-6.222 5.044-11.27 11.27-11.27 6.223 0 11.27 5.048 11.27 11.27Zm0 0"/><path style="stroke:none;fill-rule:nonzero;fill:#76bc2d;fill-opacity:1" d="m16.781 38.898 2.844 6.614 2.883-8.5 2.383 4.836 2.949-4.977h4.586A12.335 12.335 0 0 0 32 35.2h-4.941l-1.922 3.239-2.95-5.622-2.738 8.075-2.488-5.727-3.059 5.582h-1.636c.125.574.304 1.133.535 1.672h2.062Zm0 0"/></svg>