<svg xmlns="http://www.w3.org/2000/svg" width="64" height="64"><defs><linearGradient id="a" gradientUnits="userSpaceOnUse" x1="9" y1="15.83" x2="9" y2="5.79" gradientTransform="scale(3.55556)"><stop offset="0" style="stop-color:#32bedd;stop-opacity:1"/><stop offset=".18" style="stop-color:#32caea;stop-opacity:1"/><stop offset=".41" style="stop-color:#32d2f2;stop-opacity:1"/><stop offset=".78" style="stop-color:#32d4f5;stop-opacity:1"/></linearGradient></defs><path style="stroke:none;fill-rule:nonzero;fill:url(#a)" d="M1.777 20.586h60.446v33.707a2.026 2.026 0 0 1-2.028 2.027H3.805a2.026 2.026 0 0 1-2.028-2.027Zm0 0"/><path style="stroke:none;fill-rule:nonzero;fill:#767676;fill-opacity:1" d="M3.805 7.715h56.39c1.121 0 2.028.906 2.028 2.027v10.844H1.777V9.707a2.028 2.028 0 0 1 2.028-1.992Zm0 0"/><path style="stroke:none;fill-rule:nonzero;fill:#f2f2f2;fill-opacity:1" d="M50.488 36.23a4.905 4.905 0 0 1-4.906 4.907 4.905 4.905 0 0 1-4.906-4.907 4.905 4.905 0 0 1 4.906-4.906 4.905 4.905 0 0 1 4.906 4.906ZM37.121 36.23a4.907 4.907 0 1 1-9.814-.001 4.907 4.907 0 0 1 9.814.001ZM23.324 36.23a4.905 4.905 0 0 1-4.906 4.907 4.905 4.905 0 0 1-4.906-4.907 4.905 4.905 0 0 1 4.906-4.906 4.905 4.905 0 0 1 4.906 4.906ZM10.914 11.555h42.207c.547 0 .996.445.996.996v3.199c0 .55-.449.996-.996.996H10.914a.994.994 0 0 1-.992-.996v-3.2c0-.55.445-.995.992-.995Zm0 0"/></svg>