<svg xmlns="http://www.w3.org/2000/svg" xmlns:xlink="http://www.w3.org/1999/xlink" width="64" height="64"><defs><linearGradient id="c" gradientUnits="userSpaceOnUse" x1="8.59" y1="-7.79" x2="9.12" y2="20.05" gradientTransform="scale(3.55556)"><stop offset=".22" style="stop-color:#32d4f5;stop-opacity:1"/><stop offset=".47" style="stop-color:#31d1f3;stop-opacity:1"/><stop offset=".63" style="stop-color:#2ec9eb;stop-opacity:1"/><stop offset=".77" style="stop-color:#29bade;stop-opacity:1"/><stop offset=".89" style="stop-color:#22a5cb;stop-opacity:1"/><stop offset="1" style="stop-color:#198ab3;stop-opacity:1"/><stop offset="1" style="stop-color:#198ab3;stop-opacity:1"/></linearGradient><clipPath id="b"><path d="M0 0h64v64H0z"/></clipPath><filter id="a" filterUnits="objectBoundingBox" x="0%" y="0%" width="100%" height="100%"><feColorMatrix in="SourceGraphic" values="0 0 0 0 1 0 0 0 0 1 0 0 0 0 1 0 0 0 1 0"/></filter><mask id="e"><g filter="url(#a)"><path style="fill:#000;fill-opacity:.2;stroke:none" d="M0 0h64v64H0z"/></g></mask><g id="d" clip-path="url(#b)"><path style="stroke:none;fill-rule:nonzero;fill:#fff;fill-opacity:1" d="M10.453 30.828h43.234c.59.004 1.157.219 1.602.602l-46.437 32a2.482 2.482 0 0 1-.887-1.848V33.137a2.556 2.556 0 0 1 2.488-2.309Zm0 0"/></g></defs><path style="stroke:none;fill-rule:nonzero;fill:url(#c)" d="M53.547 30.828h-3.555V19.875a20.646 20.646 0 0 0-5.3-13.938A17.02 17.02 0 0 0 31.68 0a17.029 17.029 0 0 0-13.157 5.938 20.383 20.383 0 0 0-5.296 13.937v10.953h-2.88a2.488 2.488 0 0 0-2.452 2.453v28.442a2.492 2.492 0 0 0 2.453 2.457h43.199a2.528 2.528 0 0 0 2.488-2.457V33.28a2.522 2.522 0 0 0-2.488-2.453Zm-11.984 0H21.797V19.7a11.298 11.298 0 0 1 3.094-7.644 8.911 8.911 0 0 1 6.683-3.059 9.032 9.032 0 0 1 6.719 3.059c.422.476.8.988 1.137 1.527a10.66 10.66 0 0 1 2.172 6.082Zm0 0"/><path style="stroke:none;fill-rule:nonzero;fill:#50e6ff;fill-opacity:1" d="M53.652 30.828h-43.27c-.577 0-1.136.215-1.566.602l46.403 32c.558-.45.886-1.13.886-1.848V33.137a2.52 2.52 0 0 0-2.453-2.309Zm0 0"/><use xlink:href="#d" mask="url(#e)"/><path style="stroke:none;fill-rule:nonzero;fill:#fff;fill-opacity:1" d="M27.734 37.688 32 33.422a.248.248 0 0 1 .32 0l4.23 4.266c.06.039.098.109.098.18 0 .07-.039.136-.097.175h-2.489a.217.217 0 0 0-.214.215v5.476a.21.21 0 0 1-.211.211h-2.809a.176.176 0 0 1-.168-.047.171.171 0 0 1-.047-.164v-5.476a.252.252 0 0 0-.25-.215h-2.488a.198.198 0 0 1-.18-.133.213.213 0 0 1 .04-.222Zm8.782 19.484-4.23 4.234a.225.225 0 0 1-.161.07.218.218 0 0 1-.16-.07l-4.23-4.234a.206.206 0 0 1-.098-.176c0-.07.035-.14.097-.18h2.489c.125.004.23-.09.25-.21v-5.512c0-.117.093-.215.21-.215h2.633c.118 0 .211.098.211.215v5.511c0 .118.098.211.215.211h2.488a.229.229 0 0 1 .32.036.228.228 0 0 1-.034.32Zm-16.711-5.508v-2.492a.213.213 0 0 0-.215-.211h-5.367a.217.217 0 0 1-.215-.215v-2.523a.215.215 0 0 1 .008-.227.207.207 0 0 1 .207-.094h5.367a.214.214 0 0 0 .215-.215V43.2a.241.241 0 0 1 .144-.199.242.242 0 0 1 .246.023l4.23 4.266a.21.21 0 0 1 0 .285l-4.23 4.266a.251.251 0 0 1-.246.023.241.241 0 0 1-.144-.199Zm24.64-8.465v2.489a.21.21 0 0 0 .211.214h5.477s.25 0 .25.215v2.63a.252.252 0 0 1-.25.214h-5.477a.21.21 0 0 0-.21.21v2.493a.211.211 0 0 1-.118.207.213.213 0 0 1-.238-.031l-4.23-4.266v-.285l4.23-4.266s.355-.035.355.176Zm0 0"/></svg>