<svg xmlns="http://www.w3.org/2000/svg" width="64" height="64"><defs><linearGradient id="a" gradientUnits="userSpaceOnUse" x1="9" y1="17.5" x2="9" y2=".5" gradientTransform="scale(3.55556)"><stop offset=".16" style="stop-color:#6f4bb2;stop-opacity:1"/><stop offset=".32" style="stop-color:#7450b5;stop-opacity:1"/><stop offset=".51" style="stop-color:#825dbf;stop-opacity:1"/><stop offset=".72" style="stop-color:#9a72ce;stop-opacity:1"/><stop offset=".94" style="stop-color:#bb90e4;stop-opacity:1"/><stop offset="1" style="stop-color:#c69aeb;stop-opacity:1"/></linearGradient></defs><path style="stroke:none;fill-rule:nonzero;fill:url(#a)" d="M43.7 1.777H20.3a1.996 1.996 0 0 0-1.421.606L2.383 18.879a1.996 1.996 0 0 0-.606 1.422v23.398c.004.535.22 1.047.606 1.422l16.496 16.496c.375.387.887.602 1.422.606h23.398a1.996 1.996 0 0 0 1.422-.606l16.496-16.496c.387-.375.602-.887.606-1.422V20.301a1.996 1.996 0 0 0-.606-1.422L45.121 2.383a1.996 1.996 0 0 0-1.422-.606Zm0 0"/><path style="stroke:none;fill-rule:nonzero;fill:#f2f2f2;fill-opacity:1" d="m21.332 27.164-.246.25-3.559 3.555a.502.502 0 0 0-.074.52c.074.171.242.288.43.296h13.512c.277 0 .5-.223.5-.496V17.957a.595.595 0 0 0-1.176-.18l-3.805 3.805c-.2.18-.508.18-.71 0l-9.138-8.996-4.87 4.906 9.136 8.961a.528.528 0 0 1 0 .711Zm0 0"/><path style="stroke:none;fill-rule:nonzero;fill:#f2f2f2;fill-opacity:1" d="M57.527 21.012 42.988 6.472a.991.991 0 0 0-.71-.285H21.722a.991.991 0 0 0-.711.286L6.472 21.012a.991.991 0 0 0-.285.71v20.555c.004.262.106.516.286.711l14.539 14.54c.191.187.445.288.71.285h20.555a.991.991 0 0 0 .711-.286l14.54-14.539c.179-.195.28-.449.285-.71V21.722a.991.991 0 0 0-.286-.711ZM56.25 40.39l-11.2-11.2 2.7-2.738a.562.562 0 0 0 0-.851.56.56 0 0 0-.39 0l-9.637-.25c-.32 0-.582.25-.602.57l.246 9.633c0 .156.067.308.18.418.117.105.27.16.426.152.132.07.293.07.425 0l3.024-2.988 11.91 11.734-9.031 9.031L32 41.637l2.844-2.528a.552.552 0 0 0 .191-.425.558.558 0 0 0-.191-.426.572.572 0 0 0-.39-.18l-9.563-.426c-.32 0-.586.25-.606.57l.25 9.637a.56.56 0 0 0 .602.566c.16 0 .316-.062.426-.175l2.882-2.953 10.95 10.953H21.937L7.716 42.027v-20.09l4.48-4.445 4.871-4.906 4.872-4.871h20.125l14.222 14.223Zm0 0"/></svg>