<svg xmlns="http://www.w3.org/2000/svg" width="64" height="64"><defs><linearGradient id="a" gradientUnits="userSpaceOnUse" x1="9.01" y1=".75" x2="9.01" y2="17.25" gradientTransform="scale(3.55556)"><stop offset="0" style="stop-color:#5ea0ef;stop-opacity:1"/><stop offset=".18" style="stop-color:#559cec;stop-opacity:1"/><stop offset=".47" style="stop-color:#3c91e5;stop-opacity:1"/><stop offset=".84" style="stop-color:#1380da;stop-opacity:1"/><stop offset="1" style="stop-color:#0078d4;stop-opacity:1"/></linearGradient></defs><path style="stroke:none;fill-rule:nonzero;fill:#0078d4;fill-opacity:1" d="M58.168 29.867c0 17.207-20.8 31.074-25.316 33.883a1.63 1.63 0 0 1-1.704 0C26.633 60.941 5.832 47.074 5.832 29.867V9.172c0-.887.711-1.613 1.598-1.633C23.61 7.11 19.875 0 32 0s8.39 7.11 24.57 7.54c.887.019 1.598.745 1.598 1.632Zm0 0"/><path style="stroke:none;fill-rule:nonzero;fill:#6bb9f2;fill-opacity:1" d="M56 30.043c0 15.789-19.059 28.445-23.219 31.078a1.534 1.534 0 0 1-1.562 0C27.059 58.56 8 45.832 8 30.043V11.059c0-.813.648-1.477 1.457-1.496C24.285 9.171 20.871 2.668 32 2.668s7.715 6.504 22.543 6.894c.809.02 1.457.684 1.457 1.497Zm0 0"/><path style="stroke:none;fill-rule:nonzero;fill:url(#a)" d="M32 32V2.668c11.129 0 7.715 6.504 22.543 6.894.816.04 1.457.715 1.457 1.532v18.984c.035.64.035 1.281 0 1.922Zm0 0H8.105c1.422 14.863 19.13 26.668 23.114 29.121.191.121.41.195.64.211H32Zm0 0"/><path style="stroke:none;fill-rule:nonzero;fill:#50e6ff;fill-opacity:1" d="M9.457 9.563C24.285 9.171 20.871 2.668 32 2.668V32H8.105a17.523 17.523 0 0 1 0-1.922V11.094a1.534 1.534 0 0 1 1.352-1.531ZM55.895 32H32v29.332c.227-.016.45-.09.64-.21C36.767 58.667 54.474 46.862 55.896 32Zm0 0"/></svg>