<svg xmlns="http://www.w3.org/2000/svg" width="64" height="64"><defs><linearGradient id="a" gradientUnits="userSpaceOnUse" x1="9.88" y1="8.59" x2="11.52" y2="10.23" gradientTransform="matrix(3.55555 -.00496 .00496 3.55555 7.218 -1.422)"><stop offset="0" style="stop-color:#86d633;stop-opacity:1"/><stop offset="1" style="stop-color:#5e9624;stop-opacity:1"/></linearGradient><linearGradient id="b" gradientUnits="userSpaceOnUse" x1="6.18" y1="8.59" x2="7.81" y2="10.23" gradientTransform="scale(3.55556)"><stop offset="0" style="stop-color:#86d633;stop-opacity:1"/><stop offset="1" style="stop-color:#5e9624;stop-opacity:1"/></linearGradient><linearGradient id="c" gradientUnits="userSpaceOnUse" x1="2.48" y1="8.59" x2="4.11" y2="10.23" gradientTransform="scale(3.55556)"><stop offset="0" style="stop-color:#86d633;stop-opacity:1"/><stop offset="1" style="stop-color:#5e9624;stop-opacity:1"/></linearGradient></defs><path style="stroke:none;fill-rule:nonzero;fill:url(#a)" d="M49.422 31.965a4.126 4.126 0 0 1-8.25 0 4.126 4.126 0 0 1 8.25 0Zm0 0"/><path style="stroke:none;fill-rule:nonzero;fill:url(#b)" d="M36.266 32a4.124 4.124 0 1 1-8.246 0 4.123 4.123 0 1 1 8.246 0Zm0 0"/><path style="stroke:none;fill-rule:nonzero;fill:url(#c)" d="M23.11 32a4.123 4.123 0 1 1-8.247 0 4.124 4.124 0 1 1 8.246 0Zm0 0"/><path style="stroke:none;fill-rule:nonzero;fill:#50e6ff;fill-opacity:1" d="m21.98 48.488-2.359 2.367a1.067 1.067 0 0 1-1.508.004L.641 33.434a2.13 2.13 0 0 1-.004-3.016l2.36-2.367L21.98 46.98c.415.417.418 1.09 0 1.507Zm0 0"/><path style="stroke:none;fill-rule:nonzero;fill:#1490df;fill-opacity:1" d="m19.266 13.184 2.363 2.359c.418.418.418 1.094.004 1.512L2.977 35.758l-2.364-2.36a2.13 2.13 0 0 1-.004-3.015l17.145-17.195a1.072 1.072 0 0 1 1.512-.004Zm0 0"/><path style="stroke:none;fill-rule:nonzero;fill:#50e6ff;fill-opacity:1" d="m61 28.02 2.363 2.363a2.135 2.135 0 0 1-.008 3.02L45.883 50.823a1.063 1.063 0 0 1-1.508 0l-2.36-2.367a1.067 1.067 0 0 1 .005-1.508Zm0 0"/><path style="stroke:none;fill-rule:nonzero;fill:#1490df;fill-opacity:1" d="m63.355 33.375-2.367 2.36L42.332 17.03a1.067 1.067 0 0 1 .004-1.508l2.39-2.386a1.067 1.067 0 0 1 1.508 0l17.149 17.199a2.13 2.13 0 0 1-.004 3.016Zm0 0"/></svg>