<svg xmlns="http://www.w3.org/2000/svg" width="64" height="64"><defs><radialGradient id="a" gradientUnits="userSpaceOnUse" cx="-6811.4" cy="6729.69" fx="-6811.4" fy="6729.69" r="17" gradientTransform="matrix(1.77778 0 0 -1.77778 12141.902 11996.622)"><stop offset=".18" style="stop-color:#5ea0ef;stop-opacity:1"/><stop offset="1" style="stop-color:#0078d4;stop-opacity:1"/></radialGradient></defs><path style="stroke:none;fill-rule:nonzero;fill:url(#a)" d="M50.523 55.895c-13.195 10.23-32.187 7.824-42.418-5.372C-2.125 37.328.281 18.336 13.477 8.105l.32-.21c13.262-9.903 32.02-7.293 42.078 5.851 10.059 13.145 7.672 31.934-5.352 42.149"/><path style="stroke:none;fill-rule:nonzero;fill:#5ea0ef;fill-opacity:1" d="M32 4.656C16.898 4.656 4.656 16.898 4.656 32S16.898 59.344 32 59.344 59.344 47.102 59.344 32C59.324 16.906 47.094 4.676 32 4.656Zm18.313 9.211a26.278 26.278 0 0 1-7.645 2.844 31.488 31.488 0 0 0-4.445-9.602 25.624 25.624 0 0 1 12.09 6.758ZM32 6.187c1.297 0 2.594.106 3.875.32a26.587 26.587 0 0 1 5.441 10.665 53.674 53.674 0 0 1-19.379 0A26.246 26.246 0 0 1 27.31 6.719 26.27 26.27 0 0 1 32 6.187Zm-7.11.922a31.022 31.022 0 0 0-4.515 9.532 19.887 19.887 0 0 1-6.758-2.739A26.144 26.144 0 0 1 24.891 7.11ZM13.228 49.777a18.753 18.753 0 0 1 6.328-2.703 25.178 25.178 0 0 0 4.8 9.672 25.772 25.772 0 0 1-11.128-6.969Zm22.793 7.825a25.602 25.602 0 0 1-4.02.21 24.252 24.252 0 0 1-5.121-.53 21.339 21.339 0 0 1-5.938-10.669 52.328 52.328 0 0 1 20.907 0 21.333 21.333 0 0 1-6.008 10.668Zm2.593-.57a25.319 25.319 0 0 0 4.907-9.958c2.515.59 4.917 1.59 7.113 2.953a25.377 25.377 0 0 1-12.02 6.864Zm5.262-11.45c.285-1.281.535-2.594.71-3.98l-1.636.39c-.176 1.102-.355 2.203-.601 3.235a54.194 54.194 0 0 0-21.657 0c-.246-.961-.425-1.993-.601-3.059a.883.883 0 0 1 0-.32l-1.637-.461c-.02.332-.02.664 0 .996 0 1.137.39 2.203.606 3.234a20.941 20.941 0 0 0-7.114 3.024c-8.101-9.723-7.937-23.895.39-33.422a22.44 22.44 0 0 0 7.4 3.058c-.25.852-.465 1.778-.641 2.7-.18.925 0 .89-.285 1.316l1.671-.39v-.606c.211-.922.426-1.813.676-2.664 3.574.656 7.211.941 10.844.851 3.316 0 6.625-.308 9.883-.925.25.96.5 1.992.71 3.023l1.637.39a49.341 49.341 0 0 0-.851-3.554 27.586 27.586 0 0 0 8.176-3.234c8.492 9.613 8.582 24.02.215 33.742a25.892 25.892 0 0 0-7.895-3.45Zm0 0"/><path style="stroke:none;fill-rule:nonzero;fill:#fff;fill-opacity:1" d="M13.121 24.89c1.363-.199 2.742-.292 4.125-.285a8.663 8.663 0 0 1 6.078 1.848 7.118 7.118 0 0 1 2.098 5.192 7.87 7.87 0 0 1-2.168 5.832 9.25 9.25 0 0 1-6.613 2.168 32.724 32.724 0 0 1-3.555-.18Zm1.953 13.262c.653.043 1.305.043 1.957 0a5.745 5.745 0 0 0 4.742-1.675 5.751 5.751 0 0 0 1.622-4.762 5.33 5.33 0 0 0-6.079-5.758 11.317 11.317 0 0 0-2.242 0ZM27.945 39.504V24.535h2.098l4.8 7.465a43.53 43.53 0 0 1 2.704 4.871c-.18-1.992-.215-3.805-.215-6.152v-6.184h1.777v14.969h-1.953L32.461 32c-1.031-1.672-2.023-3.555-2.809-4.977V39.61ZM42.277 37.156a7.134 7.134 0 0 0 3.555.961c1.988 0 3.129-1.031 3.129-2.562 0-1.528-.781-2.203-2.809-2.95-2.027-.746-3.984-2.132-3.984-4.27a4.34 4.34 0 0 1 4.871-4.05 7.13 7.13 0 0 1 3.309.711l-.57 1.598a5.83 5.83 0 0 0-2.844-.711c-2.063 0-2.844 1.21-2.844 2.242 0 1.031.922 2.098 2.984 2.879 2.063.781 3.84 2.203 3.84 4.41 0 2.203-1.707 4.3-5.262 4.3a7.674 7.674 0 0 1-3.804-.96Zm0 0"/></svg>