<svg xmlns="http://www.w3.org/2000/svg" width="64" height="64"><defs><linearGradient id="a" gradientUnits="userSpaceOnUse" x1="9" y1="13.83" x2="9" y2="1.07" gradientTransform="scale(3.55556)"><stop offset="0" style="stop-color:#0078d4;stop-opacity:1"/><stop offset=".82" style="stop-color:#5ea0ef;stop-opacity:1"/></linearGradient></defs><path style="stroke:none;fill-rule:nonzero;fill:url(#a)" d="M64 34.95a14.228 14.228 0 0 0-12.48-13.618c-.329-9.988-8.676-17.828-18.668-17.527A18.597 18.597 0 0 0 15.074 15.93C6.672 16.96.27 23.96 0 32.426c.367 9.597 8.43 17.086 18.027 16.746h30.754c.262.039.524.039.782 0C57.43 49.117 63.828 42.816 64 34.949Zm0 0"/><path style="stroke:none;fill-rule:nonzero;fill:#f2f2f2;fill-opacity:1" d="M23.574 24.25h17.988v24.887H23.575Zm0 0"/><path style="stroke:none;fill-rule:nonzero;fill:#50e6ff;fill-opacity:1" d="m44.836 22.648-12.41-7.109a.889.889 0 0 0-1.102.531V59.31c0 .476.375.867.856.886h.28l12.411-7.324a.891.891 0 0 0 .606-.816V23.609a.931.931 0 0 0-.641-.96Zm0 0"/></svg>