<svg xmlns="http://www.w3.org/2000/svg" width="64" height="64"><defs><linearGradient id="a" gradientUnits="userSpaceOnUse" x1="9" y1="17.79" x2="9" y2="1.82" gradientTransform="matrix(3.55556 0 0 3.55556 -.013 -.005)"><stop offset="0" style="stop-color:#258277;stop-opacity:1"/><stop offset=".42" style="stop-color:#49a498;stop-opacity:1"/><stop offset=".78" style="stop-color:#60baad;stop-opacity:1"/><stop offset="1" style="stop-color:#68c2b5;stop-opacity:1"/></linearGradient></defs><path style="stroke:none;fill-rule:nonzero;fill:url(#a)" d="M2.352 30.566 30.535 2.383a2.025 2.025 0 0 1 2.867 0l28.184 28.183c.789.793.789 2.075 0 2.868L33.402 61.617a2.025 2.025 0 0 1-2.867 0L2.352 33.434a2.025 2.025 0 0 1 0-2.868Zm0 0"/><path style="stroke:none;fill-rule:nonzero;fill:#fff;fill-opacity:1" d="m25.066 16.64 6.684-6.683a.356.356 0 0 1 .5 0l6.86 6.684c.117.09.16.246.097.382a.313.313 0 0 1-.344.184h-4.09a.357.357 0 0 0-.355.355v8.641a.32.32 0 0 1-.32.32h-4.16a.327.327 0 0 1-.25-.078.33.33 0 0 1-.106-.242v-8.64a.359.359 0 0 0-.32-.356h-3.946a.353.353 0 0 1-.25-.566ZM39.11 47.36l-6.859 6.683a.356.356 0 0 1-.5 0l-6.684-6.684a.353.353 0 0 1 .25-.566h3.946a.359.359 0 0 0 .32-.355v-8.641c0-.094.04-.18.105-.242.07-.059.16-.09.25-.078h4.16c.176 0 .321.14.321.32v8.64c0 .196.16.356.355.356h3.91a.356.356 0 0 1 .5.07.352.352 0 0 1-.074.496Zm-20.12-8.817v-3.91a.392.392 0 0 0-.356-.356h-8.64a.356.356 0 0 1-.356-.32v-4.16a.385.385 0 0 1 .355-.356h8.64c.18 0 .337-.14.356-.32v-3.95a.315.315 0 0 1 .157-.394.317.317 0 0 1 .41.114l6.683 6.754a.308.308 0 0 1 .102.23.308.308 0 0 1-.102.23l-6.683 6.688a.318.318 0 0 1-.566-.25Zm26.023-13.371v3.95c.02.179.175.32.355.32h8.64c.192.015.34.163.356.355v4.16a.356.356 0 0 1-.355.32h-8.64a.392.392 0 0 0-.356.356v3.91a.318.318 0 0 1-.567.25L37.762 32a.308.308 0 0 1-.102-.23c0-.09.035-.172.102-.23l6.683-6.65a.317.317 0 0 1 .41-.113c.145.07.215.243.157.395Zm0 0"/></svg>