<svg xmlns="http://www.w3.org/2000/svg" width="64" height="64"><defs><linearGradient id="a" gradientUnits="userSpaceOnUse" x1="9" y1="1.36" x2="9" y2="17.87" gradientTransform="scale(3.55556)"><stop offset=".18" style="stop-color:#5ea0ef;stop-opacity:1"/><stop offset="1" style="stop-color:#0078d4;stop-opacity:1"/></linearGradient></defs><path style="stroke:none;fill-rule:nonzero;fill:#0078d4;fill-opacity:1" d="M58.168 29.867c0 17.207-20.8 31.074-25.316 33.883a1.63 1.63 0 0 1-1.704 0C26.633 60.941 5.832 47.074 5.832 29.867V9.172c0-.887.711-1.613 1.598-1.633C23.61 7.11 19.875 0 32 0s8.39 7.11 24.57 7.54c.887.019 1.598.745 1.598 1.632Zm0 0"/><path style="stroke:none;fill-rule:nonzero;fill:url(#a)" d="M56 30.043c0 15.789-19.059 28.445-23.219 31.078a1.534 1.534 0 0 1-1.562 0C27.059 58.56 8 45.832 8 30.043V11.059c0-.813.648-1.477 1.457-1.496C24.285 9.171 20.871 2.668 32 2.668s7.715 6.504 22.543 6.894c.809.02 1.457.684 1.457 1.497Zm0 0"/><path style="stroke:none;fill-rule:nonzero;fill:#e6e6e6;fill-opacity:1" d="M41.957 44.516c0 .941-.766 1.707-1.707 1.707h-16.5a1.709 1.709 0 0 1-1.707-1.707V14.008a1.723 1.723 0 0 1 .488-1.23c.32-.325.762-.512 1.219-.512h16.5c.457 0 .898.187 1.219.511.32.328.496.774.488 1.23Zm0 0"/><path style="stroke:none;fill-rule:nonzero;fill:#003067;fill-opacity:1" d="M24.89 17.777a2.13 2.13 0 0 1 2.133-2.132h9.954a2.13 2.13 0 0 1 2.132 2.132 2.126 2.126 0 0 1-2.132 2.168h-9.954a2.127 2.127 0 0 1-2.132-2.168Zm0 0"/><path style="stroke:none;fill-rule:nonzero;fill:#50e6ff;fill-opacity:1" d="M28.586 17.742a1.457 1.457 0 1 1-2.914 0 1.457 1.457 0 0 1 2.914 0Zm0 0"/><path style="stroke:none;fill-rule:nonzero;fill:#003067;fill-opacity:1" d="M24.89 24.535a2.17 2.17 0 0 1 2.133-2.172h9.954a2.17 2.17 0 0 1 2.132 2.172c.012.57-.21 1.121-.609 1.531-.402.407-.95.637-1.523.637h-9.954c-.574 0-1.12-.23-1.523-.637a2.139 2.139 0 0 1-.61-1.53Zm0 0"/><path style="stroke:none;fill-rule:nonzero;fill:#50e6ff;fill-opacity:1" d="M28.586 24.535a1.457 1.457 0 0 1-2.914 0 1.458 1.458 0 1 1 2.914 0Zm0 0"/></svg>