<svg xmlns="http://www.w3.org/2000/svg" width="64" height="64"><defs><linearGradient id="a" gradientUnits="userSpaceOnUse" x1="5.33" y1="2.81" x2="8.74" y2="6.22" gradientTransform="matrix(3.55555 -.00496 .00496 3.55555 7.218 -4.871)"><stop offset="0" style="stop-color:#86d633;stop-opacity:1"/><stop offset="1" style="stop-color:#5e9624;stop-opacity:1"/></linearGradient><linearGradient id="b" gradientUnits="userSpaceOnUse" x1="11.84" y1="14.54" x2="15.24" y2="17.95" gradientTransform="scale(3.55556)"><stop offset="0" style="stop-color:#86d633;stop-opacity:1"/><stop offset="1" style="stop-color:#5e9624;stop-opacity:1"/></linearGradient><linearGradient id="c" gradientUnits="userSpaceOnUse" x1="-1.34" y1="14.53" x2="2.06" y2="17.93" gradientTransform="scale(3.55556)"><stop offset="0" style="stop-color:#86d633;stop-opacity:1"/><stop offset="1" style="stop-color:#5e9624;stop-opacity:1"/></linearGradient></defs><path style="stroke:none;fill-rule:nonzero;fill:#a67af4;fill-opacity:1" d="m25.777 15.488 6.098 3.52-16.89 29.254-6.094-3.52ZM31.906 19.555 38 16.035l16.89 29.25-6.097 3.52Zm0 0"/><path style="stroke:none;fill-rule:nonzero;fill:#773adc;fill-opacity:1" d="M48.496 48.781v7.04H14.72v-7.04Zm0 0"/><path style="stroke:none;fill-rule:nonzero;fill:url(#a)" d="M40.816 11.164a8.568 8.568 0 1 1-17.136 0c0-4.73 3.836-8.57 8.57-8.57 4.73 0 8.566 3.84 8.566 8.57Zm0 0"/><path style="stroke:none;fill-rule:nonzero;fill:url(#b)" d="M64 52.836c0 4.73-3.836 8.57-8.57 8.57-4.73 0-8.567-3.84-8.567-8.57a8.568 8.568 0 1 1 17.137 0Zm0 0"/><path style="stroke:none;fill-rule:nonzero;fill:url(#c)" d="M17.137 52.836c0 4.73-3.836 8.57-8.567 8.57a8.571 8.571 0 0 1 0-17.14 8.568 8.568 0 0 1 8.567 8.57Zm0 0"/></svg>