<svg xmlns="http://www.w3.org/2000/svg" width="64" height="64"><defs><linearGradient id="a" gradientUnits="userSpaceOnUse" x1="5.82" y1="25.68" x2="5.82" y2="14.64" gradientTransform="matrix(3.55556 0 0 3.59111 0 -40.569)"><stop offset="0" style="stop-color:#5e9624;stop-opacity:1"/><stop offset=".01" style="stop-color:#5f9724;stop-opacity:1"/><stop offset=".35" style="stop-color:#6cab29;stop-opacity:1"/><stop offset=".68" style="stop-color:#73b82c;stop-opacity:1"/><stop offset="1" style="stop-color:#76bc2d;stop-opacity:1"/></linearGradient></defs><path style="stroke:none;fill-rule:nonzero;fill:#0078d4;fill-opacity:1" d="m64 32.57-7.54 7.535a.352.352 0 0 1-.437.13.361.361 0 0 1-.203-.415v-4.265a.391.391 0 0 0-.39-.356H42.988l7.75 7.469a.326.326 0 0 0 .426 0l2.168-2.207a.287.287 0 0 1 .5.215v7.785c0 .238-.191.43-.426.43h-7.644a.283.283 0 0 1-.29-.172.283.283 0 0 1 .075-.328l2.203-2.168a.317.317 0 0 0 0-.426l-6.363-6.688V25.492l6.508-6.469a.288.288 0 0 0 0-.39l-2.208-2.172a.282.282 0 0 1-.074-.324.287.287 0 0 1 .29-.172h7.785c.242.02.43.219.43.46V24a.29.29 0 0 1-.173.29.295.295 0 0 1-.328-.075l-2.168-2.172a.326.326 0 0 0-.426 0l-7.93 7.504H55.29c.215 0 .39-.176.39-.39V24.89a.359.359 0 0 1 .2-.414.357.357 0 0 1 .441.128L64 32c.09.066.14.172.14.285 0 .11-.05.215-.14.285Zm0 0"/><path style="stroke:none;fill-rule:nonzero;fill:url(#a)" d="M2.063 12.125h37.261a2.06 2.06 0 0 1 2.063 2.063v35.624a2.06 2.06 0 0 1-2.063 2.063H2.063A2.06 2.06 0 0 1 0 49.812V14.188a2.06 2.06 0 0 1 2.063-2.063Zm0 0"/><path style="stroke:none;fill-rule:nonzero;fill:#fff;fill-opacity:1" d="M9.102 16.996h7.644c.57 0 1.031.461 1.031 1.031v7.22c0 .566-.46 1.03-1.03 1.03H9.101c-.57 0-1.032-.465-1.032-1.03v-7.22c0-.57.461-1.03 1.032-1.03ZM25.637 27.625h7.644c.567 0 1.032.465 1.032 1.031v7.219c0 .57-.465 1.031-1.032 1.031h-7.644a1.03 1.03 0 0 1-1.032-1.031v-7.219c0-.566.461-1.031 1.032-1.031ZM9.102 37.723h7.644c.57 0 1.031.465 1.031 1.03v7.22c0 .57-.46 1.03-1.03 1.03H9.101a1.03 1.03 0 0 1-1.032-1.03v-7.22c0-.566.461-1.03 1.032-1.03Zm0 0"/></svg>