<svg xmlns="http://www.w3.org/2000/svg" xmlns:xlink="http://www.w3.org/1999/xlink" width="64" height="64"><defs><clipPath id="b"><path d="M0 0h64v64H0z"/></clipPath><clipPath id="c"><path d="M0 0h64v64H0z"/></clipPath><clipPath id="d"><path d="M0 0h64v64H0z"/></clipPath><clipPath id="e"><path d="M0 0h64v64H0z"/></clipPath><clipPath id="f"><path d="M0 0h64v64H0z"/></clipPath><clipPath id="g"><path d="M0 0h64v64H0z"/></clipPath><mask id="k"><g filter="url(#a)"><path style="fill:#000;fill-opacity:.54902;stroke:none" d="M0 0h64v64H0z"/></g></mask><mask id="m"><g filter="url(#a)"><path style="fill:#000;fill-opacity:.54902;stroke:none" d="M0 0h64v64H0z"/></g></mask><mask id="o"><g filter="url(#a)"><path style="fill:#000;fill-opacity:.54902;stroke:none" d="M0 0h64v64H0z"/></g></mask><mask id="q"><g filter="url(#a)"><path style="fill:#000;fill-opacity:.54902;stroke:none" d="M0 0h64v64H0z"/></g></mask><mask id="s"><g filter="url(#a)"><path style="fill:#000;fill-opacity:.54902;stroke:none" d="M0 0h64v64H0z"/></g></mask><mask id="u"><g filter="url(#a)"><path style="fill:#000;fill-opacity:.54902;stroke:none" d="M0 0h64v64H0z"/></g></mask><g id="j" clip-path="url(#b)"><path style="stroke:none;fill-rule:nonzero;fill:#f2f2f2;fill-opacity:1" d="m23.715 24.89.676 1.067.5.711a21.1 21.1 0 0 1 1.207-3.914 3.005 3.005 0 0 1-1.602-.817c-.32.965-.582 1.954-.781 2.954Zm0 0"/></g><g id="l" clip-path="url(#c)"><path style="stroke:none;fill-rule:nonzero;fill:#f2f2f2;fill-opacity:1" d="M25.742 16.816a13.989 13.989 0 0 1-.851-3.304 8.873 8.873 0 0 0-1.211 1.636c.14.899.379 1.782.71 2.63.368-.423.833-.75 1.352-.962Zm0 0"/></g><g id="n" clip-path="url(#d)"><path style="stroke:none;fill-rule:nonzero;fill:#f2f2f2;fill-opacity:1" d="M29.05 21.832a3.12 3.12 0 0 1-1.706.922 16.517 16.517 0 0 0 1.633 1.46c.726.532 1.5.997 2.312 1.388v-.25A1.887 1.887 0 0 1 32 23.93a12.85 12.85 0 0 1-2.95-2.098Zm0 0"/></g><g id="p" clip-path="url(#e)"><path style="stroke:none;fill-rule:nonzero;fill:#f2f2f2;fill-opacity:1" d="M38.363 25.602a14.998 14.998 0 0 1-3.093-.356c.003.52-.2 1.016-.567 1.387a13.62 13.62 0 0 0 3.84.281c.484-.453.926-.953 1.316-1.492Zm0 0"/></g><g id="r" clip-path="url(#f)"><path style="stroke:none;fill-rule:nonzero;fill:#f2f2f2;fill-opacity:1" d="M32.746 15.715a15.272 15.272 0 0 1 6.684-1.492 8.004 8.004 0 0 0-1.668-1.602c-1.825.11-3.617.531-5.301 1.246-.356 0-.676.39-1.031.57a21.029 21.029 0 0 1-2.239-3.308l-1.21.46a19.234 19.234 0 0 0 2.312 3.56 13.765 13.765 0 0 0-2.383 1.953 3.118 3.118 0 0 1 1.531 1.246 11.598 11.598 0 0 1 2.168-1.707 32.505 32.505 0 0 0 4.16 3.554c.102-.449.352-.851.711-1.136a29.73 29.73 0 0 1-3.734-3.344Zm0 0"/></g><g id="t" clip-path="url(#g)"><path style="stroke:none;fill-rule:nonzero;fill:#f2f2f2;fill-opacity:1" d="M41.066 21.652h-.64l-.356-.21a2.18 2.18 0 0 1-.71 1.066l.425.246.395.215.992.496c.129-.406.234-.824.32-1.242Zm0 0"/></g><linearGradient id="h" gradientUnits="userSpaceOnUse" x1="9" y1="19.25" x2="9" y2="-.46" gradientTransform="matrix(3.55556 0 0 3.55556 -.013 -.005)"><stop offset="0" style="stop-color:#5e9624;stop-opacity:1"/><stop offset=".55" style="stop-color:#6dad2a;stop-opacity:1"/><stop offset="1" style="stop-color:#76bc2d;stop-opacity:1"/></linearGradient><linearGradient id="i" gradientUnits="userSpaceOnUse" x1="7.54" y1="6.44" x2="7.53" y2="5.18" gradientTransform="scale(3.55556)"><stop offset="0" style="stop-color:#ccc;stop-opacity:1"/><stop offset=".12" style="stop-color:#d7d7d7;stop-opacity:1"/><stop offset=".42" style="stop-color:#ebebeb;stop-opacity:1"/><stop offset=".72" style="stop-color:#f8f8f8;stop-opacity:1"/><stop offset="1" style="stop-color:#fcfcfc;stop-opacity:1"/></linearGradient><filter id="a" filterUnits="objectBoundingBox" x="0%" y="0%" width="100%" height="100%"><feColorMatrix in="SourceGraphic" values="0 0 0 0 1 0 0 0 0 1 0 0 0 0 1 0 0 0 1 0"/></filter></defs><path style="stroke:none;fill-rule:nonzero;fill:url(#h)" d="M2.352 30.566 30.535 2.383a2.025 2.025 0 0 1 2.867 0l28.184 28.183c.789.793.789 2.075 0 2.868L33.402 61.617a2.025 2.025 0 0 1-2.867 0L2.352 33.434a2.025 2.025 0 0 1 0-2.868Zm0 0"/><path style="stroke:none;fill-rule:nonzero;fill:#fff;fill-opacity:1" d="M38.719 37.367h10.097a.385.385 0 0 0 .356-.39V26.914a.35.35 0 0 0-.223-.367.349.349 0 0 0-.414.121l-2.773 2.773v.176a.356.356 0 0 1-.5 0l-12.336-12.16a.356.356 0 0 0-.5 0l-3.13 3.129a.392.392 0 0 0 0 .535l12.126 12.125c.14.149.14.383 0 .531l-.176.18-2.773 2.773a.385.385 0 0 0-.067.391c.051.137.172.23.313.246Zm0 0"/><path style="stroke:none;fill-rule:nonzero;fill:#fff;fill-opacity:1" d="M24.605 37.367H14.508a.387.387 0 0 1-.285-.39V26.914c0-.14.09-.27.218-.324a.363.363 0 0 1 .387.078l2.809 2.773v.176c.136.137.36.137.496 0l12.265-12.16a.356.356 0 0 1 .5 0l3.13 3.129c.14.152.14.383 0 .535L21.901 33.246a.387.387 0 0 0 0 .531v.18l2.774 2.773a.388.388 0 0 1-.07.637Zm0 0"/><path style="stroke:none;fill-rule:nonzero;fill:#fff;fill-opacity:1" d="m24.25 46.473 7.11 7.109c.14.137.359.137.5 0l7.109-7.11a.354.354 0 0 0 .074-.386.354.354 0 0 0-.324-.219h-4.16a.396.396 0 0 1-.356-.355V28.445a.363.363 0 0 0-.09-.277.354.354 0 0 0-.265-.113H29.44a.387.387 0 0 0-.39.39v17.067c0 .195-.16.355-.36.355h-4.195c-.14 0-.27.09-.32.219a.354.354 0 0 0 .074.387Zm0 0"/><path style="stroke:none;fill-rule:nonzero;fill:#0078d4;fill-opacity:1" d="M37.867 27.664c-4.21 3.035-10.07 2.191-13.25-1.91a9.633 9.633 0 0 1 1.445-13.309 9.634 9.634 0 0 1 13.149 2.059 9.64 9.64 0 0 1-1.45 13.23"/><path style="stroke:none;fill-rule:nonzero;fill:url(#i)" d="M29.867 19.734a3.096 3.096 0 0 1-3.094 3.094 3.093 3.093 0 1 1 3.094-3.094Zm0 0"/><use xlink:href="#j" mask="url(#k)"/><use xlink:href="#l" mask="url(#m)"/><use xlink:href="#n" mask="url(#o)"/><use xlink:href="#p" mask="url(#q)"/><path style="stroke:none;fill-rule:nonzero;fill:#f2f2f2;fill-opacity:1" d="M39.965 20.41a2.133 2.133 0 1 1-4.265 0 2.133 2.133 0 0 1 4.265 0Zm0 0"/><use xlink:href="#r" mask="url(#s)"/><use xlink:href="#t" mask="url(#u)"/><path style="stroke:none;fill-rule:nonzero;fill:#f2f2f2;fill-opacity:1" d="M29.867 19.734a3.096 3.096 0 0 1-3.094 3.094 3.093 3.093 0 1 1 3.094-3.094ZM35.27 25.352c0 1.097-.891 1.992-1.989 1.992a1.993 1.993 0 0 1 0-3.985 1.99 1.99 0 0 1 1.989 1.993Zm0 0"/></svg>