<svg xmlns="http://www.w3.org/2000/svg" width="64" height="64"><defs><linearGradient id="a" gradientUnits="userSpaceOnUse" x1="9" y1="13.5" x2="9" y2=".74" gradientTransform="scale(3.55556)"><stop offset="0" style="stop-color:#0078d4;stop-opacity:1"/><stop offset=".16" style="stop-color:#1380da;stop-opacity:1"/><stop offset=".53" style="stop-color:#3c91e5;stop-opacity:1"/><stop offset=".82" style="stop-color:#559cec;stop-opacity:1"/><stop offset="1" style="stop-color:#5ea0ef;stop-opacity:1"/></linearGradient></defs><path style="stroke:none;fill-rule:nonzero;fill:url(#a)" d="M64 33.777a14.44 14.44 0 0 0-12.48-13.832c-.442-9.902-8.758-17.617-18.668-17.312a18.594 18.594 0 0 0-17.778 12.12C6.664 15.77.254 22.786 0 31.254.367 40.853 8.43 48.34 18.027 48h30.754c.262.02.524.02.782 0 7.859-.074 14.246-6.367 14.437-14.223Zm0 0"/><path style="stroke:none;fill-rule:nonzero;fill:#198ab3;fill-opacity:1" d="M33.883 58.168h12.98c.59 0 1.067.477 1.067 1.066v1.067c0 .59-.477 1.066-1.067 1.066h-12.98a1.068 1.068 0 0 1-1.067-1.066v-1.067c0-.59.48-1.066 1.067-1.066Zm0 0"/><path style="stroke:none;fill-rule:nonzero;fill:#32bedd;fill-opacity:1" d="M33.883 51.379h12.98c.59 0 1.067.476 1.067 1.066v1.067c0 .59-.477 1.066-1.067 1.066h-12.98a1.068 1.068 0 0 1-1.067-1.066v-1.067c0-.59.48-1.066 1.067-1.066Zm0 0"/><path style="stroke:none;fill-rule:nonzero;fill:#50e6ff;fill-opacity:1" d="M33.883 44.621h12.98c.59 0 1.067.48 1.067 1.066v1.067c0 .59-.477 1.066-1.067 1.066h-12.98a1.068 1.068 0 0 1-1.067-1.066v-1.066c0-.586.48-1.067 1.067-1.067Zm0 0"/><path style="stroke:none;fill-rule:nonzero;fill:#f2f2f2;fill-opacity:1" d="M18.668 27.734h12.977c.59 0 1.066.477 1.066 1.067v1.066c0 .59-.477 1.067-1.066 1.067H18.668c-.59 0-1.066-.477-1.066-1.067v-1.066c0-.59.476-1.067 1.066-1.067ZM18.668 33.957h12.977c.59 0 1.066.477 1.066 1.066v1.067c0 .59-.477 1.066-1.066 1.066H18.668c-.59 0-1.066-.476-1.066-1.066v-1.067c0-.59.476-1.066 1.066-1.066ZM18.668 40.215h12.977c.59 0 1.066.476 1.066 1.066v1.067c0 .59-.477 1.066-1.066 1.066H18.668c-.59 0-1.066-.477-1.066-1.066V41.28c0-.59.476-1.066 1.066-1.066Zm0 0"/></svg>