<svg xmlns="http://www.w3.org/2000/svg" width="64" height="64"><defs><linearGradient id="a" gradientUnits="userSpaceOnUse" x1="9.01" y1="16.5" x2="9.01" y2="1.5" gradientTransform="scale(3.55556)"><stop offset="0" style="stop-color:#5e9641;stop-opacity:1"/><stop offset=".34" style="stop-color:#6baa42;stop-opacity:1"/><stop offset=".67" style="stop-color:#73b743;stop-opacity:1"/><stop offset="1" style="stop-color:#76bb43;stop-opacity:1"/></linearGradient></defs><path style="stroke:none;fill-rule:nonzero;fill:#ffca00;fill-opacity:1" d="M56.496 10.348h4.516c.668 0 1.21.539 1.21 1.207V24c0 .668-.542 1.207-1.21 1.207h-4.516ZM56.496 32h4.516c.668 0 1.21.543 1.21 1.207v20.836c0 .668-.542 1.21-1.21 1.21h-4.516Zm0 0"/><path style="stroke:none;fill-rule:nonzero;fill:url(#a)" d="M10.027 5.332h44.016a2.455 2.455 0 0 1 2.453 2.453v48.43a2.455 2.455 0 0 1-2.453 2.453H10.027a2.455 2.455 0 0 1-2.453-2.453V7.785a2.455 2.455 0 0 1 2.453-2.453Zm0 0"/><path style="stroke:none;fill-rule:nonzero;fill:#b4ec36;fill-opacity:1" d="M20.977 45.867h-2.524a.702.702 0 0 1-.492-.234.709.709 0 0 1-.184-.512V15.43a.698.698 0 0 1 .184-.5.692.692 0 0 1 .492-.211h6.863a.677.677 0 0 1 .676.71.73.73 0 0 1-.183.516.726.726 0 0 1-.493.235H19.13v28.195h1.848c.191.008.367.09.492.23.129.141.195.325.183.516a.744.744 0 0 1-.675.746Zm0 0"/><path style="stroke:none;fill-rule:nonzero;fill:#b4ec36;fill-opacity:1" d="M21.332 49.492h-5.687a.714.714 0 0 1-.493-.23.718.718 0 0 1-.183-.516l-.461-36.726a.715.715 0 0 1 .21-.536.58.58 0 0 1 .466-.214h10.132v1.46h-9.421L16.32 48h5.012ZM42.668 46.223h-5.656a.67.67 0 0 1-.496-.25.648.648 0 0 1-.215-.496V28.09a.673.673 0 0 1 .187-.5.662.662 0 0 1 .489-.211h3.238v-8h1.347v8.676a.708.708 0 0 1-.636.746h-3.239v15.715h4.981Zm0 0"/><path style="stroke:none;fill-rule:nonzero;fill:#365615;fill-opacity:1" d="M26.063 8.14h19.98c.512 0 .926.415.926.926v9.211a.924.924 0 0 1-.926.922h-19.98a.924.924 0 0 1-.926-.922v-9.21c0-.512.414-.926.925-.926ZM31.465 39.29v15.573c0 .508-.41.922-.922.922h-2.027a.924.924 0 0 1-.926-.922V39.29c0-.512.414-.926.926-.926h2.027c.512 0 .922.414.922.926ZM24.852 39.36v15.574a.924.924 0 0 1-.922.925h-2.028a.925.925 0 0 1-.925-.925V39.359c0-.511.414-.922.925-.922h2.028c.508 0 .922.41.922.922Zm0 0"/><path style="stroke:none;fill-rule:nonzero;fill:#f2f2f2;fill-opacity:1" d="M46.117 39.36v15.574a.925.925 0 0 1-.926.925h-2.027a.925.925 0 0 1-.926-.925V39.359c0-.511.414-.922.926-.922h2.027c.512 0 .926.41.926.922ZM32.535 28.656c0-2.199-1.656-3.98-3.7-3.98-2.042 0-3.698 1.781-3.698 3.98 0 2.2 1.656 3.985 3.699 3.985s3.7-1.786 3.7-3.985Zm0 0"/><path style="stroke:none;fill-rule:nonzero;fill:#3b3b3b;fill-opacity:1" d="M7.504 43.555H2.988a1.21 1.21 0 0 1-1.21-1.067V21.652c0-.668.542-1.207 1.21-1.207h4.516Zm0 0"/></svg>