<svg xmlns="http://www.w3.org/2000/svg" width="64" height="64"><defs><linearGradient id="a" gradientUnits="userSpaceOnUse" x1="9.19" y1="17.5" x2="9.19" y2=".5" gradientTransform="scale(3.55556)"><stop offset="0" style="stop-color:#0078d4;stop-opacity:1"/><stop offset=".82" style="stop-color:#5ea0ef;stop-opacity:1"/></linearGradient></defs><path style="stroke:none;fill-rule:nonzero;fill:#0078d4;fill-opacity:1" d="M47.465 10.238c-.02-4.535 3.644-8.226 8.18-8.246a6.61 6.61 0 0 1 5.652 6.684 6.604 6.604 0 0 1-1.457 4.195c-.48.586-1.2.926-1.957.926H47.219Zm0 0"/><path style="stroke:none;fill-rule:nonzero;fill:url(#a)" d="M48.215 1.813h-32A8.147 8.147 0 0 0 8.14 9.957v52.23h32c4.5 0 8.144-3.644 8.144-8.144V18.809a91.695 91.695 0 0 1 0-10.668c1.278-7.075 8.922-5.829 8.922-5.829a39.615 39.615 0 0 0-8.992-.5Zm0 0"/><path style="stroke:none;fill-rule:nonzero;fill:#f2f2f2;fill-opacity:1" d="M28.445 41.387V24.676a1.89 1.89 0 0 0 .961-1.637 1.922 1.922 0 0 0-1.922-1.918 1.926 1.926 0 0 0-1.78 1.434c-.212.82.136 1.68.855 2.12v16.712c-.59.351-.954.984-.957 1.672a1.919 1.919 0 0 0 2.933 1.879 1.922 1.922 0 0 0 .871-1.88 1.97 1.97 0 0 0-.96-1.671Zm0 0"/><path style="stroke:none;fill-rule:nonzero;fill:#5ea0ef;fill-opacity:1" d="M40.71 61.973a6.542 6.542 0 0 1-3.163-11.52.815.815 0 0 0 .258-.922.811.811 0 0 0-.793-.535H8.18a6.575 6.575 0 0 0-5.399 6.469c0 3.18 2.27 5.902 5.399 6.472.34.036.687.036 1.027 0Zm0 0"/><path style="stroke:none;fill-rule:nonzero;fill:#f2f2f2;fill-opacity:1" d="M35.52 23.074a1.956 1.956 0 1 1-3.911.003 1.956 1.956 0 0 1 3.91-.003ZM29.297 23.074a1.955 1.955 0 1 1-3.91.005 1.955 1.955 0 0 1 3.91-.005ZM23.11 23.074a1.955 1.955 0 1 1-3.91.005 1.955 1.955 0 0 1 3.91-.005Zm0 0"/><path style="stroke:none;fill-rule:nonzero;fill:#b3b3b3;fill-opacity:1" d="m21.332 32 1.14-1.137a.536.536 0 0 0 0-.71l-8.855-8.821-1.137 1.14a.993.993 0 0 0 0 1.423L20.73 32a.53.53 0 0 0 .602 0Zm0 0"/><path style="stroke:none;fill-rule:nonzero;fill:#f2f2f2;fill-opacity:1" d="m22.398 15.29-1.066-1.067a.536.536 0 0 0-.71 0l-8.142 8.07a.993.993 0 0 0 0 1.422l1.102 1.176L22.398 16a.462.462 0 0 0 0-.71Zm0 0"/><path style="stroke:none;fill-rule:nonzero;fill:#b3b3b3;fill-opacity:1" d="M33.137 32 32 30.828a.468.468 0 0 1-.168-.355c0-.141.063-.27.168-.356l8.996-8.785 1.102 1.14a.993.993 0 0 1 0 1.423L33.848 32a.536.536 0 0 1-.711 0Zm0 0"/><path style="stroke:none;fill-rule:nonzero;fill:#f2f2f2;fill-opacity:1" d="m32.18 15.29 1.136-1.067a.536.536 0 0 1 .711 0l8.07 8.105a.993.993 0 0 1 0 1.422l-1.1 1.14L32.18 16a.528.528 0 0 1 0-.71Zm0 0"/></svg>