<svg xmlns="http://www.w3.org/2000/svg" width="64" height="64"><defs><linearGradient id="a" gradientUnits="userSpaceOnUse" x1="9" y1="15.83" x2="9" y2="5.79" gradientTransform="scale(3.55556)"><stop offset="0" style="stop-color:#32bedd;stop-opacity:1"/><stop offset=".18" style="stop-color:#32caea;stop-opacity:1"/><stop offset=".41" style="stop-color:#32d2f2;stop-opacity:1"/><stop offset=".78" style="stop-color:#32d4f5;stop-opacity:1"/></linearGradient></defs><path style="stroke:none;fill-rule:nonzero;fill:url(#a)" d="M1.777 20.586h60.446v33.707a2.026 2.026 0 0 1-2.028 2.027H3.805a2.026 2.026 0 0 1-2.028-2.027Zm0 0"/><path style="stroke:none;fill-rule:nonzero;fill:#198ab3;fill-opacity:1" d="M3.805 7.715h56.39c1.121 0 2.028.906 2.028 2.027v10.844H1.777V9.707a2.028 2.028 0 0 1 2.028-1.992Zm0 0"/><path style="stroke:none;fill-rule:nonzero;fill:#fff;fill-opacity:1" d="M9.992 24.496h43.98c.516.02.926.445.926.961v4.98a.96.96 0 0 1-.925.958H9.993a.96.96 0 0 1-.927-.957v-4.981c0-.516.41-.941.926-.96Zm0 0"/><path style="stroke:none;fill-rule:nonzero;fill:#9cebff;fill-opacity:1" d="M10.027 34.418h43.98c.516.02.927.441.927.96v5.013c0 .515-.41.941-.926.96h-43.98a.964.964 0 0 1-.926-.96v-4.836a.962.962 0 0 1 .926-1.137Zm0 0"/><path style="stroke:none;fill-rule:nonzero;fill:#50e6ff;fill-opacity:1" d="M10.027 44.445h43.98c.516.02.927.442.927.961v5.012c0 .516-.41.941-.926.96h-43.98a.964.964 0 0 1-.926-.96v-5.012c0-.52.41-.941.925-.96Zm0 0"/></svg>