<svg xmlns="http://www.w3.org/2000/svg" width="64" height="64"><defs><clipPath id="b"><path d="M31 16h16v26H31Zm0 0"/></clipPath><clipPath id="c"><path d="m37.617 29.652 8.606 9.176a.78.78 0 0 1 0 1.067l-1.672 1.742a.713.713 0 0 1-1.066 0L32 29.652a.785.785 0 0 1-.285-.601c0-.235.105-.457.285-.606l11.2-11.804a.709.709 0 0 1 1.066 0l1.671 1.742a.816.816 0 0 1 0 1.101l-8.32 8.961a.787.787 0 0 0-.285.606c0 .23.105.453.285.601Zm0 0"/></clipPath><clipPath id="d"><path d="M34 29h13v13H34Zm0 0"/></clipPath><clipPath id="e"><path d="m37.617 29.652 8.606 9.176a.78.78 0 0 1 0 1.067l-1.672 1.742a.713.713 0 0 1-1.066 0L32 29.652a.785.785 0 0 1-.285-.601c0-.235.105-.457.285-.606l11.2-11.804a.709.709 0 0 1 1.066 0l1.671 1.742a.816.816 0 0 1 0 1.101l-8.32 8.961a.787.787 0 0 0-.285.606c0 .23.105.453.285.601Zm0 0"/></clipPath><clipPath id="f"><path d="M16 22h15v26H16Zm0 0"/></clipPath><clipPath id="g"><path d="m25.281 35.234-8.64 9.141a.816.816 0 0 0 0 1.102l1.672 1.742a.705.705 0 0 0 .53.238.72.72 0 0 0 .536-.238l11.375-11.985a.78.78 0 0 0 0-1.066l-11.2-11.805a.713.713 0 0 0-1.066 0l-1.672 1.742a.787.787 0 0 0 0 1.067l8.465 8.996a.72.72 0 0 1 .239.535.705.705 0 0 1-.239.531Zm0 0"/></clipPath><clipPath id="h"><path d="M16 34h13v14H16Zm0 0"/></clipPath><clipPath id="i"><path d="m25.281 35.234-8.64 9.141a.816.816 0 0 0 0 1.102l1.672 1.742a.705.705 0 0 0 .53.238.72.72 0 0 0 .536-.238l11.375-11.985a.78.78 0 0 0 0-1.066l-11.2-11.805a.713.713 0 0 0-1.066 0l-1.672 1.742a.787.787 0 0 0 0 1.067l8.465 8.996a.72.72 0 0 1 .239.535.705.705 0 0 1-.239.531Zm0 0"/></clipPath><radialGradient id="a" gradientUnits="userSpaceOnUse" cx="46.42" cy="43.21" fx="46.42" fy="43.21" r="9" gradientTransform="translate(-123.876 -113.102) scale(3.34222)"><stop offset=".18" style="stop-color:#5ea0ef;stop-opacity:1"/><stop offset=".56" style="stop-color:#5c9fee;stop-opacity:1"/><stop offset=".69" style="stop-color:#559ced;stop-opacity:1"/><stop offset=".78" style="stop-color:#4a97e9;stop-opacity:1"/><stop offset=".86" style="stop-color:#3990e4;stop-opacity:1"/><stop offset=".93" style="stop-color:#2387de;stop-opacity:1"/><stop offset=".99" style="stop-color:#087bd6;stop-opacity:1"/><stop offset="1" style="stop-color:#0078d4;stop-opacity:1"/></radialGradient></defs><path style="stroke:none;fill-rule:nonzero;fill:url(#a)" d="M62.223 32c0 16.691-13.532 30.223-30.223 30.223S1.777 48.69 1.777 32 15.31 1.777 32 1.777 62.223 15.31 62.223 32Zm0 0"/><path style="stroke:none;fill-rule:nonzero;fill:#fff;fill-opacity:1" d="M58.313 32c0 14.531-11.782 26.313-26.313 26.313C17.469 58.313 5.687 46.53 5.687 32 5.688 17.469 17.47 5.687 32 5.687 46.531 5.688 58.313 17.47 58.313 32Zm0 0"/><g clip-path="url(#b)"><g clip-path="url(#c)"><path style="stroke:none;fill-rule:nonzero;fill:#5e9624;fill-opacity:1" d="m37.086 29.121 9.707 10.238-2.738 2.844-12.446-13.082 12.266-12.906 2.738 2.844Zm0 0"/></g></g><g clip-path="url(#d)"><g clip-path="url(#e)"><path style="stroke:none;fill-rule:nonzero;fill:#86d633;fill-opacity:1" d="M46.793 39.36 37.086 29.12l-2.703 2.844 9.672 10.238Zm0 0"/></g></g><g clip-path="url(#f)"><g clip-path="url(#g)"><path style="stroke:none;fill-rule:nonzero;fill:#5e9624;fill-opacity:1" d="M25.813 34.703 16.14 44.941l2.703 2.844 12.445-13.082-12.266-12.906-2.738 2.844Zm0 0"/></g></g><g clip-path="url(#h)"><g clip-path="url(#i)"><path style="stroke:none;fill-rule:nonzero;fill:#86d633;fill-opacity:1" d="m16.14 44.941 9.672-10.238 2.704 2.844-9.672 10.238Zm0 0"/></g></g></svg>