<svg xmlns="http://www.w3.org/2000/svg" width="64" height="64"><defs><linearGradient id="a" gradientUnits="userSpaceOnUse" x1="9" y1="14.14" x2="9" y2="1.38" gradientTransform="scale(3.55556)"><stop offset="0" style="stop-color:#0078d4;stop-opacity:1"/><stop offset=".82" style="stop-color:#5ea0ef;stop-opacity:1"/></linearGradient></defs><path style="stroke:none;fill-rule:nonzero;fill:url(#a)" d="M64 36.055a14.434 14.434 0 0 0-12.48-13.832c-.442-9.907-8.758-17.618-18.668-17.317a18.603 18.603 0 0 0-17.778 12.125C6.664 18.047.254 25.06 0 33.527c.367 9.598 8.43 17.09 18.027 16.75h30.754c.262.02.524.02.782 0C57.422 50.203 63.809 43.91 64 36.055Zm0 0"/><path style="stroke:none;fill-rule:nonzero;fill:#821010;fill-opacity:1" d="M50.809 39.785a1.495 1.495 0 0 0-1.493-1.457H14.684c-.809 0-1.473.649-1.493 1.457v17.778c.02.812.684 1.46 1.493 1.46h34.632c.809 0 1.473-.648 1.493-1.46Zm0 0"/><path style="stroke:none;fill-rule:nonzero;fill:#e62323;fill-opacity:1" d="M15.29 40.39h10.202v4.516H15.29Zm0 0"/><path style="stroke:none;fill-rule:nonzero;fill:#ff7381;fill-opacity:1" d="M27.023 40.39h10.204v4.516H27.023Zm0 0"/><path style="stroke:none;fill-rule:nonzero;fill:#e62323;fill-opacity:1" d="M38.754 40.39H48.96v4.516H38.754ZM15.29 46.438h4.23v4.511h-4.23Zm0 0"/><path style="stroke:none;fill-rule:nonzero;fill:#ff7381;fill-opacity:1" d="M44.73 46.438h4.23v4.511h-4.23ZM21.05 46.438h10.204v4.511H21.05Zm0 0"/><path style="stroke:none;fill-rule:nonzero;fill:#e62323;fill-opacity:1" d="M32.816 46.438h10.207v4.511H32.816ZM15.29 52.48h10.202v4.516H15.29Zm0 0"/><path style="stroke:none;fill-rule:nonzero;fill:#ff7381;fill-opacity:1" d="M27.023 52.48h10.204v4.516H27.023Zm0 0"/><path style="stroke:none;fill-rule:nonzero;fill:#e62323;fill-opacity:1" d="M38.754 52.48H48.96v4.516H38.754Zm0 0"/></svg>