<svg xmlns="http://www.w3.org/2000/svg" xmlns:xlink="http://www.w3.org/1999/xlink" width="64" height="64"><defs><linearGradient id="c" gradientUnits="userSpaceOnUse" x1="10.56" y1="7.77" x2="10.56" y2="19.24" gradientTransform="scale(3.55556)"><stop offset=".22" style="stop-color:#32d4f5;stop-opacity:1"/><stop offset="1" style="stop-color:#198ab3;stop-opacity:1"/></linearGradient><linearGradient id="f" gradientUnits="userSpaceOnUse" x1="10.23" y1="1.63" x2="11.07" y2="12.04" gradientTransform="scale(3.55556)"><stop offset=".22" style="stop-color:#32d4f5;stop-opacity:1"/><stop offset="1" style="stop-color:#198ab3;stop-opacity:1"/></linearGradient><clipPath id="b"><path d="M0 0h64v64H0z"/></clipPath><filter id="a" filterUnits="objectBoundingBox" x="0%" y="0%" width="100%" height="100%"><feColorMatrix in="SourceGraphic" values="0 0 0 0 1 0 0 0 0 1 0 0 0 0 1 0 0 0 1 0"/></filter><mask id="e"><g filter="url(#a)"><path style="fill:#000;fill-opacity:.8;stroke:none" d="M0 0h64v64H0z"/></g></mask><g id="d" clip-path="url(#b)"><path style="stroke:none;fill-rule:nonzero;fill:#fff;fill-opacity:1" d="M37.582 34.523a13.735 13.735 0 0 1-7.465-2.168l7.395 19.27 7.324-19.164a13.575 13.575 0 0 1-7.254 2.062Zm0 0"/></g></defs><path style="stroke:none;fill-rule:nonzero;fill:url(#c)" d="M57.707 61.05a4.3 4.3 0 0 0 4.371-4.16v-.71c-1.742-13.727-9.562-24.89-24.496-24.89s-23.039 9.456-24.57 24.89a4.408 4.408 0 0 0 3.914 4.832h40.781Zm0 0"/><use xlink:href="#d" mask="url(#e)"/><path style="stroke:none;fill-rule:nonzero;fill:url(#f)" d="M51.344 20.766c0 7.597-6.16 13.757-13.762 13.757-7.598 0-13.762-6.16-13.762-13.757 0-7.602 6.164-13.762 13.762-13.762 7.602 0 13.762 6.16 13.762 13.762Zm0 0"/><path style="stroke:none;fill-rule:nonzero;fill:#0078d4;fill-opacity:1" d="M21.332 20.906V3.555a.56.56 0 0 0-.152-.426.577.577 0 0 0-.414-.18H16.25a.62.62 0 0 0-.453.164.615.615 0 0 0-.188.442V20.3a.639.639 0 0 1-.605.605h-3.98a.425.425 0 0 1-.356-.426v-4.66a.395.395 0 0 0-.242-.375.385.385 0 0 0-.434.094l-7.894 7.82a.578.578 0 0 0-.192.426c0 .164.07.32.192.43L9.922 32c.066.207.289.316.496.25a.398.398 0 0 0 .25-.5v-4.691a.385.385 0 0 1 .355-.391h9.743a.604.604 0 0 0 .566-.605Zm0 0"/></svg>