<svg xmlns="http://www.w3.org/2000/svg" width="64" height="64"><defs><clipPath id="a"><path d="M1 12h31v40H1Zm0 0"/></clipPath><clipPath id="b"><path d="M3.98 12.195h56.04a1.99 1.99 0 0 1 1.988 1.992v35.59a1.99 1.99 0 0 1-1.988 1.993H3.98a1.99 1.99 0 0 1-1.988-1.993v-35.59a1.99 1.99 0 0 1 1.988-1.992Zm0 0"/></clipPath><clipPath id="c"><path d="M32 12h31v40H32Zm0 0"/></clipPath><clipPath id="d"><path d="M3.98 12.195h56.04a1.99 1.99 0 0 1 1.988 1.992v35.59a1.99 1.99 0 0 1-1.988 1.993H3.98a1.99 1.99 0 0 1-1.988-1.993v-35.59a1.99 1.99 0 0 1 1.988-1.992Zm0 0"/></clipPath><clipPath id="e"><path d="M1 32h61v20H1Zm0 0"/></clipPath><clipPath id="f"><path d="M3.98 12.195h56.04a1.99 1.99 0 0 1 1.988 1.992v35.59a1.99 1.99 0 0 1-1.988 1.993H3.98a1.99 1.99 0 0 1-1.988-1.993v-35.59a1.99 1.99 0 0 1 1.988-1.992Zm0 0"/></clipPath><clipPath id="h"><path d="M1 12h62v24H1Zm0 0"/></clipPath><clipPath id="i"><path d="M3.98 12.195h56.04a1.99 1.99 0 0 1 1.988 1.992v35.59a1.99 1.99 0 0 1-1.988 1.993H3.98a1.99 1.99 0 0 1-1.988-1.993v-35.59a1.99 1.99 0 0 1 1.988-1.992Zm0 0"/></clipPath><linearGradient id="g" gradientUnits="userSpaceOnUse" x1="9" y1="9.05" x2="9" y2="14.65" gradientTransform="scale(3.55556)"><stop offset="0" style="stop-color:#005ba1;stop-opacity:1"/><stop offset=".26" style="stop-color:#00589d;stop-opacity:1"/><stop offset=".53" style="stop-color:#004f90;stop-opacity:1"/><stop offset=".8" style="stop-color:#003f7c;stop-opacity:1"/><stop offset="1" style="stop-color:#003067;stop-opacity:1"/></linearGradient></defs><g clip-path="url(#a)"><g clip-path="url(#b)"><path style="stroke:none;fill-rule:nonzero;fill:#32bedd;fill-opacity:1" d="M1.992 12.23v39.86L32 32.18Zm0 0"/></g></g><g clip-path="url(#c)"><g clip-path="url(#d)"><path style="stroke:none;fill-rule:nonzero;fill:#198ab3;fill-opacity:1" d="M62.008 12.23 32 32.18l30.043 19.875c-.07-.785-.035-40.535-.035-39.825Zm0 0"/></g></g><g clip-path="url(#e)"><g clip-path="url(#f)"><path style="stroke:none;fill-rule:nonzero;fill:url(#g)" d="M31.895 32.18 1.992 52.055h59.98v-.035Zm0 0"/></g></g><g clip-path="url(#h)"><g clip-path="url(#i)"><path style="stroke:none;fill-rule:nonzero;fill:#50e6ff;fill-opacity:1" d="M1.992 12.23h60.016L32.32 35.555a1.026 1.026 0 0 1-1.246 0Zm0 0"/></g></g></svg>