<svg xmlns="http://www.w3.org/2000/svg" width="64" height="64"><defs><linearGradient id="a" gradientUnits="userSpaceOnUse" x1=".5" y1="9.99" x2="11.43" y2="9.99" gradientTransform="scale(3.55556)"><stop offset="0" style="stop-color:#005ba1;stop-opacity:1"/><stop offset=".07" style="stop-color:#0060a9;stop-opacity:1"/><stop offset=".36" style="stop-color:#0071c8;stop-opacity:1"/><stop offset=".52" style="stop-color:#0078d4;stop-opacity:1"/><stop offset=".64" style="stop-color:#0074cd;stop-opacity:1"/><stop offset=".82" style="stop-color:#006abb;stop-opacity:1"/><stop offset="1" style="stop-color:#005ba1;stop-opacity:1"/></linearGradient></defs><path style="stroke:none;fill-rule:nonzero;fill:#949494;fill-opacity:1" d="m56.89 17.031-2.597-1.281-7.855 16.145h-6.723v2.843h6.793l7.785 16 2.598-1.281-7.895-16.21Zm0 0"/><path style="stroke:none;fill-rule:nonzero;fill:#fff;fill-opacity:1" d="M55.574 21.832a5.15 5.15 0 0 1-2.883-.855 5.219 5.219 0 0 1-2.414-3.555 5.438 5.438 0 0 1 5.297-6.648 5.353 5.353 0 0 1 2.914.851 5.473 5.473 0 0 1 2.383 3.559 5.434 5.434 0 0 1-1.066 4.574 5.436 5.436 0 0 1-4.23 2.039Zm0 0"/><path style="stroke:none;fill-rule:nonzero;fill:#32bedd;fill-opacity:1" d="M55.574 12.16a4.24 4.24 0 0 1 2.274.676 4.162 4.162 0 0 1 1.851 2.629 4.232 4.232 0 0 1-.535 3.203 4.301 4.301 0 0 1-3.555 1.953 4.162 4.162 0 0 1-2.277-.64 4.259 4.259 0 0 1-1.883-2.665 4.279 4.279 0 0 1 .84-3.554 4.27 4.27 0 0 1 3.285-1.602m0-2.418a6.649 6.649 0 1 0 6.059 9.379 6.644 6.644 0 0 0-2.504-8.348 6.59 6.59 0 0 0-3.555-1.03Zm0 0"/><path style="stroke:none;fill-rule:nonzero;fill:#fff;fill-opacity:1" d="M55.574 55.54a5.15 5.15 0 0 1-2.883-.856 5.366 5.366 0 0 1-1.703-7.465 5.396 5.396 0 0 1 3.395-2.422 5.407 5.407 0 0 1 4.105.715 5.44 5.44 0 0 1-2.914 10.027Zm0 0"/><path style="stroke:none;fill-rule:nonzero;fill:#32bedd;fill-opacity:1" d="M55.574 45.867a4.24 4.24 0 0 1 2.274.676 4.152 4.152 0 0 1 1.851 2.629 4.235 4.235 0 0 1-.535 3.203 4.301 4.301 0 0 1-3.555 1.953 4.162 4.162 0 0 1-2.277-.64 4.259 4.259 0 0 1-1.883-2.665 4.272 4.272 0 0 1 .84-3.554 4.27 4.27 0 0 1 3.285-1.602m0-2.418a6.651 6.651 0 0 0-6.586 5.711 6.647 6.647 0 0 0 12.645 3.668 6.643 6.643 0 0 0-2.504-8.348 6.59 6.59 0 0 0-3.555-1.03Zm0 0"/><path style="stroke:none;fill-rule:nonzero;fill:url(#a)" d="M21.332 20.336c-10.664 0-19.555-3.164-19.555-7.04v37.407c0 3.875 8.57 7.11 19.164 7.11h.391c10.668 0 19.45-3.13 19.45-7.11V13.297c-.141 3.875-8.782 7.039-19.45 7.039Zm0 0"/><path style="stroke:none;fill-rule:nonzero;fill:#e8e8e8;fill-opacity:1" d="M40.64 13.297c0 3.875-8.71 7.113-19.449 7.113-10.738 0-19.414-3.238-19.414-7.113 0-3.875 8.891-7.04 19.555-7.04 10.668 0 19.45 3.13 19.45 7.11"/><path style="stroke:none;fill-rule:nonzero;fill:#50e6ff;fill-opacity:1" d="M36.09 12.73c0 2.454-6.649 4.442-14.899 4.442S6.293 15.184 6.293 12.73c0-2.453 6.684-4.48 15.039-4.48s14.898 1.988 14.898 4.48"/><path style="stroke:none;fill-rule:nonzero;fill:#198ab3;fill-opacity:1" d="M21.332 13.762a35.996 35.996 0 0 0-11.77 1.668 34.317 34.317 0 0 0 11.77 1.742c4.008.105 8-.485 11.805-1.742a35.983 35.983 0 0 0-11.805-1.668Zm0 0"/></svg>