<svg xmlns="http://www.w3.org/2000/svg" width="64" height="64"><defs><linearGradient id="a" gradientUnits="userSpaceOnUse" x1="9" y1="13.14" x2="9" y2=".39" gradientTransform="scale(3.55556)"><stop offset="0" style="stop-color:#0078d4;stop-opacity:1"/><stop offset=".82" style="stop-color:#5ea0ef;stop-opacity:1"/></linearGradient></defs><path style="stroke:none;fill-rule:nonzero;fill:url(#a)" d="M64 32.535a14.397 14.397 0 0 0-12.48-13.832c-.442-9.906-8.758-17.617-18.668-17.316a18.595 18.595 0 0 0-17.778 12.09C6.664 14.523.27 21.539 0 30.007c.367 9.595 8.434 17.075 18.027 16.712.52.039 1.043.039 1.563 0H48.78c.262.039.524.039.782 0 7.855-.055 14.246-6.336 14.437-14.184Zm0 0"/><path style="stroke:none;fill-rule:nonzero;fill:#50e6ff;fill-opacity:1" d="M33.672 29.582c-.156-9.273-7.777-16.68-17.05-16.566-9.278.109-16.72 7.691-16.653 16.968.062 9.274 7.61 16.754 16.883 16.735h16.82Zm0 0"/><path style="stroke:none;fill-rule:nonzero;fill:#0078d4;fill-opacity:1" d="m41.957 54.543-8 7.965a.363.363 0 0 1-.285.14.352.352 0 0 1-.285-.14l-7.965-7.965a.423.423 0 0 1-.078-.445.417.417 0 0 1 .363-.266h4.691a.4.4 0 0 0 .325-.148.407.407 0 0 0 .07-.352V43.023a.402.402 0 0 1 .137-.27.387.387 0 0 1 .289-.085h4.941a.39.39 0 0 1 .39.39v10.274a.4.4 0 0 0 .13.293c.078.074.187.11.297.098h4.695a.433.433 0 0 1 .285.82Zm0 0"/><path style="stroke:none;fill-rule:nonzero;fill:#fff;fill-opacity:1" d="m25.422 34.914 8.25-8.246 8.285 8.246c.117.113.152.29.09.438a.383.383 0 0 1-.375.238h-4.695a.428.428 0 0 0-.426.43v10.664h-5.758V36.02a.432.432 0 0 0-.395-.465h-4.691a.38.38 0 0 1-.34-.23.392.392 0 0 1 .055-.41Zm0 0"/></svg>