<svg xmlns="http://www.w3.org/2000/svg" width="64" height="64"><defs><linearGradient id="a" gradientUnits="userSpaceOnUse" x1="9" y1="15.83" x2="9" y2="5.79" gradientTransform="scale(3.55556)"><stop offset="0" style="stop-color:#32bedd;stop-opacity:1"/><stop offset=".18" style="stop-color:#32caea;stop-opacity:1"/><stop offset=".41" style="stop-color:#32d2f2;stop-opacity:1"/><stop offset=".78" style="stop-color:#32d4f5;stop-opacity:1"/></linearGradient></defs><path style="stroke:none;fill-rule:nonzero;fill:url(#a)" d="M1.777 20.586h60.446v33.707a2.026 2.026 0 0 1-2.028 2.027H3.805a2.026 2.026 0 0 1-2.028-2.027Zm0 0"/><path style="stroke:none;fill-rule:nonzero;fill:#198ab3;fill-opacity:1" d="M3.805 7.715h56.39c1.121 0 2.028.906 2.028 2.027v10.844H1.777V9.707a2.028 2.028 0 0 1 2.028-1.992Zm0 0"/><path style="stroke:none;fill-rule:nonzero;fill:#fff;fill-opacity:1" d="M9.992 24.496h43.946c.53 0 .96.43.96.961v4.98a.96.96 0 0 1-.96.958H9.992a.96.96 0 0 1-.926-.957v-4.981c0-.516.41-.941.926-.96Zm0 0"/><path style="stroke:none;fill-rule:nonzero;fill:#9cebff;fill-opacity:1" d="M10.027 34.418h43.946c.53 0 .96.43.96.96v5.013a.96.96 0 0 1-.96.96H10.027a.919.919 0 0 1-.668-.285.94.94 0 0 1-.257-.675v-4.836a.92.92 0 0 1 .183-.797.919.919 0 0 1 .742-.34ZM10.027 44.445h43.946c.53 0 .96.43.96.961v5.012a.96.96 0 0 1-.96.96H10.027a.919.919 0 0 1-.668-.284.94.94 0 0 1-.257-.676v-5.012a.95.95 0 0 1 .257-.68.93.93 0 0 1 .668-.28Zm0 0"/><path style="stroke:none;fill-rule:nonzero;fill:#0078d4;fill-opacity:1" d="M18.168 27.945V47.82c0 .551.445.996.996.996h8.356a.995.995 0 0 0 .925-.996v-11.8a.953.953 0 0 1 .996-.997h5.012a.956.956 0 0 1 .996.997v11.8a.992.992 0 0 0 1.031.996h8.356c.55 0 .996-.445.996-.996V27.945a.998.998 0 0 0-.996-.996H19.164c-.55 0-.996.45-.996.996Zm0 0"/></svg>