<svg xmlns="http://www.w3.org/2000/svg" width="64" height="64"><defs><linearGradient id="a" gradientUnits="userSpaceOnUse" x1="2.55" y1="10.17" x2="15.3" y2="10.17" gradientTransform="scale(3.55556) rotate(.15 11.51 38.182)"><stop offset="0" style="stop-color:#005ba1;stop-opacity:1"/><stop offset=".07" style="stop-color:#0060a9;stop-opacity:1"/><stop offset=".36" style="stop-color:#0071c8;stop-opacity:1"/><stop offset=".52" style="stop-color:#0078d4;stop-opacity:1"/><stop offset=".64" style="stop-color:#0074cd;stop-opacity:1"/><stop offset=".82" style="stop-color:#006abb;stop-opacity:1"/><stop offset="1" style="stop-color:#005ba1;stop-opacity:1"/></linearGradient></defs><path style="stroke:none;fill-rule:nonzero;fill:url(#a)" d="M32 18.277c-12.516 0-22.648-3.558-22.648-8.285v43.91c0 4.516 9.957 8.215 22.328 8.32H32c12.516 0 22.684-3.554 22.684-8.214v-43.91c.035 4.55-10.133 8.214-22.684 8.18Zm0 0"/><path style="stroke:none;fill-rule:nonzero;fill:#f2f2f2;fill-opacity:1" d="M54.719 10.098c0 4.55-10.168 8.214-22.684 8.18-12.515-.04-22.648-3.56-22.648-8.286 0-4.73 10.168-8.25 22.613-8.215 12.445.036 22.648 3.77 22.648 8.32"/><path style="stroke:none;fill-rule:nonzero;fill:#50e6ff;fill-opacity:1" d="M49.422 9.422c0 2.879-7.785 5.226-17.387 5.191-9.597-.035-17.351-2.383-17.351-5.297 0-2.918 7.789-5.226 17.316-5.191 9.527.035 17.387 2.383 17.352 5.297"/><path style="stroke:none;fill-rule:nonzero;fill:#198ab3;fill-opacity:1" d="M32 10.668c-4.676-.11-9.34.566-13.797 1.988A40.525 40.525 0 0 0 32 14.613c4.68.125 9.348-.562 13.797-2.027A42.89 42.89 0 0 0 32 10.668Zm0 0"/><path style="stroke:none;fill-rule:nonzero;fill:#fff;fill-opacity:1" d="m44.336 36.195-2.914-.925c-.176 0-.285 0-.356-.32l-.605-1.493a1.351 1.351 0 0 1 0-.531c.43-.926.855-1.852 1.352-2.739a.393.393 0 0 0 .124-.285c0-.109-.046-.21-.124-.285-.497-.496-.997-.926-1.458-1.457a.464.464 0 0 0-.78 0l-2.49 1.246h-.464l-1.457-.605a.5.5 0 0 1-.57-.356c-.356-.96-.711-1.922-.992-2.883a.394.394 0 0 0-.356-.316h-2.383c-.25 0-.285 0-.425.281a40.46 40.46 0 0 1-.961 2.918s0 .32-.32.356l-1.493.605a.797.797 0 0 1-.57 0L24.25 28.02a.39.39 0 0 0-.43 0c-.53.566-1.066 1.171-1.668 1.703a.285.285 0 0 0 0 .43c.461.886.887 1.812 1.387 2.699.086.18.086.39 0 .57l-.64 1.387a.497.497 0 0 1-.426.425c-.961.356-1.922.711-2.883.996-.246 0-.32.18-.32.391v2.488c0 .25 0 .356.285.43.996.281 1.957.676 2.918.957.187.043.328.2.355.395 0 .46.426.957.602 1.457a.662.662 0 0 1 0 .53c-.496.962-.922 1.923-1.387 2.884a.328.328 0 0 0 0 .39l1.777 1.743s0 .175.285 0l1.707-.891 1.247-.781h.496l1.496.605c.176 0 .246.176.316.356.356.957.711 1.988.996 2.949.047.18.207.312.39.32h2.349c.25 0 .32 0 .425-.285.32-.961.676-1.953.961-2.914a.54.54 0 0 1 .32-.356l1.528-.605a.539.539 0 0 1 .465 0l2.844 1.387c.125.093.3.093.425 0 .535-.57 1.102-1.172 1.707-1.707.606-.532.18-.25 0-.496a29.142 29.142 0 0 1-1.386-2.774.392.392 0 0 1 0-.535c.214-.496.425-.961.605-1.457a.46.46 0 0 1 .356-.356c.96-.355 1.957-.746 2.914-1.03.25 0 .285-.177.285-.427v-2.312c0-.746.035-.285-.215-.39Zm-8.39 5.407-.282.246a5.62 5.62 0 0 1-6.652.43l-.356-.25a5.737 5.737 0 0 1-2.238-3.555 5.437 5.437 0 0 1 1.637-5.016c.175-.176.175-.25 0-.426l-.465-.535H30.543v2.738l-.781-.746s0-.175-.356 0a3.983 3.983 0 0 0-.394 5.582c.175.207.379.387.605.535l.426.211c.59.399 1.285.606 1.992.606 1.403.066 2.711-.7 3.344-1.957a3.88 3.88 0 0 0-.676-4.621s-.355-.25-.39-.496c-.036-.25 0 0 0-.25a5.48 5.48 0 0 0 .636-.676c.5-.39.5-.39.856 0a5.797 5.797 0 0 1 .14 8.18Zm0 0"/></svg>