<svg xmlns="http://www.w3.org/2000/svg" width="64" height="64"><defs><linearGradient id="a" gradientUnits="userSpaceOnUse" x1="9" y1="17.99" x2="9" y2="-1.42" gradientTransform="scale(3.55556)"><stop offset="0" style="stop-color:#0078d4;stop-opacity:1"/><stop offset=".14" style="stop-color:#077bd6;stop-opacity:1"/><stop offset=".34" style="stop-color:#1a83db;stop-opacity:1"/><stop offset=".59" style="stop-color:#3990e4;stop-opacity:1"/><stop offset=".82" style="stop-color:#5ea0ef;stop-opacity:1"/></linearGradient><linearGradient id="b" gradientUnits="userSpaceOnUse" x1="7.97" y1="16.51" x2="7.97" y2="4.84" gradientTransform="scale(3.55556)"><stop offset="0" style="stop-color:#949494;stop-opacity:1"/><stop offset=".31" style="stop-color:#b9b9b9;stop-opacity:1"/><stop offset=".77" style="stop-color:#ececec;stop-opacity:1"/><stop offset="1" style="stop-color:#fff;stop-opacity:1"/></linearGradient></defs><path style="stroke:none;fill-rule:nonzero;fill:url(#a)" d="M64 36.445a14.434 14.434 0 0 0-12.48-13.832c-.442-9.902-8.758-17.617-18.668-17.316a18.668 18.668 0 0 0-17.778 12.125C6.648 18.41.227 25.437 0 33.922c.367 9.594 8.43 17.086 18.027 16.746h30.754c.262.02.524.02.782 0 7.859-.074 14.246-6.367 14.437-14.223Zm0 0"/><path style="stroke:none;fill-rule:nonzero;fill:url(#b)" d="M43.129 22.043h-23.36a.32.32 0 0 1-.265-.09.32.32 0 0 1-.09-.265v-4.125a.392.392 0 0 0-.64-.247l-7.11 7.11a.356.356 0 0 0 0 .5l7.11 7.11a.385.385 0 0 0 .406.054.391.391 0 0 0 .234-.34v-4.266c0-.195.16-.355.356-.355h3.554V56.89c0 1.02.828 1.847 1.848 1.847h17.777a1.85 1.85 0 0 0 1.852-1.847V23.895a1.854 1.854 0 0 0-1.672-1.852Zm0 0"/><path style="stroke:none;fill-rule:nonzero;fill:#003067;fill-opacity:1" d="M26.633 34.914a2.3 2.3 0 0 1 .676-1.668 2.3 2.3 0 0 1 1.668-.676h10.668a2.346 2.346 0 0 1 2.347 2.344 2.348 2.348 0 0 1-2.347 2.313H28.977a2.307 2.307 0 0 1-2.344-2.313ZM26.633 27.945a2.346 2.346 0 0 1 2.344-2.343h10.668a2.38 2.38 0 0 1 2.347 2.343 2.383 2.383 0 0 1-2.347 2.348H28.977a2.346 2.346 0 0 1-2.344-2.348Zm0 0"/><path style="stroke:none;fill-rule:nonzero;fill:#50e6ff;fill-opacity:1" d="M30.613 27.945a1.564 1.564 0 1 1-1.563-1.563c.864 0 1.563.7 1.563 1.563ZM30.613 34.914a1.564 1.564 0 1 1-1.563-1.563c.864 0 1.563.7 1.563 1.563Zm0 0"/><path style="stroke:none;fill-rule:nonzero;fill:#0078d4;fill-opacity:1" d="m35.129 48.32-7.11 7.11a.393.393 0 0 1-.41.058.385.385 0 0 1-.23-.34V50.95a.357.357 0 0 0-.356-.355h-3.699v-5.082h3.805a.322.322 0 0 0 .355-.356v-4.125a.403.403 0 0 1 .246-.316.401.401 0 0 1 .395.066l7.11 7.114a.352.352 0 0 1-.106.425Zm0 0"/></svg>