<svg xmlns="http://www.w3.org/2000/svg" width="64" height="64"><defs><linearGradient id="a" gradientUnits="userSpaceOnUse" x1="9.59" y1="17.96" x2="9.59" y2="-.17" gradientTransform="scale(3.55556)"><stop offset="0" style="stop-color:#0078d4;stop-opacity:1"/><stop offset=".82" style="stop-color:#5ea0ef;stop-opacity:1"/></linearGradient></defs><path style="stroke:none;fill-rule:nonzero;fill:url(#a)" d="M64 38.152a13.4 13.4 0 0 0-11.664-12.906c-.383-9.262-8.156-16.48-17.422-16.18a17.388 17.388 0 0 0-16.676 11.309c-7.851.95-13.816 7.52-14.008 15.43.348 8.949 7.868 15.93 16.82 15.61h29.473c7.344-.04 13.325-5.923 13.477-13.263Zm0 0"/><path style="stroke:none;fill-rule:evenodd;fill:#50e6ff;fill-opacity:1" d="M0 41.457a13.354 13.354 0 0 1 3.914-9.594 13.389 13.389 0 0 1 9.598-3.918 13.424 13.424 0 0 1 9.586 3.926 13.424 13.424 0 0 1 3.925 9.586v13.477H13.512a13.37 13.37 0 0 1-9.586-3.903A13.384 13.384 0 0 1 0 41.457Zm0 0"/><path style="stroke:none;fill-rule:nonzero;fill:#fff;fill-opacity:1" d="M21.938 42.348v-1.993l-2.028-.71-.496-1.352.996-2.098v-.215l-.64-.636-.747-.856h-.285l-1.992 1.067-1.351-.39-.887-2.24H12.55l-.676 2.024-1.492.606-2.313-1.102-1.386 1.387v.25l1.03 1.988-.605 1.496-2.379.887v1.992h.282l2.097.711.57 1.352-1.066 2.312L8 48.25h.285l1.953-.996 1.387.566.855 2.383h1.993v-.281l.675-2.137 1.348-.566 2.348 1.101 1.386-1.386v-.286l-.996-1.992.391-1.386Zm-8.356 1.847a2.807 2.807 0 0 1-2.492-2.789c0-1.43 1.07-2.633 2.492-2.793a2.771 2.771 0 0 1 2.809 2.774 2.755 2.755 0 0 1-.813 1.996 2.748 2.748 0 0 1-1.996.812Zm0 0"/></svg>