<svg xmlns="http://www.w3.org/2000/svg" width="64" height="64"><defs><linearGradient id="a" gradientUnits="userSpaceOnUse" x1="9" y1="17.4" x2="9" y2=".4" gradientTransform="scale(3.55556)"><stop offset="0" style="stop-color:#0078d4;stop-opacity:1"/><stop offset=".82" style="stop-color:#5ea0ef;stop-opacity:1"/></linearGradient></defs><path style="stroke:none;fill-rule:nonzero;fill:url(#a)" d="M49.777 17.066c-.402-9-7.992-15.984-16.996-15.644a16.822 16.822 0 0 0-16.07 10.953A15.499 15.499 0 0 0 3.094 27.27c.347 8.66 7.625 15.414 16.285 15.113h10.418v9.351c0 .254-.207.461-.465.461h-5.227a.462.462 0 0 0-.32.782l8.785 8.785a.676.676 0 0 0 .922 0l8.785-8.785a.462.462 0 0 0-.32-.781h-5.266a.435.435 0 0 1-.312-.137.437.437 0 0 1-.113-.325v-9.422h10.882c.235.036.473.036.711 0 7.04-.035 12.801-5.62 13.047-12.66a12.975 12.975 0 0 0-11.129-12.586Zm0 0"/><path style="stroke:none;fill-rule:nonzero;fill:#fff;fill-opacity:1" d="m17.316 29.086 8.782-8.75a.615.615 0 0 1 .46-.215c.18 0 .348.082.465.215l8.782 8.75a.464.464 0 0 1-.25.781h-5.297a.462.462 0 0 0-.461.461v11.985h-6.438V30.328a.462.462 0 0 0-.46-.46h-5.122a.464.464 0 0 1-.554-.2.46.46 0 0 1 .093-.582Zm0 0"/></svg>