<svg xmlns="http://www.w3.org/2000/svg" width="64" height="64"><defs><linearGradient id="a" gradientUnits="userSpaceOnUse" x1="6.01" y1="17.69" x2="6.01" y2=".26" gradientTransform="scale(3.55556)"><stop offset="0" style="stop-color:#949494;stop-opacity:1"/><stop offset=".53" style="stop-color:#a2a2a2;stop-opacity:1"/><stop offset="1" style="stop-color:#b3b3b3;stop-opacity:1"/></linearGradient><linearGradient id="b" gradientUnits="userSpaceOnUse" x1="10.55" y1="853.33" x2="15" y2="858.17" gradientTransform="matrix(3.55556 0 0 5.65333 0 -4805.191)"><stop offset="0" style="stop-color:#0078d4;stop-opacity:1"/><stop offset=".02" style="stop-color:#0d7ed8;stop-opacity:1"/><stop offset=".08" style="stop-color:#2b8ae0;stop-opacity:1"/><stop offset=".15" style="stop-color:#4194e7;stop-opacity:1"/><stop offset=".22" style="stop-color:#519beb;stop-opacity:1"/><stop offset=".29" style="stop-color:#5b9fee;stop-opacity:1"/><stop offset=".4" style="stop-color:#5ea0ef;stop-opacity:1"/><stop offset=".55" style="stop-color:#5b9fee;stop-opacity:1"/><stop offset=".68" style="stop-color:#509aeb;stop-opacity:1"/><stop offset=".8" style="stop-color:#3f92e6;stop-opacity:1"/><stop offset=".91" style="stop-color:#2688df;stop-opacity:1"/><stop offset=".99" style="stop-color:#127fd9;stop-opacity:1"/></linearGradient></defs><path style="stroke:none;fill-rule:nonzero;fill:url(#a)" d="M39.574 60.8a2.137 2.137 0 0 1-2.097 2.098H5.262a2.1 2.1 0 0 1-2.098-2.097V3.023A2.064 2.064 0 0 1 5.262.926h32.215c1.156 0 2.097.937 2.097 2.097Zm0 0"/><path style="stroke:none;fill-rule:nonzero;fill:#003067;fill-opacity:1" d="M8.496 22.648a3.983 3.983 0 0 1 3.984-3.945h18.098a3.944 3.944 0 0 1 3.945 3.945 3.95 3.95 0 0 1-3.945 3.984H12.48a3.986 3.986 0 0 1-3.984-3.984ZM8.496 10.914A3.95 3.95 0 0 1 12.48 7.11h18.098a3.913 3.913 0 0 1 3.945 3.805c0 2.18-1.765 3.95-3.945 3.95H12.48a3.984 3.984 0 0 1-3.984-3.95Zm0 0"/><path style="stroke:none;fill-rule:nonzero;fill:#50e6ff;fill-opacity:1" d="M15.29 10.914a2.666 2.666 0 1 1-5.333.005 2.666 2.666 0 0 1 5.332-.005ZM15.29 22.648a2.666 2.666 0 1 1-5.332 0 2.666 2.666 0 1 1 5.331 0Zm0 0"/><path style="stroke:none;fill-rule:nonzero;fill:#76bc2d;fill-opacity:1" d="M60.836 53.012c0-3.614-7.148-6.54-15.965-6.54-8.816 0-15.965 2.926-15.965 6.54 0 3.613 7.149 6.543 15.965 6.543 8.816 0 15.965-2.93 15.965-6.543Zm0 0"/><path style="stroke:none;fill-rule:nonzero;fill:#5e9624;fill-opacity:1" d="M50.559 52.941c0-.804-2.371-1.457-5.297-1.457-2.926 0-5.297.653-5.297 1.457 0 .805 2.37 1.457 5.297 1.457 2.925 0 5.297-.652 5.297-1.457Zm0 0"/><path style="stroke:none;fill-rule:nonzero;fill:url(#b)" d="M60.836 38.473c0-3.614-7.148-6.543-15.965-6.543-8.816 0-15.965 2.93-15.965 6.543s7.149 6.539 15.965 6.539c8.816 0 15.965-2.926 15.965-6.54Zm0 0"/><path style="stroke:none;fill-rule:nonzero;fill:#005ba1;fill-opacity:1" d="M50.559 38.398c0-.804-2.371-1.457-5.297-1.457-2.926 0-5.297.653-5.297 1.457 0 .809 2.37 1.461 5.297 1.461 2.925 0 5.297-.652 5.297-1.46Zm0 0"/><path style="stroke:none;fill-rule:nonzero;fill:#5e9624;fill-opacity:1" d="M44.871 59.45c8.816 0 15.965-2.954 15.965-6.579v4.02c-.32 3.554-7.324 6.328-15.965 6.328-8.64 0-15.965-2.918-15.965-6.543V53.12c0 3.375 7.149 6.328 15.965 6.328Zm0 0"/><path style="stroke:none;fill-rule:nonzero;fill:#0078d4;fill-opacity:1" d="M44.871 44.871c8.816 0 15.965-2.914 15.965-6.543v3.875c-.32 3.559-7.324 6.332-15.965 6.332-8.64 0-15.965-2.953-15.965-6.578v-3.559c0 3.559 7.149 6.473 15.965 6.473Zm0 0"/></svg>