<svg xmlns="http://www.w3.org/2000/svg" width="64" height="64"><defs><linearGradient id="a" gradientUnits="userSpaceOnUse" x1="6.49" y1="17.38" x2="6.49" y2=".44" gradientTransform="scale(3.55556)"><stop offset="0" style="stop-color:#949494;stop-opacity:1"/><stop offset=".53" style="stop-color:#a2a2a2;stop-opacity:1"/><stop offset="1" style="stop-color:#b3b3b3;stop-opacity:1"/></linearGradient><linearGradient id="b" gradientUnits="userSpaceOnUse" x1="10.06" y1="13.89" x2="16.48" y2="13.89" gradientTransform="scale(3.55556)"><stop offset="0" style="stop-color:#005ba1;stop-opacity:1"/><stop offset=".07" style="stop-color:#0060a9;stop-opacity:1"/><stop offset=".36" style="stop-color:#0071c8;stop-opacity:1"/><stop offset=".52" style="stop-color:#0078d4;stop-opacity:1"/><stop offset=".64" style="stop-color:#0074cd;stop-opacity:1"/><stop offset=".82" style="stop-color:#006abb;stop-opacity:1"/><stop offset="1" style="stop-color:#005ba1;stop-opacity:1"/></linearGradient></defs><path style="stroke:none;fill-rule:nonzero;fill:#198ab3;fill-opacity:1" d="M39.11 34.027a23.815 23.815 0 0 0-7.926 1.137 23.533 23.533 0 0 0 7.925 1.172c2.692.07 5.375-.324 7.93-1.172a23.526 23.526 0 0 0-7.93-1.137Zm0 0"/><path style="stroke:none;fill-rule:nonzero;fill:url(#a)" d="M40.781 59.77a2.03 2.03 0 0 1-2.063 2.027H7.43a1.997 1.997 0 0 1-2.024-2.027V3.555A2.025 2.025 0 0 1 7.43 1.562h31.289c1.125 0 2.043.903 2.062 2.028Zm0 0"/><path style="stroke:none;fill-rule:nonzero;fill:#003067;fill-opacity:1" d="M10.668 22.684a3.84 3.84 0 0 1 3.77-3.84H32a3.84 3.84 0 0 1 3.84 3.84 3.835 3.835 0 0 1-1.113 2.738A3.824 3.824 0 0 1 32 26.559H14.437a3.837 3.837 0 0 1-3.769-3.875ZM10.668 11.27c0-2.09 1.676-3.801 3.77-3.84H32a3.84 3.84 0 1 1 0 7.68H14.437a3.837 3.837 0 0 1-3.769-3.84Zm0 0"/><path style="stroke:none;fill-rule:nonzero;fill:#50e6ff;fill-opacity:1" d="M17.207 11.27a2.596 2.596 0 0 1-2.594 2.597 2.596 2.596 0 0 1 0-5.191 2.592 2.592 0 0 1 2.594 2.594ZM17.207 22.684a2.596 2.596 0 0 1-2.594 2.597 2.596 2.596 0 0 1 0-5.191 2.592 2.592 0 0 1 2.594 2.594Zm0 0"/><path style="stroke:none;fill-rule:nonzero;fill:url(#b)" d="M47.184 40.46c-6.293 0-11.414-1.882-11.414-4.16v22.013c0 2.238 5.046 4.085 11.27 4.124 6.327 0 11.413-1.851 11.413-4.124V36.3c.14 2.277-4.941 4.16-11.27 4.16Zm0 0"/><path style="stroke:none;fill-rule:nonzero;fill:#e6e6e6;fill-opacity:1" d="M58.594 36.3c0 2.278-5.082 4.16-11.41 4.16-6.332 0-11.414-1.882-11.414-4.16 0-2.273 5.12-4.12 11.414-4.12 6.293 0 11.41 1.847 11.41 4.12"/><path style="stroke:none;fill-rule:nonzero;fill:#50e6ff;fill-opacity:1" d="M55.93 35.98c0 1.461-3.91 2.633-8.746 2.633s-8.746-1.172-8.746-2.633c0-1.457 3.91-2.628 8.746-2.628s8.746 1.171 8.746 2.628M48.64 30.793l7.575-7.574a.396.396 0 0 0 .09-.438.383.383 0 0 0-.375-.238h-4.41c0-9.137-4.872-18.242-13.653-18.242a23.751 23.751 0 0 1 7.11 18.242H40.78a.383.383 0 0 0-.375.238.396.396 0 0 0 .09.438l7.574 7.574a.43.43 0 0 0 .57 0Zm0 0"/></svg>