<svg xmlns="http://www.w3.org/2000/svg" width="64" height="64"><defs><linearGradient id="a" gradientUnits="userSpaceOnUse" x1="8.637" y1="-1.991" x2="8.637" y2="16.739" gradientTransform="scale(3.55556)"><stop offset="0" style="stop-color:#5ea0ef;stop-opacity:1"/><stop offset="1" style="stop-color:#0078d4;stop-opacity:1"/></linearGradient><linearGradient id="b" gradientUnits="userSpaceOnUse" x1="12.96" y1="8.561" x2="12.96" y2="6.141" gradientTransform="matrix(3.55556 0 0 -3.55556 0 71.111)"><stop offset="0" style="stop-color:#333132;stop-opacity:1"/><stop offset="1" style="stop-color:#5b5a5c;stop-opacity:1"/></linearGradient></defs><path style="stroke:none;fill-rule:nonzero;fill:url(#a)" d="m26.418 29.078 9.207-5.594 25.793 9.711a13.02 13.02 0 0 0-3.711-6.562l-.035-.18a14.901 14.901 0 0 0-7.895-3.98c-.402-9.618-8.515-17.094-18.132-16.711a18.025 18.025 0 0 0-17.207 11.695C6.335 18.445.188 25.23 0 33.387c.367 9.25 8.137 16.46 17.387 16.14h9.031Zm0 0"/><path style="stroke:none;fill-rule:nonzero;fill:#767676;fill-opacity:1" d="m35.805 25.453.035 15.219 28.125 5.973V36.05Zm0 0"/><path style="stroke:none;fill-rule:nonzero;fill:#999;fill-opacity:1" d="m35.805 25.453-7.61 4.625v14.149l7.645-3.555"/><path style="stroke:none;fill-rule:nonzero;fill:#a3a3a3;fill-opacity:1" d="m48.64 40.887 2.56.71v-8.285l-2.56-.89ZM46.078 31.605l-2.558-.925v8.855l2.558.711ZM53.762 42.273l2.488.676.07-7.894-2.558-.856ZM38.438 38.219l2.558.64v-8.996l-2.559-.851ZM61.406 36.797l-2.562-.89v7.718l2.562.71Zm0 0"/><path style="stroke:none;fill-rule:nonzero;fill:#b3b3b3;fill-opacity:1" d="m30.793 40.422-1.281.746V31.109l1.281-.675Zm2.523-11.45L32 29.829v9.777l1.316-.71Zm0 0"/><path style="stroke:none;fill-rule:nonzero;fill:url(#b)" d="m63.965 46.645-7.68 2.632-28.09-5.05 7.645-3.555Zm0 0"/><path style="stroke:none;fill-rule:nonzero;fill:#767676;fill-opacity:1" d="M63.965 57.488 35.699 62.86l.14-19.875 28.126 5.227Zm0 0"/><path style="stroke:none;fill-rule:nonzero;fill:#a3a3a3;fill-opacity:1" d="M38.438 59.586V46.965l2.558.32V59.16ZM46.078 58.309l-2.558.46V47.606l2.558.391ZM48.64 57.918v-9.672l2.56.32v8.887ZM56.285 56.566l-2.523.461v-8.14l2.523.39ZM61.477 55.746l-2.633.465v-6.688l2.453.32Zm0 0"/><path style="stroke:none;fill-rule:nonzero;fill:#999;fill-opacity:1" d="M28.195 58.313V46.718l7.68-3.555v19.91Zm0 0"/><path style="stroke:none;fill-rule:nonzero;fill:#b3b3b3;fill-opacity:1" d="m30.613 58.273-1.136-.57v-9.812l1.136-.536Zm2.739-12.27L32 46.68v12.375l1.316.675V46.004Zm0 0"/></svg>