<svg xmlns="http://www.w3.org/2000/svg" xmlns:xlink="http://www.w3.org/1999/xlink" width="64" height="64"><defs><clipPath id="b"><path d="M0 0h64v64H0z"/></clipPath><clipPath id="c"><path d="M0 0h64v64H0z"/></clipPath><mask id="f"><g filter="url(#a)"><path style="fill:#000;fill-opacity:.74902;stroke:none" d="M0 0h64v64H0z"/></g></mask><mask id="h"><g filter="url(#a)"><path style="fill:#000;fill-opacity:.74902;stroke:none" d="M0 0h64v64H0z"/></g></mask><g id="e" clip-path="url(#b)"><path style="stroke:none;fill-rule:nonzero;fill:#b77af4;fill-opacity:1" d="M24.605 38.828v20.656l5.582.891V37.867Zm0 0"/></g><g id="g" clip-path="url(#c)"><path style="stroke:none;fill-rule:nonzero;fill:#b77af4;fill-opacity:1" d="M17.707 39.965v18.062l4.871.996V39.148Zm0 0"/></g><linearGradient id="d" gradientUnits="userSpaceOnUse" x1="9" y1="11.95" x2="9" y2="0" gradientTransform="scale(3.55556)"><stop offset="0" style="stop-color:#0078d4;stop-opacity:1"/><stop offset=".16" style="stop-color:#1380da;stop-opacity:1"/><stop offset=".53" style="stop-color:#3c91e5;stop-opacity:1"/><stop offset=".82" style="stop-color:#559cec;stop-opacity:1"/><stop offset="1" style="stop-color:#5ea0ef;stop-opacity:1"/></linearGradient><filter id="a" filterUnits="objectBoundingBox" x="0%" y="0%" width="100%" height="100%"><feColorMatrix in="SourceGraphic" values="0 0 0 0 1 0 0 0 0 1 0 0 0 0 1 0 0 0 1 0"/></filter></defs><path style="stroke:none;fill-rule:nonzero;fill:url(#d)" d="M61.973 29.191A13.437 13.437 0 0 0 50.277 16.25C49.891 6.95 42.082-.3 32.781 0a17.463 17.463 0 0 0-16.64 11.344c-7.918.91-13.973 7.496-14.22 15.465a16.356 16.356 0 0 0 16.992 15.86l29.548-.001c7.418-.078 13.418-6.063 13.512-13.477Zm0 0"/><path style="stroke:none;fill-rule:nonzero;fill:#f2f2f2;fill-opacity:1" d="M22.613 22.969 32 13.762a1.063 1.063 0 0 1 1.527 0l9.141 9.207c.16.129.215.355.133.543a.46.46 0 0 1-.489.273h-5.761a.534.534 0 0 0-.496.5v11.52c0 .215-.176.39-.39.39h-6.188a.39.39 0 0 1-.391-.39v-11.52a.503.503 0 0 0-.465-.5h-5.687a.462.462 0 0 1-.32-.816Zm0 0"/><path style="stroke:none;fill-rule:nonzero;fill:#a67af4;fill-opacity:1" d="M49.777 40.426a.459.459 0 0 0-.32-.461L32.57 34.312H32V64h.46l16.747-6.684c.137.032.277 0 .387-.082a.46.46 0 0 0 .183-.343Zm0 0"/><path style="stroke:none;fill-rule:nonzero;fill:#552f99;fill-opacity:1" d="m32 34.418-16.035 2.95a.496.496 0 0 0-.426.464V59.98a.535.535 0 0 0 .39.5L32 64c.14.031.285 0 .398-.09.11-.09.176-.23.172-.37V35.093a.5.5 0 0 0-.57-.676Zm0 0"/><use xlink:href="#e" mask="url(#f)"/><use xlink:href="#g" mask="url(#h)"/></svg>