<svg xmlns="http://www.w3.org/2000/svg" width="64" height="64"><defs><linearGradient id="a" gradientUnits="userSpaceOnUse" x1="13.01" y1="5.83" x2="12.78" y2="19.82" gradientTransform="scale(3.55556)"><stop offset="0" style="stop-color:#9cebff;stop-opacity:1"/><stop offset="1" style="stop-color:#50e6ff;stop-opacity:1"/></linearGradient></defs><path style="stroke:none;fill-rule:nonzero;fill:#0078d4;fill-opacity:1" d="M46.578.926h-24.89c-.883 0-1.598.715-1.598 1.597v36.27a31.226 31.226 0 0 1 4.015-2.953h4.73l2.63 3.555v5.476l-3.305 4.41-4.55-.605-3.555-1.387v.961c-.012.43.152.844.453 1.152.3.309.715.48 1.144.48h24.891c.43 0 .844-.171 1.145-.48.3-.308.464-.722.453-1.152V2.523c0-.867-.692-1.578-1.563-1.597Zm0 0"/><path style="stroke:none;fill-rule:nonzero;fill:#f2f2f2;fill-opacity:1" d="M23.82 7.36h4.625a.405.405 0 0 1 .301.1c.078.075.125.18.125.29v6.047a.427.427 0 0 1-.426.426H23.82a.39.39 0 0 1-.289-.13.39.39 0 0 1-.101-.296V7.75c0-.215.175-.39.39-.39Zm8.18 0h4.586c.215 0 .39.175.39.39v6.047a.376.376 0 0 1-.101.297.39.39 0 0 1-.29.129H32a.39.39 0 0 1-.29-.13.376.376 0 0 1-.1-.296V7.75c0-.215.175-.39.39-.39Zm8.07 0h4.551a.39.39 0 0 1 .39.39v6.047a.373.373 0 0 1-.097.297.406.406 0 0 1-.293.129H39.93a.424.424 0 0 1-.426-.426V7.75a.374.374 0 0 1 .125-.29.405.405 0 0 1 .3-.1ZM23.82 18.347h4.625a.39.39 0 0 1 .426.39v6.153a.389.389 0 0 1-.426.316H23.82a.39.39 0 0 1-.39-.316v-6.153c0-.215.175-.39.39-.39Zm8.18 0h4.586c.215 0 .39.175.39.39v6.153c0 .214-.175.39-.39.39H32a.392.392 0 0 1-.375-.05.388.388 0 0 1-.16-.34v-6.153a.391.391 0 0 1 .535-.39Zm8.07 0h4.551a.39.39 0 0 1 .39.39v6.153a.39.39 0 0 1-.39.39H39.93a.405.405 0 0 1-.301-.101.374.374 0 0 1-.125-.29v-6.152a.39.39 0 0 1 .426-.39Zm0 0"/><path style="stroke:none;fill-rule:nonzero;fill:#50e6ff;fill-opacity:1" d="M25.316 39.29a3.55 3.55 0 0 0-3.554 2.702H8.996c-.125.621-.2 1.25-.215 1.883v.18h12.98a3.557 3.557 0 0 0 6.887-1.488 3.557 3.557 0 0 0-3.332-3.278Zm0 0"/><path style="stroke:none;fill-rule:nonzero;fill:#32bedd;fill-opacity:1" d="M35.129 37.688a9.39 9.39 0 0 0-9.527-9.067 9.5 9.5 0 0 0-9.106 6.328 9.14 9.14 0 0 0-7.11 5.832h11.59a4.88 4.88 0 0 1 4.34-2.703 5.016 5.016 0 0 1 1.707 9.797 5.017 5.017 0 0 1-6.046-2.684H8.997a9.062 9.062 0 0 0 8.995 7.11h16.14a7.285 7.285 0 0 0 7.665-6.778 7.284 7.284 0 0 0-6.668-7.761Zm0 0"/><path style="stroke:none;fill-rule:nonzero;fill:#50e6ff;fill-opacity:1" d="M25.316 39.29a3.55 3.55 0 0 0-3.554 2.702H8.996a6.8 6.8 0 0 1-1.316-.18 6.543 6.543 0 0 1 .71-12.906h.606l.211-.605a7.12 7.12 0 0 1 7.113-4.836 7.41 7.41 0 0 1 6.473 3.558c.687-.144 1.39-.214 2.098-.214a9.464 9.464 0 0 0-8.711-5.477 9.348 9.348 0 0 0-8.676 5.656 8.605 8.605 0 0 0-.75 16.746 5.357 5.357 0 0 0 2.098.356h12.91a3.557 3.557 0 0 0 6.887-1.488 3.557 3.557 0 0 0-3.333-3.278Zm0 0"/><path style="stroke:none;fill-rule:nonzero;fill:url(#a)" d="m28.445 40.14 16-16a1.926 1.926 0 0 1 2.703 0l15.961 16a.855.855 0 0 1-.601 1.462h-9.672a.852.852 0 0 0-.856.851v19.945c0 .375-.3.676-.671.676H40.64a.641.641 0 0 1-.676-.676V42.453a.852.852 0 0 0-.856-.851h-9.918a.854.854 0 0 1-.746-1.461Zm0 0"/></svg>