<svg xmlns="http://www.w3.org/2000/svg" width="64" height="64"><defs><linearGradient id="a" gradientUnits="userSpaceOnUse" x1="12.3" y1=".49" x2="12.3" y2="17.33" gradientTransform="scale(3.55556)"><stop offset="0" style="stop-color:#5ea0ef;stop-opacity:1"/><stop offset=".18" style="stop-color:#559cec;stop-opacity:1"/><stop offset=".47" style="stop-color:#3c91e5;stop-opacity:1"/><stop offset=".84" style="stop-color:#1380da;stop-opacity:1"/><stop offset="1" style="stop-color:#0078d4;stop-opacity:1"/></linearGradient><linearGradient id="b" gradientUnits="userSpaceOnUse" x1="9.48" y1="17.51" x2="9.48" y2="9.35" gradientTransform="scale(3.55556)"><stop offset="0" style="stop-color:#198ab3;stop-opacity:1"/><stop offset="0" style="stop-color:#198ab3;stop-opacity:1"/><stop offset=".14" style="stop-color:#22a5cb;stop-opacity:1"/><stop offset=".3" style="stop-color:#29bade;stop-opacity:1"/><stop offset=".47" style="stop-color:#2ec9eb;stop-opacity:1"/><stop offset=".68" style="stop-color:#31d1f3;stop-opacity:1"/><stop offset="1" style="stop-color:#32d4f5;stop-opacity:1"/></linearGradient></defs><path style="stroke:none;fill-rule:nonzero;fill:url(#a)" d="M59.309 1.742H28.16a2.028 2.028 0 0 0-2.027 1.992v44.371a37.302 37.302 0 0 1 5.05-3.554h5.903l3.27 4.34v6.574l-4.126 2.988-5.722-.71-4.375-4.126v6.008a2.028 2.028 0 0 0 2.027 1.992H59.31a1.99 1.99 0 0 0 1.988-1.992V3.735a1.99 1.99 0 0 0-1.988-1.993Zm0 0"/><path style="stroke:none;fill-rule:nonzero;fill:#f2f2f2;fill-opacity:1" d="M30.793 7.965h5.723c.273 0 .496.223.496.496v7.398a.497.497 0 0 1-.496.496h-5.723a.498.498 0 0 1-.5-.496V8.461c0-.274.223-.496.5-.496Zm10.059 0h5.726c.274 0 .496.223.496.496v7.398a.497.497 0 0 1-.496.496h-5.726a.497.497 0 0 1-.497-.496V8.461c0-.274.223-.496.497-.496Zm10.097 0h5.727c.273 0 .496.223.496.496v7.398a.497.497 0 0 1-.496.496h-5.727a.497.497 0 0 1-.496-.496V8.461c0-.274.223-.496.496-.496ZM30.793 21.332h5.723c.273 0 .496.223.496.5v7.465c0 .277-.223.5-.496.5h-5.723a.498.498 0 0 1-.5-.5v-7.395a.507.507 0 0 1 .117-.398.51.51 0 0 1 .383-.172Zm10.059 0h5.726c.274 0 .496.223.496.5v7.465c0 .277-.222.5-.496.5h-5.726a.498.498 0 0 1-.497-.5v-7.395a.507.507 0 0 1 .118-.398.507.507 0 0 1 .379-.172Zm10.097 0h5.727c.273 0 .496.223.496.5v7.465c0 .277-.223.5-.496.5h-5.727a.498.498 0 0 1-.496-.5v-7.395a.507.507 0 0 1 .117-.398.507.507 0 0 1 .38-.172ZM30.793 34.844h5.723c.273 0 .496.222.496.5v7.324a.497.497 0 0 1-.496.496h-5.723a.498.498 0 0 1-.5-.496v-7.324c0-.278.223-.5.5-.5Zm10.059 0h5.726c.274 0 .496.222.496.5v7.324a.497.497 0 0 1-.496.496h-5.726a.497.497 0 0 1-.497-.496v-7.324c0-.278.223-.5.497-.5Zm0 13.441h5.726c.274 0 .496.223.496.496v10.953a.497.497 0 0 1-.496.496h-5.726a.497.497 0 0 1-.497-.496V48.781c0-.273.223-.496.497-.496Zm10.097-13.441h5.727c.273 0 .496.222.496.5v7.324a.497.497 0 0 1-.496.496h-5.727a.497.497 0 0 1-.496-.496v-7.324c0-.278.223-.5.496-.5Zm0 0"/><path style="stroke:none;fill-rule:nonzero;fill:#50e6ff;fill-opacity:1" d="M33.777 46.223a4.624 4.624 0 0 0-4.41 3.554h-16a10.017 10.017 0 0 0-.281 2.313v.21h16.281a4.588 4.588 0 0 0 8.903-1.948 4.588 4.588 0 0 0-4.493-4.13Zm0 0"/><path style="stroke:none;fill-rule:nonzero;fill:url(#b)" d="M46.223 44.3c-.29-6.39-5.7-11.335-12.09-11.054a11.876 11.876 0 0 0-11.38 7.75 11.31 11.31 0 0 0-9.03 7.11h14.722a6.113 6.113 0 0 1 7.367-3.153 6.115 6.115 0 0 1-2.035 11.938 6.158 6.158 0 0 1-5.441-3.559H13.332a11.378 11.378 0 0 0 11.309 8.605h20.195a9.349 9.349 0 0 0 9.242-8.605 9.243 9.243 0 0 0-7.855-9.031Zm0 0"/><path style="stroke:none;fill-rule:nonzero;fill:#50e6ff;fill-opacity:1" d="M33.777 46.223a4.624 4.624 0 0 0-4.41 3.554h-16a7.744 7.744 0 0 1-1.668-.215 8.249 8.249 0 0 1-6.472-7.785 8.282 8.282 0 0 1 7.359-8.14h.781l.25-.711a9.104 9.104 0 0 1 8.746-6.082 9.4 9.4 0 0 1 8.11 4.515 10.928 10.928 0 0 1 2.664-.32 11.806 11.806 0 0 0-10.664-6.719 11.66 11.66 0 0 0-10.989 6.934 10.663 10.663 0 0 0-8.78 10.383 10.668 10.668 0 0 0 7.964 10.097c.828.301 1.71.446 2.594.426h16.105a4.584 4.584 0 0 0 5.285 3.145 4.581 4.581 0 0 0 3.664-4.934 4.584 4.584 0 0 0-4.539-4.148Zm0 0"/></svg>