<svg xmlns="http://www.w3.org/2000/svg" width="64" height="64"><defs><linearGradient id="a" gradientUnits="userSpaceOnUse" x1="13.41" y1="14.43" x2="7" y2="3.72" gradientTransform="scale(3.55556)"><stop offset="0" style="stop-color:#0078d4;stop-opacity:1"/><stop offset=".16" style="stop-color:#1380da;stop-opacity:1"/><stop offset=".53" style="stop-color:#3c91e5;stop-opacity:1"/><stop offset=".82" style="stop-color:#559cec;stop-opacity:1"/><stop offset="1" style="stop-color:#5ea0ef;stop-opacity:1"/></linearGradient></defs><path style="stroke:none;fill-rule:nonzero;fill:url(#a)" d="m61.617 10.988-8.285-8.11a2.164 2.164 0 0 0-1.492-.6l-15.004.566a1.893 1.893 0 0 0-1.281.71L2.383 36.337c-.39.371-.613.887-.613 1.426 0 .535.222 1.05.613 1.422L24.426 61.12c.789.777 2.054.777 2.844 0l33.175-32.96c.352-.325.567-.77.606-1.247l1.207-14.223a2.052 2.052 0 0 0-.64-1.703Zm-9.847 5.367a3.553 3.553 0 0 1-3.555-3.554 3.553 3.553 0 0 1 3.555-3.555 3.553 3.553 0 0 1 3.554 3.555 3.553 3.553 0 0 1-3.554 3.554Zm0 0"/><path style="stroke:none;fill-rule:nonzero;fill:#005ba1;fill-opacity:1" d="M51.77 6.117a6.578 6.578 0 0 0-6.543 6.602 6.575 6.575 0 0 0 6.59 6.55 6.576 6.576 0 1 0-.047-13.152Zm3.554 7.29a3.626 3.626 0 1 1-7.11-1.426 3.552 3.552 0 0 1 2.88-2.88 3.558 3.558 0 0 1 3.363.938 3.565 3.565 0 0 1 .938 3.367Zm0 0"/><path style="stroke:none;fill-rule:nonzero;fill:#fff;fill-opacity:1" d="m34.633 18.523-1.352-1.351L32 18.523l-1.742-1.742 2.988-3.093 3.09 3.093ZM18.238 32.18l-1.742-1.742 3.84-3.844.996.89-.887-.89 1.633 1.851ZM27.2 19.805l1.742 1.777-3.77 3.77-1.741-1.743Zm-13.687 19.84-3.094-3.094 3.094-2.989 1.742 1.747-1.352 1.242 1.352 1.351Zm4.976 1.492 4.125 4.16-1.777 1.742-4.125-4.125Zm8.676 12.195-3.094-3.094 1.887-1.742 1.207 1.246 1.281-1.137 1.742 1.743Zm8.39-11.625 1.778 1.742-3.945 3.77-1.742-1.742Zm4.801-1.316-1.847-1.743 3.84-3.84 1.742 1.743-3.555 3.84-.855-.852Zm6.864-6.828L45.332 32Zm0 0L45.332 32l1.246-1.387-1.246-1.207 1.742-1.886 3.094 3.093Zm-7.54-13.473 4.126 4.125-1.778 1.777-4.125-4.125Zm0 0"/></svg>