<svg xmlns="http://www.w3.org/2000/svg" xmlns:xlink="http://www.w3.org/1999/xlink" width="64" height="64"><defs><clipPath id="b"><path d="M0 0h64v64H0z"/></clipPath><clipPath id="c"><path d="M0 0h64v64H0z"/></clipPath><clipPath id="d"><path d="M0 0h64v64H0z"/></clipPath><clipPath id="e"><path d="M0 0h64v64H0z"/></clipPath><mask id="h"><g filter="url(#a)"><path style="fill:#000;fill-opacity:.8;stroke:none" d="M0 0h64v64H0z"/></g></mask><mask id="l"><g filter="url(#a)"><path style="fill:#000;fill-opacity:.74902;stroke:none" d="M0 0h64v64H0z"/></g></mask><mask id="n"><g filter="url(#a)"><path style="fill:#000;fill-opacity:.74902;stroke:none" d="M0 0h64v64H0z"/></g></mask><mask id="p"><g filter="url(#a)"><path style="fill:#000;fill-opacity:.74902;stroke:none" d="M0 0h64v64H0z"/></g></mask><g id="g" clip-path="url(#b)"><path style="stroke:none;fill-rule:nonzero;fill:#fff;fill-opacity:1" d="M28.09 32a14.51 14.51 0 0 1-8.07-2.383l8 20.942 7.96-20.797A14.82 14.82 0 0 1 28.09 32Zm0 0"/></g><g id="k" clip-path="url(#c)"><path style="stroke:none;fill-rule:nonzero;fill:#ff9300;fill-opacity:1" d="M49.777 58.238c.145.149.36.192.547.114a.504.504 0 0 0 .309-.47v-8.71a.577.577 0 0 0-.215-.461.497.497 0 0 0-.781.426v8.746a.444.444 0 0 0 .14.355Zm0 0"/></g><g id="m" clip-path="url(#d)"><path style="stroke:none;fill-rule:nonzero;fill:#ff9300;fill-opacity:1" d="m46.074 37.957.004-.14c0-.337.274-.602.606-.602l10.203.062a.603.603 0 0 1 .601.61v.14a.604.604 0 0 1-.61.602l-10.202-.063a.609.609 0 0 1-.602-.609Zm0 0"/></g><g id="o" clip-path="url(#e)"><path style="stroke:none;fill-rule:nonzero;fill:#ff9300;fill-opacity:1" d="M46.04 40.176v-.14a.606.606 0 0 1 .608-.602l10.204.062a.6.6 0 0 1 .601.606v.144a.609.609 0 0 1-.61.602l-10.202-.063a.609.609 0 0 1-.602-.61Zm0 0"/></g><linearGradient id="f" gradientUnits="userSpaceOnUse" x1="7.89" y1="6.9" x2="7.89" y2="19.35" gradientTransform="scale(3.55556)"><stop offset=".22" style="stop-color:#32d4f5;stop-opacity:1"/><stop offset="1" style="stop-color:#198ab3;stop-opacity:1"/></linearGradient><linearGradient id="i" gradientUnits="userSpaceOnUse" x1="7.53" y1=".22" x2="8.44" y2="11.53" gradientTransform="scale(3.55556)"><stop offset=".22" style="stop-color:#32d4f5;stop-opacity:1"/><stop offset="1" style="stop-color:#198ab3;stop-opacity:1"/></linearGradient><radialGradient id="j" gradientUnits="userSpaceOnUse" cx="-19.24" cy="6.51" fx="-19.24" fy="6.51" r="6.13" gradientTransform="rotate(.608 -2035.683 10716.49) scale(3.34241)"><stop offset=".27" style="stop-color:#ffd70f;stop-opacity:1"/><stop offset="1" style="stop-color:#fea11b;stop-opacity:1"/></radialGradient><filter id="a" filterUnits="objectBoundingBox" x="0%" y="0%" width="100%" height="100%"><feColorMatrix in="SourceGraphic" values="0 0 0 0 1 0 0 0 0 1 0 0 0 0 1 0 0 0 1 0"/></filter></defs><path style="stroke:none;fill-rule:nonzero;fill:url(#f)" d="M49.957 60.836a4.764 4.764 0 0 0 4.762-4.73c.02-.188.02-.38 0-.567-1.883-14.934-10.383-27.094-26.63-27.094-16.25 0-25.03 10.309-26.667 27.13a4.765 4.765 0 0 0 4.23 5.226h44.305Zm0 0"/><use xlink:href="#g" mask="url(#h)"/><path style="stroke:none;fill-rule:nonzero;fill:url(#i)" d="M43.059 17.066c0 8.266-6.704 14.97-14.97 14.97-8.269 0-14.968-6.704-14.968-14.97 0-8.265 6.7-14.968 14.969-14.968 8.265 0 14.969 6.703 14.969 14.968Zm0 0"/><path style="stroke:none;fill-rule:nonzero;fill:url(#j)" d="M61.406 40.71a4.024 4.024 0 0 0 1.18-2.843c0-1.066-.426-2.09-1.18-2.844l-6.898-7.113a3.993 3.993 0 0 0-2.844-1.195c-1.07 0-2.098.433-2.848 1.195l-7.109 6.899a4.055 4.055 0 0 0 0 5.726l5.723 5.828c.207.211.324.492.32.785v10.664c-.012.38.145.743.43.997l2.593 2.668a.961.961 0 0 0 1.317 0l2.558-2.563 1.493-1.527a.494.494 0 0 0 0-.711l-1.102-1.102a.61.61 0 0 1 0-.82l1.102-1.102a.462.462 0 0 0 0-.71l-1.067-1.102a.606.606 0 0 1 0-.817l1.106-1.101a.508.508 0 0 0 0-.715l-1.496-1.527v-.39ZM51.7 29.653a2.349 2.349 0 0 1 2.274 2.313 2.24 2.24 0 0 1-2.309 2.273 2.311 2.311 0 0 1 0-4.586Zm0 0"/><use xlink:href="#k" mask="url(#l)"/><use xlink:href="#m" mask="url(#n)"/><use xlink:href="#o" mask="url(#p)"/></svg>