<svg xmlns="http://www.w3.org/2000/svg" width="64" height="64"><defs><linearGradient id="a" gradientUnits="userSpaceOnUse" x1="9" y1="17.39" x2="9" y2=".61" gradientTransform="scale(3.55556)"><stop offset="0" style="stop-color:#0078d4;stop-opacity:1"/><stop offset=".82" style="stop-color:#5ea0ef;stop-opacity:1"/></linearGradient></defs><path style="stroke:none;fill-rule:nonzero;fill:#fff;fill-opacity:1" d="M35.555 2.594H9.992c-1.12 0-2.027.91-2.027 2.027V59.38c0 1.117.906 2.027 2.027 2.027h44.016c1.12 0 2.027-.91 2.027-2.027v-36.23a2.026 2.026 0 0 0-2.027-2.028H39.395a1.99 1.99 0 0 1-1.989-1.992V4.62a1.998 1.998 0 0 0-1.851-2.027Zm0 0"/><path style="stroke:none;fill-rule:nonzero;fill:url(#a)" d="M34.453 5.156v13.758c0 2.79 2.262 5.05 5.05 5.05h13.829v34.88H10.668V5.156h23.82m1.067-2.988H9.672a2.03 2.03 0 0 0-2.063 2.027v55.61a2.03 2.03 0 0 0 2.063 2.027h44.656a2.03 2.03 0 0 0 2.063-2.027V23.004a2.03 2.03 0 0 0-2.063-2.027H39.504a2.02 2.02 0 0 1-2.027-2.063V4.195a2.031 2.031 0 0 0-1.922-2.027Zm0 0"/><path style="stroke:none;fill-rule:nonzero;fill:#0078d4;fill-opacity:1" d="M55.61 21.332 36.765 2.594v15.183a3.553 3.553 0 0 0 3.554 3.555Zm0 0"/><path style="stroke:none;fill-rule:nonzero;fill:#83b9f9;fill-opacity:1" d="M47.148 30.188H24.891a1.458 1.458 0 1 0 0 2.914h22.398a1.457 1.457 0 0 0 0-2.914Zm0 8.675H24.891a1.466 1.466 0 0 0-1.453.645 1.465 1.465 0 0 0 0 1.59c.316.48.882.734 1.453.644h22.398a1.46 1.46 0 0 0 1.45-.644 1.465 1.465 0 0 0 0-1.59 1.46 1.46 0 0 0-1.45-.645Zm0 8.711H24.891a1.458 1.458 0 1 0 0 2.914h22.398a1.457 1.457 0 0 0 0-2.914Zm0 0"/><path style="stroke:none;fill-rule:nonzero;fill:#0078d4;fill-opacity:1" d="M17.031 34.559v-4.692c-.21.117-.437.203-.676.25l-.78.211v-1.457a8.555 8.555 0 0 0 1.1-.426 4.592 4.592 0 0 0 1.102-.5h1.137v6.614Zm-1.386 9.246v-.535a3.64 3.64 0 0 1 0-.922 8.16 8.16 0 0 1 .39-.785c.3-.34.633-.649.996-.922.278-.16.532-.368.746-.606 0 0 0-.25.25-.32a.52.52 0 0 0 0-.39c0-.462-.25-.677-.78-.677a2.385 2.385 0 0 0-1.532.606v-1.602a3.83 3.83 0 0 1 .996-.39c.332-.035.664-.035.996 0a2.487 2.487 0 0 1 1.637.535c.39.351.613.855.601 1.387a2.614 2.614 0 0 1-.32 1.207c-.313.398-.7.738-1.137.996l-.71.425a.662.662 0 0 0-.215.356h2.597v1.496Zm4.41 7.394a1.604 1.604 0 0 1-.676 1.457 3.265 3.265 0 0 1-1.887.535 4.042 4.042 0 0 1-.922 0l-.82-.25v-1.527c.207.129.438.215.676.25.262.04.523.04.781 0 .25.043.5.043.75 0a.678.678 0 0 0 .246-.465.526.526 0 0 0-.426-.531 3.559 3.559 0 0 0-.851-.18h-.5v-1.386h.535c.289.046.586-.032.816-.211a.433.433 0 0 0 .25-.465v-.39c0-.071-.32 0-.605 0-.438.019-.863.14-1.242.355v-1.457a4.348 4.348 0 0 1 1.633-.356 2.886 2.886 0 0 1 1.742.461c.39.273.605.734.57 1.211.008.355-.105.707-.32.996a1.607 1.607 0 0 1-.926.531c.414.024.8.215 1.066.535.102.286.137.586.11.887Zm0 0"/></svg>