<svg xmlns="http://www.w3.org/2000/svg" width="64" height="64"><defs><linearGradient id="a" gradientUnits="userSpaceOnUse" x1="2.59" y1="10.16" x2="15.41" y2="10.16" gradientTransform="scale(3.55556)"><stop offset="0" style="stop-color:#005ba1;stop-opacity:1"/><stop offset=".07" style="stop-color:#0060a9;stop-opacity:1"/><stop offset=".36" style="stop-color:#0071c8;stop-opacity:1"/><stop offset=".52" style="stop-color:#0078d4;stop-opacity:1"/><stop offset=".64" style="stop-color:#0074cd;stop-opacity:1"/><stop offset=".82" style="stop-color:#006abb;stop-opacity:1"/><stop offset="1" style="stop-color:#005ba1;stop-opacity:1"/></linearGradient></defs><path style="stroke:none;fill-rule:nonzero;fill:url(#a)" d="M32 18.277c-12.586 0-22.793-3.558-22.793-8.25v43.946c0 4.515 10.027 8.18 22.473 8.25H32c12.586 0 22.793-3.555 22.793-8.25V10.027c0 4.586-10.207 8.25-22.793 8.25Zm0 0"/><path style="stroke:none;fill-rule:nonzero;fill:#e8e8e8;fill-opacity:1" d="M54.793 10.027c0 4.586-10.207 8.25-22.793 8.25-12.586 0-22.793-3.558-22.793-8.25 0-4.695 10.207-8.25 22.793-8.25 12.586 0 22.793 3.555 22.793 8.25"/><path style="stroke:none;fill-rule:nonzero;fill:#50e6ff;fill-opacity:1" d="M49.492 9.352c0 2.914-7.855 5.261-17.492 5.261s-17.492-2.347-17.492-5.261c0-2.915 7.855-5.227 17.492-5.227s17.492 2.348 17.492 5.227"/><path style="stroke:none;fill-rule:nonzero;fill:#198ab3;fill-opacity:1" d="M32 10.668a41.044 41.044 0 0 0-13.832 2.023A40.506 40.506 0 0 0 32 14.613a39.713 39.713 0 0 0 13.832-2.062A42.003 42.003 0 0 0 32 10.668Zm0 0"/><path style="stroke:none;fill-rule:nonzero;fill:#f2f2f2;fill-opacity:1" d="M44.941 32v5.797h-3.554a1.394 1.394 0 0 1-1.032-.5V32h-4.8v6.328a3.27 3.27 0 0 0 3.555 3.164h5.3l.922-.46s-.39 1.456-.922 1.527h-8.465v3.558h9.461a4.309 4.309 0 0 0 3.164-1.308 4.311 4.311 0 0 0 1.207-3.207V32ZM33.883 32v-1.742a2.491 2.491 0 0 0-1.703-2.738 6.265 6.265 0 0 0-1.782-.286 3.348 3.348 0 0 0-3.234 2.063l-2.773 6.758-3.555-6.758a3.316 3.316 0 0 0-3.059-2.063 5.124 5.124 0 0 0-1.812.32c-1.246.391-1.527 1.212-1.527 2.598v11.77h4.156v-7.93l2.242 5.582a3.847 3.847 0 0 0 3.555 2.348c1.566 0 2.203-.926 2.843-2.348l2.383-5.37v7.644h4.195V32Zm0 0"/></svg>