<svg xmlns="http://www.w3.org/2000/svg" width="64" height="64"><defs><linearGradient id="a" gradientUnits="userSpaceOnUse" x1=".5" y1="9.77" x2="9" y2="9.77" gradientTransform="scale(3.55556)"><stop offset="0" style="stop-color:#005ba1;stop-opacity:1"/><stop offset=".07" style="stop-color:#0060a9;stop-opacity:1"/><stop offset=".36" style="stop-color:#0071c8;stop-opacity:1"/><stop offset=".52" style="stop-color:#0078d4;stop-opacity:1"/><stop offset=".64" style="stop-color:#0074cd;stop-opacity:1"/><stop offset=".81" style="stop-color:#006abb;stop-opacity:1"/><stop offset=".99" style="stop-color:#005ba1;stop-opacity:1"/></linearGradient></defs><path style="stroke:none;fill-rule:nonzero;fill:#005ba1;fill-opacity:1" d="M47.11 37.262V23.359a.498.498 0 0 0-.852-.355L32.035 37.227 17.246 52.02v10.203h42.95c.538.007 1.062-.2 1.445-.582.382-.383.59-.907.582-1.446V23.36a.5.5 0 0 0-.855-.355Zm0 0"/><path style="stroke:none;fill-rule:nonzero;fill:url(#a)" d="M16.89 12.73c-8.355 0-15.113-2.453-15.113-5.62v53.085c-.007.54.2 1.063.582 1.446.383.382.907.59 1.446.582H32V7.109c0 3.168-6.754 5.621-15.11 5.621Zm0 0"/><path style="stroke:none;fill-rule:nonzero;fill:#fff;fill-opacity:1" d="M46.898 46.117h6.079c.55 0 .996.446.996.992v6.082c0 .551-.446.996-.996.996h-6.079a.995.995 0 0 1-.996-.996V47.11c0-.547.446-.992.996-.992ZM32.89 46.117h6.079c.55 0 .996.446.996.992v6.082c0 .551-.445.996-.996.996H32.89a.995.995 0 0 1-.996-.996V47.11c0-.547.445-.992.996-.992ZM18.879 46.117h6.082c.55 0 .996.446.996.992v6.082c0 .551-.445.996-.996.996h-6.082a.998.998 0 0 1-.996-.996V47.11c0-.547.449-.992.996-.992Zm0 0"/><path style="stroke:none;fill-rule:nonzero;fill:#eaeaea;fill-opacity:1" d="M32 7.11c0 3.023-6.754 5.476-15.11 5.476-8.355 0-15.113-2.309-15.113-5.477 0-3.164 6.758-5.332 15.114-5.332C25.246 1.777 32 4.23 32 7.11"/><path style="stroke:none;fill-rule:nonzero;fill:#50e6ff;fill-opacity:1" d="M28.445 6.793c0 1.953-5.191 3.555-11.593 3.555-6.399 0-11.59-1.532-11.59-3.555 0-2.027 5.406-3.45 11.629-3.45 6.218 0 11.554 1.528 11.554 3.45"/><path style="stroke:none;fill-rule:nonzero;fill:#198ab3;fill-opacity:1" d="M16.89 7.61a28.661 28.661 0 0 0-9.175 1.316 27.19 27.19 0 0 0 9.176 1.351c3.109.078 6.214-.379 9.172-1.351a28.638 28.638 0 0 0-9.172-1.317Zm0 0"/></svg>