<svg xmlns="http://www.w3.org/2000/svg" width="64" height="64"><defs><linearGradient id="a" gradientUnits="userSpaceOnUse" x1="2.59" y1="10.16" x2="15.41" y2="10.16" gradientTransform="scale(3.55556)"><stop offset="0" style="stop-color:#005ba1;stop-opacity:1"/><stop offset=".07" style="stop-color:#0060a9;stop-opacity:1"/><stop offset=".36" style="stop-color:#0071c8;stop-opacity:1"/><stop offset=".52" style="stop-color:#0078d4;stop-opacity:1"/><stop offset=".64" style="stop-color:#0074cd;stop-opacity:1"/><stop offset=".82" style="stop-color:#006abb;stop-opacity:1"/><stop offset="1" style="stop-color:#005ba1;stop-opacity:1"/></linearGradient></defs><path style="stroke:none;fill-rule:nonzero;fill:url(#a)" d="M32 18.277c-12.586 0-22.793-3.558-22.793-8.25v43.946c0 4.515 10.027 8.18 22.473 8.25H32c12.586 0 22.793-3.555 22.793-8.25V10.027c0 4.586-10.207 8.25-22.793 8.25Zm0 0"/><path style="stroke:none;fill-rule:nonzero;fill:#e8e8e8;fill-opacity:1" d="M54.793 10.027c0 4.586-10.207 8.25-22.793 8.25-12.586 0-22.793-3.558-22.793-8.25 0-4.695 10.207-8.25 22.793-8.25 12.586 0 22.793 3.555 22.793 8.25"/><path style="stroke:none;fill-rule:nonzero;fill:#50e6ff;fill-opacity:1" d="M49.492 9.352c0 2.914-7.855 5.261-17.492 5.261s-17.492-2.347-17.492-5.261c0-2.915 7.855-5.227 17.492-5.227s17.492 2.348 17.492 5.227"/><path style="stroke:none;fill-rule:nonzero;fill:#198ab3;fill-opacity:1" d="M32 10.668a41.044 41.044 0 0 0-13.832 2.023A40.506 40.506 0 0 0 32 14.613a39.713 39.713 0 0 0 13.832-2.062A42.003 42.003 0 0 0 32 10.668Zm0 0"/><path style="stroke:none;fill-rule:nonzero;fill:#f2f2f2;fill-opacity:1" d="M50.668 22.473c-1.176 0 .21.886-3.95 1.066-4.16.176-5.616 4.441-8.32 8.035a17.52 17.52 0 0 1-10.664 5.012 13.045 13.045 0 0 0-6.683 4.941 3.278 3.278 0 0 1-2.528 1.852c-.96 0-3.058.285-3.058.285-.867.188-1.715.473-2.524.852.286 1.172 2.633.675 2.633.675a18.34 18.34 0 0 1-1.851 1.672c1.168.27 2.37.332 3.558.176 1.528 0 2.7-1.457 5.512-2.984 2.809-1.532 9.277 0 10.309 0 1.03 0 2.562-2.703 2.918-3.559.28 1.922-2.918 7.113-2.918 7.113a7.506 7.506 0 0 0 5.902-3.554c.285-.356 1.176-2.207 1.281-2.028.106.176.567.676.746.606.328-.293.625-.613.89-.961a26.994 26.994 0 0 0 4.052-8.82c.25-.852.25-3.946 2.382-5.227 2.133-1.277 2.418-2.453 2.418-2.559v-.175a5.78 5.78 0 0 1-1.386-1.246.388.388 0 0 1 0-.391c.36.668.976 1.156 1.707 1.351 0 0 .746-2.132-.426-2.132Zm-4.445 3.765h-.215a1.275 1.275 0 0 1-1.067-.281 1.708 1.708 0 0 1 1.852-1.066 1.066 1.066 0 0 1-.57 1.347Zm1.992 0a9.76 9.76 0 0 1 1.172-2.058 11.223 11.223 0 0 0-1.246 2.203Zm1.277-1.812c-.18.59-.277 1.199-.285 1.812a5.98 5.98 0 0 1 0-1.347 4.748 4.748 0 0 1 .215-.32ZM43.414 40.96s-1.742 1.634-1.812 2.204c-.075.57 1.918 1.457 3.164 1.137a26.545 26.545 0 0 1-1.352-3.34Zm0 0"/></svg>