<svg xmlns="http://www.w3.org/2000/svg" width="64" height="64"><defs><linearGradient id="a" gradientUnits="userSpaceOnUse" x1="9" y1="12.46" x2="9" y2="1.18" gradientTransform="scale(3.55556)"><stop offset="0" style="stop-color:#0078d4;stop-opacity:1"/><stop offset=".82" style="stop-color:#5ea0ef;stop-opacity:1"/></linearGradient><linearGradient id="b" gradientUnits="userSpaceOnUse" x1="9" y1="16.82" x2="9" y2="12.46" gradientTransform="scale(3.55556)"><stop offset=".15" style="stop-color:#ccc;stop-opacity:1"/><stop offset="1" style="stop-color:#707070;stop-opacity:1"/></linearGradient><radialGradient id="c" gradientUnits="userSpaceOnUse" cx="9.43" cy="7.03" fx="9.43" fy="7.03" r="7.27" gradientTransform="scale(3.55556)"><stop offset="0" style="stop-color:#f2f2f2;stop-opacity:1"/><stop offset=".58" style="stop-color:#eee;stop-opacity:1"/><stop offset="1" style="stop-color:#e6e6e6;stop-opacity:1"/></radialGradient></defs><path style="stroke:none;fill-rule:nonzero;fill:url(#a)" d="M3.91 4.195h56.145a1.99 1.99 0 0 1 1.988 1.992v36.09c0 1.098-.89 1.989-1.988 1.989H3.91a1.989 1.989 0 0 1-1.988-1.989V6.187A1.99 1.99 0 0 1 3.91 4.196Zm0 0"/><path style="stroke:none;fill-rule:nonzero;fill:url(#b)" d="M44.055 56.426c-5.938-.922-6.188-5.227-6.153-12.125H26.098c0 6.898-.215 11.203-6.153 12.125a3.555 3.555 0 0 0-2.984 3.554h30.078a3.555 3.555 0 0 0-2.984-3.554Zm0 0"/><path style="stroke:none;fill-rule:nonzero;fill:url(#c)" d="M46.473 28.055V15.68h-3.559v15.113h8.996v-2.738Zm-26.098-6.117a7.104 7.104 0 0 1-1.852-1.102 1.602 1.602 0 0 1-.46-1.211 1.288 1.288 0 0 1 .57-1.102c.449-.293.988-.433 1.527-.39a5.903 5.903 0 0 1 3.555 1.031v-3.129a9.85 9.85 0 0 0-3.555-.605 6.15 6.15 0 0 0-4.02 1.246 3.98 3.98 0 0 0-1.492 3.27 4.907 4.907 0 0 0 3.13 4.41c.808.324 1.562.769 2.242 1.316.363.277.574.715.566 1.172 0 .449-.211.87-.566 1.136-.442.301-.961.461-1.497.465a6.011 6.011 0 0 1-3.98-1.566v3.558a8.115 8.115 0 0 0 3.91.852 7.09 7.09 0 0 0 4.3-1.387 3.975 3.975 0 0 0 1.567-3.343A3.55 3.55 0 0 0 23.395 24a8.998 8.998 0 0 0-3.02-2.063Zm18.984 5.832a8.551 8.551 0 0 0 1.211-4.622 8.699 8.699 0 0 0-.925-4.02 6.602 6.602 0 0 0-2.56-2.737 7.337 7.337 0 0 0-3.558-.961 7.962 7.962 0 0 0-3.945.996 6.731 6.731 0 0 0-2.703 2.844 8.81 8.81 0 0 0-1.102 4.195 8.662 8.662 0 0 0 .856 3.844 6.794 6.794 0 0 0 2.523 2.699 7.292 7.292 0 0 0 3.555 1.066l3.129 3.559h4.41l-4.305-4.125a6.34 6.34 0 0 0 3.414-2.738Zm-3.554-.926a3.352 3.352 0 0 1-2.774 1.281 3.28 3.28 0 0 1-2.773-1.316 5.499 5.499 0 0 1-1.067-3.555 5.567 5.567 0 0 1 1.067-3.555 3.545 3.545 0 0 1 2.844-1.316 3.197 3.197 0 0 1 2.738 1.316 5.862 5.862 0 0 1 .996 3.555 5.335 5.335 0 0 1-.89 3.59Zm0 0"/></svg>