<svg xmlns="http://www.w3.org/2000/svg" width="64" height="64"><defs><clipPath id="b"><path d="M10 28h17v19H10Zm0 0"/></clipPath><clipPath id="c"><path d="M53.223 26.773c2.8 11.723-4.43 23.493-16.153 26.293-11.722 2.801-23.492-4.43-26.293-16.152-2.8-11.723 4.43-23.492 16.153-26.293 11.722-2.8 23.492 4.43 26.293 16.152Zm0 0"/></clipPath><clipPath id="d"><path d="M32 16h22v20H32Zm0 0"/></clipPath><clipPath id="e"><path d="M53.223 26.773c2.8 11.723-4.43 23.493-16.153 26.293-11.722 2.801-23.492-4.43-26.293-16.152-2.8-11.723 4.43-23.492 16.153-26.293 11.722-2.8 23.492 4.43 26.293 16.152Zm0 0"/></clipPath><radialGradient id="a" gradientUnits="userSpaceOnUse" cx="-105.006" cy="-10.409" fx="-105.006" fy="-10.409" r="5.954" gradientTransform="matrix(3.68356 0 0 3.65156 418.628 69.845)"><stop offset=".183" style="stop-color:#5ea0ef;stop-opacity:1"/><stop offset="1" style="stop-color:#0078d4;stop-opacity:1"/></radialGradient></defs><path style="stroke:none;fill-rule:nonzero;fill:#50e6ff;fill-opacity:1" d="M10.504 18.723a.616.616 0 0 1-.625-.625 7.16 7.16 0 0 0-7.145-7.145.624.624 0 1 1 0-1.246A7.156 7.156 0 0 0 9.88 2.559a.607.607 0 0 1 .18-.442.63.63 0 0 1 .886 0 .627.627 0 0 1 .184.442 7.153 7.153 0 0 0 7.144 7.144.627.627 0 0 1 .442 1.07.607.607 0 0 1-.442.18 7.153 7.153 0 0 0-7.144 7.145.63.63 0 0 1-.625.625ZM55.504 62.066a.504.504 0 0 1-.5-.504 5.719 5.719 0 0 0-5.715-5.71.501.501 0 0 1 0-1 5.717 5.717 0 0 0 5.715-5.715.501.501 0 0 1 1.004 0 5.717 5.717 0 0 0 5.715 5.715.501.501 0 0 1 0 1.003 5.719 5.719 0 0 0-5.715 5.711.504.504 0 0 1-.504.5Zm0 0"/><path style="stroke:none;fill-rule:nonzero;fill:url(#a)" d="M53.223 26.773c2.8 11.723-4.43 23.493-16.153 26.293-11.722 2.801-23.492-4.43-26.293-16.152-2.8-11.723 4.43-23.492 16.153-26.293 11.722-2.8 23.492 4.43 26.293 16.152Zm0 0"/><g clip-path="url(#b)"><g clip-path="url(#c)"><path style="stroke:none;fill-rule:nonzero;fill:#f2f2f2;fill-opacity:1" d="M20.297 46.633a5.825 5.825 0 0 0 5.168-2.863 5.815 5.815 0 0 0 .012-5.907 5.823 5.823 0 0 0-5.16-2.875c.015-.168.027-.332.023-.5a5.867 5.867 0 0 0-5.902-5.816H10.07a22.215 22.215 0 0 0 5.672 17.96Zm0 0"/></g></g><g clip-path="url(#d)"><g clip-path="url(#e)"><path style="stroke:none;fill-rule:nonzero;fill:#f2f2f2;fill-opacity:1" d="M53.492 27.785c0-.05 0-.105-.023-.156a21.257 21.257 0 0 0-5-10.238 6.263 6.263 0 0 0-1.028-.32 6.412 6.412 0 0 0-5.523.972 6.413 6.413 0 0 0-2.652 4.941 7.32 7.32 0 0 0-.711-.047 6.176 6.176 0 0 0-2.066 11.996c.613.239 1.265.36 1.921.356h7.219a47.824 47.824 0 0 0 7.863-7.504Zm0 0"/></g></g><path style="stroke:none;fill-rule:nonzero;fill:#50e6ff;fill-opacity:1" d="M61.125 13.625c-2.238-3.723-7.469-5.172-14.773-4.086-2.504.356-4.98.89-7.403 1.61a22.824 22.824 0 0 1 5.43 2.726c.86-.191 1.719-.414 2.543-.54 1.297-.198 2.61-.308 3.922-.315a7.778 7.778 0 0 1 6.965 2.578c1.363 2.27.214 6.148-3.149 10.668a59.49 59.49 0 0 1-16.887 14.402 59.528 59.528 0 0 1-20.707 8.043c-5.562.832-9.535 0-10.898-2.262-1.36-2.261-.211-6.152 3.152-10.648.414-.559.52-.832.992-1.395a22.296 22.296 0 0 1 .09-5.793 40.914 40.914 0 0 0-4.16 4.875C1.84 39.383.645 44.68 2.875 48.402a11.26 11.26 0 0 0 10.313 4.442 30.322 30.322 0 0 0 4.449-.356 63.537 63.537 0 0 0 22.11-8.535 63.298 63.298 0 0 0 17.995-15.402c4.418-5.906 5.613-11.2 3.383-14.926Zm0 0"/></svg>