<svg xmlns="http://www.w3.org/2000/svg" width="64" height="64"><defs><linearGradient id="a" gradientUnits="userSpaceOnUse" x1="5.35" y1="7.02" x2="5.35" y2="17.19" gradientTransform="scale(3.55556)"><stop offset="0" style="stop-color:#b3b2b3;stop-opacity:1"/><stop offset=".38" style="stop-color:#afaeaf;stop-opacity:1"/><stop offset=".76" style="stop-color:#a2a2a2;stop-opacity:1"/><stop offset="1" style="stop-color:#979797;stop-opacity:1"/></linearGradient><linearGradient id="b" gradientUnits="userSpaceOnUse" x1="11.33" y1="15.74" x2="11.33" y2="6.99" gradientTransform="scale(3.55556)"><stop offset="0" style="stop-color:#0078d4;stop-opacity:1"/><stop offset=".16" style="stop-color:#1380da;stop-opacity:1"/><stop offset=".53" style="stop-color:#3c91e5;stop-opacity:1"/><stop offset=".82" style="stop-color:#559cec;stop-opacity:1"/><stop offset="1" style="stop-color:#5ea0ef;stop-opacity:1"/></linearGradient></defs><path style="stroke:none;fill-rule:nonzero;fill:#949494;fill-opacity:1" d="M27.625 37.973a1.385 1.385 0 0 1-1.492 1.21H3.27a1.39 1.39 0 0 1-1.493-1.21V4.266A1.387 1.387 0 0 1 3.27 3.059h22.863a1.382 1.382 0 0 1 1.492 1.207Zm0 0"/><path style="stroke:none;fill-rule:nonzero;fill:#003067;fill-opacity:1" d="M5.582 18.488a2.81 2.81 0 0 1 2.809-2.808h12.941a2.81 2.81 0 0 1 2.809 2.808 2.81 2.81 0 0 1-.809 2.012 2.817 2.817 0 0 1-2 .832H8.391a2.81 2.81 0 0 1-2.809-2.809ZM5.582 10.168a2.816 2.816 0 0 1 .809-2.008 2.818 2.818 0 0 1 2-.836h12.941a2.804 2.804 0 0 1 2.809 2.844 2.81 2.81 0 0 1-2.809 2.809H8.391a2.81 2.81 0 0 1-2.809-2.809Zm0 0"/><path style="stroke:none;fill-rule:nonzero;fill:#50e6ff;fill-opacity:1" d="M10.383 10.168a1.885 1.885 0 1 1-3.771.002 1.885 1.885 0 0 1 3.77-.002ZM10.383 18.488a1.885 1.885 0 1 1-3.771.003 1.885 1.885 0 0 1 3.77-.003Zm0 0"/><path style="stroke:none;fill-rule:nonzero;fill:#949494;fill-opacity:1" d="M56.14 37.797a1.385 1.385 0 0 1-1.492 1.242H31.785a1.385 1.385 0 0 1-1.492-1.242V4.125a1.385 1.385 0 0 1 1.492-1.246h22.863a1.385 1.385 0 0 1 1.493 1.246Zm0 0"/><path style="stroke:none;fill-rule:nonzero;fill:#003067;fill-opacity:1" d="M34.098 18.348a2.81 2.81 0 0 1 2.808-2.809h12.871a2.81 2.81 0 0 1 2.809 2.809 2.794 2.794 0 0 1-.758 2.101 2.792 2.792 0 0 1-2.05.883H36.905a2.81 2.81 0 0 1-2.808-2.809ZM34.098 9.992a2.82 2.82 0 0 1 .797-2.035 2.82 2.82 0 0 1 2.011-.848h12.871a2.846 2.846 0 0 1 2.809 2.813 2.801 2.801 0 0 1-.797 2.031 2.804 2.804 0 0 1-2.012.848h-12.87a2.81 2.81 0 0 1-2.81-2.809Zm0 0"/><path style="stroke:none;fill-rule:nonzero;fill:#50e6ff;fill-opacity:1" d="M38.898 9.992a1.885 1.885 0 1 1-3.769-.003 1.885 1.885 0 0 1 3.77.003ZM38.898 18.348a1.885 1.885 0 1 1-3.769-.004 1.885 1.885 0 0 1 3.77.004Zm0 0"/><path style="stroke:none;fill-rule:nonzero;fill:url(#a)" d="M32 59.875a1.385 1.385 0 0 1-1.492 1.246H7.609a1.385 1.385 0 0 1-1.492-1.246V26.203a1.375 1.375 0 0 1 1.492-1.312h22.864c.379-.043.757.078 1.047.328.289.246.464.605.48.984Zm0 0"/><path style="stroke:none;fill-rule:nonzero;fill:#003067;fill-opacity:1" d="M9.922 40.426a2.807 2.807 0 0 1 2.808-2.809h12.872a2.81 2.81 0 0 1 2.808 2.809h.035a2.845 2.845 0 0 1-2.808 2.808H12.73a2.807 2.807 0 0 1-2.808-2.808ZM9.922 32a2.807 2.807 0 0 1 2.808-2.809h12.872A2.81 2.81 0 0 1 28.446 32a2.845 2.845 0 0 1-2.81 2.809H12.73A2.807 2.807 0 0 1 9.922 32Zm0 0"/><path style="stroke:none;fill-rule:nonzero;fill:#50e6ff;fill-opacity:1" d="M14.719 32.07a1.885 1.885 0 1 1-3.77.004 1.885 1.885 0 0 1 3.77-.004ZM14.719 40.426a1.885 1.885 0 1 1-3.77.004 1.885 1.885 0 0 1 3.77-.004Zm0 0"/><path style="stroke:none;fill-rule:nonzero;fill:url(#b)" d="M62.223 46.223a9.85 9.85 0 0 0-8.57-9.457c-.29-6.786-5.977-12.078-12.762-11.875a12.732 12.732 0 0 0-12.2 8.28 11.768 11.768 0 0 0-10.343 11.31c.27 6.578 5.793 11.703 12.37 11.484h21.087c.175.035.355.035.53 0a9.959 9.959 0 0 0 9.888-9.742Zm0 0"/></svg>