<svg xmlns="http://www.w3.org/2000/svg" width="64" height="64"><defs><linearGradient id="a" gradientUnits="userSpaceOnUse" x1=".5" y1="9.96" x2="12.43" y2="9.96" gradientTransform="scale(3.55556)"><stop offset="0" style="stop-color:#005ba1;stop-opacity:1"/><stop offset=".07" style="stop-color:#0060a9;stop-opacity:1"/><stop offset=".36" style="stop-color:#0071c8;stop-opacity:1"/><stop offset=".52" style="stop-color:#0078d4;stop-opacity:1"/><stop offset=".64" style="stop-color:#0074cd;stop-opacity:1"/><stop offset=".82" style="stop-color:#006abb;stop-opacity:1"/><stop offset="1" style="stop-color:#005ba1;stop-opacity:1"/></linearGradient><linearGradient id="b" gradientUnits="userSpaceOnUse" x1="11.77" y1="17.03" x2="11.77" y2="8.9" gradientTransform="scale(3.55556)"><stop offset="0" style="stop-color:#198ab3;stop-opacity:1"/><stop offset="0" style="stop-color:#198ab3;stop-opacity:1"/><stop offset=".11" style="stop-color:#22a5cb;stop-opacity:1"/><stop offset=".23" style="stop-color:#29bade;stop-opacity:1"/><stop offset=".37" style="stop-color:#2ec9eb;stop-opacity:1"/><stop offset=".53" style="stop-color:#31d1f3;stop-opacity:1"/><stop offset=".78" style="stop-color:#32d4f5;stop-opacity:1"/></linearGradient></defs><path style="stroke:none;fill-rule:nonzero;fill:url(#a)" d="M23.004 18.844c-11.734 0-21.332-3.555-21.332-7.68V52.02c0 4.195 9.351 7.644 20.906 7.68h.32c11.696 0 21.332-3.56 21.332-7.68V11.164c-.035 4.23-9.527 7.68-21.226 7.68Zm0 0"/><path style="stroke:none;fill-rule:nonzero;fill:#eaeaea;fill-opacity:1" d="M44.195 11.164c0 4.23-9.492 7.68-21.332 7.68s-21.336-3.555-21.336-7.68 9.743-7.61 21.477-7.61S44.336 7.11 44.336 11.27"/><path style="stroke:none;fill-rule:nonzero;fill:#50e6ff;fill-opacity:1" d="M39.11 10.668c0 2.7-7.11 4.871-16.247 4.871-9.14 0-16.144-2.312-16.144-4.871 0-2.563 7.289-5.016 16.285-5.016s16.105 2.168 16.105 5.016"/><path style="stroke:none;fill-rule:nonzero;fill:#198ab3;fill-opacity:1" d="M23.004 11.664a38.98 38.98 0 0 0-12.906 1.848 38.778 38.778 0 0 0 12.906 1.883 38.573 38.573 0 0 0 12.871-1.883 38.976 38.976 0 0 0-12.871-1.848Zm0 0"/><path style="stroke:none;fill-rule:nonzero;fill:url(#b)" d="M59.555 45.297a10.266 10.266 0 0 0-5.297-2.629c-.27-6.309-5.567-11.223-11.875-11.023a11.912 11.912 0 0 0-11.38 7.714 10.885 10.885 0 0 0-9.671 10.418c.234 6.102 5.348 10.868 11.45 10.668h20.09a9.28 9.28 0 0 0 9.206-8.925 8.731 8.731 0 0 0-2.664-6.188"/><path style="stroke:none;fill-rule:nonzero;fill:#fff;fill-opacity:1" d="M50.844 56.18h-3.34V43.98c0 .891-.356 1.567-.465 1.993L43.484 56.18h-2.773l-3.555-10.137a16.76 16.76 0 0 1-.465-2.063v12.2h-2.984V41.137h4.977l3.058 8.925c.246.692.422 1.407.535 2.133.176-.816.391-1.562.567-2.168l3.093-8.89h4.907Zm0 0"/></svg>