<svg xmlns="http://www.w3.org/2000/svg" width="64" height="64"><defs><linearGradient id="a" gradientUnits="userSpaceOnUse" x1=".5" y1="10.04" x2="13.18" y2="10.04" gradientTransform="scale(3.55556)"><stop offset="0" style="stop-color:#005ba1;stop-opacity:1"/><stop offset=".07" style="stop-color:#0060a9;stop-opacity:1"/><stop offset=".36" style="stop-color:#0071c8;stop-opacity:1"/><stop offset=".52" style="stop-color:#0078d4;stop-opacity:1"/><stop offset=".64" style="stop-color:#0074cd;stop-opacity:1"/><stop offset=".82" style="stop-color:#006abb;stop-opacity:1"/><stop offset="1" style="stop-color:#005ba1;stop-opacity:1"/></linearGradient></defs><path style="stroke:none;fill-rule:nonzero;fill:url(#a)" d="M24.32 18.098c-12.445 0-22.543-3.555-22.543-8.176v43.41c0 4.48 9.922 8.11 22.223 8.18h.32c12.446 0 22.543-3.555 22.543-8.18V9.922c0 4.515-10.097 8.176-22.543 8.176Zm0 0"/><path style="stroke:none;fill-rule:nonzero;fill:#e8e8e8;fill-opacity:1" d="M46.863 9.922c0 4.515-10.097 8.176-22.543 8.176-12.445 0-22.543-3.66-22.543-8.176s10.098-8.18 22.543-8.18c12.446 0 22.543 3.555 22.543 8.18"/><path style="stroke:none;fill-rule:nonzero;fill:#50e6ff;fill-opacity:1" d="M41.602 9.246c0 2.879-7.754 5.191-17.282 5.191-9.527 0-17.21-2.312-17.21-5.19 0-2.884 7.683-5.192 17.21-5.192 9.528 0 17.282 2.343 17.282 5.191"/><path style="stroke:none;fill-rule:nonzero;fill:#198ab3;fill-opacity:1" d="M24.32 10.453a42.556 42.556 0 0 0-13.652 1.957 40.109 40.109 0 0 0 13.687 2.027 40.109 40.109 0 0 0 13.688-2.027 42.55 42.55 0 0 0-13.723-1.957Zm0 0"/><path style="stroke:none;fill-rule:nonzero;fill:#f2f2f2;fill-opacity:1" d="M38.188 39.465V27.449h-3.31v14.719h8.747v-2.703Zm-25.422-5.938c-.66-.27-1.27-.64-1.817-1.101a1.551 1.551 0 0 1-.281-1.137c0-.437.21-.848.566-1.102a2.556 2.556 0 0 1 1.496-.39 5.918 5.918 0 0 1 3.555 1.031V27.77a9.508 9.508 0 0 0-3.555-.57 6.187 6.187 0 0 0-4.27 1.245 4.022 4.022 0 0 0-1.456 3.2c0 1.812 1.137 3.234 3.555 4.3.773.336 1.504.77 2.171 1.282.356.27.567.691.567 1.136 0 .438-.211.852-.567 1.102a2.673 2.673 0 0 1-1.601.43 5.697 5.697 0 0 1-4.02-1.602v3.309a8.172 8.172 0 0 0 3.805.816 7.107 7.107 0 0 0 4.195-1.137 3.907 3.907 0 0 0 1.532-3.273 3.554 3.554 0 0 0-.891-2.488 8.614 8.614 0 0 0-2.984-1.993Zm18.488 5.582a8.549 8.549 0 0 0 1.172-4.515 8.236 8.236 0 0 0-.887-3.91 6.442 6.442 0 0 0-2.488-2.664 7.106 7.106 0 0 0-3.559-.926 7.77 7.77 0 0 0-3.875.96 6.638 6.638 0 0 0-2.594 2.739 8.52 8.52 0 0 0-.925 4.086 8.08 8.08 0 0 0 .851 3.734 6.558 6.558 0 0 0 2.418 2.668 7.146 7.146 0 0 0 3.559 1.032l3.02 3.554h4.234l-4.27-3.945a6.428 6.428 0 0 0 3.344-2.813Zm-3.309-.922a3.556 3.556 0 0 1-5.437 0 5.373 5.373 0 0 1-.996-3.554 5.26 5.26 0 0 1 1.031-3.559 3.267 3.267 0 0 1 2.773-1.312c1.051-.035 2.051.46 2.664 1.312a5.748 5.748 0 0 1 .961 3.559c.145 1.3-.21 2.61-.996 3.66Zm0 0"/><path style="stroke:none;fill-rule:nonzero;fill:#949494;fill-opacity:1" d="m52.656 62.188.856-2.81 1.672-.96 2.879 1.281 1.847-1.886v-.211l-1.316-2.528.785-1.777 2.879-1.031h.32v-2.594h-.355l-2.844-.856-.926-1.632 1.246-2.918-1.886-1.813h-.211l-2.528 1.281-1.742-1.066-1.137-3.164h-2.633v.39l-.851 2.81-1.813.78-3.093-1.422-1.813 1.883.176.356 1.352 2.633-.711 1.812-3.344 1.031v2.633h.394l2.809.852.781 1.812-1.386 3.059 1.882 1.847.32-.175 2.633-1.352 1.813.711 1.21 3.164h2.595Zm-4.265-8.391a3.787 3.787 0 0 1-.055-5.352 3.787 3.787 0 0 1 5.352-.054 3.783 3.783 0 0 1 .054 5.351 3.787 3.787 0 0 1-5.351.055Zm0 0"/></svg>