<svg xmlns="http://www.w3.org/2000/svg" width="64" height="64"><defs><linearGradient id="a" gradientUnits="userSpaceOnUse" x1="-3071.86" y1="6711.69" x2="-3071.86" y2="6747.69" gradientTransform="matrix(1.75991 0 0 -1.75991 5493.396 11996.624)"><stop offset="0" style="stop-color:#005ba1;stop-opacity:1"/><stop offset=".1" style="stop-color:#0060a9;stop-opacity:1"/><stop offset=".52" style="stop-color:#0071c8;stop-opacity:1"/><stop offset=".75" style="stop-color:#0078d4;stop-opacity:1"/></linearGradient></defs><path style="stroke:none;fill-rule:nonzero;fill:url(#a)" d="M.64 30.465 30.458.648a2.171 2.171 0 0 1 3.07 0l29.817 29.817a2.171 2.171 0 0 1 0 3.07L33.527 63.352a2.171 2.171 0 0 1-3.07 0L.641 33.535a2.171 2.171 0 0 1 0-3.07Zm0 0"/><path style="stroke:none;fill-rule:nonzero;fill:#50e6ff;fill-opacity:1" d="M32 12.125c-3.379 0-6.078-.855-6.078-1.957v10.348c0 1.03 2.664 1.922 5.973 1.922H32c3.344 0 6.078-.856 6.078-1.922V10.168c.04 1.102-2.523 1.957-6.078 1.957Zm0 0"/><path style="stroke:none;fill-rule:nonzero;fill:#eaeaea;fill-opacity:1" d="M38.117 10.168c0 1.102-2.738 1.957-6.082 1.957s-6.078-.855-6.078-1.957S28.657 8.25 32 8.25c3.344 0 6.078.852 6.078 1.918"/><path style="stroke:none;fill-rule:nonzero;fill:#50e6ff;fill-opacity:1" d="M36.691 10.027c0 .676-2.097 1.243-4.656 1.243-2.558 0-4.656-.602-4.656-1.243 0-.64 2.062-1.246 4.621-1.246 2.559 0 4.656.57 4.656 1.246"/><path style="stroke:none;fill-rule:nonzero;fill:#32bedd;fill-opacity:1" d="M32 10.313c-1.195-.051-2.395.07-3.555.355 1.153.336 2.352.504 3.555.496 1.203.008 2.402-.16 3.555-.496A12.804 12.804 0 0 0 32 10.313Zm0 0"/><path style="stroke:none;fill-rule:nonzero;fill:#50e6ff;fill-opacity:1" d="M32 45.582c-3.379 0-6.078-.852-6.078-1.957v10.348c0 1.03 2.664 1.922 5.973 1.922H32c3.344 0 6.078-.856 6.078-1.922V43.625c.04 1.105-2.523 1.957-6.078 1.957Zm0 0"/><path style="stroke:none;fill-rule:nonzero;fill:#eaeaea;fill-opacity:1" d="M38.117 43.625c0 1.105-2.738 1.957-6.082 1.957s-6.078-.852-6.078-1.957c0-1.102 2.7-1.918 6.078-1.918 3.38 0 6.082.852 6.082 1.918"/><path style="stroke:none;fill-rule:nonzero;fill:#50e6ff;fill-opacity:1" d="M36.691 43.484c0 .676-2.097 1.246-4.656 1.246-2.558 0-4.656-.57-4.656-1.246 0-.675 2.062-1.246 4.656-1.246 2.598 0 4.656.57 4.656 1.246"/><path style="stroke:none;fill-rule:nonzero;fill:#32bedd;fill-opacity:1" d="M32 43.77a12.71 12.71 0 0 0-3.555.46c1.153.336 2.352.504 3.555.5a12.565 12.565 0 0 0 3.555-.5A12.855 12.855 0 0 0 32 43.77Zm0 0"/><path style="stroke:none;fill-rule:nonzero;fill:#50e6ff;fill-opacity:1" d="M47.004 28.766c-3.555 0-6.078-.856-6.078-1.922v10.312c0 1.067 2.664 1.918 6.008 1.953 3.343 0 6.078-.886 6.078-1.953V26.844c.074 1.066-2.664 1.922-6.008 1.922Zm0 0"/><path style="stroke:none;fill-rule:nonzero;fill:#eaeaea;fill-opacity:1" d="M53.086 26.844c0 1.066-2.738 1.922-6.082 1.922-3.34 0-6.078-.856-6.078-1.922 0-1.067 2.699-1.953 6.078-1.953 3.379 0 6.082.886 6.082 1.953"/><path style="stroke:none;fill-rule:nonzero;fill:#50e6ff;fill-opacity:1" d="M51.664 26.668c0 .71-2.102 1.242-4.66 1.242-2.559 0-4.656-.531-4.656-1.242s2.062-1.211 4.656-1.211c2.598 0 4.66.535 4.66 1.211"/><path style="stroke:none;fill-rule:nonzero;fill:#32bedd;fill-opacity:1" d="M47.004 26.95a12.585 12.585 0 0 0-3.555.5 12.71 12.71 0 0 0 3.555.46 12.69 12.69 0 0 0 3.555-.46 12.852 12.852 0 0 0-3.555-.5Zm0 0"/><path style="stroke:none;fill-rule:nonzero;fill:#50e6ff;fill-opacity:1" d="M17.492 28.766c-3.375 0-6.078-.856-6.078-1.922v10.312c0 1.067 2.664 1.918 5.973 1.953 3.343 0 6.078-.886 6.078-1.953V26.844c.11 1.066-2.63 1.922-5.973 1.922Zm0 0"/><path style="stroke:none;fill-rule:nonzero;fill:#eaeaea;fill-opacity:1" d="M23.574 26.844c0 1.066-2.738 1.922-6.082 1.922-3.34 0-6.078-.856-6.078-1.922 0-1.067 2.809-1.953 6.078-1.953 3.274 0 6.082.886 6.082 1.953"/><path style="stroke:none;fill-rule:nonzero;fill:#50e6ff;fill-opacity:1" d="M22.152 26.668c0 .71-2.097 1.242-4.66 1.242-2.558 0-4.656-.531-4.656-1.242s2.062-1.211 4.656-1.211c2.598 0 4.66.535 4.66 1.211"/><path style="stroke:none;fill-rule:nonzero;fill:#32bedd;fill-opacity:1" d="M17.492 26.95a12.585 12.585 0 0 0-3.555.5 12.71 12.71 0 0 0 3.555.46c1.203.016 2.399-.14 3.559-.46a12.9 12.9 0 0 0-3.559-.5Zm0 0"/></svg>