<svg xmlns="http://www.w3.org/2000/svg" width="64" height="64"><defs><linearGradient id="a" gradientUnits="userSpaceOnUse" x1="5.41" y1="17.33" x2="5.41" y2="4.61" gradientTransform="scale(3.55556)"><stop offset="0" style="stop-color:#949494;stop-opacity:1"/><stop offset=".53" style="stop-color:#a2a2a2;stop-opacity:1"/><stop offset="1" style="stop-color:#b3b3b3;stop-opacity:1"/></linearGradient><linearGradient id="b" gradientUnits="userSpaceOnUse" x1="10.04" y1="-1347.39" x2="10.04" y2="-1336.82" gradientTransform="matrix(3.55556 0 0 -3.55556 0 -4728.889)"><stop offset="0" style="stop-color:#0078d4;stop-opacity:1"/><stop offset=".16" style="stop-color:#1380da;stop-opacity:1"/><stop offset=".53" style="stop-color:#3c91e5;stop-opacity:1"/><stop offset=".82" style="stop-color:#559cec;stop-opacity:1"/><stop offset="1" style="stop-color:#5ea0ef;stop-opacity:1"/></linearGradient></defs><path style="stroke:none;fill-rule:nonzero;fill:#777;fill-opacity:1" d="M50.914 45.367a2.093 2.093 0 0 1-2.023 2.028H18.027A2.026 2.026 0 0 1 16 45.367V4.195a1.955 1.955 0 0 1 1.957-2.027h30.934c1.117 0 2.023.91 2.023 2.027Zm0 0"/><path style="stroke:none;fill-rule:nonzero;fill:#999;fill-opacity:1" d="M43.805 52.48a2.1 2.1 0 0 1-2.028 2.028H10.914a2.027 2.027 0 0 1-2.023-2.028V11.31a1.947 1.947 0 0 1 .546-1.43 1.947 1.947 0 0 1 1.407-.598h30.933c1.121 0 2.028.906 2.028 2.028Zm0 0"/><path style="stroke:none;fill-rule:nonzero;fill:url(#a)" d="M36.691 59.59a2.093 2.093 0 0 1-2.023 2.027H3.805a2.061 2.061 0 0 1-2.028-2.027V18.418c-.02-.531.18-1.047.547-1.43a1.962 1.962 0 0 1 1.41-.597h30.934c1.117 0 2.023.906 2.023 2.027Zm0 0"/><path style="stroke:none;fill-rule:nonzero;fill:#003067;fill-opacity:1" d="M6.898 25.992a3.768 3.768 0 0 1 3.77-3.805H28.09A3.802 3.802 0 0 1 32 25.742a3.86 3.86 0 0 1-1.059 2.832 3.853 3.853 0 0 1-2.78 1.188H10.667a3.842 3.842 0 0 1-3.77-3.77Zm0 0"/><path style="stroke:none;fill-rule:nonzero;fill:#50e6ff;fill-opacity:1" d="M13.441 25.992a2.56 2.56 0 1 1-5.12-.004 2.56 2.56 0 0 1 5.12.004Zm0 0"/><path style="stroke:none;fill-rule:nonzero;fill:url(#b)" d="M62.223 50.063a11.913 11.913 0 0 0-10.348-11.45c-.402-8.172-7.29-14.504-15.465-14.222a15.33 15.33 0 0 0-14.722 9.886c-6.981.84-12.301 6.657-12.516 13.688.308 7.945 6.988 14.144 14.933 13.867h26.278c6.472-.094 11.707-5.297 11.84-11.77Zm0 0"/><path style="stroke:none;fill-rule:nonzero;fill:#f2f2f2;fill-opacity:1" d="M48.39 51.379v-11.95h-3.304v14.65h8.71v-2.7Zm-25.242-5.867a9.666 9.666 0 0 1-1.816-1.102 1.694 1.694 0 0 1-.426-1.14c-.039-.426.168-.84.535-1.067.43-.312.961-.465 1.493-.426a5.964 5.964 0 0 1 3.554 1.032V39.75a9.998 9.998 0 0 0-3.554-.531 6.045 6.045 0 0 0-3.875 1.172 3.83 3.83 0 0 0-1.457 3.164 4.788 4.788 0 0 0 3.34 4.265 8.91 8.91 0 0 1 2.167 1.282c.34.28.536.699.536 1.136.03.43-.176.836-.536 1.07a2.78 2.78 0 0 1-1.597.426 5.736 5.736 0 0 1-3.735-1.496v3.274a8.13 8.13 0 0 0 3.555.816 6.847 6.847 0 0 0 4.09-.996 3.754 3.754 0 0 0 1.527-3.234 3.544 3.544 0 0 0-.887-2.489 8.014 8.014 0 0 0-2.914-2.097Zm18.344 5.617a8.291 8.291 0 0 0 1.176-4.48 8.083 8.083 0 0 0-.89-3.981 6.052 6.052 0 0 0-2.454-2.633 6.712 6.712 0 0 0-3.77-.926A7.49 7.49 0 0 0 32 40.141a6.637 6.637 0 0 0-2.594 2.738 8.814 8.814 0 0 0-.96 4.055 8.102 8.102 0 0 0 .85 3.734 6.614 6.614 0 0 0 2.419 2.629c1.078.64 2.3.996 3.555 1.031l3.023 3.555h4.375l-4.23-3.91a6.444 6.444 0 0 0 3.054-2.844Zm-3.304-.89a3.311 3.311 0 0 1-2.704 1.245 3.272 3.272 0 0 1-2.668-1.28 5.346 5.346 0 0 1-.996-3.556 5.093 5.093 0 0 1 1.032-3.554 3.318 3.318 0 0 1 2.738-1.317 3.097 3.097 0 0 1 2.633 1.317 5.261 5.261 0 0 1 .996 3.554 5.229 5.229 0 0 1-1.032 3.59Zm0 0"/></svg>