<svg xmlns="http://www.w3.org/2000/svg" width="64" height="64"><defs><linearGradient id="a" gradientUnits="userSpaceOnUse" x1="5.41" y1="17.33" x2="5.41" y2=".61" gradientTransform="scale(3.55556)"><stop offset="0" style="stop-color:#949494;stop-opacity:1"/><stop offset=".53" style="stop-color:#a2a2a2;stop-opacity:1"/><stop offset="1" style="stop-color:#b3b3b3;stop-opacity:1"/></linearGradient><linearGradient id="b" gradientUnits="userSpaceOnUse" x1="10.04" y1="17.39" x2="10.04" y2="6.82" gradientTransform="scale(3.55556)"><stop offset="0" style="stop-color:#0078d4;stop-opacity:1"/><stop offset=".16" style="stop-color:#1380da;stop-opacity:1"/><stop offset=".53" style="stop-color:#3c91e5;stop-opacity:1"/><stop offset=".82" style="stop-color:#559cec;stop-opacity:1"/><stop offset="1" style="stop-color:#5ea0ef;stop-opacity:1"/></linearGradient></defs><path style="stroke:none;fill-rule:nonzero;fill:url(#a)" d="M36.691 59.59a2.058 2.058 0 0 1-2.023 2.027H3.805a2.026 2.026 0 0 1-2.028-2.027V4.195c-.007-.539.2-1.062.582-1.445.383-.379.907-.59 1.446-.582h30.863c1.117 0 2.023.91 2.023 2.027Zm0 0"/><path style="stroke:none;fill-rule:nonzero;fill:#003067;fill-opacity:1" d="M6.898 23.004a3.805 3.805 0 0 1 3.77-3.77H28.09a3.803 3.803 0 0 1 2.746 1.067A3.799 3.799 0 0 1 32 23.004a3.809 3.809 0 0 1-1.152 2.73 3.809 3.809 0 0 1-2.758 1.075H10.668a3.804 3.804 0 0 1-3.77-3.805ZM6.898 11.77c0-2.09 1.68-3.786 3.77-3.805H28.09a3.809 3.809 0 0 1 2.758 1.074A3.809 3.809 0 0 1 32 11.77a3.799 3.799 0 0 1-1.164 2.704 3.803 3.803 0 0 1-2.746 1.066H10.668a3.805 3.805 0 0 1-3.77-3.77Zm0 0"/><path style="stroke:none;fill-rule:nonzero;fill:#50e6ff;fill-opacity:1" d="M13.441 11.77a2.56 2.56 0 1 1-5.12-.005 2.56 2.56 0 0 1 5.12.005ZM13.441 23.004a2.56 2.56 0 0 1-5.12 0 2.56 2.56 0 0 1 5.121 0Zm0 0"/><path style="stroke:none;fill-rule:nonzero;fill:url(#b)" d="M62.223 50.063a11.947 11.947 0 0 0-10.348-11.45c-.422-8.16-7.297-14.484-15.465-14.222a15.362 15.362 0 0 0-14.722 9.886c-6.981.84-12.301 6.657-12.516 13.688.308 7.945 6.988 14.144 14.933 13.867h26.278c6.465-.113 11.687-5.305 11.84-11.77Zm0 0"/><path style="stroke:none;fill-rule:nonzero;fill:#f2f2f2;fill-opacity:1" d="M48.39 51.379v-11.95h-3.304v14.65h8.71v-2.7Zm-25.242-5.867a8.054 8.054 0 0 1-1.816-1.102 1.581 1.581 0 0 1-.426-1.14c-.023-.422.18-.829.535-1.067a2.36 2.36 0 0 1 1.493-.426 5.903 5.903 0 0 1 3.554 1.032V39.75a10.268 10.268 0 0 0-3.554-.531 5.993 5.993 0 0 0-3.875 1.172 3.901 3.901 0 0 0-1.457 3.164 4.76 4.76 0 0 0 3.34 4.265 8.91 8.91 0 0 1 2.167 1.282c.34.28.536.699.536 1.136.023.426-.18.832-.536 1.07a2.678 2.678 0 0 1-1.597.426 5.792 5.792 0 0 1-3.84-1.496v3.274a7.975 7.975 0 0 0 3.66.816 6.785 6.785 0 0 0 4.09-.996 3.797 3.797 0 0 0 1.527-3.234 3.544 3.544 0 0 0-.887-2.489 8.391 8.391 0 0 0-2.914-2.097Zm18.344 5.617a8.404 8.404 0 0 0 1.176-4.48 8.092 8.092 0 0 0-.89-3.981 6.304 6.304 0 0 0-2.454-2.633 6.918 6.918 0 0 0-3.77-.926A7.903 7.903 0 0 0 32 40.141a6.637 6.637 0 0 0-2.594 2.738 8.925 8.925 0 0 0-.96 4.055 8.054 8.054 0 0 0 .85 3.734 6.666 6.666 0 0 0 2.419 2.629 7.104 7.104 0 0 0 3.555 1.031l3.023 3.555h4.266l-4.23-3.91a6.448 6.448 0 0 0 3.163-2.844Zm-3.304-.89a3.273 3.273 0 0 1-2.704 1.245 3.245 3.245 0 0 1-2.668-1.28 5.346 5.346 0 0 1-.996-3.556 5.229 5.229 0 0 1 1.032-3.554 3.281 3.281 0 0 1 2.738-1.317 3.059 3.059 0 0 1 2.633 1.317 5.468 5.468 0 0 1 .996 3.554 5.229 5.229 0 0 1-1.032 3.59Zm0 0"/></svg>