<svg xmlns="http://www.w3.org/2000/svg" width="64" height="64"><defs><linearGradient id="a" gradientUnits="userSpaceOnUse" x1="2.44" y1="10.67" x2="15.27" y2="10.67" gradientTransform="matrix(3.55556 -.00062 .00062 3.55556 .498 -1.778)"><stop offset="0" style="stop-color:#005ba1;stop-opacity:1"/><stop offset=".07" style="stop-color:#0060a9;stop-opacity:1"/><stop offset=".36" style="stop-color:#0071c8;stop-opacity:1"/><stop offset=".52" style="stop-color:#0078d4;stop-opacity:1"/><stop offset=".64" style="stop-color:#0074cd;stop-opacity:1"/><stop offset=".82" style="stop-color:#006abb;stop-opacity:1"/><stop offset="1" style="stop-color:#005ba1;stop-opacity:1"/></linearGradient></defs><path style="stroke:none;fill-rule:nonzero;fill:url(#a)" d="M32 18.277c-12.586 0-22.793-3.558-22.793-8.25v43.946c0 4.515 10.027 8.18 22.473 8.25H32c12.586 0 22.793-3.555 22.793-8.25V10.027c0 4.551-10.207 8.25-22.793 8.25Zm0 0"/><path style="stroke:none;fill-rule:nonzero;fill:#e8e8e8;fill-opacity:1" d="M54.793 10.027c0 4.551-10.207 8.25-22.793 8.25-12.586 0-22.793-3.558-22.793-8.25 0-4.695 10.207-8.25 22.793-8.25 12.586 0 22.793 3.555 22.793 8.25"/><path style="stroke:none;fill-rule:nonzero;fill:#50e6ff;fill-opacity:1" d="M49.457 9.352c0 2.914-7.82 5.261-17.457 5.261s-17.492-2.347-17.492-5.226c0-2.88 7.82-5.262 17.492-5.262s17.457 2.348 17.457 5.227"/><path style="stroke:none;fill-rule:nonzero;fill:#198ab3;fill-opacity:1" d="M32 10.668a41.445 41.445 0 0 0-13.867 2.023A40.9 40.9 0 0 0 32 14.613a40.758 40.758 0 0 0 13.832-2.062A42.433 42.433 0 0 0 32 10.668Zm0 0"/><path style="stroke:none;fill-rule:nonzero;fill:#f2f2f2;fill-opacity:1" d="M42.668 32v1.492c-.14.742-.238 1.488-.285 2.242 0 .426 0 1.067.176 1.633.18.57 0 .961 0 1.281a5.963 5.963 0 0 1-.887 3.059 1.336 1.336 0 0 0 0 .25l.355.426a37.563 37.563 0 0 0 3.77-8.461c.996-3.379 1.101-5.797.32-6.828a9.171 9.171 0 0 0-9.531-3.059 11.621 11.621 0 0 1 3.234 2.383A8.104 8.104 0 0 1 42.668 32Zm-1.105.285a4.092 4.092 0 0 0-2.81.32c-1.03.641-.71 1.954 0 3.555.356 1.031.774 2.04 1.247 3.024l.32.566c.176.285.285.535.39.71l.286.466c.414-.7.637-1.5.64-2.313.02-.39.02-.781 0-1.172 0-.605 0-1.28-.179-1.742.05-.824.145-1.644.285-2.453-.105-.394-.07-.785-.035-1.066Zm-1.067 1.457a1.394 1.394 0 0 1-.637.356 1.198 1.198 0 0 1-.5 0 .828.828 0 0 1-.25-.676c0-.25.395-.461.856-.531h.676s.32 0 .32.28a.729.729 0 0 1-.32.466ZM23.82 36.906v-.605c.02-.2.02-.403 0-.602a20.051 20.051 0 0 1 0-3.558c.215-1.336.57-2.649 1.07-3.91a8.566 8.566 0 0 1 2.06-3.34 16.761 16.761 0 0 0-4.798-.711 6.649 6.649 0 0 0-3.914 1.066A7.1 7.1 0 0 0 16 31.715a43.721 43.721 0 0 0 1.777 7.965c1.211 4.054 2.598 6.543 3.805 6.933.535.18 1.102 0 1.672-.746.996-1.21 1.918-2.242 2.453-2.844a6.68 6.68 0 0 1-1.742-6.222Zm.926 1.422a7.77 7.77 0 0 0 .215 1.992c.215.57.527 1.098.922 1.563.351.379.773.68 1.246.89.441.18.91.278 1.387.286 0-.606.496-1.352.816-2.133.3-.684.55-1.383.746-2.098a22.989 22.989 0 0 0 0-3.95c0-.32 0-.675-.21-1.066a1.615 1.615 0 0 0-.427-.96 2.418 2.418 0 0 0-.996-.567h-.71a5.644 5.644 0 0 0-1.708.496 7.39 7.39 0 0 0-1.136.676v2.563c.015.175.015.355 0 .53v1.388Zm2.348-4.766c.324-.101.672-.101.996 0 .234.036.46.106.676.215.32 0 .355.391.32.5-.106.184-.25.344-.43.461a.963.963 0 0 1-.21-.144 1.207 1.207 0 0 1-.997-.992Zm2.629 10.668a.803.803 0 0 0-.461.215l-.496.606c-.606.746-.856.992-2.598 1.347a1.886 1.886 0 0 0-.922.356c.25.195.54.328.852.394a4.207 4.207 0 0 0 2.558 0 6.052 6.052 0 0 0 1.387-.925c.348-.285.594-.672.71-1.102a1.274 1.274 0 0 0-.355-.996.531.531 0 0 0-.53-.07Zm16.394 0a5.785 5.785 0 0 1-4.02 0 .77.77 0 0 0-.495 0 1.053 1.053 0 0 0-.606.5 3.719 3.719 0 0 0 0 1.102 6.422 6.422 0 0 0 3.91-.355 4.8 4.8 0 0 0 1.707-1.211Zm-8.535-7.609c-.496-1.457-1.207-3.555.64-4.836a4.792 4.792 0 0 1 3.165-.531 11.322 11.322 0 0 0-2.278-4.09l-.355-.355-.211-.215a1.221 1.221 0 0 0-.215-.211 8.219 8.219 0 0 0-2.383-1.492A9.326 9.326 0 0 0 32 24.105a5.42 5.42 0 0 0-2.488.391c-.367.102-.723.23-1.067.395a7.447 7.447 0 0 0-2.633 3.554A20.837 20.837 0 0 0 25.067 32a5.907 5.907 0 0 1 3.555-.816 2.972 2.972 0 0 1 2.043 1.046 2.97 2.97 0 0 1 .695 2.188 25.638 25.638 0 0 1 0 4.516c-.207.77-.48 1.52-.816 2.238-.215.605-.5 1.246-.64 1.742.5-.031.992.148 1.35.5.497.496.743 1.188.677 1.883H32v.855a23.26 23.26 0 0 0 .852 8.676c.203.328.503.59.855.746.328.219.707.34 1.102.356a4.614 4.614 0 0 0 3.554-1.211 3.724 3.724 0 0 0 1.032-2.344c.25-1.602.785-6.047.855-7.113a2.535 2.535 0 0 1 .32-1.563c.227-.375.563-.672.957-.855a19.07 19.07 0 0 1-3.804-6.434Zm0 0"/></svg>