<svg xmlns="http://www.w3.org/2000/svg" width="64" height="64"><defs><linearGradient id="a" gradientUnits="userSpaceOnUse" x1="9" y1="11.84" x2="9" y2="0" gradientTransform="scale(3.55556)"><stop offset="0" style="stop-color:#0078d4;stop-opacity:1"/><stop offset=".16" style="stop-color:#1380da;stop-opacity:1"/><stop offset=".53" style="stop-color:#3c91e5;stop-opacity:1"/><stop offset=".82" style="stop-color:#559cec;stop-opacity:1"/><stop offset="1" style="stop-color:#5ea0ef;stop-opacity:1"/></linearGradient><linearGradient id="b" gradientUnits="userSpaceOnUse" x1="4.62" y1="13.54" x2="13.47" y2="13.54" gradientTransform="scale(3.55556)"><stop offset="0" style="stop-color:#32bedd;stop-opacity:1"/><stop offset=".06" style="stop-color:#37c5e3;stop-opacity:1"/><stop offset=".3" style="stop-color:#49ddf7;stop-opacity:1"/><stop offset=".45" style="stop-color:#50e6ff;stop-opacity:1"/><stop offset=".55" style="stop-color:#50e6ff;stop-opacity:1"/><stop offset=".7" style="stop-color:#49ddf7;stop-opacity:1"/><stop offset=".94" style="stop-color:#37c5e3;stop-opacity:1"/><stop offset="1" style="stop-color:#32bedd;stop-opacity:1"/></linearGradient></defs><path style="stroke:none;fill-rule:nonzero;fill:url(#a)" d="M61.688 28.906a13.299 13.299 0 0 0-11.555-12.8C49.73 6.894 41.996-.282 32.78 0a17.314 17.314 0 0 0-16.496 11.234A15.927 15.927 0 0 0 2.312 26.56c.329 8.906 7.805 15.859 16.711 15.539h28.442c.238.02.476.02.715 0 7.328-.016 13.316-5.864 13.508-13.192Zm0 0"/><path style="stroke:none;fill-rule:nonzero;fill:url(#b)" d="M32.18 37.297c-8.715 0-15.754-2.238-15.754-5.012v26.703c0 2.735 7.113 4.977 15.539 5.012h.215c8.672 0 15.715-2.238 15.715-5.012V32.285c0 2.774-7.043 5.012-15.715 5.012Zm0 0"/><path style="stroke:none;fill-rule:nonzero;fill:#e8e8e8;fill-opacity:1" d="M47.895 32.285c0 2.774-7.114 5.012-15.715 5.012-8.606 0-15.754-2.238-15.754-5.012 0-2.773 7.113-5.015 15.754-5.015 8.636 0 15.715 2.242 15.715 5.015"/><path style="stroke:none;fill-rule:nonzero;fill:#50e6ff;fill-opacity:1" d="M44.23 32c0 1.742-5.402 3.2-12.05 3.2-6.653 0-12.09-1.458-12.09-3.2 0-1.742 5.402-3.2 12.09-3.2 6.683 0 12.05 1.423 12.05 3.2"/><path style="stroke:none;fill-rule:nonzero;fill:#32bedd;fill-opacity:1" d="M32.18 32.64a32.55 32.55 0 0 0-9.567 1.208 31.927 31.927 0 0 0 9.567 1.246c3.23.066 6.453-.356 9.562-1.246a32.82 32.82 0 0 0-9.562-1.207Zm0 0"/><path style="stroke:none;fill-rule:nonzero;fill:#f2f2f2;fill-opacity:1" d="m22.363 17.777 9.211-9.316a1.073 1.073 0 0 1 1.528 0l9.21 9.316a.47.47 0 0 1 .133.547.462.462 0 0 1-.488.27h-5.656a.5.5 0 0 0-.496.5v11.414a.364.364 0 0 1-.102.289.364.364 0 0 1-.289.101h-6.187a.392.392 0 0 1-.391-.39v-11.52a.465.465 0 0 0-.39-.5h-5.762a.472.472 0 0 1-.356-.265.475.475 0 0 1 .035-.446Zm0 0"/></svg>