<svg xmlns="http://www.w3.org/2000/svg" width="64" height="64"><defs><linearGradient id="a" gradientUnits="userSpaceOnUse" x1="9.5" y1="7.37" x2="17.5" y2="7.37" gradientTransform="scale(3.55556)"><stop offset="0" style="stop-color:#005ba1;stop-opacity:1"/><stop offset=".07" style="stop-color:#0060a9;stop-opacity:1"/><stop offset=".36" style="stop-color:#0071c8;stop-opacity:1"/><stop offset=".52" style="stop-color:#0078d4;stop-opacity:1"/><stop offset="1" style="stop-color:#005ba1;stop-opacity:1"/></linearGradient><linearGradient id="b" gradientUnits="userSpaceOnUse" x1=".5" y1="7.37" x2="8.5" y2="7.37" gradientTransform="scale(3.55556)"><stop offset="0" style="stop-color:#005ba1;stop-opacity:1"/><stop offset=".07" style="stop-color:#0060a9;stop-opacity:1"/><stop offset=".36" style="stop-color:#0071c8;stop-opacity:1"/><stop offset=".52" style="stop-color:#0078d4;stop-opacity:1"/><stop offset="1" style="stop-color:#005ba1;stop-opacity:1"/></linearGradient><linearGradient id="c" gradientUnits="userSpaceOnUse" x1="5" y1="11.9" x2="13" y2="11.9" gradientTransform="scale(3.55556)"><stop offset="0" style="stop-color:#005ba1;stop-opacity:1"/><stop offset=".07" style="stop-color:#0060a9;stop-opacity:1"/><stop offset=".36" style="stop-color:#0071c8;stop-opacity:1"/><stop offset=".52" style="stop-color:#0078d4;stop-opacity:1"/><stop offset="1" style="stop-color:#005ba1;stop-opacity:1"/></linearGradient></defs><path style="stroke:none;fill-rule:nonzero;fill:url(#a)" d="M48 16.426c-7.86 0-14.223-2.028-14.223-4.551V36.02c0 2.453 6.258 4.476 14.043 4.515H48c7.86 0 14.223-2.027 14.223-4.515V11.875c0 2.523-6.364 4.55-14.223 4.55Zm0 0"/><path style="stroke:none;fill-rule:nonzero;fill:#e8e8e8;fill-opacity:1" d="M62.223 11.875c0 2.523-6.364 4.55-14.223 4.55-7.86 0-14.223-2.027-14.223-4.55 0-2.523 6.364-4.516 14.223-4.516 7.86 0 14.223 2.028 14.223 4.516"/><path style="stroke:none;fill-rule:nonzero;fill:#50e6ff;fill-opacity:1" d="M58.914 11.52c0 1.601-4.906 2.878-10.914 2.878s-10.914-1.277-10.914-2.878c0-1.598 4.906-2.88 10.914-2.88s10.914 1.282 10.914 2.88"/><path style="stroke:none;fill-rule:nonzero;fill:#32bedd;fill-opacity:1" d="M48 12.195a30.883 30.883 0 0 0-8.64 1.067c2.8.832 5.718 1.215 8.64 1.136 2.922.079 5.84-.304 8.64-1.136A30.883 30.883 0 0 0 48 12.195Zm0 0"/><path style="stroke:none;fill-rule:nonzero;fill:url(#b)" d="M16 16.426c-7.86 0-14.223-2.028-14.223-4.551V36.02c0 2.453 6.258 4.476 14.223 4.515 7.86 0 14.223-2.027 14.223-4.515V11.875c0 2.523-6.364 4.55-14.223 4.55Zm0 0"/><path style="stroke:none;fill-rule:nonzero;fill:#e8e8e8;fill-opacity:1" d="M30.223 11.875c0 2.523-6.364 4.55-14.223 4.55-7.86 0-14.223-2.027-14.223-4.55 0-2.523 6.364-4.516 14.223-4.516 7.86 0 14.223 2.028 14.223 4.516"/><path style="stroke:none;fill-rule:nonzero;fill:#50e6ff;fill-opacity:1" d="M26.914 11.52c0 1.601-4.906 2.878-10.914 2.878S5.086 13.121 5.086 11.52c0-1.598 4.906-2.88 10.914-2.88s10.914 1.282 10.914 2.88"/><path style="stroke:none;fill-rule:nonzero;fill:#32bedd;fill-opacity:1" d="M16 12.195a30.883 30.883 0 0 0-8.64 1.067c2.8.832 5.718 1.215 8.64 1.136 2.922.079 5.84-.304 8.64-1.136A30.883 30.883 0 0 0 16 12.195Zm0 0"/><path style="stroke:none;fill-rule:nonzero;fill:url(#c)" d="M32 32.535c-7.86 0-14.223-2.027-14.223-4.555v24.145c0 2.488 6.258 4.48 14.043 4.516H32c7.86 0 14.223-2.028 14.223-4.516V27.98c0 2.528-6.364 4.555-14.223 4.555Zm0 0"/><path style="stroke:none;fill-rule:nonzero;fill:#e8e8e8;fill-opacity:1" d="M46.223 27.98c0 2.528-6.364 4.555-14.223 4.555-7.86 0-14.223-2.027-14.223-4.555 0-2.523 6.364-4.515 14.223-4.515 7.86 0 14.223 2.027 14.223 4.515"/><path style="stroke:none;fill-rule:nonzero;fill:#50e6ff;fill-opacity:1" d="M42.914 27.625c0 1.602-4.906 2.883-10.914 2.883s-10.914-1.281-10.914-2.883c0-1.598 4.906-2.734 10.914-2.734s10.914 1.277 10.914 2.879"/><path style="stroke:none;fill-rule:nonzero;fill:#32bedd;fill-opacity:1" d="M32 28.445c-2.914-.058-5.824.301-8.64 1.067a27.694 27.694 0 0 0 8.64.996 27.75 27.75 0 0 0 8.64-1.14 30.815 30.815 0 0 0-8.64-.923Zm0 0"/></svg>