<svg xmlns="http://www.w3.org/2000/svg" width="64" height="64"><defs><linearGradient id="a" gradientUnits="userSpaceOnUse" x1="1.3" y1="8.6" x2="17.5" y2="8.6" gradientTransform="scale(3.55556)"><stop offset=".1" style="stop-color:#54aef0;stop-opacity:1"/><stop offset="1" style="stop-color:#1988d9;stop-opacity:1"/></linearGradient><linearGradient id="b" gradientUnits="userSpaceOnUse" x1=".5" y1="13.7" x2="8.11" y2="13.7" gradientTransform="matrix(3.55556 0 0 3.55556 -.005 .01)"><stop offset="0" style="stop-color:#b3b2b3;stop-opacity:1"/><stop offset="1" style="stop-color:#979797;stop-opacity:1"/></linearGradient><linearGradient id="c" gradientUnits="userSpaceOnUse" x1=".5" y1="10.08" x2="5.72" y2="10.08" gradientTransform="matrix(3.55556 0 0 3.55556 -.016 -.017)"><stop offset="0" style="stop-color:#b3b2b3;stop-opacity:1"/><stop offset="1" style="stop-color:#979797;stop-opacity:1"/></linearGradient><linearGradient id="d" gradientUnits="userSpaceOnUse" x1="5.28" y1="14.89" x2="10.49" y2="14.89" gradientTransform="matrix(3.55556 0 0 3.55556 .013 -.017)"><stop offset="0" style="stop-color:#b3b2b3;stop-opacity:1"/><stop offset="1" style="stop-color:#979797;stop-opacity:1"/></linearGradient></defs><path style="stroke:none;fill-rule:nonzero;fill:url(#a)" d="m5.227 5.227 53.546 53.546a2.027 2.027 0 0 0 3.555-1.422V3.806a2.03 2.03 0 0 0-.629-1.473 2.045 2.045 0 0 0-1.504-.555H6.648a2.026 2.026 0 0 0-1.421 3.45Zm0 0"/><path style="stroke:none;fill-rule:nonzero;fill:#50e6ff;fill-opacity:1" d="m19.664 19.664 24.672 24.672 17.781-17.777V3.805a2.031 2.031 0 0 0-1.922-2.028H37.547Zm0 0"/><path style="stroke:none;fill-rule:nonzero;fill:url(#b)" d="m2.059 57.688 22.199-22.204a.957.957 0 0 1 1.355 0l2.918 2.918a.957.957 0 0 1 0 1.356L6.332 61.96a.962.962 0 0 1-1.36 0L2.06 59.043a.957.957 0 0 1 0-1.355Zm0 0"/><path style="stroke:none;fill-rule:nonzero;fill:url(#c)" d="m2.07 40.535 13.703-13.7a.957.957 0 0 1 1.356 0l2.918 2.915a.962.962 0 0 1 0 1.36L6.344 44.808a.957.957 0 0 1-1.356 0L2.07 41.895a.962.962 0 0 1 0-1.36Zm0 0"/><path style="stroke:none;fill-rule:nonzero;fill:url(#d)" d="m19.047 57.633 13.7-13.703a.962.962 0 0 1 1.358 0l2.915 2.918a.957.957 0 0 1 0 1.355l-13.7 13.703a.962.962 0 0 1-1.36 0l-2.913-2.918a.957.957 0 0 1 0-1.355Zm0 0"/><path style="stroke:none;fill-rule:nonzero;fill:#fff;fill-opacity:1" d="m32.375 18.957 2.363-2.363a1.35 1.35 0 0 1 1.91 0l2.364 2.363a1.344 1.344 0 0 1 0 1.91l-2.364 2.363a1.35 1.35 0 0 1-1.91 0l-2.363-2.363a1.35 1.35 0 0 1 0-1.91ZM40.91 10.41l2.363-2.363a1.35 1.35 0 0 1 1.91 0l2.364 2.363a1.35 1.35 0 0 1 0 1.91l-2.363 2.364a1.35 1.35 0 0 1-1.91 0L40.91 12.32a1.35 1.35 0 0 1 0-1.91ZM40.926 27.492l2.363-2.363a1.35 1.35 0 0 1 1.91 0l2.364 2.363a1.35 1.35 0 0 1 0 1.91l-2.364 2.364a1.35 1.35 0 0 1-1.91 0l-2.363-2.364a1.344 1.344 0 0 1 0-1.91ZM49.457 18.95l2.348-2.345a1.344 1.344 0 0 1 1.918 0l2.347 2.344a1.351 1.351 0 0 1 0 1.922l-2.347 2.348a1.354 1.354 0 0 1-1.918 0l-2.348-2.348a1.357 1.357 0 0 1 0-1.922"/></svg>