<svg xmlns="http://www.w3.org/2000/svg" xmlns:xlink="http://www.w3.org/1999/xlink" width="64" height="64"><defs><clipPath id="b"><path d="M0 0h64v64H0z"/></clipPath><clipPath id="c"><path d="M0 0h64v64H0z"/></clipPath><clipPath id="d"><path d="M0 0h64v64H0z"/></clipPath><clipPath id="e"><path d="M0 0h64v64H0z"/></clipPath><mask id="g"><g filter="url(#a)"><path style="fill:#000;fill-opacity:.501961;stroke:none" d="M0 0h64v64H0z"/></g></mask><mask id="i"><g filter="url(#a)"><path style="fill:#000;fill-opacity:.501961;stroke:none" d="M0 0h64v64H0z"/></g></mask><mask id="k"><g filter="url(#a)"><path style="fill:#000;fill-opacity:.501961;stroke:none" d="M0 0h64v64H0z"/></g></mask><mask id="m"><g filter="url(#a)"><path style="fill:#000;fill-opacity:.501961;stroke:none" d="M0 0h64v64H0z"/></g></mask><g id="f" clip-path="url(#b)"><path style="stroke:none;fill-rule:nonzero;fill:#b3b3b3;fill-opacity:1" d="M32.64 29.297h2.31v6.437a.497.497 0 0 1-.497.496H32a.497.497 0 0 1-.496-.496v-5.406c-.004-.293.121-.57.336-.77.219-.195.508-.292.8-.261Zm0 0"/></g><g id="h" clip-path="url(#c)"><path style="stroke:none;fill-rule:nonzero;fill:#b3b3b3;fill-opacity:1" d="M58.879 29.297h2.312c.57 0 1.032.46 1.032 1.031v5.442a.498.498 0 0 1-.5.496h-2.344a.498.498 0 0 1-.5-.496Zm0 0"/></g><g id="j" clip-path="url(#d)"><path style="stroke:none;fill-rule:nonzero;fill:#b3b3b3;fill-opacity:1" d="M32 49.777h2.313c.273 0 .496.223.496.5v6.434H32.64a1.03 1.03 0 0 1-1.032-1.031v-5.512a.497.497 0 0 1 .391-.39Zm0 0"/></g><g id="l" clip-path="url(#e)"><path style="stroke:none;fill-rule:nonzero;fill:#b3b3b3;fill-opacity:1" d="M59.379 49.777h2.309c.277 0 .5.223.5.5v5.438c0 .57-.461 1.031-1.032 1.031h-2.312v-6.578a.5.5 0 0 1 .535-.39Zm0 0"/></g><filter id="a" filterUnits="objectBoundingBox" x="0%" y="0%" width="100%" height="100%"><feColorMatrix in="SourceGraphic" values="0 0 0 0 1 0 0 0 0 1 0 0 0 0 1 0 0 0 1 0"/></filter></defs><path style="stroke:none;fill-rule:nonzero;fill:#b3b3b3;fill-opacity:1" d="M32.64 29.297h2.31v6.437a.497.497 0 0 1-.497.496H32a.497.497 0 0 1-.496-.496v-5.406c-.004-.293.121-.57.336-.77.219-.195.508-.292.8-.261Zm0 0"/><use xlink:href="#f" mask="url(#g)"/><path style="stroke:none;fill-rule:nonzero;fill:#b3b3b3;fill-opacity:1" d="M58.879 29.297h2.312c.57 0 1.032.46 1.032 1.031v5.442a.498.498 0 0 1-.5.496h-2.344a.498.498 0 0 1-.5-.496Zm0 0"/><use xlink:href="#h" mask="url(#i)"/><path style="stroke:none;fill-rule:nonzero;fill:#b3b3b3;fill-opacity:1" d="M62.223 30.223v2.238H31.645v-2.238c0-.57.46-1.032 1.03-1.032h28.446c.285-.02.566.079.774.274.21.2.328.473.328.758ZM32 49.777h2.313c.273 0 .496.223.496.5v6.434H32.64a1.03 1.03 0 0 1-1.032-1.031v-5.512a.497.497 0 0 1 .391-.39Zm0 0"/><use xlink:href="#j" mask="url(#k)"/><path style="stroke:none;fill-rule:nonzero;fill:#b3b3b3;fill-opacity:1" d="M59.379 49.777h2.309c.277 0 .5.223.5.5v5.438c0 .57-.461 1.031-1.032 1.031h-2.312v-6.578a.5.5 0 0 1 .535-.39Zm0 0"/><use xlink:href="#l" mask="url(#m)"/><path style="stroke:none;fill-rule:nonzero;fill:#b3b3b3;fill-opacity:1" d="M31.645 55.715v-2.238h30.613v2.238c0 .57-.461 1.031-1.031 1.031H32.78a1.014 1.014 0 0 1-.797-.262 1.03 1.03 0 0 1-.34-.77Zm0 0"/><path style="stroke:none;fill-rule:nonzero;fill:#76bc2d;fill-opacity:1" d="M50.098 41.742a.46.46 0 0 1-.391.461h-3.484a.409.409 0 0 1-.325-.11.409.409 0 0 1-.136-.316V39.11a.49.49 0 0 1 .39-.46h3.555a.431.431 0 0 1 .461.425Zm0 0"/><path style="stroke:none;fill-rule:nonzero;fill:#5e9624;fill-opacity:1" d="M56.46 44.445a.46.46 0 0 1-.39.461h-3.554a.423.423 0 0 1-.461-.426v-2.632a.363.363 0 0 1 .101-.297.39.39 0 0 1 .29-.13H56a.402.402 0 0 1 .324.087c.09.078.14.187.137.304ZM50.098 47.148a.435.435 0 0 1-.098.313.428.428 0 0 1-.293.148h-3.484a.432.432 0 0 1-.313-.101.412.412 0 0 1-.148-.29v-2.667a.424.424 0 0 1 .12-.34.437.437 0 0 1 .34-.121h3.555a.376.376 0 0 1 .325.086.38.38 0 0 1 .136.304v2.668Zm0 0"/><path style="stroke:none;fill-rule:nonzero;fill:#86d633;fill-opacity:1" d="M43.734 39.11a.4.4 0 0 1-.101.3.39.39 0 0 1-.29.13h-3.558a.402.402 0 0 1-.55.124.408.408 0 0 1-.126-.555v-2.734a.393.393 0 0 1 .395-.43h3.555c.355 0 .53.18.53.43Zm0 0"/><path style="stroke:none;fill-rule:nonzero;fill:#76bc2d;fill-opacity:1" d="M43.734 44.445a.432.432 0 0 1-.101.313.412.412 0 0 1-.29.148h-3.558a.427.427 0 0 1-.426-.426v-2.703a.432.432 0 0 1 .102-.312.412.412 0 0 1 .289-.149h3.559c.355 0 .53.176.53.461Zm0 0"/><path style="stroke:none;fill-rule:nonzero;fill:#5e9624;fill-opacity:1" d="M43.734 49.777a.402.402 0 0 1-.086.325.385.385 0 0 1-.304.136h-3.559a.422.422 0 0 1-.508.024.434.434 0 0 1-.168-.485v-2.773a.428.428 0 0 1 .395-.46l3.555-.001a.457.457 0 0 1 .531.46Zm0 0"/><path style="stroke:none;fill-rule:nonzero;fill:#949494;fill-opacity:1" d="M47.324 20.621a.994.994 0 0 0-.328-.742 1.004 1.004 0 0 0-.773-.254H17.777a1.008 1.008 0 0 0-.726.281.99.99 0 0 0-.305.715v5.442c.02.28.254.5.535.496h2.274c.277 0 .5-.223.5-.497v-3.199h23.89v3.2c.02.28.254.5.535.496h2.313a.528.528 0 0 0 .531-.497ZM20.055 40.25c0-.277-.223-.5-.5-.5h-2.309a.537.537 0 0 0-.535.5v5.438c-.063.48.27.921.746.996h12.375v-3.235h-9.777ZM32.39 8.39c0-.57-.46-1.03-1.03-1.03H2.913c-.566 0-1.031.46-1.031 1.03v5.442c.039.195.195.352.394.39h2.344c.277 0 .5-.222.5-.5v-3.054h23.89v3.234c.094.211.31.34.536.32H32a.537.537 0 0 0 .535-.5V8.392ZM5.121 28.02a.537.537 0 0 0-.5-.536H2.277a.537.537 0 0 0-.5.536v5.402c0 .535.356.996.746.996h12.375v-3.2H5.121Zm0 0"/><path style="stroke:none;fill-rule:nonzero;fill:#76bc2d;fill-opacity:1" d="M27.805 29.582a.39.39 0 0 1-.39.426h-3.556a.396.396 0 0 1-.465-.39v-2.74a.406.406 0 0 1 .086-.323.385.385 0 0 1 .305-.137h3.559c.355 0 .531.176.531.46Zm0 2.703c0-.285-.18-.285-.535-.285h-3.555a.428.428 0 0 0-.293.148c-.07.09-.106.2-.098.313v2.773a.428.428 0 0 0 .149.293c.09.075.199.11.312.098h3.559a.412.412 0 0 0 .289-.148c.074-.086.11-.2.101-.313Zm0 5.403c0-.247-.18-.426-.535-.426h-3.555a.39.39 0 0 0-.29.129.376.376 0 0 0-.1.297v2.773c0 .117.05.23.136.305.09.078.21.109.324.086h3.559a.385.385 0 0 0 .304-.137.402.402 0 0 0 .086-.324ZM12.87 14.613a.45.45 0 0 0-.184-.308.468.468 0 0 0-.351-.082H8.78a.412.412 0 0 0-.289.148.432.432 0 0 0-.101.313v2.773c.046.18.207.313.39.32h3.555a.388.388 0 0 0 .394-.46Zm0 5.407c0-.25-.18-.43-.535-.43H8.78a.39.39 0 0 0-.289.129.4.4 0 0 0-.101.3v2.735a.393.393 0 0 0 .425.394h3.559a.39.39 0 0 0 .29-.128.405.405 0 0 0 .1-.301Zm0 5.437c0-.285-.18-.46-.535-.46H8.78a.412.412 0 0 0-.289.148.432.432 0 0 0-.101.312v2.703c0 .235.191.426.425.426h3.559a.42.42 0 0 0 .29-.148c.073-.086.108-.2.1-.313Zm0 0"/></svg>