<svg xmlns="http://www.w3.org/2000/svg" width="64" height="64"><defs><linearGradient id="a" gradientUnits="userSpaceOnUse" x1="3.96" y1="2.52" x2="3.96" y2="7.82" gradientTransform="scale(3.55556)"><stop offset="0" style="stop-color:#32d4f5;stop-opacity:1"/><stop offset="1" style="stop-color:#198ab3;stop-opacity:1"/></linearGradient><linearGradient id="b" gradientUnits="userSpaceOnUse" x1="14.04" y1="5.58" x2="14.04" y2="10.89" gradientTransform="scale(3.55556)"><stop offset="0" style="stop-color:#32d4f5;stop-opacity:1"/><stop offset="1" style="stop-color:#198ab3;stop-opacity:1"/></linearGradient><linearGradient id="c" gradientUnits="userSpaceOnUse" x1="5.29" y1="10.18" x2="5.29" y2="15.48" gradientTransform="scale(3.55556)"><stop offset="0" style="stop-color:#32d4f5;stop-opacity:1"/><stop offset="1" style="stop-color:#198ab3;stop-opacity:1"/></linearGradient></defs><path style="stroke:none;fill-rule:nonzero;fill:url(#a)" d="M2.773 8.96h22.614c.55 0 .996.446.996.997v16.887c0 .55-.445.996-.996.996H2.773a.995.995 0 0 1-.996-.996V9.957c0-.55.446-.996.996-.996Zm0 0"/><path style="stroke:none;fill-rule:nonzero;fill:url(#b)" d="M38.613 19.84h22.614c.55 0 .996.445.996.996v16.887c0 .55-.446.996-.996.996H38.613a.995.995 0 0 1-.996-.996V20.836c0-.55.446-.996.996-.996Zm0 0"/><path style="stroke:none;fill-rule:nonzero;fill:url(#c)" d="M7.965 36.195h21.617c.824 0 1.492.668 1.492 1.492v15.895c0 .824-.668 1.492-1.492 1.492H7.965a1.492 1.492 0 0 1-1.492-1.492V37.687c0-.824.668-1.492 1.492-1.492Zm0 0"/><path style="stroke:none;fill-rule:nonzero;fill:#773adc;fill-opacity:1" d="m46.754 31.715.82-2.274-30.437-11.203-.817 2.242Zm1.887-.32-1.137-2.133-28.695 15.113 1.101 2.133ZM17.777 47.539l2.383-.43-4.836-27.41-2.383.426Zm0 0"/><path style="stroke:none;fill-rule:nonzero;fill:#fff;fill-opacity:1" d="M53.14 27.215a3.842 3.842 0 0 1-1.183 5.3 3.842 3.842 0 1 1 1.184-5.3ZM17.336 16.332a3.842 3.842 0 0 1-1.184 5.3 3.842 3.842 0 1 1 1.184-5.3ZM22.059 43.547a3.839 3.839 0 0 1-1.184 5.3 3.84 3.84 0 1 1-4.113-6.484 3.834 3.834 0 0 1 5.297 1.184Zm0 0"/></svg>