<svg xmlns="http://www.w3.org/2000/svg" width="64" height="64"><defs><linearGradient id="a" gradientUnits="userSpaceOnUse" x1="3.44" y1="14.22" x2="3.44" y2="10.54" gradientTransform="scale(3.55556)"><stop offset=".09" style="stop-color:#32bedd;stop-opacity:1"/><stop offset="1" style="stop-color:#50e6ff;stop-opacity:1"/></linearGradient><linearGradient id="b" gradientUnits="userSpaceOnUse" x1="14.51" y1="14.22" x2="14.51" y2="10.54" gradientTransform="scale(3.55556)"><stop offset=".09" style="stop-color:#32bedd;stop-opacity:1"/><stop offset="1" style="stop-color:#50e6ff;stop-opacity:1"/></linearGradient><linearGradient id="c" gradientUnits="userSpaceOnUse" x1="8.98" y1="4.4" x2="8.98" y2=".71" gradientTransform="scale(3.55556)"><stop offset=".09" style="stop-color:#32bedd;stop-opacity:1"/><stop offset="1" style="stop-color:#50e6ff;stop-opacity:1"/></linearGradient></defs><path style="stroke:none;fill-rule:nonzero;fill:#0078d4;fill-opacity:1" d="M26.027 42.098h11.77a.989.989 0 0 0 .957-.782 13.157 13.157 0 0 1 4.766-7.644.963.963 0 0 0 .25-1.281l-6.118-10.668a.963.963 0 0 0-1.207-.391c-1.425.516-2.93.793-4.445.82a12.68 12.68 0 0 1-4.586-.82.997.997 0 0 0-1.21.465L20.09 32.46a1 1 0 0 0 .246 1.281 13.158 13.158 0 0 1 4.73 7.61.96.96 0 0 0 .961.746ZM18.914 9.066h-7.11a.967.967 0 0 0-.855.496l-9.027 15.54a.988.988 0 0 0 0 .996l3.305 5.687c.265.461.832.645 1.316.43a12.815 12.815 0 0 1 5.687-1.317c.473-.035.95-.035 1.422 0 .399.028.778-.164.996-.5l2.809-4.796 4.23-7.325a.957.957 0 0 0 0-1.105 12.979 12.979 0 0 1-2.914-8.106Zm34.207.496a.967.967 0 0 0-.855-.496h-7.11a13.068 13.068 0 0 1-2.773 8.07.95.95 0 0 0 0 1.102l4.265 7.364 2.809 4.87a1 1 0 0 0 .996.497h1.352c1.98.011 3.937.46 5.722 1.316.391.156.84.04 1.106-.285l3.304-5.723a.988.988 0 0 0 0-.996ZM38.293 47.785H25.527a.995.995 0 0 0-.957.64 12.954 12.954 0 0 1-4.945 6.368 1.023 1.023 0 0 0-.316 1.348l2.808 4.836c.18.3.5.488.852.5h17.957c.347-.012.672-.2.851-.5l2.774-4.797a.993.993 0 0 0-.32-1.352 13.084 13.084 0 0 1-4.977-6.402 1 1 0 0 0-.961-.64Zm0 0"/><path style="stroke:none;fill-rule:nonzero;fill:url(#a)" d="M18.809 44.02a6.575 6.575 0 0 1-6.579 6.574 6.575 6.575 0 0 1-6.578-6.574 6.578 6.578 0 0 1 13.157 0Zm0 0"/><path style="stroke:none;fill-rule:nonzero;fill:url(#b)" d="M58.168 44.02a6.575 6.575 0 0 1-6.578 6.574 6.575 6.575 0 0 1-6.578-6.574 6.578 6.578 0 0 1 13.156 0Zm0 0"/><path style="stroke:none;fill-rule:nonzero;fill:url(#c)" d="M38.508 9.066a6.578 6.578 0 1 1-13.157 0 6.578 6.578 0 0 1 13.157 0Zm0 0"/><path style="stroke:none;fill-rule:nonzero;fill:#5ea0ef;fill-opacity:1" d="M51.59 22.828a21.027 21.027 0 0 0-6.223.922l1.07 1.852 2.81 4.87c.198.352.589.548.991.497h1.352c1.984.011 3.937.46 5.726 1.316A.964.964 0 0 0 58.633 32l2.808-4.836.746-1.316a20.918 20.918 0 0 0-10.597-3.02ZM38.754 41.316a13.157 13.157 0 0 1 4.766-7.644.963.963 0 0 0 .25-1.281l-3.555-6.258a21.33 21.33 0 0 0-9.707 15.965h7.324a.994.994 0 0 0 .922-.782Zm.5 7.11a1 1 0 0 0-.961-.64h-7.574a21.344 21.344 0 0 0 8.89 13.69h1.317c.347-.011.672-.199.851-.5l2.774-4.796a.993.993 0 0 0-.32-1.352 13.108 13.108 0 0 1-5.122-6.402Zm0 0"/></svg>