<svg xmlns="http://www.w3.org/2000/svg" width="64" height="64"><defs><linearGradient id="a" gradientUnits="userSpaceOnUse" x1="9.24" y1=".96" x2="8.85" y2="16.52" gradientTransform="scale(3.55556)"><stop offset="0" style="stop-color:#32d4f5;stop-opacity:1"/><stop offset=".23" style="stop-color:#31d0f1;stop-opacity:1"/><stop offset=".46" style="stop-color:#2cc3e6;stop-opacity:1"/><stop offset=".7" style="stop-color:#25afd4;stop-opacity:1"/><stop offset=".94" style="stop-color:#1c92ba;stop-opacity:1"/><stop offset="1" style="stop-color:#198ab3;stop-opacity:1"/></linearGradient></defs><path style="stroke:none;fill-rule:nonzero;fill:#005ba1;fill-opacity:1" d="M60.8 12.8H34.454a1.2 1.2 0 0 1-.781-.25l-7.54-5.01a1.527 1.527 0 0 0-.78-.216H3.199c-.77 0-1.402.617-1.422 1.387v46.578c.02.77.653 1.387 1.422 1.387h57.602c.77 0 1.402-.617 1.422-1.387V14.223c0-.786-.637-1.422-1.422-1.422Zm0 0"/><path style="stroke:none;fill-rule:nonzero;fill:#fff;fill-opacity:1" d="M7.86 10.027h12.585c.313 0 .567.254.567.567v1.601a.57.57 0 0 1-.567.57H7.86a.571.571 0 0 1-.57-.57v-1.601c0-.313.254-.567.57-.567Zm0 0"/><path style="stroke:none;fill-rule:nonzero;fill:#1ac3f2;fill-opacity:1" d="M7.68 10.027h1.957c.215 0 .39.176.39.391v1.957c0 .215-.175.39-.39.39H7.68a.392.392 0 0 1-.39-.39v-1.957c0-.215.175-.39.39-.39Zm0 0"/><path style="stroke:none;fill-rule:nonzero;fill:url(#a)" d="M60.8 12.73H32a1.262 1.262 0 0 0-.996.426l-4.8 4.621a1.51 1.51 0 0 1-.997.391H3.199c-.785 0-1.422.637-1.422 1.422v35.558c.02.77.653 1.387 1.422 1.387h57.602c.77 0 1.402-.617 1.422-1.387V14.223c.02-.391-.121-.77-.391-1.051a1.397 1.397 0 0 0-1.031-.442Zm0 0"/><path style="stroke:none;fill-rule:nonzero;fill:#fff;fill-opacity:1" d="M36.195 20.266a.587.587 0 0 0-.285 0s-.32 0-.46.25l-11.235 16.32a.572.572 0 0 0 0 .57c.105.2.305.332.531.356h6.649l-2.95 9.883a.465.465 0 0 0 .246.64.391.391 0 0 0 .25 0c.215 0 .32 0 .465-.25l11.59-16.57v-.356a.607.607 0 0 0-.605-.566h-7.11l2.88-9.707a.464.464 0 0 0 .034-.57Zm0 0"/></svg>