<svg xmlns="http://www.w3.org/2000/svg" width="64" height="64"><defs><linearGradient id="a" gradientUnits="userSpaceOnUse" x1="9" y1="19.13" x2="9" y2="-.29" gradientTransform="scale(3.55556)"><stop offset="0" style="stop-color:#0078d4;stop-opacity:1"/><stop offset=".16" style="stop-color:#1380da;stop-opacity:1"/><stop offset=".53" style="stop-color:#3c91e5;stop-opacity:1"/><stop offset=".82" style="stop-color:#559cec;stop-opacity:1"/><stop offset="1" style="stop-color:#5ea0ef;stop-opacity:1"/></linearGradient></defs><path style="stroke:none;fill-rule:nonzero;fill:url(#a)" d="M64 40.46a14.221 14.221 0 0 0-12.48-13.792c-.422-9.918-8.743-17.652-18.668-17.352a18.665 18.665 0 0 0-17.848 12.016C6.566 22.359.168 29.437 0 37.937c.367 9.598 8.43 17.086 18.027 16.747h30.754c.262.039.524.039.782 0C57.422 54.609 63.809 48.32 64 40.46Zm0 0"/><path style="stroke:none;fill-rule:nonzero;fill:#9cebff;fill-opacity:1" d="M19.27 36.941h-3.13a3.876 3.876 0 0 0-4.214-2.98 3.878 3.878 0 0 0 0 7.703 3.872 3.872 0 0 0 4.215-2.98h3.129c.394 0 .71.32.71.71v15.29h1.743v-15.29a2.452 2.452 0 0 0-2.453-2.453Zm-6.934 3.13a2.276 2.276 0 1 1 .004-4.552 2.276 2.276 0 0 1-.004 4.551Zm0 0"/><path style="stroke:none;fill-rule:nonzero;fill:#f2f2f2;fill-opacity:1" d="M31.785 37.723v-3.555a2.487 2.487 0 0 0-2.488-2.488h-5.512a.711.711 0 0 1-.71-.711v-18.88l-.817.427-.926.496v17.781a2.457 2.457 0 0 0 2.453 2.453h5.512c.414 0 .746.332.746.746v3.555a3.84 3.84 0 0 0-3.02 3.77 3.873 3.873 0 0 0 7.704.597c.312-2-.97-3.902-2.942-4.367Zm-.887 6.047a2.276 2.276 0 1 1-.002-4.549 2.276 2.276 0 0 1 .002 4.549Zm0 0"/><path style="stroke:none;fill-rule:nonzero;fill:#9cebff;fill-opacity:1" d="M51.664 30.223a3.875 3.875 0 0 0-.89 7.644v.711c0 .41-.337.746-.747.746h-7.113V26.81a2.452 2.452 0 0 0-2.453-2.454H36.8a3.843 3.843 0 0 0-3.77-3.023 3.88 3.88 0 0 0-3.867 3.574 3.875 3.875 0 0 0 7.637 1.191h3.804c.391 0 .711.321.711.712v27.875h1.743V41.066h7.109a2.487 2.487 0 0 0 2.488-2.488v-.71a3.872 3.872 0 0 0 1.84-6.563 3.875 3.875 0 0 0-2.832-1.082Zm-18.633-2.739a2.276 2.276 0 1 1 0-4.55 2.276 2.276 0 1 1 0 4.55Zm18.633 8.891a2.278 2.278 0 0 1-1.66-3.875 2.276 2.276 0 1 1 1.66 3.875Zm0 0"/></svg>