<svg xmlns="http://www.w3.org/2000/svg" width="64" height="64"><defs><linearGradient id="a" gradientUnits="userSpaceOnUse" x1="9.83" y1="1.59" x2="9.83" y2="8.94" gradientTransform="scale(3.55556)"><stop offset="0" style="stop-color:#fff;stop-opacity:1"/><stop offset=".56" style="stop-color:#fbfbfb;stop-opacity:1"/><stop offset="1" style="stop-color:#f2f2f2;stop-opacity:1"/></linearGradient><linearGradient id="b" gradientUnits="userSpaceOnUse" x1="5.71" y1="7.13" x2="5.82" y2="17.51" gradientTransform="scale(3.55556)"><stop offset="0" style="stop-color:#32d4f5;stop-opacity:1"/><stop offset=".32" style="stop-color:#31d1f3;stop-opacity:1"/><stop offset=".53" style="stop-color:#2ec9eb;stop-opacity:1"/><stop offset=".7" style="stop-color:#29bade;stop-opacity:1"/><stop offset=".86" style="stop-color:#22a5cb;stop-opacity:1"/><stop offset="1" style="stop-color:#198ab3;stop-opacity:1"/><stop offset="1" style="stop-color:#198ab3;stop-opacity:1"/></linearGradient></defs><path style="stroke:none;fill-rule:nonzero;fill:#0078d4;fill-opacity:1" d="M34.95 1.848c16.429 0 26.456 12.375 27.273 28.906a4.224 4.224 0 0 1-4.23 4.445H11.77a4.197 4.197 0 0 1-4.09-4.445C8.496 14.223 18.523 1.848 34.95 1.848Zm0 0"/><path style="stroke:none;fill-rule:nonzero;fill:url(#a)" d="M11.875 32.39a1.385 1.385 0 0 1-1.207-1.492c.602-15.964 11.59-26.242 24.281-26.242 12.696 0 23.684 10.278 24.465 26.242a1.69 1.69 0 0 1-.39 1.067 1.569 1.569 0 0 1-1.032.426Zm0 0"/><path style="stroke:none;fill-rule:nonzero;fill:#5ea0ef;fill-opacity:1" d="M48.18 13.477a19.987 19.987 0 0 0-11.844-5.051v9.351a10.909 10.909 0 0 1 5.512 2.348Zm0 0"/><path style="stroke:none;fill-rule:nonzero;fill:#0078d4;fill-opacity:1" d="m21.723 13.477 6.332 6.503a10.681 10.681 0 0 1 5.472-2.203V8.426a19.821 19.821 0 0 0-11.804 5.05Zm0 0"/><path style="stroke:none;fill-rule:nonzero;fill:#5ea0ef;fill-opacity:1" d="M43.84 22.043a11.689 11.689 0 0 1 2.383 5.621h8.96a21.006 21.006 0 0 0-4.906-12.125Zm0 0"/><path style="stroke:none;fill-rule:nonzero;fill:#005ba1;fill-opacity:1" d="m26.063 22.043-6.329-6.504a20.755 20.755 0 0 0-4.906 12.125h8.922a12.033 12.033 0 0 1 2.313-5.621ZM51.414 20.02a1.494 1.494 0 0 0-1.852-.82l-13.187 5.26 1.031 2.634 13.188-5.262a1.46 1.46 0 0 0 .82-1.812Zm0 0"/><path style="stroke:none;fill-rule:nonzero;fill:#767676;fill-opacity:1" d="M38.793 26.383a3.843 3.843 0 0 1-7.684 0 3.842 3.842 0 0 1 7.684 0Zm0 0"/><path style="stroke:none;fill-rule:nonzero;fill:url(#b)" d="M38.152 61.973H3.164c-1.102 0-1.777-1.778-1.137-2.703l12.196-17.563a1.331 1.331 0 0 0 0-.781v-11.63a.712.712 0 0 0-.102-.546.725.725 0 0 0-.469-.305h-.675a1.387 1.387 0 0 1-1.387-1.386v-.465c0-.766.62-1.387 1.387-1.387h15.468a1.358 1.358 0 0 1 1.387 1.387v.605a1.356 1.356 0 0 1-1.387 1.246H27.7a.709.709 0 0 0-.71.711v11.625c.003.282.09.551.245.782l12.09 17.566c.606 1.066-.035 2.844-1.172 2.844Zm0 0"/><path style="stroke:none;fill-rule:nonzero;fill:#fff;fill-opacity:1" d="m7.785 56.89 8.75-12.8a3.077 3.077 0 0 0 .567-1.813v-5.191c0-.57.46-1.031 1.03-1.031h4.977c.274 0 .532.11.72.3.187.196.288.458.276.73v5.583c.004.434.141.855.391 1.207l8.961 13.016c.164.23.18.535.043.78a.74.74 0 0 1-.684.392H8.391a.749.749 0 0 1-.605-1.172Zm0 0"/></svg>