<svg xmlns="http://www.w3.org/2000/svg" width="64" height="64"><defs><linearGradient id="a" gradientUnits="userSpaceOnUse" x1="5.71" y1="7.1" x2="5.82" y2="17.48" gradientTransform="scale(3.55556)"><stop offset="0" style="stop-color:#32d4f5;stop-opacity:1"/><stop offset=".32" style="stop-color:#31d1f3;stop-opacity:1"/><stop offset=".53" style="stop-color:#2ec9eb;stop-opacity:1"/><stop offset=".7" style="stop-color:#29bade;stop-opacity:1"/><stop offset=".86" style="stop-color:#22a5cb;stop-opacity:1"/><stop offset="1" style="stop-color:#198ab3;stop-opacity:1"/><stop offset="1" style="stop-color:#198ab3;stop-opacity:1"/></linearGradient></defs><path style="stroke:none;fill-rule:nonzero;fill:#e6e6e6;fill-opacity:1" d="M21.332 2.133h39.54a1.32 1.32 0 0 1 1.35 1.21v30.54a1.28 1.28 0 0 1-1.352 1.21H21.333a1.28 1.28 0 0 1-1.352-1.21V3.343a1.32 1.32 0 0 1 1.352-1.21Zm0 0"/><path style="stroke:none;fill-rule:nonzero;fill:#5ea0ef;fill-opacity:1" d="M21.121 2.133h39.82a1.25 1.25 0 0 1 1.282 1.137v4.625H19.84V3.27a1.245 1.245 0 0 1 1.281-1.137Zm0 0"/><path style="stroke:none;fill-rule:nonzero;fill:#83b9f9;fill-opacity:1" d="M19.84 7.895h14.152v13.617H19.84Zm0 0"/><path style="stroke:none;fill-rule:nonzero;fill:#0078d4;fill-opacity:1" d="M33.922 7.895H48.07v13.617H33.922Zm0 0"/><path style="stroke:none;fill-rule:nonzero;fill:#83b9f9;fill-opacity:1" d="M48.07 7.895h14.153v13.617H48.07Zm0 0"/><path style="stroke:none;fill-rule:nonzero;fill:#0078d4;fill-opacity:1" d="M60.195 35.234H48.07V21.477h14.223v11.59a2.028 2.028 0 0 1-.563 1.554 2.04 2.04 0 0 1-1.535.613Zm0 0"/><path style="stroke:none;fill-rule:nonzero;fill:#83b9f9;fill-opacity:1" d="M48.18 35.094H34.027V21.477H48.18Zm0 0"/><path style="stroke:none;fill-rule:nonzero;fill:#0078d4;fill-opacity:1" d="M34.027 35.094H19.875V21.477h14.152Zm0 0"/><path style="stroke:none;fill-rule:nonzero;fill:url(#a)" d="M38.152 61.867H3.164c-1.102 0-1.777-1.777-1.137-2.703l12.051-17.777c.102-.188.149-.395.145-.606V29.156a.71.71 0 0 0-.57-.71h-.676a1.387 1.387 0 0 1-1.387-1.387v-.606a1.39 1.39 0 0 1 1.387-1.351h15.468a1.354 1.354 0 0 1 1.387 1.352v.64a1.354 1.354 0 0 1-1.387 1.351H27.7a.71.71 0 0 0-.71.676v11.66c.003.282.09.551.245.782l12.09 17.566c.606.96-.035 2.738-1.172 2.738Zm0 0"/><path style="stroke:none;fill-rule:nonzero;fill:#fff;fill-opacity:1" d="m7.785 56.89 8.75-12.765a3.069 3.069 0 0 0 .567-1.813v-5.335c0-.567.46-1.032 1.03-1.032h4.977a.992.992 0 0 1 .996 1.032v5.691c.004.434.141.855.391 1.207l8.961 13.016c.184.23.215.55.074.812a.74.74 0 0 1-.715.395H8.391a.748.748 0 0 1-.606-1.207Zm0 0"/></svg>