<svg xmlns="http://www.w3.org/2000/svg" width="64" height="64"><defs><radialGradient id="a" gradientUnits="userSpaceOnUse" cx="55.71" cy="71.92" fx="55.71" fy="71.92" r="9" gradientTransform="translate(-155.058 -209.493) scale(3.34222)"><stop offset=".67" style="stop-color:#6bb9f2;stop-opacity:1"/><stop offset=".74" style="stop-color:#61b4f1;stop-opacity:1"/><stop offset=".85" style="stop-color:#47a8ef;stop-opacity:1"/><stop offset=".99" style="stop-color:#1d94eb;stop-opacity:1"/><stop offset="1" style="stop-color:#1b93eb;stop-opacity:1"/></radialGradient></defs><path style="stroke:none;fill-rule:nonzero;fill:url(#a)" d="M32 1.777C15.309 1.777 1.777 15.31 1.777 32S15.31 62.223 32 62.223 62.223 48.69 62.223 32 48.69 1.777 32 1.777Zm0 0"/><path style="stroke:none;fill-rule:nonzero;fill:#fff;fill-opacity:1" d="M56.996 32c0 13.805-11.191 24.996-24.996 24.996C18.195 56.996 7.004 45.805 7.004 32 7.004 18.195 18.195 7.004 32 7.004c13.805 0 24.996 11.191 24.996 24.996Zm0 0"/><path style="stroke:none;fill-rule:nonzero;fill:#32bedd;fill-opacity:1" d="M29.227 32a2.739 2.739 0 1 1-5.479-.002 2.739 2.739 0 0 1 5.479.002Zm0 0"/><path style="stroke:none;fill-rule:nonzero;fill:#32bedd;fill-opacity:1" d="M18.703 24.18h-1.351c-.57 0-1.032.46-1.032 1.027v20.34c0 1.16.938 2.098 2.098 2.098h19.805c.28 0 .547-.114.742-.317.195-.2.297-.473.289-.75v-1.351c0-.57-.461-1.032-1.031-1.032H20.445a.51.51 0 0 1-.367-.156.511.511 0 0 1-.133-.375V25.207a1.034 1.034 0 0 0-.37-.816 1.03 1.03 0 0 0-.872-.211ZM40.25 32a2.739 2.739 0 1 1-5.478-.002A2.739 2.739 0 0 1 40.25 32Zm0 0"/><path style="stroke:none;fill-rule:nonzero;fill:#32bedd;fill-opacity:1" d="M44.16 16.355H25.707c-.281 0-.547.114-.742.317-.195.2-.3.473-.29.75v1.351c0 .57.462 1.032 1.032 1.032h17.777c.293 0 .536.238.536.53v18.458c0 .566.46 1.027 1.03 1.027h1.348c.57 0 1.032-.46 1.032-1.027v-20.34a2.098 2.098 0 0 0-2.063-2.098Zm0 0"/></svg>