<svg xmlns="http://www.w3.org/2000/svg" width="64" height="64"><defs><linearGradient id="a" gradientUnits="userSpaceOnUse" x1="9.03" y1="13.38" x2="9.03" y2="4.63" gradientTransform="scale(3.55556)"><stop offset="0" style="stop-color:#198ab3;stop-opacity:1"/><stop offset=".4" style="stop-color:#25aed3;stop-opacity:1"/><stop offset=".78" style="stop-color:#2fcaec;stop-opacity:1"/><stop offset="1" style="stop-color:#32d4f5;stop-opacity:1"/></linearGradient></defs><path style="stroke:none;fill-rule:nonzero;fill:url(#a)" d="M17.992 16.46h28.195c.805 0 1.458.653 1.458 1.462v28.195c0 .805-.653 1.457-1.458 1.457H17.992a1.457 1.457 0 0 1-1.457-1.457V17.922c0-.809.652-1.461 1.457-1.461Zm0 0"/><path style="stroke:none;fill-rule:nonzero;fill:#c3f1ff;fill-opacity:1" d="M41.883 43.309 57.457 32.39a.455.455 0 0 0 .215-.391.455.455 0 0 0-.215-.39L41.883 20.73a.457.457 0 0 0-.5-.046.465.465 0 0 0-.246.437v6.258H16.535v9.242h24.602v6.293a.499.499 0 0 0 .265.402.49.49 0 0 0 .48-.007Zm0 0"/><path style="stroke:none;fill-rule:nonzero;fill:#949494;fill-opacity:1" d="M60.445 62.578H3.555a1.849 1.849 0 0 1-1.848-1.848V3.27c0-1.02.828-1.848 1.848-1.848h56.89c1.02 0 1.848.828 1.848 1.848v18.062a.927.927 0 0 1-1.457.785l-3.555-2.492a.947.947 0 0 1-.39-.781V7.109H7.324v49.782h49.352V45.51a.93.93 0 0 1 .39-.745l3.555-2.598a.93.93 0 0 1 .973-.059.918.918 0 0 1 .484.84V60.73a1.845 1.845 0 0 1-1.633 1.848Zm0 0"/><path style="stroke:none;fill-rule:nonzero;fill:#767676;fill-opacity:1" d="M56.676 7.11v11.558a.952.952 0 0 0 .39.781l3.555 2.488a.927.927 0 0 0 1.602-.605V7.109ZM56.676 56.89V45.333a.893.893 0 0 1 .39-.746l3.555-2.523a.958.958 0 0 1 1.457.781v14.222Zm0 0"/></svg>