<svg xmlns="http://www.w3.org/2000/svg" width="64" height="64"><defs><linearGradient id="a" gradientUnits="userSpaceOnUse" x1="8.999" y1="-3108.081" x2="8.999" y2="-3125.919" gradientTransform="matrix(3.55556 0 0 -3.55556 0 -11050.667)"><stop offset="0" style="stop-color:#b3b2b3;stop-opacity:1"/><stop offset=".216" style="stop-color:#afaeaf;stop-opacity:1"/><stop offset=".44" style="stop-color:#a2a2a2;stop-opacity:1"/><stop offset=".577" style="stop-color:#979797;stop-opacity:1"/></linearGradient></defs><path style="stroke:none;fill-rule:nonzero;fill:url(#a)" d="M1.445 23.543A31.693 31.693 0 0 1 31.996.297c14.25 0 26.746 9.508 30.547 23.246h-6.047a25.932 25.932 0 0 0-49.027 0Zm54.938 17.289a25.94 25.94 0 0 1-24.387 17.105A25.94 25.94 0 0 1 7.61 40.832H1.555C5.48 54.379 17.89 63.703 31.996 63.703c14.106 0 26.512-9.324 30.442-22.871Zm0 0"/><path style="stroke:none;fill-rule:nonzero;fill:#50e6ff;fill-opacity:1" d="m34.277 46.723-7.609-17.106-3.203 5.531H3.887a2.884 2.884 0 0 1 0-5.77h16.258l7.203-12.444 8.289 18.652 4.898-6.266 19.59.043a2.883 2.883 0 0 1 0 5.766l-16.77-.04Zm0 0"/></svg>