<svg xmlns="http://www.w3.org/2000/svg" width="64" height="64"><defs><linearGradient id="a" gradientUnits="userSpaceOnUse" x1="9" y1="12.85" x2="9" y2=".09" gradientTransform="scale(3.55556)"><stop offset="0" style="stop-color:#198ab3;stop-opacity:1"/><stop offset=".44" style="stop-color:#28b7db;stop-opacity:1"/><stop offset=".78" style="stop-color:#32d4f5;stop-opacity:1"/></linearGradient></defs><path style="stroke:none;fill-rule:nonzero;fill:url(#a)" d="M64 31.465a14.435 14.435 0 0 0-12.48-13.688C51.152 7.817 42.816.02 32.852.32a18.597 18.597 0 0 0-17.778 12.125C6.664 13.461.254 20.473 0 28.941c.367 9.598 8.43 17.086 18.027 16.747h30.754c.262.039.524.039.782 0C57.43 45.633 63.828 39.331 64 31.465Zm0 0"/><path style="stroke:none;fill-rule:nonzero;fill:#b3b3b3;fill-opacity:1" d="M30.508 30.078h2.773V52.09h-2.773Zm0 0"/><path style="stroke:none;fill-rule:nonzero;fill:#f2f2f2;fill-opacity:1" d="M39.29 23.43a7.398 7.398 0 0 1-7.395 7.398 7.399 7.399 0 0 1-7.399-7.398 7.397 7.397 0 0 1 14.793 0Zm0 0"/></svg>