<svg xmlns="http://www.w3.org/2000/svg" xmlns:xlink="http://www.w3.org/1999/xlink" width="64" height="64"><defs><linearGradient id="c" gradientUnits="userSpaceOnUse" x1="9" y1="17.5" x2="9" y2=".5" gradientTransform="scale(3.55556)"><stop offset="0" style="stop-color:#198ab3;stop-opacity:1"/><stop offset=".442" style="stop-color:#28b7db;stop-opacity:1"/><stop offset=".775" style="stop-color:#32d4f5;stop-opacity:1"/></linearGradient><clipPath id="b"><path d="M0 0h64v64H0z"/></clipPath><filter id="a" filterUnits="objectBoundingBox" x="0%" y="0%" width="100%" height="100%"><feColorMatrix in="SourceGraphic" values="0 0 0 0 1 0 0 0 0 1 0 0 0 0 1 0 0 0 1 0"/></filter><mask id="e"><g filter="url(#a)"><path style="fill:#000;fill-opacity:.701961;stroke:none" d="M0 0h64v64H0z"/></g></mask><g id="d" clip-path="url(#b)"><path style="stroke:none;fill-rule:nonzero;fill:#fff;fill-opacity:1" d="M32 17.031 45.988 50.95l-9.43-41.148Zm0 0"/></g></defs><path style="stroke:none;fill-rule:nonzero;fill:url(#c)" d="M62.223 32c0 16.691-13.532 30.223-30.223 30.223S1.777 48.69 1.777 32 15.31 1.777 32 1.777 62.223 15.31 62.223 32Zm0 0"/><path style="stroke:none;fill-rule:nonzero;fill:#9cebff;fill-opacity:1" d="M36.559 9.8 14.012 45.583l28.226-10.945Zm0 0"/><use xlink:href="#d" mask="url(#e)"/><path style="stroke:none;fill-rule:nonzero;fill:#32bedd;fill-opacity:1" d="m31.188 38.922 8.484-3.29 6.316 15.317Zm0 0"/></svg>