<svg xmlns="http://www.w3.org/2000/svg" width="64" height="64"><path style="stroke:none;fill-rule:nonzero;fill:#a3a3a3;fill-opacity:1" d="M32 0 4.09 15.965v10.668l10.844 6.574v-6.398l-5.688-3.27v-4.41L32 5.973l22.754 13.191v25.527L32 57.848 4.09 41.883v5.976L32 64l27.91-15.965v-32Zm0 0"/><path style="stroke:none;fill-rule:nonzero;fill:#949494;fill-opacity:1" d="M32 0 4.09 15.965l5.156 3.164L32 5.973l22.754 13.156 5.156-3.164Zm0 0"/><path style="stroke:none;fill-rule:nonzero;fill:#32bedd;fill-opacity:1" d="M47.11 23.254v17.492L32 49.527V32.035Zm0 0"/><path style="stroke:none;fill-rule:nonzero;fill:#9cebff;fill-opacity:1" d="M47.11 23.254 32 32.035l-15.11-8.781L32 14.473Zm0 0"/><path style="stroke:none;fill-rule:nonzero;fill:#50e6ff;fill-opacity:1" d="M32 32.035v17.492l-15.11-8.78V23.253Zm0 0"/><path style="stroke:none;fill-rule:nonzero;fill:#9cebff;fill-opacity:1" d="M16.89 40.746 32 32.036v17.491Zm0 0"/><path style="stroke:none;fill-rule:nonzero;fill:#50e6ff;fill-opacity:1" d="M47.11 40.746 32 32.036v17.491Zm0 0"/></svg>