<svg xmlns="http://www.w3.org/2000/svg" width="64" height="64"><defs><linearGradient id="a" gradientUnits="userSpaceOnUse" x1="9.13" y1="18.81" x2="8.85" y2="-8.1" gradientTransform="scale(3.55556)"><stop offset="0" style="stop-color:#198ab3;stop-opacity:1"/><stop offset="0" style="stop-color:#198ab3;stop-opacity:1"/><stop offset=".09" style="stop-color:#22a5cb;stop-opacity:1"/><stop offset=".19" style="stop-color:#29bade;stop-opacity:1"/><stop offset=".29" style="stop-color:#2ec9eb;stop-opacity:1"/><stop offset=".42" style="stop-color:#31d1f3;stop-opacity:1"/><stop offset=".62" style="stop-color:#32d4f5;stop-opacity:1"/></linearGradient></defs><path style="stroke:none;fill-rule:nonzero;fill:#fff;fill-opacity:1" d="M47.54 30.008a7.003 7.003 0 0 1-7.005 7.004 7.003 7.003 0 1 1 0-14.008 7.005 7.005 0 0 1 7.004 7.004ZM57.777 50.844a5.513 5.513 0 0 1-5.511 5.511 5.513 5.513 0 0 1-5.512-5.511 5.513 5.513 0 0 1 5.512-5.512 5.513 5.513 0 0 1 5.511 5.512ZM35.2 47.074a4.729 4.729 0 1 1-9.458.004 4.729 4.729 0 0 1 9.457-.004ZM32.926 11.059a5.867 5.867 0 1 1-11.734 0 5.867 5.867 0 0 1 11.734 0ZM16.07 32.676a4.729 4.729 0 1 1-9.457 0 4.73 4.73 0 1 1 9.457 0Zm0 0"/><path style="stroke:none;fill-rule:nonzero;fill:#949494;fill-opacity:1" d="m53.547 49.742-11.84-20.73-1.172.675.957-.71L28.09 9.922l-2.453 1.777 11.875 16.887-26.313 2.168.25 3.058 26.063-2.167-8.64 14.363 2.593 1.566 8.89-14.793 10.56 18.453ZM62.328 4.375a2.596 2.596 0 0 0-2.594-2.598H46.223c-.707 0-1.282.575-1.282 1.282V8.07c0 .707.575 1.282 1.282 1.282h8.355v8.175c.02.72.598 1.297 1.317 1.317h4.976a1.354 1.354 0 0 0 1.316-1.317V4.375ZM17.777 54.648H9.281v-8.175a1.354 1.354 0 0 0-1.316-1.317H2.988a1.354 1.354 0 0 0-1.316 1.317v13.152a2.596 2.596 0 0 0 2.594 2.563h13.511c.707 0 1.282-.575 1.282-1.282V55.93c0-.707-.575-1.282-1.282-1.282Zm0 0"/><path style="stroke:none;fill-rule:nonzero;fill:url(#a)" d="M40.535 23.074a7.114 7.114 0 0 1 4.961 12.203 7.112 7.112 0 1 1-4.96-12.203ZM21.332 11.06a5.905 5.905 0 0 0 3.652 5.488 5.901 5.901 0 1 0 2.11-11.355 5.868 5.868 0 0 0-5.762 5.867ZM6.613 32.64a4.729 4.729 0 1 0 9.458-.005 4.729 4.729 0 0 0-9.458.005Zm19.13 14.398a4.766 4.766 0 0 0 2.917 4.43 4.77 4.77 0 0 0 5.203-1.012 4.754 4.754 0 0 0 1.047-5.195 4.76 4.76 0 0 0-4.402-2.95 4.73 4.73 0 0 0-4.766 4.727Zm21.05 3.805a5.504 5.504 0 0 0 3.375 5.117 5.514 5.514 0 0 0 6.02-1.172 5.522 5.522 0 0 0 1.21-6.012 5.515 5.515 0 0 0-5.097-3.41 5.442 5.442 0 0 0-5.508 5.477Zm0 0"/></svg>