<svg xmlns="http://www.w3.org/2000/svg" width="64" height="64"><defs><radialGradient id="b" gradientUnits="userSpaceOnUse" cx="9.36" cy="10.57" fx="9.36" fy="10.57" r="7.07" gradientTransform="scale(3.55556)"><stop offset="0" style="stop-color:#f2f2f2;stop-opacity:1"/><stop offset=".58" style="stop-color:#eee;stop-opacity:1"/><stop offset="1" style="stop-color:#e6e6e6;stop-opacity:1"/></radialGradient><linearGradient id="a" gradientUnits="userSpaceOnUse" x1="2.59" y1="10.16" x2="15.41" y2="10.16" gradientTransform="scale(3.55556)"><stop offset="0" style="stop-color:#005ba1;stop-opacity:1"/><stop offset=".07" style="stop-color:#0060a9;stop-opacity:1"/><stop offset=".36" style="stop-color:#0071c8;stop-opacity:1"/><stop offset=".52" style="stop-color:#0078d4;stop-opacity:1"/><stop offset=".64" style="stop-color:#0074cd;stop-opacity:1"/><stop offset=".82" style="stop-color:#006abb;stop-opacity:1"/><stop offset="1" style="stop-color:#005ba1;stop-opacity:1"/></linearGradient></defs><path style="stroke:none;fill-rule:nonzero;fill:url(#a)" d="M32 18.277c-12.586 0-22.793-3.558-22.793-8.25v43.946c0 4.515 10.027 8.18 22.473 8.25H32c12.586 0 22.793-3.555 22.793-8.25V10.027c0 4.586-10.207 8.25-22.793 8.25Zm0 0"/><path style="stroke:none;fill-rule:nonzero;fill:#e8e8e8;fill-opacity:1" d="M54.793 10.027c0 4.586-10.207 8.25-22.793 8.25-12.586 0-22.793-3.558-22.793-8.25 0-4.695 10.207-8.25 22.793-8.25 12.586 0 22.793 3.555 22.793 8.25"/><path style="stroke:none;fill-rule:nonzero;fill:#50e6ff;fill-opacity:1" d="M49.492 9.352c0 2.914-7.855 5.261-17.492 5.261s-17.492-2.347-17.492-5.261c0-2.915 7.855-5.227 17.492-5.227s17.492 2.348 17.492 5.227"/><path style="stroke:none;fill-rule:nonzero;fill:#198ab3;fill-opacity:1" d="M32 10.668a41.044 41.044 0 0 0-13.832 2.023A40.506 40.506 0 0 0 32 14.613a39.713 39.713 0 0 0 13.832-2.062A42.003 42.003 0 0 0 32 10.668Zm0 0"/><path style="stroke:none;fill-rule:nonzero;fill:url(#b)" d="M45.867 40.535v-12.09h-3.199V43.13h8.746v-2.594ZM20.48 34.594a6.476 6.476 0 0 1-1.812-1.102c-.305-.3-.473-.71-.465-1.137a1.25 1.25 0 0 1 .57-1.066c.438-.305.961-.453 1.493-.426a5.903 5.903 0 0 1 3.554 1.032v-3.06a9.495 9.495 0 0 0-3.554-.57 5.826 5.826 0 0 0-3.875 1.212 3.841 3.841 0 0 0-1.493 3.164c0 1.812 1.137 3.234 3.555 4.3.785.336 1.527.766 2.203 1.282.34.28.532.699.535 1.136 0 .438-.21.848-.57 1.102-.476.3-1.039.437-1.598.39a5.885 5.885 0 0 1-3.875-1.492v3.309a7.684 7.684 0 0 0 3.801.852 6.692 6.692 0 0 0 4.2-1.172 3.851 3.851 0 0 0 1.171-3.239c.016-.91-.3-1.793-.89-2.488a8.64 8.64 0 0 0-2.95-2.027Zm18.63 5.656a8.325 8.325 0 0 0 1.175-4.48A8.271 8.271 0 0 0 39.11 32a6.45 6.45 0 0 0-2.488-2.668 7.078 7.078 0 0 0-3.555-.922 7.5 7.5 0 0 0-3.84.957A6.621 6.621 0 0 0 26.634 32a8.696 8.696 0 0 0-.926 4.055c.008 1.234.3 2.449.852 3.554a6.271 6.271 0 0 0 2.453 2.63 7.352 7.352 0 0 0 3.558 1.07l3.055 3.554h4.305l-4.375-3.914a6.344 6.344 0 0 0 3.554-2.699Zm-3.555-.89a3.34 3.34 0 0 1-2.703 1.245 3.282 3.282 0 0 1-2.7-1.28 5.388 5.388 0 0 1-1.03-3.555 5.432 5.432 0 0 1 1.03-3.555 3.548 3.548 0 0 1 2.774-1.317 3.08 3.08 0 0 1 2.664 1.317 5.737 5.737 0 0 1 .96 3.555 5.18 5.18 0 0 1-.995 3.59Zm0 0"/></svg>