<svg xmlns="http://www.w3.org/2000/svg" width="64" height="64"><defs><linearGradient id="a" gradientUnits="userSpaceOnUse" x1="9" y1="17.826" x2="9" y2=".826" gradientTransform="scale(3.55556)"><stop offset="0" style="stop-color:#198ab3;stop-opacity:1"/><stop offset=".442" style="stop-color:#28b7db;stop-opacity:1"/><stop offset=".775" style="stop-color:#32d4f5;stop-opacity:1"/></linearGradient><linearGradient id="b" gradientUnits="userSpaceOnUse" x1="5.75" y1="-3114.591" x2="12.303" y2="-3119.908" gradientTransform="scale(3.55556)"><stop offset="0" style="stop-color:#fff;stop-opacity:.901961"/><stop offset="1" style="stop-color:#fff;stop-opacity:.8"/></linearGradient></defs><path style="stroke:none;fill-rule:nonzero;fill:url(#a)" d="M62.223 33.16c0 16.692-13.532 30.223-30.223 30.223S1.777 49.852 1.777 33.16C1.777 16.47 15.31 2.938 32 2.938s30.223 13.53 30.223 30.222Zm0 0"/><path style="stroke:none;fill-rule:nonzero;fill:url(#b)" d="M31.324 53.57c-3.46-2.133-14.758-9.765-14.758-18.683V23.484l1.211-.074c2.993.012 5.914-.91 8.356-2.637A8.835 8.835 0 0 1 32 19.031a8.922 8.922 0 0 1 5.86 1.735 14.406 14.406 0 0 0 8.363 2.644l1.207.074v11.403c0 8.918-11.297 16.554-14.762 18.683l-.668.414Zm0 0"/><path style="stroke:none;fill-rule:nonzero;fill:#50e6ff;fill-opacity:1" d="M32 52.063c-6.707-4.16-13.8-10.817-13.8-17.176V25.02a15.793 15.793 0 0 0 8.84-2.887A7.218 7.218 0 0 1 32 20.668a7.379 7.379 0 0 1 4.957 1.46 15.81 15.81 0 0 0 8.844 2.892v9.867c0 6.36-7.094 13.015-13.801 17.175Zm0 0"/><path style="stroke:none;fill-rule:nonzero;fill:#fff;fill-opacity:1" d="M59.188 50.074a4.629 4.629 0 1 1-9.258 0 4.629 4.629 0 0 1 9.258 0Zm0 0"/><path style="stroke:none;fill-rule:nonzero;fill:#b3b3b3;fill-opacity:1" d="M54.559 45.445a4.621 4.621 0 1 1 0 9.242 4.62 4.62 0 1 1 0-9.242m0-2.316a6.943 6.943 0 0 0-6.942 6.95c0 3.839 3.113 6.948 6.95 6.944a6.948 6.948 0 0 0 6.945-6.949c-.008-3.832-3.114-6.941-6.946-6.945Zm0 0"/><path style="stroke:none;fill-rule:nonzero;fill:#fff;fill-opacity:1" d="M14.07 50.074a4.629 4.629 0 1 1-9.258 0 4.629 4.629 0 0 1 9.258 0Zm0 0"/><path style="stroke:none;fill-rule:nonzero;fill:#b3b3b3;fill-opacity:1" d="M9.441 45.445a4.62 4.62 0 1 1 0 9.242 4.621 4.621 0 1 1 0-9.242m0-2.316a6.947 6.947 0 1 0-.004 13.894c3.84 0 6.95-3.113 6.946-6.949A6.95 6.95 0 0 0 9.44 43.13Zm0 0"/><path style="stroke:none;fill-rule:nonzero;fill:#fff;fill-opacity:1" d="M36.629 7.566a4.629 4.629 0 1 1-9.257 0 4.629 4.629 0 0 1 9.257 0Zm0 0"/><path style="stroke:none;fill-rule:nonzero;fill:#b3b3b3;fill-opacity:1" d="M32 2.938a4.62 4.62 0 0 1 4.621 4.62A4.618 4.618 0 0 1 32 12.18a4.618 4.618 0 0 1-4.621-4.621A4.62 4.62 0 0 1 32 2.937m0-2.32a6.948 6.948 0 0 0-6.95 6.945 6.947 6.947 0 1 0 13.895.004A6.956 6.956 0 0 0 32 .617Zm0 0"/></svg>