<svg xmlns="http://www.w3.org/2000/svg" xmlns:xlink="http://www.w3.org/1999/xlink" width="64" height="64"><defs><clipPath id="b"><path d="M0 0h64v64H0z"/></clipPath><clipPath id="c"><path d="M0 0h64v64H0z"/></clipPath><clipPath id="d"><path d="M0 0h64v64H0z"/></clipPath><mask id="g"><g filter="url(#a)"><path style="fill:#000;fill-opacity:.74902;stroke:none" d="M0 0h64v64H0z"/></g></mask><mask id="i"><g filter="url(#a)"><path style="fill:#000;fill-opacity:.74902;stroke:none" d="M0 0h64v64H0z"/></g></mask><mask id="k"><g filter="url(#a)"><path style="fill:#000;fill-opacity:.74902;stroke:none" d="M0 0h64v64H0z"/></g></mask><g id="f" clip-path="url(#b)"><path style="stroke:none;fill-rule:nonzero;fill:#ff9300;fill-opacity:1" d="M28.691 57.352a.9.9 0 0 0 1.004.199c.34-.153.551-.5.528-.875V40.78a.853.853 0 0 0-.426-.781.888.888 0 0 0-1.387.781v15.895c0 .254.102.496.281.676Zm0 0"/></g><g id="h" clip-path="url(#c)"><path style="stroke:none;fill-rule:nonzero;fill:#ff9300;fill-opacity:1" d="M23.004 19.094h18.558c.63 0 1.141.508 1.141 1.136v.18c0 .63-.512 1.137-1.14 1.137h-18.56a1.135 1.135 0 0 1-1.136-1.137v-.18c0-.628.508-1.136 1.137-1.136Zm0 0"/></g><g id="j" clip-path="url(#d)"><path style="stroke:none;fill-rule:nonzero;fill:#ff9300;fill-opacity:1" d="M23.004 23.074h18.558c.63 0 1.141.512 1.141 1.14v.177c0 .629-.512 1.136-1.14 1.136h-18.56a1.135 1.135 0 0 1-1.136-1.136v-.176c0-.63.508-1.14 1.137-1.14Zm0 0"/></g><radialGradient id="e" gradientUnits="userSpaceOnUse" cx="125.5" cy="123.98" fx="125.5" fy="123.98" r="11.18" gradientTransform="translate(-392.391 -385.422) scale(3.34222)"><stop offset=".27" style="stop-color:#ffd70f;stop-opacity:1"/><stop offset=".49" style="stop-color:#ffcb12;stop-opacity:1"/><stop offset=".88" style="stop-color:#feac19;stop-opacity:1"/><stop offset="1" style="stop-color:#fea11b;stop-opacity:1"/></radialGradient><filter id="a" filterUnits="objectBoundingBox" x="0%" y="0%" width="100%" height="100%"><feColorMatrix in="SourceGraphic" values="0 0 0 0 1 0 0 0 0 1 0 0 0 0 1 0 0 0 1 0"/></filter></defs><path style="stroke:none;fill-rule:nonzero;fill:url(#e)" d="M49.777 25.246a7.322 7.322 0 0 0 2.157-5.191c0-1.95-.774-3.817-2.157-5.192L37.191 2.168A7.332 7.332 0 0 0 32 .012c-1.95 0-3.816.777-5.191 2.156L14.223 14.863a7.316 7.316 0 0 0-2.157 5.192c0 1.945.774 3.816 2.157 5.191L24.89 35.91c.386.387.605.91.601 1.457v19.524c.004.668.274 1.304.746 1.777l4.801 4.797a1.598 1.598 0 0 0 2.348 0l4.656-4.656 2.738-2.774a.922.922 0 0 0 0-1.351l-1.953-1.954a1.025 1.025 0 0 1-.32-.75c0-.28.113-.55.32-.746l1.953-1.988a.928.928 0 0 0 0-1.351l-1.953-1.993a.996.996 0 0 1-.32-.73c0-.274.117-.54.32-.727l1.953-1.992a.922.922 0 0 0 0-1.351l-2.738-2.774v-.996ZM32 5.226a4.2 4.2 0 0 1 3.906 2.575c.657 1.57.301 3.383-.902 4.59a4.205 4.205 0 0 1-4.59.902 4.2 4.2 0 0 1-2.574-3.906A4.161 4.161 0 0 1 32 5.227Zm0 0"/><use xlink:href="#f" mask="url(#g)"/><use xlink:href="#h" mask="url(#i)"/><use xlink:href="#j" mask="url(#k)"/></svg>