<svg xmlns="http://www.w3.org/2000/svg" width="64" height="64"><defs><linearGradient id="a" gradientUnits="userSpaceOnUse" x1="5.05" y1="10.55" x2="5.05" y2="13.48" gradientTransform="scale(3.55556)"><stop offset="0" style="stop-color:#76bc2d;stop-opacity:1"/><stop offset="1" style="stop-color:#5e9624;stop-opacity:1"/></linearGradient><linearGradient id="b" gradientUnits="userSpaceOnUse" x1="12.84" y1="10.57" x2="12.84" y2="13.5" gradientTransform="scale(3.55556)"><stop offset="0" style="stop-color:#76bc2d;stop-opacity:1"/><stop offset="1" style="stop-color:#5e9624;stop-opacity:1"/></linearGradient></defs><path style="stroke:none;fill-rule:nonzero;fill:#949494;fill-opacity:1" d="M11.344 55.465a8.84 8.84 0 0 1-5.442-1.348 6.059 6.059 0 0 1-1.601-4.836v-12.55c0-2.063-.817-3.169-2.524-3.169v-3.124c1.707 0 2.524-1.106 2.524-3.274V14.828a6.388 6.388 0 0 1 1.601-4.945 8.135 8.135 0 0 1 5.442-1.348V11.7c-1.817 0-2.809.957-2.809 3.02v12.09c0 2.773-.82 4.48-2.633 5.191a5.05 5.05 0 0 1 2.633 5.191v11.98a4.44 4.44 0 0 0 .602 2.419 2.618 2.618 0 0 0 2.062.71v3.165ZM52.656 8.535a8.84 8.84 0 0 1 5.442 1.348 6.059 6.059 0 0 1 1.601 4.836v12.55c0 2.063.817 3.169 2.524 3.169v3.125c-1.707 0-2.524 1.105-2.524 3.273V49.03a6.395 6.395 0 0 1-1.601 4.977 8.087 8.087 0 0 1-5.442 1.457V52.3c1.817 0 2.809-.957 2.809-3.02v-12.09c0-2.773.82-4.48 2.633-5.191a5.05 5.05 0 0 1-2.633-5.191v-11.98a4.44 4.44 0 0 0-.602-2.419 2.618 2.618 0 0 0-2.062-.71Zm0 0"/><path style="stroke:none;fill-rule:nonzero;fill:#005ba1;fill-opacity:1" d="M33.457 29.688v-4.516h-3.2v4.515c0 .356-.284.641-.64.641h-11.84c-.707 0-1.28.574-1.28 1.281v5.868h3.202v-3.239a.63.63 0 0 1 .602-.636h23.254c.355 0 .64.285.64.636v3.309h3.164v-5.938a1.28 1.28 0 0 0-1.242-1.28h-12.02a.641.641 0 0 1-.64-.642Zm0 0"/><path style="stroke:none;fill-rule:nonzero;fill:#0078d4;fill-opacity:1" d="M37.723 11.414H25.777c-.73 0-1.332.582-1.351 1.316v11.946c0 .355.144.695.398.941.254.25.598.383.953.375h11.946c.363.02.715-.113.976-.36a1.29 1.29 0 0 0 .41-.956V12.73a1.35 1.35 0 0 0-1.386-1.316Zm-1.137 11.27a.89.89 0 0 1-.887.855h-7.93a.894.894 0 0 1-.89-.855v-7.93a.89.89 0 0 1 .89-.887h7.786a.89.89 0 0 1 .89.887Zm0 0"/><path style="stroke:none;fill-rule:nonzero;fill:url(#a)" d="M13.688 37.512h8.535c.53 0 .96.43.96.96v8.532a.96.96 0 0 1-.96.96h-8.535a.96.96 0 0 1-.958-.96v-8.531c0-.532.43-.961.957-.961Zm0 0"/><path style="stroke:none;fill-rule:nonzero;fill:url(#b)" d="M41.422 37.582h8.535a.96.96 0 0 1 .957.961v8.531a.96.96 0 0 1-.957.961h-8.535a.96.96 0 0 1-.961-.96v-8.532c0-.531.43-.961.96-.961Zm0 0"/></svg>