<svg xmlns="http://www.w3.org/2000/svg" xmlns:xlink="http://www.w3.org/1999/xlink" width="64" height="64"><defs><clipPath id="b"><path d="M0 0h64v64H0z"/></clipPath><clipPath id="c"><path d="M0 0h64v64H0z"/></clipPath><clipPath id="d"><path d="M0 0h64v64H0z"/></clipPath><clipPath id="e"><path d="M0 0h64v64H0z"/></clipPath><mask id="i"><g filter="url(#a)"><path style="fill:#000;fill-opacity:.501961;stroke:none" d="M0 0h64v64H0z"/></g></mask><mask id="k"><g filter="url(#a)"><path style="fill:#000;fill-opacity:.501961;stroke:none" d="M0 0h64v64H0z"/></g></mask><mask id="m"><g filter="url(#a)"><path style="fill:#000;fill-opacity:.501961;stroke:none" d="M0 0h64v64H0z"/></g></mask><mask id="o"><g filter="url(#a)"><path style="fill:#000;fill-opacity:.501961;stroke:none" d="M0 0h64v64H0z"/></g></mask><g id="h" clip-path="url(#b)"><path style="stroke:none;fill-rule:nonzero;fill:#999;fill-opacity:1" d="M4.09 4.516h4.586v12.8c0 .57-.461 1.032-1.031 1.032H3.094a1.03 1.03 0 0 1-1.031-1.032V6.648a2.03 2.03 0 0 1 .554-1.503 2.03 2.03 0 0 1 1.473-.63Zm0 0"/></g><g id="j" clip-path="url(#c)"><path style="stroke:none;fill-rule:nonzero;fill:#999;fill-opacity:1" d="M55.895 4.516h4.55c1.117 0 2.028.906 2.028 2.027v10.664c0 .57-.465 1.031-1.032 1.031h-4.55a1.03 1.03 0 0 1-1.032-1.031V4.516Zm0 0"/></g><g id="l" clip-path="url(#d)"><path style="stroke:none;fill-rule:nonzero;fill:#999;fill-opacity:1" d="M3.094 44.516H7.68c.57 0 1.03.46 1.03 1.03v12.802H4.09a2.028 2.028 0 0 1-2.027-2.028V45.652a1.03 1.03 0 0 1 1.031-1.137Zm0 0"/></g><g id="n" clip-path="url(#e)"><path style="stroke:none;fill-rule:nonzero;fill:#999;fill-opacity:1" d="M56.89 44.516h4.622c.57 0 1.031.46 1.031 1.03v10.669a2.025 2.025 0 0 1-2.027 2.023h-4.621V45.441c.05-.515.476-.91.996-.925Zm0 0"/></g><linearGradient id="f" gradientUnits="userSpaceOnUse" x1="6.11" y1="12.5" x2="6.11" y2="9.42" gradientTransform="scale(3.55556)"><stop offset="0" style="stop-color:#6f4bb2;stop-opacity:1"/><stop offset="1" style="stop-color:#c69aeb;stop-opacity:1"/></linearGradient><linearGradient id="g" gradientUnits="userSpaceOnUse" x1="12.06" y1="12.5" x2="12.06" y2="9.42" gradientTransform="scale(3.55556)"><stop offset="0" style="stop-color:#6f4bb2;stop-opacity:1"/><stop offset="1" style="stop-color:#c69aeb;stop-opacity:1"/></linearGradient><filter id="a" filterUnits="objectBoundingBox" x="0%" y="0%" width="100%" height="100%"><feColorMatrix in="SourceGraphic" values="0 0 0 0 1 0 0 0 0 1 0 0 0 0 1 0 0 0 1 0"/></filter></defs><path style="stroke:none;fill-rule:nonzero;fill:#949494;fill-opacity:1" d="M44.02 38.363 33.422 21.367l-.961.606-.922-.606-10.633 16.996 2.168 1.317 9.387-15.04 9.422 15.075Zm0 0"/><path style="stroke:none;fill-rule:nonzero;fill:#86d633;fill-opacity:1" d="M37.762 22.078a5.476 5.476 0 0 1-5.477 5.477 5.476 5.476 0 1 1 0-10.95 5.475 5.475 0 0 1 5.477 5.473Zm0 0"/><path style="stroke:none;fill-rule:nonzero;fill:url(#f)" d="M27.2 38.969a5.476 5.476 0 1 1-10.95 0 5.475 5.475 0 1 1 10.95 0Zm0 0"/><path style="stroke:none;fill-rule:nonzero;fill:url(#g)" d="M48.355 38.969a5.475 5.475 0 1 1-10.95 0 5.475 5.475 0 1 1 10.95 0Zm0 0"/><path style="stroke:none;fill-rule:nonzero;fill:#999;fill-opacity:1" d="M4.09 4.516h4.586v12.8c0 .57-.461 1.032-1.031 1.032H3.094a1.03 1.03 0 0 1-1.031-1.032V6.648a2.03 2.03 0 0 1 .554-1.503 2.03 2.03 0 0 1 1.473-.63Zm0 0"/><use xlink:href="#h" mask="url(#i)"/><path style="stroke:none;fill-rule:nonzero;fill:#999;fill-opacity:1" d="M55.895 4.516h4.55c1.117 0 2.028.906 2.028 2.027v10.664c0 .57-.465 1.031-1.032 1.031h-4.55a1.03 1.03 0 0 1-1.032-1.031V4.516Zm0 0"/><use xlink:href="#j" mask="url(#k)"/><path style="stroke:none;fill-rule:nonzero;fill:#949494;fill-opacity:1" d="M62.508 6.543v4.48H2.062v-4.48c0-1.121.907-2.027 2.028-2.027h56.39c1.118 0 2.028.906 2.028 2.027Zm0 0"/><path style="stroke:none;fill-rule:nonzero;fill:#999;fill-opacity:1" d="M3.094 44.516H7.68c.57 0 1.03.46 1.03 1.03v12.802H4.09a2.028 2.028 0 0 1-2.027-2.028V45.652a1.03 1.03 0 0 1 1.031-1.137Zm0 0"/><use xlink:href="#l" mask="url(#m)"/><path style="stroke:none;fill-rule:nonzero;fill:#999;fill-opacity:1" d="M56.89 44.516h4.622c.57 0 1.031.46 1.031 1.03v10.669a2.025 2.025 0 0 1-2.027 2.023h-4.621V45.441c.05-.515.476-.91.996-.925Zm0 0"/><use xlink:href="#n" mask="url(#o)"/><path style="stroke:none;fill-rule:nonzero;fill:#949494;fill-opacity:1" d="M2.063 56.355v-4.48h60.445v4.48c0 1.122-.91 2.028-2.028 2.028H4.09a2.026 2.026 0 0 1-2.027-2.028Zm0 0"/></svg>