<svg xmlns="http://www.w3.org/2000/svg" xmlns:xlink="http://www.w3.org/1999/xlink" width="64" height="64"><defs><clipPath id="b"><path d="M0 0h64v64H0z"/></clipPath><clipPath id="c"><path d="M0 0h64v64H0z"/></clipPath><clipPath id="d"><path d="M0 0h64v64H0z"/></clipPath><clipPath id="e"><path d="M0 0h64v64H0z"/></clipPath><mask id="g"><g filter="url(#a)"><path style="fill:#000;fill-opacity:.501961;stroke:none" d="M0 0h64v64H0z"/></g></mask><mask id="i"><g filter="url(#a)"><path style="fill:#000;fill-opacity:.501961;stroke:none" d="M0 0h64v64H0z"/></g></mask><mask id="k"><g filter="url(#a)"><path style="fill:#000;fill-opacity:.501961;stroke:none" d="M0 0h64v64H0z"/></g></mask><mask id="m"><g filter="url(#a)"><path style="fill:#000;fill-opacity:.501961;stroke:none" d="M0 0h64v64H0z"/></g></mask><g id="f" clip-path="url(#b)"><path style="stroke:none;fill-rule:nonzero;fill:#a3a3a3;fill-opacity:1" d="M3.77 5.05h4.585v12.727c0 .57-.46 1.032-1.03 1.032H2.737a1.03 1.03 0 0 1-1.031-1.032V7.11A2.02 2.02 0 0 1 3.77 5.051Zm0 0"/></g><g id="h" clip-path="url(#c)"><path style="stroke:none;fill-rule:nonzero;fill:#a3a3a3;fill-opacity:1" d="M55.645 5.05h4.585c1.122 0 2.028.907 2.028 2.024v10.703c0 .57-.461 1.032-1.031 1.032h-4.551a1.03 1.03 0 0 1-1.031-1.032Zm0 0"/></g><g id="j" clip-path="url(#d)"><path style="stroke:none;fill-rule:nonzero;fill:#a3a3a3;fill-opacity:1" d="M2.738 45.121h4.586c.57 0 1.031.461 1.031 1.031v12.836H3.77a2.047 2.047 0 0 1-1.485-.605 2.043 2.043 0 0 1-.578-1.492V46.223c-.02-.285.078-.567.273-.778.2-.207.473-.324.758-.324Zm0 0"/></g><g id="l" clip-path="url(#e)"><path style="stroke:none;fill-rule:nonzero;fill:#a3a3a3;fill-opacity:1" d="M56.676 45.121h4.586c.57 0 1.031.461 1.031 1.031v10.664a2.026 2.026 0 0 1-2.027 2.028h-4.621V46.223a1.026 1.026 0 0 1 1.03-1.102Zm0 0"/></g><linearGradient id="n" gradientUnits="userSpaceOnUse" x1="7.94" y1="7.7" x2="7.94" y2="3.75" gradientTransform="scale(3.55556)"><stop offset="0" style="stop-color:#5e9624;stop-opacity:1"/><stop offset="1" style="stop-color:#76bc2d;stop-opacity:1"/></linearGradient><linearGradient id="o" gradientUnits="userSpaceOnUse" x1="7.94" y1="14.26" x2="7.94" y2="10.31" gradientTransform="scale(3.55556)"><stop offset="0" style="stop-color:#5e9624;stop-opacity:1"/><stop offset="1" style="stop-color:#76bc2d;stop-opacity:1"/></linearGradient><filter id="a" filterUnits="objectBoundingBox" x="0%" y="0%" width="100%" height="100%"><feColorMatrix in="SourceGraphic" values="0 0 0 0 1 0 0 0 0 1 0 0 0 0 1 0 0 0 1 0"/></filter></defs><path style="stroke:none;fill-rule:nonzero;fill:#a3a3a3;fill-opacity:1" d="M3.77 5.05h4.585v12.727c0 .57-.46 1.032-1.03 1.032H2.737a1.03 1.03 0 0 1-1.031-1.032V7.11A2.02 2.02 0 0 1 3.77 5.051Zm0 0"/><use xlink:href="#f" mask="url(#g)"/><path style="stroke:none;fill-rule:nonzero;fill:#a3a3a3;fill-opacity:1" d="M55.645 5.05h4.585c1.122 0 2.028.907 2.028 2.024v10.703c0 .57-.461 1.032-1.031 1.032h-4.551a1.03 1.03 0 0 1-1.031-1.032Zm0 0"/><use xlink:href="#h" mask="url(#i)"/><path style="stroke:none;fill-rule:nonzero;fill:#949494;fill-opacity:1" d="M62.258 7.04v4.444H1.812V7.04c0-1.117.907-2.027 2.028-2.027h56.39c1.122 0 2.028.91 2.028 2.027Zm0 0"/><path style="stroke:none;fill-rule:nonzero;fill:#a3a3a3;fill-opacity:1" d="M2.738 45.121h4.586c.57 0 1.031.461 1.031 1.031v12.836H3.77a2.047 2.047 0 0 1-1.485-.605 2.043 2.043 0 0 1-.578-1.492V46.223c-.02-.285.078-.567.273-.778.2-.207.473-.324.758-.324Zm0 0"/><use xlink:href="#j" mask="url(#k)"/><path style="stroke:none;fill-rule:nonzero;fill:#a3a3a3;fill-opacity:1" d="M56.676 45.121h4.586c.57 0 1.031.461 1.031 1.031v10.664a2.026 2.026 0 0 1-2.027 2.028h-4.621V46.223a1.026 1.026 0 0 1 1.03-1.102Zm0 0"/><use xlink:href="#l" mask="url(#m)"/><path style="stroke:none;fill-rule:nonzero;fill:#949494;fill-opacity:1" d="M1.707 56.96v-4.444h60.445v4.445a2.03 2.03 0 0 1-2.027 2.027H3.735a2.028 2.028 0 0 1-2.028-2.027Zm0 0"/><path style="stroke:none;fill-rule:nonzero;fill:#5ea0ef;fill-opacity:1" d="m53.012 31.43-6.469-6.54a.315.315 0 0 0-.383-.097.32.32 0 0 0-.187.344v4.02a.322.322 0 0 1-.355.355h-18.63a3.728 3.728 0 0 0-2.953-1.457 3.906 3.906 0 0 0-3.695 1.828 3.906 3.906 0 0 0 0 4.125 3.909 3.909 0 0 0 3.695 1.832 3.848 3.848 0 0 0 2.988-1.492h18.594c.09-.012.184.02.25.078a.33.33 0 0 1 .106.242v3.945a.322.322 0 0 0 .207.313.328.328 0 0 0 .363-.098l6.469-6.437a.71.71 0 0 0 0-.961Zm0 0"/><path style="stroke:none;fill-rule:nonzero;fill:url(#n)" d="m41.066 19.875-6.472-6.434a.316.316 0 0 0-.38-.097.315.315 0 0 0-.187.344v4.09a.322.322 0 0 1-.32.355H22.043a3.807 3.807 0 0 0-2.984-1.457 3.913 3.913 0 0 0-3.887 3.012 3.912 3.912 0 0 0 6.906 3.28h11.629c.176 0 .32.145.32.321v3.77a.317.317 0 0 0 .566.21l6.473-6.433a.71.71 0 0 0 0-.961Zm0 0"/><path style="stroke:none;fill-rule:nonzero;fill:url(#o)" d="m41.066 43.2-6.472-6.434a.316.316 0 0 0-.38-.098.315.315 0 0 0-.187.344v3.914a.356.356 0 0 1-.32.355H22.043a3.81 3.81 0 0 0-2.984-1.46 3.918 3.918 0 0 0-3.805 3.023 3.908 3.908 0 0 0 2.074 4.394 3.907 3.907 0 0 0 4.75-1.015h11.629c.176 0 .32.144.32.32v3.945a.317.317 0 0 0 .207.313.322.322 0 0 0 .36-.098l6.472-6.437a.709.709 0 0 0 0-1.067Zm0 0"/></svg>