<svg xmlns="http://www.w3.org/2000/svg" width="64" height="64"><defs><linearGradient id="a" gradientUnits="userSpaceOnUse" x1="9.09" y1="17.5" x2="9.09" y2="1.36" gradientTransform="scale(3.55556)"><stop offset="0" style="stop-color:#ef7100;stop-opacity:1"/><stop offset=".13" style="stop-color:#f27d07;stop-opacity:1"/><stop offset=".43" style="stop-color:#f69113;stop-opacity:1"/><stop offset=".72" style="stop-color:#f99e1b;stop-opacity:1"/><stop offset="1" style="stop-color:#faa21d;stop-opacity:1"/></linearGradient></defs><path style="stroke:none;fill-rule:nonzero;fill:url(#a)" d="M47.895 4.906A15.143 15.143 0 0 0 32.32 15.04 15.223 15.223 0 0 0 16.71 4.906C2.669 6.008 1.923 19.91 2.134 25.246c.105 3.805.855 15.785 29.867 36.621v.356l.25-.18.246.18v-.356c29.156-20.836 29.902-33.031 30.012-36.976.21-5.192-.57-18.883-14.613-19.985Zm0 0"/><path style="stroke:none;fill-rule:nonzero;fill:#ffe452;fill-opacity:1" d="M60.445 13.512a22.688 22.688 0 0 1-1.101 14.222c-3.13 7.11-9.957 12.801-19.88 16.996a4.757 4.757 0 0 0-3.554-1.53 4.87 4.87 0 0 0-4.902 4.8 4.873 4.873 0 0 0 4.765 4.941 4.872 4.872 0 0 0 4.973-4.726 48.672 48.672 0 0 0 19.7-15.008 22.027 22.027 0 0 0 1.917-11.59 24.904 24.904 0 0 0-1.918-8.105ZM24.426 42.453l-1.387 1.422c-9.777-9.637-12.871-17.281-8.816-21.262 4.054-3.98 11.625-.89 21.332 8.782l-1.387 1.421a1.85 1.85 0 0 0 0 2.633c.344.36.82.567 1.316.567.496 0 .973-.207 1.317-.567l2.629-2.633a1.88 1.88 0 0 0 0-2.629l-1.313-1.316c-6.578-6.613-17.781-14.613-24.89-9.883a11.526 11.526 0 0 1-3.555-7.113 8.113 8.113 0 0 1 1.637-5.797 14.272 14.272 0 0 0-5.266 4.02 12.513 12.513 0 0 0 4.625 11.52c-4.625 7.112 3.34 18.277 9.918 24.89l1.316 1.351c.73.711 1.899.711 2.633 0l2.664-2.668a1.884 1.884 0 0 0 0-2.632 1.867 1.867 0 0 0-1.363-.68 1.866 1.866 0 0 0-1.41.574Zm0 0"/></svg>