<svg xmlns="http://www.w3.org/2000/svg" width="64" height="64"><defs><linearGradient id="a" gradientUnits="userSpaceOnUse" x1="5.06" y1="11.62" x2="5.06" y2="14.5" gradientTransform="scale(3.55556)"><stop offset="0" style="stop-color:#b77af4;stop-opacity:1"/><stop offset="1" style="stop-color:#773adc;stop-opacity:1"/></linearGradient><linearGradient id="b" gradientUnits="userSpaceOnUse" x1="13.06" y1="11.62" x2="13.06" y2="14.5" gradientTransform="scale(3.55556)"><stop offset="0" style="stop-color:#b77af4;stop-opacity:1"/><stop offset="1" style="stop-color:#773adc;stop-opacity:1"/></linearGradient></defs><path style="stroke:none;fill-rule:nonzero;fill:#0078d4;fill-opacity:1" d="M3.77 5.688v53.05c0 1.059.859 1.918 1.917 1.918h53.051c1.059 0 1.918-.86 1.918-1.918V5.688c0-1.06-.86-1.918-1.918-1.918H5.688c-1.06 0-1.918.859-1.918 1.917Zm51.77 49.777H10.667a1.92 1.92 0 0 1-1.922-1.918V8.89H55.54Zm0 0"/><path style="stroke:none;fill-rule:nonzero;fill:#ffca00;fill-opacity:1" d="M12.871 12.871H23.11V23.11H12.871Zm0 0"/><path style="stroke:none;fill-rule:nonzero;fill:#e62323;fill-opacity:1" d="M12.871 27.094H23.11v10.238H12.871Zm0 0"/><path style="stroke:none;fill-rule:nonzero;fill:#5ea0ef;fill-opacity:1" d="M27.094 27.094h10.238v10.238H27.094Zm0 0"/><path style="stroke:none;fill-rule:nonzero;fill:url(#a)" d="M12.871 41.316H23.11v10.239H12.871Zm0 0"/><path style="stroke:none;fill-rule:nonzero;fill:#e62323;fill-opacity:1" d="M27.094 41.316h10.238v10.239H27.094Zm0 0"/><path style="stroke:none;fill-rule:nonzero;fill:url(#b)" d="M41.316 41.316h10.239v10.239H41.316Zm0 0"/></svg>