<svg xmlns="http://www.w3.org/2000/svg" width="64" height="64"><defs><linearGradient id="a" gradientUnits="userSpaceOnUse" x1="9" y1="1.99" x2="9" y2="14.03" gradientTransform="scale(3.55556)"><stop offset="0" style="stop-color:#5ea0ef;stop-opacity:1"/><stop offset=".18" style="stop-color:#559cec;stop-opacity:1"/><stop offset=".47" style="stop-color:#3c91e5;stop-opacity:1"/><stop offset=".84" style="stop-color:#1380da;stop-opacity:1"/><stop offset="1" style="stop-color:#0078d4;stop-opacity:1"/></linearGradient><linearGradient id="b" gradientUnits="userSpaceOnUse" x1="9.06" y1="6.39" x2="9.06" y2="16.01" gradientTransform="scale(3.55556)"><stop offset="0" style="stop-color:#b3b3b3;stop-opacity:1"/><stop offset=".12" style="stop-color:#adadad;stop-opacity:1"/><stop offset=".64" style="stop-color:#9b9b9b;stop-opacity:1"/><stop offset="1" style="stop-color:#949494;stop-opacity:1"/></linearGradient></defs><path style="stroke:none;fill-rule:nonzero;fill:url(#a)" d="M62.223 36.48a13.584 13.584 0 0 0-11.805-13.05c-.406-9.344-8.254-16.621-17.602-16.32a17.567 17.567 0 0 0-16.78 11.378c-7.942.98-13.985 7.61-14.224 15.61.407 9.004 7.989 16 16.997 15.68h29.05c.235.019.473.019.711 0 7.38-.051 13.403-5.923 13.653-13.298Zm0 0"/><path style="stroke:none;fill-rule:nonzero;fill:url(#b)" d="M42.238 55.219a1.705 1.705 0 0 1-1.742 1.707H23.895a1.705 1.705 0 0 1-1.742-1.707V24.426a1.705 1.705 0 0 1 1.742-1.707h16.601a1.705 1.705 0 0 1 1.742 1.707Zm0 0"/><path style="stroke:none;fill-rule:nonzero;fill:#fff;fill-opacity:1" d="M24.535 26.277h3.91v4.797h-3.91Zm5.758 0h3.84v4.797h-3.84Zm5.762 0h3.84v4.797h-3.84Zm-11.52 7.68h3.91v4.797h-3.91Zm5.758 0h3.84v4.797h-3.84Zm5.762 0h3.84v4.797h-3.84Zm-11.52 7.68h3.91v4.8h-3.91Zm5.758 0h3.84v4.8h-3.84Zm0 7.68h3.84v5.757h-3.84Zm5.762-7.68h3.84v4.8h-3.84Zm0 0"/></svg>