<svg xmlns="http://www.w3.org/2000/svg" xmlns:xlink="http://www.w3.org/1999/xlink" width="64" height="64"><defs><linearGradient id="e" gradientUnits="userSpaceOnUse" x1="6.41" y1="1.78" x2="6.41" y2="14.13" gradientTransform="scale(3.55556)"><stop offset="0" style="stop-color:#b3b2b3;stop-opacity:1"/><stop offset=".38" style="stop-color:#afaeaf;stop-opacity:1"/><stop offset=".76" style="stop-color:#a2a2a2;stop-opacity:1"/><stop offset="1" style="stop-color:#979797;stop-opacity:1"/></linearGradient><linearGradient id="f" gradientUnits="userSpaceOnUse" x1="7.85" y1="13.09" x2="16.6" y2="13.09" gradientTransform="scale(3.55556)"><stop offset="0" style="stop-color:#005ba1;stop-opacity:1"/><stop offset=".07" style="stop-color:#0060a9;stop-opacity:1"/><stop offset=".36" style="stop-color:#0071c8;stop-opacity:1"/><stop offset=".52" style="stop-color:#0078d4;stop-opacity:1"/><stop offset=".64" style="stop-color:#0074cd;stop-opacity:1"/><stop offset=".82" style="stop-color:#006abb;stop-opacity:1"/><stop offset="1" style="stop-color:#005ba1;stop-opacity:1"/></linearGradient><clipPath id="b"><path d="M0 0h64v64H0z"/></clipPath><filter id="a" filterUnits="objectBoundingBox" x="0%" y="0%" width="100%" height="100%"><feColorMatrix in="SourceGraphic" values="0 0 0 0 1 0 0 0 0 1 0 0 0 0 1 0 0 0 1 0"/></filter><mask id="d"><g filter="url(#a)"><path style="fill:#000;fill-opacity:.501961;stroke:none" d="M0 0h64v64H0z"/></g></mask><g id="c" clip-path="url(#b)"><path style="stroke:none;fill-rule:nonzero;fill:#999;fill-opacity:1" d="m5.05 6.363 3.555-4.015c.301-.34.723-.543 1.172-.57H42.88a2.352 2.352 0 0 1 2.527 2.383v41.316a1.699 1.699 0 0 1-.57 1.242l-3.555 3.379Zm0 0"/></g></defs><path style="stroke:none;fill-rule:nonzero;fill:#999;fill-opacity:1" d="m5.05 6.363 3.555-4.015c.301-.34.723-.543 1.172-.57H42.88a2.352 2.352 0 0 1 2.527 2.383v41.316a1.699 1.699 0 0 1-.57 1.242l-3.555 3.379Zm0 0"/><use xlink:href="#c" mask="url(#d)"/><path style="stroke:none;fill-rule:nonzero;fill:#fff;fill-opacity:1" d="m7.82 6.363 2.102-2.418a1.548 1.548 0 0 1 1.137-.39h30.898c.824 0 1.492.668 1.492 1.496v39.144a1.568 1.568 0 0 1-.46 1.102l-3.31 3.023"/><path style="stroke:none;fill-rule:nonzero;fill:url(#e)" d="M39.465 6.328H4.977v42.668c0 .61.496 1.102 1.101 1.102h33.387c.61 0 1.105-.493 1.105-1.102V7.43c0-.606-.496-1.102-1.105-1.102Zm0 0"/><path style="stroke:none;fill-rule:nonzero;fill:url(#f)" d="M43.45 35.84c-8.571 0-15.54-2.203-15.54-4.942v26.383c0 2.7 6.828 4.907 15.324 4.942h.215c8.606 0 15.574-2.203 15.574-4.942V30.898c0 2.739-6.968 4.942-15.574 4.942Zm0 0"/><path style="stroke:none;fill-rule:nonzero;fill:#e8e8e8;fill-opacity:1" d="M59.023 30.898c0 2.739-7.113 4.942-15.574 4.942-8.46 0-15.539-2.203-15.539-4.942 0-2.738 7.113-4.976 15.54-4.976 8.425 0 15.573 2.238 15.573 4.976"/><path style="stroke:none;fill-rule:nonzero;fill:#50e6ff;fill-opacity:1" d="M55.395 30.508c0 1.742-5.368 3.129-11.946 3.129-6.578 0-11.91-1.387-11.91-3.13 0-1.741 5.332-3.163 11.91-3.163s11.946 1.422 11.946 3.164"/><path style="stroke:none;fill-rule:nonzero;fill:#198ab3;fill-opacity:1" d="M43.45 31.219a31.61 31.61 0 0 0-9.423 1.207 31.222 31.222 0 0 0 9.422 1.21 31.467 31.467 0 0 0 9.457-1.21 31.97 31.97 0 0 0-9.457-1.207Zm0 0"/></svg>