<svg xmlns="http://www.w3.org/2000/svg" width="64" height="64"><defs><linearGradient id="a" gradientUnits="userSpaceOnUse" x1="13.23" y1="12.83" x2="8.6" y2="4.06" gradientTransform="scale(3.55556)"><stop offset="0" style="stop-color:#1988d9;stop-opacity:1"/><stop offset=".9" style="stop-color:#54aef0;stop-opacity:1"/></linearGradient><linearGradient id="b" gradientUnits="userSpaceOnUse" x1="11.23" y1="10.28" x2="14.44" y2="15.8" gradientTransform="scale(3.55556)"><stop offset=".1" style="stop-color:#54aef0;stop-opacity:1"/><stop offset=".29" style="stop-color:#4fabee;stop-opacity:1"/><stop offset=".51" style="stop-color:#41a2e9;stop-opacity:1"/><stop offset=".74" style="stop-color:#2a93e0;stop-opacity:1"/><stop offset=".88" style="stop-color:#1988d9;stop-opacity:1"/></linearGradient></defs><path style="stroke:none;fill-rule:nonzero;fill:#50e6ff;fill-opacity:1" d="m3.52 35.555 28.125 18.277L60.3 35.484l3.594 4.196-32.25 20.765L-.105 39.68Zm0 0"/><path style="stroke:none;fill-rule:nonzero;fill:#fff;fill-opacity:1" d="M5.617 33.207 31.645 2.203l26.558 31.043-26.558 16.781Zm0 0"/><path style="stroke:none;fill-rule:nonzero;fill:#50e6ff;fill-opacity:1" d="M31.645 2.203v47.824L5.617 33.207Zm0 0"/><path style="stroke:none;fill-rule:nonzero;fill:url(#a)" d="M31.645 2.203v47.824l26.558-16.78Zm0 0"/><path style="stroke:none;fill-rule:nonzero;fill:#53b1e0;fill-opacity:1" d="m31.645 26.914 26.558 6.332-26.558 16.781Zm0 0"/><path style="stroke:none;fill-rule:nonzero;fill:#9cebff;fill-opacity:1" d="M31.645 50.027 5.617 33.207l26.028-6.293Zm0 0"/><path style="stroke:none;fill-rule:nonzero;fill:url(#b)" d="m31.645 60.445 32.25-20.765-3.594-4.196-28.656 18.348Zm0 0"/><path style="stroke:none;fill-rule:nonzero;fill:#f04049;fill-opacity:1" d="M48.07 61.797C63.645 50.633 64 44.266 64 42.277c0-2.847-.285-10.242-7.715-10.668A8.068 8.068 0 0 0 48 37.012a8.04 8.04 0 0 0-8.18-5.547C32.39 32 32 39.43 32 42.277c0 1.989.46 8.356 15.895 19.41"/><path style="stroke:none;fill-rule:nonzero;fill:#fff;fill-opacity:1" d="M64 41.137h-7.11a.62.62 0 0 0-.5.285l-2.238 3.805a.292.292 0 0 1-.25.148.288.288 0 0 1-.25-.148l-3.375-6.118a.575.575 0 0 0-.535-.37.575.575 0 0 0-.535.37l-2.984 9.246a.286.286 0 0 1-.266.188.287.287 0 0 1-.27-.188l-2.699-6.222a.57.57 0 0 0-1.031 0l-3.559 6.472a.565.565 0 0 1-.53.32h-3.415c.524.802 1.094 1.575 1.707 2.31h2.95a.601.601 0 0 0 .5-.32l2.523-4.692 3.554 7.785a.575.575 0 0 0 .536.37c.238 0 .449-.148.53-.37l3.56-10.418 3.019 5.902a.568.568 0 0 0 .5.293c.207 0 .398-.11.496-.293l3.555-5.758a.61.61 0 0 1 .5-.285H64"/></svg>