<svg xmlns="http://www.w3.org/2000/svg" xmlns:xlink="http://www.w3.org/1999/xlink" width="64" height="64"><defs><linearGradient id="c" gradientUnits="userSpaceOnUse" x1="13.25" y1="13.06" x2="8.62" y2="4.29" gradientTransform="scale(3.55556)"><stop offset="0" style="stop-color:#1988d9;stop-opacity:1"/><stop offset=".9" style="stop-color:#54aef0;stop-opacity:1"/></linearGradient><linearGradient id="d" gradientUnits="userSpaceOnUse" x1="11.26" y1="10.51" x2="14.46" y2="16.03" gradientTransform="scale(3.55556)"><stop offset=".1" style="stop-color:#54aef0;stop-opacity:1"/><stop offset=".29" style="stop-color:#4fabee;stop-opacity:1"/><stop offset=".51" style="stop-color:#41a2e9;stop-opacity:1"/><stop offset=".74" style="stop-color:#2a93e0;stop-opacity:1"/><stop offset=".88" style="stop-color:#1988d9;stop-opacity:1"/></linearGradient><clipPath id="b"><path d="M0 0h64v64H0z"/></clipPath><filter id="a" filterUnits="objectBoundingBox" x="0%" y="0%" width="100%" height="100%"><feColorMatrix in="SourceGraphic" values="0 0 0 0 1 0 0 0 0 1 0 0 0 0 1 0 0 0 1 0"/></filter><mask id="f"><g filter="url(#a)"><path style="fill:#000;fill-opacity:.501961;stroke:none" d="M0 0h64v64H0z"/></g></mask><g id="e" clip-path="url(#b)"><path style="stroke:none;fill-rule:nonzero;fill:#f9f9f9;fill-opacity:1" d="m48.105 32.14-15.89 22.258 15.89 6.473Zm0 0"/></g></defs><path style="stroke:none;fill-rule:nonzero;fill:#50e6ff;fill-opacity:1" d="m3.59 36.375 28.16 18.273 28.66-18.347L64 40.46l-32.25 20.8L0 40.497Zm0 0"/><path style="stroke:none;fill-rule:nonzero;fill:#fff;fill-opacity:1" d="M5.723 34.027 31.75 3.023l26.563 31.04-26.563 16.78Zm0 0"/><path style="stroke:none;fill-rule:nonzero;fill:#50e6ff;fill-opacity:1" d="M31.75 3.023v47.82L5.723 34.028Zm0 0"/><path style="stroke:none;fill-rule:nonzero;fill:url(#c)" d="M31.75 3.023v47.82l26.563-16.78Zm0 0"/><path style="stroke:none;fill-rule:nonzero;fill:#53b1e0;fill-opacity:1" d="m31.75 27.734 26.563 6.328L31.75 50.844Zm0 0"/><path style="stroke:none;fill-rule:nonzero;fill:#9cebff;fill-opacity:1" d="M31.75 50.844 5.723 34.027l26.027-6.293Zm0 0"/><path style="stroke:none;fill-rule:nonzero;fill:url(#d)" d="M31.75 61.262 64 40.46l-3.59-4.16-28.66 18.347Zm0 0"/><path style="stroke:none;fill-rule:nonzero;fill:#773adc;fill-opacity:1" d="m48.105 32.14-15.89 22.258 15.89 6.473L64 54.398Zm0 0"/><use xlink:href="#e" mask="url(#f)"/></svg>