<svg xmlns="http://www.w3.org/2000/svg" xmlns:xlink="http://www.w3.org/1999/xlink" width="64" height="64"><defs><clipPath id="b"><path d="M0 0h64v64H0z"/></clipPath><clipPath id="c"><path d="M0 0h64v64H0z"/></clipPath><clipPath id="d"><path d="M0 0h64v64H0z"/></clipPath><mask id="h"><g filter="url(#a)"><path style="fill:#000;fill-opacity:.74902;stroke:none" d="M0 0h64v64H0z"/></g></mask><mask id="j"><g filter="url(#a)"><path style="fill:#000;fill-opacity:.74902;stroke:none" d="M0 0h64v64H0z"/></g></mask><mask id="l"><g filter="url(#a)"><path style="fill:#000;fill-opacity:.74902;stroke:none" d="M0 0h64v64H0z"/></g></mask><g id="g" clip-path="url(#b)"><path style="stroke:none;fill-rule:nonzero;fill:#ff9300;fill-opacity:1" d="M46.223 60.445a.498.498 0 0 0 .852-.39v-9.106a.562.562 0 0 0-.212-.46.506.506 0 0 0-.543-.024.51.51 0 0 0-.242.484v8.926a.537.537 0 0 0 .145.57Zm0 0"/></g><g id="i" clip-path="url(#c)"><path style="stroke:none;fill-rule:nonzero;fill:#ff9300;fill-opacity:1" d="M42.95 38.754h10.417c.356 0 .64.289.64.64v.11a.638.638 0 0 1-.64.637H42.95a.637.637 0 0 1-.636-.637v-.11a.64.64 0 0 1 .636-.64Zm0 0"/></g><g id="k" clip-path="url(#d)"><path style="stroke:none;fill-rule:nonzero;fill:#ff9300;fill-opacity:1" d="M42.95 40.996h10.417c.356 0 .64.285.64.64v.106c0 .352-.284.64-.64.64H42.95a.64.64 0 0 1-.636-.64v-.105c0-.356.285-.64.636-.64Zm0 0"/></g><linearGradient id="e" gradientUnits="userSpaceOnUse" x1="13.18" y1="13.01" x2="8.63" y2="4.38" gradientTransform="scale(3.55556)"><stop offset="0" style="stop-color:#1988d9;stop-opacity:1"/><stop offset=".9" style="stop-color:#54aef0;stop-opacity:1"/></linearGradient><linearGradient id="f" gradientUnits="userSpaceOnUse" x1="11.22" y1="10.5" x2="14.37" y2="15.93" gradientTransform="scale(3.55556)"><stop offset=".1" style="stop-color:#54aef0;stop-opacity:1"/><stop offset=".29" style="stop-color:#4fabee;stop-opacity:1"/><stop offset=".51" style="stop-color:#41a2e9;stop-opacity:1"/><stop offset=".74" style="stop-color:#2a93e0;stop-opacity:1"/><stop offset=".88" style="stop-color:#1988d9;stop-opacity:1"/></linearGradient><filter id="a" filterUnits="objectBoundingBox" x="0%" y="0%" width="100%" height="100%"><feColorMatrix in="SourceGraphic" values="0 0 0 0 1 0 0 0 0 1 0 0 0 0 1 0 0 0 1 0"/></filter></defs><path style="stroke:none;fill-rule:nonzero;fill:#50e6ff;fill-opacity:1" d="m4.09 36.336 27.66 17.957 28.16-17.992 3.555 4.09L31.75 60.836.535 40.426Zm0 0"/><path style="stroke:none;fill-rule:nonzero;fill:#fff;fill-opacity:1" d="M6.152 34.063 31.75 3.555l26.133 30.543L31.75 50.594Zm0 0"/><path style="stroke:none;fill-rule:nonzero;fill:#50e6ff;fill-opacity:1" d="M31.75 3.555v47.039L6.152 34.062Zm0 0"/><path style="stroke:none;fill-rule:nonzero;fill:url(#e)" d="M31.75 3.555v47.039l26.133-16.496Zm0 0"/><path style="stroke:none;fill-rule:nonzero;fill:#53b1e0;fill-opacity:1" d="m31.75 27.84 26.133 6.258L31.75 50.594Zm0 0"/><path style="stroke:none;fill-rule:nonzero;fill:#9cebff;fill-opacity:1" d="M31.75 50.594 6.152 34.062 31.75 27.84Zm0 0"/><path style="stroke:none;fill-rule:nonzero;fill:url(#f)" d="M31.75 60.836 63.465 40.39 59.91 36.3 31.75 54.293Zm0 0"/><path style="stroke:none;fill-rule:nonzero;fill:#ffca00;fill-opacity:1" d="M58.027 42.238a4.107 4.107 0 0 0 1.223-2.93 4.11 4.11 0 0 0-1.223-2.933l-7.113-7.113a4.121 4.121 0 0 0-5.828 0l-7.113 7.113a4.193 4.193 0 0 0 0 5.863l5.937 5.942c.211.218.328.511.32.816V60.02a1.28 1.28 0 0 0 .426.992l2.703 2.703a.882.882 0 0 0 .66.293.88.88 0 0 0 .657-.293l4.16-4.16a.533.533 0 0 0 0-.746l-1.102-1.102a.568.568 0 0 1 0-.855l1.102-1.102a.569.569 0 0 0 0-.781l-1.102-1.102a.533.533 0 0 1 0-.816l1.102-1.14a.533.533 0 0 0 0-.747l-1.566-1.562v-.57ZM48 30.968a2.347 2.347 0 1 1 0 4.695 2.347 2.347 0 0 1 0-4.694Zm0 0"/><use xlink:href="#g" mask="url(#h)"/><use xlink:href="#i" mask="url(#j)"/><use xlink:href="#k" mask="url(#l)"/></svg>