<svg xmlns="http://www.w3.org/2000/svg" xmlns:xlink="http://www.w3.org/1999/xlink" width="64" height="64"><defs><clipPath id="b"><path d="M0 0h64v64H0z"/></clipPath><clipPath id="c"><path d="M0 0h64v64H0z"/></clipPath><mask id="f"><g filter="url(#a)"><path style="fill:#000;fill-opacity:.8;stroke:none" d="M0 0h64v64H0z"/></g></mask><mask id="h"><g filter="url(#a)"><path style="fill:#000;fill-opacity:.8;stroke:none" d="M0 0h64v64H0z"/></g></mask><g id="e" clip-path="url(#b)"><path style="stroke:none;fill-rule:nonzero;fill:#fff;fill-opacity:1" d="M54.898 47.574a4.828 4.828 0 0 1-2.668-.781l2.633 6.86 2.594-6.825a4.894 4.894 0 0 1-2.559.746Zm0 0"/></g><g id="g" clip-path="url(#c)"><path style="stroke:none;fill-rule:nonzero;fill:#fff;fill-opacity:1" d="M41.602 47.645a7.129 7.129 0 0 1-3.95-1.172l3.91 10.418 3.915-10.207a7.135 7.135 0 0 1-3.875.96Zm0 0"/></g><linearGradient id="d" gradientUnits="userSpaceOnUse" x1="13.25" y1="12.83" x2="8.62" y2="4.06" gradientTransform="scale(3.55556)"><stop offset="0" style="stop-color:#1988d9;stop-opacity:1"/><stop offset=".9" style="stop-color:#54aef0;stop-opacity:1"/></linearGradient><filter id="a" filterUnits="objectBoundingBox" x="0%" y="0%" width="100%" height="100%"><feColorMatrix in="SourceGraphic" values="0 0 0 0 1 0 0 0 0 1 0 0 0 0 1 0 0 0 1 0"/></filter></defs><path style="stroke:none;fill-rule:nonzero;fill:#50e6ff;fill-opacity:1" d="m3.59 35.59 28.16 18.242L60.41 35.52 64 39.68l-32.25 20.8L0 39.715Zm0 0"/><path style="stroke:none;fill-rule:nonzero;fill:#fff;fill-opacity:1" d="M5.723 33.246 31.75 2.203l26.563 31.078L31.75 50.063Zm0 0"/><path style="stroke:none;fill-rule:nonzero;fill:#50e6ff;fill-opacity:1" d="M31.75 2.203v47.86L5.723 33.245Zm0 0"/><path style="stroke:none;fill-rule:nonzero;fill:url(#d)" d="M31.75 2.203v47.86L58.313 33.28Zm0 0"/><path style="stroke:none;fill-rule:nonzero;fill:#53b1e0;fill-opacity:1" d="m31.75 26.914 26.563 6.367L31.75 50.063Zm0 0"/><path style="stroke:none;fill-rule:nonzero;fill:#9cebff;fill-opacity:1" d="M31.75 50.063 5.723 33.245l26.027-6.332Zm0 0"/><path style="stroke:none;fill-rule:nonzero;fill:#5ea0ef;fill-opacity:1" d="M31.75 60.48 64 39.68l-3.59-4.16-28.66 18.312Zm0 0"/><path style="stroke:none;fill-rule:nonzero;fill:#773adc;fill-opacity:1" d="M62.043 56.89c.867 0 1.566-.703 1.566-1.566 0-4.84-3.87-8.793-8.71-8.886-5.442 0-8.25 3.374-8.782 8.886a1.596 1.596 0 0 0 1.387 1.742h14.539Zm0 0"/><use xlink:href="#e" mask="url(#f)"/><path style="stroke:none;fill-rule:nonzero;fill:#773adc;fill-opacity:1" d="M59.805 42.668a4.907 4.907 0 1 1-9.815-.002 4.907 4.907 0 0 1 9.815.002Zm0 0"/><path style="stroke:none;fill-rule:nonzero;fill:#a67af4;fill-opacity:1" d="M52.195 61.797a2.319 2.319 0 0 0 2.348-2.348v-.285c-.926-7.289-5.086-13.262-13.05-13.262-7.966 0-12.266 5.047-13.048 13.297a2.312 2.312 0 0 0 2.063 2.563H52.23Zm0 0"/><use xlink:href="#g" mask="url(#h)"/><path style="stroke:none;fill-rule:nonzero;fill:#a67af4;fill-opacity:1" d="M48.89 40.32a7.327 7.327 0 0 1-14.652 0 7.324 7.324 0 0 1 7.325-7.324 7.325 7.325 0 0 1 7.328 7.324Zm0 0"/></svg>