<svg xmlns="http://www.w3.org/2000/svg" width="64" height="64"><defs><linearGradient id="a" gradientUnits="userSpaceOnUse" x1="13.25" y1="13.02" x2="8.62" y2="4.25" gradientTransform="scale(3.55556)"><stop offset="0" style="stop-color:#1988d9;stop-opacity:1"/><stop offset=".9" style="stop-color:#54aef0;stop-opacity:1"/></linearGradient><linearGradient id="b" gradientUnits="userSpaceOnUse" x1="11.26" y1="10.47" x2="14.46" y2="15.99" gradientTransform="scale(3.55556)"><stop offset=".1" style="stop-color:#54aef0;stop-opacity:1"/><stop offset=".29" style="stop-color:#4fabee;stop-opacity:1"/><stop offset=".51" style="stop-color:#41a2e9;stop-opacity:1"/><stop offset=".74" style="stop-color:#2a93e0;stop-opacity:1"/><stop offset=".88" style="stop-color:#1988d9;stop-opacity:1"/></linearGradient></defs><path style="stroke:none;fill-rule:nonzero;fill:#50e6ff;fill-opacity:1" d="m3.59 36.23 28.16 18.278L60.41 36.16 64 40.355 31.75 61.121 0 40.355Zm0 0"/><path style="stroke:none;fill-rule:nonzero;fill:#fff;fill-opacity:1" d="M5.723 33.883 31.75 2.879l26.563 31.043L31.75 50.703Zm0 0"/><path style="stroke:none;fill-rule:nonzero;fill:#50e6ff;fill-opacity:1" d="M31.75 2.879v47.824L5.723 33.883Zm0 0"/><path style="stroke:none;fill-rule:nonzero;fill:url(#a)" d="M31.75 2.879v47.824l26.563-16.781Zm0 0"/><path style="stroke:none;fill-rule:nonzero;fill:#53b1e0;fill-opacity:1" d="m31.75 27.59 26.563 6.332L31.75 50.703Zm0 0"/><path style="stroke:none;fill-rule:nonzero;fill:#9cebff;fill-opacity:1" d="M31.75 50.703 5.723 33.883 31.75 27.59Zm0 0"/><path style="stroke:none;fill-rule:nonzero;fill:url(#b)" d="M31.75 61.121 64 40.355l-3.59-4.195-28.66 18.348Zm0 0"/></svg>