<svg xmlns="http://www.w3.org/2000/svg" xmlns:xlink="http://www.w3.org/1999/xlink" width="64" height="64"><defs><clipPath id="b"><path d="M0 0h64v64H0z"/></clipPath><clipPath id="g"><path d="M35 32h27v29H35Zm0 0"/></clipPath><clipPath id="h"><path d="M61.938 47.184c0 8.168-6.622 14.789-14.79 14.789-8.171 0-14.793-6.621-14.793-14.79 0-8.171 6.622-14.792 14.793-14.792 8.168 0 14.79 6.62 14.79 14.793Zm0 0"/></clipPath><clipPath id="i"><path d="M54 34h3v3h-3Zm0 0"/></clipPath><clipPath id="j"><path d="M61.938 47.184c0 8.168-6.622 14.789-14.79 14.789-8.171 0-14.793-6.621-14.793-14.79 0-8.171 6.622-14.792 14.793-14.792 8.168 0 14.79 6.62 14.79 14.793Zm0 0"/></clipPath><clipPath id="k"><path d="M56 34h2v2h-2Zm0 0"/></clipPath><clipPath id="l"><path d="M61.938 47.184c0 8.168-6.622 14.789-14.79 14.789-8.171 0-14.793-6.621-14.793-14.79 0-8.171 6.622-14.792 14.793-14.792 8.168 0 14.79 6.62 14.79 14.793Zm0 0"/></clipPath><linearGradient id="d" gradientUnits="userSpaceOnUse" x1="-6784.85" y1="1118.78" x2="-6784.85" y2="1089.98" gradientTransform="matrix(1.77778 0 0 -1.77778 12090.347 1991.076)"><stop offset="0" style="stop-color:#5ea0ef;stop-opacity:1"/><stop offset=".18" style="stop-color:#589eed;stop-opacity:1"/><stop offset=".41" style="stop-color:#4897e9;stop-opacity:1"/><stop offset=".66" style="stop-color:#2e8ce1;stop-opacity:1"/><stop offset=".94" style="stop-color:#0a7cd7;stop-opacity:1"/><stop offset="1" style="stop-color:#0078d4;stop-opacity:1"/></linearGradient><linearGradient id="c" gradientUnits="userSpaceOnUse" x1="-1.47" y1="14.91" x2="17.16" y2="14.8" gradientTransform="scale(3.55556)"><stop offset="0" style="stop-color:#449cdd;stop-opacity:.14902"/><stop offset=".16" style="stop-color:#2870ab;stop-opacity:0"/><stop offset=".18" style="stop-color:#2469a3;stop-opacity:.0588235"/><stop offset=".23" style="stop-color:#1a5991;stop-opacity:.188235"/><stop offset=".28" style="stop-color:#144f86;stop-opacity:.270588"/><stop offset=".34" style="stop-color:#124c82;stop-opacity:.301961"/><stop offset=".76" style="stop-color:#002851;stop-opacity:.34902"/><stop offset=".9" style="stop-color:#2f7ab6;stop-opacity:0"/><stop offset="1" style="stop-color:#449cdd;stop-opacity:0"/></linearGradient><filter id="a" filterUnits="objectBoundingBox" x="0%" y="0%" width="100%" height="100%"><feColorMatrix in="SourceGraphic" values="0 0 0 0 1 0 0 0 0 1 0 0 0 0 1 0 0 0 1 0"/></filter><mask id="f"><g filter="url(#a)"><path style="fill:#000;fill-opacity:.94902;stroke:none" d="M0 0h64v64H0z"/></g></mask><g id="e" clip-path="url(#b)"><path style="stroke:none;fill-rule:nonzero;fill:url(#c)" d="M37.902 53.332h14.754a2.08 2.08 0 0 1-.636-1.031H37.797Zm0 0"/></g></defs><path style="stroke:none;fill-rule:nonzero;fill:url(#d)" d="M19.945 37.867h15.399v15.465H19.945ZM2.168 17.387h15.219V2.027H4.16A2.13 2.13 0 0 0 2.027 4.16ZM4.16 53.332h13.227V37.867H2.027v13.227a2.136 2.136 0 0 0 .586 1.578c.403.422.961.664 1.547.66ZM2.027 35.555h15.36v-15.61H2.027Zm35.875 17.777H51.13a2.13 2.13 0 0 0 2.133-2.133V37.867h-15.36ZM20.125 35.555h15.219v-15.61H19.945Zm17.953 0h15.254v-15.61h-15.43Zm0-33.278v15.11h15.254V4.16a2.13 2.13 0 0 0-2.133-2.133Zm-17.777 15.36h15.043V2.027H19.945Zm0 0"/><use xlink:href="#e" mask="url(#f)"/><path style="stroke:none;fill-rule:nonzero;fill:#32bedd;fill-opacity:1" d="M61.938 47.184c0 8.168-6.622 14.789-14.79 14.789-8.171 0-14.793-6.621-14.793-14.79 0-8.171 6.622-14.792 14.793-14.792 8.168 0 14.79 6.62 14.79 14.793Zm0 0"/><g clip-path="url(#g)"><g clip-path="url(#h)"><path style="stroke:none;fill-rule:nonzero;fill:#b4ec36;fill-opacity:1" d="M60.656 49.316c-.746.391-1.812.176-2.308.567a5.718 5.718 0 0 0-2.243 2.347c0 .215 0 .536-.246.641-.996.676-1.992 1.387-1.066 2.879-1.07 0-.715-.957-1.211-1.242a2.72 2.72 0 0 0-2.336.07 2.73 2.73 0 0 0-1.434 1.848c-.117.515.114 1.05.57 1.316a.931.931 0 0 0 1.281-.426.623.623 0 0 1 .415-.312.65.65 0 0 1 .508.098c0 .57-.996 1.601.64 1.636.426 0 .32.496.215.817-.109.32.211.855.676 1.066.461.215 0 0 0 .18 0 .176 0 0 0 0-1.316 0-1.601-1.602-2.883-1.778a15.159 15.159 0 0 1-1.527-.5c-.96-.32-2.062-.496-2.277-1.918a2.728 2.728 0 0 0-1.278-1.742c-.43-.285-.675-.82-1.101-1.14a3.547 3.547 0 0 0-.785-1.278 3.34 3.34 0 0 1-.496-3.093 8.263 8.263 0 0 0-.356-5.973c-.355-1.14-.426-2.313-1.707-3.059-1.281-.746-1.066.426-1.566.176-.496-.246-.782.465-.922.535-1.032.285-1.922 1.172-3.239 1.032.5-.25.891-.391 1.247-.606.355-.21 1.03-.496.25-1.352-.786-.851-.5-2.097 1.597-2.949-.176-.5-1.457-.39-.886-1.316.566-.926.996-.461 1.527 0 .355-.676-.426-1.528.18-1.918.8-.461 1.664-.809 2.558-1.031a.879.879 0 0 1 .688-.059c.226.07.414.234.523.45.637.995 1.918 1.171 2.559 2.167.175.32.53 0 .78 0 1.458-.5 2.419.426 3.556 1.172 1.14.746.96 1.211 1.886 1.102.246-.051.5-.051.746 0 .57.25 1.102.394 1.528-.211.453-.051.824-.38.926-.82.214-.317.32-.782.851-.567a4.075 4.075 0 0 0 .395 2.984c.46-.355.922-.566.39-1.386a1.31 1.31 0 0 1 .887-1.989 1.923 1.923 0 0 1 2.242.817c.676 1.21.887 2.597 1.668 3.554.25.32 0 .465 0 .711 0 .25-.637 0-.992-.21l.246 1.527a2.344 2.344 0 0 1-2.914-.887c0-.43 0-.605.426-.82.426-.211.676-.39.676-.852a.674.674 0 0 0-.356-.71c-.285 0-.46 0-.531.32-.074.32-1.176.886-.996 1.882.175.996-.676.782-1.176.496-1.172-.601-1.598.465-2.098 1.032-.496.57 0 1.21.57 1.636.57.426 1.102.747 1.317 1.422.594-.53.96-1.27 1.031-2.062 0-.64.246-1.528 1.137-1.633a1.522 1.522 0 0 1 1.562.992c.18.395.465.43.82.465a31.178 31.178 0 0 1 1.919 5.402l-1.313-.175c0-1.032-.89-.57-1.386-.782-.145.637.671.817.636 1.457Zm0 0"/></g></g><g clip-path="url(#i)"><g clip-path="url(#j)"><path style="stroke:none;fill-rule:nonzero;fill:#b4ec36;fill-opacity:1" d="M55.54 36.516c-.466-.426-.962-.817-.216-1.422.746-.606.711-1.032 1.067 0 .09.617-.27 1.21-.852 1.422Zm0 0"/></g></g><g clip-path="url(#k)"><g clip-path="url(#l)"><path style="stroke:none;fill-rule:nonzero;fill:#b4ec36;fill-opacity:1" d="M56.64 35.094c.391-.39.887-.356.962 0 .07.355-.465.676-.926.816-.461.145-.32-.355-.035-.816Zm0 0"/></g></g></svg>