<svg xmlns="http://www.w3.org/2000/svg" xmlns:xlink="http://www.w3.org/1999/xlink" width="64" height="64"><defs><clipPath id="b"><path d="M0 0h64v64H0z"/></clipPath><clipPath id="c"><path d="M0 0h64v64H0z"/></clipPath><clipPath id="d"><path d="M0 0h64v64H0z"/></clipPath><clipPath id="e"><path d="M0 0h64v64H0z"/></clipPath><mask id="h"><g filter="url(#a)"><path style="fill:#000;fill-opacity:.501961;stroke:none" d="M0 0h64v64H0z"/></g></mask><mask id="j"><g filter="url(#a)"><path style="fill:#000;fill-opacity:.501961;stroke:none" d="M0 0h64v64H0z"/></g></mask><mask id="l"><g filter="url(#a)"><path style="fill:#000;fill-opacity:.501961;stroke:none" d="M0 0h64v64H0z"/></g></mask><mask id="n"><g filter="url(#a)"><path style="fill:#000;fill-opacity:.501961;stroke:none" d="M0 0h64v64H0z"/></g></mask><g id="g" clip-path="url(#b)"><path style="stroke:none;fill-rule:nonzero;fill:#999;fill-opacity:1" d="M3.805 5.086H8.39v12.691c0 .57-.461 1.032-1.032 1.032H2.81a1.03 1.03 0 0 1-1.032-1.032V7.11c0-1.117.907-2.023 2.028-2.023Zm0 0"/></g><g id="i" clip-path="url(#c)"><path style="stroke:none;fill-rule:nonzero;fill:#999;fill-opacity:1" d="M55.61 5.086h4.585c1.121 0 2.028.906 2.028 2.023v10.668c0 .57-.461 1.032-1.032 1.032h-4.586a1.034 1.034 0 0 1-.996-1.032Zm0 0"/></g><g id="k" clip-path="url(#d)"><path style="stroke:none;fill-rule:nonzero;fill:#999;fill-opacity:1" d="M2.809 45.086h4.586c.57 0 1.03.46 1.03 1.031v12.797h-4.62a2.025 2.025 0 0 1-2.028-2.023V46.223a1.026 1.026 0 0 1 1.031-1.137Zm0 0"/></g><g id="m" clip-path="url(#e)"><path style="stroke:none;fill-rule:nonzero;fill:#999;fill-opacity:1" d="M56.605 45.086h4.586c.57 0 1.032.46 1.032 1.031v10.664a2.026 2.026 0 0 1-2.028 2.028H55.61V46.223c-.03-.285.059-.57.25-.785.188-.22.457-.344.746-.352Zm0 0"/></g><linearGradient id="f" gradientUnits="userSpaceOnUse" x1="4589.72" y1="-5180.02" x2="4589.72" y2="-5184.21" gradientTransform="matrix(1.77778 0 0 -1.77778 -8089.991 -9206.471)"><stop offset="0" style="stop-color:#c69aeb;stop-opacity:1"/><stop offset="1" style="stop-color:#6f4bb2;stop-opacity:1"/></linearGradient><filter id="a" filterUnits="objectBoundingBox" x="0%" y="0%" width="100%" height="100%"><feColorMatrix in="SourceGraphic" values="0 0 0 0 1 0 0 0 0 1 0 0 0 0 1 0 0 0 1 0"/></filter></defs><path style="stroke:none;fill-rule:nonzero;fill:#32bedd;fill-opacity:1" d="M45.156 28.977v-2.133h-16.07l-7.54 7.504H16l12.871-13.016h8.781v-2.023H27.98L12.977 34.348h-2.133v2.132h6.437l7.61 7.5h18.132v-2.132H25.672L20.3 36.48h13.05v-2.132h-8.746l5.332-5.371Zm0 0"/><path style="stroke:none;fill-rule:nonzero;fill:#fff;fill-opacity:1" d="M38.578 35.414a3.096 3.096 0 0 1-3.094 3.094 3.093 3.093 0 1 1 3.094-3.094ZM41.813 20.41a3.093 3.093 0 1 1-6.187.001 3.093 3.093 0 0 1 6.187 0ZM49.316 27.91a3.093 3.093 0 1 1-6.186.001 3.093 3.093 0 0 1 6.186 0ZM46.117 42.914a3.093 3.093 0 1 1-6.186.001 3.093 3.093 0 0 1 6.186 0Zm0 0"/><path style="stroke:none;fill-rule:nonzero;fill:#50e6ff;fill-opacity:1" d="M42.348 20.41a3.731 3.731 0 0 1-3.735 3.73 3.731 3.731 0 0 1-3.734-3.73 3.734 3.734 0 1 1 7.469 0Zm0 0"/><path style="stroke:none;fill-rule:nonzero;fill:url(#f)" d="M49.848 27.91a3.733 3.733 0 1 1-7.467.002 3.733 3.733 0 0 1 7.467-.002Zm0 0"/><path style="stroke:none;fill-rule:nonzero;fill:#50e6ff;fill-opacity:1" d="M39.219 35.414a3.734 3.734 0 1 1-7.469 0 3.734 3.734 0 0 1 7.469 0Zm0 0"/><path style="stroke:none;fill-rule:nonzero;fill:#999;fill-opacity:1" d="M3.805 5.086H8.39v12.691c0 .57-.461 1.032-1.032 1.032H2.81a1.03 1.03 0 0 1-1.032-1.032V7.11c0-1.117.907-2.023 2.028-2.023Zm0 0"/><use xlink:href="#g" mask="url(#h)"/><path style="stroke:none;fill-rule:nonzero;fill:#999;fill-opacity:1" d="M55.61 5.086h4.585c1.121 0 2.028.906 2.028 2.023v10.668c0 .57-.461 1.032-1.032 1.032h-4.586a1.034 1.034 0 0 1-.996-1.032Zm0 0"/><use xlink:href="#i" mask="url(#j)"/><path style="stroke:none;fill-rule:nonzero;fill:#949494;fill-opacity:1" d="M62.223 7.11v4.445H1.777V7.109c0-1.117.907-2.023 2.028-2.023H60.23a2.025 2.025 0 0 1 1.993 2.023Zm0 0"/><path style="stroke:none;fill-rule:nonzero;fill:#999;fill-opacity:1" d="M2.809 45.086h4.586c.57 0 1.03.46 1.03 1.031v12.797h-4.62a2.025 2.025 0 0 1-2.028-2.023V46.223a1.026 1.026 0 0 1 1.031-1.137Zm0 0"/><use xlink:href="#k" mask="url(#l)"/><path style="stroke:none;fill-rule:nonzero;fill:#999;fill-opacity:1" d="M56.605 45.086h4.586c.57 0 1.032.46 1.032 1.031v10.664a2.026 2.026 0 0 1-2.028 2.028H55.61V46.223c-.03-.285.059-.57.25-.785.188-.22.457-.344.746-.352Zm0 0"/><use xlink:href="#m" mask="url(#n)"/><path style="stroke:none;fill-rule:nonzero;fill:#949494;fill-opacity:1" d="M1.777 56.89v-4.445h60.446v4.446a2.025 2.025 0 0 1-2.028 2.023H3.805a2.025 2.025 0 0 1-2.028-2.023Zm0 0"/></svg>