<svg xmlns="http://www.w3.org/2000/svg" xmlns:xlink="http://www.w3.org/1999/xlink" width="64" height="64"><defs><linearGradient id="c" gradientUnits="userSpaceOnUse" x1="9" y1="7.11" x2="9" y2="14.2" gradientTransform="scale(3.55556)"><stop offset="0" style="stop-color:#a67af4;stop-opacity:1"/><stop offset="1" style="stop-color:#552f99;stop-opacity:1"/></linearGradient><linearGradient id="f" gradientUnits="userSpaceOnUse" x1="8.8" y1="3.31" x2="9.32" y2="9.75" gradientTransform="scale(3.55556)"><stop offset="0" style="stop-color:#a67af4;stop-opacity:1"/><stop offset="1" style="stop-color:#552f99;stop-opacity:1"/></linearGradient><clipPath id="b"><path d="M0 0h64v64H0z"/></clipPath><filter id="a" filterUnits="objectBoundingBox" x="0%" y="0%" width="100%" height="100%"><feColorMatrix in="SourceGraphic" values="0 0 0 0 1 0 0 0 0 1 0 0 0 0 1 0 0 0 1 0"/></filter><mask id="e"><g filter="url(#a)"><path style="fill:#000;fill-opacity:.8;stroke:none" d="M0 0h64v64H0z"/></g></mask><g id="d" clip-path="url(#b)"><path style="stroke:none;fill-rule:nonzero;fill:#fff;fill-opacity:1" d="M32 29.547a8.574 8.574 0 0 1-4.621-1.352L32 40.105l4.516-11.66A8.452 8.452 0 0 1 32 29.547Zm0 0"/></g></defs><path style="stroke:none;fill-rule:nonzero;fill:#0078d4;fill-opacity:1" d="M7.645 41.777a26.086 26.086 0 0 1 3.554-25.597 6.926 6.926 0 0 1-2.488-2.953 30.151 30.151 0 0 0-4.16 30.578 11.068 11.068 0 0 1 3.094-2.028ZM21.12 4.055c.914.93 1.66 2.011 2.203 3.199A26.704 26.704 0 0 1 32 5.723a26.074 26.074 0 0 1 15.395 4.945 7.607 7.607 0 0 1 1.957-2.453l.425-.32a30.002 30.002 0 0 0-28.656-3.84Zm35.234 18.203a26.02 26.02 0 0 1-3.554 25.562c.574.399 1.09.88 1.527 1.426.387.465.711.977.961 1.527a30.151 30.151 0 0 0 4.16-30.578 11.127 11.127 0 0 1-3.094 2.063ZM40.675 56.89A25.904 25.904 0 0 1 32 58.277a26.02 26.02 0 0 1-15.395-4.945 7.25 7.25 0 0 1-1.957 2.453l-.425.32a30.145 30.145 0 0 0 28.765 3.875 11.137 11.137 0 0 1-2.312-3.09Zm0 0"/><path style="stroke:none;fill-rule:nonzero;fill:#32bedd;fill-opacity:1" d="M18.418 6.648A7.432 7.432 0 1 1 7.75 17 7.432 7.432 0 0 1 18.418 6.648Zm0 0"/><path style="stroke:none;fill-rule:nonzero;fill:#fff;fill-opacity:1" d="M15.715 14.473a3.558 3.558 0 0 0 0-5.157 3.54 3.54 0 0 0-2.524-1.05 3.54 3.54 0 0 0-2.523 1.05 3.555 3.555 0 0 0-1.11 2.579c0 .972.403 1.906 1.11 2.578a3.548 3.548 0 0 0 2.559 1.086c.964 0 1.89-.391 2.558-1.086"/><path style="stroke:none;fill-rule:nonzero;fill:#32bedd;fill-opacity:1" d="M46.863 6.648a7.43 7.43 0 1 1 0 10.668 7.427 7.427 0 0 1 0-10.488Zm0 0"/><path style="stroke:none;fill-rule:nonzero;fill:#fff;fill-opacity:1" d="M54.684 9.316a3.556 3.556 0 1 0-4.896 5.156 3.556 3.556 0 0 0 4.896-5.156"/><path style="stroke:none;fill-rule:nonzero;fill:#32bedd;fill-opacity:1" d="M45.582 57.352A7.432 7.432 0 1 1 56.25 47a7.432 7.432 0 0 1-10.668 10.352Zm0 0"/><path style="stroke:none;fill-rule:nonzero;fill:#fff;fill-opacity:1" d="M48.285 49.527a3.558 3.558 0 0 0 0 5.157 3.552 3.552 0 0 0 5.121 0 3.567 3.567 0 0 0 1.106-2.579c0-.972-.403-1.906-1.106-2.578a3.563 3.563 0 0 0-5.12 0"/><path style="stroke:none;fill-rule:nonzero;fill:#32bedd;fill-opacity:1" d="M17.137 57.352a7.434 7.434 0 0 1-8.102 1.625 7.434 7.434 0 0 1 0-13.739 7.427 7.427 0 0 1 8.102 1.625 7.427 7.427 0 0 1 0 10.489Zm0 0"/><path style="stroke:none;fill-rule:nonzero;fill:#fff;fill-opacity:1" d="M9.316 54.684a3.556 3.556 0 1 0 4.896-5.156 3.556 3.556 0 0 0-4.896 5.156"/><path style="stroke:none;fill-rule:nonzero;fill:url(#c)" d="M44.48 45.938a2.704 2.704 0 0 0 2.704-2.704v-.32C46.223 34.454 41.28 27.52 32 27.52c-9.281 0-14.223 5.867-15.148 15.43a2.704 2.704 0 0 0 2.418 2.988Zm0 0"/><use xlink:href="#d" mask="url(#e)"/><path style="stroke:none;fill-rule:nonzero;fill:url(#f)" d="M40.535 21.05a8.498 8.498 0 0 1-8.5 8.497 8.497 8.497 0 0 1-8.496-8.496 8.498 8.498 0 1 1 16.996 0Zm0 0"/></svg>