<svg xmlns="http://www.w3.org/2000/svg" width="64" height="64"><defs><linearGradient id="a" gradientUnits="userSpaceOnUse" x1="8.21" y1="5.16" x2="12.34" y2="11.42" gradientTransform="scale(3.55556)"><stop offset="0" style="stop-color:#f9a11f;stop-opacity:1"/><stop offset=".02" style="stop-color:#f89f1f;stop-opacity:1"/><stop offset=".39" style="stop-color:#f28721;stop-opacity:1"/><stop offset=".72" style="stop-color:#ed7823;stop-opacity:1"/><stop offset="1" style="stop-color:#ec7323;stop-opacity:1"/></linearGradient></defs><path style="stroke:none;fill-rule:nonzero;fill:#faa21d;fill-opacity:1" d="m3.59 36.23 28.16 18.278L60.41 36.16 64 40.355 31.75 61.121 0 40.355Zm0 0"/><path style="stroke:none;fill-rule:nonzero;fill:#fff;fill-opacity:1" d="M5.723 33.883 31.75 2.879l26.563 31.043L31.75 50.703Zm0 0"/><path style="stroke:none;fill-rule:nonzero;fill:#f78d1e;fill-opacity:1" d="M31.75 2.879v47.824L5.723 33.883Zm0 0"/><path style="stroke:none;fill-rule:nonzero;fill:url(#a)" d="M31.75 2.879v47.824l26.563-16.781Zm0 0"/><path style="stroke:none;fill-rule:nonzero;fill:#f78d1e;fill-opacity:1" d="m31.75 27.59 26.563 6.332L31.75 50.703Zm0 0"/><path style="stroke:none;fill-rule:nonzero;fill:#faa21d;fill-opacity:1" d="M31.75 50.703 5.723 33.883 31.75 27.59Zm0 0"/></svg>