<svg xmlns="http://www.w3.org/2000/svg" width="64" height="64"><defs><linearGradient id="a" gradientUnits="userSpaceOnUse" x1="-6518.78" y1="1118.86" x2="-6518.78" y2="1090.06" gradientTransform="matrix(1.77778 0 0 -1.77778 11617.493 1991.076)"><stop offset="0" style="stop-color:#5ea0ef;stop-opacity:1"/><stop offset=".18" style="stop-color:#589eed;stop-opacity:1"/><stop offset=".41" style="stop-color:#4897e9;stop-opacity:1"/><stop offset=".66" style="stop-color:#2e8ce1;stop-opacity:1"/><stop offset=".94" style="stop-color:#0a7cd7;stop-opacity:1"/><stop offset="1" style="stop-color:#0078d4;stop-opacity:1"/></linearGradient></defs><path style="stroke:none;fill-rule:nonzero;fill:url(#a)" d="M20.16 37.723h15.395v15.363H20.16ZM2.383 17.246h15.394V1.883H4.375c-1.18 0-2.137.957-2.137 2.137Zm2.133 35.84h13.261V37.723H2.238v13.226c0 1.18.957 2.137 2.137 2.137ZM2.383 35.309h15.394V19.805H2.238Zm35.84 17.777h13.226c1.18 0 2.133-.957 2.133-2.137V37.723H38.078ZM20.445 35.309h15.11V19.805H20.16Zm17.778 0h15.109V19.805H38.078Zm0-33.282v15.22h15.109V4.02c0-1.18-.953-2.137-2.133-2.137Zm-17.778 15.36h15.11V1.883H20.16Zm0 0"/><path style="stroke:none;fill-rule:nonzero;fill:#32bedd;fill-opacity:1" d="M61.762 38.043v16.035L48 62.118v-16.04Zm0 0"/><path style="stroke:none;fill-rule:nonzero;fill:#9cebff;fill-opacity:1" d="M61.762 38.043 48 46.117l-13.762-8.074L48 30.008Zm0 0"/><path style="stroke:none;fill-rule:nonzero;fill:#50e6ff;fill-opacity:1" d="M48 46.117v16l-13.762-8.039V38.043Zm0 0"/><path style="stroke:none;fill-rule:nonzero;fill:#9cebff;fill-opacity:1" d="m34.238 54.078 13.762-8v16.04Zm0 0"/><path style="stroke:none;fill-rule:nonzero;fill:#50e6ff;fill-opacity:1" d="m61.762 54.078-13.762-8v16.04Zm0 0"/></svg>