<svg xmlns="http://www.w3.org/2000/svg" xmlns:xlink="http://www.w3.org/1999/xlink" width="64" height="64"><defs><linearGradient id="c" gradientUnits="userSpaceOnUse" x1="9" y1="6.88" x2="9" y2="20.45" gradientTransform="scale(3.55556)"><stop offset=".22" style="stop-color:#32d4f5;stop-opacity:1"/><stop offset="1" style="stop-color:#198ab3;stop-opacity:1"/></linearGradient><linearGradient id="f" gradientUnits="userSpaceOnUse" x1="8.61" y1="-.4" x2="9.6" y2="11.92" gradientTransform="scale(3.55556)"><stop offset=".22" style="stop-color:#32d4f5;stop-opacity:1"/><stop offset="1" style="stop-color:#198ab3;stop-opacity:1"/></linearGradient><clipPath id="b"><path d="M0 0h64v64H0z"/></clipPath><filter id="a" filterUnits="objectBoundingBox" x="0%" y="0%" width="100%" height="100%"><feColorMatrix in="SourceGraphic" values="0 0 0 0 1 0 0 0 0 1 0 0 0 0 1 0 0 0 1 0"/></filter><mask id="e"><g filter="url(#a)"><path style="fill:#000;fill-opacity:.8;stroke:none" d="M0 0h64v64H0z"/></g></mask><g id="d" clip-path="url(#b)"><path style="stroke:none;fill-rule:nonzero;fill:#fff;fill-opacity:1" d="M32 32.605a16.33 16.33 0 0 1-8.816-2.597L32 52.836l8.676-22.684A16.132 16.132 0 0 1 32 32.605Zm0 0"/></g></defs><path style="stroke:none;fill-rule:nonzero;fill:url(#c)" d="M55.895 64a5.156 5.156 0 0 0 5.156-5.156c.035-.2.035-.403 0-.606C58.988 41.992 49.777 28.766 32 28.766S4.766 39.965 2.95 58.277A5.192 5.192 0 0 0 7.61 64Zm0 0"/><use xlink:href="#d" mask="url(#e)"/><path style="stroke:none;fill-rule:nonzero;fill:url(#f)" d="M48.32 16.285c0 8.992-7.293 16.285-16.285 16.285S15.75 25.277 15.75 16.285C15.75 7.29 23.043 0 32.035 0S48.32 7.29 48.32 16.285Zm0 0"/></svg>