<svg xmlns="http://www.w3.org/2000/svg" xmlns:xlink="http://www.w3.org/1999/xlink" width="64" height="64"><defs><linearGradient id="c" gradientUnits="userSpaceOnUse" x1="9" y1="16.79" x2="9" y2="1.21" gradientTransform="scale(3.55556)"><stop offset="0" style="stop-color:#0078d4;stop-opacity:1"/><stop offset=".06" style="stop-color:#0a7cd7;stop-opacity:1"/><stop offset=".34" style="stop-color:#2e8ce1;stop-opacity:1"/><stop offset=".59" style="stop-color:#4897e9;stop-opacity:1"/><stop offset=".82" style="stop-color:#589eed;stop-opacity:1"/><stop offset="1" style="stop-color:#5ea0ef;stop-opacity:1"/></linearGradient><clipPath id="b"><path d="M0 0h64v64H0z"/></clipPath><filter id="a" filterUnits="objectBoundingBox" x="0%" y="0%" width="100%" height="100%"><feColorMatrix in="SourceGraphic" values="0 0 0 0 1 0 0 0 0 1 0 0 0 0 1 0 0 0 1 0"/></filter><mask id="e"><g filter="url(#a)"><path style="fill:#000;fill-opacity:.501961;stroke:none" d="M0 0h64v64H0z"/></g></mask><g id="d" clip-path="url(#b)"><path style="stroke:none;fill-rule:nonzero;fill:#ffd400;fill-opacity:1" d="M42.133 27.234H21.867c-.277.004-.539.106-.746.286L42.88 42.313c.27-.204.43-.52.43-.856V28.445c.02-.32-.098-.636-.32-.863a1.152 1.152 0 0 0-.856-.348Zm0 0"/></g></defs><path style="stroke:none;fill-rule:nonzero;fill:#0078d4;fill-opacity:1" d="M57.172 30.008c0 16.25-19.98 29.336-24.356 32a1.523 1.523 0 0 1-1.632 0c-4.375-2.63-24.356-15.715-24.356-32V10.453a1.56 1.56 0 0 1 1.527-1.562C23.93 8.496 20.335 1.777 32 1.777c11.664 0 8.07 6.72 23.645 7.114a1.56 1.56 0 0 1 1.527 1.562Zm0 0"/><path style="stroke:none;fill-rule:nonzero;fill:url(#c)" d="M55.11 30.152c0 14.934-18.344 26.914-22.364 29.332a1.425 1.425 0 0 1-1.492 0C27.234 57.066 8.89 45.086 8.89 30.152V12.375a1.453 1.453 0 0 1 1.422-1.707C24.605 10.418 21.331 4.301 32 4.301c10.668 0 7.395 6.117 21.688 6.367a1.453 1.453 0 0 1 1.421 1.422Zm0 0"/><path style="stroke:none;fill-rule:nonzero;fill:#ffbd02;fill-opacity:1" d="M42.133 27.234H40.71v-5.047a9.334 9.334 0 0 0-2.488-6.437 8.435 8.435 0 0 0-12.375 0 9.292 9.292 0 0 0-2.489 6.438v5.046h-1.422a1.153 1.153 0 0 0-.902.317 1.157 1.157 0 0 0-.344.894v13.082a1.14 1.14 0 0 0 1.176 1.141h20.266a1.14 1.14 0 0 0 1.176-1.14V28.444c.02-.32-.098-.636-.32-.863a1.152 1.152 0 0 0-.856-.348Zm-5.512 0H27.38v-5.117c0-1.332.523-2.61 1.457-3.558a4.233 4.233 0 0 1 6.328 0c.211.222.398.46.57.71.57.829.883 1.805.887 2.81Zm0 0"/><path style="stroke:none;fill-rule:nonzero;fill:#ffe452;fill-opacity:1" d="M21.867 27.234h20.266c.277.004.539.106.746.286L21.12 42.313a1.179 1.179 0 0 1-.43-.856V28.445c-.02-.32.098-.636.32-.863.223-.23.536-.355.856-.348Zm0 0"/><use xlink:href="#d" mask="url(#e)"/></svg>