<svg xmlns="http://www.w3.org/2000/svg" xmlns:xlink="http://www.w3.org/1999/xlink" width="64" height="64"><defs><clipPath id="b"><path d="M0 0h64v64H0z"/></clipPath><clipPath id="c"><path d="M0 0h64v64H0z"/></clipPath><mask id="f"><g filter="url(#a)"><path style="fill:#000;fill-opacity:.2;stroke:none" d="M0 0h64v64H0z"/></g></mask><mask id="h"><g filter="url(#a)"><path style="fill:#000;fill-opacity:.2;stroke:none" d="M0 0h64v64H0z"/></g></mask><g id="e" clip-path="url(#b)"><path style="stroke:none;fill-rule:nonzero;fill:#5ea0ef;fill-opacity:1" d="m31.61 26.703-.036.035v6.754l5.867-3.414Zm0 0"/></g><g id="g" clip-path="url(#c)"><path style="stroke:none;fill-rule:nonzero;fill:#83b9f9;fill-opacity:1" d="M31.54 26.809h.034v6.753l-5.867-3.374Zm0 0"/></g><linearGradient id="d" gradientUnits="userSpaceOnUse" x1="9" y1="16.21" x2="9" y2=".62" gradientTransform="scale(3.55556)"><stop offset="0" style="stop-color:#1b93eb;stop-opacity:1"/><stop offset=".21" style="stop-color:#2095eb;stop-opacity:1"/><stop offset=".44" style="stop-color:#2e9ced;stop-opacity:1"/><stop offset=".69" style="stop-color:#45a7ef;stop-opacity:1"/><stop offset=".95" style="stop-color:#64b6f1;stop-opacity:1"/><stop offset="1" style="stop-color:#6bb9f2;stop-opacity:1"/></linearGradient><filter id="a" filterUnits="objectBoundingBox" x="0%" y="0%" width="100%" height="100%"><feColorMatrix in="SourceGraphic" values="0 0 0 0 1 0 0 0 0 1 0 0 0 0 1 0 0 0 1 0"/></filter></defs><path style="stroke:none;fill-rule:nonzero;fill:#1b93eb;fill-opacity:1" d="M56.89 30.008c0 16.25-19.663 29.336-23.93 32a1.53 1.53 0 0 1-1.636 0c-4.41-2.664-24.215-15.785-24.215-32V10.453c0-.851.68-1.543 1.532-1.562C24.07 8.496 20.55 1.777 32 1.777c11.45 0 7.93 6.72 23.219 7.114.847.02 1.527.71 1.527 1.562Zm0 0"/><path style="stroke:none;fill-rule:nonzero;fill:url(#d)" d="M54.684 30.152c0 14.934-18.028 26.914-21.938 29.332a1.425 1.425 0 0 1-1.492 0c-3.91-2.418-21.938-14.398-21.938-29.332V12.375c-.074-.41.036-.832.293-1.156.258-.328.641-.528 1.059-.551C24.676 10.278 21.332 4.16 32 4.16c10.668 0 7.29 6.258 21.332 6.508a1.452 1.452 0 0 1 1.387 1.422Zm0 0"/><path style="stroke:none;fill-rule:nonzero;fill:#1f56a3;fill-opacity:1" d="M38.898 45.227c-3.804-.497-3.554-2.95-3.554-6.899H28.23c0 3.95 0 6.402-3.554 6.899a1.99 1.99 0 0 0-1.813 1.742h18.133a1.992 1.992 0 0 0-2.098-1.742Zm0 0"/><path style="stroke:none;fill-rule:nonzero;fill:#1490df;fill-opacity:1" d="M16.39 15.324h30.438c.606 0 1.102.492 1.102 1.102v20.906c0 .61-.496 1.105-1.102 1.105H16.391c-.61 0-1.102-.496-1.102-1.105V16.426a1.1 1.1 0 0 1 1.102-1.102Zm0 0"/><path style="stroke:none;fill-rule:nonzero;fill:#fff;fill-opacity:1" d="M17.742 17.137h27.7c.312 0 .566.254.566.57v18.027a.567.567 0 0 1-.567.567H17.742a.57.57 0 0 1-.57-.567V17.707c0-.316.258-.57.57-.57Zm0 0"/><path style="stroke:none;fill-rule:nonzero;fill:#0078d4;fill-opacity:1" d="m37.441 23.36.036 6.718-5.903 3.414.035-6.754Zm0 0"/><path style="stroke:none;fill-rule:nonzero;fill:#83b9f9;fill-opacity:1" d="m37.441 23.324-5.832 3.414-5.867-3.414 5.832-3.379Zm0 0"/><path style="stroke:none;fill-rule:nonzero;fill:#5ea0ef;fill-opacity:1" d="m31.61 26.738-.036 6.754-5.867-3.414v-6.754Zm0 0"/><use xlink:href="#e" mask="url(#f)"/><use xlink:href="#g" mask="url(#h)"/></svg>