<svg xmlns="http://www.w3.org/2000/svg" xmlns:xlink="http://www.w3.org/1999/xlink" width="64" height="64"><defs><clipPath id="b"><path d="M0 0h64v64H0z"/></clipPath><clipPath id="c"><path d="M0 0h64v64H0z"/></clipPath><mask id="f"><g filter="url(#a)"><path style="fill:#000;fill-opacity:.14902;stroke:none" d="M0 0h64v64H0z"/></g></mask><mask id="h"><g filter="url(#a)"><path style="fill:#000;fill-opacity:.0901961;stroke:none" d="M0 0h64v64H0z"/></g></mask><g id="e" clip-path="url(#b)"><path style="stroke:none;fill-rule:nonzero;fill:#b3b3b3;fill-opacity:1" d="M21.86 27.227h20.285c.273.003.539.105.746.285l-21.778 14.8a1.125 1.125 0 0 1-.414-.859V28.371a1.17 1.17 0 0 1 1.16-1.144Zm0 0"/></g><g id="g" clip-path="url(#c)"><path style="stroke:none;fill-rule:nonzero;fill:#a3a3a3;fill-opacity:1" d="M42.145 27.227h-20.29a1.178 1.178 0 0 0-.742.285l21.774 14.8c.261-.21.414-.523.418-.859V28.371a1.175 1.175 0 0 0-1.16-1.144Zm0 0"/></g><linearGradient id="d" gradientUnits="userSpaceOnUse" x1="9" y1="16.795" x2="9" y2="1.205" gradientTransform="scale(3.55556)"><stop offset="0" style="stop-color:#5e9624;stop-opacity:1"/><stop offset=".321" style="stop-color:#639d26;stop-opacity:1"/><stop offset=".794" style="stop-color:#6fb12a;stop-opacity:1"/><stop offset=".999" style="stop-color:#76bc2d;stop-opacity:1"/></linearGradient><filter id="a" filterUnits="objectBoundingBox" x="0%" y="0%" width="100%" height="100%"><feColorMatrix in="SourceGraphic" values="0 0 0 0 1 0 0 0 0 1 0 0 0 0 1 0 0 0 1 0"/></filter></defs><path style="stroke:none;fill-rule:nonzero;fill:#76bc2d;fill-opacity:1" d="M57.184 30c0 16.254-20.004 29.336-24.356 32a1.58 1.58 0 0 1-1.656 0C26.82 59.348 6.816 46.266 6.816 30V10.445A1.564 1.564 0 0 1 8.36 8.891C23.922 8.484 20.336 1.777 32 1.777c11.664 0 8.078 6.707 23.64 7.114a1.562 1.562 0 0 1 1.544 1.546Zm0 0"/><path style="stroke:none;fill-rule:nonzero;fill:url(#d)" d="M55.11 30.168c0 14.902-18.344 26.902-22.337 29.336a1.474 1.474 0 0 1-1.52 0C27.25 57.07 8.892 45.07 8.892 30.168V12.234c0-.785.636-1.421 1.421-1.421C24.59 10.437 21.306 4.285 32 4.285c10.695 0 7.41 6.152 21.688 6.531.785 0 1.421.637 1.421 1.422Zm0 0"/><path style="stroke:none;fill-rule:nonzero;fill:#fff;fill-opacity:1" d="M42.145 27.234H40.69V22.2a9.411 9.411 0 0 0-2.488-6.433 8.371 8.371 0 0 0-6.191-2.73 8.377 8.377 0 0 0-6.192 2.73 9.273 9.273 0 0 0-2.488 6.43v5.038h-1.477a1.17 1.17 0 0 0-1.16 1.141v13.09c.02.629.532 1.133 1.16 1.137h20.29a1.171 1.171 0 0 0 1.16-1.137v-13.09a1.17 1.17 0 0 0-1.16-1.14Zm-5.508 0h-9.258v-5.12a5.084 5.084 0 0 1 1.457-3.52 4.258 4.258 0 0 1 6.355 0c.204.218.387.457.547.71a5.13 5.13 0 0 1 .914 2.813Zm0 0"/><use xlink:href="#e" mask="url(#f)"/><use xlink:href="#g" mask="url(#h)"/></svg>