<svg xmlns="http://www.w3.org/2000/svg" width="64" height="64"><defs><linearGradient id="a" gradientUnits="userSpaceOnUse" x1="9" y1="16.21" x2="9" y2=".62" gradientTransform="scale(3.55556)"><stop offset="0" style="stop-color:#1b93eb;stop-opacity:1"/><stop offset=".21" style="stop-color:#2095eb;stop-opacity:1"/><stop offset=".44" style="stop-color:#2e9ced;stop-opacity:1"/><stop offset=".69" style="stop-color:#45a7ef;stop-opacity:1"/><stop offset=".95" style="stop-color:#64b6f1;stop-opacity:1"/><stop offset="1" style="stop-color:#6bb9f2;stop-opacity:1"/></linearGradient></defs><path style="stroke:none;fill-rule:nonzero;fill:#1b93eb;fill-opacity:1" d="M56.89 30.008c0 16.25-19.663 29.336-23.93 32a1.53 1.53 0 0 1-1.636 0c-4.41-2.664-24.215-15.785-24.215-32V10.453c0-.851.68-1.543 1.532-1.562C24.07 8.496 20.55 1.777 32 1.777c11.45 0 7.93 6.72 23.219 7.114.847.02 1.527.71 1.527 1.562Zm0 0"/><path style="stroke:none;fill-rule:nonzero;fill:url(#a)" d="M54.684 30.152c0 14.934-18.028 26.914-21.938 29.332a1.425 1.425 0 0 1-1.492 0c-3.91-2.418-21.938-14.398-21.938-29.332V12.375c-.074-.41.036-.832.293-1.156.258-.328.641-.528 1.059-.551C24.676 10.278 21.332 4.16 32 4.16c10.668 0 7.29 6.258 21.332 6.508a1.452 1.452 0 0 1 1.387 1.422Zm0 0"/><path style="stroke:none;fill-rule:nonzero;fill:#c3f1ff;fill-opacity:1" d="M32 23.219A10.238 10.238 0 0 1 42.098 32a1.74 1.74 0 0 0 1.742 1.422h4.976c.496.012.973-.188 1.309-.547.34-.36.512-.844.469-1.336C49.578 22.035 41.559 14.832 32 14.832c-9.559 0-17.578 7.203-18.594 16.707-.043.492.13.977.469 1.336.336.36.813.559 1.309.547h4.976A1.74 1.74 0 0 0 21.902 32 10.238 10.238 0 0 1 32 23.219Zm0 0"/><path style="stroke:none;fill-rule:nonzero;fill:#fff;fill-opacity:1" d="M38.793 33.422A6.795 6.795 0 0 1 32 40.215a6.792 6.792 0 1 1 0-13.582c3.75 0 6.793 3.039 6.793 6.789Zm0 0"/></svg>