<svg xmlns="http://www.w3.org/2000/svg" xmlns:xlink="http://www.w3.org/1999/xlink" width="64" height="64"><defs><clipPath id="b"><path d="M0 0h64v64H0z"/></clipPath><clipPath id="c"><path d="M0 0h64v64H0z"/></clipPath><clipPath id="d"><path d="M0 0h64v64H0z"/></clipPath><mask id="h"><g filter="url(#a)"><path style="fill:#000;fill-opacity:.74902;stroke:none" d="M0 0h64v64H0z"/></g></mask><mask id="j"><g filter="url(#a)"><path style="fill:#000;fill-opacity:.74902;stroke:none" d="M0 0h64v64H0z"/></g></mask><mask id="l"><g filter="url(#a)"><path style="fill:#000;fill-opacity:.74902;stroke:none" d="M0 0h64v64H0z"/></g></mask><g id="g" clip-path="url(#b)"><path style="stroke:none;fill-rule:nonzero;fill:#ff9300;fill-opacity:1" d="M29.086 54.398a.818.818 0 0 0 1.352-.601V39.574a.859.859 0 0 0-.395-.71.775.775 0 0 0-.824-.02.773.773 0 0 0-.383.73v14.223a.988.988 0 0 0 .25.601Zm0 0"/></g><g id="i" clip-path="url(#c)"><path style="stroke:none;fill-rule:nonzero;fill:#ff9300;fill-opacity:1" d="M24.035 20.586h16.39c.552 0 .997.445.997.996v.18a.994.994 0 0 1-.996.992h-16.39a.994.994 0 0 1-.997-.992v-.18c0-.55.445-.996.996-.996Zm0 0"/></g><g id="k" clip-path="url(#d)"><path style="stroke:none;fill-rule:nonzero;fill:#ff9300;fill-opacity:1" d="M24.035 24.105h16.39c.552 0 .997.446.997.997v.18a.998.998 0 0 1-.996.995h-16.39a.998.998 0 0 1-.997-.996v-.18c0-.55.445-.996.996-.996Zm0 0"/></g><radialGradient id="e" gradientUnits="userSpaceOnUse" cx="9" cy="9" fx="9" fy="9" r="8.5" gradientTransform="scale(3.55556)"><stop offset=".18" style="stop-color:#5ea0ef;stop-opacity:1"/><stop offset=".56" style="stop-color:#5c9fee;stop-opacity:1"/><stop offset=".69" style="stop-color:#559ced;stop-opacity:1"/><stop offset=".78" style="stop-color:#4a97e9;stop-opacity:1"/><stop offset=".86" style="stop-color:#3990e4;stop-opacity:1"/><stop offset=".93" style="stop-color:#2387de;stop-opacity:1"/><stop offset=".99" style="stop-color:#087bd6;stop-opacity:1"/><stop offset="1" style="stop-color:#0078d4;stop-opacity:1"/></radialGradient><radialGradient id="f" gradientUnits="userSpaceOnUse" cx="38.95" cy="182.07" fx="38.95" fy="182.07" r="9.88" gradientTransform="translate(-102.08 -580.409) scale(3.34222)"><stop offset=".27" style="stop-color:#ffd70f;stop-opacity:1"/><stop offset=".49" style="stop-color:#ffcb12;stop-opacity:1"/><stop offset=".88" style="stop-color:#feac19;stop-opacity:1"/><stop offset="1" style="stop-color:#fea11b;stop-opacity:1"/></radialGradient><filter id="a" filterUnits="objectBoundingBox" x="0%" y="0%" width="100%" height="100%"><feColorMatrix in="SourceGraphic" values="0 0 0 0 1 0 0 0 0 1 0 0 0 0 1 0 0 0 1 0"/></filter></defs><path style="stroke:none;fill-rule:nonzero;fill:url(#e)" d="M32 1.777C15.309 1.777 1.777 15.31 1.777 32S15.31 62.223 32 62.223 62.223 48.69 62.223 32C62.203 15.316 48.683 1.797 32 1.777Zm0 56.32C17.586 58.098 5.902 46.415 5.902 32 5.902 17.586 17.586 5.902 32 5.902S58.098 17.586 58.098 32 46.414 58.098 32 58.098Zm0 0"/><path style="stroke:none;fill-rule:nonzero;fill:#fff;fill-opacity:1" d="M58.098 32c0 14.414-11.684 26.098-26.098 26.098S5.902 46.414 5.902 32 17.586 5.902 32 5.902 58.098 17.586 58.098 32Zm0 0"/><path style="stroke:none;fill-rule:nonzero;fill:url(#f)" d="M47.785 26.063a6.543 6.543 0 0 0 0-9.211l-11.2-11.235a6.502 6.502 0 0 0-9.17 0l-11.2 11.235a6.543 6.543 0 0 0 0 9.21l9.312 9.493c.344.34.535.8.535 1.28v17.352c0 .586.231 1.145.641 1.563l4.266 4.27c.57.566 1.492.566 2.062 0l6.543-6.543a.891.891 0 0 0 0-1.211l-1.742-1.743a.961.961 0 0 1 0-1.316l1.742-1.742a.886.886 0 0 0 0-1.207l-1.742-1.742a.961.961 0 0 1 0-1.317l1.742-1.742a.886.886 0 0 0 0-1.207l-2.418-2.453v-.89ZM32 8.355a3.68 3.68 0 0 1 3.68 3.68 3.681 3.681 0 0 1-3.68 3.68 3.681 3.681 0 0 1-3.68-3.68A3.68 3.68 0 0 1 32 8.355Zm0 0"/><use xlink:href="#g" mask="url(#h)"/><use xlink:href="#i" mask="url(#j)"/><use xlink:href="#k" mask="url(#l)"/></svg>