<svg xmlns="http://www.w3.org/2000/svg" width="64" height="64"><defs><linearGradient id="a" gradientUnits="userSpaceOnUse" x1="9" y1="16.39" x2="9" y2="-1.94" gradientTransform="scale(3.55556)"><stop offset="0" style="stop-color:#0078d4;stop-opacity:1"/><stop offset=".16" style="stop-color:#1380da;stop-opacity:1"/><stop offset=".53" style="stop-color:#3c91e5;stop-opacity:1"/><stop offset=".82" style="stop-color:#559cec;stop-opacity:1"/><stop offset="1" style="stop-color:#5ea0ef;stop-opacity:1"/></linearGradient><linearGradient id="b" gradientUnits="userSpaceOnUse" x1="9.88" y1="7.11" x2="9.99" y2="17.27" gradientTransform="scale(3.55556)"><stop offset="0" style="stop-color:#32d4f5;stop-opacity:1"/><stop offset=".32" style="stop-color:#31d1f3;stop-opacity:1"/><stop offset=".53" style="stop-color:#2ec9eb;stop-opacity:1"/><stop offset=".7" style="stop-color:#29bade;stop-opacity:1"/><stop offset=".86" style="stop-color:#22a5cb;stop-opacity:1"/><stop offset="1" style="stop-color:#198ab3;stop-opacity:1"/><stop offset="1" style="stop-color:#198ab3;stop-opacity:1"/></linearGradient></defs><path style="stroke:none;fill-rule:nonzero;fill:url(#a)" d="M62.223 32.285a13.584 13.584 0 0 0-11.805-13.05C50.031 9.87 42.184 2.562 32.816 2.843A17.78 17.78 0 0 0 15.93 14.223 16.14 16.14 0 0 0 1.707 29.832c.348 9.059 7.969 16.125 17.031 15.785.496.035.996.035 1.492 0h27.555c.238.04.477.04.711 0 7.43.004 13.516-5.906 13.727-13.332Zm0 0"/><path style="stroke:none;fill-rule:nonzero;fill:url(#b)" d="M52.656 61.156H18.383c-1.102 0-1.742-1.742-1.137-2.668l11.805-17.207c.168-.226.258-.5.246-.785V29.121a.706.706 0 0 0-.676-.676h-.64a1.349 1.349 0 0 1-1.348-1.351v-.606c0-.746.601-1.351 1.347-1.351h15.043c.747 0 1.352.605 1.352 1.351v.606c0 .746-.605 1.351-1.352 1.351h-.64c-.375 0-.676.301-.676.676v11.414c-.004.278.082.555.25.781l11.805 17.172c.601.89-.04 2.668-1.106 2.668Zm0 0"/><path style="stroke:none;fill-rule:nonzero;fill:#552f99;fill-opacity:1" d="M22.328 56.535 31.29 43.45A3.337 3.337 0 0 0 32 41.602v-5.266c0-.566.46-1.027 1.031-1.027h5.121c.567 0 1.032.46 1.032 1.027v5.621c0 .445.132.879.39 1.242l9.172 13.336a.818.818 0 0 1-.64 1.242H23.218a.785.785 0 0 1-.95-.261.788.788 0 0 1 .06-.98Zm0 0"/></svg>