<svg xmlns="http://www.w3.org/2000/svg" width="64" height="64"><defs><linearGradient id="a" gradientUnits="userSpaceOnUse" x1="10.75" y1="13.54" x2="10.75" y2="2.92" gradientTransform="scale(3.55556)"><stop offset="0" style="stop-color:#0078d4;stop-opacity:1"/><stop offset=".16" style="stop-color:#1380da;stop-opacity:1"/><stop offset=".53" style="stop-color:#3c91e5;stop-opacity:1"/><stop offset=".82" style="stop-color:#559cec;stop-opacity:1"/><stop offset="1" style="stop-color:#5ea0ef;stop-opacity:1"/></linearGradient><linearGradient id="b" gradientUnits="userSpaceOnUse" x1="7.45" y1="17.24" x2="7.45" y2="1.19" gradientTransform="scale(3.55556)"><stop offset="0" style="stop-color:#198ab3;stop-opacity:1"/><stop offset="0" style="stop-color:#198ab3;stop-opacity:1"/><stop offset=".11" style="stop-color:#22a5cb;stop-opacity:1"/><stop offset=".23" style="stop-color:#29bade;stop-opacity:1"/><stop offset=".37" style="stop-color:#2ec9eb;stop-opacity:1"/><stop offset=".53" style="stop-color:#31d1f3;stop-opacity:1"/><stop offset=".78" style="stop-color:#32d4f5;stop-opacity:1"/></linearGradient></defs><path style="stroke:none;fill-rule:nonzero;fill:url(#a)" d="M64 37.441a11.59 11.59 0 0 0-10.063-11.129c-.347-7.988-7.046-14.214-15.039-13.976a15.006 15.006 0 0 0-14.222 9.781 13.828 13.828 0 0 0-12.23 13.438c.402 7.675 6.824 13.64 14.503 13.476H52.48c6.348-.097 11.461-5.242 11.52-11.59Zm0 0"/><path style="stroke:none;fill-rule:nonzero;fill:url(#b)" d="M52.977 39.895a11.91 11.91 0 0 0-10.309-11.45c-.406-8.172-7.293-14.504-15.469-14.222A15.39 15.39 0 0 0 12.48 24.14 14.224 14.224 0 0 0 0 37.797c.309 7.945 6.984 14.144 14.934 13.867H41.03c6.512-.039 11.813-5.258 11.946-11.77Zm0 0"/><path style="stroke:none;fill-rule:nonzero;fill:#fff;fill-opacity:1" d="M17.137 33.316h3.023a.838.838 0 0 1 .606.246l7.109 7.114a.851.851 0 0 1 0 1.246l-9.672 9.492a.848.848 0 0 1-.601.25h-2.883a.898.898 0 0 1-.7-.598.887.887 0 0 1 .204-.898l8.214-8.32a.82.82 0 0 0 0-1.207l-5.902-5.868a.85.85 0 0 1 .602-1.457Zm12.195-11.984h3.094c.23.016.449.117.605.285l5.442 5.512a.857.857 0 0 1 0 1.207l-7.114 6.793a.857.857 0 0 1-.605.25H28.16a.895.895 0 0 1-.773-.531.896.896 0 0 1 .133-.926l5.44-5.477a.891.891 0 0 0 0-1.21l-4.23-4.266a.87.87 0 0 1 .602-1.637Zm6.367 14.223h3.02a.99.99 0 0 1 .605.25l4.446 4.445a.886.886 0 0 1 0 1.207l-6.438 6.508a.811.811 0 0 1-.602.25h-2.917a.855.855 0 0 1-.606-1.461l5.05-5.117a.891.891 0 0 0 0-1.211l-3.163-3.235a.852.852 0 0 1 .46-1.457Zm0 0"/></svg>