<svg xmlns="http://www.w3.org/2000/svg" xmlns:xlink="http://www.w3.org/1999/xlink" width="64" height="64"><defs><linearGradient id="c" gradientUnits="userSpaceOnUse" x1="8.11" y1="6.45" x2="8.11" y2="18.2" gradientTransform="scale(3.55556)"><stop offset=".22" style="stop-color:#32d4f5;stop-opacity:1"/><stop offset="1" style="stop-color:#198ab3;stop-opacity:1"/></linearGradient><linearGradient id="f" gradientUnits="userSpaceOnUse" x1="7.78" y1=".15" x2="8.64" y2="10.82" gradientTransform="scale(3.55556)"><stop offset=".22" style="stop-color:#32d4f5;stop-opacity:1"/><stop offset="1" style="stop-color:#198ab3;stop-opacity:1"/></linearGradient><linearGradient id="g" gradientUnits="userSpaceOnUse" x1="13.49" y1="17.15" x2="13.49" y2="9.35" gradientTransform="scale(3.55556)"><stop offset="0" style="stop-color:#1988d9;stop-opacity:1"/><stop offset=".9" style="stop-color:#54aef0;stop-opacity:1"/></linearGradient><clipPath id="b"><path d="M0 0h64v64H0z"/></clipPath><filter id="a" filterUnits="objectBoundingBox" x="0%" y="0%" width="100%" height="100%"><feColorMatrix in="SourceGraphic" values="0 0 0 0 1 0 0 0 0 1 0 0 0 0 1 0 0 0 1 0"/></filter><mask id="e"><g filter="url(#a)"><path style="fill:#000;fill-opacity:.8;stroke:none" d="M0 0h64v64H0z"/></g></mask><g id="d" clip-path="url(#b)"><path style="stroke:none;fill-rule:nonzero;fill:#fff;fill-opacity:1" d="M28.906 30.008a14.02 14.02 0 0 1-7.574-2.274l7.469 19.77 7.535-19.629a14.227 14.227 0 0 1-7.43 2.133Zm0 0"/></g></defs><path style="stroke:none;fill-rule:nonzero;fill:url(#c)" d="M49.527 57.172a4.48 4.48 0 0 0 4.48-4.442c.02-.18.02-.359 0-.535-1.741-14.222-9.777-25.527-24.886-25.527-15.113 0-23.86 9.707-25.566 25.562a4.515 4.515 0 0 0 4.02 4.907h41.952Zm0 0"/><use xlink:href="#d" mask="url(#e)"/><path style="stroke:none;fill-rule:nonzero;fill:url(#f)" d="M43.023 15.895c0 7.793-6.32 14.113-14.117 14.113-7.797 0-14.113-6.32-14.113-14.113 0-7.797 6.316-14.118 14.113-14.118s14.117 6.32 14.117 14.118Zm0 0"/><path style="stroke:none;fill-rule:nonzero;fill:#005ba1;fill-opacity:1" d="M60.445 46.223c0 8.105-9.812 14.648-11.949 16a.843.843 0 0 1-.816 0c-2.274-1.457-12.125-8-12.125-16v-9.887c0-.418.328-.762.746-.781C43.945 35.344 42.203 32 47.93 32c5.722 0 3.945 3.344 11.59 3.555.417.02.746.363.746.78Zm0 0"/><path style="stroke:none;fill-rule:nonzero;fill:url(#g)" d="M59.27 46.223c0 7.465-8.993 13.476-10.95 14.683-.23.14-.52.14-.746 0-1.957-1.207-10.953-7.11-10.953-14.683v-8.996a.68.68 0 0 1 .676-.711c7.113 0 5.406-3.27 10.668-3.27s3.555 3.09 10.668 3.27a.68.68 0 0 1 .676.71Zm0 0"/></svg>