<svg xmlns="http://www.w3.org/2000/svg" width="64" height="64"><defs><linearGradient id="a" gradientUnits="userSpaceOnUse" x1="-481.386" y1="-747.701" x2="-463.782" y2="-778.247" gradientTransform="scale(3.55548) rotate(59.999 -897.564 33.58)"><stop offset="0" style="stop-color:#005ba1;stop-opacity:1"/><stop offset=".366" style="stop-color:#004e8f;stop-opacity:1"/><stop offset="1" style="stop-color:#003067;stop-opacity:1"/></linearGradient><linearGradient id="b" gradientUnits="userSpaceOnUse" x1="-1395.588" y1="671.239" x2="-1374.204" y2="633.738" gradientTransform="scale(-3.55548) rotate(59.999 -118.793 1511.109)"><stop offset="0" style="stop-color:#005ba1;stop-opacity:1"/><stop offset=".451" style="stop-color:#004685;stop-opacity:1"/><stop offset="1" style="stop-color:#003067;stop-opacity:1"/></linearGradient><linearGradient id="c" gradientUnits="userSpaceOnUse" x1="6.003" y1="14.447" x2="7.447" y2="6.204" gradientTransform="scale(3.55556)"><stop offset=".26" style="stop-color:#50e6ff;stop-opacity:1"/><stop offset=".42" style="stop-color:#79eaff;stop-opacity:1"/><stop offset=".58" style="stop-color:#99edff;stop-opacity:1"/><stop offset=".733" style="stop-color:#b0efff;stop-opacity:1"/><stop offset=".876" style="stop-color:#bef1ff;stop-opacity:1"/><stop offset="1" style="stop-color:#c3f1ff;stop-opacity:1"/></linearGradient></defs><path style="stroke:none;fill-rule:nonzero;fill:url(#a)" d="m32.863 13.96 15.547 8.946 10.836-6.258A31.252 31.252 0 0 0 36.133.988a31.27 31.27 0 0 0-26.41 9.051 35.628 35.628 0 0 1 23.14 3.922Zm0 0"/><path style="stroke:none;fill-rule:nonzero;fill:#0078d4;fill-opacity:1" d="m48.207 22.906-.246 21.453 11.266 3.028a31.265 31.265 0 0 0-18.64-45.48 37.119 37.119 0 0 1 7.62 21Zm0 0"/><path style="stroke:none;fill-rule:nonzero;fill:#5ea0ef;fill-opacity:1" d="M48.184 41.406 32 50.758l.254 12.445c17.23-.07 31.16-14.058 31.16-31.289a30.205 30.205 0 0 0-1.023-7.43 34.024 34.024 0 0 1-14.207 16.922Zm0 0"/><path style="stroke:none;fill-rule:nonzero;fill:url(#b)" d="m32 50.758-16.195-9.352-10.739 6.446A31.228 31.228 0 0 0 27.75 63a31.228 31.228 0 0 0 25.93-8.46A35.236 35.236 0 0 1 32 50.757Zm0 0"/><path style="stroke:none;fill-rule:nonzero;fill:#0078d4;fill-opacity:1" d="m15.793 41.406.246-22.176-11.082-2.918A31.104 31.104 0 0 0 .711 32c.062 14.156 9.574 26.523 23.234 30.223a36.243 36.243 0 0 1-8.152-20.817Zm0 0"/><path style="stroke:none;fill-rule:nonzero;fill:#5ea0ef;fill-opacity:1" d="M16.355 22.398 32 13.36a37.646 37.646 0 0 0-21.129-4.43A31.155 31.155 0 0 0 .711 32a32.01 32.01 0 0 0 1.117 8.25 36.458 36.458 0 0 1 14.527-17.852Zm0 0"/><path style="stroke:none;fill-rule:nonzero;fill:#c3f1ff;fill-opacity:1" d="M48.184 41.406V22.707l-16.196-9.348-16.195 9.348v18.7l16.195 9.35Zm0 0"/><path style="stroke:none;fill-rule:nonzero;fill:url(#c)" d="M32.012 32.254v18.504l-16.219-9.352V22.77Zm0 0"/><path style="stroke:none;fill-rule:nonzero;fill:#50e6ff;fill-opacity:1" d="M31.988 32.254v18.504l16.219-9.352V22.77Zm0 0"/></svg>