<svg xmlns="http://www.w3.org/2000/svg" width="64" height="64"><defs><linearGradient id="a" gradientUnits="userSpaceOnUse" x1="13.31" y1=".23" x2="6.51" y2="15" gradientTransform="scale(3.55556)"><stop offset="0" style="stop-color:#552f99;stop-opacity:1"/><stop offset=".07" style="stop-color:#643daa;stop-opacity:1"/><stop offset=".2" style="stop-color:#7c53c5;stop-opacity:1"/><stop offset=".35" style="stop-color:#8f64da;stop-opacity:1"/><stop offset=".51" style="stop-color:#9c71e9;stop-opacity:1"/><stop offset=".7" style="stop-color:#a478f1;stop-opacity:1"/><stop offset="1" style="stop-color:#a67af4;stop-opacity:1"/></linearGradient></defs><path style="stroke:none;fill-rule:nonzero;fill:#198ab3;fill-opacity:1" d="m33.492 41.457 8.535-4.727a.258.258 0 0 0 0-.214v-9.493a.258.258 0 0 0 0-.214h-.25l-8.425 4.73a.177.177 0 0 0 0 .176v9.492a.258.258 0 0 0 0 .215m0 11.875 8.53-4.727a.232.232 0 0 0 0-.215v-9.457a.232.232 0 0 0 0-.214.335.335 0 0 0-.245 0l-8.535 4.73v9.492a.258.258 0 0 0 0 .215m11.023-17.777 9.207-4.59a.204.204 0 0 0 0-.211v-9.457a.212.212 0 0 0 0-.215h-.281l-8.64 4.73v9.669a.212.212 0 0 0 0 .214m0 11.875 8.921-4.691a.212.212 0 0 0 0-.215v-9.492a.212.212 0 0 0 0-.215.388.388 0 0 0-.281 0l-8.5 4.73a.177.177 0 0 0 0 .176v9.496a.204.204 0 0 0 0 .211"/><path style="stroke:none;fill-rule:nonzero;fill:#32bedd;fill-opacity:1" d="m30.473 41.457-8.641-4.766a.176.176 0 0 1 0-.21v-9.458a.212.212 0 0 1 0-.214h.246l8.535 4.73c.04.066.04.145 0 .211v9.457a.258.258 0 0 1 0 .215M30.473 53.332l-8.641-4.762a.182.182 0 0 1 0-.215v-9.457a.182.182 0 0 1 0-.214.335.335 0 0 1 .246 0l8.535 4.73c.04.066.04.148 0 .211v9.46a.249.249 0 0 1 0 .212M19.414 35.555l-8.746-4.801a.224.224 0 0 1 0-.211v-9.457a.292.292 0 0 1 0-.215h.281l8.606 4.73a.249.249 0 0 1 0 .212v9.457a.292.292 0 0 1 0 .214M19.414 47.395l-8.746-4.727a.232.232 0 0 1 0-.215v-9.492a.232.232 0 0 1 0-.215.388.388 0 0 1 .281 0l8.606 4.73a.249.249 0 0 1 0 .212v9.46a.281.281 0 0 1 0 .211"/><path style="stroke:none;fill-rule:nonzero;fill:#50e6ff;fill-opacity:1" d="M22.898 24.215 32 19.344c.09-.051.195-.051.285 0l8.711 4.761c.04.067.04.149 0 .215a.258.258 0 0 1 0 .215L32 29.297h-.25l-8.746-4.727a.345.345 0 0 1 0-.25M11.414 17.957l8.816-4.906h.25l8.641 4.726a.232.232 0 0 1 0 .215.249.249 0 0 1 0 .211l-8.71 4.836h-.286l-8.64-4.762a.212.212 0 0 1 0-.215M34.668 18.063l8.816-4.907a.31.31 0 0 1 .25 0l8.641 4.621a.292.292 0 0 1 0 .215.249.249 0 0 1 0 .211l-8.71 4.945h-.286l-8.64-4.765a.212.212 0 0 1 0-.215M22.934 11.875 32 7.109l8.89 4.625a.249.249 0 0 1 0 .211.182.182 0 0 1 0 .215L32 16.89h-.215l-8.746-4.695a.27.27 0 0 1 0-.175"/><path style="stroke:none;fill-rule:nonzero;fill:url(#a)" d="M62.473 15.93c-2.348-3.875-7.825-5.407-15.47-4.266h-.925l6.793 3.555a7.36 7.36 0 0 1 6.152 2.664c1.422 2.383.211 6.437-3.308 11.168A62.016 62.016 0 0 1 37.937 44.09a61.606 61.606 0 0 1-21.546 8.531c-5.832.89-9.993 0-11.414-2.344-1.422-2.347-.32-6.011 2.738-10.382v-6.508c-.961 1.101-1.777 2.168-2.664 3.343C.46 42.88-.816 48.426 1.492 52.336A11.846 11.846 0 0 0 12.16 56.96a32.01 32.01 0 0 0 4.656-.356 66.544 66.544 0 0 0 23.114-8.96 66.18 66.18 0 0 0 18.843-16.106c4.766-6.152 6.043-11.7 3.7-15.61Zm0 0"/></svg>