<svg xmlns="http://www.w3.org/2000/svg" width="64" height="64"><defs><linearGradient id="a" gradientUnits="userSpaceOnUse" x1="9" y1="18.17" x2="9" y2="1.506" gradientTransform="matrix(3.55556 0 0 3.55556 0 0)"><stop offset="0" style="stop-color:#238ab0;stop-opacity:1"/><stop offset=".109" style="stop-color:#2da4c8;stop-opacity:1"/><stop offset=".775" style="stop-color:#3ed3f2;stop-opacity:1"/></linearGradient></defs><path style="stroke:none;fill-rule:nonzero;fill:url(#a)" d="M1.066 30.516 30.512 1.07c.82-.82 2.152-.82 2.972 0l29.442 29.446c.82.82.82 2.148 0 2.968L33.484 62.93c-.82.82-2.152.82-2.972 0L1.066 33.484a2.098 2.098 0 0 1 0-2.968Zm0 0"/><path style="stroke:none;fill-rule:nonzero;fill:#9cebff;fill-opacity:1" d="m50.105 35.793-1.273-1.273v-4.903h-10.16v5.406h4.555L31.785 46.47 20.34 35.023h4.629v-5.406H13.812v5.406h.426l-.77.77 15.993 15.992 2.324-2.32 2.324 2.32Zm0 0"/><path style="stroke:none;fill-rule:nonzero;fill:#fff;fill-opacity:1" d="M18.094 28.348c-2.203-2.2-5.766-2.2-7.95-.004-2.183 2.195-2.167 5.754.04 7.949 2.203 2.195 5.761 2.2 7.949.004 2.183-2.195 2.168-5.754-.04-7.95Zm0 0"/><path style="stroke:none;fill-rule:nonzero;fill:#86d633;fill-opacity:1" d="M16.39 30.063c-1.257-1.254-3.285-1.262-4.53-.016-1.243 1.246-1.231 3.273.03 4.527 1.258 1.254 3.286 1.262 4.528.016 1.242-1.242 1.23-3.27-.027-4.528Zm0 0"/><path style="stroke:none;fill-rule:nonzero;fill:#fff;fill-opacity:1" d="M53.781 28.348c-2.203-2.196-5.761-2.196-7.949 0-2.184 2.191-2.168 5.75.04 7.949 2.202 2.195 5.76 2.195 7.948.004 2.184-2.196 2.168-5.754-.039-7.953Zm0 0"/><path style="stroke:none;fill-rule:nonzero;fill:#86d633;fill-opacity:1" d="M52.078 30.066c-1.258-1.253-3.285-1.261-4.527-.015s-1.23 3.273.027 4.527c1.258 1.254 3.285 1.262 4.527.02 1.243-1.246 1.23-3.274-.027-4.532Zm0 0"/><path style="stroke:none;fill-rule:nonzero;fill:#fff;fill-opacity:1" d="M39.254 17.09 32.14 9.977a.522.522 0 0 0-.38-.157.52.52 0 0 0-.374.157l-7.114 7.113a.521.521 0 0 0-.117.582c.082.2.278.332.496.328h4.035c.208 0 .38.172.38.383V54.87h5.421V18.383c0-.203.157-.367.356-.383h4.023a.527.527 0 0 0 .504-.324.529.529 0 0 0-.117-.586Zm0 0"/><path style="stroke:none;fill-rule:nonzero;fill:#fff;fill-opacity:1" d="M35.727 46.3c-2.204-2.195-5.766-2.198-7.95-.003-2.183 2.195-2.168 5.754.035 7.95 2.208 2.194 5.766 2.198 7.954.003 2.183-2.195 2.168-5.754-.04-7.95Zm0 0"/><path style="stroke:none;fill-rule:nonzero;fill:#86d633;fill-opacity:1" d="M34.023 48.02c-1.261-1.258-3.285-1.266-4.53-.02-1.243 1.246-1.231 3.273.027 4.527 1.257 1.258 3.285 1.266 4.53.02 1.243-1.246 1.231-3.274-.027-4.527Zm0 0"/></svg>