<svg xmlns="http://www.w3.org/2000/svg" width="64" height="64"><defs><linearGradient id="a" gradientUnits="userSpaceOnUse" x1="2.63" y1="5.99" x2="2.63" y2="1.75" gradientTransform="scale(3.55556)"><stop offset="0" style="stop-color:#773adc;stop-opacity:1"/><stop offset="1" style="stop-color:#b77af4;stop-opacity:1"/></linearGradient><linearGradient id="b" gradientUnits="userSpaceOnUse" x1="14.76" y1="6.31" x2="14.76" y2=".85" gradientTransform="scale(3.55556)"><stop offset="0" style="stop-color:#773adc;stop-opacity:1"/><stop offset="1" style="stop-color:#b77af4;stop-opacity:1"/></linearGradient><linearGradient id="c" gradientUnits="userSpaceOnUse" x1="11.92" y1="17.27" x2="11.92" y2="7.71" gradientTransform="scale(3.55556)"><stop offset="0" style="stop-color:#773adc;stop-opacity:1"/><stop offset="1" style="stop-color:#b77af4;stop-opacity:1"/></linearGradient></defs><path style="stroke:none;fill-rule:nonzero;fill:#b796f9;fill-opacity:1" d="M41.102 50.633 6.363 15.465a2.736 2.736 0 0 1 1.957-4.797h44.16v5.617H14.898l30.114 30.508Zm0 0"/><path style="stroke:none;fill-rule:nonzero;fill:url(#a)" d="M16.926 13.762c0-4.164-3.39-7.54-7.574-7.54-4.184 0-7.575 3.376-7.575 7.54 0 4.16 3.391 7.535 7.575 7.535 4.183 0 7.574-3.375 7.574-7.535Zm0 0"/><path style="stroke:none;fill-rule:nonzero;fill:url(#b)" d="M62.223 12.73c0-5.363-4.364-9.707-9.743-9.707-5.382 0-9.742 4.344-9.742 9.707 0 5.36 4.36 9.707 9.742 9.707 5.38 0 9.743-4.347 9.743-9.707Zm0 0"/><path style="stroke:none;fill-rule:nonzero;fill:url(#c)" d="M54.719 48.676c0-6.793-5.524-12.301-12.336-12.301-6.817 0-12.34 5.508-12.34 12.3 0 6.794 5.523 12.302 12.34 12.302 6.812 0 12.336-5.508 12.336-12.301Zm0 0"/></svg>