<svg xmlns="http://www.w3.org/2000/svg" width="64" height="64"><defs><linearGradient id="a" gradientUnits="userSpaceOnUse" x1="8.45" y1="11.47" x2="8.45" y2="6.24" gradientTransform="scale(3.55556)"><stop offset="0" style="stop-color:#198ab3;stop-opacity:1"/><stop offset=".16" style="stop-color:#1f9ac2;stop-opacity:1"/><stop offset=".5" style="stop-color:#29bade;stop-opacity:1"/><stop offset=".8" style="stop-color:#30cdef;stop-opacity:1"/><stop offset="1" style="stop-color:#32d4f5;stop-opacity:1"/></linearGradient></defs><path style="stroke:none;fill-rule:nonzero;fill:url(#a)" d="M39.29 31.465c0-5.125-4.142-9.277-9.247-9.277-5.105 0-9.242 4.152-9.242 9.277 0 5.129 4.137 9.281 9.242 9.281 5.105 0 9.246-4.152 9.246-9.281Zm0 0"/><path style="stroke:none;fill-rule:nonzero;fill:#32bedd;fill-opacity:1" d="M60.445 16.96c0-2.515-2.023-4.55-4.515-4.55-2.496 0-4.516 2.035-4.516 4.55 0 2.513 2.02 4.552 4.516 4.552 2.492 0 4.515-2.04 4.515-4.551ZM60.445 31.82c0-2.511-2.023-4.55-4.515-4.55-2.496 0-4.516 2.039-4.516 4.55 0 2.516 2.02 4.555 4.516 4.555 2.492 0 4.515-2.04 4.515-4.555ZM60.445 46.648c0-2.511-2.023-4.55-4.515-4.55-2.496 0-4.516 2.039-4.516 4.55 0 2.516 2.02 4.551 4.516 4.551 2.492 0 4.515-2.035 4.515-4.55Zm0 0"/><path style="stroke:none;fill-rule:nonzero;fill:#50e6ff;fill-opacity:1" d="M50.133 24.57c0-2.515-2.02-4.55-4.516-4.55-2.492 0-4.515 2.035-4.515 4.55 0 2.512 2.023 4.551 4.515 4.551 2.496 0 4.516-2.039 4.516-4.55ZM50.133 39.43c0-2.512-2.02-4.551-4.516-4.551-2.492 0-4.515 2.039-4.515 4.55 0 2.516 2.023 4.551 4.515 4.551 2.496 0 4.516-2.035 4.516-4.55Zm0 0"/><path style="stroke:none;fill-rule:nonzero;fill:#949494;fill-opacity:1" d="M8.57 19.84a.836.836 0 0 1 .32-.285L29.583 7.504c.285 0 17.777 9.883 17.777 9.883a.858.858 0 0 0 .856 0 .857.857 0 0 0 .426-.746v-3.875a.848.848 0 0 0-.426-.746S29.867 1.637 29.617 1.777L3.945 16.497l-.39.284ZM47.29 46.719l-16.852 9.707a1.116 1.116 0 0 1-.395 0v5.691a.751.751 0 0 0 .395 0l17.777-10.172a.854.854 0 0 0 .426-.71v-3.77a.856.856 0 0 0-.438-.8.86.86 0 0 0-.914.054Zm0 0"/><path style="stroke:none;fill-rule:nonzero;fill:#b3b3b3;fill-opacity:1" d="M30.043 56.535a1.145 1.145 0 0 1-.461 0l-20.691-12.2a.777.777 0 0 1-.43-.71v-23.36a.979.979 0 0 1 0-.425L3.555 16.78a1.038 1.038 0 0 0 0 .465v29.402a.86.86 0 0 0 .39.747l25.672 14.722c.14.035.29.035.426 0Zm0 0"/></svg>