<svg xmlns="http://www.w3.org/2000/svg" width="64" height="64"><defs><linearGradient id="a" gradientUnits="userSpaceOnUse" x1="7.93" y1="17.95" x2="7.93" y2="5.62" gradientTransform="scale(3.55556)"><stop offset="0" style="stop-color:#5e9624;stop-opacity:1"/><stop offset="1" style="stop-color:#b4ec36;stop-opacity:1"/></linearGradient><linearGradient id="b" gradientUnits="userSpaceOnUse" x1="7.95" y1="9.21" x2="7.95" y2="-2.02" gradientTransform="scale(3.55556)"><stop offset="0" style="stop-color:#5e9624;stop-opacity:1"/><stop offset="1" style="stop-color:#b4ec36;stop-opacity:1"/></linearGradient></defs><path style="stroke:none;fill-rule:nonzero;fill:url(#a)" d="M49.777 59.91a4.625 4.625 0 0 0 4.696-4.656 3.475 3.475 0 0 0 0-.57C52.62 39.93 44.23 27.91 28.16 27.91S3.555 38.078 1.812 54.72a4.764 4.764 0 0 0 4.231 5.191Zm0 0"/><path style="stroke:none;fill-rule:nonzero;fill:#fff;fill-opacity:1" d="M28.445 31.395a14.79 14.79 0 0 1-8.035-2.344l7.75 20.726 7.895-20.586a14.93 14.93 0 0 1-7.61 2.204Zm0 0"/><path style="stroke:none;fill-rule:nonzero;fill:url(#b)" d="M43.094 16.605c0 8.188-6.637 14.825-14.828 14.825-8.188 0-14.825-6.637-14.825-14.825 0-8.19 6.637-14.828 14.825-14.828 8.191 0 14.828 6.637 14.828 14.828Zm0 0"/><path style="stroke:none;fill-rule:nonzero;fill:#32bedd;fill-opacity:1" d="M62.188 39.574v15.074l-12.942 7.575V47.148Zm0 0"/><path style="stroke:none;fill-rule:nonzero;fill:#9cebff;fill-opacity:1" d="m62.188 39.574-12.942 7.574-12.945-7.574L49.246 32Zm0 0"/><path style="stroke:none;fill-rule:nonzero;fill:#50e6ff;fill-opacity:1" d="M49.246 47.148v15.075l-12.945-7.575V39.574Zm0 0"/><path style="stroke:none;fill-rule:nonzero;fill:#9cebff;fill-opacity:1" d="m36.3 54.648 12.946-7.5v15.075Zm0 0"/><path style="stroke:none;fill-rule:nonzero;fill:#50e6ff;fill-opacity:1" d="m62.188 54.648-12.942-7.5v15.075Zm0 0"/></svg>