<svg xmlns="http://www.w3.org/2000/svg" xmlns:xlink="http://www.w3.org/1999/xlink" width="64" height="64"><defs><linearGradient id="d" gradientUnits="userSpaceOnUse" x1="8.05" y1="11.32" x2="8.05" y2="1.26" gradientTransform="scale(3.55556)"><stop offset="0" style="stop-color:#0078d4;stop-opacity:1"/><stop offset=".82" style="stop-color:#5ea0ef;stop-opacity:1"/></linearGradient><linearGradient id="e" gradientUnits="userSpaceOnUse" x1="8.05" y1="15.21" x2="8.05" y2="11.32" gradientTransform="scale(3.55556)"><stop offset="0" style="stop-color:#1490df;stop-opacity:1"/><stop offset=".98" style="stop-color:#1f56a3;stop-opacity:1"/></linearGradient><linearGradient id="c" gradientUnits="userSpaceOnUse" x1="8.05" y1="7.87" x2="8.05" y2="4.94" gradientTransform="scale(3.55556)"><stop offset="0" style="stop-color:#d2ebff;stop-opacity:1"/><stop offset="1" style="stop-color:#f0fffd;stop-opacity:1"/></linearGradient><clipPath id="b"><path d="M0 0h64v64H0z"/></clipPath><filter id="a" filterUnits="objectBoundingBox" x="0%" y="0%" width="100%" height="100%"><feColorMatrix in="SourceGraphic" values="0 0 0 0 1 0 0 0 0 1 0 0 0 0 1 0 0 0 1 0"/></filter><mask id="g"><g filter="url(#a)"><path style="fill:#000;fill-opacity:.901961;stroke:none" d="M0 0h64v64H0z"/></g></mask><g id="f" clip-path="url(#b)"><path style="stroke:none;fill-rule:nonzero;fill:url(#c)" d="M33.813 22.793a5.19 5.19 0 0 1-5.192 5.187 5.19 5.19 0 1 1 5.192-5.187Zm0 0"/></g></defs><path style="stroke:none;fill-rule:nonzero;fill:url(#d)" d="M3.555 4.48h50.133c.984 0 1.777.797 1.777 1.778v32.215c0 .98-.793 1.777-1.778 1.777H3.556c-.98 0-1.778-.797-1.778-1.777V6.258c0-.98.797-1.778 1.778-1.778Zm0 0"/><path style="stroke:none;fill-rule:nonzero;fill:#fff;fill-opacity:1" d="M5.762 7.465h45.722c.551 0 .996.45.996.996V36.3c0 .55-.445.996-.996.996H5.762a.995.995 0 0 1-.996-.996V8.46c0-.547.445-.996.996-.996Zm0 0"/><path style="stroke:none;fill-rule:nonzero;fill:url(#e)" d="M39.395 51.094c-5.333-.817-5.547-4.657-5.512-10.668H23.219c0 6.187-.215 10.027-5.512 10.668a3.092 3.092 0 0 0-2.633 2.984h26.809a3.13 3.13 0 0 0-2.488-2.984Zm0 0"/><path style="stroke:none;fill-rule:nonzero;fill:#32bedd;fill-opacity:1" d="M61.05 21.012H36.587a8.212 8.212 0 0 0-8.871-6.535 8.213 8.213 0 0 0 0 16.343 8.212 8.212 0 0 0 8.87-6.535h2.524v34.063c0 .648.528 1.172 1.176 1.172h20.727c.648 0 1.175-.524 1.175-1.172v-36.16c0-.637-.503-1.157-1.136-1.176Zm0 0"/><path style="stroke:none;fill-rule:nonzero;fill:#fff;fill-opacity:1" d="M41.742 24.25h17.883c.238 0 .43.191.43.426v30.078c0 .238-.192.43-.43.43H41.742a.428.428 0 0 1-.426-.43V24.676c0-.235.192-.426.426-.426Zm0 0"/><use xlink:href="#f" mask="url(#g)"/><path style="stroke:none;fill-rule:nonzero;fill:#0078d4;fill-opacity:1" d="m52.906 38.473-3.98-3.985a.214.214 0 0 0-.239-.031.207.207 0 0 0-.117.211v2.418c0 .117-.097.21-.215.21H39.11v2.954h9.246c.118 0 .215.094.215.21v2.454c.04.063.106.098.176.098.07 0 .14-.035.18-.098l3.98-3.805a.41.41 0 0 0 .145-.316.413.413 0 0 0-.145-.32Zm0 0"/></svg>