<svg xmlns="http://www.w3.org/2000/svg" width="64" height="64"><defs><linearGradient id="a" gradientUnits="userSpaceOnUse" x1="9" y1="172.704" x2="9" y2="160.613" gradientTransform="matrix(3.55556 0 0 3.55556 0 -568.889)"><stop offset="0" style="stop-color:#198ab3;stop-opacity:1"/><stop offset=".11" style="stop-color:#22a5cb;stop-opacity:1"/><stop offset=".23" style="stop-color:#29bade;stop-opacity:1"/><stop offset=".37" style="stop-color:#2ec9eb;stop-opacity:1"/><stop offset=".53" style="stop-color:#31d1f3;stop-opacity:1"/><stop offset=".78" style="stop-color:#32d4f5;stop-opacity:1"/></linearGradient></defs><path style="stroke:none;fill-rule:nonzero;fill:url(#a)" d="M62.223 31.645a13.707 13.707 0 0 0-11.735-13.157c-.52-9.367-8.398-16.617-17.777-16.355A17.823 17.823 0 0 0 16 13.512 16.688 16.688 0 0 0 1.777 29.156a16.399 16.399 0 0 0 17.067 16H48.71c7.46 0 13.512-6.05 13.512-13.511Zm0 0"/><path style="stroke:none;fill-rule:nonzero;fill:#f2f2f2;fill-opacity:1" d="M47.645 45.867c0 8.64-7.004 15.645-15.645 15.645-8.64 0-15.645-7.004-15.645-15.645 0-8.64 7.004-15.644 15.645-15.644 8.64 0 15.645 7.004 15.645 15.644Zm0 0"/><path style="stroke:none;fill-rule:nonzero;fill:#0078d4;fill-opacity:1" d="M45.156 35.91c-5.433-7.113-15.574-8.539-22.758-3.2a16.218 16.218 0 1 0 19.915 25.602c6.851-5.468 8.109-15.394 2.843-22.402ZM18.133 44.8c.137-1.964.617-3.89 1.422-5.69h3.91a27.642 27.642 0 0 0-.711 5.69Zm7.469-5.69h5.332v5.69H24.89c.039-1.917.277-3.823.71-5.69Zm7.464 0h5.332c.434 1.867.672 3.773.711 5.69h-6.043Zm-1.777 7.468v5.688h-5.687l-1.067-5.332Zm1.777 0h6.399a35.264 35.264 0 0 1-.711 5.688h-5.688Zm8.536 0h4.62a16.762 16.762 0 0 1-1.421 5.688h-3.91c.433-1.868.672-3.774.71-5.688Zm0-1.777a36.211 36.211 0 0 0-.711-5.692h3.91a14.983 14.983 0 0 1 1.422 5.692Zm1.777-7.824h-3.2a16.056 16.056 0 0 0-2.136-4.266 15.783 15.783 0 0 1 5.336 4.266Zm-5.336 0h-4.977V32a7.714 7.714 0 0 1 4.977 4.977ZM31.289 32v5.332h-4.977A7.522 7.522 0 0 1 31.29 32Zm-7.824 2.488a20.06 20.06 0 0 1 2.848-1.777 11.006 11.006 0 0 0-2.133 4.621h-3.203a9.645 9.645 0 0 1 2.488-2.844Zm-5.332 12.446h4.62c.087 1.914.325 3.816.712 5.687h-3.91a18.95 18.95 0 0 1-1.422-5.687Zm2.844 7.464h3.203l2.133 4.27a12.42 12.42 0 0 1-5.336-4.27Zm5.335 0h4.622v5.336a8.638 8.638 0 0 1-4.622-5.336Zm6.754 5.336v-5.336h4.621a6.997 6.997 0 0 1-4.62 5.336Zm7.825-2.843a9.359 9.359 0 0 1-3.203 1.777 11.963 11.963 0 0 0 2.132-4.27h3.203a4.803 4.803 0 0 1-2.132 2.493Zm0 0"/><path style="stroke:none;fill-rule:nonzero;fill:#e6e6e6;fill-opacity:1" d="M18.133 40.535a14.304 14.304 0 0 1-7.82-10.312 12.955 12.955 0 0 1 5.332-10.313l2.132-1.777 1.778 2.133-2.133 1.777a8.925 8.925 0 0 0-4.266 7.824 10.778 10.778 0 0 0 6.399 8.176Zm0 0"/><path style="stroke:none;fill-rule:nonzero;fill:#f2f2f2;fill-opacity:1" d="M22.754 19.2a3.91 3.91 0 1 1-7.82 0 3.91 3.91 0 1 1 7.82 0Zm0 0"/><path style="stroke:none;fill-rule:nonzero;fill:#e6e6e6;fill-opacity:1" d="m45.156 40.535-1.422-2.492a11.585 11.585 0 0 0 6.399-8.176 9.777 9.777 0 0 0-4.266-7.824l-2.133-1.422 1.778-2.133 2.133 1.422a10.92 10.92 0 0 1 5.332 10.313 14.304 14.304 0 0 1-7.82 10.312Zm0 0"/><path style="stroke:none;fill-rule:nonzero;fill:#f2f2f2;fill-opacity:1" d="M48.71 19.2a3.91 3.91 0 1 1-7.82 0 3.91 3.91 0 1 1 7.82 0Zm0 0"/><path style="stroke:none;fill-rule:nonzero;fill:#ce74b6;fill-opacity:1" d="M22.754 39.465c0 2.16-1.75 3.914-3.91 3.914a3.913 3.913 0 0 1 0-7.824 3.91 3.91 0 0 1 3.91 3.91ZM48.71 39.465c0 2.16-1.75 3.914-3.91 3.914a3.913 3.913 0 0 1 0-7.824 3.91 3.91 0 0 1 3.91 3.91Zm0 0"/></svg>