<svg xmlns="http://www.w3.org/2000/svg" width="64" height="64"><path style="stroke:none;fill-rule:nonzero;fill:#949494;fill-opacity:1" d="M0 55.465A.57.57 0 0 0 .32 56l4.336 2.488 7.364 4.266a.638.638 0 0 0 .851-.211l2.488-4.34a.569.569 0 0 0 0-.781l-8.886-5.047a.643.643 0 0 1-.285-.535V12.16c0-.215.105-.414.285-.535l8.636-4.977a.566.566 0 0 0 .25-.78l-2.488-4.446a.643.643 0 0 0-.851-.215l-7.114 4.2L.286 8a.57.57 0 0 0-.321.535Zm0 0"/><path style="stroke:none;fill-rule:nonzero;fill:#a3a3a3;fill-opacity:1" d="M15.29 5.797 12.87 1.422a.642.642 0 0 0-.64-.285.399.399 0 0 0-.286 0l-7.11 4.195L.216 8 0 8.18v.28l6.188 3.56c0-.215.105-.418.285-.536l8.636-4.976a.573.573 0 0 0 .25-.785Zm0 52.406-2.49 4.34a.652.652 0 0 1-.64.285h-.285l-7.11-4.195-4.624-2.668-.211-.215v-.285l6.187-3.555a.64.64 0 0 0 .281.535l8.641 4.977c.258.156.352.48.215.746Zm0 0"/><path style="stroke:none;fill-rule:nonzero;fill:#949494;fill-opacity:1" d="M64 8.535A.57.57 0 0 0 63.68 8l-4.336-2.488-7.364-4.266a.638.638 0 0 0-.851.211l-2.488 4.34c-.09.121-.125.281-.09.43a.55.55 0 0 0 .265.351l8.641 4.977c.18.12.285.32.285.535v39.715a.63.63 0 0 1-.285.53l-8.64 4.981a.571.571 0 0 0-.246.781l2.488 4.34a.637.637 0 0 0 .851.211l7.113-4.195 4.48-2.594a.565.565 0 0 0 .317-.535V8.535Zm0 0"/><path style="stroke:none;fill-rule:nonzero;fill:#a3a3a3;fill-opacity:1" d="m48.71 58.203 2.49 4.34c.14.21.39.324.64.285h.285l7.11-4.195 4.48-2.598.355-.215a.388.388 0 0 0 0-.28l-6.187-3.56a.634.634 0 0 1-.281.536l-8.641 4.976a.604.604 0 0 0-.215.676Zm0-52.406 2.49-4.375a.645.645 0 0 1 .64-.285.399.399 0 0 1 .285 0l7.11 4.195 4.48 2.598.355.21a.399.399 0 0 1 0 .286l-6.187 3.554a.632.632 0 0 0-.281-.53L48.96 6.577a.563.563 0 0 1-.25-.781Zm0 0"/><path style="stroke:none;fill-rule:nonzero;fill:#999;fill-opacity:1" d="M30.293 45.867c0 .285-.117.559-.328.754a1.027 1.027 0 0 1-.774.277h-17.21a1.063 1.063 0 0 1-.774-.261 1.074 1.074 0 0 1-.363-.735v-27.91c.011-.285.133-.55.34-.746.203-.191.48-.297.761-.285h17.211a1.028 1.028 0 0 1 1.102 1.031Zm0 0"/><path style="stroke:none;fill-rule:nonzero;fill:#003067;fill-opacity:1" d="M13.723 29.762a2.207 2.207 0 0 1 2.098-2.313h9.671a2.238 2.238 0 0 1 2.133 2.313 2.234 2.234 0 0 1-2.133 2.344H15.82a2.24 2.24 0 0 1-2.097-2.31Zm0-6.899a2.243 2.243 0 0 1 2.097-2.347h9.672a2.234 2.234 0 0 1 2.133 2.347 2.235 2.235 0 0 1-2.133 2.309H15.82a2.24 2.24 0 0 1-2.097-2.309Zm0 0"/><path style="stroke:none;fill-rule:nonzero;fill:#50e6ff;fill-opacity:1" d="M17.992 22.863a1.565 1.565 0 0 1-3.129 0c0-.863.7-1.566 1.563-1.566s1.566.703 1.566 1.566ZM17.992 29.762a1.565 1.565 0 1 1-3.13-.006 1.565 1.565 0 0 1 3.13.006Zm0 0"/><path style="stroke:none;fill-rule:nonzero;fill:#999;fill-opacity:1" d="M53.617 45.867c0 .285-.117.559-.324.754-.211.195-.492.297-.777.277H35.309a1.067 1.067 0 0 1-1.141-.996v-27.91c.012-.285.133-.55.34-.746a1.06 1.06 0 0 1 .762-.285h17.21a1.066 1.066 0 0 1 1.137.996Zm0 0"/><path style="stroke:none;fill-rule:nonzero;fill:#003067;fill-opacity:1" d="M36.977 29.762a2.275 2.275 0 0 1 2.132-2.313h9.672a2.238 2.238 0 0 1 2.133 2.313 2.227 2.227 0 0 1-.578 1.613c-.402.441-.961.703-1.555.73H39.11a2.225 2.225 0 0 1-1.55-.73 2.23 2.23 0 0 1-.582-1.613Zm0-6.899a2.28 2.28 0 0 1 2.132-2.347h9.672c.594.027 1.153.289 1.555.73.398.442.61 1.024.578 1.617a2.235 2.235 0 0 1-2.133 2.309H39.11a2.274 2.274 0 0 1-2.132-2.309Zm0 0"/><path style="stroke:none;fill-rule:nonzero;fill:#50e6ff;fill-opacity:1" d="M41.316 22.863a1.565 1.565 0 0 1-3.129 0c0-.863.7-1.566 1.563-1.566s1.566.703 1.566 1.566ZM41.316 29.762a1.565 1.565 0 1 1-3.13-.006 1.565 1.565 0 0 1 3.13.006Zm0 0"/></svg>