<svg xmlns="http://www.w3.org/2000/svg" width="64" height="64"><path style="stroke:none;fill-rule:nonzero;fill:#773adc;fill-opacity:1" d="M52.195 14.684v23.359l-20.054 11.7v-23.36Zm0 0"/><path style="stroke:none;fill-rule:nonzero;fill:#b796f9;fill-opacity:1" d="M52.195 14.684 32.141 26.418 12.09 14.684 32.14 2.949Zm0 0"/><path style="stroke:none;fill-rule:nonzero;fill:#a67af4;fill-opacity:1" d="M32.14 26.418v23.324L12.09 38.043v-23.36Zm0 0"/><path style="stroke:none;fill-rule:nonzero;fill:#773adc;fill-opacity:1" d="M21.547 26.738c-2.633-1.492-4.766-.285-4.766 2.739a10.415 10.415 0 0 0 4.766 8.21c2.594 1.532 4.765.32 4.765-2.699a10.671 10.671 0 0 0-4.765-8.25Zm0 0"/><path style="stroke:none;fill-rule:nonzero;fill:#32bedd;fill-opacity:1" d="m64 51.023-9.207-9.246a.51.51 0 0 0-.375-.168.51.51 0 0 0-.375.168v7.114H11.945a7.111 7.111 0 0 1-7.11-7.114 7.11 7.11 0 0 1 7.11-7.109h8.5a2.42 2.42 0 0 0 2.383-2.418 2.382 2.382 0 0 0-2.383-2.383h-8.5C5.348 29.867 0 35.215 0 41.812c0 6.598 5.348 11.95 11.945 11.95h41.957v7.11a.5.5 0 0 0 .746 0L64 51.663a.462.462 0 0 0 0-.64Zm0 0"/></svg>