<svg xmlns="http://www.w3.org/2000/svg" width="64" height="64"><defs><radialGradient id="a" gradientUnits="userSpaceOnUse" cx="15013.284" cy="4584.191" fx="15013.284" fy="4584.191" r="56.626" gradientTransform="matrix(.53333 0 0 .53333 -7976.295 -2413.625)"><stop offset=".183" style="stop-color:#5ea0ef;stop-opacity:1"/><stop offset="1" style="stop-color:#0078d4;stop-opacity:1"/></radialGradient><linearGradient id="b" gradientUnits="userSpaceOnUse" x1="4.022" y1="171.297" x2="3.991" y2="167.338" gradientTransform="matrix(3.55556 0 0 3.55556 0 -568.889)"><stop offset="0" style="stop-color:#ccc;stop-opacity:1"/><stop offset=".123" style="stop-color:#d7d7d7;stop-opacity:1"/><stop offset=".421" style="stop-color:#ebebeb;stop-opacity:1"/><stop offset=".716" style="stop-color:#f8f8f8;stop-opacity:1"/><stop offset="1" style="stop-color:#fcfcfc;stop-opacity:1"/></linearGradient></defs><path style="stroke:none;fill-rule:nonzero;fill:url(#a)" d="M49.422 55.11c-13.16 10.214-32.102 7.87-42.375-5.243C-3.227 36.754-.973 17.805 12.09 7.465l.355-.356c13.262-10.043 32.14-7.511 42.29 5.664 10.152 13.18 7.78 32.079-5.313 42.336"/><path style="stroke:none;fill-rule:nonzero;fill:#83b9f9;fill-opacity:1" d="M7.465 37.332a92.185 92.185 0 0 0-2.844 9.246l2.133 3.2L8.89 51.91a50.662 50.662 0 0 1 3.91-12.445 8.967 8.967 0 0 1-5.336-2.133ZM11.023 20.977a48.513 48.513 0 0 1-2.488-10.309 26.806 26.806 0 0 0-3.914 4.977 37.638 37.638 0 0 0 2.133 8.535 9.72 9.72 0 0 1 4.27-3.203Zm0 0"/><path style="stroke:none;fill-rule:nonzero;fill:url(#b)" d="M23.82 30.223c0 5.3-4.297 9.597-9.597 9.597-5.301 0-9.602-4.297-9.602-9.597 0-5.301 4.3-9.602 9.602-9.602 5.3 0 9.597 4.3 9.597 9.602Zm0 0"/><path style="stroke:none;fill-rule:nonzero;fill:#83b9f9;fill-opacity:1" d="M28.445 48c.051-1.7.676-3.328 1.778-4.621a32.724 32.724 0 0 1-8.891-6.758A9.742 9.742 0 0 1 16 39.465a68.335 68.335 0 0 0 5.332 4.98 29.108 29.108 0 0 0 7.113 4.266ZM50.844 48.71a47.346 47.346 0 0 1-9.953-1.065V48a5.886 5.886 0 0 1-1.782 4.266 45.977 45.977 0 0 0 12.09.71c1.422-1.421 2.844-3.199 4.266-4.62-1.52.308-3.07.43-4.621.355ZM33.066 17.422a47.914 47.914 0 0 1 20.977-4.977 23.924 23.924 0 0 0-5.332-4.98A54.484 54.484 0 0 0 32 11.379a32.79 32.79 0 0 0-3.555 1.777 66.654 66.654 0 0 1-7.113-10.312 6.75 6.75 0 0 0-3.2 1.066 74.973 74.973 0 0 0 7.47 11.024 34.894 34.894 0 0 0-7.825 6.043 10.143 10.143 0 0 1 4.621 3.914 31.77 31.77 0 0 1 6.758-5.336 79.584 79.584 0 0 0 13.157 11.379 7.353 7.353 0 0 1 2.132-3.555 98.805 98.805 0 0 1-11.379-9.957Zm0 0"/><path style="stroke:none;fill-rule:nonzero;fill:#f2f2f2;fill-opacity:1" d="M55.82 32.355a6.753 6.753 0 0 1-6.754 6.754 6.753 6.753 0 0 1-6.754-6.754 6.753 6.753 0 0 1 6.754-6.753 6.753 6.753 0 0 1 6.754 6.753Zm0 0"/><path style="stroke:none;fill-rule:nonzero;fill:#83b9f9;fill-opacity:1" d="M60.445 36.977c-.355-.356-.71-.356-1.066-.711-.356-.356-.711-.356-1.066-.711h-.356l-1.066-.711h-.356l-1.07-.711a5.157 5.157 0 0 1-2.133 3.199c.355.355.711.355 1.422.711h.355c.356.355.711.355 1.07.71 1.067.712 2.133 1.067 3.2 1.782.355-1.07.71-2.492 1.066-3.558Zm0 0"/><path style="stroke:none;fill-rule:nonzero;fill:#f2f2f2;fill-opacity:1" d="M23.82 30.223c0 5.3-4.297 9.597-9.597 9.597-5.301 0-9.602-4.297-9.602-9.597 0-5.301 4.3-9.602 9.602-9.602 5.3 0 9.597 4.3 9.597 9.602ZM41.246 48a6.4 6.4 0 0 1-6.402 6.398A6.397 6.397 0 0 1 28.445 48a6.397 6.397 0 0 1 6.399-6.398A6.4 6.4 0 0 1 41.246 48Zm0 0"/><path style="stroke:none;fill-rule:nonzero;fill:#821010;fill-opacity:1" d="M18.488 37.332h43.024c.71 0 1.777.711 1.777 1.422v22.758a1.908 1.908 0 0 1-1.777 1.777H18.488a1.63 1.63 0 0 1-1.422-1.777V39.109a1.63 1.63 0 0 1 1.422-1.777Zm0 0"/><path style="stroke:none;fill-rule:nonzero;fill:#e62323;fill-opacity:1" d="M18.844 40.18h12.8v5.687h-12.8Zm0 0"/><path style="stroke:none;fill-rule:nonzero;fill:#ff7381;fill-opacity:1" d="M33.777 40.18h12.801v5.687h-12.8Zm0 0"/><path style="stroke:none;fill-rule:nonzero;fill:#e62323;fill-opacity:1" d="M48.355 40.18h12.801v5.687h-12.8ZM18.844 47.645h5.336v5.687h-5.336Zm0 0"/><path style="stroke:none;fill-rule:nonzero;fill:#ff7381;fill-opacity:1" d="M55.82 47.645h5.336v5.687H55.82ZM26.313 47.645h12.796v5.687H26.312Zm0 0"/><path style="stroke:none;fill-rule:nonzero;fill:#e62323;fill-opacity:1" d="M40.89 47.645h12.797v5.687H40.892ZM18.844 55.11h12.8v5.69h-12.8Zm0 0"/><path style="stroke:none;fill-rule:nonzero;fill:#ff7381;fill-opacity:1" d="M33.777 55.11h12.801v5.69h-12.8Zm0 0"/><path style="stroke:none;fill-rule:nonzero;fill:#e62323;fill-opacity:1" d="M48.355 55.11h12.801v5.69h-12.8Zm0 0"/></svg>