<svg xmlns="http://www.w3.org/2000/svg" width="64" height="64"><path style="stroke:none;fill-rule:nonzero;fill:#773adc;fill-opacity:1" d="M47.203 12.828v24.86L25.836 50.184V25.28l21.367-12.457Zm0 0"/><path style="stroke:none;fill-rule:nonzero;fill:#b796f9;fill-opacity:1" d="M47.203 12.828 25.84 25.316 4.508 12.82 25.84.328l21.363 12.496Zm0 0"/><path style="stroke:none;fill-rule:nonzero;fill:#a67af4;fill-opacity:1" d="M25.84 25.316v24.868L4.473 37.688V12.823L25.84 25.32Zm0 0"/><path style="stroke:none;fill-rule:nonzero;fill:#32bedd;fill-opacity:1" d="M41.457 46.578c0 .117-.02.234-.043.356-.02.12-.047.191-.07.285l-.098.336c-.035.113-.07.18-.113.27l-.164.355a5.296 5.296 0 0 1-.285.476l-.059.074c-.11.157-.227.313-.355.458l-.07.09-.473.46c-.114.102-.23.2-.356.285l-.32.25-.403.27-.425.273c-.348.196-.703.375-1.067.536l-.355.136-.89.332-.356.11-.578.168-.442.117-.62.133-.43.086-1.278.18c-.133 0-.266.019-.402.034l-.754.051h-1.54l-.57-.027-1.05-.121-.504-.07-.594-.106-.465-.098-.71-.172-.384-.105-1.21-.406-.567-.242-.285-.125-.824-.426a5.627 5.627 0 0 1-3.317-4.621v5a5.627 5.627 0 0 0 3.317 4.62l.824.427c.094.046.191.086.293.128l.496.22.062.023 1.305.437c.09.028.192.047.281.07l.711.172.188.047.285.047.594.11.238.035c.086 0 .176.02.266.035l.558.058c.09 0 .176.028.266.036h.254l.57.03h1.617c.254-.015.508-.03.758-.054h.398l1.282-.176h.058l.356-.074.625-.133.437-.117.586-.168.121-.035c.07-.023.13-.05.2-.07l.886-.336.356-.137 1.066-.531.145-.082c.105-.059.187-.13.28-.192l.407-.27.313-.25.355-.284.074-.055c.141-.133.278-.273.403-.406l.074-.09.21-.25c.056-.067.106-.137.15-.207l.058-.074.25-.391.035-.086a4.93 4.93 0 0 0 .164-.355l.094-.204.023-.074c.035-.11.067-.219.094-.332l.066-.226v-.063c.02-.117.032-.234.043-.355.008-.121.024-.157.024-.23v-5.145l-.047.355Zm0 0"/><path style="stroke:none;fill-rule:nonzero;fill:#50e6ff;fill-opacity:1" d="M38.168 41.602c4.402 2.535 4.426 6.656.055 9.195a17.495 17.495 0 0 1-15.887 0c-4.402-2.54-4.418-6.66-.047-9.2a17.49 17.49 0 0 1 15.879.005Zm0 0"/><path style="stroke:none;fill-rule:nonzero;fill:#32bedd;fill-opacity:1" d="M59.5 52.531c0 .117-.02.235-.035.356-.02.12-.05.191-.074.281l-.094.34c-.035.105-.07.176-.113.273l-.164.356c-.063.12-.18.355-.286.476l-.054.07-.356.465-.07.082-.473.465a6.305 6.305 0 0 1-.355.285l-.313.247c-.105.082-.265.18-.406.27l-.426.273c-.347.195-.703.375-1.066.535l-.356.14-.882.336-.32.106-.579.164-.441.12-.621.134-.43.086-1.277.175-.403.036-.758.05h-1.617c-.191 0-.383 0-.57-.035-.188-.035-.356-.023-.52-.043l-.558-.062-.5-.075-.598-.105-.46-.094-.712-.168-.386-.11-1.207-.405-.57-.242-.282-.126-.828-.425a5.629 5.629 0 0 1-3.313-4.625v4.996a5.629 5.629 0 0 0 3.313 4.625l.828.426.281.125.512.218.059.024c.39.148.792.285 1.207.402l.097.035.285.075.711.175c.063 0 .125.035.184.043l.285.051.598.105c.078 0 .156.036.234.043l.266.028.562.066.266.028h.25c.187 0 .379.023.57.027h1.617c.25 0 .504-.035.758-.047.098 0 .203 0 .305-.023h.097l1.278-.176h.062l.356-.078.617-.133.441-.121.579-.164.125-.035.199-.07.883-.34.355-.133c.363-.16.719-.34 1.066-.54l.141-.081c.11-.06.195-.126.285-.192l.406-.27.313-.25.355-.285.07-.058c.145-.13.278-.262.407-.406l.07-.09.215-.246.153-.207.054-.07.246-.356.043-.086c.063-.113.11-.23.164-.356l.098-.207v-.07c.035-.113.07-.223.094-.34l.074-.222v-.063c.02-.117.027-.234.035-.355.008-.121.024-.153.024-.23V52.25c.023.09.007.203-.004.313Zm0 0"/><path style="stroke:none;fill-rule:nonzero;fill:#50e6ff;fill-opacity:1" d="M56.18 47.574a4.862 4.862 0 0 1 .047 9.2 17.52 17.52 0 0 1-15.887 0c-4.399-2.544-4.418-6.665-.043-9.204a17.499 17.499 0 0 1 15.883.004Zm0 0"/><path style="stroke:none;fill-rule:nonzero;fill:#32bedd;fill-opacity:1" d="M59.527 41.316c0 .106-.02.22-.027.329l-.035.355c-.024.117-.05.191-.074.281l-.094.336c-.035.106-.07.176-.113.274l-.164.355c-.063.121-.18.356-.286.477l-.054.07-.356.465-.07.082a4.882 4.882 0 0 1-.828.75l-.32.25-.403.265-.426.278c-.347.199-.703.375-1.066.535l-.356.14-.89.337-.356.105-.578.168-.441.117-.621.133-.426.086-1.281.176-.403.035-.757.05h-1.614c-.191 0-.379 0-.57-.035-.188-.035-.355-.027-.52-.042l-.558-.063-.5-.074-.598-.106-.46-.093-.712-.176-.383-.106a15.18 15.18 0 0 1-1.21-.406l-.57-.242-.29-.125-.824-.426a5.637 5.637 0 0 1-3.32-4.625v5a5.637 5.637 0 0 0 3.32 4.625l.824.426.285.125.508.219.059.023 1.21.402.094.036.286.074.71.168c.067 0 .126.035.188.047l.277.05.598.106c.078 0 .156.035.238.043l.266.027.559.067.27.027h.245c.192 0 .38.023.57.027h1.614c.258 0 .511-.027.761-.047.102 0 .204 0 .305-.023h.094l1.281-.176h.063l.355-.078.621-.133.438-.12.586-.165.125-.035c.07-.02.125-.055.195-.07l.887-.336.355-.14c.367-.161.723-.34 1.067-.54l.136-.078.29-.195.402-.266.32-.25.355-.285.07-.059c.145-.129.278-.265.407-.406l.07-.086.215-.254.153-.207.054-.07a4.09 4.09 0 0 0 .246-.39l.043-.087c.059-.113.106-.23.16-.355l.098-.203v-.07c.04-.114.07-.223.098-.34l.07-.223v-.063c.02-.117.027-.234.035-.355.008-.117.024-.153.024-.227v-.097Zm0 0"/><path style="stroke:none;fill-rule:nonzero;fill:#50e6ff;fill-opacity:1" d="M48.316 34.773c-6.203-.02-11.242 2.88-11.254 6.473-.007 3.594 5.012 6.524 11.215 6.54 6.203.019 11.243-2.88 11.25-6.474.012-3.593-5.007-6.523-11.21-6.539Zm0 0"/></svg>