<svg xmlns="http://www.w3.org/2000/svg" width="64" height="64"><defs><linearGradient id="a" gradientUnits="userSpaceOnUse" x1="8.992" y1="16.975" x2="8.992" y2=".242" gradientTransform="scale(3.55556)"><stop offset="0" style="stop-color:#b3b2b3;stop-opacity:1"/><stop offset=".31" style="stop-color:#9e9e9e;stop-opacity:1"/><stop offset=".54" style="stop-color:#949494;stop-opacity:1"/></linearGradient></defs><path style="stroke:none;fill-rule:nonzero;fill:#fff;fill-opacity:1" d="M40.996 28.621a5.083 5.083 0 1 1-10.168 0 5.08 5.08 0 0 1 5.082-5.082 5.083 5.083 0 0 1 5.086 5.082ZM48.426 43.77a3.983 3.983 0 1 1-7.964-.004 3.983 3.983 0 0 1 7.964.004ZM32.035 41.031a3.45 3.45 0 1 1-6.897-.002 3.45 3.45 0 0 1 6.897.002ZM30.398 14.863a4.266 4.266 0 0 1-8.53 0c0-2.36 1.91-4.27 4.265-4.27a4.267 4.267 0 0 1 4.265 4.27ZM18.133 30.543a3.45 3.45 0 1 1-6.9-.002 3.45 3.45 0 0 1 6.9.002Zm0 0"/><path style="stroke:none;fill-rule:nonzero;fill:#989898;fill-opacity:1" d="m45.367 42.95-8.601-15.04-.856.465.711-.5-9.742-13.867-1.777 1.281 8.64 12.266-19.129 1.601.18 2.203 18.95-1.597-6.294 10.453 1.883 1.137 6.473-10.739 7.68 13.407 1.921-1.07Zm0 0"/><path style="stroke:none;fill-rule:nonzero;fill:#32bedd;fill-opacity:1" d="M40.926 28.656a5.048 5.048 0 1 1-10.098 0 5.047 5.047 0 0 1 5.047-5.047 5.05 5.05 0 0 1 5.05 5.047ZM30.398 14.863a4.266 4.266 0 0 1-8.53 0c0-2.36 1.91-4.27 4.265-4.27a4.267 4.267 0 0 1 4.265 4.27ZM18.133 30.543a3.45 3.45 0 1 1-6.9-.002 3.45 3.45 0 0 1 6.9.002ZM32.035 41.031a3.45 3.45 0 1 1-6.897-.002 3.45 3.45 0 0 1 6.897.002ZM48.426 43.77a3.983 3.983 0 1 1-7.964-.004 3.983 3.983 0 0 1 7.964.004Zm0 0"/><path style="stroke:none;fill-rule:nonzero;fill:#198ab3;fill-opacity:1" d="M58.559 13.688a5.048 5.048 0 1 1-10.098 0 5.05 5.05 0 0 1 5.05-5.047 5.047 5.047 0 0 1 5.048 5.046ZM16.32 13.688c0 2.789-2.261 5.05-5.05 5.05a5.05 5.05 0 1 1 5.05-5.05ZM37.086 58.063a5.048 5.048 0 0 1-5.05 5.046 5.045 5.045 0 0 1-5.048-5.047 5.048 5.048 0 1 1 10.098 0Zm0 0"/><path style="stroke:none;fill-rule:nonzero;fill:url(#a)" d="M17.563 11.094c8.82-6.457 20.851-6.285 29.476.426a6.839 6.839 0 0 1 3.555-4.09c-10.797-8.637-26.102-8.77-37.047-.32a6.904 6.904 0 0 1 4.015 3.984Zm41.46 6.683a6.789 6.789 0 0 1-4.765 2.703 24.34 24.34 0 0 1 2.383 10.668c-.012 11.25-7.657 21.059-18.563 23.82.559.989.852 2.102.856 3.235a6.34 6.34 0 0 1-.461 2.313A30.052 30.052 0 0 0 59.172 44.16a30.054 30.054 0 0 0-.184-26.383Zm-33.777 40.25a6.877 6.877 0 0 1 .817-3.199A24.573 24.573 0 0 1 9.773 41.45a24.58 24.58 0 0 1 .075-21.074 7.135 7.135 0 0 1-3.555-1.887 5.92 5.92 0 0 1-1.066-1.422 30.107 30.107 0 0 0-.547 26.75 30.112 30.112 0 0 0 20.957 16.63 6.817 6.817 0 0 1-.43-2.419Zm0 0"/></svg>