<svg xmlns="http://www.w3.org/2000/svg" width="64" height="64"><path style="stroke:none;fill-rule:nonzero;fill:#773adc;fill-opacity:1" d="M46.684 8.535v16.317L32.64 33.066V16.711Zm0 0"/><path style="stroke:none;fill-rule:nonzero;fill:#552f99;fill-opacity:1" d="M40.71 16.746c1.958-1.137 3.556-.25 3.556 1.992a7.73 7.73 0 0 1-3.555 6.114c-1.957 1.14-3.555.25-3.555-2.024a7.722 7.722 0 0 1 3.555-6.082Zm0 0"/><path style="stroke:none;fill-rule:nonzero;fill:#773adc;fill-opacity:1" d="M28.09 39.11v16.32l-14.047 8.215V47.289Zm0 0"/><path style="stroke:none;fill-rule:nonzero;fill:#552f99;fill-opacity:1" d="M21.05 48.105c1.954-1.101 3.555-.21 3.555 2.028a7.834 7.834 0 0 1-3.554 6.117c-1.957 1.137-3.559.21-3.559-2.027a7.828 7.828 0 0 1 3.559-6.118Zm0 0"/><path style="stroke:none;fill-rule:nonzero;fill:#a67af4;fill-opacity:1" d="M14.043 47.29v16.355L0 55.43V39.11Zm0 0"/><path style="stroke:none;fill-rule:nonzero;fill:#773adc;fill-opacity:1" d="M64 39.148v16.317L49.957 63.68V47.324Zm0 0"/><path style="stroke:none;fill-rule:nonzero;fill:#32bedd;fill-opacity:1" d="M40.852 22.043a14.836 14.836 0 0 1 8.43 9.281l.675-.39 3.555 2.062a18.531 18.531 0 0 0-11.2-14.437 1.924 1.924 0 0 0-1.46 3.558Zm0 0"/><path style="stroke:none;fill-rule:nonzero;fill:#a67af4;fill-opacity:1" d="M49.957 47.36v16.32L35.91 55.465V39.148Zm0 0"/><path style="stroke:none;fill-rule:nonzero;fill:#552f99;fill-opacity:1" d="M43.344 48.32C41.492 47.254 40 48.14 40 50.238a7.387 7.387 0 0 0 3.344 5.797c1.847 1.067 3.34.215 3.34-1.918a7.394 7.394 0 0 0-3.34-5.797Zm0 0"/><path style="stroke:none;fill-rule:nonzero;fill:#32bedd;fill-opacity:1" d="M32.71 57.281c-4.046.02-8-1.222-11.304-3.558a1.955 1.955 0 1 1 2.273-3.164 15.495 15.495 0 0 0 17.102.64 1.965 1.965 0 0 1 2.063 3.344 19.705 19.705 0 0 1-10.133 2.738Zm0 0"/><path style="stroke:none;fill-rule:nonzero;fill:#b796f9;fill-opacity:1" d="m46.684 8.535-14.008 8.211-14.043-8.21L32.676.32Zm0 0"/><path style="stroke:none;fill-rule:nonzero;fill:#32bedd;fill-opacity:1" d="M18.633 18.844a18.67 18.67 0 0 0-8.395 14.222l3.985-2.168v.176a14.919 14.919 0 0 1 4.41-7.36Zm0 0"/><path style="stroke:none;fill-rule:nonzero;fill:#b796f9;fill-opacity:1" d="M64 39.148 49.957 47.36 35.91 39.15l14.047-8.215ZM28.09 39.11l-14.047 8.18L0 39.11l14.043-8.212Zm0 0"/><path style="stroke:none;fill-rule:nonzero;fill:#a67af4;fill-opacity:1" d="M32.64 16.746v16.32l-14.007-8.214V8.535Zm0 0"/></svg>