<svg xmlns="http://www.w3.org/2000/svg" width="64" height="64"><defs><linearGradient id="a" gradientUnits="userSpaceOnUse" x1="5.055" y1="-1401.772" x2="5.055" y2="-1395.802" gradientTransform="matrix(3.55556 0 0 -3.55556 0 -4948.06)"><stop offset="0" style="stop-color:#32bedd;stop-opacity:1"/><stop offset=".18" style="stop-color:#32caea;stop-opacity:1"/><stop offset=".41" style="stop-color:#32d2f2;stop-opacity:1"/><stop offset=".78" style="stop-color:#32d4f5;stop-opacity:1"/></linearGradient><linearGradient id="b" gradientUnits="userSpaceOnUse" x1="9" y1="-1404.702" x2="9" y2="-1398.732" gradientTransform="matrix(3.55556 0 0 -3.55556 0 -4948.06)"><stop offset="0" style="stop-color:#32bedd;stop-opacity:1"/><stop offset=".18" style="stop-color:#32caea;stop-opacity:1"/><stop offset=".41" style="stop-color:#32d2f2;stop-opacity:1"/><stop offset=".78" style="stop-color:#32d4f5;stop-opacity:1"/></linearGradient><linearGradient id="c" gradientUnits="userSpaceOnUse" x1="12.945" y1="-1407.632" x2="12.945" y2="-1401.662" gradientTransform="matrix(3.55556 0 0 -3.55556 0 -4948.06)"><stop offset="0" style="stop-color:#32bedd;stop-opacity:1"/><stop offset=".18" style="stop-color:#32caea;stop-opacity:1"/><stop offset=".41" style="stop-color:#32d2f2;stop-opacity:1"/><stop offset=".78" style="stop-color:#32d4f5;stop-opacity:1"/></linearGradient></defs><path style="stroke:none;fill-rule:nonzero;fill:url(#a)" d="M0 14.793h35.945v20.05c0 .669-.539 1.212-1.207 1.212H1.207A1.211 1.211 0 0 1 0 34.844Zm0 0"/><path style="stroke:none;fill-rule:nonzero;fill:#767676;fill-opacity:1" d="M1.207 7.11h33.531c.668 0 1.207.542 1.207 1.21v6.473H0V8.32c0-.668.543-1.21 1.207-1.21Zm0 0"/><path style="stroke:none;fill-rule:nonzero;fill:#f2f2f2;fill-opacity:1" d="M5.441 9.422h25.067c.332 0 .601.27.601.605v1.883c0 .336-.27.606-.601.606H5.44a.603.603 0 0 1-.605-.606v-1.883c0-.336.27-.605.605-.605Zm0 0"/><path style="stroke:none;fill-rule:nonzero;fill:url(#b)" d="M14.008 25.172h35.984v20.055c0 .668-.543 1.21-1.21 1.21H15.218c-.668 0-1.211-.542-1.211-1.21Zm0 0"/><path style="stroke:none;fill-rule:nonzero;fill:#767676;fill-opacity:1" d="M15.219 17.527h33.527c.668 0 1.211.543 1.211 1.211v6.434H14.043v-6.434c0-.656.52-1.191 1.176-1.21Zm0 0"/><path style="stroke:none;fill-rule:nonzero;fill:#f2f2f2;fill-opacity:1" d="M19.45 19.84h25.066c.332 0 .605.27.605.605v1.883a.606.606 0 0 1-.605.606H19.449a.604.604 0 0 1-.605-.606v-1.883c0-.336.27-.605.605-.605Zm0 0"/><path style="stroke:none;fill-rule:nonzero;fill:url(#c)" d="M28.055 35.625H64V55.68c0 .668-.543 1.21-1.207 1.21H29.262a1.209 1.209 0 0 1-1.207-1.21Zm0 0"/><path style="stroke:none;fill-rule:nonzero;fill:#767676;fill-opacity:1" d="M29.262 27.945h33.531c.664 0 1.207.543 1.207 1.211v6.469H28.055v-6.469c0-.668.539-1.21 1.207-1.21Zm0 0"/><path style="stroke:none;fill-rule:nonzero;fill:#f2f2f2;fill-opacity:1" d="M57.031 44.941a2.917 2.917 0 0 1-2.914 2.918 2.915 2.915 0 1 1 0-5.832 2.914 2.914 0 0 1 2.914 2.914ZM49.066 44.941a2.917 2.917 0 0 1-2.914 2.918 2.915 2.915 0 1 1 0-5.832 2.914 2.914 0 0 1 2.914 2.914ZM40.852 44.941a2.917 2.917 0 0 1-2.914 2.918 2.917 2.917 0 0 1-2.915-2.918 2.914 2.914 0 0 1 5.829 0ZM33.492 30.258H58.56c.336 0 .605.27.605.605v1.883c0 .336-.27.606-.605.606H33.492a.603.603 0 0 1-.601-.606v-1.883c0-.336.27-.605.601-.605Zm0 0"/></svg>