<svg xmlns="http://www.w3.org/2000/svg" width="64" height="64"><defs><linearGradient id="a" gradientUnits="userSpaceOnUse" x1="14.415" y1="13.555" x2="11.867" y2="9.096" gradientTransform="scale(3.55556)"><stop offset=".101" style="stop-color:#773adc;stop-opacity:1"/><stop offset="1" style="stop-color:#403457;stop-opacity:1"/></linearGradient></defs><path style="stroke:none;fill-rule:nonzero;fill:#773adc;fill-opacity:1" d="M57.953 16.805v30.39L32 62.223V32.172Zm0 0"/><path style="stroke:none;fill-rule:nonzero;fill:url(#a)" d="M46.484 32.355c3.758-2.062 6.493-.355 6.493 3.743a14.887 14.887 0 0 1-6.489 11.27C42.734 49.413 40 47.722 40 43.612a13.992 13.992 0 0 1 6.484-11.258Zm0 0"/><path style="stroke:none;fill-rule:nonzero;fill:#b796f9;fill-opacity:1" d="M57.953 16.805 32 32.172 6.047 16.805 32 1.777Zm0 0"/><path style="stroke:none;fill-rule:nonzero;fill:#a67af4;fill-opacity:1" d="M32 32.172v30.05L6.047 47.196v-30.39Zm0 0"/></svg>