<svg xmlns="http://www.w3.org/2000/svg" width="64" height="64"><defs><linearGradient id="a" gradientUnits="userSpaceOnUse" x1="-.258" y1="-.226" x2="8.727" y2="8.72" gradientTransform="scale(3.55556)"><stop offset=".059" style="stop-color:#0086ec;stop-opacity:1"/><stop offset="1" style="stop-color:#004dae;stop-opacity:1"/></linearGradient><linearGradient id="b" gradientUnits="userSpaceOnUse" x1="9.064" y1="8.78" x2="17.493" y2=".669" gradientTransform="scale(3.55556)"><stop offset="0" style="stop-color:#004dae;stop-opacity:1"/><stop offset=".941" style="stop-color:#0086ec;stop-opacity:1"/></linearGradient><linearGradient id="c" gradientUnits="userSpaceOnUse" x1="8.863" y1="8.499" x2="17.77" y2="18.081" gradientTransform="scale(3.55556)"><stop offset=".059" style="stop-color:#0086ec;stop-opacity:1"/><stop offset="1" style="stop-color:#004dae;stop-opacity:1"/></linearGradient><linearGradient id="d" gradientUnits="userSpaceOnUse" x1="8.643" y1="9.163" x2=".493" y2="17.672" gradientTransform="scale(3.55556)"><stop offset=".059" style="stop-color:#0086ec;stop-opacity:1"/><stop offset="1" style="stop-color:#004dae;stop-opacity:1"/></linearGradient></defs><path style="stroke:none;fill-rule:nonzero;fill:url(#a)" d="M26.078 26.121H6.863c-.562 0-1.02-.453-1.02-1.016V6.906c0-.562.458-1.02 1.02-1.02h18.2c.562 0 1.015.458 1.015 1.02v19.215m4.074 4.07V2.844c0-.27-.105-.531-.297-.723a1.008 1.008 0 0 0-.722-.305H2.793c-.27 0-.527.11-.719.305a1.023 1.023 0 0 0-.297.723v26.328c0 .562.457 1.02 1.016 1.02Zm0 0"/><path style="stroke:none;fill-rule:nonzero;fill:url(#b)" d="M37.922 26.121v-19.2c0-.562.453-1.015 1.016-1.015h18.199c.562 0 1.02.453 1.02 1.016v18.183c0 .563-.458 1.016-1.02 1.016H37.922m-4.074 4.07h27.359a1.02 1.02 0 0 0 1.016-1.02V2.845a1.02 1.02 0 0 0-1.016-1.02h-26.34a1.02 1.02 0 0 0-1.02 1.02Zm0 0"/><path style="stroke:none;fill-rule:nonzero;fill:url(#c)" d="M37.922 37.879h19.215c.562 0 1.02.453 1.02 1.016v18.199a1.02 1.02 0 0 1-1.02 1.02h-18.2a1.017 1.017 0 0 1-1.015-1.02v-19.2m-4.074-4.085v27.347c0 .563.457 1.02 1.02 1.02h26.339a1.02 1.02 0 0 0 1.016-1.02V34.844c0-.563-.457-1.016-1.016-1.016Zm0 0"/><path style="stroke:none;fill-rule:nonzero;fill:url(#d)" d="M26.078 37.879v19.2c0 .562-.453 1.015-1.015 1.015h-18.2c-.562 0-1.02-.453-1.02-1.016V38.895c0-.563.458-1.016 1.02-1.016h19.215m4.074-4.07H2.793a1.021 1.021 0 0 0-1.016 1.035v26.312c0 .563.457 1.02 1.016 1.02h26.34a1.02 1.02 0 0 0 1.02-1.02Zm0 0"/><path style="stroke:none;fill-rule:nonzero;fill:#5fb832;fill-opacity:1" d="M52.977 29.227a56.627 56.627 0 0 0-3.672-17.356 17.288 17.288 0 0 1-2 3.504 20.633 20.633 0 0 0-14.352-5.844c-11.062 0-20.031 8.965-20.031 20.028-.004 11.062 8.965 20.03 20.027 20.03 11.063 0 20.028-8.968 20.028-20.026Zm0 0"/><path style="stroke:none;fill-rule:nonzero;fill:#fff;fill-opacity:1" d="M49.14 38.574c-5.003 6.508-15.519 4.336-22.19 4.672a18.69 18.69 0 0 0-2.34.168l1-.336a77.647 77.647 0 0 0 9.847-3.504 22.734 22.734 0 0 0 11.852-15.187 23.527 23.527 0 0 1-14.02 13.351 80.245 80.245 0 0 1-11.023 2.844l-.336-.168c-4.832-2.34-5-12.855 3.672-16.195 3.84-1.5 7.507-.668 11.683-1.664a18.689 18.689 0 0 0 11.692-8.688c2.503 7.184 5.175 18.031.164 24.707Zm-28.203 6.508a1.667 1.667 0 0 0-.003-3.336 1.667 1.667 0 1 0 .003 3.336Zm0 0"/></svg>