<svg xmlns="http://www.w3.org/2000/svg" width="64" height="64"><path style="stroke:none;fill-rule:nonzero;fill:#773adc;fill-opacity:1" d="M43.023 7.29V20.8l-11.378 6.755V14.043Zm0 0"/><path style="stroke:none;fill-rule:nonzero;fill:#552f99;fill-opacity:1" d="M38.043 14.441c1.562-.933 2.492-.312 2.492 1.563a6.328 6.328 0 0 1-2.492 4.367c-1.246.934-2.488.313-2.488-1.562a6.323 6.323 0 0 1 2.488-4.368Zm0 0"/><path style="stroke:none;fill-rule:nonzero;fill:#b796f9;fill-opacity:1" d="m43.023 7.29-11.378 6.753L19.91 7.289 31.645.535Zm0 0"/><path style="stroke:none;fill-rule:nonzero;fill:#a67af4;fill-opacity:1" d="M31.645 14.043v13.512L19.91 20.8V7.289Zm0 0"/><path style="stroke:none;fill-rule:nonzero;fill:#773adc;fill-opacity:1" d="M25.3 14.398c-1.421-.71-2.843 0-2.843 1.422a5.125 5.125 0 0 0 2.844 4.625c1.422.711 2.844 0 2.844-1.422a5.88 5.88 0 0 0-2.844-4.625Zm0 0"/><path style="stroke:none;fill-rule:nonzero;fill:#5e9624;fill-opacity:1" d="M63.29 25.066v13.512l-11.38 6.754V31.82Zm0 0"/><path style="stroke:none;fill-rule:nonzero;fill:#76bc2d;fill-opacity:1" d="M51.91 31.82v13.512l-11.375-6.754V25.066Zm0 0"/><path style="stroke:none;fill-rule:nonzero;fill:#5e9624;fill-opacity:1" d="M46.578 32.89c-1.422-.71-2.844 0-2.844 1.422a5.116 5.116 0 0 0 2.844 4.622c1.422.71 2.844 0 2.844-1.422a5.872 5.872 0 0 0-2.844-4.621Zm0 0"/><path style="stroke:none;fill-rule:nonzero;fill:#32bedd;fill-opacity:1" d="M46.71 21.594a18.294 18.294 0 0 0-6.89-5.059 1.817 1.817 0 0 0-1.476-.015c-.473.203-.84.593-1.012 1.082-.172.421-.152.898.05 1.308.204.406.575.707 1.016.824a15.104 15.104 0 0 1 5.188 3.614ZM46.7 28.727c.062.207.179.394.234.605l.425-.21Zm0 0"/><path style="stroke:none;fill-rule:nonzero;fill:#258277;fill-opacity:1" d="M23.82 25.777v13.157l-11.73 6.754V32.535Zm0 0"/><path style="stroke:none;fill-rule:nonzero;fill:#37c2b1;fill-opacity:1" d="M12.09 32.535v13.153L.71 38.934V25.777Zm0 0"/><path style="stroke:none;fill-rule:nonzero;fill:#32bedd;fill-opacity:1" d="M26.313 17.602a2.385 2.385 0 0 0-2.848-1.067 23.459 23.459 0 0 0-6.606 5.235l3.762 2.156a16.54 16.54 0 0 1 4.625-3.48 2.386 2.386 0 0 0 1.067-2.844Zm0 0"/><path style="stroke:none;fill-rule:nonzero;fill:#d15900;fill-opacity:1" d="M44.09 43.2v13.51l-11.38 6.755V49.957Zm0 0"/><path style="stroke:none;fill-rule:nonzero;fill:#f78d1e;fill-opacity:1" d="M32.71 49.957v13.508L21.333 56.71V43.199Zm0 0"/><path style="stroke:none;fill-rule:nonzero;fill:#32bedd;fill-opacity:1" d="M46.934 35.734a1.85 1.85 0 0 0-2.844.356 18.73 18.73 0 0 1-4.762 4.285l3.434 2.035a21.152 21.152 0 0 0 4.527-3.832 1.85 1.85 0 0 0-.355-2.844Zm0 0"/><path style="stroke:none;fill-rule:nonzero;fill:#207067;fill-opacity:1" d="M18.531 32.668c1.621-.887 2.801-.145 2.801 1.621a6.42 6.42 0 0 1-2.8 4.863c-1.618.887-2.798.149-2.798-1.62a6.04 6.04 0 0 1 2.797-4.864Zm0 0"/><path style="stroke:none;fill-rule:nonzero;fill:#32bedd;fill-opacity:1" d="M26.395 40.195a15.183 15.183 0 0 1-5.774-4.46c-.3-.462-.793-.77-1.34-.837a1.867 1.867 0 0 0-1.504.48c-.46.302-.765.794-.836 1.34-.066.548.11 1.098.48 1.505a19.607 19.607 0 0 0 4.903 4.39Zm0 0"/><path style="stroke:none;fill-rule:nonzero;fill:#ffb34d;fill-opacity:1" d="m44.09 43.2-11.38 6.757-11.378-6.758 11.379-6.754Zm0 0"/><path style="stroke:none;fill-rule:nonzero;fill:#42e8ca;fill-opacity:1" d="m23.82 25.777-11.73 6.758L.71 25.777l11.38-6.754Zm0 0"/><path style="stroke:none;fill-rule:nonzero;fill:#b4ec36;fill-opacity:1" d="M63.29 25.066 51.91 31.82l-11.375-6.754 11.375-6.398Zm0 0"/></svg>