<svg xmlns="http://www.w3.org/2000/svg" width="64" height="64"><defs><linearGradient id="a" gradientUnits="userSpaceOnUse" x1="9" y1="16.007" x2="9" y2="5.707" gradientTransform="scale(3.55556)"><stop offset="0" style="stop-color:#32bedd;stop-opacity:1"/><stop offset=".175" style="stop-color:#32caea;stop-opacity:1"/><stop offset=".41" style="stop-color:#32d2f2;stop-opacity:1"/><stop offset=".775" style="stop-color:#32d4f5;stop-opacity:1"/></linearGradient></defs><path style="stroke:none;fill-rule:nonzero;fill:url(#a)" d="M1.012 20.293h61.976v35.84c0 .43-.351.781-.785.781H1.797a.784.784 0 0 1-.785-.781Zm0 0"/><path style="stroke:none;fill-rule:nonzero;fill:#0078d4;fill-opacity:1" d="M1.809 7.086H62.19c.43 0 .782.351.782.781v12.426H1.027V7.867c0-.43.352-.781.782-.781ZM50.96 36.332a5.037 5.037 0 0 1-5.034 5.035 5.04 5.04 0 0 1-5.035-5.035 5.035 5.035 0 1 1 10.07 0ZM37.242 36.332a5.037 5.037 0 0 1-5.035 5.035 5.035 5.035 0 1 1 5.035-5.035ZM23.11 36.332a5.04 5.04 0 0 1-5.036 5.035 5.035 5.035 0 1 1 5.035-5.035Zm0 0"/><path style="stroke:none;fill-rule:nonzero;fill:#f2f2f2;fill-opacity:1" d="M9.742 11.031h44.512a.39.39 0 0 1 .39.39v4.536c0 .215-.175.39-.39.39H9.742a.392.392 0 0 1-.39-.39v-4.535a.39.39 0 0 1 .39-.39Zm0 0"/></svg>