<svg xmlns="http://www.w3.org/2000/svg" width="64" height="64"><defs><linearGradient id="a" gradientUnits="userSpaceOnUse" x1="9.23" y1="0" x2="9.23" y2="18" gradientTransform="scale(3.55556)"><stop offset="0" style="stop-color:#a67af4;stop-opacity:1"/><stop offset=".999" style="stop-color:#773adc;stop-opacity:1"/></linearGradient></defs><path style="stroke:none;fill-rule:nonzero;fill:url(#a)" d="M53.598 61.832A2.293 2.293 0 0 1 51.199 64H14.441a2.295 2.295 0 0 1-2.398-2.168V2.168A2.295 2.295 0 0 1 14.441 0H51.2a2.299 2.299 0 0 1 2.403 2.168Zm0 0"/><path style="stroke:none;fill-rule:nonzero;fill:#552f99;fill-opacity:1" d="M47.863 27.379a4.77 4.77 0 0 0-4.515-4.98h-20.68a4.765 4.765 0 0 0-4.516 4.98 4.762 4.762 0 0 0 4.516 4.976h20.68a4.767 4.767 0 0 0 4.515-4.976ZM47.863 12.574a4.767 4.767 0 0 0-4.515-4.976h-20.68a4.762 4.762 0 0 0-4.516 4.976 4.765 4.765 0 0 0 4.516 4.98h20.68a4.77 4.77 0 0 0 4.515-4.98Zm0 0"/><path style="stroke:none;fill-rule:nonzero;fill:#50e6ff;fill-opacity:1" d="M45.387 12.574a3.338 3.338 0 1 1-6.677.005 3.338 3.338 0 0 1 6.677-.005ZM45.387 27.36a3.338 3.338 0 1 1-6.676 0 3.338 3.338 0 1 1 6.676 0Zm0 0"/></svg>