<svg xmlns="http://www.w3.org/2000/svg" width="64" height="64"><defs><linearGradient id="a" gradientUnits="userSpaceOnUse" x1="7.981" y1="16.737" x2="7.981" y2=".724" gradientTransform="scale(3.55556)"><stop offset="0" style="stop-color:#0078d4;stop-opacity:1"/><stop offset="1" style="stop-color:#5ea0ef;stop-opacity:1"/></linearGradient></defs><path style="stroke:none;fill-rule:nonzero;fill:#0078d4;fill-opacity:1" d="M53.777 28.988c0 16.711-20.172 30.133-24.566 32.856-.508.32-1.16.32-1.668 0-4.39-2.723-24.566-16.16-24.566-32.856V8.891A1.595 1.595 0 0 1 4.535 7.3C20.23 6.887 16.617 0 28.375 0c11.762 0 8.152 6.887 23.844 7.313a1.598 1.598 0 0 1 1.558 1.59Zm0 0"/><path style="stroke:none;fill-rule:nonzero;fill:url(#a)" d="M51.672 29.156c0 15.309-18.488 27.633-22.527 30.133a1.444 1.444 0 0 1-1.532 0C23.586 56.793 5.086 44.47 5.086 29.156V10.742c0-.793.629-1.437 1.422-1.457 14.398-.394 11.086-6.71 21.867-6.71 10.785 0 7.469 6.316 21.867 6.71.793.02 1.422.664 1.422 1.457Zm0 0"/><path style="stroke:none;fill-rule:nonzero;fill:#76bc2d;fill-opacity:1" d="M61.023 45.45C61.023 55.694 52.72 64 42.477 64c-10.247 0-18.551-8.305-18.551-18.55 0-10.243 8.304-18.548 18.55-18.548 10.243 0 18.547 8.305 18.547 18.547Zm0 0"/><path style="stroke:none;fill-rule:nonzero;fill:#fff;fill-opacity:1" d="M29.227 43.707a.65.65 0 0 1-.899-.23l-.785-1.32a.658.658 0 0 1 .23-.903L34 37.563a.65.65 0 0 1 .898.23l3.696 6.227a.657.657 0 0 1-.234.898l-1.32.785a.661.661 0 0 1-.903-.23l-1.094-1.848a8.458 8.458 0 0 0-.172 3.117 7.667 7.667 0 0 0 1.031 2.953c.38.66.86 1.262 1.422 1.778.555.511 1.18.941 1.852 1.289a8.21 8.21 0 0 0 3.824.887.65.65 0 0 1 .64.593l.301 3.203c-1.125.102-2.257.04-3.363-.183a12.42 12.42 0 0 1-3.14-1.086 12.074 12.074 0 0 1-2.723-1.899 11.856 11.856 0 0 1-3.328-11.84Zm15.132-6.043a8.299 8.299 0 0 1 3.98 2.035 7.741 7.741 0 0 1 2.462 4.715 8.379 8.379 0 0 1-.168 3.117l-1.098-1.847a.657.657 0 0 0-.898-.235l-1.325.79a.658.658 0 0 0-.23.898l3.695 6.23c.188.309.586.41.899.227l6.226-3.696a.687.687 0 0 0 .305-.402.65.65 0 0 0-.074-.496l-.785-1.324a.66.66 0 0 0-.899-.227l-2.156 1.278a11.84 11.84 0 0 0-6.05-13.734c-.993-.5-2.052-.868-3.145-1.087a11.45 11.45 0 0 0-2.684-.222.649.649 0 0 0-.613.71l.238 2.524a.644.644 0 0 0 .64.598 7.344 7.344 0 0 1 1.68.172Zm0 0"/></svg>