<svg xmlns="http://www.w3.org/2000/svg" width="64" height="64"><defs><linearGradient id="a" gradientUnits="userSpaceOnUse" x1="9" y1="13.343" x2="9" y2=".586" gradientTransform="scale(3.55556)"><stop offset="0" style="stop-color:#0078d4;stop-opacity:1"/><stop offset="1" style="stop-color:#5ea0ef;stop-opacity:1"/></linearGradient><linearGradient id="b" gradientUnits="userSpaceOnUse" x1="9.104" y1="10.28" x2="9.104" y2="7.603" gradientTransform="scale(3.55556)"><stop offset="0" style="stop-color:#76bc2d;stop-opacity:1"/><stop offset=".412" style="stop-color:#7ac32f;stop-opacity:1"/><stop offset="1" style="stop-color:#86d633;stop-opacity:1"/></linearGradient><linearGradient id="c" gradientUnits="userSpaceOnUse" x1="9.119" y1="17.414" x2="9.119" y2="13.924" gradientTransform="scale(3.55556)"><stop offset="0" style="stop-color:#0078d4;stop-opacity:1"/><stop offset="1" style="stop-color:#5ea0ef;stop-opacity:1"/></linearGradient></defs><path style="stroke:none;fill-rule:nonzero;fill:url(#a)" d="M64 33.238a14.383 14.383 0 0 0-12.48-13.824c-.434-9.91-8.75-17.633-18.668-17.332a18.594 18.594 0 0 0-17.778 12.117C6.664 15.223.258 22.24 0 30.711c.375 9.586 8.43 17.066 18.02 16.73.535 0 1.066-.023 1.59-.066h29.18a3.06 3.06 0 0 0 .773-.113c7.789-.059 14.152-6.239 14.437-14.024Zm0 0"/><path style="stroke:none;fill-rule:nonzero;fill:#005ba1;fill-opacity:1" d="M29.492 35.902h6.02v19.02h-6.02Zm0 0"/><path style="stroke:none;fill-rule:nonzero;fill:#fff;fill-opacity:1" d="M49.555 20.621a.74.74 0 0 0-.739-.71h-8.691a.327.327 0 0 0-.23.562l2.503 2.507.168.168a.33.33 0 0 1 0 .461l-2.656 2.657a9.508 9.508 0 0 0-5.394-3.692v-5.246a.33.33 0 0 1 .328-.328h3.797a.33.33 0 0 0 .234-.563l-6.164-6.175a.72.72 0 0 0-.52-.215.736.736 0 0 0-.523.215l-6.184 6.175a.326.326 0 0 0 .23.563h3.798c.183 0 .328.148.328.328v5.246a9.507 9.507 0 0 0-5.543 3.883l-2.863-2.844a.335.335 0 0 1 0-.465l.168-.164 2.503-2.488a.328.328 0 0 0 .102-.379.324.324 0 0 0-.332-.207h-8.691a.74.74 0 0 0-.739.735v8.683c.004.133.082.25.207.3.121.052.262.024.356-.066l2.508-2.492.168-.164a.323.323 0 0 1 .46 0l4.532 4.52v.355c0 5.254 4.262 9.516 9.52 9.516 5.257 0 9.519-4.262 9.519-9.516 0-.238-.02-.472-.035-.71l4.195-4.2a.33.33 0 0 1 .46 0l2.677 2.676a.328.328 0 0 0 .559-.23Zm0 0"/><path style="stroke:none;fill-rule:nonzero;fill:url(#b)" d="M37.129 31.79a4.759 4.759 0 0 1-9.516 0 4.759 4.759 0 0 1 9.516 0Zm0 0"/><path style="stroke:none;fill-rule:nonzero;fill:url(#c)" d="M38.629 55.71a6.207 6.207 0 0 1-6.207 6.208 6.207 6.207 0 0 1-6.203-6.207 6.203 6.203 0 0 1 6.203-6.203 6.204 6.204 0 0 1 6.207 6.203Zm0 0"/></svg>