<svg xmlns="http://www.w3.org/2000/svg" width="64" height="64"><defs><linearGradient id="a" gradientUnits="userSpaceOnUse" x1="9.252" y1="14.005" x2="9.252" y2="-.028" gradientTransform="matrix(3.55556 0 0 3.55556 0 7.111)"><stop offset="0" style="stop-color:#b3b4b4;stop-opacity:1"/><stop offset=".33" style="stop-color:#b3b4b4;stop-opacity:1"/><stop offset=".82" style="stop-color:#cccccb;stop-opacity:1"/><stop offset="1" style="stop-color:#cccccb;stop-opacity:1"/></linearGradient><linearGradient id="b" gradientUnits="userSpaceOnUse" x1="10.558" y1="15.244" x2="10.439" y2="17.218" gradientTransform="scale(3.55556)"><stop offset=".317" style="stop-color:#33bedd;stop-opacity:1"/><stop offset="1" style="stop-color:#74cfeb;stop-opacity:1"/></linearGradient><linearGradient id="c" gradientUnits="userSpaceOnUse" x1="9" y1="14.113" x2="9" y2="3.938" gradientTransform="scale(3.55556)"><stop offset="0" style="stop-color:#616261;stop-opacity:1"/><stop offset="1" style="stop-color:#b6b8ba;stop-opacity:1"/></linearGradient></defs><path style="stroke:none;fill-rule:nonzero;fill:#74cfeb;fill-opacity:1" d="M39.703 62.996 3.867 46.871a5.403 5.403 0 0 1-2.863-7.168L17.129 3.867a5.403 5.403 0 0 1 7.168-2.863l35.836 16.125a5.403 5.403 0 0 1 2.863 7.168L46.871 60.133a5.403 5.403 0 0 1-7.168 2.863Zm0 0"/><path style="stroke:none;fill-rule:nonzero;fill:url(#a)" d="m56.535 18.203-9.664-9.668A4.607 4.607 0 0 0 43.29 7.11H12.83a4.904 4.904 0 0 0-5.009 5v39.782a4.915 4.915 0 0 0 1.434 3.582 4.908 4.908 0 0 0 3.586 1.433h40.137a4.908 4.908 0 0 0 3.586-1.433 4.915 4.915 0 0 0 1.433-3.582V21.789a5.492 5.492 0 0 0-1.422-3.586Zm0 0"/><path style="stroke:none;fill-rule:nonzero;fill:url(#b)" d="m26.484 56.906 13.157 5.875c4.144 2.422 7.605-2.761 8.64-5.875"/><path style="stroke:none;fill-rule:nonzero;fill:url(#c)" d="M50.086 34.043v-4.121l-.574-.219-4.418-1.445-1.153-2.824 2.239-4.778-2.895-2.879-.574.29-4.125 2.101-2.824-1.16-1.809-4.977h-4.121l-.223.547-1.445 4.414-2.82 1.16-4.703-2.242-2.895 2.895.293.578 2.098 4.12-1.16 2.825-5.063 1.809v4.125l.574.215 4.418 1.449 1.153 2.82-2.239 4.774 2.895 2.894.574-.289 4.125-2.098 2.824 1.157 1.809 4.976h4.121l.223-.578 1.445-4.414 2.82-1.156 4.774 2.242 2.894-2.895-.285-.578-2.098-4.125 1.153-2.824Zm0 0"/><path style="stroke:none;fill-rule:nonzero;fill:#fff;fill-opacity:1" d="M34.316 22.371a.367.367 0 0 0-.183-.047.485.485 0 0 0-.332.192L25.6 34.44a.446.446 0 0 0-.046.43.48.48 0 0 0 .379.238h4.898l-2.191 7.203a.352.352 0 0 0-.008.282c.035.09.11.16.199.199.055.035.121.05.188.043a.476.476 0 0 0 .335-.168l8.446-12.09c.047-.098.094-.14.094-.238a.428.428 0 0 0-.426-.43H32.41l2.102-7.062a.36.36 0 0 0-.196-.477Zm0 0"/></svg>