<svg xmlns="http://www.w3.org/2000/svg" width="64" height="64"><defs><linearGradient id="a" gradientUnits="userSpaceOnUse" x1="9" y1="15.834" x2="9" y2="5.788" gradientTransform="scale(3.55556)"><stop offset="0" style="stop-color:#32bedd;stop-opacity:1"/><stop offset=".775" style="stop-color:#32d4f5;stop-opacity:1"/></linearGradient></defs><path style="stroke:none;fill-rule:nonzero;fill:url(#a)" d="M1.777 20.578h60.446v33.7a2.02 2.02 0 0 1-2.02 2.019H3.797a2.02 2.02 0 0 1-2.02-2.02Zm0 0"/><path style="stroke:none;fill-rule:nonzero;fill:#0078d4;fill-opacity:1" d="M3.809 7.703H60.19c1.118 0 2.02.902 2.02 2.02v10.855H1.777V9.723c0-.54.215-1.055.598-1.434.379-.379.895-.59 1.434-.586ZM9.285 25.063h20.32c.555 0 1.004.449 1.004 1.007v10.106c0 .554-.449 1.004-1.004 1.004H9.285c-.558 0-1.008-.45-1.008-1.004V26.07c0-.558.45-1.008 1.008-1.008Zm0 0"/><path style="stroke:none;fill-rule:nonzero;fill:#fff;fill-opacity:1" d="M34.2 25.063h20.32c.558 0 1.007.449 1.007 1.007v10.106c0 .554-.449 1.004-1.007 1.004H34.2c-.555 0-1.005-.45-1.005-1.004V26.07c0-.558.45-1.008 1.004-1.008Zm0 0"/><path style="stroke:none;fill-rule:nonzero;fill:#0078d4;fill-opacity:1" d="M9.168 39.566h20.32c.559 0 1.008.45 1.008 1.008v10.102c0 .558-.45 1.008-1.008 1.008H9.168c-.555 0-1.004-.45-1.004-1.008V40.574c0-.558.45-1.008 1.004-1.008ZM34.086 39.566h20.32c.555 0 1.008.45 1.008 1.008v10.102c0 .558-.453 1.008-1.008 1.008h-20.32c-.555 0-1.004-.45-1.004-1.008V40.574c0-.558.45-1.008 1.004-1.008Zm0 0"/></svg>