<svg xmlns="http://www.w3.org/2000/svg" width="64" height="64"><defs><linearGradient id="a" gradientUnits="userSpaceOnUse" x1="7.863" y1="0" x2="7.863" y2="12.81" gradientTransform="scale(3.55556)"><stop offset="0" style="stop-color:#b77af4;stop-opacity:1"/><stop offset=".621" style="stop-color:#8c4fe4;stop-opacity:1"/><stop offset=".997" style="stop-color:#773adc;stop-opacity:1"/></linearGradient></defs><path style="stroke:none;fill-rule:nonzero;fill:#32bedd;fill-opacity:1" d="M35.762 45.895a7.922 7.922 0 1 1-15.844 0 7.922 7.922 0 0 1 15.844 0Zm0 0"/><path style="stroke:none;fill-rule:nonzero;fill:#50e6ff;fill-opacity:1" d="M27.84 58.633c-7.04.004-12.746-5.703-12.746-12.738 0-7.04 5.707-12.747 12.742-12.747 7.039 0 12.746 5.707 12.742 12.747-.008 7.03-5.707 12.73-12.738 12.738Zm0-23.317c-5.844-.007-10.59 4.723-10.594 10.567-.008 5.844 4.727 10.586 10.57 10.59 5.844.004 10.582-4.735 10.582-10.578-.003-5.833-4.726-10.563-10.558-10.579Zm0 0"/><path style="stroke:none;fill-rule:nonzero;fill:#9cebff;fill-opacity:1" d="M27.84 64c-10 .004-18.11-8.105-18.113-18.105 0-10.004 8.109-18.114 18.109-18.114 10.004.004 18.11 8.114 18.11 18.114C45.93 55.887 37.831 63.985 27.84 64Zm0-34.047c-8.805-.004-15.945 7.133-15.945 15.942-.004 8.804 7.136 15.94 15.94 15.945 8.806 0 15.946-7.14 15.946-15.945-.011-8.801-7.14-15.93-15.941-15.942Zm0 0"/><path style="stroke:none;fill-rule:nonzero;fill:url(#a)" d="M27.957 0a13.84 13.84 0 0 0-9.723 4.422 13.834 13.834 0 0 0-3.683 10.023c0 6.301 7.996 21.059 11.64 29.914a1.904 1.904 0 0 0 3.527 0c3.637-8.914 11.65-23.824 11.65-29.91C41.617 6.77 35.632.324 27.956 0Zm0 19.555a5.96 5.96 0 0 1-5.96-5.965 5.962 5.962 0 0 1 5.968-5.961 5.967 5.967 0 0 1 5.957 5.976 5.958 5.958 0 0 1-5.965 5.95Zm0 0"/></svg>