<svg xmlns="http://www.w3.org/2000/svg" width="64" height="64"><defs><linearGradient id="a" gradientUnits="userSpaceOnUse" x1="3.565" y1="17" x2="3.565" y2="3.753" gradientTransform="scale(3.55556)"><stop offset="0" style="stop-color:#fea11b;stop-opacity:1"/><stop offset=".127" style="stop-color:#feac19;stop-opacity:1"/><stop offset=".562" style="stop-color:#ffcb12;stop-opacity:1"/><stop offset=".804" style="stop-color:#ffd70f;stop-opacity:1"/></linearGradient><linearGradient id="b" gradientUnits="userSpaceOnUse" x1="9" y1="17" x2="9" y2="3.753" gradientTransform="scale(3.55556)"><stop offset="0" style="stop-color:#5e9624;stop-opacity:1"/><stop offset=".546" style="stop-color:#6dad2a;stop-opacity:1"/><stop offset=".999" style="stop-color:#76bc2d;stop-opacity:1"/></linearGradient><linearGradient id="c" gradientUnits="userSpaceOnUse" x1="14.435" y1="17" x2="14.435" y2="3.753" gradientTransform="scale(3.55556)"><stop offset="0" style="stop-color:#1b93eb;stop-opacity:1"/><stop offset="1" style="stop-color:#6bb9f2;stop-opacity:1"/></linearGradient></defs><path style="stroke:none;fill-rule:nonzero;fill:url(#a)" d="M6.7 13.344h11.952a1.84 1.84 0 0 1 1.84 1.84v43.421a1.84 1.84 0 0 1-1.84 1.84H6.7a1.84 1.84 0 0 1-1.84-1.84V15.184a1.84 1.84 0 0 1 1.84-1.84Zm0 0"/><path style="stroke:none;fill-rule:nonzero;fill:url(#b)" d="M26.023 13.344h11.954a1.84 1.84 0 0 1 1.84 1.84v43.421a1.84 1.84 0 0 1-1.84 1.84H26.023a1.84 1.84 0 0 1-1.84-1.84V15.184a1.84 1.84 0 0 1 1.84-1.84Zm0 0"/><path style="stroke:none;fill-rule:nonzero;fill:url(#c)" d="M45.352 13.344h11.953a1.84 1.84 0 0 1 1.84 1.84v43.421a1.84 1.84 0 0 1-1.84 1.84H45.352a1.84 1.84 0 0 1-1.84-1.84V15.184a1.84 1.84 0 0 1 1.84-1.84Zm0 0"/><path style="stroke:none;fill-rule:nonzero;fill:#faa21d;fill-opacity:1" d="M5.75 3.555h13.848c.492 0 .894.402.894.894v10.207H4.848V4.45a.89.89 0 0 1 .265-.636.882.882 0 0 1 .637-.258Zm0 0"/><path style="stroke:none;fill-rule:nonzero;fill:#86d633;fill-opacity:1" d="M25.078 3.555h13.844c.492 0 .894.402.894.894v10.207H24.18V4.45c0-.238.093-.469.261-.636a.915.915 0 0 1 .637-.258Zm0 0"/><path style="stroke:none;fill-rule:nonzero;fill:#5ea0ef;fill-opacity:1" d="M44.402 3.555h13.844c.492 0 .895.402.895.894v10.207H43.496V4.45a.897.897 0 0 1 .906-.895Zm0 0"/></svg>