<svg xmlns="http://www.w3.org/2000/svg" width="64" height="64"><defs><linearGradient id="a" gradientUnits="userSpaceOnUse" x1="54.259" y1="17.732" x2="54.259" y2="12.155" gradientTransform="matrix(3.55556 0 0 3.55556 -171.374 3.282)"><stop offset="0" style="stop-color:#76bc2d;stop-opacity:1"/><stop offset=".192" style="stop-color:#7fcb30;stop-opacity:1"/><stop offset=".42" style="stop-color:#84d332;stop-opacity:1"/><stop offset=".775" style="stop-color:#86d633;stop-opacity:1"/></linearGradient><linearGradient id="b" gradientUnits="userSpaceOnUse" x1="8.267" y1="14.714" x2="8.267" y2="1.379" gradientTransform="scale(3.55556)"><stop offset="0" style="stop-color:#1988d9;stop-opacity:1"/><stop offset=".9" style="stop-color:#54aef0;stop-opacity:1"/></linearGradient></defs><path style="stroke:none;fill-rule:nonzero;fill:#005ba1;fill-opacity:1" d="m10.242 4.953 3.73-4.332A1.815 1.815 0 0 1 15.34 0h35.738a2.493 2.493 0 0 1 1.945.66 2.48 2.48 0 0 1 .786 1.895v44.61c.004.51-.211.995-.59 1.339l-4.024 3.668H12.66l-2.469-1.04Zm0 0"/><path style="stroke:none;fill-rule:nonzero;fill:#fff;fill-opacity:1" d="m13.246 4.93 2.281-2.602a1.61 1.61 0 0 1 1.207-.55h33.399c.426 0 .836.167 1.137.472.3.3.468.707.468 1.137V45.8c0 .453-.191.886-.523 1.187l-3.555 3.25Zm0 0"/><path style="stroke:none;fill-rule:nonzero;fill:url(#a)" d="M27.215 45.867H15.87a.607.607 0 0 0-.605.61v17.168c0 .117.066.222.171.273.106.05.231.035.32-.035l5.598-4.387a.294.294 0 0 1 .13-.055h-.024l6.363-4.976v-7.992a.61.61 0 0 0-.61-.606Zm0 0"/><path style="stroke:none;fill-rule:nonzero;fill:#76bc2d;fill-opacity:1" d="m21.46 59.422 6.364-4.98v9.245a.306.306 0 0 1-.168.274.306.306 0 0 1-.32-.031Zm0 0"/><path style="stroke:none;fill-rule:nonzero;fill:url(#b)" d="M47.41 4.902H10.36a.17.17 0 0 0-.169.172v46.059c0 .652.528 1.183 1.184 1.183H47.41c.653 0 1.184-.53 1.188-1.183V6.086a1.191 1.191 0 0 0-1.188-1.184Zm0 0"/><path style="stroke:none;fill-rule:nonzero;fill:#fff;fill-opacity:1" d="M21.543 21.84v12.598h-2.7V24.89c-.163.132-.34.254-.527.355a5.625 5.625 0 0 1-1.36.555 4.695 4.695 0 0 1-.733.144v-2.258c.691-.199 1.359-.464 1.996-.792.597-.305 1.164-.66 1.695-1.067ZM29.512 34.656c-2.938 0-4.407-2.062-4.403-6.183a8.369 8.369 0 0 1 1.203-4.887 3.967 3.967 0 0 1 3.45-1.68c2.863 0 4.297 2.094 4.297 6.285a8.304 8.304 0 0 1-1.172 4.797 3.865 3.865 0 0 1-3.375 1.668Zm.12-10.668c-1.187 0-1.777 1.477-1.777 4.426 0 2.781.575 4.172 1.727 4.172 1.152 0 1.723-1.438 1.707-4.309 0-2.867-.55-4.297-1.652-4.297ZM41.8 21.84v12.598h-2.71V24.89c-.164.132-.34.254-.531.355a6.16 6.16 0 0 1-.645.317 5.842 5.842 0 0 1-1.441.382v-2.258a11.241 11.241 0 0 0 3.687-1.859Zm0 0"/></svg>