<svg xmlns="http://www.w3.org/2000/svg" width="64" height="64"><defs><radialGradient id="a" gradientUnits="userSpaceOnUse" cx="9" cy="9" fx="9" fy="9" r="8.5" gradientTransform="scale(3.55556)"><stop offset="0" style="stop-color:#50e6ff;stop-opacity:1"/><stop offset=".333" style="stop-color:#49ddf7;stop-opacity:1"/><stop offset=".876" style="stop-color:#37c5e3;stop-opacity:1"/><stop offset="1" style="stop-color:#32bedd;stop-opacity:1"/></radialGradient></defs><path style="stroke:none;fill-rule:nonzero;fill:url(#a)" d="M62.223 32c0 16.691-13.532 30.223-30.223 30.223S1.777 48.69 1.777 32 15.31 1.777 32 1.777 62.223 15.31 62.223 32Zm0 0"/><path style="stroke:none;fill-rule:nonzero;fill:#198ab3;fill-opacity:1" d="M56.04 32c0 13.277-10.763 24.04-24.04 24.04S7.96 45.276 7.96 32 18.724 7.96 32 7.96 56.04 18.724 56.04 32Zm0 0"/><path style="stroke:none;fill-rule:nonzero;fill:#fff;fill-opacity:1" d="m24.59 30.71 14.3 4.173-1.828-18.211a.633.633 0 0 0-.453-.543.634.634 0 0 0-.675.21Zm0 0"/><path style="stroke:none;fill-rule:nonzero;fill:#50e6ff;fill-opacity:1" d="m38.969 34.613-14.301-4.175 1.828 18.214a.642.642 0 0 0 .453.543.63.63 0 0 0 .676-.215Zm0 0"/></svg>