<svg xmlns="http://www.w3.org/2000/svg" width="64" height="64"><defs><linearGradient id="a" gradientUnits="userSpaceOnUse" x1="8.668" y1="-2.386" x2="15.243" y2="15.46" gradientTransform="scale(3.55556)"><stop offset="0" style="stop-color:#6bb9f2;stop-opacity:1"/><stop offset="1" style="stop-color:#1b93eb;stop-opacity:1"/></linearGradient></defs><path style="stroke:none;fill-rule:nonzero;fill:url(#a)" d="M62.672 24.145V2.555a.778.778 0 0 0-.777-.778h-21.59a.78.78 0 0 0-.723.477.783.783 0 0 0 .172.851l5.95 5.946.394.394c.3.305.3.797 0 1.102L20.066 36.574a.791.791 0 0 0-.23.551c0 .207.086.406.23.55l6.707 6.708a.773.773 0 0 0 1.098 0l26.031-26.028a.768.768 0 0 1 .551-.23c.207 0 .406.082.55.23l.395.395 5.946 5.941a.776.776 0 0 0 1.328-.547Zm0 0"/><path style="stroke:none;fill-rule:nonzero;fill:#b3b3b3;fill-opacity:1" d="M46.816 38.824v15.801A1.815 1.815 0 0 1 45 56.441H8.926a1.815 1.815 0 0 1-1.817-1.816V20.57a1.815 1.815 0 0 1 1.817-1.816H27c.55 0 .996-.45.996-.996v-3.793a.998.998 0 0 0-.996-.996H3.145a1.819 1.819 0 0 0-1.817 1.82v45.617a1.815 1.815 0 0 0 1.816 1.816H50.79c1 0 1.816-.812 1.816-1.816V38.824a.995.995 0 0 0-.996-.996h-3.797a.995.995 0 0 0-.996.996Zm0 0"/></svg>