<svg xmlns="http://www.w3.org/2000/svg" width="64" height="64"><defs><linearGradient id="a" gradientUnits="userSpaceOnUse" x1="8.153" y1="17.5" x2="8.153" y2="2.093" gradientTransform="scale(3.55556)"><stop offset="0" style="stop-color:#ef7100;stop-opacity:1"/><stop offset=".9" style="stop-color:#f78d1e;stop-opacity:1"/></linearGradient></defs><path style="stroke:none;fill-rule:nonzero;fill:#d15900;fill-opacity:1" d="m6.867 7.5 4.305-5.012c.398-.453.973-.71 1.578-.71h41.293a2.903 2.903 0 0 1 2.246.769 2.9 2.9 0 0 1 .914 2.187V56.29c0 .586-.25 1.148-.683 1.547l-4.653 4.234H9.657l-2.845-1.199Zm0 0"/><path style="stroke:none;fill-rule:nonzero;fill:#fff;fill-opacity:1" d="m10.328 7.465 2.64-3.008a1.862 1.862 0 0 1 1.4-.637H52.93c1.023 0 1.855.832 1.855 1.86v49.015c0 .524-.222 1.02-.61 1.371L50.06 59.82Zm0 0"/><path style="stroke:none;fill-rule:nonzero;fill:url(#a)" d="M49.805 7.441H7a.2.2 0 0 0-.2.2v53.21c0 .368.145.715.407.973.258.258.606.399.973.399h41.633a1.37 1.37 0 0 0 1.37-1.371V8.812a1.377 1.377 0 0 0-1.378-1.37Zm0 0"/><path style="stroke:none;fill-rule:nonzero;fill:#fff;fill-opacity:1" d="M37.332 35.055a8.038 8.038 0 0 1-2.266 5.64 1.364 1.364 0 0 1-2.043.23c-.3-.269-.472-.655-.468-1.058.004-.406.183-.789.492-1.05a5.565 5.565 0 0 0 0-7.731 1.388 1.388 0 0 1-.434-1.418c.14-.516.567-.902 1.094-.996a1.38 1.38 0 0 1 1.371.558 8.207 8.207 0 0 1 2.254 5.825ZM20.648 35.05a8.463 8.463 0 0 1 2.262-5.804 1.39 1.39 0 0 1 1.39-.574c.536.098.966.496 1.102 1.023a1.388 1.388 0 0 1-.472 1.43 5.568 5.568 0 0 0 0 7.672 1.423 1.423 0 0 1 0 2.16c-.278.238-.64.352-1.008.316a1.365 1.365 0 0 1-.93-.5 8.433 8.433 0 0 1-2.344-5.722ZM26.668 34.922c0-.621.246-1.215.687-1.652a2.34 2.34 0 0 1 1.657-.68 2.366 2.366 0 0 1 0 4.726 2.313 2.313 0 0 1-2.344-2.395Zm0 0"/><path style="stroke:none;fill-rule:nonzero;fill:#fff;fill-opacity:1" d="M44.445 34.844c.02 3.14-1.199 6.164-3.386 8.418-.332.48-.856.797-1.438.863a2.034 2.034 0 0 1-1.601-.508 2.094 2.094 0 0 1 .03-3.152 8.296 8.296 0 0 0 0-11.528 2.072 2.072 0 0 1-.648-2.117 2.071 2.071 0 0 1 3.688-.648 12.24 12.24 0 0 1 3.355 8.672ZM13.512 34.582a11.965 11.965 0 0 0 3.383 8.414c.335.484.859.797 1.44.867a2.041 2.041 0 0 0 1.602-.511c.458-.399.723-.98.715-1.594a2.07 2.07 0 0 0-.742-1.578 8.304 8.304 0 0 1 0-11.528 2.069 2.069 0 1 0-3.031-2.77 12.242 12.242 0 0 0-3.367 8.7Zm0 0"/></svg>