<svg xmlns="http://www.w3.org/2000/svg" xmlns:xlink="http://www.w3.org/1999/xlink" width="64" height="64"><defs><clipPath id="b"><path d="M0 0h64v64H0z"/></clipPath><clipPath id="c"><path d="M0 0h64v64H0z"/></clipPath><clipPath id="d"><path d="M0 0h64v64H0z"/></clipPath><clipPath id="e"><path d="M0 0h64v64H0z"/></clipPath><mask id="g"><g filter="url(#a)"><path style="fill:#000;fill-opacity:.501961;stroke:none" d="M0 0h64v64H0z"/></g></mask><mask id="i"><g filter="url(#a)"><path style="fill:#000;fill-opacity:.501961;stroke:none" d="M0 0h64v64H0z"/></g></mask><mask id="k"><g filter="url(#a)"><path style="fill:#000;fill-opacity:.501961;stroke:none" d="M0 0h64v64H0z"/></g></mask><mask id="m"><g filter="url(#a)"><path style="fill:#000;fill-opacity:.501961;stroke:none" d="M0 0h64v64H0z"/></g></mask><g id="f" clip-path="url(#b)"><path style="stroke:none;fill-rule:nonzero;fill:#999;fill-opacity:1" d="M4.668 6.207h4.394v12.281c0 .54-.437.977-.972.977H3.695a.977.977 0 0 1-.976-.977V8.156c0-1.074.875-1.949 1.949-1.949Zm0 0"/></g><g id="h" clip-path="url(#c)"><path style="stroke:none;fill-rule:nonzero;fill:#999;fill-opacity:1" d="M54.297 6.207h4.394a1.95 1.95 0 0 1 1.95 1.95v10.331c0 .54-.438.977-.977.977H55.27a.976.976 0 0 1-.973-.977Zm0 0"/></g><g id="j" clip-path="url(#d)"><path style="stroke:none;fill-rule:nonzero;fill:#999;fill-opacity:1" d="M3.695 44.535h4.399c.535 0 .972.438.972.977v12.281H4.668a1.952 1.952 0 0 1-1.95-1.95V45.513c0-.54.438-.977.977-.977Zm0 0"/></g><g id="l" clip-path="url(#e)"><path style="stroke:none;fill-rule:nonzero;fill:#999;fill-opacity:1" d="M55.27 44.535h4.394c.54 0 .977.438.977.977v10.336a1.95 1.95 0 0 1-1.95 1.949h-4.394V45.512c0-.54.437-.977.973-.977Zm0 0"/></g><linearGradient id="n" gradientUnits="userSpaceOnUse" x1="-1803.596" y1="-323.82" x2="-1810.471" y2="-323.82" gradientTransform="matrix(0 3.55556 -3.55556 0 -1135.85 6456.555)"><stop offset="0" style="stop-color:#773adc;stop-opacity:1"/><stop offset="1" style="stop-color:#a67af4;stop-opacity:1"/></linearGradient><linearGradient id="o" gradientUnits="userSpaceOnUse" x1="-1803.596" y1="-333.097" x2="-1810.471" y2="-333.097" gradientTransform="matrix(0 3.55556 -3.55556 0 -1135.85 6456.555)"><stop offset="0" style="stop-color:#1b93eb;stop-opacity:1"/><stop offset="1" style="stop-color:#6bb9f2;stop-opacity:1"/></linearGradient><filter id="a" filterUnits="objectBoundingBox" x="0%" y="0%" width="100%" height="100%"><feColorMatrix in="SourceGraphic" values="0 0 0 0 1 0 0 0 0 1 0 0 0 0 1 0 0 0 1 0"/></filter></defs><path style="stroke:none;fill-rule:nonzero;fill:#999;fill-opacity:1" d="M4.668 6.207h4.394v12.281c0 .54-.437.977-.972.977H3.695a.977.977 0 0 1-.976-.977V8.156c0-1.074.875-1.949 1.949-1.949Zm0 0"/><use xlink:href="#f" mask="url(#g)"/><path style="stroke:none;fill-rule:nonzero;fill:#999;fill-opacity:1" d="M54.297 6.207h4.394a1.95 1.95 0 0 1 1.95 1.95v10.331c0 .54-.438.977-.977.977H55.27a.976.976 0 0 1-.973-.977Zm0 0"/><use xlink:href="#h" mask="url(#i)"/><path style="stroke:none;fill-rule:nonzero;fill:#949494;fill-opacity:1" d="M60.64 8.137v4.27H2.72v-4.27c0-1.063.867-1.93 1.933-1.93h54.043a1.932 1.932 0 0 1 1.946 1.93Zm0 0"/><path style="stroke:none;fill-rule:nonzero;fill:#999;fill-opacity:1" d="M3.695 44.535h4.399c.535 0 .972.438.972.977v12.281H4.668a1.952 1.952 0 0 1-1.95-1.95V45.513c0-.54.438-.977.977-.977Zm0 0"/><use xlink:href="#j" mask="url(#k)"/><path style="stroke:none;fill-rule:nonzero;fill:#999;fill-opacity:1" d="M55.27 44.535h4.394c.54 0 .977.438.977.977v10.336a1.95 1.95 0 0 1-1.95 1.949h-4.394V45.512c0-.54.437-.977.973-.977Zm0 0"/><use xlink:href="#l" mask="url(#m)"/><path style="stroke:none;fill-rule:nonzero;fill:#949494;fill-opacity:1" d="M2.719 55.863v-4.27H60.64v4.27c0 1.063-.864 1.93-1.93 1.93H4.652a1.935 1.935 0 0 1-1.933-1.93Zm0 0"/><path style="stroke:none;fill-rule:nonzero;fill:url(#n)" d="m17.738 19.5 11.114 11.11c.246.25.386.585.386.937 0 .351-.14.687-.386.937l-11.114 11.11a.583.583 0 0 1-.644.129.581.581 0 0 1-.364-.547v-6.832a.594.594 0 0 0-.593-.594H2.25a.457.457 0 0 1-.336-.137.49.49 0 0 1-.137-.336v-7.465c0-.125.051-.246.141-.335a.454.454 0 0 1 .332-.133h13.887a.59.59 0 0 0 .593-.594v-6.84c0-.238.145-.453.368-.543a.585.585 0 0 1 .64.133Zm0 0"/><path style="stroke:none;fill-rule:nonzero;fill:url(#o)" d="m50.723 19.5 11.113 11.11c.512.519.512 1.355 0 1.874l-11.113 11.11a.582.582 0 0 1-.645.129.581.581 0 0 1-.363-.547v-6.832a.593.593 0 0 0-.594-.594h-13.89a.464.464 0 0 1-.47-.473v-7.465a.464.464 0 0 1 .469-.473h13.891a.593.593 0 0 0 .594-.593V19.91c0-.238.144-.453.367-.543a.585.585 0 0 1 .64.133Zm0 0"/></svg>