<svg xmlns="http://www.w3.org/2000/svg" width="64" height="64"><defs><linearGradient id="a" gradientUnits="userSpaceOnUse" x1="9" y1="3.12" x2="9" y2="14.88" gradientTransform="scale(3.55556)"><stop offset="0" style="stop-color:#32d4f5;stop-opacity:1"/><stop offset=".228" style="stop-color:#31d0f1;stop-opacity:1"/><stop offset=".463" style="stop-color:#2cc3e6;stop-opacity:1"/><stop offset=".703" style="stop-color:#25afd4;stop-opacity:1"/><stop offset=".944" style="stop-color:#1c92ba;stop-opacity:1"/><stop offset="1" style="stop-color:#198ab3;stop-opacity:1"/></linearGradient></defs><path style="stroke:none;fill-rule:nonzero;fill:url(#a)" d="M3.813 11.094h56.374c1.126 0 2.036.91 2.036 2.035V50.87c0 1.125-.91 2.035-2.035 2.035H3.812a2.034 2.034 0 0 1-2.035-2.035V13.13c0-1.125.91-2.035 2.035-2.035Zm0 0"/><path style="stroke:none;fill-rule:nonzero;fill:#86d633;fill-opacity:1" d="m62.09 35.242-4.367-3.953a4.879 4.879 0 0 0-6.344 0L27.832 52.906h32.355c1.126 0 2.036-.91 2.036-2.035V35.227Zm0 0"/><path style="stroke:none;fill-rule:nonzero;fill:#b4ec36;fill-opacity:1" d="M55.785 52.906 37.27 36.086a3.77 3.77 0 0 0-4.895 0l-18.508 16.82Zm0 0"/><path style="stroke:none;fill-rule:nonzero;fill:#fff;fill-opacity:1" d="M32 27.918a5.53 5.53 0 0 0-4.805-5.332 6.976 6.976 0 0 0-7.183-6.66 7.203 7.203 0 0 0-6.856 4.668 6.57 6.57 0 0 0-5.789 6.351 6.7 6.7 0 0 0 6.938 6.442c.207 0 .406 0 .61-.028h11.233c.098-.004.2-.015.293-.043 3-.023 5.45-2.402 5.559-5.398Zm0 0"/></svg>