<svg xmlns="http://www.w3.org/2000/svg" width="64" height="64"><defs><linearGradient id="a" gradientUnits="userSpaceOnUse" x1="9" y1="16.573" x2="9" y2="1.427" gradientTransform="scale(3.55556)"><stop offset="0" style="stop-color:#b31b1b;stop-opacity:1"/><stop offset=".82" style="stop-color:#e62323;stop-opacity:1"/></linearGradient><linearGradient id="b" gradientUnits="userSpaceOnUse" x1="9" y1="16.525" x2="9" y2="1.427" gradientTransform="scale(3.55556)"><stop offset="0" style="stop-color:#b31b1b;stop-opacity:1"/><stop offset=".82" style="stop-color:#e62323;stop-opacity:1"/></linearGradient></defs><path style="stroke:none;fill-rule:nonzero;fill:url(#a)" d="M32 58.926c27.379-19.617 28.3-31.063 28.445-34.649.168-5.011-.53-18.132-13.746-19.148A14.303 14.303 0 0 0 32 14.69 14.3 14.3 0 0 0 17.32 5.13C4.102 6.16 3.402 19.266 3.555 24.277 3.68 27.863 4.602 39.31 32 58.926"/><path style="stroke:none;fill-rule:nonzero;fill:url(#b)" d="M60.445 24.277c.168-5.011-.53-18.132-13.746-19.148A14.303 14.303 0 0 0 32 14.69 14.3 14.3 0 0 0 17.32 5.13C4.102 6.16 3.402 19.266 3.555 24.277c.125 3.586.808 14.86 28.187 34.489"/></svg>