<svg xmlns="http://www.w3.org/2000/svg" width="64" height="64"><defs><radialGradient id="a" gradientUnits="userSpaceOnUse" cx="3.117" cy="-116.12" fx="3.117" fy="-116.12" r="9.022" gradientTransform="matrix(3.60178 0 0 2.80533 20.779 357.888)"><stop offset=".196" style="stop-color:#ffd70f;stop-opacity:1"/><stop offset=".438" style="stop-color:#ffcb12;stop-opacity:1"/><stop offset=".873" style="stop-color:#feac19;stop-opacity:1"/><stop offset="1" style="stop-color:#fea11b;stop-opacity:1"/></radialGradient></defs><path style="stroke:none;fill-rule:nonzero;fill:url(#a)" d="M28.766 35.59h-16.45a.845.845 0 0 1-.93-.711c0-.106.028-.211.079-.3L31.199.425A.973.973 0 0 1 32.051 0H51.5c.45-.05.86.262.93.71a.621.621 0 0 1-.164.423l-23.16 26.722h22.578c.449-.05.859.262.93.711a.634.634 0 0 1-.239.485L14.844 63.246c-.356.18-2.844 2-1.63-.762Zm0 0"/></svg>