<svg xmlns="http://www.w3.org/2000/svg" xmlns:xlink="http://www.w3.org/1999/xlink" width="64" height="64"><defs><linearGradient id="d" gradientUnits="userSpaceOnUse" x1="9" y1="22.81" x2="9" y2="-2.491" gradientTransform="scale(3.55556)"><stop offset="0" style="stop-color:#0078d4;stop-opacity:1"/><stop offset=".165" style="stop-color:#1c84dc;stop-opacity:1"/><stop offset=".378" style="stop-color:#3990e4;stop-opacity:1"/><stop offset=".59" style="stop-color:#4d99ea;stop-opacity:1"/><stop offset=".799" style="stop-color:#5a9eee;stop-opacity:1"/><stop offset="1" style="stop-color:#5ea0ef;stop-opacity:1"/></linearGradient><linearGradient id="c" gradientUnits="userSpaceOnUse" x1="9" y1="15.982" x2="9" y2="1.522" gradientTransform="scale(3.55556)"><stop offset="0" style="stop-color:#d2ebff;stop-opacity:1"/><stop offset=".997" style="stop-color:#f0fffd;stop-opacity:1"/></linearGradient><clipPath id="b"><path d="M0 0h64v64H0z"/></clipPath><filter id="a" filterUnits="objectBoundingBox" x="0%" y="0%" width="100%" height="100%"><feColorMatrix in="SourceGraphic" values="0 0 0 0 1 0 0 0 0 1 0 0 0 0 1 0 0 0 1 0"/></filter><mask id="f"><g filter="url(#a)"><path style="fill:#000;fill-opacity:.901961;stroke:none" d="M0 0h64v64H0z"/></g></mask><g id="e" clip-path="url(#b)"><path style="stroke:none;fill-rule:nonzero;fill:url(#c)" d="M17.152 5.41h29.696c.394 0 .715.32.715.715v49.988c0 .395-.32.715-.715.715H17.152a.715.715 0 0 1-.715-.715V6.125c0-.395.32-.715.715-.715Zm0 0"/></g></defs><path style="stroke:none;fill-rule:nonzero;fill:url(#d)" d="M14.332 0h35.34c.82 0 1.488.668 1.488 1.488v61.024A1.49 1.49 0 0 1 49.672 64h-35.34a1.488 1.488 0 0 1-1.488-1.488V1.488c0-.82.664-1.488 1.488-1.488Zm0 0"/><path style="stroke:none;fill-rule:nonzero;fill:#f2f2f2;fill-opacity:1" d="M28.133 2.148h7.73a.55.55 0 0 1 .551.547v.09a.55.55 0 0 1-.55.547h-7.731a.546.546 0 0 1-.547-.547v-.09c0-.3.242-.547.547-.547Zm0 0"/><use xlink:href="#e" mask="url(#f)"/><path style="stroke:none;fill-rule:nonzero;fill:#f2f2f2;fill-opacity:1" d="M30.875 58.95h2.25a1.02 1.02 0 0 1 1.016 1.019v1.62c0 .563-.457 1.016-1.016 1.016h-2.25a1.016 1.016 0 0 1-1.016-1.015v-1.621c0-.563.457-1.02 1.016-1.02Zm0 0"/><path style="stroke:none;fill-rule:nonzero;fill:#5ea0ef;fill-opacity:1" d="M40.535 10.281v12.746c0 .18-.074.356-.203.48a.67.67 0 0 1-.484.2h-5.332a.17.17 0 0 0-.168.168v2.055a.336.336 0 0 1-.54.266l-3.199-2.454a.187.187 0 0 0-.101-.035h-9.266a.657.657 0 0 1-.484-.2.674.674 0 0 1-.203-.48V10.281a.69.69 0 0 1 .203-.484.67.67 0 0 1 .484-.195H39.86a.684.684 0 0 1 .676.68ZM21.55 35.129h3.9a1.04 1.04 0 0 1 1.042 1.043V51.09c0 .574-.465 1.043-1.043 1.043h-3.898a1.045 1.045 0 0 1-1.043-1.043V36.172c0-.578.469-1.043 1.043-1.043Zm0 0"/><path style="stroke:none;fill-rule:nonzero;fill:#0078d4;fill-opacity:1" d="M30.43 31.309h3.898c.574 0 1.043.468 1.043 1.043v18.734c0 .574-.469 1.043-1.043 1.043H30.43a1.043 1.043 0 0 1-1.043-1.043V32.352c0-.575.465-1.043 1.043-1.043Zm0 0"/><path style="stroke:none;fill-rule:nonzero;fill:#005ba1;fill-opacity:1" d="M39.305 28.184h3.898c.574 0 1.043.468 1.043 1.043v21.859c0 .574-.469 1.043-1.043 1.043h-3.898a1.043 1.043 0 0 1-1.043-1.043v-21.86c0-.574.465-1.042 1.043-1.042Zm0 0"/></svg>