<svg xmlns="http://www.w3.org/2000/svg" width="64" height="64"><defs><linearGradient id="a" gradientUnits="userSpaceOnUse" x1="9" y1="15.834" x2="9" y2="5.788" gradientTransform="scale(3.55556)"><stop offset="0" style="stop-color:#32bedd;stop-opacity:1"/><stop offset=".175" style="stop-color:#32caea;stop-opacity:1"/><stop offset=".41" style="stop-color:#32d2f2;stop-opacity:1"/><stop offset=".775" style="stop-color:#32d4f5;stop-opacity:1"/></linearGradient></defs><path style="stroke:none;fill-rule:nonzero;fill:url(#a)" d="M1.777 20.578h60.446v33.7a2.02 2.02 0 0 1-2.02 2.019H3.797a2.02 2.02 0 0 1-2.02-2.02Zm0 0"/><path style="stroke:none;fill-rule:nonzero;fill:#0078d4;fill-opacity:1" d="M3.809 7.703H60.19c1.118 0 2.02.902 2.02 2.02v10.855H1.777V9.723c0-.54.215-1.055.598-1.434.379-.379.895-.59 1.434-.586Zm0 0"/><path style="stroke:none;fill-rule:nonzero;fill:#f2f2f2;fill-opacity:1" d="m10.043 28.367 1.312-1.316c.235-.23.61-.23.84 0l9.715 9.683a1.195 1.195 0 0 1 0 1.688l-1.308 1.312-10.555-10.523a.593.593 0 0 1 0-.84Zm0 0"/><path style="stroke:none;fill-rule:nonzero;fill:#e6e6e6;fill-opacity:1" d="m11.55 48.012-1.316-1.313a.593.593 0 0 1 0-.84l10.371-10.398 1.313 1.309a1.19 1.19 0 0 1 .004 1.683l-9.54 9.567a.593.593 0 0 1-.839.003Zm0 0"/><path style="stroke:none;fill-rule:nonzero;fill:#f2f2f2;fill-opacity:1" d="M26.71 44.941h14.895c.57 0 1.032.465 1.032 1.036v1.527c0 .57-.461 1.031-1.032 1.031H26.711c-.574 0-1.035-.46-1.035-1.031v-1.527c0-.57.46-1.036 1.035-1.036Zm0 0"/></svg>