<svg xmlns="http://www.w3.org/2000/svg" width="64" height="64"><defs><linearGradient id="a" gradientUnits="userSpaceOnUse" x1="9" y1="15.427" x2="9" y2="5.973" gradientTransform="scale(3.55556)"><stop offset="0" style="stop-color:#32bedd;stop-opacity:1"/><stop offset=".175" style="stop-color:#32caea;stop-opacity:1"/><stop offset=".41" style="stop-color:#32d2f2;stop-opacity:1"/><stop offset=".775" style="stop-color:#32d4f5;stop-opacity:1"/></linearGradient></defs><path style="stroke:none;fill-rule:nonzero;fill:url(#a)" d="M3.555 21.238h56.89v31.715c0 1.05-.851 1.902-1.902 1.902H5.457a1.902 1.902 0 0 1-1.902-1.902Zm0 0"/><path style="stroke:none;fill-rule:nonzero;fill:#198ab3;fill-opacity:1" d="M5.469 9.113H58.53c.508-.004.996.196 1.356.555.36.36.558.848.558 1.355v10.215H3.555V11.023a1.896 1.896 0 0 1 1.914-1.91Zm0 0"/><path style="stroke:none;fill-rule:nonzero;fill:#9cebff;fill-opacity:1" d="M3.555 21.238h14.914v33.617H5.46a1.897 1.897 0 0 1-1.906-1.894Zm0 0"/><path style="stroke:none;fill-rule:nonzero;fill:#32bedd;fill-opacity:1" d="M18.469 47.488h41.976v5.489a1.893 1.893 0 0 1-1.89 1.894H18.469Zm0 0"/></svg>