<svg xmlns="http://www.w3.org/2000/svg" width="64" height="64"><path style="stroke:none;fill-rule:nonzero;fill:#1f56a3;fill-opacity:1" d="M46.3 59.605c-7.429-.996-7.308-5.773-7.269-13.511H25.105c.036 7.746.16 12.527-7.273 13.511a3.792 3.792 0 0 0-3.5 3.407H49.82a3.811 3.811 0 0 0-3.52-3.407Zm0 0"/><path style="stroke:none;fill-rule:nonzero;fill:#1490df;fill-opacity:1" d="M2.168.988h59.664A2.17 2.17 0 0 1 64 3.156v40.985c0 1.199-.973 2.172-2.168 2.172H2.168A2.171 2.171 0 0 1 0 44.14V3.156A2.17 2.17 0 0 1 2.168.988Zm0 0"/><path style="stroke:none;fill-rule:nonzero;fill:#fff;fill-opacity:1" d="M4.773 4.496h54.368c.597 0 1.082.488 1.082 1.086v35.434c0 .601-.485 1.086-1.082 1.086H4.773a1.084 1.084 0 0 1-1.085-1.086V5.582c0-.598.484-1.086 1.085-1.086Zm0 0"/><path style="stroke:none;fill-rule:nonzero;fill:#76bc2d;fill-opacity:1" d="M42.95 16.547a.55.55 0 0 0-.466.265l-3.304 5.586a.537.537 0 0 1-.473.266.53.53 0 0 1-.46-.285l-5.063-9.645a.538.538 0 0 0-.516-.285.54.54 0 0 0-.465.364l-4.758 14.12a.539.539 0 0 1-1 .04l-4.113-9.532a.534.534 0 0 0-.465-.328.544.544 0 0 0-.496.282l-5.664 10.308a.525.525 0 0 1-.469.277H3.688v3.407H17.25a.531.531 0 0 0 .473-.278l3.28-5.964a.532.532 0 0 1 .493-.274.53.53 0 0 1 .465.32l4.875 11.301c.09.203.293.332.512.32a.53.53 0 0 0 .484-.359l5.059-15.008a.53.53 0 0 1 .976-.078l4.203 8c.09.168.266.278.461.285a.542.542 0 0 0 .473-.261l5.441-9.172a.528.528 0 0 1 .457-.266h15.34v-3.406Zm0 0"/></svg>