<svg xmlns="http://www.w3.org/2000/svg" width="64" height="64"><defs><linearGradient id="a" gradientUnits="userSpaceOnUse" x1=".072" y1="12.971" x2="12.822" y2="12.971" gradientTransform="matrix(3.55554 .00912 -.00912 3.55554 9.188 -10.048)"><stop offset="0" style="stop-color:#005ba1;stop-opacity:1"/><stop offset=".068" style="stop-color:#0060a9;stop-opacity:1"/><stop offset=".356" style="stop-color:#0071c8;stop-opacity:1"/><stop offset=".517" style="stop-color:#0078d4;stop-opacity:1"/><stop offset=".642" style="stop-color:#0074cd;stop-opacity:1"/><stop offset=".82" style="stop-color:#006abb;stop-opacity:1"/><stop offset="1" style="stop-color:#005ba1;stop-opacity:1"/></linearGradient></defs><path style="stroke:none;fill-rule:nonzero;fill:url(#a)" d="M32.035 18.293c-12.52-.031-22.656-3.754-22.644-8.316l-.114 43.93c0 4.523 9.953 8.218 22.336 8.312h.309c12.52.031 22.676-3.637 22.687-8.2l.114-43.93c-.012 4.567-10.168 8.235-22.688 8.204Zm0 0"/><path style="stroke:none;fill-rule:nonzero;fill:#e6e6e6;fill-opacity:1" d="M54.723 10.094c0 4.558-10.168 8.23-22.688 8.199-12.52-.031-22.656-3.754-22.644-8.316.011-4.563 10.164-8.23 22.687-8.2 12.524.032 22.656 3.754 22.645 8.317"/><path style="stroke:none;fill-rule:nonzero;fill:#50e6ff;fill-opacity:1" d="M49.422 9.41c0 2.902-7.793 5.23-17.387 5.207-9.594-.023-17.363-2.394-17.355-5.293.008-2.902 7.797-5.23 17.39-5.207 9.598.024 17.371 2.395 17.364 5.293"/><path style="stroke:none;fill-rule:nonzero;fill:#198ab3;fill-opacity:1" d="M32.055 10.578c-4.668-.121-9.32.54-13.77 1.957a40.373 40.373 0 0 0 13.762 2.082 40.35 40.35 0 0 0 13.766-2.012 41.73 41.73 0 0 0-13.758-2.027Zm0 0"/><path style="stroke:none;fill-rule:nonzero;fill:#fff;fill-opacity:1" d="m29.582 46.34-2.14 2.14a.931.931 0 0 1-1.317 0l-8.512-8.511a.925.925 0 0 1-.277-.66c0-.246.098-.485.273-.66l1.48-1.485a.936.936 0 0 1 1.321 0Zm0 0"/><path style="stroke:none;fill-rule:nonzero;fill:#f2f2f2;fill-opacity:1" d="m26.156 48.496-2.144-2.144 19.574-19.57a.924.924 0 0 1 1.316 0l1.485 1.48a.936.936 0 0 1 0 1.32l-18.91 18.91a.935.935 0 0 1-1.32.004Zm0 0"/></svg>