<svg xmlns="http://www.w3.org/2000/svg" width="64" height="64"><defs><linearGradient id="a" gradientUnits="userSpaceOnUse" x1="8.886" y1="12.654" x2="8.886" y2="6.632" gradientTransform="scale(3.55556)"><stop offset="0" style="stop-color:#1988d9;stop-opacity:1"/><stop offset=".218" style="stop-color:#218ddc;stop-opacity:1"/><stop offset=".559" style="stop-color:#379ce5;stop-opacity:1"/><stop offset=".9" style="stop-color:#54aef0;stop-opacity:1"/></linearGradient></defs><path style="stroke:none;fill-rule:nonzero;fill:url(#a)" d="M31.594 44.992c10.886-7.8 11.254-12.351 11.304-13.777.067-1.992-.21-7.203-5.464-7.613a5.692 5.692 0 0 0-5.84 3.8 5.69 5.69 0 0 0-5.836-3.8c-5.258.41-5.535 5.62-5.465 7.613.043 1.422.41 5.976 11.3 13.777"/><path style="stroke:none;fill-rule:nonzero;fill:#b3b3b3;fill-opacity:1" d="M45.113 18.883a77.518 77.518 0 0 0-10.687-8.95c-.809.485-1.617.997-2.426 1.532a73.639 73.639 0 0 1 11.254 9.277A72.966 72.966 0 0 1 52.492 32a57.631 57.631 0 0 0 1.551-2.488 77.622 77.622 0 0 0-8.93-10.63ZM20.746 43.25A73.343 73.343 0 0 1 11.504 32a50.031 50.031 0 0 0-1.547 2.488 77.722 77.722 0 0 0 8.93 10.64 77.756 77.756 0 0 0 10.625 8.915A65.994 65.994 0 0 0 32 52.488a72.936 72.936 0 0 1-11.254-9.238ZM55.684 32a82.207 82.207 0 0 1-1.641 2.488c5.738 9.645 7.36 18.657 3.223 22.793-4.137 4.133-13.157 2.512-22.79-3.218a59.157 59.157 0 0 1-2.492 1.632 37.205 37.205 0 0 0 18.598 6.543c3.145.16 6.223-.957 8.531-3.097 5.301-5.309 3.598-15.934-3.43-27.141ZM9.957 29.512C4.219 19.879 2.597 10.867 6.734 6.73a9.145 9.145 0 0 1 6.664-2.304c2.825.078 5.614.64 8.247 1.668a47.42 47.42 0 0 1 7.93 3.84A71.682 71.682 0 0 1 32 8.34a51.232 51.232 0 0 0-9.457-4.715C14.789.781 8.512 1.235 4.875 4.871-.415 10.161 1.289 20.785 8.316 32a73.442 73.442 0 0 1 1.641-2.488Zm0 0"/><path style="stroke:none;fill-rule:nonzero;fill:#5ea0ef;fill-opacity:1" d="M13.406 62.223a11.647 11.647 0 0 1-8.535-3.098c-7.36-7.355-1.191-25.031 14.016-40.242a65.154 65.154 0 0 1 22.57-15.258C49.211.781 55.488 1.238 59.125 4.871c7.352 7.352 1.195 25.027-14.012 40.238-10.867 10.864-22.992 17.114-31.707 17.114ZM50.602 4.426c-2.825.078-5.614.64-8.247 1.668a62.58 62.58 0 0 0-21.609 14.648C7.051 34.437.633 51.16 6.734 57.262c6.102 6.101 22.825-.317 36.52-14.012C56.949 29.555 63.367 12.828 57.266 6.73a9.145 9.145 0 0 0-6.664-2.304Zm0 0"/><path style="stroke:none;fill-rule:nonzero;fill:#b3b3b3;fill-opacity:1" d="m9.957 29.523 2.457 3.809-1.969 1.84-2.992-4.598ZM54.043 34.473l-2.61-4.032 2.157-1.675 2.742 4.285Zm0 0"/></svg>