<svg xmlns="http://www.w3.org/2000/svg" width="64" height="64"><defs><linearGradient id="a" gradientUnits="userSpaceOnUse" x1="9" y1="17.5" x2="9" y2=".5" gradientTransform="scale(3.55556)"><stop offset="0" style="stop-color:#0078d4;stop-opacity:1"/><stop offset=".817" style="stop-color:#5ea0ef;stop-opacity:1"/></linearGradient></defs><path style="stroke:none;fill-rule:nonzero;fill:#fff;fill-opacity:1" d="M35.434 2.23H9.71c-.54 0-1.059.215-1.438.598a2.02 2.02 0 0 0-.593 1.438v55.468a2.028 2.028 0 0 0 2.03 2.032h44.58a2.028 2.028 0 0 0 2.031-2.031V23.022c0-.539-.212-1.058-.594-1.437a2.025 2.025 0 0 0-1.438-.598H39.496a2.032 2.032 0 0 1-2.031-2.031V4.266a2.03 2.03 0 0 0-2.031-2.036Zm0 0"/><path style="stroke:none;fill-rule:nonzero;fill:url(#a)" d="M34.488 4.824v13.934a5.111 5.111 0 0 0 5.106 5.113h14.035v35.305H10.363V4.824h24.125m.989-3.047H9.379a2.066 2.066 0 0 0-2.063 2.067v56.312c0 1.14.922 2.063 2.063 2.067H54.62a2.066 2.066 0 0 0 2.063-2.067v-37.27a2.066 2.066 0 0 0-2.063-2.062h-15.02a2.06 2.06 0 0 1-2.063-2.066l.001-14.914c0-1.14-.922-2.063-2.062-2.067Zm0 0"/><path style="stroke:none;fill-rule:nonzero;fill:#0078d4;fill-opacity:1" d="M55.895 21.234 36.828 2.23v15.485a3.501 3.501 0 0 0 3.477 3.52Zm0 0"/><path style="stroke:none;fill-rule:nonzero;fill:#32bedd;fill-opacity:1" d="M16.496 18.598v12.601a1.01 1.01 0 0 0 1.512.88l11.023-6.302a1.011 1.011 0 0 0 0-1.757l-11.023-6.297a1 1 0 0 0-1.008.004c-.313.18-.504.511-.504.87Zm0 0"/><path style="stroke:none;fill-rule:nonzero;fill:#5ea0ef;fill-opacity:1" d="M17.89 37.043h23.047c.872 0 1.579.707 1.579 1.578v.36c0 .87-.707 1.578-1.578 1.578H17.89a1.579 1.579 0 0 1-1.578-1.579v-.359c0-.871.707-1.578 1.578-1.578ZM17.89 43.34h23.047c.872 0 1.579.707 1.579 1.578v.36c0 .87-.707 1.577-1.578 1.577H17.89a1.579 1.579 0 0 1-1.578-1.578v-.359c0-.871.707-1.578 1.578-1.578ZM17.89 49.64h13.36c.871 0 1.578.708 1.578 1.579v.36c0 .87-.707 1.577-1.578 1.577H17.89a1.579 1.579 0 0 1-1.578-1.578v-.36c0-.87.708-1.577 1.579-1.577Zm0 0"/></svg>