<svg xmlns="http://www.w3.org/2000/svg" xmlns:xlink="http://www.w3.org/1999/xlink" width="64" height="64"><defs><linearGradient id="d" gradientUnits="userSpaceOnUse" x1="9" y1="22.81" x2="9" y2="-2.491" gradientTransform="scale(3.55556)"><stop offset="0" style="stop-color:#0078d4;stop-opacity:1"/><stop offset=".165" style="stop-color:#1c84dc;stop-opacity:1"/><stop offset=".378" style="stop-color:#3990e4;stop-opacity:1"/><stop offset=".59" style="stop-color:#4d99ea;stop-opacity:1"/><stop offset=".799" style="stop-color:#5a9eee;stop-opacity:1"/><stop offset="1" style="stop-color:#5ea0ef;stop-opacity:1"/></linearGradient><linearGradient id="c" gradientUnits="userSpaceOnUse" x1="9" y1="15.982" x2="9" y2="1.522" gradientTransform="scale(3.55556)"><stop offset="0" style="stop-color:#d2ebff;stop-opacity:1"/><stop offset=".997" style="stop-color:#f0fffd;stop-opacity:1"/></linearGradient><clipPath id="b"><path d="M0 0h64v64H0z"/></clipPath><filter id="a" filterUnits="objectBoundingBox" x="0%" y="0%" width="100%" height="100%"><feColorMatrix in="SourceGraphic" values="0 0 0 0 1 0 0 0 0 1 0 0 0 0 1 0 0 0 1 0"/></filter><mask id="f"><g filter="url(#a)"><path style="fill:#000;fill-opacity:.901961;stroke:none" d="M0 0h64v64H0z"/></g></mask><g id="e" clip-path="url(#b)"><path style="stroke:none;fill-rule:nonzero;fill:url(#c)" d="M17.152 5.41h29.696c.394 0 .715.32.715.715v49.988c0 .395-.32.715-.715.715H17.152a.715.715 0 0 1-.715-.715V6.125c0-.395.32-.715.715-.715Zm0 0"/></g></defs><path style="stroke:none;fill-rule:nonzero;fill:url(#d)" d="M14.332 0h35.34c.82 0 1.488.668 1.488 1.488v61.024A1.49 1.49 0 0 1 49.672 64h-35.34a1.488 1.488 0 0 1-1.488-1.488V1.488c0-.82.664-1.488 1.488-1.488Zm0 0"/><path style="stroke:none;fill-rule:nonzero;fill:#f2f2f2;fill-opacity:1" d="M28.133 2.148h7.73a.55.55 0 0 1 .551.547v.09a.55.55 0 0 1-.55.547h-7.731a.546.546 0 0 1-.547-.547v-.09c0-.3.242-.547.547-.547Zm0 0"/><use xlink:href="#e" mask="url(#f)"/><path style="stroke:none;fill-rule:nonzero;fill:#f2f2f2;fill-opacity:1" d="M30.875 58.95h2.25a1.02 1.02 0 0 1 1.016 1.019v1.62c0 .563-.457 1.016-1.016 1.016h-2.25a1.016 1.016 0 0 1-1.016-1.015v-1.621c0-.563.457-1.02 1.016-1.02Zm0 0"/><path style="stroke:none;fill-rule:nonzero;fill:#005ba1;fill-opacity:1" d="M42.246 26.234v11.54l-9.973 5.8V32.016Zm0 0"/><path style="stroke:none;fill-rule:nonzero;fill:#5ea0ef;fill-opacity:1" d="m42.246 26.234-9.969 5.797-9.976-5.797 9.976-5.8Zm0 0"/><path style="stroke:none;fill-rule:nonzero;fill:#0078d4;fill-opacity:1" d="M32.273 32.031v11.543l-9.972-5.8v-11.54Zm0 0"/></svg>