<svg xmlns="http://www.w3.org/2000/svg" width="64" height="64"><defs><linearGradient id="a" gradientUnits="userSpaceOnUse" x1="9" y1="19.682" x2="9" y2="1.099" gradientTransform="scale(3.55556)"><stop offset="0" style="stop-color:#76bc2d;stop-opacity:1"/><stop offset=".192" style="stop-color:#7fcb30;stop-opacity:1"/><stop offset=".42" style="stop-color:#84d332;stop-opacity:1"/><stop offset=".775" style="stop-color:#86d633;stop-opacity:1"/></linearGradient></defs><path style="stroke:none;fill-rule:nonzero;fill:url(#a)" d="M50.898 1.777H13.102a2.04 2.04 0 0 0-2.036 2.04v57.195c0 .386.223.742.575.914.351.168.765.125 1.074-.117L31.37 47.188c.125-.09.266-.153.418-.18l-.062-.051 21.207-16.531V3.816a2.04 2.04 0 0 0-2.036-2.039Zm0 0"/><path style="stroke:none;fill-rule:nonzero;fill:#76bc2d;fill-opacity:1" d="m31.727 46.957 21.207-16.531v30.777a1.016 1.016 0 0 1-1.641.805Zm0 0"/></svg>