<svg xmlns="http://www.w3.org/2000/svg" width="64" height="64"><defs><linearGradient id="a" gradientUnits="userSpaceOnUse" x1="-6428.21" y1="9646.124" x2="-6428.21" y2="9617.899" gradientTransform="matrix(1.77778 0 0 -1.77778 11466.155 17151.488)"><stop offset="0" style="stop-color:#5ea0ef;stop-opacity:1"/><stop offset=".178" style="stop-color:#589eed;stop-opacity:1"/><stop offset=".406" style="stop-color:#4897e9;stop-opacity:1"/><stop offset=".662" style="stop-color:#2e8ce1;stop-opacity:1"/><stop offset=".936" style="stop-color:#0a7cd7;stop-opacity:1"/><stop offset="1" style="stop-color:#0078d4;stop-opacity:1"/></linearGradient></defs><path style="stroke:none;fill-rule:nonzero;fill:url(#a)" d="M30 36.902h15.055v15.055H30Zm-17.555-20.07h15.047V1.777H14.527c-1.152 0-2.09.938-2.09 2.09Zm2.09 35.125h12.957V36.902H12.445v12.965c0 1.153.93 2.086 2.082 2.09Zm-2.09-17.562h15.047V19.344H12.445Zm35.13 17.562h12.96a2.093 2.093 0 0 0 2.094-2.09V36.902H47.566ZM30 34.395h15.055V19.344H30Zm17.566 0h15.055V19.344H47.566Zm0-32.618v15.055h15.055V3.867c0-1.152-.937-2.09-2.09-2.09ZM30 16.832h15.055V1.777H30Zm0 0"/><path style="stroke:none;fill-rule:nonzero;fill:#198ab3;fill-opacity:1" d="m1.984 58.496 10.801-10.8a2.07 2.07 0 0 1 2.922 0l.203.202a2.07 2.07 0 0 1 0 2.922L5.11 61.621a2.07 2.07 0 0 1-2.923 0l-.203-.203a2.07 2.07 0 0 1 0-2.922Zm0 0"/><path style="stroke:none;fill-rule:nonzero;fill:#50e6ff;fill-opacity:1" d="M34.5 41.633c0 7.351-5.96 13.312-13.313 13.312-7.351 0-13.312-5.96-13.312-13.312 0-7.352 5.96-13.313 13.313-13.313 7.351 0 13.312 5.961 13.312 13.313Zm0 0"/><path style="stroke:none;fill-rule:nonzero;fill:#fff;fill-opacity:1" d="M31.617 41.395c0 5.773-4.68 10.453-10.453 10.453s-10.453-4.68-10.453-10.453c0-5.774 4.68-10.454 10.453-10.454s10.453 4.68 10.453 10.454Zm0 0"/></svg>