<svg xmlns="http://www.w3.org/2000/svg" width="64" height="64"><defs><linearGradient id="a" gradientUnits="userSpaceOnUse" x1="9" y1="15.799" x2="9" y2="5.316" gradientTransform="scale(3.55556)"><stop offset="0" style="stop-color:#32bedd;stop-opacity:1"/><stop offset=".775" style="stop-color:#32d4f5;stop-opacity:1"/></linearGradient></defs><path style="stroke:none;fill-rule:nonzero;fill:url(#a)" d="M1.934 18.902h60.132v35.262a2.01 2.01 0 0 1-2.007 2.012H3.94a2.01 2.01 0 0 1-2.007-2.012Zm0 0"/><path style="stroke:none;fill-rule:nonzero;fill:#0078d4;fill-opacity:1" d="M3.953 7.82h56.094a2.01 2.01 0 0 1 2.008 2.012v9.066H1.945V9.836c0-.535.211-1.047.586-1.426.38-.375.89-.59 1.422-.59Zm0 0"/><path style="stroke:none;fill-rule:nonzero;fill:#f78d1e;fill-opacity:1" d="M48.098 26.121h-14.73a.79.79 0 0 1-.442-.129l-4.207-2.8a.79.79 0 0 0-.438-.133H15.902a.79.79 0 0 0-.793.789v26.007a.786.786 0 0 0 .793.79h32.196a.786.786 0 0 0 .793-.79V26.91a.793.793 0 0 0-.793-.789Zm0 0"/><path style="stroke:none;fill-rule:nonzero;fill:#fff;fill-opacity:1" d="M18.508 24.57h7.027c.18 0 .324.145.324.32v.891c0 .18-.144.324-.324.324h-7.027a.323.323 0 0 1-.324-.324v-.89c0-.176.144-.32.324-.32Zm0 0"/><path style="stroke:none;fill-rule:nonzero;fill:#d15900;fill-opacity:1" d="M18.402 24.57H19.5c.121 0 .219.098.219.22v1.093a.22.22 0 0 1-.219.222h-1.098a.22.22 0 0 1-.218-.222v-1.094c0-.121.097-.219.218-.219Zm0 0"/><path style="stroke:none;fill-rule:nonzero;fill:#fff;fill-opacity:1" d="M48.098 26.086h-16.18a.789.789 0 0 0-.559.227l-2.601 2.597a.79.79 0 0 1-.559.235H15.902c-.21 0-.41.082-.558.23a.78.78 0 0 0-.235.555v19.879c0 .21.082.414.23.558a.779.779 0 0 0 .563.23h32.196a.779.779 0 0 0 .562-.23.78.78 0 0 0 .23-.558V26.87a.788.788 0 0 0-.234-.555.786.786 0 0 0-.558-.23Zm0 0"/></svg>