<svg xmlns="http://www.w3.org/2000/svg" xmlns:xlink="http://www.w3.org/1999/xlink" width="64" height="64"><defs><linearGradient id="c" gradientUnits="userSpaceOnUse" x1="9" y1="15.799" x2="9" y2="5.316" gradientTransform="scale(3.55556)"><stop offset="0" style="stop-color:#32bedd;stop-opacity:1"/><stop offset=".775" style="stop-color:#32d4f5;stop-opacity:1"/></linearGradient><clipPath id="b"><path d="M0 0h64v64H0z"/></clipPath><filter id="a" filterUnits="objectBoundingBox" x="0%" y="0%" width="100%" height="100%"><feColorMatrix in="SourceGraphic" values="0 0 0 0 1 0 0 0 0 1 0 0 0 0 1 0 0 0 1 0"/></filter><mask id="e"><g filter="url(#a)"><path style="fill:#000;fill-opacity:.901961;stroke:none" d="M0 0h64v64H0z"/></g></mask><g id="d" clip-path="url(#b)"><path style="stroke:none;fill-rule:nonzero;fill:#fff;fill-opacity:1" d="M49.422 25.988H33.066a.798.798 0 0 0-.566.235l-2.625 2.629a.815.815 0 0 1-.566.234H16.895a.798.798 0 0 0-.797.797v20.086c0 .21.086.414.234.562.152.149.352.23.563.23h32.527a.797.797 0 0 0 .797-.792V26.785a.795.795 0 0 0-.797-.797Zm0 0"/></g></defs><path style="stroke:none;fill-rule:nonzero;fill:url(#c)" d="M1.934 18.902h60.132v35.262a2.01 2.01 0 0 1-2.007 2.012H3.94a2.01 2.01 0 0 1-2.007-2.012Zm0 0"/><path style="stroke:none;fill-rule:nonzero;fill:#0078d4;fill-opacity:1" d="M3.953 7.82h56.094a2.01 2.01 0 0 1 2.008 2.012v9.066H1.945V9.836c0-.535.211-1.047.586-1.426.38-.375.89-.59 1.422-.59Zm0 0"/><path style="stroke:none;fill-rule:nonzero;fill:#5ea0ef;fill-opacity:1" d="M49.422 26.027H34.543a.788.788 0 0 1-.445-.136l-4.266-2.825a.785.785 0 0 0-.441-.136H16.895a.798.798 0 0 0-.797.797v26.28c0 .212.086.415.234.563.152.149.352.23.563.23h32.527a.797.797 0 0 0 .797-.792V26.824a.795.795 0 0 0-.797-.797Zm0 0"/><path style="stroke:none;fill-rule:nonzero;fill:#fff;fill-opacity:1" d="M18.672 24.55h7.547c.191 0 .347.157.347.348v.954a.348.348 0 0 1-.347.347h-7.547a.348.348 0 0 1-.348-.347v-.954c0-.191.156-.347.348-.347Zm0 0"/><path style="stroke:none;fill-rule:nonzero;fill:#0078d4;fill-opacity:1" d="M18.563 24.55h1.175a.24.24 0 0 1 .239.24v1.17a.24.24 0 0 1-.239.24h-1.175a.24.24 0 0 1-.239-.24v-1.17a.24.24 0 0 1 .238-.24Zm0 0"/><use xlink:href="#d" mask="url(#e)"/></svg>