<svg xmlns="http://www.w3.org/2000/svg" width="64" height="64"><defs><linearGradient id="a" gradientUnits="userSpaceOnUse" x1="9.777" y1="-1.321" x2="15.063" y2="13.028" gradientTransform="scale(3.55556)"><stop offset="0" style="stop-color:#6bb9f2;stop-opacity:1"/><stop offset="1" style="stop-color:#1b93eb;stop-opacity:1"/></linearGradient></defs><path style="stroke:none;fill-rule:nonzero;fill:url(#a)" d="M60.375 21.54V4.18a.621.621 0 0 0-.191-.446.619.619 0 0 0-.45-.18H42.391a.63.63 0 0 0-.582.387.613.613 0 0 0 .14.68l4.778 4.785.32.317a.627.627 0 0 1 0 .882l-20.93 20.93a.62.62 0 0 0 0 .883l5.39 5.395c.247.242.641.242.888 0l20.937-20.93a.625.625 0 0 1 .887 0l.316.316 4.774 4.781a.62.62 0 0 0 .68.141.63.63 0 0 0 .386-.582Zm0 0"/><path style="stroke:none;fill-rule:nonzero;fill:#b3b3b3;fill-opacity:1" d="M47.625 33.34v12.703c0 .809-.652 1.46-1.46 1.46H17.16a1.457 1.457 0 0 1-1.457-1.46V18.668c0-.805.652-1.461 1.457-1.461h14.535c.442 0 .801-.355.801-.797v-3.055c0-.44-.36-.8-.8-.8h-19.2c-.809 0-1.46.656-1.46 1.46v36.68c0 .805.652 1.457 1.46 1.457h38.316a1.457 1.457 0 0 0 1.461-1.457V33.34a.808.808 0 0 0-.234-.567.817.817 0 0 0-.57-.234h-3.047a.799.799 0 0 0-.797.8Zm0 0"/><path style="stroke:none;fill-rule:nonzero;fill:#76bc2d;fill-opacity:1" d="M55.813 56.781h3.66v3.664h-3.66ZM52.078 60.445h-3.723v-3.664h3.735Zm-7.465 0h-3.722v-3.664h3.726Zm-7.468 0h-3.723v-3.664h3.734Zm-7.465 0h-3.723v-3.664h3.727Zm-7.47 0h-3.722v-3.664h3.735Zm-7.464 0h-3.723v-3.664h3.73ZM3.625 56.781h3.664v3.664H3.625ZM7.29 53.05H3.624v-3.73h3.664Zm0-7.468H3.624v-3.734h3.664Zm0-7.465H3.624v-3.726h3.664Zm0-7.469H3.624v-3.726h3.664Zm0-7.464H3.624V19.46h3.664Zm0-7.47H3.624v-3.722h3.664ZM3.625 4.602h3.664v3.66H3.625ZM29.684 8.262h-3.727v-3.66h3.727Zm-7.47 0h-3.726v-3.66h3.735Zm-7.464 0h-3.727v-3.66h3.73ZM59.469 53.05H55.82v-3.73h3.66Zm0-7.468H55.82v-3.734h3.66Zm0-7.465H55.82v-3.726h3.66Zm0 0"/></svg>