<svg xmlns="http://www.w3.org/2000/svg" width="64" height="64"><defs><linearGradient id="a" gradientUnits="userSpaceOnUse" x1="5.759" y1=".5" x2="5.759" y2="16.523" gradientTransform="scale(3.55556)"><stop offset="0" style="stop-color:#b3b2b3;stop-opacity:1"/><stop offset=".375" style="stop-color:#afaeaf;stop-opacity:1"/><stop offset=".763" style="stop-color:#a2a2a2;stop-opacity:1"/><stop offset="1" style="stop-color:#979797;stop-opacity:1"/></linearGradient><linearGradient id="b" gradientUnits="userSpaceOnUse" x1="11.676" y1="17.5" x2="11.676" y2="8.901" gradientTransform="scale(3.55556)"><stop offset="0" style="stop-color:#0078d4;stop-opacity:1"/><stop offset=".156" style="stop-color:#1380da;stop-opacity:1"/><stop offset=".528" style="stop-color:#3c91e5;stop-opacity:1"/><stop offset=".822" style="stop-color:#559cec;stop-opacity:1"/><stop offset="1" style="stop-color:#5ea0ef;stop-opacity:1"/></linearGradient></defs><path style="stroke:none;fill-rule:nonzero;fill:url(#a)" d="M38.969 56.816a2.043 2.043 0 0 1-2.133 1.934H4.125a2.043 2.043 0 0 1-2.133-1.934V3.707a2.04 2.04 0 0 1 2.125-1.93h32.711a2.04 2.04 0 0 1 2.133 1.93Zm0 0"/><path style="stroke:none;fill-rule:nonzero;fill:#003067;fill-opacity:1" d="M7.418 26.133a4.242 4.242 0 0 1 4.02-4.445h18.406a4.245 4.245 0 0 1 4.023 4.445 4.243 4.243 0 0 1-4.023 4.445H11.437a4.24 4.24 0 0 1-4.019-4.445ZM7.418 12.973a4.235 4.235 0 0 1 4.02-4.438h18.406a4.239 4.239 0 0 1 4.023 4.438 4.248 4.248 0 0 1-4.023 4.433H11.437a4.242 4.242 0 0 1-4.019-4.433Zm0 0"/><path style="stroke:none;fill-rule:nonzero;fill:#50e6ff;fill-opacity:1" d="M15.566 12.973a2.972 2.972 0 0 1-2.972 2.972 2.972 2.972 0 1 1 0-5.945 2.974 2.974 0 0 1 2.972 2.973ZM15.566 26.133a2.974 2.974 0 0 1-2.972 2.972 2.974 2.974 0 0 1-2.973-2.972 2.974 2.974 0 0 1 2.973-2.973 2.974 2.974 0 0 1 2.972 2.973Zm0 0"/><path style="stroke:none;fill-rule:nonzero;fill:url(#b)" d="m52.797 37.277-11.281-5.632-11.692 5.632-4.265 8.356v15.574c0 .563.457 1.016 1.015 1.016h29.883a1.02 1.02 0 0 0 1.02-1.016V45.633Zm0 0"/><path style="stroke:none;fill-rule:nonzero;fill:#50e6ff;fill-opacity:1" d="M23.043 50.133a1.546 1.546 0 0 1-1.313-.711 1.562 1.562 0 0 1-.109-1.492l5.012-10.953c.144-.305.383-.551.68-.711l13.703-7.371a1.564 1.564 0 0 1 1.496 0l13.23 7.37c.274.153.492.387.633.665l5.492 10.945c.383.77.074 1.703-.695 2.086-.766.387-1.7.078-2.086-.691l-5.281-10.516-12.067-6.719-12.492 6.719-4.789 10.465c-.25.554-.805.914-1.414.914Zm0 0"/><path style="stroke:none;fill-rule:nonzero;fill:#005ba1;fill-opacity:1" d="M39.207 40.57h4.328c.559 0 1.012.453 1.012 1.012v4.625c0 .563-.453 1.016-1.012 1.016h-4.328a1.013 1.013 0 0 1-1.012-1.016v-4.625c0-.559.453-1.012 1.012-1.012ZM41.367 56.676l6.145-4.114a1.01 1.01 0 0 0-.567-.175H35.793a1.01 1.01 0 0 0-.566.175ZM47.957 61.086v-7.563l-5.648 3.782ZM40.43 57.305l-5.649-3.782v7.563ZM47.91 62.223h.047v-.075ZM34.781 62.148v.075h.051ZM34.96 62.223h12.817l-6.41-4.29Zm0 0"/></svg>