<svg xmlns="http://www.w3.org/2000/svg" width="64" height="64"><defs><linearGradient id="a" gradientUnits="userSpaceOnUse" x1="9" y1="14.071" x2="9" y2="1.313" gradientTransform="scale(3.55556)"><stop offset="0" style="stop-color:#0078d4;stop-opacity:1"/><stop offset=".156" style="stop-color:#1380da;stop-opacity:1"/><stop offset=".528" style="stop-color:#3c91e5;stop-opacity:1"/><stop offset=".822" style="stop-color:#559cec;stop-opacity:1"/><stop offset="1" style="stop-color:#5ea0ef;stop-opacity:1"/></linearGradient></defs><path style="stroke:none;fill-rule:nonzero;fill:url(#a)" d="M64 35.82c-.21-7.039-5.496-12.89-12.48-13.82-.434-9.91-8.75-17.633-18.668-17.332a18.59 18.59 0 0 0-17.778 12.117C6.664 17.81.258 24.825 0 33.293c.371 9.59 8.43 17.074 18.02 16.738.535 0 1.066-.027 1.59-.07h29.18c.26-.004.519-.043.773-.117C57.352 49.789 63.715 43.609 64 35.82Zm0 0"/><path style="stroke:none;fill-rule:nonzero;fill:#32bedd;fill-opacity:1" d="M42.906 41.977H20.293a.982.982 0 0 0-1.004.96v6.157a.979.979 0 0 0 1 .96h22.617a.978.978 0 0 0 .996-.96v-6.157a.983.983 0 0 0-.996-.96Zm0 0"/><path style="stroke:none;fill-rule:nonzero;fill:#198ab3;fill-opacity:1" d="M42.906 51.254H20.293a.982.982 0 0 0-1.004.96v6.153a.982.982 0 0 0 1 .965h22.617a.981.981 0 0 0 .996-.965v-6.152a.98.98 0 0 0-.996-.961Zm0 0"/><path style="stroke:none;fill-rule:nonzero;fill:#b4ec36;fill-opacity:1" d="M40.07 43.488h1.328c.141 0 .254.114.254.254v1.27c0 .133-.109.242-.246.242H40.06a.243.243 0 0 1-.243-.242v-1.278a.254.254 0 0 1 .254-.246ZM40.063 46.531h1.34c.14 0 .253.114.253.258v1.254c0 .14-.113.254-.254.254H40.07a.253.253 0 0 1-.254-.254v-1.266c0-.066.024-.129.07-.175a.251.251 0 0 1 .176-.07ZM40.137 52.719h1.34c.14 0 .253.113.253.254v1.265c0 .137-.109.246-.246.246h-1.336a.253.253 0 0 1-.253-.254v-1.253a.235.235 0 0 1 .066-.18.237.237 0 0 1 .176-.078ZM40.137 55.762h1.34c.14 0 .253.113.253.258v1.265c0 .133-.109.242-.246.242h-1.347a.243.243 0 0 1-.242-.242v-1.277c0-.137.109-.246.242-.246Zm0 0"/><path style="stroke:none;fill-rule:nonzero;fill:#50e6ff;fill-opacity:1" d="M42.691 31.977H20.078a.969.969 0 0 0-.703.273.995.995 0 0 0-.3.688v6.171a.987.987 0 0 0 1 .965H42.69a.985.985 0 0 0 1-.965v-6.172a.984.984 0 0 0-1-.96Zm0 0"/><path style="stroke:none;fill-rule:nonzero;fill:#fff;fill-opacity:1" d="M39.852 33.488h1.336a.26.26 0 0 1 .257.258v1.266a.248.248 0 0 1-.246.246h-1.34a.258.258 0 0 1-.257-.258v-1.266c0-.066.027-.129.074-.175a.262.262 0 0 1 .176-.07ZM39.852 36.535h1.336c.14 0 .257.113.257.254v1.254a.248.248 0 0 1-.246.246h-1.347a.245.245 0 0 1-.247-.246V36.77a.243.243 0 0 1 .247-.235ZM41.367 26.313l-8.637 8.636a1.035 1.035 0 0 1-1.46 0l-8.637-8.636a.463.463 0 0 1 .324-.79h5.313c.253 0 .46-.203.46-.457V14.273c0-.199.157-.355.356-.355h5.816c.196 0 .356.156.356.355V25.07c0 .254.203.457.457.457h5.312c.188 0 .356.11.434.278a.463.463 0 0 1-.094.508Zm0 0"/></svg>