<svg xmlns="http://www.w3.org/2000/svg" width="64" height="64"><defs><linearGradient id="a" gradientUnits="userSpaceOnUse" x1="9" y1="13.333" x2="9" y2="1.244" gradientTransform="scale(3.55556)"><stop offset="0" style="stop-color:#0078d4;stop-opacity:1"/><stop offset=".156" style="stop-color:#1380da;stop-opacity:1"/><stop offset=".528" style="stop-color:#3c91e5;stop-opacity:1"/><stop offset=".822" style="stop-color:#559cec;stop-opacity:1"/><stop offset="1" style="stop-color:#5ea0ef;stop-opacity:1"/></linearGradient></defs><path style="stroke:none;fill-rule:nonzero;fill:url(#a)" d="M62.223 47.406H1.777L5.984 8.574a4.653 4.653 0 0 1 4.621-4.152h42.786a4.653 4.653 0 0 1 4.62 4.152Zm0 0"/><path style="stroke:none;fill-rule:nonzero;fill:#5ea0ef;fill-opacity:1" d="M1.777 47.406h60.446v7.516a4.658 4.658 0 0 1-4.657 4.656H6.434a4.658 4.658 0 0 1-4.657-4.656Zm0 0"/><path style="stroke:none;fill-rule:nonzero;fill:#f2f2f2;fill-opacity:1" d="M53.434 42.078H10.566a1.166 1.166 0 0 1-1.16-1.289l3.25-30a1.163 1.163 0 0 1 1.156-1.039h36.376c.593 0 1.09.445 1.156 1.04l3.25 30a1.166 1.166 0 0 1-1.16 1.29ZM48.68 54.379v-2.824c0-.578-.47-1.043-1.047-1.043h-.125c-.574 0-1.043.465-1.043 1.043v2.68h-13.68v-2.68c0-.578-.469-1.043-1.043-1.043h-.125a1.044 1.044 0 0 0-1.039 1.043v2.68h-14.43V51.59c0-.574-.468-1.043-1.043-1.043h-.125c-.578 0-1.046.469-1.046 1.043v2.808c0 1.157.937 2.094 2.09 2.094h.124l30.446-.035c1.148 0 2.078-.93 2.086-2.078Zm0 0"/><path style="stroke:none;fill-rule:nonzero;fill:#5ea0ef;fill-opacity:1" d="M30.504 26.965h-7.602c-.238 0-.43-.117-.43-.262 0-.039.012-.078.04-.11l9.133-12.425a.506.506 0 0 1 .39-.152h8.992c.239 0 .43.117.43.261a.198.198 0 0 1-.074.153l-10.719 9.722h10.434c.238 0 .43.118.43.262a.229.229 0 0 1-.11.18L24.066 37.039c-.16.066-1.316.727-.75-.277Zm0 0"/></svg>