<svg xmlns="http://www.w3.org/2000/svg" width="64" height="64"><defs><linearGradient id="a" gradientUnits="userSpaceOnUse" x1="9" y1="19.848" x2="9" y2="-1.014" gradientTransform="matrix(3.55556 0 0 3.55556 0 0)"><stop offset="0" style="stop-color:#5e9624;stop-opacity:1"/><stop offset=".546" style="stop-color:#6dad2a;stop-opacity:1"/><stop offset=".999" style="stop-color:#76bc2d;stop-opacity:1"/></linearGradient></defs><path style="stroke:none;fill-rule:nonzero;fill:url(#a)" d="M.621 30.492 30.488.625a2.134 2.134 0 0 1 3.016 0L63.37 30.492a2.134 2.134 0 0 1 0 3.016L33.504 63.375a2.134 2.134 0 0 1-3.016 0L.621 33.508a2.134 2.134 0 0 1 0-3.016Zm0 0"/><path style="stroke:none;fill-rule:nonzero;fill:#fff;fill-opacity:1" d="M42.094 23.129v-2.317l-.324-.12-2.489-.817-.648-1.586 1.262-2.684-1.63-1.628-.328.164-2.316 1.18-1.586-.65-1.02-2.808h-2.308l-.129.325-.816 2.488-1.582.652-2.649-1.262-1.629 1.63.164.324 1.18 2.316-.64 1.574-2.844 1.02v2.316l.324.125 2.488.813.656 1.586-1.277 2.675 1.625 1.625.328-.16 2.317-1.18 1.586.649 1.02 2.805h2.316l.125-.32.812-2.493 1.586-.648 2.687 1.261 1.625-1.629-.16-.304-1.18-2.32.653-1.586Zm-10.168 3.367a4.466 4.466 0 1 1 4.46-4.453 4.46 4.46 0 0 1-4.46 4.453ZM37.375 38.805l-2.82-.051h-1.926l-1.387-.02a5.373 5.373 0 0 0-5.156 4.645l1.93.027a3.376 3.376 0 0 1 3.199-2.59l1.387.024 1.925.027 2.825.04a3.7 3.7 0 0 1 3.238 3.726 3.698 3.698 0 0 1-3.344 3.629l-6.137-.086a3.371 3.371 0 0 1-3.12-2.68l-1.93-.027a5.37 5.37 0 0 0 5.015 4.785l6.137.09a5.502 5.502 0 0 0 5.258-5.692 5.504 5.504 0 0 0-5.094-5.847Zm0 0"/><path style="stroke:none;fill-rule:nonzero;fill:#b4ec36;fill-opacity:1" d="m29.402 43.414-1.386-.02-1.93-.015-2.82-.043a3.701 3.701 0 0 1-3.254-3.727 3.703 3.703 0 0 1 3.36-3.629l6.132.09a3.379 3.379 0 0 1 3.125 2.68l1.926.023a5.38 5.38 0 0 0-5.02-4.808l-6.137-.086a5.502 5.502 0 0 0-5.265 5.695 5.503 5.503 0 0 0 5.094 5.844l2.816.039 1.934.027 1.382.024a5.377 5.377 0 0 0 5.157-4.653l-1.93-.027a3.37 3.37 0 0 1-3.184 2.586ZM34.95 22.031a3.022 3.022 0 0 1-3.024 3.02 3.022 3.022 0 1 1 3.023-3.02Zm0 0"/></svg>