<svg xmlns="http://www.w3.org/2000/svg" width="64" height="64"><defs><radialGradient id="a" gradientUnits="userSpaceOnUse" cx="10.629" cy="7.175" fx="10.629" fy="7.175" r="6.675" gradientTransform="scale(3.55556)"><stop offset=".225" style="stop-color:#32d4f5;stop-opacity:1"/><stop offset=".59" style="stop-color:#32d2f2;stop-opacity:1"/><stop offset=".825" style="stop-color:#32caea;stop-opacity:1"/><stop offset="1" style="stop-color:#32bedd;stop-opacity:1"/></radialGradient></defs><path style="stroke:none;fill-rule:nonzero;fill:#198ab3;fill-opacity:1" d="m3.555 55.574 19.254-19.25a3.676 3.676 0 0 1 5.207 0l.363.36a3.687 3.687 0 0 1 0 5.21L9.125 61.149a3.687 3.687 0 0 1-5.21 0l-.36-.363a3.687 3.687 0 0 1 0-5.21Zm0 0"/><path style="stroke:none;fill-rule:nonzero;fill:url(#a)" d="M61.523 25.512c0 13.105-10.625 23.734-23.73 23.734-13.11 0-23.734-10.629-23.734-23.734 0-13.11 10.625-23.735 23.734-23.735 13.105 0 23.73 10.625 23.73 23.735Zm0 0"/><path style="stroke:none;fill-rule:nonzero;fill:#fff;fill-opacity:1" d="M56.383 25.09c0 10.293-8.344 18.64-18.64 18.64-10.298 0-18.641-8.347-18.641-18.64 0-10.297 8.343-18.645 18.64-18.645s18.64 8.348 18.64 18.645Zm0 0"/><path style="stroke:none;fill-rule:nonzero;fill:#c3f1ff;fill-opacity:1" d="M19.68 29.7S24.78 4.163 48.625 9.956a18.27 18.27 0 0 0-21.992.164A18.211 18.211 0 0 0 19.68 29.7Zm0 0"/></svg>