<svg xmlns="http://www.w3.org/2000/svg" width="64" height="64"><defs><radialGradient id="a" gradientUnits="userSpaceOnUse" cx="16.858" cy="14.328" fx="16.858" fy="14.328" r="8.737" gradientTransform="matrix(3.35644 0 0 3.35644 -22.087 -18.777)"><stop offset=".183" style="stop-color:#5ea0ef;stop-opacity:1"/><stop offset=".555" style="stop-color:#5c9fee;stop-opacity:1"/><stop offset=".689" style="stop-color:#559ced;stop-opacity:1"/><stop offset=".785" style="stop-color:#4a97e9;stop-opacity:1"/><stop offset=".862" style="stop-color:#3990e4;stop-opacity:1"/><stop offset=".928" style="stop-color:#2387de;stop-opacity:1"/><stop offset=".985" style="stop-color:#087bd6;stop-opacity:1"/><stop offset="1" style="stop-color:#0078d4;stop-opacity:1"/></radialGradient><radialGradient id="b" gradientUnits="userSpaceOnUse" cx="17.97" cy="15.337" fx="17.97" fy="15.337" r="1.223" gradientTransform="matrix(3.35289 0 0 3.35289 -25.61 -22.04)"><stop offset="0" style="stop-color:#7f7f7f;stop-opacity:1"/><stop offset="1" style="stop-color:#5e5e5e;stop-opacity:1"/></radialGradient></defs><path style="stroke:none;fill-rule:nonzero;fill:url(#a)" d="M63.863 29.34c0 16.203-13.133 29.34-29.34 29.34-16.203 0-29.34-13.137-29.34-29.34S18.32 0 34.524 0c16.207 0 29.34 13.137 29.34 29.34Zm0 0"/><path style="stroke:none;fill-rule:nonzero;fill:#fff;fill-opacity:1" d="M60.184 29.34c0 14.11-11.438 25.547-25.547 25.547-14.11 0-25.547-11.438-25.547-25.547 0-14.11 11.437-25.547 25.547-25.547 14.11 0 25.547 11.437 25.547 25.547Zm0 0"/><path style="stroke:none;fill-rule:nonzero;fill:#7a7a7a;fill-opacity:1" d="m46.508 16.441 3.094-3.097 1 1-3.098 3.094ZM51.945 28.605h4.38v1.41h-4.38ZM46.305 41.98l.996-1 3.097 3.094-1 1ZM33.93 46.555h1.414v4.375H33.93ZM18.527 14.203l1-1 3.094 3.098-.996.996ZM18.742 44.203l3.094-3.094 1 .996-3.098 3.098ZM12.676 28.605h4.375v1.41h-4.375ZM34.637 7.723h.347c.993 0 1.793.804 1.793 1.797v18.898c0 .992-.8 1.797-1.793 1.797h-.347a1.796 1.796 0 0 1-1.793-1.797V9.52c0-.993.804-1.797 1.793-1.797Zm0 0"/><path style="stroke:none;fill-rule:nonzero;fill:#7a7a7a;fill-opacity:1" d="m45.184 39.707-.243.246c-.699.7-1.836.7-2.535 0l-7.426-7.426c-.699-.699-.699-1.832 0-2.535l.247-.242c.699-.7 1.832-.7 2.535 0l7.422 7.426c.699.699.699 1.832 0 2.531Zm0 0"/><path style="stroke:none;fill-rule:nonzero;fill:url(#b)" d="M38.813 29.29a4.154 4.154 0 0 1-4.157 4.155 4.157 4.157 0 1 1 4.156-4.156Zm0 0"/><path style="stroke:none;fill-rule:nonzero;fill:#86d633;fill-opacity:1" d="M28.723.52A29.486 29.486 0 0 0 5.53 24.309 29.49 29.49 0 0 0 19.2 54.589l.977-2.581a.571.571 0 0 1 .977-.164l7.648 9.281a.572.572 0 0 1-.355.93L16.558 64a.58.58 0 0 1-.536-.203.583.583 0 0 1-.093-.567l1.422-3.816A34.553 34.553 0 0 1 1.328 38.945a30.08 30.08 0 0 1 4.399-25.843A30.079 30.079 0 0 1 28.723.52Zm0 0"/></svg>