<svg xmlns="http://www.w3.org/2000/svg" xmlns:xlink="http://www.w3.org/1999/xlink" width="64" height="64"><defs><clipPath id="b"><path d="M0 0h64v64H0z"/></clipPath><clipPath id="c"><path d="M0 0h64v64H0z"/></clipPath><clipPath id="d"><path d="M0 0h64v64H0z"/></clipPath><clipPath id="e"><path d="M0 0h64v64H0z"/></clipPath><mask id="h"><g filter="url(#a)"><path style="fill:#000;fill-opacity:.901961;stroke:none" d="M0 0h64v64H0z"/></g></mask><mask id="j"><g filter="url(#a)"><path style="fill:#000;fill-opacity:.901961;stroke:none" d="M0 0h64v64H0z"/></g></mask><mask id="l"><g filter="url(#a)"><path style="fill:#000;fill-opacity:.901961;stroke:none" d="M0 0h64v64H0z"/></g></mask><mask id="n"><g filter="url(#a)"><path style="fill:#000;fill-opacity:.901961;stroke:none" d="M0 0h64v64H0z"/></g></mask><g id="g" clip-path="url(#b)"><path style="stroke:none;fill-rule:nonzero;fill:#fff;fill-opacity:1" d="M9.2 25.32h10.964c.555 0 1.004.45 1.004 1.004v4.567c0 .554-.45 1.007-1.004 1.007H9.2a1.008 1.008 0 0 1-1.008-1.007v-4.567c0-.554.45-1.004 1.008-1.004Zm0 0"/></g><g id="i" clip-path="url(#c)"><path style="stroke:none;fill-rule:nonzero;fill:#fff;fill-opacity:1" d="M26.605 25.227H37.57c.559 0 1.008.449 1.008 1.007v4.563c0 .558-.45 1.008-1.008 1.008H26.605c-.554 0-1.003-.45-1.003-1.008v-4.563c0-.558.449-1.007 1.003-1.007Zm0 0"/></g><g id="k" clip-path="url(#d)"><path style="stroke:none;fill-rule:nonzero;fill:#fff;fill-opacity:1" d="M44.016 25.227H54.98c.555 0 1.004.449 1.004 1.007v4.563c0 .558-.449 1.008-1.004 1.008H44.016c-.559 0-1.008-.45-1.008-1.008v-4.563c0-.558.449-1.007 1.008-1.007Zm0 0"/></g><g id="m" clip-path="url(#e)"><path style="stroke:none;fill-rule:nonzero;fill:#fff;fill-opacity:1" d="M9.39 34.727h10.965c.555 0 1.008.449 1.008 1.007v4.563c0 .558-.453 1.008-1.008 1.008H9.391c-.555 0-1.008-.45-1.008-1.008v-4.563c0-.558.453-1.007 1.008-1.007Zm0 0"/></g><linearGradient id="f" gradientUnits="userSpaceOnUse" x1="9" y1="15.834" x2="9" y2="5.788" gradientTransform="scale(3.55556)"><stop offset="0" style="stop-color:#0078d4;stop-opacity:1"/><stop offset=".502" style="stop-color:#4093e6;stop-opacity:1"/><stop offset=".775" style="stop-color:#5ea0ef;stop-opacity:1"/></linearGradient><filter id="a" filterUnits="objectBoundingBox" x="0%" y="0%" width="100%" height="100%"><feColorMatrix in="SourceGraphic" values="0 0 0 0 1 0 0 0 0 1 0 0 0 0 1 0 0 0 1 0"/></filter></defs><path style="stroke:none;fill-rule:nonzero;fill:url(#f)" d="M1.777 20.578h60.446v33.7a2.02 2.02 0 0 1-2.02 2.019H3.797a2.02 2.02 0 0 1-2.02-2.02Zm0 0"/><path style="stroke:none;fill-rule:nonzero;fill:#0078d4;fill-opacity:1" d="M3.809 7.703H60.19c1.118 0 2.02.902 2.02 2.02v10.855H1.777V9.723c0-.54.215-1.055.598-1.434.379-.379.895-.59 1.434-.586Zm0 0"/><use xlink:href="#g" mask="url(#h)"/><use xlink:href="#i" mask="url(#j)"/><use xlink:href="#k" mask="url(#l)"/><use xlink:href="#m" mask="url(#n)"/><path style="stroke:none;fill-rule:nonzero;fill:#ffd400;fill-opacity:1" d="M26.797 34.633h10.965c.558 0 1.008.453 1.008 1.008v4.566c0 .555-.45 1.004-1.008 1.004H26.797c-.555 0-1.004-.45-1.004-1.004v-4.566c0-.555.45-1.008 1.004-1.008ZM44.207 34.633h10.965a1.01 1.01 0 0 1 1.008 1.008v4.566c0 .555-.453 1.004-1.008 1.004H44.207c-.555 0-1.008-.45-1.008-1.004v-4.566a1.01 1.01 0 0 1 1.008-1.008ZM9.39 44.227h10.965a1.01 1.01 0 0 1 1.008 1.007v4.567c0 .554-.453 1.004-1.008 1.004H9.391c-.555 0-1.008-.45-1.008-1.004v-4.567a1.01 1.01 0 0 1 1.008-1.007ZM26.797 44.137h10.965c.558 0 1.008.449 1.008 1.004v4.566c0 .555-.45 1.004-1.008 1.004H26.797c-.555 0-1.004-.45-1.004-1.004v-4.566c0-.555.45-1.004 1.004-1.004ZM44.207 44.137h10.965c.555 0 1.008.449 1.008 1.004v4.566c0 .555-.453 1.004-1.008 1.004H44.207c-.555 0-1.008-.45-1.008-1.004v-4.566c0-.555.453-1.004 1.008-1.004Zm0 0"/></svg>