<svg xmlns="http://www.w3.org/2000/svg" width="64" height="64"><defs><linearGradient id="a" gradientUnits="userSpaceOnUse" x1="9" y1="11.576" x2="9" y2="0" gradientTransform="scale(3.55556)"><stop offset="0" style="stop-color:#0078d4;stop-opacity:1"/><stop offset=".156" style="stop-color:#1380da;stop-opacity:1"/><stop offset=".528" style="stop-color:#3c91e5;stop-opacity:1"/><stop offset=".822" style="stop-color:#559cec;stop-opacity:1"/><stop offset="1" style="stop-color:#5ea0ef;stop-opacity:1"/></linearGradient></defs><path style="stroke:none;fill-rule:nonzero;fill:url(#a)" d="M61.035 28.266a13.044 13.044 0 0 0-11.324-12.54C49.324 6.73 41.773-.276 32.773 0a16.863 16.863 0 0 0-16.12 10.992c-7.637.93-13.454 7.293-13.688 14.98.336 8.708 7.648 15.5 16.355 15.188.485 0 .965-.027 1.442-.066h26.476c.242 0 .48-.035.711-.102 7.067-.058 12.832-5.668 13.086-12.726Zm0 0"/><path style="stroke:none;fill-rule:nonzero;fill:#198ab3;fill-opacity:1" d="M8.773 45.086H57.95a1.915 1.915 0 0 1 0 3.832H8.773a1.915 1.915 0 0 1 0-3.832Zm0 0"/><path style="stroke:none;fill-rule:nonzero;fill:#32bedd;fill-opacity:1" d="M8.516 52.598H44.82c.918 0 1.657.742 1.657 1.656v.52c0 .913-.739 1.656-1.657 1.656H8.516a1.657 1.657 0 0 1-1.657-1.657v-.52c0-.913.743-1.655 1.657-1.655Zm0 0"/><path style="stroke:none;fill-rule:nonzero;fill:#50e6ff;fill-opacity:1" d="M8.363 60.059h28.762c.828 0 1.504.671 1.504 1.504v.933c0 .832-.676 1.504-1.504 1.504H8.363a1.502 1.502 0 0 1-1.504-1.504v-.934c0-.832.672-1.503 1.504-1.503Zm0 0"/></svg>