<svg xmlns="http://www.w3.org/2000/svg" xmlns:xlink="http://www.w3.org/1999/xlink" width="64" height="64"><defs><clipPath id="b"><path d="M0 0h64v64H0z"/></clipPath><clipPath id="c"><path d="M0 0h64v64H0z"/></clipPath><mask id="f"><g filter="url(#a)"><path style="fill:#000;fill-opacity:.74902;stroke:none" d="M0 0h64v64H0z"/></g></mask><mask id="h"><g filter="url(#a)"><path style="fill:#000;fill-opacity:.501961;stroke:none" d="M0 0h64v64H0z"/></g></mask><g id="e" clip-path="url(#b)"><path style="stroke:none;fill-rule:nonzero;fill:#fff;fill-opacity:1" d="M26.426 22.879H37.57c.54 0 .977.437.977.976v26.258a.976.976 0 0 1-.977.973H26.426a.976.976 0 0 1-.977-.973V23.855c0-.539.438-.976.977-.976Zm0 0"/></g><g id="g" clip-path="url(#c)"><path style="stroke:none;fill-rule:nonzero;fill:#fff;fill-opacity:1" d="M42.547 22.879H53.69c.54 0 .977.437.977.976v26.258a.976.976 0 0 1-.977.973H42.547a.976.976 0 0 1-.977-.973V23.855c0-.539.438-.976.977-.976Zm0 0"/></g><linearGradient id="d" gradientUnits="userSpaceOnUse" x1="9" y1="15.799" x2="9" y2="5.316" gradientTransform="scale(3.55556)"><stop offset="0" style="stop-color:#a67af4;stop-opacity:1"/><stop offset=".775" style="stop-color:#b796f9;stop-opacity:1"/></linearGradient><filter id="a" filterUnits="objectBoundingBox" x="0%" y="0%" width="100%" height="100%"><feColorMatrix in="SourceGraphic" values="0 0 0 0 1 0 0 0 0 1 0 0 0 0 1 0 0 0 1 0"/></filter></defs><path style="stroke:none;fill-rule:nonzero;fill:url(#d)" d="M1.934 18.902h60.132v35.262a2.01 2.01 0 0 1-2.007 2.012H3.94a2.01 2.01 0 0 1-2.007-2.012Zm0 0"/><path style="stroke:none;fill-rule:nonzero;fill:#773adc;fill-opacity:1" d="M3.953 7.82h56.094a2.01 2.01 0 0 1 2.008 2.012v9.066H1.945V9.836c0-.535.211-1.047.586-1.426.38-.375.89-.59 1.422-.59Zm0 0"/><path style="stroke:none;fill-rule:nonzero;fill:#fff;fill-opacity:1" d="M10.309 22.879h11.144c.54 0 .977.437.977.976v26.258a.976.976 0 0 1-.977.973H10.31a.976.976 0 0 1-.977-.973V23.855c0-.539.438-.976.977-.976Zm0 0"/><use xlink:href="#e" mask="url(#f)"/><use xlink:href="#g" mask="url(#h)"/></svg>