<svg xmlns="http://www.w3.org/2000/svg" xmlns:xlink="http://www.w3.org/1999/xlink" width="64" height="64"><defs><clipPath id="b"><path d="M0 0h64v64H0z"/></clipPath><clipPath id="c"><path d="M0 0h64v64H0z"/></clipPath><clipPath id="d"><path d="M0 0h64v64H0z"/></clipPath><clipPath id="e"><path d="M0 0h64v64H0z"/></clipPath><clipPath id="f"><path d="M0 0h64v64H0z"/></clipPath><clipPath id="g"><path d="M0 0h64v64H0z"/></clipPath><mask id="l"><g filter="url(#a)"><path style="fill:#000;fill-opacity:.54902;stroke:none" d="M0 0h64v64H0z"/></g></mask><mask id="n"><g filter="url(#a)"><path style="fill:#000;fill-opacity:.54902;stroke:none" d="M0 0h64v64H0z"/></g></mask><mask id="p"><g filter="url(#a)"><path style="fill:#000;fill-opacity:.54902;stroke:none" d="M0 0h64v64H0z"/></g></mask><mask id="r"><g filter="url(#a)"><path style="fill:#000;fill-opacity:.54902;stroke:none" d="M0 0h64v64H0z"/></g></mask><mask id="t"><g filter="url(#a)"><path style="fill:#000;fill-opacity:.54902;stroke:none" d="M0 0h64v64H0z"/></g></mask><mask id="v"><g filter="url(#a)"><path style="fill:#000;fill-opacity:.54902;stroke:none" d="M0 0h64v64H0z"/></g></mask><g id="k" clip-path="url(#b)"><path style="stroke:none;fill-rule:nonzero;fill:#f2f2f2;fill-opacity:1" d="M22.18 37.527a12.333 12.333 0 0 0 1.52 2.04 22.94 22.94 0 0 1 1.402-4.5 3.503 3.503 0 0 1-1.848-.946 25.518 25.518 0 0 0-1.074 3.406Zm0 0"/></g><g id="m" clip-path="url(#c)"><path style="stroke:none;fill-rule:nonzero;fill:#f2f2f2;fill-opacity:1" d="M24.535 28.238a15.487 15.487 0 0 1-.898-3.824 11.218 11.218 0 0 0-1.422 1.895c.152 1.043.398 2.066.738 3.062.41-.516.957-.91 1.582-1.133Zm0 0"/></g><g id="o" clip-path="url(#d)"><path style="stroke:none;fill-rule:nonzero;fill:#f2f2f2;fill-opacity:1" d="M28.313 33.992a3.543 3.543 0 0 1-1.938 1.067 15.58 15.58 0 0 0 1.883 1.668 16.765 16.765 0 0 0 2.656 1.62c-.012-.1-.02-.199-.02-.3a2.298 2.298 0 0 1 .711-1.645 15.579 15.579 0 0 1-3.293-2.41Zm0 0"/></g><g id="q" clip-path="url(#e)"><path style="stroke:none;fill-rule:nonzero;fill:#f2f2f2;fill-opacity:1" d="M35.496 37.906v.14c0 .606-.234 1.184-.66 1.614 1.46.285 2.95.39 4.43.317a11.181 11.181 0 0 0 1.496-1.747 15.481 15.481 0 0 1-5.266-.324Zm0 0"/></g><g id="s" clip-path="url(#f)"><path style="stroke:none;fill-rule:nonzero;fill:#f2f2f2;fill-opacity:1" d="M36.828 30.61a34.13 34.13 0 0 1-4.234-3.676 17.647 17.647 0 0 1 7.699-1.887 10.849 10.849 0 0 0-1.93-1.879 18.748 18.748 0 0 0-6.093 1.441c-.422.176-.793.442-1.2.66l-.035-.023a21.932 21.932 0 0 1-2.574-3.797c-.484.149-.961.332-1.422.547a22.817 22.817 0 0 0 2.688 4.027 16.217 16.217 0 0 0-2.754 2.254c.722.27 1.336.77 1.746 1.422a15.23 15.23 0 0 1 2.535-1.965 35.62 35.62 0 0 0 4.777 4.16c.121-.503.399-.953.797-1.285Zm0 0"/></g><g id="u" clip-path="url(#g)"><path style="stroke:none;fill-rule:nonzero;fill:#f2f2f2;fill-opacity:1" d="m42.145 33.777-.043-.02-.383-.21-.074-.04-.356-.19-.492-.282a2.37 2.37 0 0 1-.824 1.203l.484.278.11.058.449.254.043.024c.355.195.742.394 1.12.59.15-.473.27-.958.356-1.446Zm0 0"/></g><linearGradient id="i" gradientUnits="userSpaceOnUse" x1="7.243" y1="9.904" x2="7.232" y2="8.458" gradientTransform="scale(3.55556)"><stop offset="0" style="stop-color:#ccc;stop-opacity:1"/><stop offset=".123" style="stop-color:#d7d7d7;stop-opacity:1"/><stop offset="1" style="stop-color:#fcfcfc;stop-opacity:1"/></linearGradient><linearGradient id="j" gradientUnits="userSpaceOnUse" x1="9.337" y1="11.349" x2="9.337" y2="10.053" gradientTransform="scale(3.55556)"><stop offset="0" style="stop-color:#ccc;stop-opacity:1"/><stop offset=".123" style="stop-color:#d7d7d7;stop-opacity:1"/><stop offset="1" style="stop-color:#fcfcfc;stop-opacity:1"/></linearGradient><radialGradient id="h" gradientUnits="userSpaceOnUse" cx="1427.09" cy="3357.234" fx="1427.09" fy="3357.234" r="20.684" gradientTransform="matrix(.53333 0 0 .53333 -729.394 -1758.546)"><stop offset=".183" style="stop-color:#5ea0ef;stop-opacity:1"/><stop offset="1" style="stop-color:#0078d4;stop-opacity:1"/></radialGradient><filter id="a" filterUnits="objectBoundingBox" x="0%" y="0%" width="100%" height="100%"><feColorMatrix in="SourceGraphic" values="0 0 0 0 1 0 0 0 0 1 0 0 0 0 1 0 0 0 1 0"/></filter></defs><path style="stroke:none;fill-rule:nonzero;fill:#b3b3b3;fill-opacity:1" d="M11.504 32a50.031 50.031 0 0 0-1.547 2.488 77.722 77.722 0 0 0 8.93 10.64 77.756 77.756 0 0 0 10.625 8.915A65.994 65.994 0 0 0 32 52.488a72.985 72.985 0 0 1-11.254-9.246A73.096 73.096 0 0 1 11.504 32ZM6.734 6.73a9.145 9.145 0 0 1 6.664-2.304c2.825.078 5.614.64 8.247 1.668a47.42 47.42 0 0 1 7.93 3.84A71.682 71.682 0 0 1 32 8.34a51.232 51.232 0 0 0-9.457-4.715C14.789.793 8.512 1.235 4.875 4.871-.415 10.161 1.289 20.785 8.316 32a82.207 82.207 0 0 1 1.641-2.488C4.219 19.879 2.597 10.867 6.734 6.73Zm0 0"/><path style="stroke:none;fill-rule:nonzero;fill:#5ea0ef;fill-opacity:1" d="M13.406 62.223a11.647 11.647 0 0 1-8.535-3.098c-7.36-7.355-1.191-25.031 14.016-40.242a65.154 65.154 0 0 1 22.57-15.258C49.211.781 55.488 1.238 59.125 4.871c7.352 7.352 1.195 25.027-14.012 40.238-10.867 10.864-22.992 17.114-31.707 17.114ZM50.602 4.426c-2.825.078-5.614.64-8.247 1.668a62.58 62.58 0 0 0-21.609 14.648C7.051 34.437.633 51.16 6.734 57.262c6.102 6.101 22.825-.317 36.52-14.012C56.949 29.555 63.367 12.828 57.266 6.73a9.145 9.145 0 0 0-6.664-2.304Zm0 0"/><path style="stroke:none;fill-rule:nonzero;fill:#b3b3b3;fill-opacity:1" d="m9.957 29.523 2.457 3.809-1.969 1.84-2.992-4.598ZM53.512 28.824a77.396 77.396 0 0 0-8.399-9.953 77.16 77.16 0 0 0-10.687-8.937c-.809.484-1.617.996-2.426 1.53a73.639 73.639 0 0 1 11.254 9.278 73.198 73.198 0 0 1 8.531 10.23l2.258 3.516c5.738 9.645 7.36 18.657 3.223 22.793-4.137 4.133-13.157 2.512-22.79-3.218a59.157 59.157 0 0 1-2.492 1.632 37.205 37.205 0 0 0 18.598 6.543c3.145.16 6.223-.957 8.531-3.097 5.117-5.121 3.64-15.243-2.843-26.051l.03-.02-.41-.648c-.085-.137-.148-.27-.234-.406v.02Zm0 0"/><path style="stroke:none;fill-rule:nonzero;fill:url(#h)" d="M38.484 40.703c-4.808 3.73-11.734 2.856-15.464-1.953-3.73-4.813-2.856-11.738 1.953-15.469l.113-.086c4.836-3.703 11.758-2.78 15.46 2.055 3.704 4.84 2.782 11.762-2.054 15.465"/><path style="stroke:none;fill-rule:nonzero;fill:url(#i)" d="M29.27 31.574a3.543 3.543 0 0 1-3.547 3.543 3.546 3.546 0 1 1 3.547-3.543Zm0 0"/><path style="stroke:none;fill-rule:nonzero;fill:url(#j)" d="M35.504 38.047a2.304 2.304 0 1 1-4.61.002 2.304 2.304 0 0 1 4.61-.002Zm0 0"/><path style="stroke:none;fill-rule:nonzero;fill:#fff;fill-opacity:1" d="M40.895 32.336a2.446 2.446 0 1 1-4.893-.002 2.446 2.446 0 0 1 4.893.002Zm0 0"/><use xlink:href="#k" mask="url(#l)"/><use xlink:href="#m" mask="url(#n)"/><use xlink:href="#o" mask="url(#p)"/><use xlink:href="#q" mask="url(#r)"/><use xlink:href="#s" mask="url(#t)"/><use xlink:href="#u" mask="url(#v)"/><path style="stroke:none;fill-rule:nonzero;fill:#fff;fill-opacity:1" d="M29.27 31.574a3.543 3.543 0 0 1-3.547 3.543 3.546 3.546 0 1 1 3.547-3.543ZM35.504 38.047a2.304 2.304 0 1 1-4.61.002 2.304 2.304 0 0 1 4.61-.002Zm0 0"/></svg>