<svg xmlns="http://www.w3.org/2000/svg" width="64" height="64"><defs><linearGradient id="a" gradientUnits="userSpaceOnUse" x1="8.929" y1="7.745" x2="8.929" y2=".5" gradientTransform="scale(3.55556)"><stop offset="0" style="stop-color:#37c2b1;stop-opacity:1"/><stop offset=".565" style="stop-color:#3fddc3;stop-opacity:1"/><stop offset=".908" style="stop-color:#42e8ca;stop-opacity:1"/></linearGradient></defs><path style="stroke:none;fill-rule:nonzero;fill:#767676;fill-opacity:1" d="M54.523 42.555h3.997c.351 0 .636.285.636.636v13.727h-5.27V43.191c0-.351.286-.636.637-.636ZM5.484 42.902h4.164c.356 0 .641.285.641.641v13.379H4.844V43.539c0-.352.285-.637.64-.637Zm0 0"/><path style="stroke:none;fill-rule:nonzero;fill:#949494;fill-opacity:1" d="M4.844 60.492v-3.558h54.312v3.558c0 .953-.773 1.73-1.73 1.73H6.562a1.734 1.734 0 0 1-1.718-1.73Zm0 0"/><path style="stroke:none;fill-rule:nonzero;fill:#0078d4;fill-opacity:1" d="M14.516 25.867h7.57c.738 0 1.336.598 1.336 1.332v24.903c0 .738-.598 1.336-1.336 1.336h-7.57a1.335 1.335 0 0 1-1.332-1.336V27.199c0-.734.597-1.332 1.332-1.332ZM28.18 25.867h7.566c.738 0 1.336.598 1.336 1.332v24.903c0 .738-.598 1.336-1.336 1.336H28.18a1.335 1.335 0 0 1-1.336-1.336V27.199c0-.734.597-1.332 1.336-1.332Zm0 0"/><path style="stroke:none;fill-rule:nonzero;fill:#37c2b1;fill-opacity:1" d="M41.836 25.867h7.57c.735 0 1.332.598 1.332 1.332v24.903c0 .738-.597 1.336-1.332 1.336h-7.57a1.335 1.335 0 0 1-1.336-1.336V27.199c0-.734.598-1.332 1.336-1.332Zm0 0"/><path style="stroke:none;fill-rule:nonzero;fill:url(#a)" d="M50.133 12.516 39.57 1.937a.544.544 0 0 0-.586-.117.543.543 0 0 0-.336.496v6.168c-12.73 0-25.464 6.801-25.464 19.055 1.82-2.73 10.914-9.996 25.464-9.996v5.922c0 .219.133.414.336.496.2.086.43.039.586-.113l10.563-10.57a.541.541 0 0 0 .16-.383.539.539 0 0 0-.16-.38Zm0 0"/></svg>