<svg xmlns="http://www.w3.org/2000/svg" width="64" height="64"><defs><linearGradient id="a" gradientUnits="userSpaceOnUse" x1="9" y1="16.431" x2="9" y2="4.559" gradientTransform="scale(3.55556)"><stop offset="0" style="stop-color:#0078d4;stop-opacity:1"/><stop offset=".156" style="stop-color:#1380da;stop-opacity:1"/><stop offset=".528" style="stop-color:#3c91e5;stop-opacity:1"/><stop offset=".822" style="stop-color:#559cec;stop-opacity:1"/><stop offset="1" style="stop-color:#5ea0ef;stop-opacity:1"/></linearGradient></defs><path style="stroke:none;fill-rule:nonzero;fill:#a3a3a3;fill-opacity:1" d="M46.703 16.566H43.68V8.613a.376.376 0 0 0-.094 0H20.78a.175.175 0 0 0-.09 0v7.953h-3.023V8.457a3.009 3.009 0 0 1 3.113-2.879h22.805a3.01 3.01 0 0 1 3.117 2.879Zm0 0"/><path style="stroke:none;fill-rule:nonzero;fill:url(#a)" d="M3.793 16.21h56.414c1.113 0 2.016.903 2.016 2.017v38.18a2.016 2.016 0 0 1-2.016 2.015H3.793a2.016 2.016 0 0 1-2.016-2.016v-38.18c0-1.113.903-2.015 2.016-2.015Zm0 0"/><path style="stroke:none;fill-rule:nonzero;fill:#9cebff;fill-opacity:1" d="M1.777 27h60.446v4.664H1.777Zm0 0"/><path style="stroke:none;fill-rule:nonzero;fill:#005ba1;fill-opacity:1" d="M23.527 31.664h17.364v5.441c0 .551-.45 1-1 1H24.535a1 1 0 0 1-1-1v-5.44Zm0 0"/><path style="stroke:none;fill-rule:nonzero;fill:#83b9f9;fill-opacity:1" d="M1.777 38.734v10.649l16.512 5.293 3.098-9.656Zm0 0"/><path style="stroke:none;fill-rule:nonzero;fill:#5ea0ef;fill-opacity:1" d="M62.223 38.203a9.669 9.669 0 0 0-11.914 2.512 9.662 9.662 0 0 0 0 12.176 9.659 9.659 0 0 0 11.914 2.511Zm0 0"/></svg>