<svg xmlns="http://www.w3.org/2000/svg" width="64" height="64"><defs><linearGradient id="a" gradientUnits="userSpaceOnUse" x1="7.849" y1="12.323" x2="7.849" y2="4.229" gradientTransform="scale(3.55556)"><stop offset="0" style="stop-color:#0078d4;stop-opacity:1"/><stop offset=".502" style="stop-color:#4093e6;stop-opacity:1"/><stop offset=".775" style="stop-color:#5ea0ef;stop-opacity:1"/></linearGradient><linearGradient id="b" gradientUnits="userSpaceOnUse" x1="10.151" y1="16.69" x2="10.151" y2="8.595" gradientTransform="scale(3.55556)"><stop offset="0" style="stop-color:#32bedd;stop-opacity:1"/><stop offset=".175" style="stop-color:#32caea;stop-opacity:1"/><stop offset=".41" style="stop-color:#32d2f2;stop-opacity:1"/><stop offset=".775" style="stop-color:#32d4f5;stop-opacity:1"/></linearGradient></defs><path style="stroke:none;fill-rule:nonzero;fill:url(#a)" d="M3.555 15.035h48.71v27.156c0 .899-.726 1.63-1.628 1.63H5.184a1.63 1.63 0 0 1-1.63-1.63Zm0 0"/><path style="stroke:none;fill-rule:nonzero;fill:#0078d4;fill-opacity:1" d="M5.191 4.656h45.43c.899 0 1.629.73 1.629 1.63v8.75H3.555v-8.75c0-.434.172-.848.48-1.153a1.645 1.645 0 0 1 1.156-.477Zm0 0"/><path style="stroke:none;fill-rule:nonzero;fill:url(#b)" d="M11.734 30.578h48.711V57.73c0 .903-.73 1.63-1.629 1.63H13.367a1.625 1.625 0 0 1-1.625-1.63V30.578Zm0 0"/><path style="stroke:none;fill-rule:nonzero;fill:#198ab3;fill-opacity:1" d="M13.379 20.184h45.43c.433 0 .847.168 1.156.472.305.309.48.723.48 1.153v8.77h-48.71v-8.77a1.63 1.63 0 0 1 1.645-1.625Zm0 0"/></svg>