<svg xmlns="http://www.w3.org/2000/svg" width="64" height="64"><defs><linearGradient id="a" gradientUnits="userSpaceOnUse" x1="5.236" y1="17.5" x2="5.236" y2="13.544" gradientTransform="scale(3.55556)"><stop offset="0" style="stop-color:#a67af4;stop-opacity:1"/><stop offset=".775" style="stop-color:#b796f9;stop-opacity:1"/></linearGradient><linearGradient id="b" gradientUnits="userSpaceOnUse" x1="15.532" y1="9.063" x2="15.532" y2="5.107" gradientTransform="scale(3.55556)"><stop offset="0" style="stop-color:#a67af4;stop-opacity:1"/><stop offset=".775" style="stop-color:#b796f9;stop-opacity:1"/></linearGradient><linearGradient id="c" gradientUnits="userSpaceOnUse" x1="12.259" y1="15.541" x2="12.259" y2="11.585" gradientTransform="scale(3.55556)"><stop offset="0" style="stop-color:#a67af4;stop-opacity:1"/><stop offset=".775" style="stop-color:#b796f9;stop-opacity:1"/></linearGradient><linearGradient id="d" gradientUnits="userSpaceOnUse" x1="5.094" y1="9.709" x2="5.094" y2=".5" gradientTransform="scale(3.55556)"><stop offset="0" style="stop-color:#a67af4;stop-opacity:1"/><stop offset=".485" style="stop-color:#ae87f6;stop-opacity:1"/><stop offset=".898" style="stop-color:#b796f9;stop-opacity:1"/></linearGradient><linearGradient id="e" gradientUnits="userSpaceOnUse" x1="5.094" y1="8.264" x2="5.094" y2="1.945" gradientTransform="scale(3.55556)"><stop offset="0" style="stop-color:#e6e6e6;stop-opacity:1"/><stop offset=".898" style="stop-color:#f2f2f2;stop-opacity:1"/></linearGradient></defs><path style="stroke:none;fill-rule:nonzero;fill:#773adc;fill-opacity:1" d="M15.527 30.367H20.7v21.649h-5.172ZM30.184 27.781v-5.176h21.644v5.176ZM23.5 32.14l3.656-3.656L42.465 43.79l-3.66 3.66Zm0 0"/><path style="stroke:none;fill-rule:nonzero;fill:url(#a)" d="M25.648 55.188a7.033 7.033 0 0 1-7.03 7.035 7.033 7.033 0 0 1-7.032-7.035 7.032 7.032 0 0 1 14.062 0Zm0 0"/><path style="stroke:none;fill-rule:nonzero;fill:url(#b)" d="M62.258 25.191a7.032 7.032 0 0 1-7.031 7.032 7.033 7.033 0 0 1-7.036-7.032 7.033 7.033 0 0 1 7.036-7.03 7.032 7.032 0 0 1 7.03 7.03Zm0 0"/><path style="stroke:none;fill-rule:nonzero;fill:url(#c)" d="M50.621 48.223a7.033 7.033 0 1 1-14.067.003 7.033 7.033 0 0 1 14.067-.003Zm0 0"/><path style="stroke:none;fill-rule:nonzero;fill:url(#d)" d="M34.484 18.152c0 9.043-7.328 16.371-16.37 16.371-9.044 0-16.376-7.328-16.376-16.37 0-9.044 7.332-16.376 16.375-16.376S34.484 9.11 34.484 18.152Zm0 0"/><path style="stroke:none;fill-rule:nonzero;fill:url(#e)" d="M29.348 18.152c0 6.203-5.032 11.235-11.235 11.235-6.207 0-11.238-5.032-11.238-11.235 0-6.207 5.031-11.238 11.238-11.238 6.203 0 11.235 5.031 11.235 11.238Zm0 0"/></svg>