<svg xmlns="http://www.w3.org/2000/svg" width="64" height="64"><defs><linearGradient id="a" gradientUnits="userSpaceOnUse" x1="9.84" y1="3.825" x2="9.84" y2="17.5" gradientTransform="scale(3.55556)"><stop offset="0" style="stop-color:#c69aeb;stop-opacity:1"/><stop offset="1" style="stop-color:#6f4bb2;stop-opacity:1"/></linearGradient></defs><path style="stroke:none;fill-rule:nonzero;fill:#773adc;fill-opacity:1" d="m53.25 8.89-6.672-6.632a1.671 1.671 0 0 0-1.234-.48l-12.38.452a1.623 1.623 0 0 0-1.109.48L4.773 29.649a1.63 1.63 0 0 0-.484 1.165c0 .437.172.855.484 1.164l18.04 17.945a1.66 1.66 0 0 0 2.335 0l27.118-26.973a1.62 1.62 0 0 0 .476-1.027l.992-11.73c.04-.485-.136-.962-.484-1.301Zm-8.055 4.4a2.998 2.998 0 1 1 3.016-3 3.014 3.014 0 0 1-.887 2.124 3.02 3.02 0 0 1-2.129.875Zm0 0"/><path style="stroke:none;fill-rule:nonzero;fill:#341a6e;fill-opacity:1" d="M45.195 4.918a5.376 5.376 0 1 0 5.403 5.371 5.382 5.382 0 0 0-5.403-5.371Zm2.957 5.957a3.018 3.018 0 0 1-3.144 2.441 3.019 3.019 0 0 1-2.824-2.804 3.02 3.02 0 0 1 2.414-3.164c.988-.211 2.015.09 2.734.8a2.977 2.977 0 0 1 .82 2.727Zm0 0"/><path style="stroke:none;fill-rule:nonzero;fill:url(#a)" d="m59.227 20.723-6.676-6.645a1.653 1.653 0 0 0-1.23-.476l-12.383.445c-.418.02-.813.187-1.11.48L10.75 41.47a1.626 1.626 0 0 0 0 2.324l18.05 17.95a1.66 1.66 0 0 0 2.337 0L58.238 34.77c.278-.274.446-.637.477-1.024l.988-11.734a1.62 1.62 0 0 0-.476-1.29Zm-8.055 4.386a3 3 0 0 1-2.984-3.007 3.002 3.002 0 0 1 3.003-2.989 3 3 0 0 1 2.993 3 3.012 3.012 0 0 1-3.012 2.996Zm0 0"/><path style="stroke:none;fill-rule:nonzero;fill:#552f99;fill-opacity:1" d="M51.172 16.734a5.381 5.381 0 0 0-5.352 5.395 5.376 5.376 0 0 0 5.383 5.36 5.376 5.376 0 0 0 5.371-5.376 5.394 5.394 0 0 0-5.402-5.379Zm2.953 5.965a3.011 3.011 0 0 1-3.145 2.438 3.018 3.018 0 0 1-2.824-2.801 3.017 3.017 0 0 1 2.414-3.164 2.99 2.99 0 0 1 3.555 3.527Zm0 0"/><path style="stroke:none;fill-rule:nonzero;fill:#fff;fill-opacity:1" d="M54.125 22.7a3.011 3.011 0 0 1-3.145 2.437 3.018 3.018 0 0 1-2.824-2.801 3.017 3.017 0 0 1 2.414-3.164 2.99 2.99 0 0 1 3.555 3.527ZM48.152 10.875a3.018 3.018 0 0 1-3.144 2.441 3.019 3.019 0 0 1-2.824-2.804 3.02 3.02 0 0 1 2.414-3.164c.988-.211 2.015.09 2.734.8a2.977 2.977 0 0 1 .82 2.727Zm0 0"/></svg>