<svg xmlns="http://www.w3.org/2000/svg" xmlns:xlink="http://www.w3.org/1999/xlink" width="64" height="64"><defs><clipPath id="b"><path d="M0 0h64v64H0z"/></clipPath><clipPath id="c"><path d="M0 0h64v64H0z"/></clipPath><clipPath id="d"><path d="M0 0h64v64H0z"/></clipPath><clipPath id="e"><path d="M0 0h64v64H0z"/></clipPath><clipPath id="f"><path d="M0 0h64v64H0z"/></clipPath><clipPath id="g"><path d="M0 0h64v64H0z"/></clipPath><clipPath id="h"><path d="M0 0h64v64H0z"/></clipPath><mask id="k"><g filter="url(#a)"><path style="fill:#000;fill-opacity:.6;stroke:none" d="M0 0h64v64H0z"/></g></mask><mask id="m"><g filter="url(#a)"><path style="fill:#000;fill-opacity:.6;stroke:none" d="M0 0h64v64H0z"/></g></mask><mask id="o"><g filter="url(#a)"><path style="fill:#000;fill-opacity:.54902;stroke:none" d="M0 0h64v64H0z"/></g></mask><mask id="r"><g filter="url(#a)"><path style="fill:#000;fill-opacity:.54902;stroke:none" d="M0 0h64v64H0z"/></g></mask><mask id="t"><g filter="url(#a)"><path style="fill:#000;fill-opacity:.54902;stroke:none" d="M0 0h64v64H0z"/></g></mask><mask id="w"><g filter="url(#a)"><path style="fill:#000;fill-opacity:.701961;stroke:none" d="M0 0h64v64H0z"/></g></mask><mask id="y"><g filter="url(#a)"><path style="fill:#000;fill-opacity:.54902;stroke:none" d="M0 0h64v64H0z"/></g></mask><g id="j" clip-path="url(#b)"><path style="stroke:none;fill-rule:nonzero;fill:#fff;fill-opacity:1" d="M20.652 21.023A39.681 39.681 0 0 1 47.82 10.105a25.513 25.513 0 0 0-4.527-4.418 44.057 44.057 0 0 0-14.316 3.38 37.782 37.782 0 0 0-12.442 8.581 8.38 8.38 0 0 1 4.117 3.375Zm0 0"/></g><g id="l" clip-path="url(#c)"><path style="stroke:none;fill-rule:nonzero;fill:#fff;fill-opacity:1" d="M7.82 31.434a58.057 58.057 0 0 0-2.547 8 26.862 26.862 0 0 0 1.899 2.812 23.9 23.9 0 0 0 1.687 1.973 54.418 54.418 0 0 1 3.301-10.574 8.323 8.323 0 0 1-4.34-2.211Zm0 0"/></g><g id="n" clip-path="url(#d)"><path style="stroke:none;fill-rule:nonzero;fill:#f2f2f2;fill-opacity:1" d="M10.805 17.605a36.378 36.378 0 0 1-2.102-8.98 25.912 25.912 0 0 0-3.371 4.445 40.69 40.69 0 0 0 1.746 7.196 8.312 8.312 0 0 1 3.727-2.66Zm0 0"/></g><g id="q" clip-path="url(#e)"><path style="stroke:none;fill-rule:nonzero;fill:#f2f2f2;fill-opacity:1" d="M25.746 40.656c0-1.457.586-2.851 1.633-3.867a36.602 36.602 0 0 1-7.7-5.66 8.299 8.299 0 0 1-4.55 2.488 36.26 36.26 0 0 0 4.426 3.91 37.593 37.593 0 0 0 6.242 3.805 4.337 4.337 0 0 1-.05-.676Zm0 0"/></g><g id="s" clip-path="url(#f)"><path style="stroke:none;fill-rule:nonzero;fill:#f2f2f2;fill-opacity:1" d="M44.95 41.305c-2.829 0-5.645-.328-8.4-.977 0 .11.02.219.02.328a5.401 5.401 0 0 1-1.539 3.79c3.422.675 6.914.925 10.399.742a25.254 25.254 0 0 0 3.508-4.098 36.765 36.765 0 0 1-3.989.215Zm0 0"/></g><g id="v" clip-path="url(#g)"><path style="stroke:none;fill-rule:nonzero;fill:#f2f2f2;fill-opacity:1" d="M37.813 26.2a5.638 5.638 0 0 1 1.867-3.016A77.087 77.087 0 0 1 26.074 10.53a51.832 51.832 0 0 1-6.05-8.906 25.21 25.21 0 0 0-3.313 1.277 54.25 54.25 0 0 0 6.504 9.711A80.507 80.507 0 0 0 37.813 26.2Zm0 0"/></g><g id="x" clip-path="url(#h)"><path style="stroke:none;fill-rule:nonzero;fill:#f2f2f2;fill-opacity:1" d="M53.148 31.11c-.355-.176-.64-.333-.976-.516l-.094-.047c-.305-.16-.605-.324-.902-.488l-.168-.094-.813-.453-.199-.114c-.324-.183-.644-.355-.96-.546a5.455 5.455 0 0 1-1.942 2.816c.37.223.754.437 1.14.656l.258.145 1.067.586.101.058c.856.465 1.73.93 2.63 1.39.362-1.108.651-2.245.862-3.394Zm0 0"/></g><linearGradient id="p" gradientUnits="userSpaceOnUse" x1="3.844" y1="9.561" x2="3.817" y2="6.165" gradientTransform="scale(3.55556)"><stop offset="0" style="stop-color:#ccc;stop-opacity:1"/><stop offset=".123" style="stop-color:#d7d7d7;stop-opacity:1"/><stop offset="1" style="stop-color:#fcfcfc;stop-opacity:1"/></linearGradient><linearGradient id="u" gradientUnits="userSpaceOnUse" x1="8.763" y1="12.958" x2="8.763" y2="9.913" gradientTransform="scale(3.55556)"><stop offset="0" style="stop-color:#ccc;stop-opacity:1"/><stop offset=".123" style="stop-color:#d7d7d7;stop-opacity:1"/><stop offset="1" style="stop-color:#fcfcfc;stop-opacity:1"/></linearGradient><linearGradient id="z" gradientUnits="userSpaceOnUse" x1="3.844" y1="9.561" x2="3.817" y2="6.165" gradientTransform="scale(3.55556)"><stop offset="0" style="stop-color:#ccc;stop-opacity:1"/><stop offset=".123" style="stop-color:#d7d7d7;stop-opacity:1"/><stop offset="1" style="stop-color:#fcfcfc;stop-opacity:1"/></linearGradient><linearGradient id="A" gradientUnits="userSpaceOnUse" x1="-105.292" y1="373.011" x2="-105.292" y2="364.165" gradientTransform="matrix(3.37422 -1.11644 1.11644 3.37422 -9.65 -1320.875)"><stop offset="0" style="stop-color:#32bedd;stop-opacity:1"/><stop offset=".576" style="stop-color:#32ceef;stop-opacity:1"/><stop offset="1" style="stop-color:#32d4f5;stop-opacity:1"/></linearGradient><radialGradient id="i" gradientUnits="userSpaceOnUse" cx="4649.515" cy="3578.357" fx="4649.515" fy="3578.357" r="48.597" gradientTransform="matrix(.53333 0 0 .53333 -2452.057 -1882.048)"><stop offset=".183" style="stop-color:#5ea0ef;stop-opacity:1"/><stop offset="1" style="stop-color:#0078d4;stop-opacity:1"/></radialGradient><filter id="a" filterUnits="objectBoundingBox" x="0%" y="0%" width="100%" height="100%"><feColorMatrix in="SourceGraphic" values="0 0 0 0 1 0 0 0 0 1 0 0 0 0 1 0 0 0 1 0"/></filter></defs><path style="stroke:none;fill-rule:nonzero;fill:url(#i)" d="M43.582 46.898c-11.312 8.77-27.594 6.711-36.363-4.597C-1.555 30.988.504 14.71 11.816 5.937l.274-.199c11.375-8.386 27.37-6.11 35.96 5.114 8.587 11.222 6.598 27.257-4.468 36.046"/><use xlink:href="#j" mask="url(#k)"/><use xlink:href="#l" mask="url(#m)"/><use xlink:href="#n" mask="url(#o)"/><path style="stroke:none;fill-rule:nonzero;fill:url(#p)" d="M21.93 25.445c0 4.602-3.73 8.332-8.328 8.332a8.332 8.332 0 0 1-8.332-8.332 8.33 8.33 0 0 1 16.66 0Zm0 0"/><use xlink:href="#q" mask="url(#r)"/><use xlink:href="#s" mask="url(#t)"/><path style="stroke:none;fill-rule:nonzero;fill:url(#u)" d="M36.57 40.656a5.414 5.414 0 0 1-5.414 5.414 5.41 5.41 0 0 1-5.41-5.414 5.413 5.413 0 0 1 10.824 0Zm0 0"/><use xlink:href="#v" mask="url(#w)"/><path style="stroke:none;fill-rule:nonzero;fill:#f2f2f2;fill-opacity:1" d="M49.242 27.234a5.75 5.75 0 1 1-11.5 0 5.75 5.75 0 0 1 11.5 0Zm0 0"/><use xlink:href="#x" mask="url(#y)"/><path style="stroke:none;fill-rule:nonzero;fill:url(#z)" d="M21.93 25.445c0 4.602-3.73 8.332-8.328 8.332a8.332 8.332 0 0 1-8.332-8.332 8.33 8.33 0 0 1 16.66 0Zm0 0"/><path style="stroke:none;fill-rule:nonzero;fill:#f2f2f2;fill-opacity:1" d="M36.57 40.656a5.414 5.414 0 0 1-5.414 5.414 5.41 5.41 0 0 1-5.41-5.414 5.413 5.413 0 0 1 10.824 0Zm0 0"/><path style="stroke:none;fill-rule:nonzero;fill:url(#A)" d="m62.223 37.586-1.13-3.406H56.52l-1.727-2.012.55-4.555-3.183-1.601-3.242 3.242-2.645-.184-2.847-3.625-3.406 1.125-.02.54v4.038l-2.012 1.723-4.48-.559-1.598 3.18 3.242 3.242-.18 2.641-3.687 2.883 1.13 3.402.534.02h4.04l1.722 2.011-.547 4.555 3.184 1.598 3.242-3.242 2.644.183 2.844 3.63 3.406-1.13.024-.535v-4.04l2.012-1.726 4.554.547 1.602-3.176-.399-.402-2.843-2.844.183-2.648ZM48.93 47.465a6.898 6.898 0 0 1-8.723-4.383 6.896 6.896 0 0 1 4.387-8.719 6.901 6.901 0 0 1 4.336 13.102Zm0 0"/><path style="stroke:none;fill-rule:nonzero;fill:#50e6ff;fill-opacity:1" d="M27.07 52.457v-2.824l-.402-.149-3.023-.988-.786-1.918 1.536-3.27-1.997-1.995-.398.199-2.82 1.422-1.934-.793-1.223-3.387h-2.82l-.152.394-.989 3.024-1.933.793L6.91 41.43l-1.98 1.98.199.399 1.422 2.824-.79 1.93-3.452 1.214v2.844l.394.152 3.02.989.793 1.933-1.536 3.266 1.98 1.98.395-.199 2.825-1.422 1.93.79 1.242 3.421h2.824l.144-.398.992-3.024 1.93-.789 3.274 1.532 1.98-1.98-.2-.395-1.425-2.82.793-1.934Zm-12.383 4.098a5.436 5.436 0 1 1-.004-10.871 5.433 5.433 0 0 1 5.438 5.433 5.433 5.433 0 0 1-5.433 5.438Zm0 0"/><path style="stroke:none;fill-rule:nonzero;fill:#fff;fill-opacity:1" d="M53.66 40.914a6.9 6.9 0 1 1-13.8 0 6.9 6.9 0 1 1 13.8 0ZM20.121 51.117a5.435 5.435 0 0 1-10.867 0 5.435 5.435 0 0 1 10.867 0Zm0 0"/></svg>