<svg xmlns="http://www.w3.org/2000/svg" width="64" height="64"><defs><linearGradient id="a" gradientUnits="userSpaceOnUse" x1="8.881" y1="17.5" x2="8.881" y2="2.093" gradientTransform="scale(3.55556)"><stop offset="0" style="stop-color:#0078d4;stop-opacity:1"/><stop offset=".817" style="stop-color:#5ea0ef;stop-opacity:1"/></linearGradient></defs><path style="stroke:none;fill-rule:nonzero;fill:#005ba1;fill-opacity:1" d="m9.453 7.5 4.309-5.012c.398-.453.972-.71 1.578-.71h41.289a2.89 2.89 0 0 1 2.242.769c.606.562.938 1.36.914 2.187V56.29c0 .586-.246 1.148-.68 1.547l-4.652 4.234H12.246l-2.844-1.199Zm0 0"/><path style="stroke:none;fill-rule:nonzero;fill:#fff;fill-opacity:1" d="m12.918 7.465 2.637-3.008a1.862 1.862 0 0 1 1.398-.637h38.563c1.027 0 1.855.832 1.855 1.86v49.015c0 .524-.219 1.02-.605 1.371l-4.118 3.754Zm0 0"/><path style="stroke:none;fill-rule:nonzero;fill:url(#a)" d="M52.395 7.441H9.602c-.114 0-.2.09-.2.2v53.21a1.37 1.37 0 0 0 1.368 1.372h41.636a1.37 1.37 0 0 0 1.367-1.371V8.812a1.374 1.374 0 0 0-1.379-1.371Zm0 0"/><path style="stroke:none;fill-rule:nonzero;fill:#fff;fill-opacity:1" d="M22.395 22.043h19.43c.53 0 .96.43.96.96v6.552c0 .527-.43.96-.96.96h-19.43a.963.963 0 0 1-.961-.96v-6.551c0-.531.43-.961.96-.961Zm0 0"/><path style="stroke:none;fill-rule:nonzero;fill:#005ba1;fill-opacity:1" d="M6.313 12.828h4.507a2.1 2.1 0 0 1 2.098 2.098v.93a2.1 2.1 0 0 1-2.098 2.097H6.312a2.098 2.098 0 0 1-2.097-2.098v-.93c0-1.155.937-2.097 2.098-2.097ZM6.313 22.563h4.507a2.1 2.1 0 0 1 2.098 2.097v.93a2.1 2.1 0 0 1-2.098 2.098H6.312a2.098 2.098 0 0 1-2.097-2.098v-.93c0-1.156.937-2.098 2.098-2.098ZM6.313 32.297h4.507a2.1 2.1 0 0 1 2.098 2.098v.93c0 1.16-.941 2.097-2.098 2.097H6.312a2.096 2.096 0 0 1-2.097-2.098v-.93c0-1.156.937-2.097 2.098-2.097ZM6.313 42.031h4.507c1.157 0 2.098.938 2.098 2.098v.926c0 1.16-.941 2.097-2.098 2.097H6.312a2.096 2.096 0 0 1-2.097-2.097v-.926c0-1.16.937-2.098 2.098-2.098ZM6.313 51.766h4.507c1.157 0 2.098.937 2.098 2.097v.93a2.1 2.1 0 0 1-2.098 2.098H6.312a2.098 2.098 0 0 1-2.097-2.098v-.93c0-1.16.937-2.097 2.098-2.097Zm0 0"/></svg>