<svg xmlns="http://www.w3.org/2000/svg" width="64" height="64"><defs><linearGradient id="a" gradientUnits="userSpaceOnUse" x1="-655.236" y1="2848.852" x2="-637.632" y2="2879.398" gradientTransform="scale(3.55548 -3.55548) rotate(-59.999 -2804.167 866.455)"><stop offset="0" style="stop-color:#005ba1;stop-opacity:1"/><stop offset=".366" style="stop-color:#004e8f;stop-opacity:1"/><stop offset="1" style="stop-color:#003067;stop-opacity:1"/></linearGradient><linearGradient id="b" gradientUnits="userSpaceOnUse" x1="-4132.03" y1="-451.06" x2="-4110.646" y2="-413.559" gradientTransform="scale(-3.55548 3.55548) rotate(-59.999 -1677.659 -3770.88)"><stop offset="0" style="stop-color:#005ba1;stop-opacity:1"/><stop offset=".451" style="stop-color:#004685;stop-opacity:1"/><stop offset="1" style="stop-color:#003067;stop-opacity:1"/></linearGradient><linearGradient id="c" gradientUnits="userSpaceOnUse" x1="5.986" y1="506.861" x2="7.43" y2="515.104" gradientTransform="matrix(3.55556 0 0 -3.55556 0 1853.536)"><stop offset=".26" style="stop-color:#50e6ff;stop-opacity:1"/><stop offset=".42" style="stop-color:#79eaff;stop-opacity:1"/><stop offset=".58" style="stop-color:#99edff;stop-opacity:1"/><stop offset=".733" style="stop-color:#b0efff;stop-opacity:1"/><stop offset=".876" style="stop-color:#bef1ff;stop-opacity:1"/><stop offset="1" style="stop-color:#c3f1ff;stop-opacity:1"/></linearGradient></defs><path style="stroke:none;fill-rule:nonzero;fill:url(#a)" d="m32.805 13.96 15.55 8.946 10.836-6.258A31.26 31.26 0 0 0 36.078.977a31.266 31.266 0 0 0-26.414 9.062 35.66 35.66 0 0 1 23.14 3.922Zm0 0"/><path style="stroke:none;fill-rule:nonzero;fill:#0078d4;fill-opacity:1" d="m48.145 22.906-.243 21.453 11.262 3.028a31.267 31.267 0 0 0-18.629-45.48 37.173 37.173 0 0 1 7.61 21Zm0 0"/><path style="stroke:none;fill-rule:nonzero;fill:#5ea0ef;fill-opacity:1" d="m48.125 41.406-16.184 9.352.25 12.445c17.23-.07 31.16-14.058 31.16-31.289a30.23 30.23 0 0 0-1.023-7.43 34.053 34.053 0 0 1-14.203 16.922Zm0 0"/><path style="stroke:none;fill-rule:nonzero;fill:url(#b)" d="m31.941 50.758-16.199-9.352-10.734 6.446a31.223 31.223 0 0 0 22.68 15.144 31.234 31.234 0 0 0 25.93-8.457 35.224 35.224 0 0 1-21.677-3.781Zm0 0"/><path style="stroke:none;fill-rule:nonzero;fill:#0078d4;fill-opacity:1" d="m15.734 41.406.246-22.176-11.085-2.918A31.05 31.05 0 0 0 .652 32c.059 14.156 9.57 26.523 23.235 30.223a36.217 36.217 0 0 1-8.153-20.817Zm0 0"/><path style="stroke:none;fill-rule:nonzero;fill:#5ea0ef;fill-opacity:1" d="M16.297 22.398 31.94 13.36a37.587 37.587 0 0 0-21.128-4.43A31.126 31.126 0 0 0 .652 32a31.85 31.85 0 0 0 1.124 8.25 36.443 36.443 0 0 1 14.52-17.852Zm0 0"/><path style="stroke:none;fill-rule:nonzero;fill:#c3f1ff;fill-opacity:1" d="M48.125 41.406V22.707L31.93 13.359l-16.196 9.348v18.7l16.196 9.35Zm0 0"/><path style="stroke:none;fill-rule:nonzero;fill:url(#c)" d="M31.95 32.254v18.504l-16.216-9.352V22.77Zm0 0"/><path style="stroke:none;fill-rule:nonzero;fill:#50e6ff;fill-opacity:1" d="M31.93 32.254v18.504l16.215-9.352V22.77Zm0 0"/></svg>