<svg xmlns="http://www.w3.org/2000/svg" width="64" height="64"><defs><linearGradient id="a" gradientUnits="userSpaceOnUse" x1="3.439" y1="6.801" x2="3.439" y2="1.432" gradientTransform="scale(3.55556)"><stop offset=".2" style="stop-color:#0078d4;stop-opacity:1"/><stop offset=".287" style="stop-color:#1380da;stop-opacity:1"/><stop offset=".759" style="stop-color:#5ea0ef;stop-opacity:1"/></linearGradient><linearGradient id="b" gradientUnits="userSpaceOnUse" x1="3.439" y1="11.998" x2="3.439" y2="6.628" gradientTransform="scale(3.55556)"><stop offset=".2" style="stop-color:#0078d4;stop-opacity:1"/><stop offset=".287" style="stop-color:#1380da;stop-opacity:1"/><stop offset=".759" style="stop-color:#5ea0ef;stop-opacity:1"/></linearGradient><linearGradient id="c" gradientUnits="userSpaceOnUse" x1="3.439" y1="17.194" x2="3.439" y2="11.824" gradientTransform="scale(3.55556)"><stop offset=".2" style="stop-color:#0078d4;stop-opacity:1"/><stop offset=".287" style="stop-color:#1380da;stop-opacity:1"/><stop offset=".759" style="stop-color:#5ea0ef;stop-opacity:1"/></linearGradient></defs><path style="stroke:none;fill-rule:nonzero;fill:url(#a)" d="m22.887 6.598-1.04-1.035a1.773 1.773 0 0 0-2.511 0L9.266 15.617 5.125 11.48a1.778 1.778 0 0 0-2.516 0l-1.043 1.043a1.78 1.78 0 0 0 0 2.512l6.446 6.453a1.777 1.777 0 0 0 2.512 0L22.886 9.113a1.778 1.778 0 0 0 0-2.515Zm0 0"/><path style="stroke:none;fill-rule:nonzero;fill:#a3a3a3;fill-opacity:1" d="M29.375 10.484h30.293a3.28 3.28 0 0 1 3.281 3.282v.175a3.28 3.28 0 0 1-3.281 3.282H29.375a3.28 3.28 0 0 1-3.281-3.282v-.175a3.28 3.28 0 0 1 3.281-3.282ZM29.375 28.703h30.293a3.28 3.28 0 0 1 3.281 3.281v.176a3.28 3.28 0 0 1-3.281 3.281H29.375a3.28 3.28 0 0 1-3.281-3.28v-.177a3.28 3.28 0 0 1 3.281-3.28ZM29.375 46.918h30.293a3.28 3.28 0 0 1 3.281 3.281v.176a3.28 3.28 0 0 1-3.281 3.281H29.375a3.28 3.28 0 0 1-3.281-3.281v-.176a3.28 3.28 0 0 1 3.281-3.281Zm0 0"/><path style="stroke:none;fill-rule:nonzero;fill:url(#b)" d="m22.887 25.078-1.04-1.043a1.773 1.773 0 0 0-2.511 0L9.266 34.09l-4.141-4.133a1.778 1.778 0 0 0-2.516 0l-1.043 1.04a1.785 1.785 0 0 0 0 2.515l6.446 6.453a1.767 1.767 0 0 0 2.511 0L22.887 27.59a1.773 1.773 0 0 0 0-2.512Zm0 0"/><path style="stroke:none;fill-rule:nonzero;fill:url(#c)" d="m22.887 43.55-1.04-1.038a1.763 1.763 0 0 0-1.257-.52 1.745 1.745 0 0 0-1.254.52L9.266 52.566 5.125 48.43a1.778 1.778 0 0 0-2.516 0l-1.043 1.039a1.78 1.78 0 0 0 0 2.511l6.446 6.458a1.78 1.78 0 0 0 2.511 0l12.364-12.376a1.78 1.78 0 0 0 0-2.511Zm0 0"/></svg>