<svg xmlns="http://www.w3.org/2000/svg" xmlns:xlink="http://www.w3.org/1999/xlink" width="64" height="64"><defs><clipPath id="b"><path d="M0 0h64v64H0z"/></clipPath><clipPath id="c"><path d="M0 0h64v64H0z"/></clipPath><clipPath id="d"><path d="M0 0h64v64H0z"/></clipPath><clipPath id="e"><path d="M0 0h64v64H0z"/></clipPath><mask id="h"><g filter="url(#a)"><path style="fill:#000;fill-opacity:.94902;stroke:none" d="M0 0h64v64H0z"/></g></mask><mask id="j"><g filter="url(#a)"><path style="fill:#000;fill-opacity:.45098;stroke:none" d="M0 0h64v64H0z"/></g></mask><mask id="l"><g filter="url(#a)"><path style="fill:#000;fill-opacity:.901961;stroke:none" d="M0 0h64v64H0z"/></g></mask><mask id="n"><g filter="url(#a)"><path style="fill:#000;fill-opacity:.74902;stroke:none" d="M0 0h64v64H0z"/></g></mask><g id="g" clip-path="url(#b)"><path style="stroke:none;fill-rule:nonzero;fill:#fff;fill-opacity:1" d="M8.89 9.875h11.868c.273 0 .496.223.496.496v10.98a.497.497 0 0 1-.496.497H8.89a.497.497 0 0 1-.496-.496v-10.98c0-.274.222-.497.496-.497ZM26.07 9.875h11.864c.277 0 .5.223.5.496v10.98a.498.498 0 0 1-.5.497H26.07a.498.498 0 0 1-.5-.496v-10.98c0-.274.223-.497.5-.497ZM43.246 9.875H55.11c.278 0 .5.223.5.496v10.98a.498.498 0 0 1-.5.497H43.246a.497.497 0 0 1-.496-.496v-10.98c0-.274.223-.497.496-.497Zm0 0"/></g><g id="i" clip-path="url(#c)"><path style="stroke:none;fill-rule:nonzero;fill:#fff;fill-opacity:1" d="M8.89 25.883h28.852c.274 0 .496.222.496.5v10.98a.497.497 0 0 1-.496.496H8.891a.497.497 0 0 1-.496-.496v-10.98c0-.278.222-.5.496-.5Zm0 0"/></g><g id="k" clip-path="url(#d)"><path style="stroke:none;fill-rule:nonzero;fill:#fff;fill-opacity:1" d="M43.195 25.883h11.867c.274 0 .497.222.497.5v10.98a.497.497 0 0 1-.496.496H43.194a.497.497 0 0 1-.496-.496v-10.98c0-.278.223-.5.496-.5Zm0 0"/></g><g id="m" clip-path="url(#e)"><path style="stroke:none;fill-rule:nonzero;fill:#fff;fill-opacity:1" d="M8.89 42.148h45.891c.274 0 .496.223.496.497v10.98a.497.497 0 0 1-.496.496H8.891a.497.497 0 0 1-.496-.496v-10.98c0-.274.222-.497.496-.497Zm0 0"/></g><linearGradient id="f" gradientUnits="userSpaceOnUse" x1="9" y1="19.049" x2="9" y2="1.048" gradientTransform="scale(3.55556)"><stop offset=".2" style="stop-color:#0078d4;stop-opacity:1"/><stop offset=".287" style="stop-color:#1380da;stop-opacity:1"/><stop offset=".495" style="stop-color:#3c91e5;stop-opacity:1"/><stop offset=".659" style="stop-color:#559cec;stop-opacity:1"/><stop offset=".759" style="stop-color:#5ea0ef;stop-opacity:1"/></linearGradient><filter id="a" filterUnits="objectBoundingBox" x="0%" y="0%" width="100%" height="100%"><feColorMatrix in="SourceGraphic" values="0 0 0 0 1 0 0 0 0 1 0 0 0 0 1 0 0 0 1 0"/></filter></defs><path style="stroke:none;fill-rule:nonzero;fill:url(#f)" d="M5.453 3.555h53.094a1.9 1.9 0 0 1 1.898 1.898v53.094a1.9 1.9 0 0 1-1.898 1.898H5.453a1.9 1.9 0 0 1-1.898-1.898V5.453a1.9 1.9 0 0 1 1.898-1.898Zm0 0"/><use xlink:href="#g" mask="url(#h)"/><use xlink:href="#i" mask="url(#j)"/><use xlink:href="#k" mask="url(#l)"/><use xlink:href="#m" mask="url(#n)"/></svg>