<svg xmlns="http://www.w3.org/2000/svg" width="64" height="64"><defs><linearGradient id="a" gradientUnits="userSpaceOnUse" x1="2.624" y1="15.969" x2="2.624" y2="11.167" gradientTransform="scale(3.55556)"><stop offset="0" style="stop-color:#76bc2d;stop-opacity:1"/><stop offset=".601" style="stop-color:#81ce31;stop-opacity:1"/><stop offset=".822" style="stop-color:#86d633;stop-opacity:1"/></linearGradient><linearGradient id="b" gradientUnits="userSpaceOnUse" x1="9.026" y1="18" x2="9.026" y2="13.198" gradientTransform="scale(3.55556)"><stop offset="0" style="stop-color:#76bc2d;stop-opacity:1"/><stop offset=".601" style="stop-color:#81ce31;stop-opacity:1"/><stop offset=".822" style="stop-color:#86d633;stop-opacity:1"/></linearGradient><linearGradient id="c" gradientUnits="userSpaceOnUse" x1="15.376" y1="16.001" x2="15.376" y2="11.199" gradientTransform="scale(3.55556)"><stop offset="0" style="stop-color:#76bc2d;stop-opacity:1"/><stop offset=".601" style="stop-color:#81ce31;stop-opacity:1"/><stop offset=".822" style="stop-color:#86d633;stop-opacity:1"/></linearGradient></defs><path style="stroke:none;fill-rule:nonzero;fill:#50e6ff;fill-opacity:1" d="M55.145 27.977H35.742a1.043 1.043 0 0 1-1.043-1.043v-7.41h-5.215v7.41c0 .574-.464 1.039-1.039 1.043H8.812a2.086 2.086 0 0 0-2.085 2.085v9.602h5.214v-5.336a1.04 1.04 0 0 1 1.043-1.039h16.5v13.93H34.7v-13.91h16.274c.574 0 1.043.464 1.043 1.043v5.437h5.23v-9.727a2.087 2.087 0 0 0-2.101-2.085Zm0 0"/><path style="stroke:none;fill-rule:nonzero;fill:#0078d4;fill-opacity:1" d="M23.328 0h17.129c1.043 0 1.89.848 1.89 1.89v17.13c0 1.043-.847 1.89-1.89 1.89H23.328a1.892 1.892 0 0 1-1.89-1.89V1.89c0-1.042.847-1.89 1.89-1.89Zm0 0"/><path style="stroke:none;fill-rule:nonzero;fill:#fff;fill-opacity:1" d="M26.617 4.02h10.547c.645 0 1.164.52 1.164 1.164V15.73c0 .645-.52 1.165-1.164 1.165H26.617c-.644 0-1.168-.52-1.168-1.165V5.184c0-.645.524-1.164 1.168-1.164Zm0 0"/><path style="stroke:none;fill-rule:nonzero;fill:url(#a)" d="M2.34 39.703h13.98c.856 0 1.547.695 1.547 1.547v13.98c0 .856-.691 1.547-1.547 1.547H2.34A1.545 1.545 0 0 1 .793 55.23V41.25c0-.852.691-1.547 1.547-1.547Zm0 0"/><path style="stroke:none;fill-rule:nonzero;fill:url(#b)" d="M25.098 46.926h13.98c.856 0 1.547.691 1.547 1.547v13.98c0 .856-.691 1.547-1.547 1.547h-13.98a1.548 1.548 0 0 1-1.547-1.547v-13.98c0-.856.695-1.547 1.547-1.547Zm0 0"/><path style="stroke:none;fill-rule:nonzero;fill:url(#c)" d="M47.68 39.82h13.98c.856 0 1.547.692 1.547 1.547v13.98c0 .852-.691 1.544-1.547 1.544H47.68a1.545 1.545 0 0 1-1.547-1.543v-13.98c0-.856.691-1.548 1.547-1.548Zm0 0"/></svg>