<svg width="64" height="64" xmlns="http://www.w3.org/2000/svg"><defs><linearGradient x1="0%" y1="100%" x2="100%" y2="0%" id="a"><stop stop-color="#1B660F" offset="0%"/><stop stop-color="#6CAE3E" offset="100%"/></linearGradient></defs><g fill="none" fill-rule="evenodd"><path d="M0 0h64v64H0z" fill="url(#a)"/><path d="M52 28h2V17h-2v11Zm-7 0h2V10h-2v18Zm-7 8h2V20h-2v16Zm-7 4h2V15h-2v25Zm-18.949-7h5c.496 7.473 6.476 13.453 13.949 13.949v5C20.771 51.44 12.561 43.229 12.051 33ZM24 13.664v5.653c-4.104 2.59-6.656 6.881-6.967 11.683h-4.996c.38-7.578 5.033-14.312 11.963-17.336Zm9 38.285v-5c7.805-.518 14-7.015 14-14.949h-2c0 7.168-5.832 13-13 13s-13-5.832-13-13c0-4.068 1.846-7.791 5-10.243V32h2V10.781l-1.333.471C15.895 14.353 10 22.69 10 32c0 12.131 9.869 22 22 22s22-9.869 22-22h-2c0 10.69-8.437 19.423-19 19.949Z" fill="#FFF"/></g></svg>