<svg width="64" height="64" xmlns="http://www.w3.org/2000/svg"><defs><linearGradient x1="0%" y1="100%" x2="100%" y2="0%" id="a"><stop stop-color="#1B660F" offset="0%"/><stop stop-color="#6CAE3E" offset="100%"/></linearGradient></defs><g fill="none" fill-rule="evenodd"><path d="M0 0h64v64H0z" fill="url(#a)"/><path d="M40.312 43.929a3.468 3.468 0 0 1-3.464-3.464A3.468 3.468 0 0 1 40.312 37a3.47 3.47 0 0 1 3.465 3.465 3.469 3.469 0 0 1-3.465 3.464Zm0-8.929a5.47 5.47 0 0 0-5.464 5.465 5.47 5.47 0 0 0 5.464 5.464 5.47 5.47 0 0 0 5.465-5.464A5.47 5.47 0 0 0 40.312 35Zm11.525 15.788a.644.644 0 0 1-.906.048l-4.384-3.954c.307-.297.588-.619.85-.956l4.392 3.956a.645.645 0 0 1 .048.906ZM33.355 40.465a6.965 6.965 0 0 1 6.957-6.958 6.965 6.965 0 0 1 6.958 6.958 6.965 6.965 0 0 1-6.958 6.957 6.965 6.965 0 0 1-6.957-6.957Zm19.772 7.932-4.676-4.213a8.904 8.904 0 0 0 .819-3.719c0-4.939-4.019-8.958-8.958-8.958-4.938 0-8.957 4.019-8.957 8.958s4.019 8.957 8.957 8.957a8.894 8.894 0 0 0 4.623-1.3l4.658 4.201a2.633 2.633 0 0 0 1.765.675c.723 0 1.443-.294 1.966-.872a2.647 2.647 0 0 0-.197-3.729ZM16 33.845a4.162 4.162 0 0 0 2.191-1.516l4.294 2.862C22.187 35.743 22 36.355 22 37c0 1.786 1.32 3.374 3 3.845V51h-9V33.845ZM13 30c0-1.047.954-2 2-2 1.047 0 2 .953 2 2 0 1.047-.953 2-2 2-1.046 0-2-.953-2-2Zm13 5c1.047 0 2 .953 2 2 0 1.047-.953 2-2 2-1.046 0-2-.953-2-2 0-1.047.954-2 2-2Zm11-15c1.047 0 2 .953 2 2 0 1.047-.953 2-2 2-1.046 0-2-.953-2-2 0-1.047.954-2 2-2Zm11-4c1.047 0 2 .953 2 2 0 1.047-.953 2-2 2-1.046 0-2-.953-2-2 0-1.047.954-2 2-2ZM27 40.845c1.681-.471 3-2.059 3-3.845 0-.779-.253-1.52-.674-2.15l6.373-9.103c.098.036.199.069.301.098V29h2v-3.155c1.681-.471 3-2.059 3-3.845 0-.139-.028-.272-.043-.407l3.388-2.034A4.194 4.194 0 0 0 47 21.845V31h2v-9.155c1.681-.471 3-2.059 3-3.845 0-1.787-1.319-3.374-3-3.845V12h-2v2.155c-1.487.417-2.677 1.707-2.934 3.239l-3.848 2.309A4.162 4.162 0 0 0 38 18.155V12h-2v6.155c-1.68.471-3 2.058-3 3.845 0 .983.411 1.902 1.049 2.616l-6.216 8.881a3.926 3.926 0 0 0-.833-.342V12h-2v21.155c-.416.116-.812.29-1.168.53l-4.878-3.252c.017-.144.046-.286.046-.433 0-1.787-1.319-3.374-3-3.845V12h-2v14.155c-1.68.471-3 2.058-3 3.845 0 1.786 1.32 3.374 3 3.845V53h28v-2H27V40.845Z" fill="#FFF"/></g></svg>