<svg width="64" height="64" xmlns="http://www.w3.org/2000/svg"><defs><linearGradient x1="0%" y1="100%" x2="100%" y2="0%" id="a"><stop stop-color="#1B660F" offset="0%"/><stop stop-color="#6CAE3E" offset="100%"/></linearGradient></defs><g fill="none" fill-rule="evenodd"><path d="M0 0h64v64H0z" fill="url(#a)"/><path d="m44.77 43.372-6.062-6.078-1.416 1.412 6.055 6.071-11.342 4.701-11.383-4.711 6.085-6.059-1.413-1.417-6.073 6.048-4.7-11.335 4.7-11.354 6.073 6.058 1.413-1.416-6.076-6.06 11.365-4.711 11.345 4.697-6.05 6.076 1.418 1.411 6.055-6.082 4.716 11.373-4.71 11.376ZM54 33v-2h-2.768l-4.939-11.913 2.362-2.371-1.418-1.411-2.369 2.38L33 12.772V10h-2v2.769l-11.903 4.934-2.406-2.401-1.412 1.416 2.41 2.404L12.773 31H10v2h2.769l4.919 11.865-2.409 2.399 1.412 1.417 2.395-2.385L31 51.227V54h2v-2.769l11.875-4.922 2.363 2.369 1.416-1.412-2.354-2.36L51.228 33H54Zm-22 3.28c-2.36 0-4.28-1.92-4.28-4.28 0-2.36 1.92-4.28 4.28-4.28A4.285 4.285 0 0 1 36.281 32c0 2.36-1.92 4.28-4.281 4.28Zm0-10.56A6.288 6.288 0 0 0 25.72 32 6.288 6.288 0 0 0 32 38.28 6.288 6.288 0 0 0 38.281 32 6.288 6.288 0 0 0 32 25.72Z" fill="#FFF"/></g></svg>