<svg width="64" height="64" xmlns="http://www.w3.org/2000/svg"><defs><linearGradient x1="0%" y1="100%" x2="100%" y2="0%" id="a"><stop stop-color="#1B660F" offset="0%"/><stop stop-color="#6CAE3E" offset="100%"/></linearGradient></defs><g fill="none" fill-rule="evenodd"><path d="M0 0h64v64H0z" fill="url(#a)"/><path d="m54 36.388-5.033 2.517a.903.903 0 0 1-1.211-.404l-2.516-5.034 1.614-.807 1.387 2.777c.561-1.772.856-3.615.856-5.506 0-9.884-7.871-17.925-17.546-17.925-9.675 0-17.546 8.041-17.546 17.925 0 2.423.466 4.772 1.382 6.983l-1.853.769A20.14 20.14 0 0 1 12 29.931C12 18.941 20.771 10 31.551 10c10.78 0 19.551 8.941 19.551 19.931 0 2.207-.37 4.356-1.058 6.417l3.149-1.575.807 1.615ZM31 52c-6.924 0-11.225-3.751-11.225-9.788 0-6.363 4.97-9.951 6.603-11.13L26.49 31h9.02l.112.082c1.633 1.179 6.603 4.767 6.603 11.13C42.225 48.249 37.924 52 31 52Zm5.793-22.54c-.143-.103-.255-.183-.33-.242a.998.998 0 0 0-.622-.218h-9.682a.998.998 0 0 0-.622.218c-.075.059-.187.139-.33.242-4.932 3.561-7.432 7.851-7.432 12.752C17.775 49.373 22.967 54 31 54s13.225-4.627 13.225-11.788c0-4.901-2.5-9.191-7.432-12.752ZM43 25h2a3.2 3.2 0 0 1-2.489 3.115c-.24.057-.479.085-.712.085-1.125 0-2.137-.641-2.694-1.752a.828.828 0 0 0-.071-.122c-.298.098-.918.679-1.322 1.25a1.004 1.004 0 0 1-.817.424H25v-2h11.399c.57-.697 1.641-1.777 2.833-1.682.406.03 1.161.231 1.663 1.235.328.657.806.697 1.157.616.456-.108.948-.52.948-1.169Zm-9.755 19.855c0 .866-.513 1.609-1.245 1.948v-3.762c.686.347 1.245.933 1.245 1.814ZM29 38.564c0-.765.401-1.433 1-1.813v3.499c-.575-.358-1-.904-1-1.686Zm4.245 0h2A4.144 4.144 0 0 0 32 34.518V33h-2v1.595a4.135 4.135 0 0 0-3 3.969c0 1.778 1.175 3.246 3 3.881v4.223c-.599-.38-1-1.048-1-1.813h-2a4.137 4.137 0 0 0 3 3.97V51h2v-2.099a4.144 4.144 0 0 0 3.245-4.046c0-1.858-1.28-3.375-3.245-3.959v-4.28a2.146 2.146 0 0 1 1.245 1.948Zm-5.569-17.047c.251.087.525.07.764-.047.134-.066.206-.102 2.565-2.149l2.345 2.01c.268.23.64.304.974.186l2.468-.845L35.441 23h-8.867l-1.356-2.325 2.458.842ZM26 25h10.018c.356 0 .686-.19.865-.498l2.982-5.143a1.001 1.001 0 0 0-1.189-1.448l-4.459 1.529-2.567-2.199a.997.997 0 0 0-1.306.005c-.948.824-1.993 1.728-2.548 2.199l-4.472-1.534a1.001 1.001 0 0 0-1.188 1.45l3 5.143c.179.307.509.496.864.496Z" fill="#FFF"/></g></svg>