<svg width="64" height="64" xmlns="http://www.w3.org/2000/svg"><defs><linearGradient x1="0%" y1="100%" x2="100%" y2="0%" id="a"><stop stop-color="#4D27A8" offset="0%"/><stop stop-color="#A166FF" offset="100%"/></linearGradient></defs><g fill="none" fill-rule="evenodd"><path d="M0 0h64v64H0z" fill="url(#a)"/><path d="M47 41h2v-2h-2v2Zm-16 0h-1v-2h1v-1h2v1h1v2h-1v1h-2v-1Zm20.402 10.309c-.291.297-.698.441-1.244.441-1.59 0-2.858-3.317-3.784-5.738l-.104-.269A5.955 5.955 0 0 0 52 44.459v5.104c.006.311-.09 1.229-.598 1.746Zm-21.559.441c-.546 0-.953-.145-1.245-.441-.508-.517-.604-1.436-.598-1.771v-5.079a5.965 5.965 0 0 0 5.731 1.284c-.034.091-.068.174-.103.267-.927 2.422-2.194 5.74-3.785 5.74ZM34.618 37c.84.734 1.382 1.8 1.382 3 0 2.206-1.794 4-4 4s-4-1.794-4-4 1.794-4 4-4c.732 0 1.409.212 2 .556l.618.444Zm8.194 6h-5.624A5.958 5.958 0 0 0 38 40a5.958 5.958 0 0 0-.812-3h5.624A5.958 5.958 0 0 0 42 40c0 1.093.299 2.116.812 3ZM48 36c2.206 0 4 1.794 4 4s-1.794 4-4 4-4-1.794-4-4 1.794-4 4-4Zm6 13.538L53.993 41v-.34c.005-.235 0-.319 0-.66A6 6 0 0 0 48 34a5.97 5.97 0 0 0-3.31 1h-9.38A5.97 5.97 0 0 0 32 34a6.008 6.008 0 0 0-6.002 6c0 .341-.015.529 0 .872V41L26 49.507c-.006.199-.024 1.97 1.156 3.188.669.69 1.599 1.055 2.687 1.055 2.967 0 4.394-3.733 5.653-7.026.234-.615.46-1.204.68-1.724h7.648c.221.521.447 1.111.682 1.726 1.259 3.292 2.685 7.024 5.652 7.024 1.088 0 2.018-.365 2.687-1.055 1.18-1.218 1.161-2.99 1.155-3.157Zm-37.395-8.939c1.159-.593 2.471-1.089 3.896-1.488.796 2.446 1.875 4.5 3.16 6.017a17.021 17.021 0 0 1-7.056-4.529Zm-1.298-1.567A16.873 16.873 0 0 1 12.051 30h6.974c.069 2.58.393 5.004.931 7.193-1.715.48-3.281 1.097-4.649 1.839Zm-.001-20.063c1.368.743 2.936 1.359 4.65 1.839-.538 2.188-.862 4.612-.931 7.192h-6.974a16.88 16.88 0 0 1 3.255-9.031Zm8.355-6.097c-1.285 1.517-2.364 3.571-3.16 6.017-1.424-.398-2.741-.89-3.898-1.484a17.014 17.014 0 0 1 7.058-4.533ZM29 12c2.666 0 5.074 2.949 6.536 7.357A33.154 33.154 0 0 1 29 20c-2.288 0-4.493-.229-6.537-.641C23.926 14.95 26.333 12 29 12Zm12.395 5.401c-1.159.593-2.472 1.089-3.896 1.488-.796-2.446-1.875-4.5-3.16-6.017a17.021 17.021 0 0 1 7.056 4.529Zm1.298 1.567A16.873 16.873 0 0 1 45.949 28h-6.974c-.069-2.58-.393-5.004-.931-7.193 1.715-.48 3.281-1.097 4.649-1.839ZM21.024 28c.07-2.394.38-4.67.887-6.718A35.03 35.03 0 0 0 29 22a35.08 35.08 0 0 0 7.089-.719c.507 2.048.817 4.325.887 6.719H21.024ZM24 42.14c-.583-1.013-1.102-2.189-1.536-3.497a31.465 31.465 0 0 1 1.536-.27v-2.011c-.709.101-1.409.216-2.089.357-.507-2.048-.817-4.325-.887-6.719h15.952c-.02.678-.064 1.343-.122 2h2.012c.053-.655.09-1.321.109-2h6.974c-.04.68-.13 1.345-.247 2h2.037c.157-.979.261-1.977.261-3 0-10.477-8.523-19-19-19s-19 8.523-19 19c0 8.744 5.945 16.107 14 18.31v-5.17Z" fill="#FFF"/></g></svg>