<svg width="64" height="64" xmlns="http://www.w3.org/2000/svg"><defs><linearGradient x1="0%" y1="100%" x2="100%" y2="0%" id="a"><stop stop-color="#4D27A8" offset="0%"/><stop stop-color="#A166FF" offset="100%"/></linearGradient></defs><g fill="none" fill-rule="evenodd"><path d="M0 0h64v64H0z" fill="url(#a)"/><path d="M32 22c5.514 0 10 4.486 10 10h2c0-6.617-5.383-12-12-12s-12 5.383-12 12a11.89 11.89 0 0 0 3.764 8.727l1.373-1.454A9.91 9.91 0 0 1 22 32c0-5.514 4.486-10 10-10Zm14.5 19.5h3v-3h-3v3ZM31 42h2v-1h1v-2h-1v-1h-2v1h-1v2h1v1Zm21.001 7.813L52 44.459a5.965 5.965 0 0 1-6.237 1.104l.008.02C46.833 48.139 48.436 52 50.158 52c.546 0 .953-.145 1.245-.441.508-.517.604-1.436.598-1.746Zm-17.773-4.229.008-.021A5.963 5.963 0 0 1 32 46a5.971 5.971 0 0 1-4-1.54l.001 5.328c-.006.336.09 1.254.598 1.771.291.297.698.441 1.244.441 1.721 0 3.324-3.861 4.385-6.416ZM28 40c0 2.206 1.794 4 4 4s4-1.794 4-4-1.794-4-4-4-4 1.794-4 4Zm14 0c0-1.093.299-2.116.812-3h-5.624c.513.884.812 1.907.812 3a5.958 5.958 0 0 1-.812 3h5.624A5.958 5.958 0 0 1 42 40Zm2 0c0 2.206 1.794 4 4 4s4-1.794 4-4-1.794-4-4-4-4 1.794-4 4Zm10.001 9.788c.006.168.024 1.939-1.156 3.157-.669.69-1.599 1.055-2.687 1.055-3.057 0-4.818-4.242-6.233-7.65-.199-.478-.388-.935-.57-1.35h-6.71c-.182.415-.372.872-.57 1.352C34.66 49.759 32.9 54 29.843 54c-1.088 0-2.018-.365-2.687-1.055-1.18-1.218-1.161-2.99-1.155-3.188L26 40c0-3.309 2.691-6 6-6 1.223 0 2.36.369 3.31 1h9.38c.95-.631 2.087-1 3.31-1 3.309 0 6 2.691 6 6l.001 9.788Zm-32.325-3.254 1.492 1.331-2.319 2.601a.998.998 0 0 1-.718.334l-.028.001a.997.997 0 0 1-.707-.293l-5.903-5.903a1 1 0 0 1 .041-1.453l1.983-1.768a18.75 18.75 0 0 1-1.805-4.363l-2.655.151A1 1 0 0 1 10 36.174v-8.348a1 1 0 0 1 1.057-.998l2.663.151a18.762 18.762 0 0 1 1.807-4.353l-1.993-1.778a1.002 1.002 0 0 1-.041-1.453l5.903-5.902a1.002 1.002 0 0 1 1.453.041l1.777 1.992a18.804 18.804 0 0 1 4.354-1.802l-.151-2.667a.995.995 0 0 1 .272-.744.996.996 0 0 1 .726-.313h8.347a1 1 0 0 1 .998 1.057l-.151 2.67c1.52.416 2.978 1.02 4.35 1.803l1.781-1.996c.184-.205.443-.326.718-.334a.968.968 0 0 1 .735.293l5.903 5.902a1 1 0 0 1-.041 1.453l-1.99 1.776a18.799 18.799 0 0 1 1.806 4.355l2.66-.151a1 1 0 0 1 1.057.998V34h-2v-5.115l-2.43.138c-.467.016-.924-.3-1.032-.777a16.83 16.83 0 0 0-2.19-5.284 1 1 0 0 1 .179-1.28l1.818-1.621-4.406-4.406-1.626 1.824c-.326.364-.87.44-1.28.18a16.823 16.823 0 0 0-5.279-2.188.998.998 0 0 1-.777-1.033L35.115 12h-6.229l.137 2.437a.998.998 0 0 1-.777 1.032 16.848 16.848 0 0 0-5.282 2.186 1 1 0 0 1-1.279-.18l-1.623-1.82-4.407 4.406 1.822 1.625a1 1 0 0 1 .179 1.28 16.82 16.82 0 0 0-2.192 5.28c-.109.477-.586.793-1.032.777L12 28.885v6.23l2.425-.138c.453-.029.924.3 1.032.778a16.823 16.823 0 0 0 2.189 5.291 1 1 0 0 1-.18 1.279l-1.81 1.615 4.405 4.405 1.615-1.811Z" fill="#FFF"/></g></svg>