<svg width="64" height="64" xmlns="http://www.w3.org/2000/svg"><defs><linearGradient x1="0%" y1="100%" x2="100%" y2="0%" id="a"><stop stop-color="#BD0816" offset="0%"/><stop stop-color="#FF5252" offset="100%"/></linearGradient></defs><g fill="none" fill-rule="evenodd"><path d="M0 0h64v64H0z" fill="url(#a)"/><path d="M32 10c-12.131 0-22 9.869-22 22 0 9.802 6.888 18.424 16.75 20.968l.5-1.936C18.271 48.715 12 40.889 12 32c0-11.028 8.972-20 20-20s20 8.972 20 20c0 9.777-4.953 16.891-13.25 19.032l.5 1.936C48.348 50.621 54 42.586 54 32c0-12.131-9.869-22-22-22Zm-6 14h7v-2h-7v2Zm0 12h9v-2h-9v2Zm0-4h5v-2h-5v2Zm0-4h14v-2H26v2Zm11-4a1 1 0 0 1-1-1v-5.042H24V40h18V24h-5Zm1-2h2.586L38 19.414V22Zm-1-6.042c.26.001.516.144.707.335l6 6a.996.996 0 0 1 .284.707H44v18a1 1 0 0 1-1 1H23a1 1 0 0 1-1-1V16.958a1 1 0 0 1 1-1h14Zm1.707 32.749-5 5a.997.997 0 0 1-1.414 0l-5-5A1 1 0 0 1 28 47h2v-3h2v4a1 1 0 0 1-1 1h-.586L33 51.586 35.586 49H35a1 1 0 0 1-1-1v-4h2v3h2a1 1 0 0 1 .707 1.707Z" fill="#FFF"/></g></svg>