<svg width="64" height="64" xmlns="http://www.w3.org/2000/svg"><defs><linearGradient x1="0%" y1="100%" x2="100%" y2="0%" id="a"><stop stop-color="#BD0816" offset="0%"/><stop stop-color="#FF5252" offset="100%"/></linearGradient></defs><g fill="none" fill-rule="evenodd"><path d="M0 0h64v64H0z" fill="url(#a)"/><path d="m49.707 41.293-1.414 1.414L50.586 45H43v2h7.586l-2.293 2.293 1.414 1.414 4-4a.999.999 0 0 0 0-1.414l-4-4ZM29 47h7.586l-2.293 2.293 1.414 1.414 4-4a.999.999 0 0 0 0-1.414l-4-4-1.414 1.414L36.586 45H29v2Zm-7.293 3.707 4-4a.999.999 0 0 0 0-1.414l-4-4-1.414 1.414L22.586 45H15v2h7.586l-2.293 2.293 1.414 1.414ZM15 37h14v-2H15v2Zm0-9h14v-2H15v2Zm19 0h4v-2h-4v2Zm5-4a1 1 0 0 1 1 1v4a1 1 0 0 1-1 1h-6a1 1 0 0 1-1-1v-4a1 1 0 0 1 1-1h6Zm-5 13h18v-2H34v2Zm20-3v4a1 1 0 0 1-1 1H33a1 1 0 0 1-1-1v-4a1 1 0 0 1 1-1h20a1 1 0 0 1 1 1ZM38 17h3.586L38 13.414V17Zm5 33h2v3a1 1 0 0 1-1 1H11a1 1 0 0 1-1-1V11a1 1 0 0 1 1-1h26c.266 0 .519.106.707.293l7 7A1 1 0 0 1 45 18v13h-2V19h-6a1 1 0 0 1-1-1v-6H12v40h31v-2ZM22 23a.997.997 0 0 1-.707-.293l-3-3 1.414-1.414L22 20.586l5.293-5.293 1.414 1.414-6 6A.997.997 0 0 1 22 23Z" fill="#FFF"/></g></svg>