<svg width="64" height="64" xmlns="http://www.w3.org/2000/svg"><defs><linearGradient x1="0%" y1="100%" x2="100%" y2="0%" id="a"><stop stop-color="#BD0816" offset="0%"/><stop stop-color="#FF5252" offset="100%"/></linearGradient></defs><g fill="none" fill-rule="evenodd"><path d="M0 0h64v64H0z" fill="url(#a)"/><path d="M28.722 30.981a1 1 0 0 1 .261.877l-.589 3.14 3.092-1.855a.99.99 0 0 1 1.029 0l3.093 1.855-.59-3.146a.996.996 0 0 1 .261-.876l2.661-2.779-3.585-.532a1.004 1.004 0 0 1-.736-.518l-1.627-3.043-1.667 3.054c-.15.274-.419.463-.729.51l-3.539.536 2.665 2.777Zm-2.704 5.834.904-4.82-3.643-3.798a.999.999 0 0 1 .572-1.681l4.955-.752 2.316-4.243c.176-.321.513-.521.878-.521h.004c.367.002.704.205.878.528l2.264 4.232 5.001.743a1 1 0 0 1 .575 1.681l-3.645 3.804.906 4.828a.999.999 0 0 1-1.497 1.041L32 35.166l-4.485 2.691a.994.994 0 0 1-1.086-.036 1 1 0 0 1-.411-1.006ZM12 17.017h39.997V13H12v4.017ZM54 52a.997.997 0 0 1-1 1h-5v-2h4l-.002-31.983H12V51h29v2H11a1 1 0 0 1-1-1V12a1 1 0 0 1 1-1h41.997a1 1 0 0 1 1 1L54 52Zm-35-5h5v-2h-5v2Zm8 0h11v-2H27v2Zm-8-4.003h5v-2h-5v2ZM27 43h18v-2H27v2Z" fill="#FFF"/></g></svg>