<svg width="64" height="64" xmlns="http://www.w3.org/2000/svg"><defs><linearGradient x1="0%" y1="100%" x2="100%" y2="0%" id="a"><stop stop-color="#BD0816" offset="0%"/><stop stop-color="#FF5252" offset="100%"/></linearGradient></defs><g fill="none" fill-rule="evenodd"><path d="M0 0h64v64H0z" fill="url(#a)"/><path d="M30 30c-1.732 0-3.038-1.29-3.038-3s1.306-3 3.038-3c1.71 0 3 1.29 3 3s-1.29 3-3 3Zm12-4h-7.098c-.451-2.309-2.442-4-4.902-4-2.825 0-5.038 2.196-5.038 5s2.213 5 5.038 5c2.46 0 4.451-1.691 4.902-4H42v-2Zm-20 1c0 4.411 3.589 8 8 8 3.883 0 6.188-2.747 7.052-5.318l1.896.636C37.585 34.377 34.072 37 30 37c-5.514 0-10-4.486-10-10s4.486-10 10-10c4.072 0 7.585 2.623 8.948 6.682l-1.896.636C36.188 21.747 33.883 19 30 19c-4.411 0-8 3.589-8 8Zm-10 8h2v-3h-2v3Zm0-13h2v-3h-2v3Zm4 14V12h28v21h2V12c0-1.551-.432-2-1.925-2H16c-1.552 0-2 .449-2 2v5h-3a1 1 0 0 0-1 1v5a1 1 0 0 0 1 1h3v6h-3a1 1 0 0 0-1 1v5a1 1 0 0 0 1 1h3v5c0 1.309.691 2 2 2h16v-2H16v-6Zm36 16h-1.586l-.707-.707A.996.996 0 0 0 49 51h-1v-1a.997.997 0 0 0-.293-.707l-1-1A.996.996 0 0 0 46 48h-1v-1.038a.995.995 0 0 0-.31-.723l-1.211-1.157a1.001 1.001 0 0 0-1.151-.234 4.298 4.298 0 0 1-6.066-3.912 4.299 4.299 0 0 1 4.294-4.294 4.299 4.299 0 0 1 4.294 4.294c0 .77-.104 1.389-.308 1.84a1 1 0 0 0 .241 1.155L52 50.444V52Zm1.67-2.742-7.054-6.367c.155-.57.234-1.224.234-1.955a6.301 6.301 0 0 0-6.294-6.294 6.3 6.3 0 0 0-6.294 6.294 6.3 6.3 0 0 0 8.247 5.985l.491.469V49a1 1 0 0 0 1 1h1.586l.414.414V52a1 1 0 0 0 1 1h1.586l.707.707A.996.996 0 0 0 50 54h3a1 1 0 0 0 1-1v-3a.999.999 0 0 0-.33-.742Zm-13.179-7.734a.52.52 0 1 1 0-1.04.52.52 0 0 1 0 1.04Zm0-3.041a2.524 2.524 0 0 0-2.52 2.521c0 1.39 1.131 2.52 2.52 2.52 1.39 0 2.521-1.13 2.521-2.52a2.524 2.524 0 0 0-2.521-2.521Z" fill="#FFF"/></g></svg>