<svg width="64" height="64" xmlns="http://www.w3.org/2000/svg"><defs><linearGradient x1="0%" y1="100%" x2="100%" y2="0%" id="a"><stop stop-color="#BD0816" offset="0%"/><stop stop-color="#FF5252" offset="100%"/></linearGradient></defs><g fill="none" fill-rule="evenodd"><path d="M0 0h64v64H0z" fill="url(#a)"/><path d="M48.385 21.006v-5.303c0-.922-.618-1.702-1.35-1.702H13.37c-.733 0-1.35.78-1.35 1.702v5.303h15.151v-4.002c0-.553.452-1.001 1.01-1.001h17.173c.558 0 1.01.448 1.01 1v4.003h2.02Zm-4.04-3.002H29.193v12.384a8.608 8.608 0 0 1 4.533-3.985 4.423 4.423 0 0 1-.954-2.737c0-2.467 2.039-4.474 4.546-4.474 2.506 0 4.546 2.007 4.546 4.474a4.415 4.415 0 0 1-1.08 2.88 8.726 8.726 0 0 1 3.56 2.845V18.004Zm-4.502 5.662c0-1.364-1.132-2.472-2.525-2.472s-2.525 1.108-2.525 2.472c0 .897.498 1.723 1.3 2.158a2.587 2.587 0 0 0 2.445-.001 2.455 2.455 0 0 0 1.305-2.157Zm8.543 9.349V23.008h-2.021v7.005h-1.713l-1.646.985a6.692 6.692 0 0 0-3.755-2.894 5.42 5.42 0 0 1-4.336 0 6.581 6.581 0 0 0-4.68 5.912h6.029v2.001h-8.082c-.558 0-1.01-.448-1.01-1v-12.01H12.02v14.31c0 .923.618 1.702 1.35 1.702h19.863v2.002H13.371c-1.859 0-3.371-1.662-3.371-3.703V15.703C10 13.66 11.512 12 13.37 12h33.665c1.858 0 3.37 1.661 3.37 3.703v17.312h-2.019Zm-5.08 13.979 5.626-5.574-1.429-1.415-4.912 4.866-2.115-2.095-1.429 1.415 2.83 2.803a1.014 1.014 0 0 0 1.428 0Zm2.011-11.031a7.578 7.578 0 0 1 5.833 4.057c.69 1.34.957 2.843.773 4.344a7.483 7.483 0 0 1-1.765 3.997 7.654 7.654 0 0 1-2.526 1.918 7.559 7.559 0 0 1-4.143.665 7.582 7.582 0 0 1-3.78-1.567 7.484 7.484 0 0 1-2.825-6.834 7.55 7.55 0 0 1 4.064-5.806 7.546 7.546 0 0 1 4.37-.774Zm3.181 16.124a9.695 9.695 0 0 0 3.196-2.426 9.478 9.478 0 0 0 2.235-5.056 9.457 9.457 0 0 0-.98-5.495 9.594 9.594 0 0 0-7.387-5.133 9.57 9.57 0 0 0-5.542.983 9.548 9.548 0 0 0-5.142 7.341c-.406 3.329.93 6.56 3.574 8.643A9.606 9.606 0 0 0 44.41 53c1.413 0 2.807-.31 4.088-.913ZM21.111 33.015h3.03v-2.002h-3.03v2.002Zm-7.07 0h6.06v-2.002h-6.06v2.002Zm0-5.004h9.09V26.01h-9.09v2.001Z" fill="#FFF"/></g></svg>