<svg width="64" height="64" xmlns="http://www.w3.org/2000/svg"><defs><linearGradient x1="0%" y1="100%" x2="100%" y2="0%" id="a"><stop stop-color="#BD0816" offset="0%"/><stop stop-color="#FF5252" offset="100%"/></linearGradient></defs><g fill="none" fill-rule="evenodd"><path d="M0 0h64v64H0z" fill="url(#a)"/><path d="M21.806 21.954c1.474.39 3.214.97 5.011 1.569 2.74.913 5.845 1.949 7.183 1.949s4.444-1.036 7.184-1.949c1.797-.599 3.537-1.179 5.011-1.569l-2.297-1.377c-1.848.681-7.995 2.895-9.898 2.895-1.902 0-8.049-2.214-9.897-2.895l-2.297 1.377Zm3.576-3.039c3.074 1.117 7.434 2.557 8.618 2.557 1.183 0 5.53-1.436 8.603-2.552l-3.756-6.77c-.084-.132-.319-.188-.497-.081l-3.123 1.874a2.38 2.38 0 0 1-2.453 0l-3.123-1.874c-.192-.114-.452-.067-.606-.001l-3.663 6.847Zm16.531 6.473a5.397 5.397 0 0 1-.096.032c-3.165 1.055-6.155 2.052-7.817 2.052s-4.651-.997-7.816-2.052a5.465 5.465 0 0 1-.097-.032c.635 3.924 4.939 10.084 7.913 10.084 2.975 0 7.279-6.16 7.913-10.084Zm-23.877-2.649a1 1 0 0 1 .45-1.125l4.689-2.814 4.223-7.893c.056-.105.131-.2.22-.279.692-.608 2-.911 3.062-.274l3.123 1.874a.384.384 0 0 0 .395 0l3.123-1.874a2.396 2.396 0 0 1 3.248.78l4.253 7.664 4.693 2.816A1 1 0 0 1 49 23.472c-.991 0-2.952.568-5.015 1.234-.17 4.57-5.36 12.766-9.985 12.766-4.625 0-9.814-8.196-9.984-12.766-2.064-.666-4.024-1.234-5.016-1.234-.449 0-.843-.3-.964-.733Zm29.387 15.727.287-.287a.998.998 0 0 0-.107-1.508l-4.003-3-1.199 1.601 3.08 2.308-.438.437-.043-.002v.045l-5.707 5.705a1 1 0 0 0 0 1.414l2.355 2.354-4.416 5.298 1.537 1.281 5-6a.998.998 0 0 0-.062-1.347l-2.293-2.293 4.38-4.378c3.099.543 6.206 4.104 6.206 7.378v6.906h2v-6.906c0-3.829-3.035-7.713-6.577-9.006ZM29.774 51.044l-4.688-4.709a8.47 8.47 0 0 1-1.215 1.217l4.698 4.695c.312.312.837.297 1.169-.035.332-.332.347-.856.036-1.168ZM18.5 47.472c3.584 0 6.5-2.916 6.5-6.5s-2.916-6.5-6.5-6.5a6.508 6.508 0 0 0-6.5 6.5c0 3.584 2.916 6.5 6.5 6.5Zm12.692 2.161c1.088 1.092 1.07 2.884-.04 3.993a2.867 2.867 0 0 1-2.031.844 2.77 2.77 0 0 1-1.966-.808l-5.02-5.019a8.42 8.42 0 0 1-3.635.829c-4.686 0-8.5-3.813-8.5-8.5 0-4.687 3.814-8.5 8.5-8.5 4.687 0 8.5 3.813 8.5 8.5 0 1.297-.3 2.523-.822 3.624l5.014 5.037Zm7.101-11.868L34 42.058l-4.293-4.293-1.414 1.414 5 5a.999.999 0 0 0 1.414 0l5-5-1.414-1.414ZM46 54.379h2v-5.907h-2v5.907Z" fill="#FFF"/></g></svg>