<svg width="64" height="64" xmlns="http://www.w3.org/2000/svg"><defs><linearGradient x1="0%" y1="100%" x2="100%" y2="0%" id="a"><stop stop-color="#BD0816" offset="0%"/><stop stop-color="#FF5252" offset="100%"/></linearGradient></defs><g fill="none" fill-rule="evenodd"><path d="M0 0h64v64H0z" fill="url(#a)"/><path d="M27 42h3v-2h-3v2Zm-7 0h6v-2h-6v2Zm0-4h9v-2h-9v2Zm32 9V32h-1v11a1 1 0 0 1-1 1H34a1 1 0 0 1-1-1V32H18v15h34Zm-15.929-5h11.831c-.443-2.359-2.409-4.093-4.466-4.764a4.721 4.721 0 0 1-3.54.02c-2.113.701-3.513 2.437-3.825 4.744Zm6.894-6.747a2.676 2.676 0 0 0 1.408-2.35c0-1.486-1.223-2.694-2.725-2.694s-2.723 1.208-2.723 2.694c0 .977.537 1.878 1.402 2.351a2.768 2.768 0 0 0 2.638-.001ZM49 27H35v11.914a7.409 7.409 0 0 1 3.025-3.013 4.664 4.664 0 0 1-1.1-2.998c0-2.588 2.119-4.694 4.723-4.694 2.606 0 4.725 2.106 4.725 4.694a4.652 4.652 0 0 1-1.054 2.943c1.586.779 2.865 1.979 3.681 3.42V27Zm-31-4v7h15v-4a1 1 0 0 1 1-1h16a1 1 0 0 1 1 1v4h1v-7H18Zm36-1v26a1 1 0 0 1-1 1H17a1 1 0 0 1-1-1V22a1 1 0 0 1 1-1h36a1 1 0 0 1 1 1ZM13 42h1v2h-2a1 1 0 0 1-1-1V17a1 1 0 0 1 1-1h37a1 1 0 0 1 1 1v2h-2v-1H13v24Z" fill="#FFF"/></g></svg>