<svg width="64" height="64" xmlns="http://www.w3.org/2000/svg"><defs><linearGradient x1="0%" y1="100%" x2="100%" y2="0%" id="a"><stop stop-color="#BD0816" offset="0%"/><stop stop-color="#FF5252" offset="100%"/></linearGradient></defs><g fill="none" fill-rule="evenodd"><path d="M0 0h64v64H0z" fill="url(#a)"/><path d="M12 47h40V18H12v29Zm42-30v31a1 1 0 0 1-1 1H11a1 1 0 0 1-1-1V17a1 1 0 0 1 1-1h42a1 1 0 0 1 1 1ZM35 39h12v-2H35v2Zm10-4h4v-2h-4v2Zm-10 0h6v-2h-6v2Zm-12.5 2.5a.5.5 0 1 0 1.002-.002.5.5 0 0 0-1.002.002Zm3 0a2.501 2.501 0 0 1-1.5 2.288V42h-2v-2.212a2.501 2.501 0 0 1-1.5-2.288c0-1.378 1.121-2.5 2.5-2.5s2.5 1.122 2.5 2.5ZM16 42.995 29.995 43l.001-2H27v-2h2.997l.001-2H27v-2h2.999L30 33.005 16.005 33 16 42.995Zm2-11.994 10.001.003.001-5.004c0-1.024-.802-1.727-1.28-2.055-.875-.6-2.548-.945-3.72-.945H23c-2.127 0-4.997 1.232-4.998 3L18 31.001Zm-3.707 13.7a1 1 0 0 1-.293-.707L14.005 32a1 1 0 0 1 1-1H16l.002-5c.001-3.089 3.874-5 6.998-5h.002c1.565 0 3.651.473 4.852 1.295 1.385.951 2.149 2.267 2.148 3.705l-.001 5.005.999.001a1 1 0 0 1 1 1L31.995 44a1 1 0 0 1-1 1L15 44.994a.996.996 0 0 1-.707-.293ZM47 30h2v-2h-2v2Zm-12 0h9v-2h-9v2Z" fill="#FFF"/></g></svg>