<svg width="64" height="64" xmlns="http://www.w3.org/2000/svg"><defs><linearGradient x1="0%" y1="100%" x2="100%" y2="0%" id="a"><stop stop-color="#BD0816" offset="0%"/><stop stop-color="#FF5252" offset="100%"/></linearGradient></defs><g fill="none" fill-rule="evenodd"><path d="M0 0h64v64H0z" fill="url(#a)"/><path d="M30.465 32.95c0 1.641-1.324 2.976-2.954 2.976-1.63 0-2.955-1.335-2.955-2.975 0-1.64 1.324-2.976 2.955-2.976 1.63 0 2.954 1.335 2.954 2.976m-1.373-8.071c-.839 0-1.52-.687-1.52-1.531 0-.844.681-1.531 1.52-1.531.838 0 1.519.687 1.519 1.531 0 .844-.68 1.53-1.52 1.53m-1.278 14.598c-5.775 0-10.473-4.732-10.473-10.547s4.698-10.547 10.473-10.547 10.472 4.732 10.472 10.547c0 1.43-.286 2.793-.801 4.039l-5.014-.734a5.05 5.05 0 0 0-2.34-3.589v-1.848a3.61 3.61 0 0 0 2.558-3.449c0-1.996-1.614-3.62-3.596-3.62-1.983 0-3.597 1.624-3.597 3.62a3.61 3.61 0 0 0 2.559 3.449v1.143c-.181-.02-.357-.056-.543-.056a4.997 4.997 0 0 0-3.586 1.521l-.772-.79a4.771 4.771 0 0 0-1.442-6.563l-1.078 1.692a2.761 2.761 0 0 1 1.265 2.33c0 1.527-1.234 2.77-2.753 2.77v2.011c.939 0 1.807-.284 2.544-.758l1.109 1.135a5.033 5.033 0 0 0-.318 1.718c0 2.793 2.257 5.066 5.03 5.066 2.298 0 4.22-1.569 4.819-3.691l4.09.6c-1.893 2.745-5.042 4.55-8.606 4.55m0-23.183c-6.92 0-12.55 5.669-12.55 12.637 0 6.968 5.63 12.637 12.55 12.637 6.919 0 12.549-5.669 12.549-12.637 0-6.968-5.63-12.637-12.549-12.637m23.548 33.883a2.214 2.214 0 0 1-3.131.165l-9.464-8.595a16.992 16.992 0 0 0 2.953-3.317l9.477 8.595c.906.824.979 2.24.165 3.152M13.076 28.93c0-8.183 6.61-14.84 14.737-14.84 8.125 0 14.735 6.657 14.735 14.84s-6.61 14.84-14.735 14.84c-8.126 0-14.737-6.657-14.737-14.84m39.51 16.543-9.798-8.887a16.91 16.91 0 0 0 1.837-7.656c0-9.336-7.543-16.93-16.812-16.93C18.543 12 11 19.594 11 28.93c0 9.335 7.543 16.93 16.813 16.93a16.63 16.63 0 0 0 9.276-2.824l9.752 8.86a4.287 4.287 0 0 0 6.062-.32 4.356 4.356 0 0 0-.317-6.103" fill="#FFF"/></g></svg>