<svg width="64" height="64" xmlns="http://www.w3.org/2000/svg"><defs><linearGradient x1="0%" y1="100%" x2="100%" y2="0%" id="a"><stop stop-color="#BD0816" offset="0%"/><stop stop-color="#FF5252" offset="100%"/></linearGradient></defs><g fill="none" fill-rule="evenodd"><path d="M0 0h64v64H0z" fill="url(#a)"/><path d="M26.071 47.571a.571.571 0 1 0-1.143 0 .571.571 0 0 0 1.143 0Zm2 0a2.574 2.574 0 0 1-2.571 2.572 2.575 2.575 0 0 1-2.572-2.572A2.574 2.574 0 0 1 25.5 45a2.573 2.573 0 0 1 2.571 2.571ZM42.586 48l-1-1H30.772a1 1 0 0 1-.958-.715 4.529 4.529 0 0 0-4.314-3.214 4.505 4.505 0 0 0-4.5 4.5c0 2.481 2.018 4.5 4.5 4.5 1.776 0 3.335-.958 4.067-2.5A1 1 0 0 1 30.47 49h2.101c.257 0 .505.099.69.277l.881.84.881-.84a1 1 0 0 1 .691-.277h1.572c.257 0 .505.099.69.277l.881.84.881-.84a1 1 0 0 1 .69-.277h1.158l1-1Zm2.121-.707a1 1 0 0 1 0 1.414l-2 2A1.003 1.003 0 0 1 42 51h-1.171l-1.281 1.223a1 1 0 0 1-1.381 0L36.885 51h-.771l-1.281 1.223a1 1 0 0 1-1.381 0L32.171 51h-1.105c-1.157 1.909-3.234 3.071-5.566 3.071a6.508 6.508 0 0 1-6.5-6.5c0-3.584 2.916-6.5 6.5-6.5 2.598 0 4.955 1.583 5.97 3.929H42a1 1 0 0 1 .707.293l2 2Zm-7.228-26.847L42 24.636l4.52-4.186-4.52-4.1-4.521 4.096Zm3.841 6.287-6-5.562a.999.999 0 0 1 .008-1.475l6-5.438a1.002 1.002 0 0 1 1.344.001l6 5.443a.996.996 0 0 1 .007 1.474l-6 5.558a.997.997 0 0 1-1.359-.001ZM26.899 23 22.5 17.586 18.1 23h8.799ZM29 25H16a1.001 1.001 0 0 1-.777-1.631l6.5-8c.381-.467 1.172-.467 1.553 0l6.5 8A1.002 1.002 0 0 1 29 25Zm-11 9c0 2.205 1.794 4 4 4s4-1.795 4-4c0-2.206-1.794-4-4-4s-4 1.794-4 4Zm-2 0c0-3.309 2.691-6 6-6 3.308 0 6 2.691 6 6 0 3.308-2.692 6-6 6-3.309 0-6-2.692-6-6Zm22 4h7v-7h-7v7Zm9 1a1 1 0 0 1-1 1h-9a1 1 0 0 1-1-1v-9a1 1 0 0 1 1-1h9a1 1 0 0 1 1 1v9Zm7-28v39a1 1 0 0 1-1 1h-6v-2h5V12H12v37h5v2h-6a1 1 0 0 1-1-1V11a1 1 0 0 1 1-1h42a1 1 0 0 1 1 1Z" fill="#FFF"/></g></svg>