<svg width="64" height="64" xmlns="http://www.w3.org/2000/svg"><defs><linearGradient x1="0%" y1="100%" x2="100%" y2="0%" id="a"><stop stop-color="#BD0816" offset="0%"/><stop stop-color="#FF5252" offset="100%"/></linearGradient></defs><g fill="none" fill-rule="evenodd"><path d="M0 0h64v64H0z" fill="url(#a)"/><path d="M36.626 41.697a1.12 1.12 0 1 0-.318-1.55c-.34.515-.198 1.21.318 1.55Zm10.343-5.682-8.836-5.827L30 36.441v13.297l4.782-7.079a3.115 3.115 0 0 1-.144-3.613 3.123 3.123 0 0 1 4.321-.888 3.124 3.124 0 0 1 .888 4.322 3.122 3.122 0 0 1-2.61 1.401c-.265 0-.532-.039-.794-.108l-4.748 7.029 12.379-5.142 2.895-9.645Zm2.069.064-3.184 10.61a1.002 1.002 0 0 1-.575.636l-15.895 6.603c-.082.034-.169.04-.255.051l-1 .026H10v-2h18V35.948a1 1 0 0 1 .391-.793l8.899-6.842 4.639-8.969 1.777.919-4.321 8.355 8.552 5.64 4.502-5.602 1.558 1.253-4.959 6.17Zm-.5-25.16L46.761 10l-3.956 7.651 1.777.919 3.956-7.651ZM20.061 26.435h.001a.999.999 0 0 0 .723-.311l6.615-6.953-1.449-1.379-5.891 6.193-2.587-2.713-1.448 1.38 3.312 3.473c.188.198.45.31.724.31ZM12 22.005c0 .73.52 1.364 1.234 1.507a1 1 0 0 1 .769.714c.184.664.447 1.299.783 1.887.182.317.175.708-.015 1.02-.155.25-.233.518-.233.794a1.54 1.54 0 0 0 1.539 1.539c.278 0 .546-.078.795-.231a.995.995 0 0 1 1.02-.016 8.184 8.184 0 0 0 1.886.782 1 1 0 0 1 .714.768A1.543 1.543 0 0 0 22 32.005c.73 0 1.364-.52 1.508-1.236a1 1 0 0 1 .714-.768 8.166 8.166 0 0 0 1.886-.782.998.998 0 0 1 1.02.016c.249.153.517.231.795.231a1.54 1.54 0 0 0 1.539-1.539 1.5 1.5 0 0 0-.232-.794 1 1 0 0 1-.016-1.02c.336-.588.6-1.223.783-1.887.101-.364.399-.64.769-.714A1.541 1.541 0 0 0 32 22.005c0-.731-.52-1.365-1.234-1.508a.999.999 0 0 1-.769-.714 8.194 8.194 0 0 0-.783-1.887.998.998 0 0 1 .016-1.019c.154-.251.232-.518.232-.795a1.54 1.54 0 0 0-1.539-1.539c-.278 0-.546.078-.795.231a1.002 1.002 0 0 1-1.02.016 8.166 8.166 0 0 0-1.886-.782 1 1 0 0 1-.714-.768A1.542 1.542 0 0 0 22 12.005c-.73 0-1.364.519-1.508 1.235a1 1 0 0 1-.714.768 8.184 8.184 0 0 0-1.886.782c-.32.181-.709.175-1.02-.016a1.503 1.503 0 0 0-.795-.231c-.848 0-1.539.691-1.539 1.539 0 .277.078.544.233.795a1 1 0 0 1 .015 1.019 8.239 8.239 0 0 0-.783 1.887.998.998 0 0 1-.769.714A1.542 1.542 0 0 0 12 22.005Zm-2 0c0-1.468.911-2.766 2.239-3.291.155-.458.339-.903.554-1.331a3.473 3.473 0 0 1-.255-1.301 3.544 3.544 0 0 1 3.539-3.539c.445 0 .886.087 1.301.254a10.48 10.48 0 0 1 1.331-.553A3.548 3.548 0 0 1 22 10.005c1.468 0 2.766.911 3.291 2.239.457.154.902.339 1.331.553a3.488 3.488 0 0 1 1.301-.254 3.544 3.544 0 0 1 3.539 3.539c0 .444-.087.885-.255 1.301.215.428.399.873.554 1.331A3.548 3.548 0 0 1 34 22.005a3.547 3.547 0 0 1-2.239 3.29c-.155.458-.339.903-.554 1.331.168.416.255.857.255 1.301a3.543 3.543 0 0 1-3.539 3.539c-.444 0-.886-.087-1.301-.254-.429.214-.874.4-1.331.553A3.55 3.55 0 0 1 22 34.005a3.55 3.55 0 0 1-3.291-2.24 10.336 10.336 0 0 1-1.331-.553 3.484 3.484 0 0 1-1.301.254 3.543 3.543 0 0 1-3.539-3.539c0-.444.087-.885.255-1.301a10.365 10.365 0 0 1-.554-1.331A3.547 3.547 0 0 1 10 22.005Zm8 11v8.424l3.293-3.293a1 1 0 0 1 1.414 0l3.833 3.828-1.414 1.415-3.125-3.122-4.294 4.294A1 1 0 0 1 16 43.843V33.005h2Z" fill="#FFF"/></g></svg>