<svg width="64" height="64" xmlns="http://www.w3.org/2000/svg"><defs><linearGradient x1="0%" y1="100%" x2="100%" y2="0%" id="a"><stop stop-color="#BD0816" offset="0%"/><stop stop-color="#FF5252" offset="100%"/></linearGradient></defs><g fill="none" fill-rule="evenodd"><path d="M0 0h64v64H0z" fill="url(#a)"/><path d="M26.929 40.397a18.593 18.593 0 0 0 3.04 1.692c-.477-2.376-.794-6.487 1.343-10.418 1.593-2.928 1.856-6.254.688-8.681a5.903 5.903 0 0 0-1.922-2.292c.762 1.759 1.19 4.299.038 7.572a1 1 0 0 1-1.825.142c-.331-.616-1.242-2.004-2.283-2.833.408 1.876.667 4.683-.673 6.788a7.583 7.583 0 0 0-.201.334c-1.47 2.589-.682 5.97 1.795 7.696Zm7.542-16.242c.565 2.649.092 5.725-1.401 8.471-2.165 3.981-1.363 8.319-.91 10.025 1.957-.329 6.903-1.557 7.959-5.649 1.014-3.926.4-6.199-.31-7.424-.708 2.544-2.007 3.615-2.074 3.669a1.002 1.002 0 0 1-1.614-.938c.606-3.768-.36-6.39-1.65-8.154ZM23.65 31.29c1.609-2.527-.074-6.965-.091-7.01a1 1 0 0 1 .932-1.361c1.75 0 3.248 1.355 4.25 2.593.529-3.989-1.877-6.084-1.997-6.184a1.004 1.004 0 0 1-.26-1.191.988.988 0 0 1 1.077-.561c1.474.261 2.773.822 3.85 1.633.955.427 5.726 2.839 6.714 8.7.028-.176.05-.36.072-.55a1 1 0 0 1 1.474-.774c.187.103 4.533 2.595 2.384 10.917-1.675 6.488-10.18 7.227-10.541 7.255l-.001-.01c-.022.002-.041.013-.063.013a.974.974 0 0 1-.335-.059c-2.054-.734-3.847-1.63-5.33-2.663-3.314-2.31-4.364-6.847-2.39-10.327a9.83 9.83 0 0 1 .255-.421Zm-8.16 12.66 1.62-1.173A18.19 18.19 0 0 1 13.677 33H16v-2h-2.321a18.16 18.16 0 0 1 3.432-9.719l-1.621-1.173A20.162 20.162 0 0 0 11.679 31h-1.68v2h1.677c.186 3.962 1.484 7.731 3.814 10.95Zm27.257 2.968A18.187 18.187 0 0 1 33 50.351V48h-2v2.351a18.183 18.183 0 0 1-9.75-3.433l-1.172 1.621A20.181 20.181 0 0 0 31 52.351V54h2v-1.649c3.95-.191 7.709-1.489 10.919-3.812l-1.172-1.621ZM21.25 17.14A18.182 18.182 0 0 1 31 13.708V16h2v-2.292a18.177 18.177 0 0 1 9.747 3.432l1.172-1.62a20.152 20.152 0 0 0-10.92-3.812V10h-2v1.708a20.162 20.162 0 0 0-10.921 3.812l1.172 1.62ZM52.32 31a20.178 20.178 0 0 0-3.811-10.892l-1.621 1.173A18.177 18.177 0 0 1 50.32 31H48v2h2.323a18.19 18.19 0 0 1-3.435 9.777l1.62 1.173c2.33-3.219 3.629-6.988 3.815-10.95H54v-2h-1.68Zm-7.293-10.584 6.159-6.16-1.414-1.414-6.16 6.16 1.415 1.414ZM18.972 43.642l-6.16 6.16 1.414 1.414 6.16-6.16-1.414-1.414Zm3.442-22.641L11.586 10.173l-1.414 1.414L21 22.415l1.414-1.414ZM43 41.586l10.826 10.827-1.414 1.414L41.586 43 43 41.586Z" fill="#FFF"/></g></svg>