<svg width="64" height="64" xmlns="http://www.w3.org/2000/svg"><defs><linearGradient x1="0%" y1="100%" x2="100%" y2="0%" id="a"><stop stop-color="#4D27A8" offset="0%"/><stop stop-color="#A166FF" offset="100%"/></linearGradient></defs><g fill="none" fill-rule="evenodd"><path d="M0 0h64v64H0z" fill="url(#a)"/><path d="M30.692 23.156c2.963 0 4.842.59 5.422.996-.58.405-2.459.995-5.422.995-2.963 0-4.842-.59-5.422-.995.58-.406 2.459-.996 5.422-.996Zm-.73 5.511c0-.346.286-.627.635-.627.103 0 .196.03.282.072l-.562 1.11a.624.624 0 0 1-.355-.555Zm4.807 6.557c-.364.272-1.533.874-3.573.874-2.457 0-4.109-.48-4.568-.778l-1.177-8.903c1.474.51 3.434.721 5.24.721 1.808 0 3.768-.212 5.242-.72l-.436 3.3a50.718 50.718 0 0 1-3.613-1.543 1.384 1.384 0 0 0-1.287-.873c-.763 0-1.382.613-1.382 1.365 0 .753.62 1.364 1.382 1.364.14 0 .275-.027.402-.066 1.787.856 3.177 1.438 4.227 1.8l-.457 3.459ZM23.134 24.28l1.506 11.403c.133 2.338 5.894 2.406 6.556 2.406 3.151 0 5.383-1.219 5.54-2.36l.456-3.452c.202.027.386.045.541.045.81 0 1.035-.34 1.21-.603.174-.264.226-.587.145-.91-.147-.593-.882-1.31-1.464-1.798l.626-4.73-.006-.002c.003-.043.015-.083.015-.127 0-2.204-4.076-2.987-7.567-2.987-3.491 0-7.567.783-7.567 2.987 0 .044.012.084.015.127l-.006.001Zm7.333-7.201c6.954 0 12.612 5.581 12.612 12.443 0 6.861-5.658 12.444-12.612 12.444s-12.612-5.583-12.612-12.444c0-6.862 5.658-12.443 12.612-12.443ZM12.027 33.11v1.991h4.95c2.217 5.197 7.428 8.855 13.49 8.855 8.066 0 14.63-6.475 14.63-14.435 0-7.96-6.564-14.434-14.63-14.434-6.52 0-12.055 4.232-13.937 10.06h-4.503v1.99h4.027c-.11.651-.178 1.314-.196 1.991H9v1.991h6.932c.077.681.213 1.342.383 1.991h-4.288ZM52.342 51.38c-.82.81-2.241.815-3.06.007l-7.339-7.24a18.737 18.737 0 0 0 3.125-3.009l7.284 7.221a2.1 2.1 0 0 1 .63 1.51 2.108 2.108 0 0 1-.64 1.51Zm1.438-4.427-7.52-7.457c1.876-2.883 2.979-6.3 2.979-9.973C49.239 19.31 40.818 11 30.467 11c-7.312 0-14.009 4.238-17.064 10.796l1.833.832c2.726-5.855 8.705-9.637 15.23-9.637 9.24 0 16.755 7.416 16.755 16.531 0 9.115-7.515 16.53-16.754 16.53-6.053 0-11.654-3.238-14.62-8.452l-1.76.975c3.322 5.84 9.599 9.469 16.38 9.469 3.59 0 6.934-1.017 9.789-2.748l7.6 7.498A4.172 4.172 0 0 0 50.805 54a4.186 4.186 0 0 0 2.961-1.212A4.067 4.067 0 0 0 55 49.871a4.066 4.066 0 0 0-1.22-2.92Z" fill="#FFF"/></g></svg>