<svg width="64" height="64" xmlns="http://www.w3.org/2000/svg"><defs><linearGradient x1="0%" y1="100%" x2="100%" y2="0%" id="a"><stop stop-color="#4D27A8" offset="0%"/><stop stop-color="#A166FF" offset="100%"/></linearGradient></defs><g fill="none" fill-rule="evenodd"><path d="M0 0h64v64H0z" fill="url(#a)"/><path d="M35.822 23.999a4.24 4.24 0 0 1 1.754-.377v1.998c-.554 0-1.079.201-1.48.565a1.015 1.015 0 0 1-.906.235 1 1 0 0 1-.708-.61c-.835-2.136-3.002-3.571-5.395-3.571-1.652 0-3.224.677-4.315 1.857a5.333 5.333 0 0 0-1.449 3.63c0 .437-.285.83-.704.962-1.393.435-2.432 1.548-2.72 2.91l-.005.034c-.047.256-.07.495-.07.73 0 2.137 1.827 3.874 4.073 3.874h11.387v1.999H23.897c-3.354 0-6.082-2.635-6.082-5.872a5.9 5.9 0 0 1 .095-1.049c.003-.021.006-.043.011-.063.372-1.869 1.66-3.433 3.427-4.217a7.353 7.353 0 0 1 1.945-4.291c1.47-1.59 3.582-2.502 5.794-2.502 2.794 0 5.366 1.47 6.735 3.758m17.303 29.14c-1.12 1.112-3.073 1.113-4.194 0l-8.305-8.255a20.28 20.28 0 0 0 4.11-4.304l8.394 8.393a2.942 2.942 0 0 1-.005 4.165M10.01 29.084c0-9.972 8.16-18.086 18.188-18.086 10.03 0 18.189 8.114 18.189 18.086 0 9.973-8.16 18.086-18.19 18.086-10.028 0-18.187-8.113-18.187-18.086m44.544 18.479-8.718-8.718a19.868 19.868 0 0 0 2.56-9.76C48.397 18.01 39.337 9 28.199 9S8 18.01 8 29.084C8 40.16 17.06 49.17 28.198 49.17c3.957 0 7.64-1.153 10.759-3.117l8.553 8.5A4.957 4.957 0 0 0 51.028 56a4.956 4.956 0 0 0 3.517-1.449 4.935 4.935 0 0 0 .01-6.988m-26.357-5.11c-7.414 0-13.445-5.997-13.445-13.369 0-7.37 6.03-13.368 13.445-13.368 7.413 0 13.444 5.997 13.444 13.368 0 7.372-6.031 13.37-13.444 13.37m0-28.736c-8.521 0-15.455 6.893-15.455 15.366 0 8.474 6.934 15.368 15.455 15.368s15.454-6.894 15.454-15.368c0-8.473-6.933-15.366-15.454-15.366" fill="#FFF"/></g></svg>