<svg width="64" height="64" xmlns="http://www.w3.org/2000/svg"><defs><linearGradient x1="0%" y1="100%" x2="100%" y2="0%" id="a"><stop stop-color="#4D27A8" offset="0%"/><stop stop-color="#A166FF" offset="100%"/></linearGradient></defs><g fill="none" fill-rule="evenodd"><path d="M0 0h64v64H0z" fill="url(#a)"/><path d="m24.763 43.3-3.046-3.047 3.046-3.046-1.414-1.414-3.753 3.753a.999.999 0 0 0 0 1.414l3.753 3.754 1.414-1.414Zm17.373-18.054a1 1 0 0 0 0-1.414l-3.754-3.754-1.414 1.414 3.047 3.047-3.047 3.047L38.382 29l3.754-3.754ZM36 43.103h10v-2H36v2Zm-6 4h24v-2H30v2Zm-17-22h11v-2H13v2Zm-3-6h24v-2H10v2Zm40.835 6.03c0-6.69-5.443-12.133-12.134-12.133-2.061 0-4.097.526-5.888 1.522l.972 1.748A10.14 10.14 0 0 1 38.701 15c5.588 0 10.134 4.546 10.134 10.133 0 5.588-4.546 10.134-10.134 10.134-.925 0-1.842-.125-2.724-.37l-.537 1.926c1.056.294 2.154.444 3.261.444 6.691 0 12.134-5.443 12.134-12.134Zm-21.919 2.645a10.194 10.194 0 0 1 .42-6.521l-1.847-.766a12.043 12.043 0 0 0-.921 4.642c0 1.071.14 2.136.417 3.165l1.931-.52ZM33 51.103H14a1 1 0 0 1-1-1v-19a1 1 0 0 1 1-1h19a1 1 0 0 1 1 1v12h-2v-11H15v17h19v1a1 1 0 0 1-1 1Z" fill="#FFF"/></g></svg>