<svg width="64" height="64" xmlns="http://www.w3.org/2000/svg"><defs><linearGradient x1="0%" y1="100%" x2="100%" y2="0%" id="a"><stop stop-color="#4D27A8" offset="0%"/><stop stop-color="#A166FF" offset="100%"/></linearGradient></defs><g fill="none" fill-rule="evenodd"><path d="M0 0h64v64H0z" fill="url(#a)"/><path d="M48 49h3v-2h-3v2Zm-30-2h28v-2H18v2Zm-5 2h3v-2h-3v2Zm0-20h3v-2h-3v2Zm16.999 0H46v2H18v-2h11.999ZM31 24h2.001L33 27h-2.001L31 24Zm-4-2c-.442 0-.816.286-.949.682A1.995 1.995 0 0 1 25 23c-1.421 0-2-.58-2-2 0-1.439.56-2 2-2 .459 0 .889.213 1.058.339.14.386.508.661.942.661h10a1 1 0 0 0 .938-.653c.17-.129.604-.347 1.062-.347 1.431 0 2.015.58 2.015 2 0 1.458-.546 2-2.015 2a1.99 1.99 0 0 1-1.046-.301A1 1 0 0 0 37 22H27Zm5-6c.663 0 1 .673 1 2h-2c0-1.327.337-2 1-2Zm16 29h3V31h-3v14Zm-30-2h28V33H18v10Zm-5 2h3V31h-3v14Zm35-16h3v-2h-3v2Zm3-4h-3c-1.758 0-2 .961-2 2H35l.001-3h1.421c.566.618 1.609 1 2.578 1 2.551 0 4.015-1.458 4.015-4S41.551 17 39 17c-.843 0-1.95.37-2.556 1H35c0-2.505-1.121-4-3-4s-3 1.495-3 4h-1.445c-.606-.63-1.713-1-2.555-1-2.542 0-4 1.458-4 4s1.458 4 4 4c.867 0 1.971-.365 2.568-1H29l-.001 3H18c0-.968-.155-2-2-2h-3c-1.846 0-2 1.032-2 2v22c0 1.297.318 2 2 2h3c1.845 0 2-1.032 2-2h28c0 .968.154 2 2 2h3c1.845 0 2-1.032 2-2V27c0-1.039-.243-2-2-2Z" fill="#FFF"/></g></svg>