<svg width="64" height="64" xmlns="http://www.w3.org/2000/svg"><defs><linearGradient x1="0%" y1="100%" x2="100%" y2="0%" id="a"><stop stop-color="#4D27A8" offset="0%"/><stop stop-color="#A166FF" offset="100%"/></linearGradient></defs><g fill="none" fill-rule="evenodd"><path d="M0 0h64v64H0z" fill="url(#a)"/><path d="M50.152 38.14c-1.097-1.106-3.01-1.107-4.107 0a2.949 2.949 0 0 0 0 4.14c1.098 1.107 3.01 1.106 4.107 0a2.949 2.949 0 0 0 0-4.14Zm-8.807-.601 2.256.718c.21-.489.506-.944.878-1.358l-1.393-2.675-1.74 3.315Zm-2.889 1.194-8.348-2.658a10.105 10.105 0 0 1-2.679 3.57l3.702 5.181a4.83 4.83 0 0 1 2.51-.715 4.86 4.86 0 0 1 1.806.352l3.009-5.73Zm-2.761 8.253a2.877 2.877 0 0 0-2.054-.858 2.87 2.87 0 0 0-2.054.858 2.949 2.949 0 0 0 0 4.14c1.098 1.107 3.01 1.108 4.108 0a2.949 2.949 0 0 0 0-4.14ZM21 40c4.411 0 8-3.619 8-8.066 0-4.448-3.589-8.066-8-8.066-4.413 0-8 3.618-8 8.066C13 36.382 16.587 40 21 40Zm6.438-15.77c1.13.962 2.04 2.17 2.66 3.54l8.281-2.577-2.948-5.655a4.86 4.86 0 0 1-1.791.347c-.907 0-1.77-.26-2.526-.723l-3.676 5.069Zm4.148-7.22c1.098 1.108 3.01 1.108 4.108 0a2.949 2.949 0 0 0 0-4.14 2.89 2.89 0 0 0-4.108 0 2.949 2.949 0 0 0 0 4.14Zm-.586 14.924c0 .766-.093 1.51-.254 2.228l8.66 2.759 2.552-4.86-2.633-5.052-8.586 2.672c.165.726.261 1.477.261 2.253Zm10.27-5.53 1.821 3.496 1.744-3.321c-.067-.06-.142-.105-.206-.17a4.905 4.905 0 0 1-.664-.845l-2.696.84Zm4.774-1.421a2.892 2.892 0 0 0 4.107 0 2.95 2.95 0 0 0 0-4.142 2.89 2.89 0 0 0-4.107.001 2.949 2.949 0 0 0 0 4.141Zm5.52 11.73a4.978 4.978 0 0 1 0 6.992 4.853 4.853 0 0 1-3.467 1.449 4.854 4.854 0 0 1-3.468-1.45 4.94 4.94 0 0 1-1.43-3.461l-2.806-.894-3.27 6.23c1.895 1.928 1.891 5.05-.015 6.972A4.855 4.855 0 0 1 33.64 54a4.853 4.853 0 0 1-3.469-1.448c-1.713-1.727-1.878-4.419-.52-6.348l-3.872-5.416a9.88 9.88 0 0 1-4.78 1.23c-5.514 0-10-4.524-10-10.083 0-5.56 4.486-10.083 10-10.083 1.735 0 3.367.45 4.791 1.236l3.848-5.308c-1.345-1.929-1.176-4.611.533-6.335a4.884 4.884 0 0 1 6.937 0 4.98 4.98 0 0 1 .006 6.986l3.21 6.158 2.942-.917c-.23-1.506.215-3.098 1.363-4.255a4.882 4.882 0 0 1 6.936 0 4.98 4.98 0 0 1 0 6.993 4.873 4.873 0 0 1-3.468 1.444 4.87 4.87 0 0 1-1.527-.266l-2.352 4.477 1.895 3.633a4.835 4.835 0 0 1 5.452 1.016Zm-29.564-5.787h3v2.016h-3v3.025h-2v-3.025h-3v-2.016h3v-3.025h2v3.025Z" fill="#FFF"/></g></svg>