<svg width="64" height="64" xmlns="http://www.w3.org/2000/svg"><defs><linearGradient x1="0%" y1="100%" x2="100%" y2="0%" id="a"><stop stop-color="#4D27A8" offset="0%"/><stop stop-color="#A166FF" offset="100%"/></linearGradient></defs><g fill="none" fill-rule="evenodd"><path d="M0 0h64v64H0z" fill="url(#a)"/><path d="M20 44h3V24.014l-3 1.942V44Zm8-23.221-3 1.941V44h3V20.779Zm2-1.294V44h4V19.485l-2-1.294-2 1.294Zm9 3.235-3-1.941V44h3V22.72Zm5 3.236-3-1.942V44h3V25.956ZM50 46H14v-2h4V27.25l-2.457 1.589-1.086-1.678 17-11a.999.999 0 0 1 1.086 0l17 11-1.086 1.678L46 27.25V44h4v2Zm-38 4h8v-2h-8v2Zm11 0h18v-2H23v2Zm21 0h8v-2h-8v2Zm-34 4h20v-2H10v2Zm24 0h20v-2H34v2ZM11.555 25.832l-1.11-1.664 21-14a1 1 0 0 1 1.11 0l21 14-1.11 1.664L32 12.202l-20.445 13.63Z" fill="#FFF"/></g></svg>