<svg width="64" height="64" xmlns="http://www.w3.org/2000/svg"><defs><linearGradient x1="0%" y1="100%" x2="100%" y2="0%" id="a"><stop stop-color="#4D27A8" offset="0%"/><stop stop-color="#A166FF" offset="100%"/></linearGradient></defs><g fill="none" fill-rule="evenodd"><path d="M0 0h64v64H0z" fill="url(#a)"/><path d="M33 30h4v2h-4v4h-2v-4h-4v-2h4v-4h2v4Zm19-7.687c-.245.253-1.348.687-3.108.687-1.907 0-2.8-.5-2.892-.597l-.021-9.715c.113-.184 1.011-.688 2.913-.688 1.754 0 2.858.437 3.108.692v9.621ZM32 38c-3.859 0-7-3.14-7-7s3.141-7 7-7 7 3.14 7 7-3.141 7-7 7Zm14-3.672c.225-.12.82-.328 1.919-.328 1.098 0 1.803.209 2.081.354v6.295c-.276.144-.98.351-2.081.351-1.036 0-1.672-.188-1.919-.322v-6.35Zm-6 17.418c-.241.109-.777.254-1.567.254-.736 0-1.216-.128-1.433-.228v-5.54c.2-.092.657-.232 1.433-.232.789 0 1.325.146 1.567.257v5.489Zm-21-4.544c-.254.289-1.528.798-3.622.798-2.254 0-3.275-.579-3.378-.719l-.016-10.486c.12-.212 1.146-.795 3.394-.795 2.085 0 3.362.512 3.622.803v10.399Zm-1-24.456c-.241.109-.777.254-1.567.254-.736 0-1.216-.128-1.433-.228v-5.54c.2-.092.657-.232 1.433-.232.789 0 1.325.146 1.567.257v5.489ZM48.892 10C45.92 10 44 11.019 44 12.597v5.686l-6.477 5.627A8.942 8.942 0 0 0 32 22a8.971 8.971 0 0 0-6.547 2.843L20 20.272v-3.29C20 15.778 18.6 15 16.433 15 14.348 15 13 15.778 13 16.982v6.036C13 24.24 14.315 25 16.433 25 18.6 25 20 24.222 20 23.018v-.135l4.251 3.563A8.925 8.925 0 0 0 23 31c0 1.73.499 3.342 1.349 4.715L21 38.572v-1.853C21 34.841 18.177 34 15.378 34 12.111 34 10 35.067 10 36.719v10.562C10 48.933 12.111 50 15.378 50 17.972 50 21 49.288 21 47.281v-6.08l4.579-3.906A8.969 8.969 0 0 0 32 40c.822 0 1.614-.12 2.371-.327l2.27 4.576c-1.026.318-1.641.927-1.641 1.733v6.036C35 53.24 36.315 54 38.433 54 40.6 54 42 53.222 42 52.018v-6.036c0-1.141-1.268-1.891-3.243-1.967l-2.52-5.079a9.057 9.057 0 0 0 3.521-3.396L44 37.394v3.501C44 42.193 45.502 43 47.919 43 49.892 43 52 42.447 52 40.895v-6.79C52 32.553 49.892 32 47.919 32 45.502 32 44 32.807 44 34.105v1.106l-3.421-1.495a8.96 8.96 0 0 0-1.614-8.408L44 20.933v1.47C44 23.981 45.92 25 48.892 25 51.248 25 54 24.32 54 22.403v-9.806C54 10.803 51.435 10 48.892 10Z" fill="#FFF"/></g></svg>