<svg width="64" height="64" xmlns="http://www.w3.org/2000/svg"><defs><linearGradient x1="0%" y1="100%" x2="100%" y2="0%" id="a"><stop stop-color="#4D27A8" offset="0%"/><stop stop-color="#A166FF" offset="100%"/></linearGradient></defs><g fill="none" fill-rule="evenodd"><path d="M0 0h64v64H0z" fill="url(#a)"/><path d="M44 49.001h1v-1h-1v1Zm3-2v3a1 1 0 0 1-1 1h-3a1 1 0 0 1-1-1v-3a1 1 0 0 1 1-1h3a1 1 0 0 1 1 1Zm-5-3h3v-2h-3v2Zm6-3h1v-1h-1v1Zm4 3.5a7.443 7.443 0 0 0-1-3.726v1.226a1 1 0 0 1-1 1h-3a1 1 0 0 1-1-1v-3a1 1 0 0 1 1-1h1.226a7.446 7.446 0 0 0-7.451 0H45v2h-6.486a7.505 7.505 0 0 0-1.076 2H41v2h-3.974c-.011.166-.026.331-.026.5 0 .514.053 1.015.152 1.5H40v2h-2.128c.187.352.404.684.642 1H40v1.486a7.452 7.452 0 0 0 4.5 1.514 7.45 7.45 0 0 0 3.726-1H48v-2h2.487c.238-.316.455-.648.641-1H48v-2h3.849a7.49 7.49 0 0 0 .151-1.5Zm2 0c0 5.238-4.261 9.5-9.5 9.5-5.238 0-9.5-4.262-9.5-9.5s4.262-9.5 9.5-9.5c5.239 0 9.5 4.262 9.5 9.5Zm-16.354-8.9C19.695 37.162 16 41.688 16 48h2c0-4.2 1.412-8.421 17.467-10.175a11.31 11.31 0 0 1 2.179-2.224ZM21 53.876V54h2v-.124c-.001-4.285.006-8.707 10.402-11.134.119-.752.311-1.478.571-2.173C21.006 43.284 20.999 49.146 21 53.876ZM13 23h-2c0 3.614 2.747 7.285 19.012 9C13.747 33.715 11 37.386 11 41h2c0-5.383 13.412-8 41-8v-2c-27.588 0-41-2.617-41-8Zm5-7h-2c0 8.233 6.218 13 38 13v-2c-33.22 0-36-5.434-36-11Zm36 7v2c-14.449 0-23.791-1.557-28.559-4.759-4.443-2.984-4.442-6.939-4.441-10.117V10h2v.124c-.001 3.12-.001 6.067 3.556 8.456C30.985 21.554 39.961 23 54 23Z" fill="#FFF"/></g></svg>