<svg width="64" height="64" xmlns="http://www.w3.org/2000/svg"><defs><linearGradient x1="0%" y1="100%" x2="100%" y2="0%" id="a"><stop stop-color="#4D27A8" offset="0%"/><stop stop-color="#A166FF" offset="100%"/></linearGradient></defs><g fill="none" fill-rule="evenodd"><path d="M0 0h64v64H0z" fill="url(#a)"/><path d="M16 48h2c0-2.929.57-5.953 7-8.121v-2.093c-7.871 2.462-9 6.355-9 10.214Zm5 5.875V54h2v-.125c-.001-2.573.005-5.027 2-7.149v-2.645c-3.989 2.941-4.001 6.729-4 9.794ZM52 38H29v14h2v-5a1 1 0 0 1 1-1h3a1 1 0 0 1 1 1v5h2v-8a1 1 0 0 1 1-1h3a1 1 0 0 1 1 1v8h2V42a1 1 0 0 1 1-1h3a1 1 0 0 1 1 1v10h2V38Zm-5 14h1v-9h-1v9Zm-7 0h1v-7h-1v7Zm-7 0h1v-4h-1v4Zm21-15v16a1 1 0 0 1-1 1H28a1 1 0 0 1-1-1V37a1 1 0 0 1 1-1h25a1 1 0 0 1 1 1ZM13 23h-2c0 3.614 2.747 7.285 19.012 9C13.747 33.715 11 37.386 11 41h2c0-5.383 13.411-8 41-8v-2c-27.589 0-41-2.617-41-8Zm5-7h-2c0 8.233 6.218 13 38 13v-2c-33.221 0-36-5.434-36-11Zm36 7v2c-14.448 0-23.79-1.557-28.56-4.76-4.442-2.983-4.441-6.938-4.44-10.116V10h2v.124c-.001 3.12-.001 6.067 3.556 8.456C30.984 21.554 39.961 23 54 23Z" fill="#FFF"/></g></svg>