<svg width="64" height="64" xmlns="http://www.w3.org/2000/svg"><defs><linearGradient x1="0%" y1="100%" x2="100%" y2="0%" id="a"><stop stop-color="#4D27A8" offset="0%"/><stop stop-color="#A166FF" offset="100%"/></linearGradient></defs><g fill="none" fill-rule="evenodd"><path d="M0 0h64v64H0z" fill="url(#a)"/><path d="M16 48h2c0-5.566 2.779-11 36-11v-2c-15.551 0-25.879 1.219-31.573 3.728C16.764 41.223 16 44.815 16 48m5 5.876V54h2v-.124c-.001-3.12-.001-6.067 3.556-8.456C30.984 42.446 39.961 41 54 41v-2c-14.448 0-23.79 1.557-28.56 4.76-4.442 2.983-4.441 6.938-4.44 10.116M13 23h-2c0 3.614 2.747 7.285 19.012 9C13.747 33.715 11 37.386 11 41h2c0-5.383 13.411-8 41-8v-2c-27.589 0-41-2.617-41-8m5-7h-2c0 8.233 6.218 13 38 13v-2c-33.221 0-36-5.434-36-11m36 7v2c-14.448 0-23.79-1.557-28.56-4.76-4.442-2.983-4.441-6.938-4.44-10.116V10h2v.124c-.001 3.12-.001 6.067 3.556 8.456C30.984 21.554 39.961 23 54 23" fill="#FFF"/></g></svg>