<svg width="64" height="64" xmlns="http://www.w3.org/2000/svg"><defs><linearGradient x1="0%" y1="100%" x2="100%" y2="0%" id="a"><stop stop-color="#4D27A8" offset="0%"/><stop stop-color="#A166FF" offset="100%"/></linearGradient></defs><g fill="none" fill-rule="evenodd"><path d="M0 0h64v64H0z" fill="url(#a)"/><path d="M43.643 36.517c.679.684 1.612 1.121 2.607 1.121 1.888 0 3.313-1.564 3.313-3.638h-2c0 .814-.45 1.638-1.313 1.638-.866 0-1.685-.796-1.685-1.638h-2c0 .806-.521 1.638-1.393 1.638-.84 0-1.605-.781-1.605-1.638h-2c0 .888-.674 1.638-1.473 1.638-.827 0-1.525-.75-1.525-1.638h-2c0 .873-.726 1.638-1.554 1.638v2c.989 0 1.9-.439 2.55-1.132.646.693 1.55 1.132 2.53 1.132.983 0 1.87-.43 2.503-1.12a3.58 3.58 0 0 0 2.574 1.12c.984 0 1.857-.427 2.471-1.121ZM43.2 25.323h-1.999c0 .849-.69 1.54-1.54 1.54-.849 0-1.539-.691-1.539-1.54h-1.999c0 .849-.69 1.54-1.54 1.54-.849 0-1.54-.691-1.54-1.54h-1.999c0 .849-.69 1.54-1.54 1.54v2c.996 0 1.897-.413 2.54-1.076a3.531 3.531 0 0 0 5.079 0 3.53 3.53 0 0 0 5.078 0 3.53 3.53 0 0 0 2.539 1.076v-2c-.85 0-1.54-.691-1.54-1.54ZM30.252 47.502a3.55 3.55 0 0 0 2.54-1.065 3.546 3.546 0 0 0 2.538 1.065 3.549 3.549 0 0 0 2.573-1.1c.68.673 1.63 1.1 2.663 1.1v-2c-.903 0-1.697-.702-1.697-1.502h-2c0 .842-.676 1.502-1.539 1.502-.863 0-1.539-.66-1.539-1.502h-2c0 .842-.676 1.502-1.539 1.502-.863 0-1.54-.66-1.54-1.502h-2c0 .561-.147 1.502-1.14 1.502v2c.916 0 1.695-.353 2.248-.961.635.596 1.49.961 2.432.961ZM17.575 14h1v-1h-1v1Zm-1.999 1v-3a1 1 0 0 1 1-1h2.998a1 1 0 0 1 1 1v3c0 .553-.447 1-1 1h-2.998c-.553 0-1-.447-1-1Zm8.997 2h1v-1h-1v1Zm-2 1v-3a1 1 0 0 1 1-1h2.999a1 1 0 0 1 1 1v3c0 .553-.447 1-1 1h-3c-.552 0-.999-.447-.999-1Zm.425 4.679c-.722 0-3.165-.027-5.327-.326l4.722 7.075c.117.168.18.368.18.572v1.257c.355.075.667.078 1 .011V30c0-.193.056-.382.16-.545l4.614-7.099c-1.633.227-3.588.323-5.349.323Zm-9.132-2.15a1.36 1.36 0 0 1-.022-.211c0-.6 0-2.193 8.18-2.352l.039 2c-1.965.038-3.46.185-4.516.353 1.252.196 3.09.36 5.451.36 2.327 0 4.186-.159 5.464-.36-.23-.036-.488-.073-.774-.108l.242-1.985c3 .366 4.223.972 4.223 2.092 0 .25-.082.73-.635 1.124-.09.064-.195.124-.31.182l-5.636 8.673V32a.999.999 0 0 1-.627.928c-.64.257-1.231.386-1.834.386-.596 0-1.202-.125-1.883-.375a1.002 1.002 0 0 1-.654-.939v-1.685l-5.73-8.677c-.243-.117-.452-.245-.595-.39a.972.972 0 0 1-.165-.217l-.108-.192a.998.998 0 0 1-.11-.31ZM22.573 37v-3h-1.999v2h-2a.998.998 0 0 0-.742 1.669l4.498 5a.997.997 0 0 0 1.486 0l4.498-5A1 1 0 0 0 27.571 36h-1.999v-2h-2v3c0 .553.448 1 1 1h.755l-2.254 2.506L20.82 38h.755c.552 0 1-.447 1-1ZM52 34.493C52 45.249 43.252 54 32.5 54S13 45.249 13 34.493c0-2.972.65-5.826 1.935-8.483l1.8.871A17.343 17.343 0 0 0 15 34.493C15 44.146 22.85 52 32.5 52 42.15 52 50 44.146 50 34.493c0-9.654-7.85-17.508-17.5-17.508-1.021 0-2.045.089-3.044.263l-.346-1.969a19.611 19.611 0 0 1 3.39-.294c10.752 0 19.5 8.751 19.5 19.508Z" fill="#FFF"/></g></svg>