<svg width="64" height="64" xmlns="http://www.w3.org/2000/svg"><defs><linearGradient x1="0%" y1="100%" x2="100%" y2="0%" id="a"><stop stop-color="#4D27A8" offset="0%"/><stop stop-color="#A166FF" offset="100%"/></linearGradient></defs><g fill="none" fill-rule="evenodd"><path d="M0 0h64v64H0z" fill="url(#a)"/><path d="M35 41c-2.757 0-5-2.243-5-5s2.243-5 5-5 5 2.243 5 5-2.243 5-5 5Zm0-12c-3.859 0-7 3.14-7 7s3.141 7 7 7 7-3.14 7-7-3.141-7-7-7Zm14.71 19.919a1.14 1.14 0 0 1-1.604.085l-5.563-5.019a10.957 10.957 0 0 0 1.481-1.714l5.601 5.045a1.14 1.14 0 0 1 .085 1.603ZM26 36c0-4.962 4.037-9 9-9s9 4.038 9 9-4.037 9-9 9-9-4.038-9-9Zm19.033 4.488C45.649 39.116 46 37.6 46 36c0-6.065-4.935-11-11-11s-11 4.935-11 11 4.935 11 11 11c2.191 0 4.23-.651 5.947-1.76l5.822 5.251a3.126 3.126 0 0 0 2.094.801c.859 0 1.714-.349 2.333-1.033a3.145 3.145 0 0 0-.231-4.427l-5.932-5.344ZM53 17v26h-2V18h-5v8h-2v-9a1 1 0 0 1 1-1h7a1 1 0 0 1 1 1ZM40 50h2v3a1 1 0 0 1-1 1h-7a1 1 0 0 1-1-1v-4h2v3h5v-2Zm-5-28h-2V12a1 1 0 0 1 1-1h7a1 1 0 0 1 1 1v11h-2V13h-5v9Zm-6 26h2v5a1 1 0 0 1-1 1h-7a1 1 0 0 1-1-1V43h2v9h5v-4Zm-5-20h-2v-9a1 1 0 0 1 1-1h7a1 1 0 0 1 1 1v4h-2v-3h-5v8ZM13 52h5V26h-5v26Zm6-28h-7a1 1 0 0 0-1 1v28a1 1 0 0 0 1 1h7a1 1 0 0 0 1-1V25a1 1 0 0 0-1-1Z" fill="#FFF"/></g></svg>