<svg width="64" height="64" xmlns="http://www.w3.org/2000/svg"><defs><linearGradient x1="0%" y1="100%" x2="100%" y2="0%" id="a"><stop stop-color="#4D27A8" offset="0%"/><stop stop-color="#A166FF" offset="100%"/></linearGradient></defs><g fill="none" fill-rule="evenodd"><path d="M0 0h64v64H0z" fill="url(#a)"/><path d="M52 21c0-1.103-.897-2-2-2s-2 .897-2 2 .897 2 2 2 2-.897 2-2ZM34 40c0-1.103-.897-2-2-2s-2 .897-2 2 .897 2 2 2 2-.897 2-2Zm-18 2c0-1.103-.897-2-2-2s-2 .897-2 2 .897 2 2 2 2-.897 2-2Zm14-16c0 1.103.897 2 2 2s2-.897 2-2-.897-2-2-2-2 .897-2 2Zm24-5c0 2.206-1.794 4-4 4a3.947 3.947 0 0 1-1.986-.549L35.416 37.949c.362.602.584 1.299.584 2.051 0 2.206-1.794 4-4 4s-4-1.794-4-4c0-1.858 1.279-3.411 3-3.858v-6.284a3.936 3.936 0 0 1-1.09-.463l-12.426 10.68c.319.574.516 1.224.516 1.925 0 2.206-1.794 4-4 4s-4-1.794-4-4 1.794-4 4-4c.777 0 1.498.232 2.113.618l12.414-10.671A3.952 3.952 0 0 1 28 26c0-2.206 1.794-4 4-4s4 1.794 4 4c0 1.858-1.279 3.411-3 3.858v6.284c.351.091.68.23.986.407l12.598-13.498A3.967 3.967 0 0 1 46 21c0-2.206 1.794-4 4-4s4 1.794 4 4Zm-39-7h34v2h2v-3a1 1 0 0 0-1-1H14a1 1 0 0 0-1 1v24h2V14Zm34 12h2v25a1 1 0 0 1-1 1H14a1 1 0 0 1-1-1v-4h2v3h34V26Z" fill="#FFF"/></g></svg>