<svg width="64" height="64" xmlns="http://www.w3.org/2000/svg"><defs><linearGradient x1="0%" y1="100%" x2="100%" y2="0%" id="a"><stop stop-color="#055F4E" offset="0%"/><stop stop-color="#56C0A7" offset="100%"/></linearGradient></defs><g fill="none" fill-rule="evenodd"><path d="M0 0h64v64H0z" fill="url(#a)"/><path d="M32 32v18.586L13.414 32H32Zm1.383 21.924A1 1 0 0 0 34 53V31a1 1 0 0 0-1-1H11a1 1 0 0 0-.707 1.707l22 22a1 1 0 0 0 1.09.217ZM53 54a1 1 0 0 1-.707-.293l-16-16 1.414-1.414L52 50.586V12H13.414l13.293 13.293-1.414 1.414-15-15A1 1 0 0 1 11 10h42a1 1 0 0 1 1 1v42a1 1 0 0 1-1 1Z" fill="#FFF"/></g></svg>