<svg width="64" height="64" xmlns="http://www.w3.org/2000/svg"><defs><linearGradient x1="0%" y1="100%" x2="100%" y2="0%" id="a"><stop stop-color="#055F4E" offset="0%"/><stop stop-color="#56C0A7" offset="100%"/></linearGradient></defs><g fill="none" fill-rule="evenodd"><path d="M0 0h64v64H0z" fill="url(#a)"/><path d="M25 39h13.989V24.969H25V39Zm-.851 2A1.15 1.15 0 0 1 23 39.852V24.117a1.15 1.15 0 0 1 1.149-1.148h15.692a1.15 1.15 0 0 1 1.148 1.148v15.735A1.15 1.15 0 0 1 39.841 41H24.149Zm28.752-17H44v2h8v26H26v-8h-2v8.901A1.1 1.1 0 0 0 25.099 54h27.802A1.1 1.1 0 0 0 54 52.901V25.099A1.1 1.1 0 0 0 52.901 24ZM12 38h8v2h-8.893A1.108 1.108 0 0 1 10 38.894V11.106c0-.609.496-1.106 1.107-1.106h27.787c.61 0 1.106.497 1.106 1.106V20h-2v-8H12v26Z" fill="#FFF"/></g></svg>