<svg width="64" height="64" xmlns="http://www.w3.org/2000/svg"><defs><linearGradient x1="0%" y1="100%" x2="100%" y2="0%" id="a"><stop stop-color="#055F4E" offset="0%"/><stop stop-color="#56C0A7" offset="100%"/></linearGradient></defs><g fill="none" fill-rule="evenodd"><path d="M0 0h64v64H0z" fill="url(#a)"/><path d="m13.031 17.542 7.992-4.413 3.901 1.951-7.933 4.76-3.96-2.298ZM16 33.132l-4-2.667V19.257l4 2.32V33.13Zm11.514-17.275a1 1 0 0 0-.067-1.752l-6-3a1 1 0 0 0-.931.02l-10 5.521.001.001-.016.007c-.31.18-.501.51-.501.867v13.48c0 .333.167.645.445.831l6 4a.994.994 0 0 0 1.026.05A1 1 0 0 0 18 35V21.566l9.514-5.709Zm18.621 20.341 2.583 1.525-1.018 1.722-2.583-1.526 1.018-1.72Zm-4.316-2.532 2.588 1.517-1.012 1.726-2.588-1.517 1.012-1.726ZM23 40.466v-5.978l2.615-2.043-1.23-1.576L23 31.951v-7.185l5.202 3.122-1.695 1.324 1.23 1.576 2.302-1.798L36 32.566v16.565l-13-8.666Zm6-20.5V21h2v-2.234l6.014-3.608 13.946 7.908-13.942 7.78L31 27.233V24h-2v2.034L23.943 23 29 19.966ZM50.44 38.74l-1.017 1.722 1.621.957L38 49.235V33.746l1.082.634 1.011-1.726-1.08-.633L52 24.776v14.885l-1.56-.92ZM54 23.074a1.003 1.003 0 0 0-.507-.87l-16-9.074a1.001 1.001 0 0 0-1.008.013l-15 9A.999.999 0 0 0 21 23v18c0 .334.167.646.445.832l15 10a.994.994 0 0 0 1.026.05c.015-.008.026-.02.039-.028l.003.004 16-9.587a1 1 0 0 0 .487-.858V23.074Z" fill="#FFF"/></g></svg>