<svg width="64" height="64" xmlns="http://www.w3.org/2000/svg"><defs><linearGradient x1="0%" y1="100%" x2="100%" y2="0%" id="a"><stop stop-color="#BD0816" offset="0%"/><stop stop-color="#FF5252" offset="100%"/></linearGradient></defs><g fill="none" fill-rule="evenodd"><path d="M0 0h64v64H0z" fill="url(#a)"/><path d="M46.637 47.677 32.333 17h3.794L50.43 47.677h-3.794Zm6.27.578L37.67 15.577a.999.999 0 0 0-.906-.577h-6a1 1 0 0 0-.906 1.422l15.236 32.677a1 1 0 0 0 .906.578h6a1 1 0 0 0 .907-1.422Zm-16.277-.578-10.536-22.03 2.325-3.846 12.015 25.876H36.63Zm-7.187-28.422a1.005 1.005 0 0 0-.853-.578.96.96 0 0 0-.91.481l-3.576 5.915a.999.999 0 0 0-.047.95l11.04 23.086c.167.347.519.568.903.568h6a1 1 0 0 0 .908-1.421L29.443 19.255Zm-16.67 28.422 9.639-15.94 1.619 3.236-4.782 8.102a1 1 0 0 0 .862 1.508h8.704l1.56 3.094H12.774Zm17.55-4.544a1 1 0 0 0-.893-.55h-7.568l4.168-7.062c.17-.292.184-.652.033-.955l-2.673-5.347a1 1 0 0 0-.855-.552.986.986 0 0 0-.895.482l-11.495 19.01A1 1 0 0 0 11 49.677h21a1 1 0 0 0 .893-1.451l-2.57-5.093Z" fill="#FFF"/></g></svg>