<svg width="64" height="64" xmlns="http://www.w3.org/2000/svg"><defs><linearGradient x1="0%" y1="100%" x2="100%" y2="0%" id="a"><stop stop-color="#BD0816" offset="0%"/><stop stop-color="#FF5252" offset="100%"/></linearGradient></defs><g fill="none" fill-rule="evenodd"><path d="M0 0h64v64H0z" fill="url(#a)"/><path d="m39.036 40.667 1.01 1.73-3.187 1.87-1.01-1.73 3.187-1.87Zm-14.398-.027 3.215 1.821-.984 1.745-3.216-1.82.985-1.746Zm14.398-17.662-3.187-1.87 1.01-1.73 3.187 1.87-1.01 1.73Zm-14.398.026-.985-1.744 3.216-1.82.984 1.744-3.215 1.82ZM43 33.003h2v-2.95h-2v2.95Zm-24 0h2v-2.95h-2v2.95Zm30 8.92-16.978 9.915L15 41.922V22.077l17.022-9.915L49 22.077v19.845Zm1.504-21.288L32.527 10.137a.997.997 0 0 0-1.007-.001L13.497 20.634c-.308.18-.497.51-.497.867V42.5c0 .357.189.687.497.866L31.52 53.864a.996.996 0 0 0 1.007 0l17.977-10.5c.306-.179.496-.509.496-.865V21.5c0-.357-.19-.686-.496-.866ZM19.75 40.185a1.247 1.247 0 0 1 0-2.495 1.247 1.247 0 0 1 0 2.494Zm0-4.5a3.252 3.252 0 0 0 0 6.504 3.252 3.252 0 0 0 0-6.504Zm24.374 4.5a1.247 1.247 0 0 1 0-2.495 1.248 1.248 0 0 1 0 2.494Zm0-4.5a3.252 3.252 0 0 0 0 6.504 3.253 3.253 0 0 0 0-6.504ZM33.182 17.78c0 .688-.559 1.248-1.246 1.248a1.248 1.248 0 0 1 0-2.496c.687 0 1.246.56 1.246 1.248Zm-4.49 0a3.251 3.251 0 0 0 3.244 3.252 3.253 3.253 0 0 0 0-6.504 3.252 3.252 0 0 0-3.244 3.252Zm15.432 5.806a1.248 1.248 0 0 1 0 2.494 1.247 1.247 0 0 1 0-2.494Zm-12.188 9.573a1.247 1.247 0 0 1 0-2.495 1.248 1.248 0 0 1 0 2.495Zm0 14.076a1.247 1.247 0 0 1 0-2.495 1.249 1.249 0 0 1 0 2.495ZM19.75 26.08a1.247 1.247 0 0 1 0-2.494 1.248 1.248 0 0 1 0 2.494Zm14.231 3.328a3.21 3.21 0 0 0-2.045-.748c-.819 0-1.558.316-2.129.819l-6.878-4a3.252 3.252 0 0 0-3.179-3.899 3.253 3.253 0 0 0 0 6.505c.845 0 1.608-.333 2.185-.865l6.842 3.978c-.053.23-.085.468-.085.714 0 1.472.989 2.706 2.331 3.104v7.866a3.246 3.246 0 0 0-2.331 3.106 3.251 3.251 0 0 0 3.244 3.251 3.253 3.253 0 0 0 3.246-3.25c0-1.41-.905-2.601-2.159-3.051v-7.976a3.245 3.245 0 0 0 2.159-3.05c0-.285-.048-.555-.117-.818l6.792-3.94c.586.574 1.385.93 2.267.93a3.252 3.252 0 0 0 0-6.503 3.253 3.253 0 0 0-3.245 3.252c0 .186.024.364.054.542l-6.952 4.033Z" fill="#FFF"/></g></svg>