<svg width="64" height="64" xmlns="http://www.w3.org/2000/svg"><defs><linearGradient x1="0%" y1="100%" x2="100%" y2="0%" id="a"><stop stop-color="#BD0816" offset="0%"/><stop stop-color="#FF5252" offset="100%"/></linearGradient></defs><g fill="none" fill-rule="evenodd"><path d="M0 0h64v64H0z" fill="url(#a)"/><path d="m36.483 12-2.402 5.606a.997.997 0 0 0-.06.598L34.812 22H29.22l.761-3.804a.995.995 0 0 0-.06-.59L27.515 12h8.967Zm-8.524 6.108-.94 4.696A1.001 1.001 0 0 0 28 24h3v7h2v-7h3.042a1 1 0 0 0 .978-1.204l-.977-4.692 2.876-6.71A1.001 1.001 0 0 0 38 10H26a1 1 0 0 0-.919 1.394l2.878 6.714Zm17.282 20.479-2.404 1.145L32 44.893l-10.837-5.161-2.405-1.145-5.332-2.539 5.288-2.267 5.333 2.539 2.405 1.146 5.118 2.437a.996.996 0 0 0 .86 0l5.117-2.437 2.405-1.146 5.333-2.539 5.288 2.267-5.332 2.539Zm5.332 4.461L32 51.893l-18.574-8.845 5.288-2.267 12.856 6.122a.996.996 0 0 0 .86 0l12.855-6.122 5.288 2.267ZM54 35.98a1.002 1.002 0 0 0-.607-.899l-5.704-2.445 5.74-2.733c.355-.169.578-.53.571-.923a1.002 1.002 0 0 0-.607-.899l-14.526-6.226.111.533a2.984 2.984 0 0 1-.135 1.633l11.73 5.027-5.332 2.539-2.404 1.145-5.333 2.539-2.405 1.146L32 37.893l-3.1-1.476-2.404-1.146-5.333-2.539-2.405-1.145-5.332-2.539 11.766-5.043a2.984 2.984 0 0 1-.134-1.593l.115-.574-14.567 6.243a.999.999 0 0 0-.036 1.822l5.74 2.733-5.704 2.445a.999.999 0 0 0-.036 1.822l5.74 2.733-5.704 2.445a.999.999 0 0 0-.036 1.822l21 10a.996.996 0 0 0 .86 0l21-10a1.002 1.002 0 0 0-.036-1.822l-5.705-2.445 5.74-2.733c.355-.169.578-.53.571-.923Z" fill="#FFF"/></g></svg>