<svg width="64" height="64" xmlns="http://www.w3.org/2000/svg"><defs><linearGradient x1="0%" y1="100%" x2="100%" y2="0%" id="a"><stop stop-color="#2E27AD" offset="0%"/><stop stop-color="#527FFF" offset="100%"/></linearGradient></defs><g fill="none" fill-rule="evenodd"><path d="M0 0h64v64H0z" fill="url(#a)"/><path d="M34.995 53h1.996v-5h-1.996v5Zm-7.987 0h1.996v-5h-1.996v5Zm14.995-2H44v-4h-1.997v4ZM20.02 51h1.997v-4h-1.997v4Zm11.98-23c-6.197 0-10.002-1.967-10.002-3.376v-5.628C24.339 20.429 28.364 21 32 21s7.661-.571 10.003-2.004v5.628C42.003 26.033 38.197 28 32 28Zm0 8c-6.44 0-10.002-1.9-10.002-3.214v-5.072C24.09 29.125 27.676 30 32 30c4.323 0 7.909-.875 10.003-2.286v5.072C42.003 34.1 38.441 36 32 36Zm0 8c-6.177 0-10.002-1.557-10.002-3v-5.178C24.072 37.177 27.626 38 32 38c4.373 0 7.928-.823 10.003-2.178V41c0 1.443-3.825 3-10.003 3Zm0-31c6.527 0 10.004 1.742 10.004 3S38.526 19 32 19c-6.527 0-10.003-1.742-10.003-3S25.473 13 32 13Zm0-2C26.464 11 20 12.31 20 16v25c0 3.69 6.463 5 12 5 5.536 0 12-1.31 12-5V16c0-3.69-6.464-5-12-5Z" fill="#FFF"/></g></svg>