<svg width="64" height="64" xmlns="http://www.w3.org/2000/svg">
  <defs>
    <linearGradient x1="0%" y1="100%" x2="100%" y2="0%" id="a">
      <stop stop-color="#2E27AD" offset="0%"/>
      <stop stop-color="#527FFF" offset="100%"/>
    </linearGradient>
  </defs>
  <g fill="none" fill-rule="evenodd">
    <path d="M0 0h64v64H0z" fill="url(#a)"/>
    <path d="M28 12.9814c7.44 0 13 2.354 13 4.4582 0 2.1043-5.56 4.4583-13 4.4583s-13-2.354-13-4.4583c0-2.1042 5.56-4.4582 13-4.4582Zm-.279 39.0372C20.44 52.0186 15 49.7449 15 47.7119v-5.9997c2.71 1.9616 7.769 2.9959 12.621 2.9959 1.339 0 2.687-.0733 4.005-.219l-.221-1.9695c-1.246.1377-2.518.207-3.784.207C20.397 42.7267 15 40.453 15 38.42v-7.1163c2.71 1.9626 7.769 2.997 12.621 2.997 1.367 0 2.716-.0754 4.01-.224l-.231-1.9675c-1.217.1387-2.489.21-3.779.21-7.224 0-12.621-2.2737-12.621-4.3076v-7.2372c2.768 2.033 7.991 3.1049 13 3.1049s10.232-1.072 13-3.105v2.1143h2v-5.449C43 13.2568 35.271 11 28 11s-15 2.2568-15 6.4396V47.712C13 51.7966 20.584 54 27.721 54c5.534 0 10.512-1.2315 12.991-3.2159l-1.256-1.5405c-2.108 1.6862-6.714 2.775-11.735 2.775Zm21.118-14.1197c-.016.4419-.306.8253-.737.9323-.056.0198-.803.3021-.803 1.7426.024 1.2166-.642 2.0994-1.62 2.129H45v-1.9814h.29c.006-.0515.01-.1.009-.1278 0-1.3087.402-2.1657.871-2.7214-.469-.5529-.871-1.4049-.871-2.7047 0-.0614.006-.1219.016-.1823.011-.0614.017-.1367.018-.208H45v-1.9815h.649c.499 0 .942.2002 1.246.5618.521.6221.461 1.5049.405 1.8863.025 1.3731.748 1.6466.831 1.6733.424.1367.723.541.708.9818Zm-6.693-5.1032H43v1.9815h-.467c-.006.0515-.01.101-.009.1288 0 1.3077-.402 2.1647-.871 2.7205.469.5528.871 1.4048.871 2.7046 0 .0614-.005.1219-.016.1823a1.3445 1.3445 0 0 0-.018.208H43v1.9815h-.825c-.499 0-.942-.2001-1.246-.5627-.522-.6212-.462-1.504-.406-1.8854-.025-1.3731-.747-1.6465-.83-1.6733-.423-.1367-.723-.541-.708-.9818.016-.4419.306-.8253.738-.9323.055-.0198.801-.3021.801-1.7426-.023-1.2166.643-2.0994 1.622-2.129ZM38 44.6843V26.8514h7v3.9629c0 .5469.447.9907 1 .9907h4v12.8793H38Zm12-15.1391v.2784h-3v-2.9722h.375L50 29.5452Zm1.72-1.0878-3.2-3.2842a1.0047 1.0047 0 0 0-.72-.3032H37c-.553 0-1 .4438-1 .9907V45.675c0 .5469.447.9907 1 .9907h14c.553 0 1-.4438 1-.9907v-16.53a.9878.9878 0 0 0-.28-.6876Z" fill="#FFF"/>
  </g>
</svg>