<svg width="64" height="64" xmlns="http://www.w3.org/2000/svg"><defs><linearGradient x1="0%" y1="100%" x2="100%" y2="0%" id="a"><stop stop-color="#2E27AD" offset="0%"/><stop stop-color="#527FFF" offset="100%"/></linearGradient></defs><g fill="none" fill-rule="evenodd"><path d="M0 0h64v64H0z" fill="url(#a)"/><path d="M52.736 26.304 50 26.88l2.136 2.328c-.4.736-.976 1.168-1.728 1.296l-1.609-2.88-1.608 2.88c-.752-.128-1.328-.56-1.727-1.296l2.135-2.328-2.736-.576a4.163 4.163 0 0 1-.023-.408c0-.656.232-1.2.696-1.632l2.52 1.296-.384-3.024a2.69 2.69 0 0 1 1.127-.24c.4 0 .777.08 1.128.24l-.383 3.024 2.52-1.296c.463.432.695.976.695 1.632 0 .112-.007.248-.023.408M40.894 43.572c1.246 0 2.629-.249 4.148-.748v1.598c-1.406.634-2.822.952-4.25.952-2.63 0-4.624-.754-5.984-2.261-1.36-1.507-2.041-3.723-2.041-6.647 0-2.901.692-5.117 2.074-6.647 1.383-1.53 3.389-2.295 6.018-2.295 1.406 0 2.732.272 3.979.816v1.598a12.39 12.39 0 0 0-3.876-.612c-2.154 0-3.712.55-4.675 1.649-.964 1.1-1.446 2.862-1.446 5.287v.408c0 2.358.488 4.097 1.463 5.219.974 1.122 2.504 1.683 4.59 1.683M27 12c7.44 0 13 2.376 13 4.5S34.44 21 27 21c-7.441 0-13-2.376-13-4.5S19.559 12 27 12m-.28 39.403c-7.28 0-12.72-2.295-12.72-4.347v-6.057c2.71 1.981 7.768 3.025 12.621 3.025 1.339 0 2.686-.074 4.005-.221l-.221-1.988a34.508 34.508 0 0 1-3.784.209C19.397 42.024 14 39.729 14 37.677v-7.183c2.71 1.98 7.768 3.024 12.621 3.024 1.367 0 2.716-.075 4.01-.225l-.231-1.987a32.998 32.998 0 0 1-3.779.212C19.397 31.518 14 29.223 14 27.171v-7.305C16.767 21.918 21.991 23 27 23c5.008 0 10.232-1.082 13-3.134V22h2v-5.5c0-4.222-7.729-6.5-15-6.5-7.272 0-15 2.278-15 6.5v30.556c0 4.123 7.584 6.347 14.72 6.347 5.535 0 10.513-1.244 12.992-3.246l-1.256-1.556c-2.109 1.703-6.714 2.802-11.736 2.802" fill="#FFF"/></g></svg>