<svg width="64" height="64" xmlns="http://www.w3.org/2000/svg"><defs><linearGradient x1="0%" y1="100%" x2="100%" y2="0%" id="a"><stop stop-color="#2E27AD" offset="0%"/><stop stop-color="#527FFF" offset="100%"/></linearGradient></defs><g fill="none" fill-rule="evenodd"><path d="M0 0h64v64H0z" fill="url(#a)"/><path d="M24.887 20.199c-7.567 0-12.841-2.161-12.841-4.1C12.046 14.16 17.32 12 24.887 12 32.369 12 37 14.128 37 16.099c0 1.972-4.631 4.1-12.113 4.1Zm-7.234 22.163 1.767.937c3.469-6.549 10.213-10.617 17.601-10.617 1.492 0 2.98.167 4.423.496l.443-1.951A21.803 21.803 0 0 0 39 30.78V15.899h-.019C38.774 12.363 33.171 10 24.887 10c-7.248 0-14.567 2.028-14.817 5.899H10v31.785c0 2.352 2.494 4.237 7.025 5.307l.459-1.947C14.153 50.258 12 48.939 12 47.684v-7.079c1.017.736 2.399 1.368 4.155 1.856l.535-1.927c-2.865-.795-4.644-1.992-4.644-3.122H12v-7.165c2.533 1.854 7.176 2.861 11.8 3.053l.082-1.998c-7.31-.304-11.836-2.478-11.836-4.319H12v-7.697c2.7 1.922 7.815 2.913 12.887 2.913 5.466 0 9.758-1.032 12.113-2.747v11.231c-8.122.008-15.534 4.481-19.347 11.679Zm29.539-6.879a19.868 19.868 0 0 0-3.98-1.815l.623-1.901c1.525.5 2.998 1.173 4.382 1.999l-1.025 1.717ZM39.84 51.899a5.151 5.151 0 0 0-.929-2.129l8.496-8.034c2.65 2.635 4.315 6.324 4.561 10.163H39.84Zm-5.103-2.26a3.19 3.19 0 0 1 3.041 2.26h-6.084c.404-1.304 1.608-2.26 3.043-2.26Zm14.119-9.273 2.732-2.583-1.375-1.453-12.781 12.085a5.138 5.138 0 0 0-2.695-.776c-2.546 0-4.661 1.842-5.105 4.26h-8.349c.508-8.141 7.196-14.606 15.342-14.606 2.211 0 4.345.459 6.342 1.364l.826-1.821a17.242 17.242 0 0 0-7.168-1.543c-9.58 0-17.374 7.898-17.374 17.606v1H54v-1c0-4.693-1.92-9.301-5.144-12.533Z" fill="#FFF"/></g></svg>