<svg width="64" height="64" xmlns="http://www.w3.org/2000/svg"><defs><linearGradient x1="0%" y1="100%" x2="100%" y2="0%" id="a"><stop stop-color="#2E27AD" offset="0%"/><stop stop-color="#527FFF" offset="100%"/></linearGradient></defs><g fill="none" fill-rule="evenodd"><path d="M0 0h64v64H0z" fill="url(#a)"/><path d="M49 45h2v-2h-2v2Zm-3 0h2v-2h-2v2Zm-3 0h2v-2h-2v2Zm9 6H33v-4.586l3.158-3.158 4.332 2.567a1 1 0 0 0 1.51-.861V41h10v10Zm1-12H41a1 1 0 0 0-1 1v3.208l-3.49-2.068a1.001 1.001 0 0 0-1.217.153l-4 4A.997.997 0 0 0 31 46v6a1 1 0 0 0 1 1h21a1 1 0 0 0 1-1V40a1 1 0 0 0-1-1ZM13 19h-2v-7a1 1 0 0 1 1-1h7v2h-4.586l5.293 5.293-1.414 1.414L13 14.414V19Zm7.658 22.752L14.661 47H19v2h-7a1 1 0 0 1-1-1v-7h2v4.797l6.342-5.549 1.316 1.504Zm19.635-23.459L45.586 13H41v-2h7a1 1 0 0 1 1 1v7h-2v-4.586l-5.293 5.293-1.414-1.414Zm7.271 11.399c0-2.047-2.452-4.099-6.559-5.488l.64-1.895c5.033 1.703 7.919 4.394 7.919 7.383 0 2.99-2.886 5.681-7.919 7.384l-.64-1.894c4.107-1.39 6.559-3.443 6.559-5.49Zm-37.564 0c0-2.879 2.717-5.51 7.453-7.219l.68 1.881C14.293 25.74 12 27.735 12 29.692c0 1.957 2.293 3.953 6.133 5.339l-.68 1.881C12.717 35.203 10 32.571 10 29.692ZM30 38c-3.816 0-5.665-.723-6-1.093v-1.892c1.387.631 3.438.985 6 .985 2.561 0 4.613-.354 6-.985v1.892c-.335.37-2.185 1.093-6 1.093Zm-6-12.023c1.54.696 3.775 1.023 6 1.023 2.224 0 4.46-.327 6-1.023v2.019c-.083.41-1.99 1.44-6 1.44s-5.917-1.03-6-1.44v-2.019ZM30 22c3.765 0 5.795 1.141 5.992 1.611C35.768 24.042 33.823 25 30 25c-3.899 0-5.843-.995-6-1.359v-.005c.132-.453 2.166-1.636 6-1.636Zm-6 8.416c1.397.649 3.461 1.02 6 1.02s4.602-.371 6-1.02v2.178c-.069.31-1.676 1.406-6 1.406s-5.931-1.096-6-1.406v-2.178ZM38 37V23.617C38 21.521 34.636 20 30 20s-8 1.521-8 3.617V37c0 2.784 6.123 3 8 3 1.877 0 8-.216 8-3Z" fill="#FFF"/></g></svg>