<svg width="64" height="64" xmlns="http://www.w3.org/2000/svg"><defs><linearGradient x1="0%" y1="100%" x2="100%" y2="0%" id="a"><stop stop-color="#4D27A8" offset="0%"/><stop stop-color="#A166FF" offset="100%"/></linearGradient></defs><g fill="none" fill-rule="evenodd"><path d="M0 0h64v64H0z" fill="url(#a)"/><path d="M32.073 13.171a.688.688 0 0 1-.972-.971.686.686 0 0 1 .972 0 .687.687 0 0 1 0 .971Zm1.414-2.385a2.69 2.69 0 0 0-3.8 0 2.67 2.67 0 0 0-.767 2.093l-3.761 2.068.963 1.753 3.678-2.023a2.674 2.674 0 0 0 1.788.693c.648 0 1.293-.241 1.803-.707l4.505 2.487.967-1.751-4.607-2.543a2.67 2.67 0 0 0-.769-2.07Zm14.487 32.19a.703.703 0 0 1-.97 0 .682.682 0 0 1 0-.971.681.681 0 0 1 .485-.201.687.687 0 0 1 .485 1.172Zm.576-2.949v-3.212h-2v3.165a2.671 2.671 0 0 0-1.748 2.511c0 .263.05.516.123.763l-3.545 1.781.898 1.787 3.938-1.979c.388.211.819.334 1.273.334.718 0 1.393-.279 1.899-.787a2.69 2.69 0 0 0 0-3.799 2.674 2.674 0 0 0-.838-.564Zm-32.378 2.949a.687.687 0 1 1-.972-.971.687.687 0 0 1 .972.971Zm1.414-2.385v-.001a2.668 2.668 0 0 0-1.036-.632v-3.143h-2v3.252a2.623 2.623 0 0 0-.764.524 2.688 2.688 0 0 0 0 3.799 2.675 2.675 0 0 0 1.899.786c.441 0 .876-.119 1.274-.334l3.718 1.866.897-1.788-3.325-1.668a2.681 2.681 0 0 0-.663-2.661Zm28.964-5.776h2v-5h-2v5Zm-32 0h2v-5h-2v5Zm17.523 16.69a.704.704 0 0 1-.972 0 .687.687 0 1 1 .972 0Zm5.733-4.673-4.408 2.216a2.656 2.656 0 0 0-.848-.531v-3.038h-2v3.066a2.662 2.662 0 0 0-.763.494l-4.638-2.326-.896 1.788 4.666 2.34c-.049.747.199 1.51.768 2.079a2.674 2.674 0 0 0 1.901.787 2.67 2.67 0 0 0 2.669-2.852l4.448-2.236-.899-1.787Zm9.198-25.492a.683.683 0 0 1 .97 0 .686.686 0 1 1-.97 0Zm-5.495 5.461 4.758-2.596c.093.048.186.095.283.132v3.478h2v-3.526a2.67 2.67 0 0 0 .838-.563 2.691 2.691 0 0 0 0-3.8c-.821-.822-2.135-.966-3.146-.455l-3.877-2.14-.967 1.751 3.536 1.951a2.667 2.667 0 0 0-.132.792c0 .286.056.56.141.824l-4.391 2.397.957 1.755Zm-10.408 4.331a.686.686 0 0 1 .972-.001.688.688 0 0 1-.972.972.689.689 0 0 1 0-.971Zm5.939-4.17-4.201 2.292a2.68 2.68 0 0 0-2.501 0l-4.731-2.582-.959 1.756 4.386 2.394a2.683 2.683 0 0 0 .653 2.695c.255.255.549.445.863.575v7.387h2V34.12c.341-.13.663-.328.937-.603a2.678 2.678 0 0 0 .652-2.696l3.858-2.104-.957-1.755ZM15.2 21.34a.685.685 0 0 1 .972.001.687.687 0 1 1-.972-.001Zm6.453-4.464-4.719 2.595c-1.011-.511-2.326-.367-3.148.455a2.691 2.691 0 0 0 0 3.8c.226.227.488.395.764.523v3.566h2v-3.457c.123-.041.24-.094.357-.154l4.23 2.309.957-1.756-3.864-2.108a2.69 2.69 0 0 0 .01-1.613l4.378-2.408-.965-1.752Z" fill="#FFF"/></g></svg>