<svg width="64" height="64" xmlns="http://www.w3.org/2000/svg"><defs><linearGradient x1="0%" y1="100%" x2="100%" y2="0%" id="a"><stop stop-color="#4D27A8" offset="0%"/><stop stop-color="#A166FF" offset="100%"/></linearGradient></defs><g fill="none" fill-rule="evenodd"><path d="M0 0h64v64H0z" fill="url(#a)"/><path d="M41.5 43.5c-1.103 0-2-.897-2-2s.897-2 2-2 2 .897 2 2-.897 2-2 2Zm0-6c-2.206 0-4 1.794-4 4s1.794 4 4 4 4-1.794 4-4-1.794-4-4-4Zm-19-5c-1.103 0-2-.897-2-2s.897-2 2-2 2 .897 2 2-.897 2-2 2Zm0-6c-2.206 0-4 1.794-4 4s1.794 4 4 4 4-1.794 4-4-1.794-4-4-4Zm22.889 20.624a28.66 28.66 0 0 0-.704-1.533l-1.789.895c.274.549.524 1.113.76 1.679a18.996 18.996 0 0 1-2.628 1.575c.356-.875.666-1.765.946-2.728l-1.92-.558a25.23 25.23 0 0 1-1.87 4.679A19.193 19.193 0 0 1 32.5 52c-3.035 0-5.933-.686-8.629-2.024-1.368-3.361-2.033-6.442-2.033-9.417 0-1.292.225-2.363.484-3.603.064-.304.128-.613.192-.932l-1.963-.386c-.061.311-.124.612-.186.907-.271 1.293-.527 2.515-.527 4.014 0 2.515.436 5.085 1.316 7.795A19.458 19.458 0 0 1 13 32.5c0-.111.01-.227.012-.339a24.175 24.175 0 0 1 4.842-.59l-.05-1.999c-1.635.04-3.11.207-4.641.512.918-7.401 6.049-13.69 13.16-16.065 1.55.799 2.697 1.505 3.812 2.351l1.209-1.594a24.194 24.194 0 0 0-2.198-1.477A19.548 19.548 0 0 1 32.5 13c2.532 0 5.032.494 7.349 1.439a32.58 32.58 0 0 0-1.606.532l.68 1.881c1.393-.503 2.485-.812 3.648-1.031C48.399 19.341 52 25.667 52 32.5a19.358 19.358 0 0 1-6.611 14.624Zm-2.381-33.375A21.385 21.385 0 0 0 32.5 11c-2.108 0-4.176.301-6.143.895-8.634 2.569-14.789 10.335-15.312 19.301-.035.429-.045.866-.045 1.304a21.466 21.466 0 0 0 11.354 18.955A21.541 21.541 0 0 0 32.5 54a21.1 21.1 0 0 0 6.937-1.157 21.038 21.038 0 0 0 6.209-3.336C50.955 45.399 54 39.2 54 32.5a21.517 21.517 0 0 0-10.992-18.751Zm-4.624 23.662-1.381 1.447c-2.981-2.843-5.956-4.712-9.366-5.883l.65-1.892c3.692 1.268 6.901 3.279 10.097 6.328Zm.06-15.047c2.838 4.328 4.436 9.08 4.749 14.124l-1.996.124c-.292-4.693-1.78-9.117-4.425-13.152l1.672-1.096Zm-11.993 4.433-1.678-1.089c1.543-2.376 2.866-3.95 4.563-5.43l1.314 1.508c-1.547 1.349-2.764 2.801-4.199 5.011ZM34.5 16.5c1.103 0 2 .897 2 2s-.897 2-2 2-2-.897-2-2 .897-2 2-2Zm0 6c2.206 0 4-1.794 4-4s-1.794-4-4-4-4 1.794-4 4 1.794 4 4 4Z" fill="#FFF"/></g></svg>