<svg width="64" height="64" xmlns="http://www.w3.org/2000/svg"><defs><linearGradient x1="0%" y1="100%" x2="100%" y2="0%" id="a"><stop stop-color="#4D27A8" offset="0%"/><stop stop-color="#A166FF" offset="100%"/></linearGradient></defs><g fill="none" fill-rule="evenodd"><path d="M0 0h64v64H0z" fill="url(#a)"/><path d="M31 36.928h3v-2.014h-3v2.014Zm4-4.029h-5c-.552 0-1 .452-1 1.008v4.028c0 .556.448 1.007 1 1.007h5c.553 0 1-.45 1-1.007v-4.028c0-.556-.447-1.008-1-1.008Zm10.924 12.087h-5.922v-8.058h11.942c.034.322.056.654.056 1.007 0 5.873-5.415 6.943-6.076 7.05Zm-14.924 0h3v-2.033h-3v2.033Zm-12.462-.03L25 39.171v5.815h-6c-.153 0-.307-.015-.462-.03ZM12 37.77l.005-.211c0-3.42 1.564-5.565 4.646-6.377a.99.99 0 0 0 .513-.297H25v.54l-11.755 10.02c-.701-1.08-1.163-2.313-1.241-3.573a.808.808 0 0 1-.003-.102Zm11.394-17.975a9.911 9.911 0 0 1 1.605-.52v5.567h-6.587c1.063-2.209 2.897-4.158 4.982-5.047Zm24.932 10.138-.656 1.904c1.882.657 3.107 1.646 3.758 3.077H39.002c-.553 0-1 .45-1 1.007v9.065H36v-3.04c0-.556-.447-1.007-1-1.007h-5c-.552 0-1 .45-1 1.007v3.04h-2v-8.058c0-.397-.23-.756-.59-.918a.995.995 0 0 0-1.074.165l-9.04 8.095a7.933 7.933 0 0 1-1.77-1.28l12.12-10.33c.224-.19.354-.472.354-.768v-2.014c0-.556-.447-1.007-1-1.007h-8.552l.002-.132c0-.619.086-1.252.239-1.883H26c.553 0 1-.451 1-1.007v-6.826a8.942 8.942 0 0 1 2 .2v10.655c0 .556.448 1.007 1 1.007h5c.553 0 1-.451 1-1.007v-3.022h-2v2.015h-3v-8.962c1.67.77 2.866 1.838 3.406 2.383l1.416-1.423c-3.732-3.77-8.669-4.866-13.206-2.93-4.018 1.715-7.166 6.459-7.166 10.8 0 .136-.004.284-.01.435l-.01.277c-2.312.8-5.424 2.854-5.424 8.108l-.003.12c-.003.082-.007.134.005.32.293 4.71 4.58 9.001 8.993 9.001H46a.973.973 0 0 0 .132-.01C48.854 46.624 54 44.259 54 37.936c0-4.05-1.855-6.667-5.673-8.002ZM41.332 23.5c0-.307.363-.672.668-.672.306 0 .668.365.668.672 0 .308-.362.673-.668.673-.305 0-.668-.365-.668-.673Zm3.335 0c0-1.406-1.27-2.686-2.667-2.686-1.396 0-2.668 1.28-2.668 2.686 0 1.407 1.272 2.687 2.668 2.687 1.397 0 2.667-1.28 2.667-2.687ZM42 19.807c2.09 0 3.665 1.588 3.665 3.692 0 1.465-2 5.03-3.665 7.598-1.665-2.567-3.666-6.131-3.666-7.598 0-2.104 1.576-3.692 3.666-3.692Zm0 14.1a1 1 0 0 0 .82-.43c.496-.716 4.845-7.068 4.845-9.978 0-3.253-2.435-5.707-5.665-5.707s-5.666 2.454-5.666 5.707c0 2.91 4.35 9.262 4.847 9.977.186.27.493.43.819.43Z" fill="#FFF"/></g></svg>