<svg width="64" height="64" xmlns="http://www.w3.org/2000/svg"><defs><linearGradient x1="0%" y1="100%" x2="100%" y2="0%" id="a"><stop stop-color="#4D27A8" offset="0%"/><stop stop-color="#A166FF" offset="100%"/></linearGradient></defs><g fill="none" fill-rule="evenodd"><path d="M0 0h64v64H0z" fill="url(#a)"/><path d="M52 32c0-1.654-1.346-3-3-3s-3 1.346-3 3 1.346 3 3 3 3-1.346 3-3Zm-10.918 7.821a15.21 15.21 0 0 0-2.714-1.021c-.482 1.705-1.145 3.176-1.938 4.342a12.038 12.038 0 0 0 4.652-3.321ZM32 46c-1.654 0-3 1.346-3 3s1.346 3 3 3 3-1.346 3-3-1.346-3-3-3Zm-4.43-2.858c-.793-1.167-1.456-2.637-1.938-4.343-.998.275-1.907.62-2.715 1.02a12.035 12.035 0 0 0 4.653 3.323ZM18 32c0-1.654-1.346-3-3-3s-3 1.346-3 3 1.346 3 3 3 3-1.346 3-3Zm5.124-8.048c.782.37 1.656.685 2.604.942.472-1.574 1.098-2.941 1.842-4.036a12.04 12.04 0 0 0-4.446 3.094ZM32 18c1.654 0 3-1.346 3-3s-1.346-3-3-3-3 1.346-3 3 1.346 3 3 3Zm4.43 2.858c.744 1.095 1.37 2.462 1.842 4.036a15.722 15.722 0 0 0 2.604-.941 12.023 12.023 0 0 0-4.446-3.095Zm2.382 15.997c1.278.347 2.443.792 3.456 1.324A11.892 11.892 0 0 0 43.949 33h-4.72a26.091 26.091 0 0 1-.417 3.855ZM20.051 33c.156 1.884.752 3.64 1.681 5.178 1.012-.532 2.178-.977 3.456-1.323A26.106 26.106 0 0 1 24.771 33h-4.72Zm5.195-6.171c-1.236-.332-2.367-.755-3.36-1.261A11.91 11.91 0 0 0 20.051 31h4.72c.052-1.47.215-2.87.475-4.171ZM43.949 31a11.91 11.91 0 0 0-1.835-5.432c-.993.505-2.124.929-3.36 1.261.26 1.301.423 2.701.475 4.171h4.72Zm-16.753-3.739A23.861 23.861 0 0 0 26.771 31h10.458a23.889 23.889 0 0 0-.425-3.74 27.55 27.55 0 0 1-9.608.001Zm.491-1.94a25.72 25.72 0 0 0 4.313.361 25.72 25.72 0 0 0 4.313-.361C35.29 22.02 33.589 20 32 20c-1.589 0-3.29 2.02-4.313 5.321ZM36.86 36.42c.195-1.059.324-2.202.369-3.42H26.771c.045 1.218.174 2.36.369 3.419a27.538 27.538 0 0 1 9.72.001Zm-.455 1.946a25.612 25.612 0 0 0-4.407-.379c-1.529 0-3.013.135-4.403.378C28.605 41.85 30.362 44 32 44c1.638 0 3.394-2.15 4.405-5.634ZM54 32c0 2.757-2.243 5-5 5a4.979 4.979 0 0 1-3.481-1.422 14.03 14.03 0 0 1-9.941 9.941A4.979 4.979 0 0 1 37 49c0 2.757-2.243 5-5 5s-5-2.243-5-5c0-1.354.545-2.579 1.422-3.481a14.03 14.03 0 0 1-9.941-9.941A4.979 4.979 0 0 1 15 37c-2.757 0-5-2.243-5-5s2.243-5 5-5c1.354 0 2.579.545 3.481 1.422a14.03 14.03 0 0 1 9.941-9.941A4.979 4.979 0 0 1 27 15c0-2.757 2.243-5 5-5s5 2.243 5 5a4.979 4.979 0 0 1-1.422 3.481 14.03 14.03 0 0 1 9.941 9.941A4.979 4.979 0 0 1 49 27c2.757 0 5 2.243 5 5Zm-6.655 7.31a17.125 17.125 0 0 1-8.035 8.035c.121.533.19 1.086.19 1.655 0 .154-.014.305-.023.457a19.13 19.13 0 0 0 9.98-9.98c-.152.009-.303.023-.457.023a7.464 7.464 0 0 1-1.655-.19ZM24.69 47.345a17.125 17.125 0 0 1-8.035-8.035A7.464 7.464 0 0 1 15 39.5c-.154 0-.305-.014-.457-.023a19.125 19.125 0 0 0 9.98 9.979c-.009-.151-.023-.302-.023-.456 0-.569.069-1.122.19-1.655ZM16.655 24.69a17.125 17.125 0 0 1 8.035-8.035A7.464 7.464 0 0 1 24.5 15c0-.154.014-.305.023-.456a19.125 19.125 0 0 0-9.98 9.979c.152-.009.303-.023.457-.023.569 0 1.122.069 1.655.19ZM39.5 15c0-.154-.014-.305-.023-.457a19.13 19.13 0 0 1 9.98 9.98c-.152-.009-.303-.023-.457-.023-.569 0-1.122.069-1.655.19a17.125 17.125 0 0 0-8.035-8.035c.121-.533.19-1.086.19-1.655Z" fill="#FFF"/></g></svg>