<svg width="64" height="64" xmlns="http://www.w3.org/2000/svg"><defs><linearGradient x1="0%" y1="100%" x2="100%" y2="0%" id="a"><stop stop-color="#4D27A8" offset="0%"/><stop stop-color="#A166FF" offset="100%"/></linearGradient></defs><g fill="none" fill-rule="evenodd"><path d="M0 0h64v64H0z" fill="url(#a)"/><path d="M23.5 42C17.71 42 13 37.29 13 31.5S17.71 21 23.5 21 34 25.71 34 31.5 29.29 42 23.5 42M48 48c0 1.654-1.346 3-3 3s-3-1.346-3-3 1.346-3 3-3 3 1.346 3 3m-3-35c1.654 0 3 1.346 3 3s-1.346 3-3 3-3-1.346-3-3 1.346-3 3-3m3 16c1.654 0 3 1.346 3 3s-1.346 3-3 3-3-1.346-3-3 1.346-3 3-3m-12.099 4h7.201A5.007 5.007 0 0 0 48 37c2.757 0 5-2.243 5-5s-2.243-5-5-5a5.007 5.007 0 0 0-4.898 4h-7.127a12.446 12.446 0 0 0-.879-4.144l7.703-6.389A4.94 4.94 0 0 0 45 21c2.757 0 5-2.243 5-5s-2.243-5-5-5-5 2.243-5 5c0 1.224.459 2.331 1.191 3.201l-7.019 5.823C31.977 21.42 28.021 19 23.5 19 16.607 19 11 24.607 11 31.5S16.607 44 23.5 44c4.243 0 7.993-2.129 10.254-5.371l7.437 6.17C40.459 45.669 40 46.776 40 48c0 2.757 2.243 5 5 5s5-2.243 5-5-2.243-5-5-5a4.94 4.94 0 0 0-2.201.533l-8.029-6.66c.574-1.2.966-2.5 1.131-3.873" fill="#FFF"/></g></svg>