<svg width="64" height="64" xmlns="http://www.w3.org/2000/svg"><defs><linearGradient x1="0%" y1="100%" x2="100%" y2="0%" id="a"><stop stop-color="#4D27A8" offset="0%"/><stop stop-color="#A166FF" offset="100%"/></linearGradient></defs><g fill="none" fill-rule="evenodd"><path d="M0 0h64v64H0z" fill="url(#a)"/><path d="M42.417 49.491c0-.827-.673-1.5-1.5-1.5s-1.5.673-1.5 1.5.673 1.5 1.5 1.5 1.5-.673 1.5-1.5Zm-10-.5c-.827 0-1.5.673-1.5 1.5s.673 1.5 1.5 1.5 1.5-.673 1.5-1.5-.673-1.5-1.5-1.5Zm-4.274-9.19c-.691-1.009-1.285-2.249-1.749-3.677-.922.241-1.789.53-2.561.875a12.305 12.305 0 0 0 4.31 2.802Zm13.087-2.8a16.5 16.5 0 0 0-2.559-.876c-.465 1.427-1.059 2.667-1.749 3.676a12.3 12.3 0 0 0 4.308-2.8Zm-12.869-1.296c.788 2.318 1.903 3.936 3.056 4.59v-4.893a25.693 25.693 0 0 0-3.056.303Zm8.342.001a25.574 25.574 0 0 0-3.286-.31v5.021c1.233-.557 2.445-2.239 3.286-4.71Zm-8.88-1.932c1.496-.259 3.084-.4 4.707-.4 1.625 0 3.213.142 4.71.401.322-1.429.523-3.037.563-4.784H27.262c.04 1.747.241 3.354.561 4.783Zm-7.529-4.783a12.184 12.184 0 0 0 2.225 6.432c.994-.492 2.121-.902 3.349-1.224-.357-1.594-.566-3.35-.606-5.208h-4.968Zm2.405-7.944a12.187 12.187 0 0 0-2.356 5.944h4.937c.079-1.712.313-3.32.664-4.793-1.181-.305-2.275-.689-3.245-1.15Zm5.444-4.136a12.27 12.27 0 0 0-4.059 2.57c.735.311 1.544.577 2.407.798.449-1.3 1.01-2.432 1.652-3.368Zm4.389-.826c-1.462 0-3.017 1.732-4.06 4.61 1.29.203 2.659.31 4.06.31a26.12 26.12 0 0 0 4.061-.31c-1.043-2.878-2.599-4.61-4.061-4.61Zm8.448 3.394a12.29 12.29 0 0 0-4.058-2.568c.641.936 1.202 2.067 1.651 3.368a16.767 16.767 0 0 0 2.407-.8Zm-3.812 3.14a27.758 27.758 0 0 1-4.636.386c-1.597 0-3.16-.136-4.636-.387a23.77 23.77 0 0 0-.616 4.373h10.504a23.77 23.77 0 0 0-.616-4.373Zm7.554 4.372a12.178 12.178 0 0 0-2.357-5.944 18.13 18.13 0 0 1-3.245 1.151 25.76 25.76 0 0 1 .664 4.793h4.938Zm-4.919 2c-.04 1.858-.249 3.615-.607 5.21 1.228.321 2.356.731 3.35 1.223a12.193 12.193 0 0 0 2.225-6.433h-4.968Zm-15.886 19c-.827 0-1.5.673-1.5 1.5s.673 1.5 1.5 1.5 1.5-.673 1.5-1.5-.673-1.5-1.5-1.5Zm20.5 1.5c0 1.93-1.57 3.5-3.5 3.5s-3.5-1.57-3.5-3.5c0-1.58 1.06-2.903 2.5-3.337v-.163h-6.5v1.163c1.44.434 2.5 1.757 2.5 3.337 0 1.93-1.57 3.5-3.5 3.5s-3.5-1.57-3.5-3.5c0-1.58 1.06-2.903 2.5-3.337v-1.163h-6.5v.163c1.44.434 2.5 1.757 2.5 3.337 0 1.93-1.57 3.5-3.5 3.5s-3.5-1.57-3.5-3.5c0-1.58 1.06-2.903 2.5-3.337v-2.163h8.5v-1.42c-7.348-.574-13.155-6.723-13.155-14.215 0-7.869 6.401-14.27 14.27-14.27s14.271 6.401 14.271 14.27c0 7.57-5.929 13.765-13.386 14.225v1.41h8.5v2.163c1.44.434 2.5 1.757 2.5 3.337Zm1.029-8.045-1.414-1.414c6.404-6.405 6.404-16.826 0-23.23-6.405-6.404-16.825-6.403-23.23 0-6.404 6.404-6.404 16.825 0 23.23l-1.414 1.414c-7.184-7.184-7.184-18.874 0-26.058 7.183-7.184 18.875-7.185 26.058 0 7.184 7.184 7.184 18.874 0 26.058Z" fill="#FFF"/></g></svg>