<svg width="64" height="64" xmlns="http://www.w3.org/2000/svg"><defs><linearGradient x1="0%" y1="100%" x2="100%" y2="0%" id="a"><stop stop-color="#4D27A8" offset="0%"/><stop stop-color="#A166FF" offset="100%"/></linearGradient></defs><g fill="none" fill-rule="evenodd"><path d="M0 0h64v64H0z" fill="url(#a)"/><path d="M33.522 32.737C34.475 33.796 35 35.13 35 36.495c0 3.203-2.244 5.526-5.333 5.526h-6.223c-3.104 0-5.444-2.375-5.444-5.526 0-3.137 2.29-5.415 5.444-5.415h3.111v1.99h-3.111c-2.028 0-3.444 1.408-3.444 3.425 0 2.049 1.448 3.537 3.444 3.537h6.223c1.962 0 3.333-1.454 3.333-3.537 0-.874-.344-1.738-.968-2.43l1.49-1.328ZM45 35.06c0 3.736-3.051 5.968-6 5.968h-3.112v-1.99H39c1.965 0 4-1.488 4-3.978s-2.035-3.979-4-3.979h-6.223c-2.013 0-3.777 1.807-3.777 3.868 0 .53.364 1.153.684 1.704l.07.12-1.732.994-.067-.116c-.426-.73-.955-1.637-.955-2.702 0-3.12 2.699-5.857 5.777-5.857H39c2.949 0 6 2.232 6 5.968Zm.439 8.952H18.561c-3.544-.003-6.359-2.508-6.549-5.826a7.945 7.945 0 0 1-.012-.468c0-4.249 3.059-5.683 4.938-6.162a.993.993 0 0 0 .825-1.104 9.334 9.334 0 0 1-.071-1.154c0-3.47 2.498-7.207 5.687-8.505 5.548-2.259 9.48.71 10.913 2.09 1.163 1.121 2.071 2.556 2.699 4.264a1.004 1.004 0 0 0 1.734.263c.899-1.17 2.35-1.661 3.704-1.251 1.612.489 2.614 2.072 2.751 4.343.028.45.356.827.801.915C49.974 32.218 52 34.358 52 37.78c0 5.421-4.111 6.23-6.561 6.23Zm1.663-14.381c-.376-2.718-1.869-4.7-4.089-5.374a5.333 5.333 0 0 0-4.732.82c-.679-1.397-1.549-2.612-2.597-3.622-3.571-3.445-8.454-4.38-13.062-2.503-3.951 1.609-6.93 6.057-6.93 10.346 0 .184.005.367.013.549-2.188.735-5.705 2.72-5.705 7.871 0 .2.005.392.016.58.249 4.387 3.922 7.699 8.544 7.703h26.879C47.447 46 54 45.407 54 37.78c0-4.155-2.442-7.026-6.898-8.15Z" fill="#FFF"/></g></svg>