<svg width="64" height="64" xmlns="http://www.w3.org/2000/svg"><defs><linearGradient x1="0%" y1="100%" x2="100%" y2="0%" id="a"><stop stop-color="#4D27A8" offset="0%"/><stop stop-color="#A166FF" offset="100%"/></linearGradient></defs><g fill="none" fill-rule="evenodd"><path d="M0 0h64v64H0z" fill="url(#a)"/><path d="M38.761 32.527c.575.53.862 1.243.862 2.137 0 .973-.349 1.75-1.049 2.33-.699.581-1.639.871-2.82.871a6.9 6.9 0 0 1-2.768-.595v-1.192c1.081.357 2.004.536 2.768.536.754 0 1.334-.169 1.741-.506.408-.337.611-.82.611-1.444 0-1.201-.759-1.802-2.278-1.802-.476 0-.947.025-1.414.074v-.983l3.126-3.41h-4.406v-1.221h6.059v1.177l-3.067 3.246a.753.753 0 0 1 .149-.015h.149c.983 0 1.761.266 2.337.797m-8.647-.26c.604.566.907 1.344.907 2.337 0 .973-.353 1.76-1.057 2.36-.705.601-1.633.901-2.783.901-1.012 0-1.96-.199-2.843-.595v-1.192c1.102.357 2.044.536 2.828.536.754 0 1.332-.17 1.734-.513.402-.343.602-.836.602-1.482 0-.705-.187-1.216-.565-1.534-.377-.317-.992-.476-1.846-.476-.615 0-1.384.05-2.307.149v-.983l.284-4.453H30.5v1.222h-4.182l-.195 3.023c.546-.1 1.037-.15 1.474-.15 1.072 0 1.911.283 2.517.85m11.147 10.697c-3.745.672-7.028 2.182-9.261 3.431-2.232-1.25-5.515-2.76-9.26-3.431-1.032-.185-6.174-1.256-6.174-4.14 0-1.361.497-2.282 1.451-3.924 1.116-1.926 2.646-4.564 2.646-8.226 0-2.564-.659-5.023-1.96-7.32l.269-.331c1.955.95 3.987 1.43 6.053 1.43 2.546 0 4.889-.657 6.975-1.951 2.086 1.294 4.43 1.95 6.976 1.95 2.065 0 4.097-.48 6.053-1.43l.268.331c-1.301 2.298-1.96 4.757-1.96 7.32 0 3.663 1.53 6.3 2.647 8.227.954 1.642 1.451 2.563 1.451 3.925 0 2.883-5.143 3.954-6.174 4.139m4.076-16.29c0-2.415.682-4.73 2.025-6.882a1 1 0 0 0-.074-1.162c-.395-.485-.809-.994-1.218-1.5a1 1 0 0 0-1.261-.246c-1.883 1.04-3.846 1.568-5.833 1.568-2.4 0-4.494-.644-6.406-1.97a.997.997 0 0 0-1.139 0c-1.912 1.326-4.007 1.97-6.406 1.97-1.988 0-3.951-.528-5.833-1.568a1 1 0 0 0-1.261.246c-.409.506-.823 1.015-1.219 1.5a1 1 0 0 0-.073 1.162c1.343 2.152 2.024 4.467 2.024 6.882 0 3.124-1.262 5.3-2.377 7.221-1.066 1.84-1.72 3.06-1.72 4.93 0 4.363 5.985 5.778 7.82 6.108 3.75.674 7.024 2.265 9.111 3.48a1.005 1.005 0 0 0 1.006 0c2.087-1.215 5.362-2.806 9.112-3.48 1.834-.33 7.82-1.745 7.82-6.108 0-1.87-.654-3.09-1.721-4.93-1.114-1.92-2.377-4.097-2.377-7.221m-3.269 20.785c-4.666.838-8.6 3.296-10.068 4.309-1.468-1.013-5.401-3.47-10.067-4.31-2.33-.418-9.933-2.28-9.933-8.633 0-2.655 1.004-4.387 2.068-6.22.998-1.72 2.03-3.498 2.03-5.931 0-3.667-2.027-6.302-3.157-7.487 1.154-1.405 3.695-4.506 5.088-6.29 2.122 1.935 4.571 2.988 6.996 2.988 2.701 0 4.942-1.065 6.975-3.336 2.033 2.27 4.275 3.336 6.976 3.336 2.425 0 4.874-1.053 6.996-2.988 1.393 1.784 3.934 4.885 5.088 6.29-1.13 1.185-3.157 3.82-3.157 7.487 0 2.433 1.032 4.212 2.03 5.932C50.996 34.438 52 36.17 52 38.825c0 6.354-7.602 8.215-9.932 8.634M51.662 31.6c-.944-1.627-1.759-3.033-1.759-4.927 0-4.002 3.121-6.603 3.15-6.627a1.002 1.002 0 0 0 .143-1.414c-.052-.062-5.147-6.24-6.311-7.835a.999.999 0 0 0-1.538-.094c-1.917 2.05-4.18 3.18-6.371 3.18-2.416 0-4.322-1.083-6.182-3.513-.379-.495-1.209-.495-1.588 0-1.859 2.43-3.765 3.513-6.181 3.513-2.192 0-4.454-1.13-6.371-3.18a1 1 0 0 0-1.539.094c-1.164 1.596-6.258 7.773-6.31 7.835-.17.206-.25.47-.224.737.028.266.159.51.367.677.032.026 3.15 2.595 3.15 6.627 0 1.894-.816 3.3-1.76 4.927C11.242 33.49 10 35.631 10 38.825c0 5.336 4.328 9.3 11.579 10.604 5.316.954 9.768 4.33 9.813 4.365a1 1 0 0 0 1.218-.001c.044-.034 4.478-3.406 9.811-4.364C49.672 48.125 54 44.16 54 38.825c0-3.194-1.242-5.335-2.338-7.224" fill="#FFF"/></g></svg>