<svg width="64" height="64" xmlns="http://www.w3.org/2000/svg"><defs><linearGradient x1="0%" y1="100%" x2="100%" y2="0%" id="a"><stop stop-color="#4D27A8" offset="0%"/><stop stop-color="#A166FF" offset="100%"/></linearGradient></defs><g fill="none" fill-rule="evenodd"><path d="M0 0h64v64H0z" fill="url(#a)"/><path d="M32.014 38c1.103 0 2 .897 2 2s-.897 2-2 2-2-.897-2-2 .897-2 2-2Zm-1 5.858V48h2v-4.142c1.721-.447 3-2 3-3.858 0-2.206-1.794-4-4-4s-4 1.794-4 4c0 1.858 1.279 3.411 3 3.858ZM53.428 24l-4.707 4.707-1.414-1.414L49.6 25H14.428l2.293 2.293-1.414 1.414L10.6 24l4.707-4.707 1.414 1.414L14.428 23H49.6l-2.293-2.293 1.414-1.414L53.428 24Zm-29.414-3h-2v-1c0-5.514 4.486-10 10-10s10 4.486 10 10v1h-2v-1c0-4.411-3.589-8-8-8s-8 3.589-8 8v1Zm-5 31h26V32h-26v20Zm23-25h-2v3h-16v-3h-2v3h-5v24h30V30h-5v-3Z" fill="#FFF"/></g></svg>