<svg id="emoji" viewBox="0 0 72 72" xmlns="http://www.w3.org/2000/svg" width="64" height="64">
  <g id="line">
    <rect x="5" y="17" width="62" height="38" fill="none" stroke="#000" strokeLinejoin="round" strokeWidth="2"/>
    <path fill="none" stroke="#000" strokeLinecap="round" strokeLinejoin="round" strokeWidth="2" d="M9 21V52"/>
    <path fill="none" stroke="#000" strokeLinecap="round" strokeLinejoin="round" strokeWidth="2" d="M12 21V52"/>
    <path fill="none" stroke="#000" strokeLinecap="round" strokeLinejoin="round" strokeWidth="2" d="M12 21V52"/>
    <path fill="none" stroke="#000" strokeLinecap="round" strokeLinejoin="round" strokeWidth="2" d="M20 21V50"/>
    <path fill="none" stroke="#000" strokeLinecap="round" strokeLinejoin="round" strokeWidth="2" d="M28 21V50"/>
    <path fill="#000" stroke="#000" strokeLinecap="round" strokeLinejoin="round" strokeWidth="2" d="M15 50V21H17V50H15Z"/>
    <path fill="#000" stroke="#000" strokeLinecap="round" strokeLinejoin="round" strokeWidth="2" d="M23 50V21H25V50H23Z"/>
    <path fill="#000" stroke="#000" strokeLinecap="round" strokeLinejoin="round" strokeWidth="2" d="M31 50V21H32V50H31Z"/>
    <path fill="none" stroke="#000" strokeLinecap="round" strokeLinejoin="round" strokeWidth="2" d="M46 21V50"/>
    <path fill="none" stroke="#000" strokeLinecap="round" strokeLinejoin="round" strokeWidth="2" d="M49 21V50"/>
    <path fill="none" stroke="#000" strokeLinecap="round" strokeLinejoin="round" strokeWidth="2" d="M57 21V50"/>
    <path fill="#000" stroke="#000" strokeLinecap="round" strokeLinejoin="round" strokeWidth="2" d="M41 50V21H43V50H41Z"/>
    <path fill="#000" stroke="#000" strokeLinecap="round" strokeLinejoin="round" strokeWidth="2" d="M52 50V21H54V50H52Z"/>
    <path fill="none" stroke="#000" strokeLinecap="round" strokeLinejoin="round" strokeWidth="2" d="M60 21V52"/>
    <path fill="none" stroke="#000" strokeLinecap="round" strokeLinejoin="round" strokeWidth="2" d="M63 21V52"/>
    <path fill="none" stroke="#000" strokeLinecap="round" strokeLinejoin="round" strokeWidth="2" d="M35 21V52"/>
    <path fill="none" stroke="#000" strokeLinecap="round" strokeLinejoin="round" strokeWidth="2" d="M38 21V52"/>
  </g>
</svg>
