<svg id="emoji" viewBox="0 0 72 72" xmlns="http://www.w3.org/2000/svg" width="64" height="64">
  <g id="line">
    <circle cx="36" cy="36" r="23" fill="none" stroke="#000000" strokeMiterlimit="10" strokeWidth="2"/>
    <line x1="44.5361" x2="50.9214" y1="21.4389" y2="24.7158" fill="none" stroke="#000000" strokeLinecap="round" strokeLinejoin="round" strokeMiterlimit="10" strokeWidth="2"/>
    <line x1="26.9214" x2="20.5361" y1="21.4389" y2="24.7158" fill="none" stroke="#000000" strokeLinecap="round" strokeLinejoin="round" strokeMiterlimit="10" strokeWidth="2"/>
    <path fill="none" stroke="#000000" strokeLinecap="round" strokeLinejoin="round" strokeMiterlimit="10" strokeWidth="2" d="M24,28c2.3334,1.3333,4.6666,2.6667,7,4c-2.3334,1.3333-4.6666,2.6667-7,4"/>
    <path fill="none" stroke="#000000" strokeLinecap="round" strokeLinejoin="round" strokeMiterlimit="10" strokeWidth="2" d="M48,28c-2.3334,1.3333-4.6666,2.6667-7,4c2.3334,1.3333,4.6666,2.6667,7,4"/>
    <path fill="none" stroke="#000000" strokeLinecap="round" strokeLinejoin="round" strokeMiterlimit="10" strokeWidth="2" d="M28,51c0.2704-0.3562,1-8,8.4211-8.0038C43,42.9929,43.6499,50.5372,44,51C38.6667,51,33.3333,51,28,51z"/>
  </g>
</svg>
